G04 start of page 3 for group 1 idx 1 *
G04 Title: (unknown), solder *
G04 Creator: pcb 20110918 *
G04 CreationDate: Tue 21 Aug 2012 15:57:03 GMT UTC *
G04 For: rob *
G04 Format: Gerber/RS-274X *
G04 PCB-Dimensions: 157480 283465 *
G04 PCB-Coordinate-Origin: lower left *
%MOIN*%
%FSLAX25Y25*%
%LNBOTTOM*%
%ADD64C,0.1280*%
%ADD63C,0.0380*%
%ADD62C,0.0472*%
%ADD61C,0.0350*%
%ADD60C,0.0197*%
%ADD59C,0.0354*%
%ADD58C,0.0360*%
%ADD57C,0.0360*%
%ADD56R,0.0669X0.0669*%
%ADD55R,0.0150X0.0150*%
%ADD54R,0.0130X0.0130*%
%ADD53R,0.0240X0.0240*%
%ADD52R,0.1220X0.1220*%
%ADD51R,0.0512X0.0512*%
%ADD50R,0.0560X0.0560*%
%ADD49R,0.0689X0.0689*%
%ADD48R,0.0340X0.0340*%
%ADD47R,0.0283X0.0283*%
%ADD46R,0.0530X0.0530*%
%ADD45C,0.0600*%
%ADD44C,0.0945*%
%ADD43C,0.0150*%
%ADD42C,0.0200*%
%ADD41C,0.0098*%
%ADD40C,0.0250*%
%ADD39C,0.0079*%
%ADD38C,0.0100*%
%ADD37C,0.0001*%
G54D37*G36*
X0Y8662D02*Y61418D01*
X75D01*
Y55571D01*
X70Y55512D01*
X89Y55276D01*
X144Y55047D01*
X144Y55047D01*
Y55047D01*
X197Y54919D01*
X234Y54829D01*
X234Y54829D01*
Y54829D01*
X262Y54783D01*
X358Y54627D01*
X358Y54627D01*
X511Y54448D01*
X556Y54410D01*
X1260Y53706D01*
X1298Y53661D01*
X1478Y53508D01*
X1478Y53508D01*
X1601Y53432D01*
X1679Y53384D01*
X1807Y53331D01*
X1897Y53294D01*
X2127Y53239D01*
X2362Y53220D01*
X2421Y53225D01*
X2629D01*
X2628Y53223D01*
X2638Y50238D01*
X2674Y50087D01*
X2733Y49944D01*
X2814Y49812D01*
X2915Y49694D01*
X3032Y49594D01*
X3164Y49513D01*
X3307Y49454D01*
X3458Y49417D01*
X3612Y49408D01*
X5512Y49413D01*
Y49065D01*
X5394Y48993D01*
X5277Y48892D01*
X5176Y48774D01*
X5095Y48642D01*
X5036Y48499D01*
X5000Y48349D01*
X4991Y48194D01*
X5000Y45209D01*
X5036Y45058D01*
X5095Y44915D01*
X5176Y44783D01*
X5277Y44665D01*
X5394Y44565D01*
X5512Y44493D01*
Y43231D01*
X5394Y43159D01*
X5277Y43058D01*
X5176Y42940D01*
X5095Y42808D01*
X5036Y42665D01*
X5000Y42515D01*
X4991Y42360D01*
X5000Y39375D01*
X5036Y39224D01*
X5095Y39081D01*
X5176Y38949D01*
X5277Y38831D01*
X5379Y38744D01*
X5277Y38656D01*
X5176Y38539D01*
X5095Y38407D01*
X5036Y38263D01*
X5000Y38113D01*
X4991Y37958D01*
X4995Y36644D01*
X556Y32205D01*
X511Y32167D01*
X358Y31988D01*
X234Y31786D01*
X144Y31568D01*
X95Y31363D01*
X89Y31339D01*
Y31339D01*
X89Y31339D01*
X89Y31338D01*
X70Y31103D01*
X75Y31044D01*
Y24469D01*
X70Y24410D01*
X89Y24175D01*
X89Y24174D01*
X144Y23945D01*
X144Y23945D01*
Y23945D01*
X166Y23892D01*
X234Y23727D01*
X358Y23525D01*
X358Y23525D01*
X358Y23525D01*
X358Y23525D01*
X511Y23346D01*
X556Y23308D01*
X2236Y21627D01*
X2244Y19297D01*
X2280Y19146D01*
X2339Y19003D01*
X2420Y18871D01*
X2521Y18753D01*
X2638Y18653D01*
X2770Y18572D01*
X2913Y18513D01*
X3064Y18476D01*
X3218Y18467D01*
X3618Y18468D01*
Y11083D01*
X3613Y11024D01*
X3632Y10789D01*
X3687Y10559D01*
X3777Y10341D01*
X3901Y10140D01*
X4054Y9960D01*
X4099Y9922D01*
X5359Y8662D01*
X0D01*
G37*
G36*
X13672Y4837D02*X13724Y4622D01*
X13814Y4404D01*
X13938Y4203D01*
X14091Y4023D01*
X14271Y3870D01*
X14472Y3746D01*
X14690Y3656D01*
X14920Y3601D01*
X15155Y3587D01*
X18790Y3601D01*
X19020Y3656D01*
X19238Y3746D01*
X19439Y3870D01*
X19619Y4023D01*
X19772Y4203D01*
X19896Y4404D01*
X19984Y4618D01*
X19998Y4610D01*
X20401Y4443D01*
X20825Y4341D01*
X21260Y4307D01*
X21695Y4341D01*
X22119Y4443D01*
X22522Y4610D01*
X22893Y4837D01*
X23195D01*
X23247Y4622D01*
X23337Y4404D01*
X23461Y4203D01*
X23614Y4023D01*
X23794Y3870D01*
X23995Y3746D01*
X24213Y3656D01*
X24443Y3601D01*
X24678Y3587D01*
X28313Y3601D01*
X28543Y3656D01*
X28761Y3746D01*
X28962Y3870D01*
X29142Y4023D01*
X29295Y4203D01*
X29419Y4404D01*
X29509Y4622D01*
X29561Y4837D01*
X30995D01*
X31047Y4622D01*
X31137Y4404D01*
X31261Y4203D01*
X31414Y4023D01*
X31594Y3870D01*
X31795Y3746D01*
X32013Y3656D01*
X32243Y3601D01*
X32478Y3587D01*
X36113Y3601D01*
X36343Y3656D01*
X36561Y3746D01*
X36762Y3870D01*
X36942Y4023D01*
X37095Y4203D01*
X37219Y4404D01*
X37309Y4622D01*
X37364Y4852D01*
X37378Y5087D01*
X37371Y7098D01*
X39765Y9492D01*
X47243Y2015D01*
X47300Y1948D01*
X47569Y1718D01*
X47569Y1718D01*
X47570Y1718D01*
X47726Y1622D01*
X47871Y1533D01*
X47871Y1533D01*
X47871Y1533D01*
X48069Y1451D01*
X48199Y1398D01*
X48199Y1398D01*
X48199Y1398D01*
X48359Y1359D01*
X48543Y1315D01*
X48543Y1315D01*
X48543Y1315D01*
X48896Y1287D01*
X48984Y1294D01*
X115354D01*
Y0D01*
X0D01*
Y10630D01*
X3670D01*
X3687Y10559D01*
X3777Y10341D01*
X3901Y10140D01*
X4054Y9960D01*
X4099Y9922D01*
X5858Y8163D01*
X5869Y4852D01*
X5924Y4622D01*
X6014Y4404D01*
X6138Y4203D01*
X6291Y4023D01*
X6471Y3870D01*
X6672Y3746D01*
X6890Y3656D01*
X7120Y3601D01*
X7355Y3587D01*
X10990Y3601D01*
X11220Y3656D01*
X11438Y3746D01*
X11639Y3870D01*
X11819Y4023D01*
X11972Y4203D01*
X12096Y4404D01*
X12186Y4622D01*
X12238Y4837D01*
X13672D01*
G37*
G36*
X137886Y145653D02*X138230Y145680D01*
X138383Y145717D01*
X146925Y137175D01*
Y136144D01*
X146779Y136109D01*
X146376Y135942D01*
X146004Y135714D01*
X145672Y135431D01*
X145389Y135099D01*
X145307Y134965D01*
X137886Y134966D01*
Y145653D01*
G37*
G36*
Y17804D02*X137973Y17729D01*
X138739Y17260D01*
X139570Y16916D01*
X140443Y16706D01*
X141339Y16636D01*
X142235Y16706D01*
X143108Y16916D01*
X143939Y17260D01*
X144705Y17729D01*
X145388Y18313D01*
X145971Y18996D01*
X146441Y19762D01*
X146785Y20592D01*
X146995Y21466D01*
X147047Y22362D01*
X146995Y23258D01*
X146785Y24131D01*
X146591Y24600D01*
X146779Y24522D01*
X147203Y24420D01*
X147638Y24386D01*
X148073Y24420D01*
X148497Y24522D01*
X148900Y24689D01*
X149272Y24917D01*
X149604Y25200D01*
X149887Y25532D01*
X150115Y25904D01*
X150282Y26307D01*
X150384Y26731D01*
X150410Y27166D01*
X150384Y27601D01*
X150282Y28025D01*
X150115Y28428D01*
X149887Y28800D01*
X149604Y29132D01*
X149272Y29415D01*
X148900Y29643D01*
X148497Y29810D01*
X148073Y29912D01*
X147638Y29946D01*
X147203Y29912D01*
X147045Y29874D01*
X146946Y29958D01*
X146946Y29958D01*
X146946Y29958D01*
X146847Y30019D01*
X146745Y30082D01*
X146745Y30082D01*
X146745Y30082D01*
X146638Y30126D01*
X146527Y30172D01*
X146527Y30172D01*
X146527Y30172D01*
X146394Y30204D01*
X146297Y30227D01*
X146297Y30227D01*
X146297Y30227D01*
X146062Y30246D01*
X146003Y30241D01*
X137886D01*
Y32804D01*
X137973Y32729D01*
X138739Y32260D01*
X139570Y31916D01*
X140443Y31706D01*
X141339Y31636D01*
X142235Y31706D01*
X143108Y31916D01*
X143939Y32260D01*
X144705Y32729D01*
X145388Y33313D01*
X145971Y33996D01*
X146441Y34762D01*
X146785Y35592D01*
X146995Y36466D01*
X147047Y37362D01*
X146995Y38258D01*
X146785Y39131D01*
X146611Y39552D01*
X146779Y39482D01*
X147203Y39380D01*
X147638Y39346D01*
X148073Y39380D01*
X148497Y39482D01*
X148900Y39649D01*
X149272Y39877D01*
X149604Y40160D01*
X149887Y40492D01*
X150115Y40864D01*
X150282Y41267D01*
X150384Y41691D01*
X150410Y42126D01*
X150384Y42561D01*
X150282Y42985D01*
X150115Y43388D01*
X149887Y43760D01*
X149604Y44092D01*
X149272Y44375D01*
X148900Y44603D01*
X148497Y44770D01*
X148073Y44872D01*
X147638Y44906D01*
X147203Y44872D01*
X147046Y44834D01*
X146946Y44919D01*
X146946Y44919D01*
X146946Y44919D01*
X146847Y44980D01*
X146745Y45043D01*
X146745Y45043D01*
X146745Y45043D01*
X146638Y45087D01*
X146527Y45133D01*
X146527Y45133D01*
X146527Y45133D01*
X146394Y45165D01*
X146297Y45188D01*
X146297Y45188D01*
X146297Y45188D01*
X146062Y45207D01*
X146003Y45202D01*
X137886D01*
Y47804D01*
X137973Y47729D01*
X138739Y47260D01*
X139570Y46916D01*
X140443Y46706D01*
X141339Y46636D01*
X142235Y46706D01*
X143108Y46916D01*
X143939Y47260D01*
X144705Y47729D01*
X145388Y48313D01*
X145971Y48996D01*
X146441Y49762D01*
X146785Y50592D01*
X146995Y51466D01*
X147047Y52362D01*
X146995Y53258D01*
X146785Y54131D01*
X146630Y54505D01*
X146779Y54443D01*
X147203Y54341D01*
X147638Y54307D01*
X148073Y54341D01*
X148497Y54443D01*
X148900Y54610D01*
X149272Y54838D01*
X149604Y55121D01*
X149887Y55453D01*
X150115Y55825D01*
X150282Y56228D01*
X150384Y56652D01*
X150410Y57087D01*
X150384Y57522D01*
X150282Y57946D01*
X150115Y58349D01*
X149887Y58721D01*
X149604Y59053D01*
X149272Y59336D01*
X148900Y59564D01*
X148497Y59731D01*
X148073Y59833D01*
X147638Y59867D01*
X147203Y59833D01*
X147045Y59795D01*
X146946Y59879D01*
X146946Y59879D01*
X146946Y59879D01*
X146847Y59940D01*
X146745Y60002D01*
X146745Y60002D01*
X146745Y60003D01*
X146638Y60047D01*
X146527Y60093D01*
X146527Y60093D01*
X146527Y60093D01*
X146394Y60125D01*
X146297Y60148D01*
X146297Y60148D01*
X146297Y60148D01*
X146062Y60166D01*
X146003Y60162D01*
X137886D01*
Y62804D01*
X137973Y62729D01*
X138739Y62260D01*
X139570Y61916D01*
X140443Y61706D01*
X141339Y61636D01*
X142235Y61706D01*
X143108Y61916D01*
X143939Y62260D01*
X144705Y62729D01*
X145388Y63313D01*
X145971Y63996D01*
X146441Y64762D01*
X146785Y65592D01*
X146995Y66466D01*
X147047Y67362D01*
X146995Y68258D01*
X146785Y69131D01*
X146650Y69458D01*
X146779Y69404D01*
X147203Y69302D01*
X147638Y69268D01*
X148073Y69302D01*
X148497Y69404D01*
X148900Y69571D01*
X149272Y69799D01*
X149604Y70082D01*
X149887Y70414D01*
X150115Y70786D01*
X150282Y71189D01*
X150384Y71613D01*
X150410Y72048D01*
X150384Y72483D01*
X150282Y72907D01*
X150115Y73310D01*
X149887Y73682D01*
X149604Y74014D01*
X149272Y74297D01*
X148900Y74525D01*
X148497Y74692D01*
X148073Y74794D01*
X147638Y74828D01*
X147203Y74794D01*
X147046Y74756D01*
X146947Y74840D01*
X146746Y74963D01*
X146528Y75054D01*
X146298Y75109D01*
X146063Y75127D01*
X146004Y75123D01*
X137886D01*
Y77804D01*
X137973Y77729D01*
X138739Y77260D01*
X139570Y76916D01*
X140443Y76706D01*
X141339Y76636D01*
X142235Y76706D01*
X143108Y76916D01*
X143939Y77260D01*
X144705Y77729D01*
X145388Y78313D01*
X145971Y78996D01*
X146441Y79762D01*
X146785Y80592D01*
X146995Y81466D01*
X147047Y82362D01*
X146995Y83258D01*
X146785Y84131D01*
X146670Y84409D01*
X146779Y84364D01*
X147203Y84262D01*
X147638Y84228D01*
X148073Y84262D01*
X148497Y84364D01*
X148900Y84531D01*
X149272Y84759D01*
X149604Y85042D01*
X149887Y85374D01*
X150115Y85746D01*
X150282Y86149D01*
X150384Y86573D01*
X150410Y87008D01*
X150384Y87443D01*
X150282Y87867D01*
X150115Y88270D01*
X149887Y88642D01*
X149604Y88974D01*
X149272Y89257D01*
X148900Y89485D01*
X148497Y89652D01*
X148073Y89754D01*
X147638Y89788D01*
X147203Y89754D01*
X147046Y89716D01*
X146947Y89800D01*
X146746Y89924D01*
X146528Y90014D01*
X146298Y90069D01*
X146063Y90088D01*
X146004Y90083D01*
X137886D01*
Y92804D01*
X137973Y92729D01*
X138739Y92260D01*
X139570Y91916D01*
X140443Y91706D01*
X141339Y91636D01*
X142235Y91706D01*
X143108Y91916D01*
X143939Y92260D01*
X144705Y92729D01*
X145388Y93313D01*
X145971Y93996D01*
X146441Y94762D01*
X146785Y95592D01*
X146995Y96466D01*
X147047Y97362D01*
X146995Y98258D01*
X146785Y99131D01*
X146689Y99362D01*
X146779Y99325D01*
X147203Y99223D01*
X147638Y99189D01*
X148073Y99223D01*
X148497Y99325D01*
X148900Y99492D01*
X149272Y99720D01*
X149604Y100003D01*
X149887Y100335D01*
X150115Y100707D01*
X150282Y101110D01*
X150384Y101534D01*
X150410Y101969D01*
X150384Y102404D01*
X150282Y102828D01*
X150115Y103231D01*
X149887Y103603D01*
X149604Y103935D01*
X149272Y104218D01*
X148900Y104446D01*
X148497Y104613D01*
X148073Y104715D01*
X147638Y104749D01*
X147203Y104715D01*
X147045Y104677D01*
X146946Y104761D01*
X146745Y104885D01*
X146527Y104975D01*
X146297Y105030D01*
X146062Y105049D01*
X146003Y105044D01*
X137886D01*
Y107804D01*
X137973Y107729D01*
X138739Y107260D01*
X139570Y106916D01*
X140443Y106706D01*
X141339Y106636D01*
X142235Y106706D01*
X143108Y106916D01*
X143939Y107260D01*
X144705Y107729D01*
X145388Y108313D01*
X145971Y108996D01*
X146441Y109762D01*
X146785Y110592D01*
X146995Y111466D01*
X147047Y112362D01*
X146995Y113258D01*
X146785Y114131D01*
X146709Y114315D01*
X146779Y114286D01*
X147203Y114184D01*
X147638Y114150D01*
X148073Y114184D01*
X148497Y114286D01*
X148900Y114453D01*
X149272Y114681D01*
X149604Y114964D01*
X149887Y115296D01*
X150115Y115668D01*
X150282Y116071D01*
X150384Y116495D01*
X150410Y116930D01*
X150384Y117365D01*
X150282Y117789D01*
X150115Y118192D01*
X149887Y118564D01*
X149604Y118896D01*
X149272Y119179D01*
X148900Y119407D01*
X148497Y119574D01*
X148073Y119676D01*
X147638Y119710D01*
X147203Y119676D01*
X147049Y119639D01*
X146771Y119917D01*
X146733Y119962D01*
X146553Y120115D01*
X146352Y120239D01*
X146134Y120329D01*
X145904Y120384D01*
X145669Y120403D01*
X145610Y120398D01*
X137886D01*
Y122804D01*
X137973Y122729D01*
X138739Y122260D01*
X139570Y121916D01*
X140443Y121706D01*
X141339Y121636D01*
X142235Y121706D01*
X143108Y121916D01*
X143939Y122260D01*
X144705Y122729D01*
X145388Y123313D01*
X145971Y123996D01*
X146441Y124762D01*
X146785Y125592D01*
X146995Y126466D01*
X147047Y127362D01*
X146995Y128258D01*
X146785Y129131D01*
X146441Y129961D01*
X145971Y130728D01*
X145388Y131411D01*
X144739Y131965D01*
X145307Y131965D01*
X145389Y131831D01*
X145672Y131499D01*
X146004Y131216D01*
X146376Y130988D01*
X146779Y130821D01*
X147203Y130719D01*
X147638Y130685D01*
X148073Y130719D01*
X148497Y130821D01*
X148900Y130988D01*
X149272Y131216D01*
X149604Y131499D01*
X149887Y131831D01*
X150115Y132203D01*
X150282Y132606D01*
X150384Y133030D01*
X150410Y133465D01*
X150384Y133900D01*
X150282Y134324D01*
X150115Y134727D01*
X149925Y135037D01*
Y137737D01*
X149930Y137796D01*
X149911Y138031D01*
X149911Y138031D01*
X149856Y138261D01*
X149766Y138479D01*
X149766Y138479D01*
X149744Y138515D01*
X149642Y138680D01*
X149642Y138680D01*
X149489Y138860D01*
X149444Y138898D01*
X140504Y147838D01*
X140541Y147991D01*
X140566Y148426D01*
X140541Y148861D01*
X140439Y149285D01*
X140272Y149688D01*
X140044Y150060D01*
X139777Y150372D01*
X140443Y150212D01*
X141339Y150142D01*
X142235Y150212D01*
X143108Y150422D01*
X143939Y150766D01*
X144705Y151235D01*
X145388Y151819D01*
X145971Y152502D01*
X146441Y153268D01*
X146785Y154098D01*
X146995Y154972D01*
X147047Y155868D01*
X146995Y156764D01*
X146785Y157637D01*
X146441Y158468D01*
X145971Y159234D01*
X145388Y159917D01*
X144705Y160500D01*
X143939Y160970D01*
X143108Y161314D01*
X142235Y161524D01*
X141339Y161594D01*
X140443Y161524D01*
X139570Y161314D01*
X138739Y160970D01*
X137973Y160500D01*
X137886Y160426D01*
Y166310D01*
X137973Y166235D01*
X138739Y165766D01*
X139570Y165422D01*
X140443Y165212D01*
X141339Y165142D01*
X142235Y165212D01*
X143108Y165422D01*
X143939Y165766D01*
X144705Y166235D01*
X145388Y166819D01*
X145971Y167502D01*
X146441Y168268D01*
X146785Y169098D01*
X146995Y169972D01*
X147047Y170868D01*
X146995Y171764D01*
X146785Y172637D01*
X146441Y173468D01*
X145971Y174234D01*
X145388Y174917D01*
X144705Y175500D01*
X143939Y175970D01*
X143108Y176314D01*
X142235Y176524D01*
X141339Y176594D01*
X140443Y176524D01*
X139570Y176314D01*
X138739Y175970D01*
X137973Y175500D01*
X137886Y175426D01*
Y181310D01*
X137973Y181235D01*
X138739Y180766D01*
X139570Y180422D01*
X140443Y180212D01*
X141339Y180142D01*
X142235Y180212D01*
X143108Y180422D01*
X143939Y180766D01*
X144705Y181235D01*
X145388Y181819D01*
X145971Y182502D01*
X146441Y183268D01*
X146785Y184098D01*
X146995Y184972D01*
X147047Y185868D01*
X146995Y186764D01*
X146785Y187637D01*
X146441Y188468D01*
X145971Y189234D01*
X145388Y189917D01*
X144705Y190500D01*
X143939Y190970D01*
X143108Y191314D01*
X142235Y191524D01*
X141339Y191594D01*
X140443Y191524D01*
X139570Y191314D01*
X138739Y190970D01*
X137973Y190500D01*
X137886Y190426D01*
Y196310D01*
X137973Y196235D01*
X138739Y195766D01*
X139570Y195422D01*
X140443Y195212D01*
X141339Y195142D01*
X142235Y195212D01*
X143108Y195422D01*
X143939Y195766D01*
X144705Y196235D01*
X145388Y196819D01*
X145971Y197502D01*
X146441Y198268D01*
X146785Y199098D01*
X146995Y199972D01*
X147047Y200868D01*
X146995Y201764D01*
X146785Y202637D01*
X146441Y203468D01*
X145971Y204234D01*
X145388Y204917D01*
X144705Y205500D01*
X143939Y205970D01*
X143108Y206314D01*
X142235Y206524D01*
X141339Y206594D01*
X140443Y206524D01*
X139570Y206314D01*
X138739Y205970D01*
X137973Y205500D01*
X137886Y205426D01*
Y211310D01*
X137973Y211235D01*
X138739Y210766D01*
X139570Y210422D01*
X140443Y210212D01*
X141339Y210142D01*
X142235Y210212D01*
X143108Y210422D01*
X143939Y210766D01*
X144705Y211235D01*
X145388Y211819D01*
X145971Y212502D01*
X146441Y213268D01*
X146785Y214098D01*
X146995Y214972D01*
X147047Y215868D01*
X146995Y216764D01*
X146785Y217637D01*
X146441Y218468D01*
X145971Y219234D01*
X145388Y219917D01*
X144705Y220500D01*
X143939Y220970D01*
X143108Y221314D01*
X142235Y221524D01*
X141339Y221594D01*
X140443Y221524D01*
X139570Y221314D01*
X138739Y220970D01*
X137973Y220500D01*
X137886Y220426D01*
Y226310D01*
X137973Y226235D01*
X138739Y225766D01*
X139570Y225422D01*
X140443Y225212D01*
X141339Y225142D01*
X142235Y225212D01*
X143108Y225422D01*
X143939Y225766D01*
X144705Y226235D01*
X145388Y226819D01*
X145971Y227502D01*
X146441Y228268D01*
X146785Y229098D01*
X146793Y229134D01*
X157480D01*
Y0D01*
X137886D01*
Y17804D01*
G37*
G36*
Y160426D02*X137290Y159917D01*
X136706Y159234D01*
X136237Y158468D01*
X135893Y157637D01*
X135836Y157400D01*
X135833Y161377D01*
X135796Y161530D01*
X135736Y161675D01*
X135653Y161810D01*
X135551Y161929D01*
X135432Y162031D01*
X135297Y162114D01*
X135152Y162174D01*
X134999Y162211D01*
X134842Y162220D01*
X129567Y162211D01*
X129414Y162174D01*
X129269Y162114D01*
X129134Y162031D01*
X129015Y161929D01*
X128912Y161810D01*
X128830Y161675D01*
X128770Y161530D01*
X128733Y161377D01*
X128724Y161220D01*
X128733Y150435D01*
X128770Y150282D01*
X128830Y150137D01*
X128912Y150002D01*
X129015Y149883D01*
X129134Y149780D01*
X129269Y149698D01*
X129414Y149638D01*
X129567Y149601D01*
X129724Y149592D01*
X134999Y149601D01*
X135152Y149638D01*
X135297Y149698D01*
X135340Y149724D01*
X135318Y149688D01*
X135151Y149285D01*
X135049Y148861D01*
X135015Y148426D01*
X135049Y147991D01*
X135151Y147567D01*
X135318Y147164D01*
X135546Y146792D01*
X135829Y146460D01*
X136161Y146177D01*
X136533Y145949D01*
X136936Y145782D01*
X137360Y145680D01*
X137795Y145646D01*
X137886Y145653D01*
Y134966D01*
X130374Y134966D01*
X130315Y134971D01*
X130082Y134952D01*
X130080Y134952D01*
X130079Y134952D01*
X130079Y134952D01*
X129948Y134921D01*
X129850Y134897D01*
X129850Y134897D01*
X129850Y134897D01*
X129726Y134846D01*
X129632Y134807D01*
X129632Y134807D01*
X129631Y134807D01*
X129515Y134735D01*
X129431Y134683D01*
X129430Y134683D01*
X129430Y134683D01*
X129428Y134681D01*
X129251Y134530D01*
X129213Y134485D01*
X127687Y132959D01*
X122060D01*
X122058Y133394D01*
X122003Y133624D01*
X121913Y133842D01*
X121789Y134043D01*
X121636Y134223D01*
X121456Y134376D01*
X121255Y134500D01*
X121037Y134590D01*
X120807Y134645D01*
X120572Y134659D01*
X116337Y134645D01*
X116107Y134590D01*
X115889Y134500D01*
X115688Y134376D01*
X115508Y134223D01*
X115355Y134043D01*
X115231Y133842D01*
X115141Y133624D01*
X115086Y133394D01*
X115072Y133159D01*
X115076Y132158D01*
X105285Y122367D01*
X86280D01*
X86221Y122372D01*
X85986Y122353D01*
X85986Y122353D01*
X85986D01*
X85886Y122329D01*
X85756Y122298D01*
X85756Y122298D01*
X85756Y122298D01*
X85631Y122246D01*
X85538Y122208D01*
X85538Y122208D01*
X85538Y122208D01*
X85496Y122182D01*
X85337Y122084D01*
X85337Y122084D01*
X85337Y122084D01*
X85157Y121931D01*
X85119Y121886D01*
X84840Y121607D01*
X84687Y121644D01*
X84255Y121678D01*
X87944Y125366D01*
X87985Y125401D01*
X88125Y125565D01*
X88126Y125566D01*
X88126Y125566D01*
X88126Y125566D01*
X88160Y125622D01*
X88239Y125751D01*
X88239Y125751D01*
X88243Y125761D01*
X88322Y125951D01*
X88322Y125951D01*
X88322Y125951D01*
X88337Y126014D01*
X88373Y126162D01*
X88373Y126162D01*
X88373Y126162D01*
X88373Y126162D01*
X88390Y126378D01*
X88385Y126432D01*
Y191162D01*
X96999Y199777D01*
X97040Y199812D01*
X97181Y199977D01*
X97181Y199977D01*
X97181Y199977D01*
X97294Y200162D01*
X97364Y200329D01*
X97377Y200362D01*
X97377Y200362D01*
X97377Y200362D01*
X97426Y200565D01*
X97428Y200573D01*
X97428Y200573D01*
X97445Y200789D01*
X97440Y200843D01*
Y218450D01*
X97445Y218504D01*
X97428Y218720D01*
X97428Y218720D01*
X97428Y218720D01*
X97402Y218829D01*
X97377Y218931D01*
X97377Y218931D01*
X97377Y218931D01*
X97336Y219030D01*
X97294Y219131D01*
X97294Y219131D01*
X97294Y219131D01*
X97235Y219227D01*
X97181Y219316D01*
X97181Y219316D01*
X97181Y219316D01*
X97040Y219481D01*
X96999Y219516D01*
X95472Y221044D01*
Y224627D01*
X96231Y223867D01*
X96266Y223826D01*
X96429Y223686D01*
X96430Y223685D01*
X96431Y223685D01*
X96431Y223685D01*
X96522Y223629D01*
X96615Y223572D01*
X96616Y223572D01*
X96616Y223572D01*
X96718Y223529D01*
X96816Y223489D01*
X96816Y223489D01*
X96816Y223489D01*
X96924Y223463D01*
X97026Y223438D01*
X97027Y223438D01*
X97027Y223438D01*
X97028Y223438D01*
X97243Y223421D01*
X97297Y223425D01*
X99168D01*
X99098Y223310D01*
X98931Y222907D01*
X98829Y222483D01*
X98795Y222048D01*
X98829Y221613D01*
X98931Y221189D01*
X99098Y220786D01*
X99326Y220414D01*
X99609Y220082D01*
X99941Y219799D01*
X100313Y219571D01*
X100716Y219404D01*
X101140Y219302D01*
X101575Y219268D01*
X102010Y219302D01*
X102434Y219404D01*
X102837Y219571D01*
X103209Y219799D01*
X103224Y219812D01*
Y218486D01*
X103191Y218494D01*
X102756Y218528D01*
X102321Y218494D01*
X101897Y218392D01*
X101494Y218225D01*
X101122Y217997D01*
X100790Y217714D01*
X100507Y217382D01*
X100279Y217010D01*
X100112Y216607D01*
X100010Y216183D01*
X99976Y215748D01*
X100010Y215313D01*
X100112Y214889D01*
X100279Y214486D01*
X100507Y214114D01*
X100790Y213782D01*
X101122Y213499D01*
X101494Y213271D01*
X101897Y213104D01*
X102321Y213002D01*
X102756Y212968D01*
X103191Y213002D01*
X103615Y213104D01*
X103929Y213234D01*
X103937Y212263D01*
X103969Y212130D01*
X103602D01*
X103543Y212135D01*
X103308Y212116D01*
X103078Y212061D01*
X102860Y211971D01*
X102659Y211847D01*
X102658Y211847D01*
X102479Y211694D01*
X102441Y211649D01*
X100950Y210158D01*
X100905Y210120D01*
X100752Y209940D01*
X100628Y209739D01*
X100538Y209521D01*
X100483Y209291D01*
X100483Y209291D01*
X100464Y209056D01*
X100469Y208997D01*
Y205953D01*
X100464Y205882D01*
X100480Y205718D01*
X100483Y205671D01*
X100486Y205659D01*
X100487Y205647D01*
X100513Y205544D01*
X100538Y205441D01*
X100543Y205430D01*
X100546Y205418D01*
X100588Y205321D01*
X100628Y205223D01*
X100635Y205212D01*
X100639Y205201D01*
X100696Y205112D01*
X100752Y205022D01*
X100759Y205012D01*
X100766Y205002D01*
X100798Y204967D01*
X100905Y204842D01*
X100959Y204796D01*
X102237Y203558D01*
X101927Y203534D01*
X101503Y203432D01*
X101100Y203265D01*
X100728Y203037D01*
X100396Y202754D01*
X100113Y202422D01*
X99885Y202050D01*
X99718Y201647D01*
X99616Y201223D01*
X99582Y200788D01*
X99616Y200353D01*
X99718Y199929D01*
X99885Y199526D01*
X100113Y199154D01*
X100396Y198822D01*
X100728Y198539D01*
X101100Y198311D01*
X101503Y198144D01*
X101927Y198042D01*
X102362Y198008D01*
X102797Y198042D01*
X103221Y198144D01*
X103624Y198311D01*
X103927Y198497D01*
X103937Y197303D01*
X103969Y197169D01*
X103602D01*
X103543Y197174D01*
X103308Y197155D01*
X103078Y197100D01*
X102860Y197010D01*
X102860Y197010D01*
X102658Y196886D01*
X102658Y196886D01*
X102479Y196733D01*
X102441Y196688D01*
X100950Y195197D01*
X100905Y195159D01*
X100752Y194979D01*
X100752Y194979D01*
X100752Y194979D01*
X100708Y194908D01*
X100628Y194778D01*
X100628Y194778D01*
X100622Y194762D01*
X100538Y194560D01*
X100538Y194560D01*
X100483Y194330D01*
Y194330D01*
X100483Y194330D01*
X100464Y194095D01*
X100469Y194036D01*
Y190992D01*
X100465Y190928D01*
X100435Y190935D01*
X100000Y190969D01*
X99565Y190935D01*
X99141Y190833D01*
X98738Y190666D01*
X98366Y190438D01*
X98034Y190155D01*
X97751Y189823D01*
X97523Y189451D01*
X97356Y189048D01*
X97254Y188624D01*
X97220Y188189D01*
X97254Y187754D01*
X97356Y187330D01*
X97523Y186927D01*
X97751Y186555D01*
X98034Y186223D01*
X98366Y185940D01*
X98738Y185712D01*
X99141Y185545D01*
X99565Y185443D01*
X100000Y185409D01*
X100435Y185443D01*
X100588Y185480D01*
X101261Y184808D01*
X101299Y184763D01*
X101479Y184610D01*
X101479Y184610D01*
X101479Y184610D01*
X101583Y184546D01*
X101680Y184486D01*
X101680Y184486D01*
X101680Y184486D01*
X101798Y184438D01*
X101898Y184396D01*
X101898Y184396D01*
X101898Y184396D01*
X102028Y184365D01*
X102128Y184341D01*
X102128Y184341D01*
X102128Y184341D01*
X102363Y184322D01*
X102422Y184327D01*
X103940D01*
X103937Y184312D01*
X103923Y184077D01*
X103937Y182342D01*
X103992Y182112D01*
X104082Y181894D01*
X104206Y181693D01*
X104359Y181513D01*
X104538Y181360D01*
X104740Y181236D01*
X104958Y181146D01*
X105187Y181091D01*
X105423Y181077D01*
X107295Y181084D01*
X108532Y179847D01*
X101634D01*
X101575Y179851D01*
X101339Y179833D01*
X101110Y179778D01*
X100892Y179687D01*
X100690Y179564D01*
X100690Y179564D01*
X100511Y179411D01*
X100473Y179366D01*
X94650Y173543D01*
X94605Y173505D01*
X94452Y173325D01*
X94452Y173325D01*
X94452Y173325D01*
X94432Y173293D01*
X94328Y173124D01*
X94238Y172906D01*
X94238Y172906D01*
X94235Y172894D01*
X94183Y172676D01*
X94183Y172676D01*
X94164Y172441D01*
X94169Y172382D01*
Y169351D01*
X94164Y169292D01*
X94183Y169057D01*
X94183Y169057D01*
X94183Y169057D01*
X94215Y168924D01*
X94238Y168827D01*
X94238Y168827D01*
X94238Y168827D01*
X94292Y168698D01*
X94328Y168609D01*
X94328Y168609D01*
X94328Y168609D01*
X94411Y168474D01*
X94452Y168408D01*
X94452Y168408D01*
X94452Y168408D01*
X94605Y168228D01*
X94650Y168190D01*
X96577Y166262D01*
X96754Y166106D01*
X96814Y166069D01*
X96583Y165799D01*
X96356Y165429D01*
X96190Y165028D01*
X96089Y164606D01*
X96055Y164174D01*
X96089Y163742D01*
X96190Y163320D01*
X96356Y162919D01*
X96583Y162549D01*
X96864Y162220D01*
X97194Y161938D01*
X97564Y161711D01*
X97965Y161545D01*
X98387Y161444D01*
X98819Y161410D01*
X99251Y161444D01*
X99673Y161545D01*
X100074Y161711D01*
X100444Y161938D01*
X100469Y161960D01*
Y161071D01*
X100464Y161000D01*
X100480Y160836D01*
X100483Y160789D01*
X100486Y160777D01*
X100487Y160765D01*
X100513Y160662D01*
X100538Y160559D01*
X100543Y160548D01*
X100546Y160536D01*
X100588Y160439D01*
X100628Y160341D01*
X100635Y160331D01*
X100639Y160320D01*
X100696Y160230D01*
X100752Y160140D01*
X100759Y160130D01*
X100766Y160120D01*
X100798Y160085D01*
X100905Y159960D01*
X100959Y159914D01*
X102237Y158676D01*
X101927Y158652D01*
X101503Y158550D01*
X101100Y158383D01*
X100728Y158155D01*
X100396Y157872D01*
X100113Y157540D01*
X99885Y157168D01*
X99718Y156765D01*
X99616Y156341D01*
X99582Y155906D01*
X99616Y155471D01*
X99718Y155047D01*
X99885Y154644D01*
X100113Y154272D01*
X100396Y153940D01*
X100728Y153657D01*
X101100Y153429D01*
X101503Y153262D01*
X101927Y153160D01*
X102362Y153126D01*
X102797Y153160D01*
X103221Y153262D01*
X103624Y153429D01*
X103927Y153615D01*
X103937Y152421D01*
X103992Y152191D01*
X104082Y151973D01*
X104206Y151772D01*
X104359Y151592D01*
X104538Y151439D01*
X104740Y151315D01*
X104958Y151225D01*
X105187Y151170D01*
X105423Y151156D01*
X107295Y151163D01*
X108690Y149768D01*
X108728Y149723D01*
X108908Y149570D01*
X108908Y149570D01*
X108908Y149570D01*
X108982Y149524D01*
X109109Y149446D01*
X109109Y149446D01*
X109109Y149446D01*
X109179Y149417D01*
X109327Y149356D01*
X109327Y149356D01*
X109327Y149356D01*
X109432Y149331D01*
X109557Y149301D01*
X109557Y149301D01*
X109557Y149301D01*
X109792Y149282D01*
X109851Y149287D01*
X114733D01*
X116220Y147800D01*
X116258Y147755D01*
X116438Y147602D01*
X116639Y147478D01*
X116857Y147388D01*
X117087Y147333D01*
X117322Y147314D01*
X117381Y147319D01*
X123735D01*
X123734Y147316D01*
X123632Y146892D01*
X123598Y146457D01*
X123632Y146022D01*
X123734Y145598D01*
X123901Y145195D01*
X124128Y144824D01*
Y143759D01*
X123901Y143388D01*
X123734Y142985D01*
X123632Y142561D01*
X123598Y142126D01*
X123632Y141691D01*
X123734Y141267D01*
X123901Y140864D01*
X124129Y140492D01*
X124412Y140160D01*
X124744Y139877D01*
X125116Y139649D01*
X125519Y139482D01*
X125943Y139380D01*
X126378Y139346D01*
X126813Y139380D01*
X127237Y139482D01*
X127640Y139649D01*
X128012Y139877D01*
X128344Y140160D01*
X128627Y140492D01*
X128855Y140864D01*
X129022Y141267D01*
X129124Y141691D01*
X129149Y142126D01*
X129124Y142561D01*
X129022Y142985D01*
X128855Y143388D01*
X128628Y143759D01*
Y144824D01*
X128855Y145195D01*
X129022Y145598D01*
X129124Y146022D01*
X129149Y146457D01*
X129124Y146892D01*
X129022Y147316D01*
X128855Y147719D01*
X128628Y148090D01*
Y229134D01*
X128730D01*
X128733Y225238D01*
X128770Y225085D01*
X128830Y224940D01*
X128912Y224805D01*
X129015Y224686D01*
X129134Y224584D01*
X129269Y224501D01*
X129414Y224441D01*
X129567Y224404D01*
X129724Y224395D01*
X134999Y224404D01*
X135152Y224441D01*
X135297Y224501D01*
X135432Y224584D01*
X135551Y224686D01*
X135653Y224805D01*
X135736Y224940D01*
X135796Y225085D01*
X135833Y225238D01*
X135842Y225395D01*
X135839Y229134D01*
X135885D01*
X135893Y229098D01*
X136237Y228268D01*
X136706Y227502D01*
X137290Y226819D01*
X137886Y226310D01*
Y220426D01*
X137290Y219917D01*
X136706Y219234D01*
X136237Y218468D01*
X135893Y217637D01*
X135836Y217399D01*
X135833Y221219D01*
X135796Y221372D01*
X135736Y221517D01*
X135653Y221652D01*
X135551Y221771D01*
X135432Y221873D01*
X135297Y221956D01*
X135152Y222016D01*
X134999Y222053D01*
X134842Y222062D01*
X129567Y222053D01*
X129414Y222016D01*
X129269Y221956D01*
X129134Y221873D01*
X129015Y221771D01*
X128912Y221652D01*
X128830Y221517D01*
X128770Y221372D01*
X128733Y221219D01*
X128724Y221062D01*
X128733Y210277D01*
X128770Y210124D01*
X128830Y209979D01*
X128912Y209844D01*
X129015Y209725D01*
X129134Y209622D01*
X129269Y209540D01*
X129414Y209480D01*
X129567Y209443D01*
X129724Y209434D01*
X134999Y209443D01*
X135152Y209480D01*
X135297Y209540D01*
X135432Y209622D01*
X135551Y209725D01*
X135653Y209844D01*
X135736Y209979D01*
X135796Y210124D01*
X135833Y210277D01*
X135842Y210434D01*
X135839Y214326D01*
X135893Y214098D01*
X136237Y213268D01*
X136706Y212502D01*
X137290Y211819D01*
X137886Y211310D01*
Y205426D01*
X137290Y204917D01*
X136706Y204234D01*
X136237Y203468D01*
X135893Y202637D01*
X135836Y202400D01*
X135833Y206259D01*
X135796Y206412D01*
X135736Y206557D01*
X135653Y206691D01*
X135551Y206811D01*
X135432Y206913D01*
X135297Y206996D01*
X135152Y207056D01*
X134999Y207093D01*
X134842Y207102D01*
X129567Y207093D01*
X129414Y207056D01*
X129269Y206996D01*
X129134Y206913D01*
X129015Y206811D01*
X128912Y206691D01*
X128830Y206557D01*
X128770Y206412D01*
X128733Y206259D01*
X128724Y206102D01*
X128733Y195317D01*
X128770Y195164D01*
X128830Y195018D01*
X128912Y194884D01*
X129015Y194765D01*
X129134Y194662D01*
X129269Y194580D01*
X129414Y194520D01*
X129567Y194483D01*
X129724Y194474D01*
X134999Y194483D01*
X135152Y194520D01*
X135297Y194580D01*
X135432Y194662D01*
X135551Y194765D01*
X135653Y194884D01*
X135736Y195018D01*
X135796Y195164D01*
X135833Y195317D01*
X135842Y195474D01*
X135839Y199325D01*
X135893Y199098D01*
X136237Y198268D01*
X136706Y197502D01*
X137290Y196819D01*
X137886Y196310D01*
Y190426D01*
X137290Y189917D01*
X136706Y189234D01*
X136237Y188468D01*
X135893Y187637D01*
X135836Y187400D01*
X135833Y191298D01*
X135796Y191451D01*
X135736Y191596D01*
X135653Y191731D01*
X135551Y191850D01*
X135432Y191952D01*
X135297Y192035D01*
X135152Y192095D01*
X134999Y192132D01*
X134842Y192141D01*
X129567Y192132D01*
X129414Y192095D01*
X129269Y192035D01*
X129134Y191952D01*
X129015Y191850D01*
X128912Y191731D01*
X128830Y191596D01*
X128770Y191451D01*
X128733Y191298D01*
X128724Y191141D01*
X128733Y180356D01*
X128770Y180203D01*
X128830Y180058D01*
X128912Y179923D01*
X129015Y179804D01*
X129134Y179701D01*
X129269Y179619D01*
X129414Y179559D01*
X129567Y179522D01*
X129724Y179513D01*
X134999Y179522D01*
X135152Y179559D01*
X135297Y179619D01*
X135432Y179701D01*
X135551Y179804D01*
X135653Y179923D01*
X135736Y180058D01*
X135796Y180203D01*
X135833Y180356D01*
X135842Y180513D01*
X135839Y184325D01*
X135893Y184098D01*
X136237Y183268D01*
X136706Y182502D01*
X137290Y181819D01*
X137886Y181310D01*
Y175426D01*
X137290Y174917D01*
X136706Y174234D01*
X136237Y173468D01*
X135893Y172637D01*
X135836Y172400D01*
X135833Y176338D01*
X135796Y176491D01*
X135736Y176636D01*
X135653Y176771D01*
X135551Y176890D01*
X135432Y176992D01*
X135297Y177075D01*
X135152Y177135D01*
X134999Y177172D01*
X134842Y177181D01*
X129567Y177172D01*
X129414Y177135D01*
X129269Y177075D01*
X129134Y176992D01*
X129015Y176890D01*
X128912Y176771D01*
X128830Y176636D01*
X128770Y176491D01*
X128733Y176338D01*
X128724Y176181D01*
X128733Y165396D01*
X128770Y165243D01*
X128830Y165098D01*
X128912Y164963D01*
X129015Y164844D01*
X129134Y164741D01*
X129269Y164659D01*
X129414Y164599D01*
X129567Y164562D01*
X129724Y164553D01*
X134999Y164562D01*
X135152Y164599D01*
X135297Y164659D01*
X135432Y164741D01*
X135551Y164844D01*
X135653Y164963D01*
X135736Y165098D01*
X135796Y165243D01*
X135833Y165396D01*
X135842Y165553D01*
X135839Y169325D01*
X135893Y169098D01*
X136237Y168268D01*
X136706Y167502D01*
X137290Y166819D01*
X137886Y166310D01*
Y160426D01*
G37*
G36*
Y120398D02*X130768D01*
X130709Y120403D01*
X130474Y120384D01*
X130244Y120329D01*
X130026Y120239D01*
X129825Y120115D01*
X129825Y120115D01*
X129645Y119962D01*
X129607Y119917D01*
X127688Y117998D01*
X122058D01*
X122058Y118040D01*
X122003Y118270D01*
X121913Y118488D01*
X121789Y118689D01*
X121636Y118869D01*
X121456Y119022D01*
X121255Y119146D01*
X121037Y119236D01*
X120807Y119291D01*
X120572Y119305D01*
X116337Y119291D01*
X116107Y119236D01*
X115889Y119146D01*
X115688Y119022D01*
X115508Y118869D01*
X115355Y118689D01*
X115231Y118488D01*
X115141Y118270D01*
X115086Y118040D01*
X115072Y117805D01*
X115086Y114170D01*
X115141Y113940D01*
X115231Y113722D01*
X115355Y113521D01*
X115508Y113341D01*
X115626Y113240D01*
X115558Y113182D01*
X115523Y113141D01*
X113976Y111594D01*
Y123839D01*
X115074Y124938D01*
X115086Y121724D01*
X115141Y121494D01*
X115231Y121276D01*
X115355Y121075D01*
X115508Y120895D01*
X115688Y120742D01*
X115889Y120618D01*
X116107Y120528D01*
X116337Y120473D01*
X116572Y120459D01*
X120807Y120473D01*
X121037Y120528D01*
X121255Y120618D01*
X121456Y120742D01*
X121636Y120895D01*
X121789Y121075D01*
X121913Y121276D01*
X122003Y121494D01*
X122058Y121724D01*
X122072Y121959D01*
X122058Y125594D01*
X122003Y125824D01*
X121913Y126042D01*
X121827Y126182D01*
X123284D01*
X123286Y125624D01*
X123341Y125394D01*
X123431Y125176D01*
X123555Y124975D01*
X123708Y124795D01*
X123888Y124642D01*
X124089Y124518D01*
X124307Y124428D01*
X124537Y124373D01*
X124772Y124359D01*
X129007Y124373D01*
X129237Y124428D01*
X129455Y124518D01*
X129656Y124642D01*
X129836Y124795D01*
X129989Y124975D01*
X130113Y125176D01*
X130203Y125394D01*
X130258Y125624D01*
X130264Y125722D01*
X130583Y125402D01*
X130591Y123072D01*
X130627Y122922D01*
X130686Y122778D01*
X130767Y122646D01*
X130868Y122529D01*
X130985Y122428D01*
X131117Y122347D01*
X131260Y122288D01*
X131411Y122252D01*
X131565Y122243D01*
X135519Y122252D01*
X135669Y122288D01*
X135813Y122347D01*
X135945Y122428D01*
X136062Y122529D01*
X136163Y122646D01*
X136244Y122778D01*
X136303Y122922D01*
X136339Y123072D01*
X136348Y123227D01*
X136344Y124587D01*
X136706Y123996D01*
X137290Y123313D01*
X137886Y122804D01*
Y120398D01*
G37*
G36*
Y105044D02*X130768D01*
X130709Y105049D01*
X130474Y105030D01*
X130244Y104975D01*
X130026Y104885D01*
X129825Y104761D01*
X129825Y104761D01*
X129645Y104608D01*
X129607Y104563D01*
X127688Y102644D01*
X122060D01*
X122058Y103080D01*
X122003Y103310D01*
X121913Y103528D01*
X121789Y103729D01*
X121636Y103909D01*
X121456Y104062D01*
X121255Y104186D01*
X121037Y104276D01*
X120807Y104331D01*
X120572Y104345D01*
X116337Y104331D01*
X116107Y104276D01*
X115889Y104186D01*
X115688Y104062D01*
X115550Y103945D01*
Y105505D01*
X115688Y105388D01*
X115889Y105264D01*
X116107Y105174D01*
X116337Y105119D01*
X116572Y105105D01*
X120807Y105119D01*
X121037Y105174D01*
X121255Y105264D01*
X121456Y105388D01*
X121636Y105541D01*
X121789Y105721D01*
X121913Y105922D01*
X122003Y106140D01*
X122058Y106370D01*
X122072Y106605D01*
X122058Y110240D01*
X122003Y110470D01*
X121913Y110688D01*
X121827Y110828D01*
X123284D01*
X123286Y110270D01*
X123341Y110040D01*
X123431Y109822D01*
X123555Y109621D01*
X123708Y109441D01*
X123888Y109288D01*
X124089Y109164D01*
X124307Y109074D01*
X124537Y109019D01*
X124772Y109005D01*
X129007Y109019D01*
X129237Y109074D01*
X129455Y109164D01*
X129656Y109288D01*
X129836Y109441D01*
X129989Y109621D01*
X130113Y109822D01*
X130203Y110040D01*
X130258Y110270D01*
X130264Y110368D01*
X130583Y110048D01*
X130591Y107718D01*
X130627Y107568D01*
X130686Y107425D01*
X130767Y107292D01*
X130868Y107175D01*
X130985Y107074D01*
X131117Y106993D01*
X131260Y106934D01*
X131411Y106898D01*
X131565Y106889D01*
X135519Y106898D01*
X135669Y106934D01*
X135813Y106993D01*
X135945Y107074D01*
X136062Y107175D01*
X136163Y107292D01*
X136244Y107425D01*
X136303Y107568D01*
X136339Y107718D01*
X136348Y107873D01*
X136343Y109589D01*
X136706Y108996D01*
X137290Y108313D01*
X137886Y107804D01*
Y105044D01*
G37*
G36*
Y90083D02*X130768D01*
X130709Y90088D01*
X130474Y90069D01*
X130244Y90014D01*
X130026Y89924D01*
X129825Y89800D01*
X129825Y89800D01*
X129645Y89647D01*
X129607Y89602D01*
X127688Y87683D01*
X122060D01*
X122058Y88119D01*
X122003Y88349D01*
X121913Y88567D01*
X121789Y88768D01*
X121636Y88948D01*
X121456Y89101D01*
X121255Y89224D01*
X121037Y89315D01*
X120807Y89370D01*
X120572Y89384D01*
X116337Y89370D01*
X116107Y89315D01*
X115889Y89224D01*
X115688Y89101D01*
X115508Y88948D01*
X115355Y88768D01*
X115231Y88567D01*
X115141Y88349D01*
X115086Y88119D01*
X115072Y87884D01*
X115086Y84248D01*
X115141Y84019D01*
X115231Y83801D01*
X115355Y83599D01*
X115457Y83480D01*
X115330Y83402D01*
X115330Y83402D01*
X115165Y83261D01*
X115130Y83220D01*
X111269Y79359D01*
X111228Y79324D01*
X111087Y79159D01*
X110974Y78974D01*
X110891Y78774D01*
X110840Y78563D01*
X110823Y78347D01*
X110828Y78293D01*
Y61595D01*
X108091Y58859D01*
X104284D01*
X104373Y59003D01*
X104588Y59523D01*
X104720Y60069D01*
X104753Y60630D01*
X104720Y61190D01*
X104588Y61737D01*
X104501Y61947D01*
X104529Y61935D01*
X105014Y61819D01*
X105512Y61780D01*
X106009Y61819D01*
X106495Y61935D01*
X106956Y62126D01*
X107382Y62387D01*
X107761Y62712D01*
X108086Y63091D01*
X108346Y63517D01*
X108537Y63978D01*
X108654Y64463D01*
X108683Y64961D01*
X108654Y65459D01*
X108537Y65944D01*
X108346Y66405D01*
X108086Y66831D01*
X107761Y67211D01*
X107382Y67535D01*
X106956Y67796D01*
X106495Y67987D01*
X106009Y68103D01*
X105512Y68142D01*
X105014Y68103D01*
X104529Y67987D01*
X104240Y67867D01*
X104397Y68247D01*
X104521Y68763D01*
X104553Y69292D01*
X104521Y69821D01*
X104397Y70337D01*
X104241Y70716D01*
X104529Y70596D01*
X105014Y70480D01*
X105512Y70441D01*
X106009Y70480D01*
X106495Y70596D01*
X106956Y70788D01*
X107382Y71048D01*
X107761Y71373D01*
X108086Y71752D01*
X108346Y72178D01*
X108537Y72639D01*
X108654Y73124D01*
X108683Y73622D01*
X108654Y74120D01*
X108537Y74605D01*
X108346Y75066D01*
X108086Y75492D01*
X107761Y75872D01*
X107382Y76196D01*
X106956Y76457D01*
X106495Y76648D01*
X106009Y76764D01*
X105512Y76803D01*
X105014Y76764D01*
X104529Y76648D01*
X104240Y76528D01*
X104397Y76908D01*
X104521Y77424D01*
X104553Y77953D01*
X104521Y78482D01*
X104397Y78998D01*
X104240Y79378D01*
X104529Y79258D01*
X105014Y79142D01*
X105512Y79103D01*
X106009Y79142D01*
X106495Y79258D01*
X106956Y79449D01*
X107382Y79710D01*
X107761Y80034D01*
X108086Y80414D01*
X108346Y80840D01*
X108537Y81301D01*
X108654Y81786D01*
X108683Y82284D01*
X108654Y82782D01*
X108537Y83267D01*
X108346Y83728D01*
X108086Y84154D01*
X107761Y84533D01*
X107382Y84858D01*
X106956Y85118D01*
X106495Y85309D01*
X106009Y85426D01*
X105512Y85465D01*
X105014Y85426D01*
X104529Y85309D01*
X104240Y85190D01*
X104397Y85570D01*
X104521Y86086D01*
X104553Y86615D01*
X104521Y87144D01*
X104397Y87660D01*
X104241Y88039D01*
X104529Y87919D01*
X105014Y87803D01*
X105512Y87764D01*
X106009Y87803D01*
X106495Y87919D01*
X106956Y88110D01*
X107382Y88371D01*
X107761Y88695D01*
X108086Y89075D01*
X108346Y89501D01*
X108537Y89962D01*
X108654Y90447D01*
X108683Y90945D01*
X108654Y91443D01*
X108537Y91928D01*
X108346Y92389D01*
X108086Y92815D01*
X107761Y93194D01*
X107382Y93519D01*
X106956Y93780D01*
X106495Y93971D01*
X106009Y94087D01*
X105512Y94126D01*
X105099Y94094D01*
X104507Y94685D01*
X113724D01*
X113778Y94681D01*
X113994Y94698D01*
X113994D01*
X113994Y94698D01*
X114205Y94749D01*
X114205Y94749D01*
X114385Y94824D01*
X114405Y94832D01*
X114405Y94832D01*
X114405Y94832D01*
X114590Y94945D01*
X114755Y95086D01*
X114790Y95127D01*
X115131Y95468D01*
X115086Y95280D01*
X115072Y95045D01*
X115086Y91410D01*
X115141Y91180D01*
X115231Y90962D01*
X115355Y90761D01*
X115508Y90581D01*
X115688Y90428D01*
X115889Y90304D01*
X116107Y90214D01*
X116337Y90159D01*
X116572Y90145D01*
X120807Y90159D01*
X121037Y90214D01*
X121255Y90304D01*
X121456Y90428D01*
X121636Y90581D01*
X121789Y90761D01*
X121913Y90962D01*
X122003Y91180D01*
X122058Y91410D01*
X122072Y91645D01*
X122058Y95280D01*
X122003Y95510D01*
X121913Y95728D01*
X121827Y95867D01*
X123284D01*
X123286Y95310D01*
X123341Y95080D01*
X123431Y94862D01*
X123555Y94661D01*
X123708Y94481D01*
X123888Y94328D01*
X124089Y94204D01*
X124307Y94114D01*
X124537Y94059D01*
X124772Y94045D01*
X129007Y94059D01*
X129237Y94114D01*
X129455Y94204D01*
X129656Y94328D01*
X129836Y94481D01*
X129989Y94661D01*
X130113Y94862D01*
X130203Y95080D01*
X130258Y95310D01*
X130264Y95408D01*
X130583Y95088D01*
X130591Y92758D01*
X130627Y92607D01*
X130686Y92464D01*
X130767Y92332D01*
X130868Y92215D01*
X130985Y92114D01*
X131117Y92033D01*
X131260Y91974D01*
X131411Y91938D01*
X131565Y91928D01*
X135519Y91938D01*
X135669Y91974D01*
X135813Y92033D01*
X135945Y92114D01*
X136062Y92215D01*
X136163Y92332D01*
X136244Y92464D01*
X136303Y92607D01*
X136339Y92758D01*
X136348Y92912D01*
X136343Y94589D01*
X136706Y93996D01*
X137290Y93313D01*
X137886Y92804D01*
Y90083D01*
G37*
G36*
Y75123D02*X130768D01*
X130709Y75127D01*
X130474Y75109D01*
X130244Y75054D01*
X130026Y74963D01*
X129825Y74840D01*
X129825Y74840D01*
X129645Y74687D01*
X129607Y74642D01*
X127688Y72723D01*
X122060D01*
X122058Y73158D01*
X122003Y73388D01*
X121913Y73606D01*
X121789Y73807D01*
X121636Y73987D01*
X121456Y74140D01*
X121255Y74263D01*
X121037Y74354D01*
X120807Y74409D01*
X120572Y74423D01*
X116337Y74409D01*
X116107Y74354D01*
X115889Y74263D01*
X115688Y74140D01*
X115508Y73987D01*
X115355Y73807D01*
X115231Y73606D01*
X115141Y73388D01*
X115086Y73158D01*
X115072Y72923D01*
X115086Y69287D01*
X115141Y69058D01*
X115231Y68840D01*
X115355Y68638D01*
X115457Y68519D01*
X115330Y68441D01*
X115330Y68441D01*
X115330Y68441D01*
X115165Y68300D01*
X115130Y68259D01*
X113583Y66712D01*
Y77776D01*
X115075Y79269D01*
X115086Y76448D01*
X115141Y76219D01*
X115231Y76001D01*
X115355Y75799D01*
X115508Y75620D01*
X115688Y75467D01*
X115889Y75343D01*
X116107Y75253D01*
X116337Y75198D01*
X116572Y75184D01*
X120807Y75198D01*
X121037Y75253D01*
X121255Y75343D01*
X121456Y75467D01*
X121636Y75620D01*
X121789Y75799D01*
X121913Y76001D01*
X122003Y76219D01*
X122058Y76448D01*
X122072Y76684D01*
X122058Y80319D01*
X122003Y80549D01*
X121913Y80767D01*
X121827Y80906D01*
X123284D01*
X123286Y80348D01*
X123341Y80119D01*
X123431Y79901D01*
X123555Y79699D01*
X123708Y79520D01*
X123888Y79367D01*
X124089Y79243D01*
X124307Y79153D01*
X124537Y79098D01*
X124772Y79084D01*
X129007Y79098D01*
X129237Y79153D01*
X129455Y79243D01*
X129656Y79367D01*
X129836Y79520D01*
X129989Y79699D01*
X130113Y79901D01*
X130203Y80119D01*
X130258Y80348D01*
X130264Y80447D01*
X130583Y80127D01*
X130591Y77797D01*
X130627Y77646D01*
X130686Y77503D01*
X130767Y77371D01*
X130868Y77253D01*
X130985Y77153D01*
X131117Y77072D01*
X131260Y77013D01*
X131411Y76976D01*
X131565Y76967D01*
X135519Y76976D01*
X135669Y77013D01*
X135813Y77072D01*
X135945Y77153D01*
X136062Y77253D01*
X136163Y77371D01*
X136244Y77503D01*
X136303Y77646D01*
X136339Y77797D01*
X136348Y77951D01*
X136343Y79588D01*
X136706Y78996D01*
X137290Y78313D01*
X137886Y77804D01*
Y75123D01*
G37*
G36*
Y60162D02*X130768D01*
X130709Y60166D01*
X130474Y60148D01*
X130244Y60093D01*
X130026Y60002D01*
X129825Y59879D01*
X129825Y59879D01*
X129645Y59726D01*
X129607Y59681D01*
X127688Y57762D01*
X122060D01*
X122058Y58198D01*
X122003Y58428D01*
X121913Y58646D01*
X121789Y58847D01*
X121636Y59027D01*
X121456Y59180D01*
X121255Y59304D01*
X121037Y59394D01*
X120807Y59449D01*
X120572Y59463D01*
X116337Y59449D01*
X116107Y59394D01*
X115889Y59304D01*
X115688Y59180D01*
X115508Y59027D01*
X115355Y58847D01*
X115231Y58646D01*
X115141Y58428D01*
X115086Y58198D01*
X115072Y57963D01*
X115086Y54328D01*
X115141Y54098D01*
X115231Y53880D01*
X115317Y53740D01*
X109491D01*
X109665Y53754D01*
X109876Y53805D01*
X110076Y53888D01*
X110261Y54001D01*
X110426Y54142D01*
X110461Y54183D01*
X115109Y58831D01*
X115150Y58866D01*
X115291Y59031D01*
X115291Y59031D01*
X115404Y59216D01*
X115487Y59416D01*
X115538Y59627D01*
X115555Y59843D01*
X115550Y59897D01*
Y60623D01*
X115688Y60506D01*
X115889Y60382D01*
X116107Y60292D01*
X116337Y60237D01*
X116572Y60223D01*
X120807Y60237D01*
X121037Y60292D01*
X121255Y60382D01*
X121456Y60506D01*
X121636Y60659D01*
X121789Y60838D01*
X121913Y61040D01*
X122003Y61258D01*
X122058Y61487D01*
X122072Y61723D01*
X122058Y65358D01*
X122003Y65588D01*
X121913Y65806D01*
X121827Y65945D01*
X123284D01*
X123286Y65387D01*
X123341Y65158D01*
X123431Y64940D01*
X123555Y64738D01*
X123708Y64559D01*
X123888Y64406D01*
X124089Y64282D01*
X124307Y64192D01*
X124537Y64137D01*
X124772Y64123D01*
X129007Y64137D01*
X129237Y64192D01*
X129455Y64282D01*
X129656Y64406D01*
X129836Y64559D01*
X129989Y64738D01*
X130113Y64940D01*
X130203Y65158D01*
X130258Y65387D01*
X130264Y65486D01*
X130583Y65166D01*
X130591Y62836D01*
X130627Y62685D01*
X130686Y62542D01*
X130767Y62410D01*
X130868Y62292D01*
X130985Y62192D01*
X131117Y62111D01*
X131260Y62052D01*
X131411Y62015D01*
X131565Y62006D01*
X135519Y62015D01*
X135669Y62052D01*
X135813Y62111D01*
X135945Y62192D01*
X136062Y62292D01*
X136163Y62410D01*
X136244Y62542D01*
X136303Y62685D01*
X136339Y62836D01*
X136348Y62990D01*
X136344Y64588D01*
X136706Y63996D01*
X137290Y63313D01*
X137886Y62804D01*
Y60162D01*
G37*
G36*
Y45202D02*X130768D01*
X130709Y45207D01*
X130474Y45188D01*
X130244Y45133D01*
X130026Y45043D01*
X129825Y44919D01*
X129825Y44919D01*
X129645Y44766D01*
X129607Y44721D01*
X127688Y42802D01*
X122060D01*
X122058Y43237D01*
X122003Y43467D01*
X121913Y43685D01*
X121789Y43886D01*
X121636Y44066D01*
X121456Y44219D01*
X121255Y44343D01*
X121037Y44433D01*
X120807Y44488D01*
X120572Y44502D01*
X116337Y44488D01*
X116107Y44433D01*
X115889Y44343D01*
X115688Y44219D01*
X115508Y44066D01*
X115355Y43886D01*
X115231Y43685D01*
X115141Y43467D01*
X115086Y43237D01*
X115072Y43002D01*
X115086Y39367D01*
X115141Y39137D01*
X115231Y38919D01*
X115317Y38779D01*
X97801D01*
X75915Y59948D01*
X75974Y60195D01*
X76000Y60630D01*
X75985Y60875D01*
X76306Y60742D01*
X76730Y60640D01*
X77165Y60606D01*
X77600Y60640D01*
X78024Y60742D01*
X78427Y60909D01*
X78799Y61137D01*
X79131Y61420D01*
X79414Y61752D01*
X79642Y62124D01*
X79809Y62527D01*
X79911Y62951D01*
X79915Y63019D01*
X91508Y51427D01*
X91543Y51386D01*
X91708Y51245D01*
X91708Y51245D01*
X91708Y51245D01*
X91756Y51216D01*
X91893Y51132D01*
X91893Y51132D01*
X91893Y51132D01*
X92013Y51082D01*
X92093Y51049D01*
X92093Y51049D01*
X92093Y51049D01*
X92198Y51024D01*
X92304Y50998D01*
X92304D01*
X92304Y50998D01*
X92520Y50981D01*
X92574Y50985D01*
X115317D01*
X115231Y50846D01*
X115141Y50628D01*
X115086Y50398D01*
X115072Y50163D01*
X115086Y46528D01*
X115141Y46298D01*
X115231Y46080D01*
X115355Y45879D01*
X115508Y45699D01*
X115688Y45546D01*
X115889Y45422D01*
X116107Y45332D01*
X116337Y45277D01*
X116572Y45263D01*
X120807Y45277D01*
X121037Y45332D01*
X121255Y45422D01*
X121456Y45546D01*
X121636Y45699D01*
X121789Y45879D01*
X121913Y46080D01*
X122003Y46298D01*
X122058Y46528D01*
X122072Y46763D01*
X122058Y50398D01*
X122003Y50628D01*
X121913Y50846D01*
X121827Y50985D01*
X123284D01*
X123286Y50428D01*
X123341Y50198D01*
X123431Y49980D01*
X123555Y49779D01*
X123708Y49599D01*
X123888Y49446D01*
X124089Y49322D01*
X124307Y49232D01*
X124537Y49177D01*
X124772Y49163D01*
X129007Y49177D01*
X129237Y49232D01*
X129455Y49322D01*
X129656Y49446D01*
X129836Y49599D01*
X129989Y49779D01*
X130113Y49980D01*
X130203Y50198D01*
X130258Y50428D01*
X130264Y50526D01*
X130583Y50206D01*
X130591Y47876D01*
X130627Y47725D01*
X130686Y47582D01*
X130767Y47450D01*
X130868Y47333D01*
X130985Y47232D01*
X131117Y47151D01*
X131260Y47092D01*
X131411Y47056D01*
X131565Y47046D01*
X135519Y47056D01*
X135669Y47092D01*
X135813Y47151D01*
X135945Y47232D01*
X136062Y47333D01*
X136163Y47450D01*
X136244Y47582D01*
X136303Y47725D01*
X136339Y47876D01*
X136348Y48030D01*
X136344Y49588D01*
X136706Y48996D01*
X137290Y48313D01*
X137886Y47804D01*
Y45202D01*
G37*
G36*
Y30241D02*X130768D01*
X130709Y30246D01*
X130474Y30227D01*
X130244Y30172D01*
X130026Y30082D01*
X129825Y29958D01*
X129825Y29958D01*
X129645Y29805D01*
X129607Y29760D01*
X127688Y27841D01*
X122060D01*
X122058Y28276D01*
X122003Y28506D01*
X121913Y28724D01*
X121789Y28925D01*
X121636Y29105D01*
X121456Y29258D01*
X121255Y29382D01*
X121037Y29472D01*
X120807Y29527D01*
X120572Y29541D01*
X116337Y29527D01*
X116107Y29472D01*
X115889Y29382D01*
X115688Y29258D01*
X115508Y29105D01*
X115355Y28925D01*
X115231Y28724D01*
X115141Y28506D01*
X115086Y28276D01*
X115072Y28041D01*
X115086Y24406D01*
X115141Y24176D01*
X115231Y23958D01*
X115317Y23818D01*
X107263D01*
X73232Y57850D01*
X73663Y57884D01*
X74002Y57965D01*
X96239Y36457D01*
X96267Y36425D01*
X96432Y36284D01*
X96443Y36277D01*
X96451Y36271D01*
X96534Y36221D01*
X96617Y36171D01*
X96627Y36166D01*
X96637Y36161D01*
X96728Y36125D01*
X96817Y36088D01*
X96828Y36085D01*
X96839Y36081D01*
X96934Y36060D01*
X97028Y36037D01*
X97038Y36037D01*
X97051Y36034D01*
X97267Y36020D01*
X97310Y36024D01*
X115317D01*
X115231Y35885D01*
X115141Y35667D01*
X115086Y35437D01*
X115072Y35202D01*
X115086Y31567D01*
X115141Y31337D01*
X115231Y31119D01*
X115355Y30918D01*
X115508Y30738D01*
X115688Y30585D01*
X115889Y30461D01*
X116107Y30371D01*
X116337Y30316D01*
X116572Y30302D01*
X120807Y30316D01*
X121037Y30371D01*
X121255Y30461D01*
X121456Y30585D01*
X121636Y30738D01*
X121789Y30918D01*
X121913Y31119D01*
X122003Y31337D01*
X122058Y31567D01*
X122072Y31802D01*
X122058Y35437D01*
X122003Y35667D01*
X121913Y35885D01*
X121827Y36024D01*
X123284D01*
X123286Y35467D01*
X123341Y35237D01*
X123431Y35019D01*
X123555Y34818D01*
X123708Y34638D01*
X123888Y34485D01*
X124089Y34361D01*
X124307Y34271D01*
X124537Y34216D01*
X124772Y34202D01*
X129007Y34216D01*
X129237Y34271D01*
X129455Y34361D01*
X129656Y34485D01*
X129836Y34638D01*
X129989Y34818D01*
X130113Y35019D01*
X130203Y35237D01*
X130258Y35467D01*
X130264Y35565D01*
X130583Y35245D01*
X130591Y32915D01*
X130627Y32764D01*
X130686Y32621D01*
X130767Y32489D01*
X130868Y32372D01*
X130985Y32271D01*
X131117Y32190D01*
X131260Y32131D01*
X131411Y32095D01*
X131565Y32085D01*
X135519Y32095D01*
X135669Y32131D01*
X135813Y32190D01*
X135945Y32271D01*
X136062Y32372D01*
X136163Y32489D01*
X136244Y32621D01*
X136303Y32764D01*
X136339Y32915D01*
X136348Y33069D01*
X136344Y34588D01*
X136706Y33996D01*
X137290Y33313D01*
X137886Y32804D01*
Y30241D01*
G37*
G36*
X73229Y53957D02*X105681Y21505D01*
X105716Y21464D01*
X105881Y21323D01*
X105881Y21323D01*
X106066Y21210D01*
X106266Y21127D01*
X106477Y21076D01*
X106693Y21059D01*
X106747Y21063D01*
X115317D01*
X115231Y20924D01*
X115141Y20706D01*
X115086Y20476D01*
X115072Y20241D01*
X115086Y16606D01*
X115141Y16376D01*
X115231Y16158D01*
X115355Y15957D01*
X115508Y15777D01*
X115688Y15624D01*
X115889Y15500D01*
X116107Y15410D01*
X116337Y15355D01*
X116572Y15341D01*
X120807Y15355D01*
X121037Y15410D01*
X121255Y15500D01*
X121456Y15624D01*
X121636Y15777D01*
X121789Y15957D01*
X121913Y16158D01*
X122003Y16376D01*
X122058Y16606D01*
X122072Y16841D01*
X122058Y20476D01*
X122003Y20706D01*
X121913Y20924D01*
X121827Y21063D01*
X123284D01*
X123286Y20506D01*
X123341Y20276D01*
X123431Y20058D01*
X123555Y19857D01*
X123708Y19677D01*
X123888Y19524D01*
X124089Y19400D01*
X124307Y19310D01*
X124537Y19255D01*
X124772Y19241D01*
X129007Y19255D01*
X129237Y19310D01*
X129455Y19400D01*
X129656Y19524D01*
X129836Y19677D01*
X129989Y19857D01*
X130113Y20058D01*
X130203Y20276D01*
X130258Y20506D01*
X130264Y20604D01*
X130583Y20284D01*
X130591Y17954D01*
X130627Y17803D01*
X130686Y17660D01*
X130767Y17528D01*
X130868Y17411D01*
X130985Y17310D01*
X131117Y17229D01*
X131260Y17170D01*
X131411Y17134D01*
X131565Y17124D01*
X135519Y17134D01*
X135669Y17170D01*
X135813Y17229D01*
X135945Y17310D01*
X136062Y17411D01*
X136163Y17528D01*
X136244Y17660D01*
X136303Y17803D01*
X136339Y17954D01*
X136348Y18108D01*
X136344Y19588D01*
X136706Y18996D01*
X137290Y18313D01*
X137886Y17804D01*
Y0D01*
X73229D01*
Y1294D01*
X125532D01*
X125902Y1067D01*
X126305Y900D01*
X126729Y798D01*
X127164Y764D01*
X127599Y798D01*
X128023Y900D01*
X128426Y1067D01*
X128797Y1294D01*
X130650D01*
X131021Y1067D01*
X131424Y900D01*
X131848Y798D01*
X132283Y764D01*
X132718Y798D01*
X133142Y900D01*
X133545Y1067D01*
X133917Y1295D01*
X134249Y1578D01*
X134532Y1910D01*
X134760Y2282D01*
X134927Y2685D01*
X135029Y3109D01*
X135055Y3544D01*
X135029Y3979D01*
X134927Y4403D01*
X134760Y4806D01*
X134532Y5178D01*
X134249Y5510D01*
X133917Y5793D01*
X133545Y6021D01*
X133142Y6188D01*
X132718Y6290D01*
X132283Y6324D01*
X131848Y6290D01*
X131424Y6188D01*
X131021Y6021D01*
X130650Y5794D01*
X128797D01*
X128426Y6021D01*
X128023Y6188D01*
X127599Y6290D01*
X127164Y6324D01*
X126729Y6290D01*
X126305Y6188D01*
X125902Y6021D01*
X125532Y5794D01*
X73229D01*
Y10781D01*
X73861Y11043D01*
X74627Y11512D01*
X75310Y12096D01*
X75894Y12779D01*
X76363Y13545D01*
X76508Y13895D01*
X81014D01*
X81159Y13545D01*
X81628Y12779D01*
X82212Y12096D01*
X82895Y11512D01*
X83661Y11043D01*
X84492Y10699D01*
X85365Y10489D01*
X86261Y10419D01*
X87157Y10489D01*
X88030Y10699D01*
X88861Y11043D01*
X89627Y11512D01*
X90310Y12096D01*
X90894Y12779D01*
X91363Y13545D01*
X91508Y13895D01*
X96014D01*
X96159Y13545D01*
X96628Y12779D01*
X97212Y12096D01*
X97895Y11512D01*
X98661Y11043D01*
X99492Y10699D01*
X100365Y10489D01*
X101261Y10419D01*
X102157Y10489D01*
X103030Y10699D01*
X103861Y11043D01*
X104627Y11512D01*
X105310Y12096D01*
X105894Y12779D01*
X106363Y13545D01*
X106707Y14375D01*
X106917Y15249D01*
X106970Y16145D01*
X106917Y17041D01*
X106707Y17914D01*
X106363Y18745D01*
X105894Y19511D01*
X105310Y20194D01*
X104627Y20777D01*
X103861Y21247D01*
X103030Y21591D01*
X102157Y21801D01*
X101261Y21871D01*
X100365Y21801D01*
X99492Y21591D01*
X98661Y21247D01*
X97895Y20777D01*
X97212Y20194D01*
X96628Y19511D01*
X96159Y18745D01*
X96014Y18395D01*
X91508D01*
X91363Y18745D01*
X90894Y19511D01*
X90310Y20194D01*
X89627Y20777D01*
X88861Y21247D01*
X88030Y21591D01*
X87157Y21801D01*
X86261Y21871D01*
X85365Y21801D01*
X84492Y21591D01*
X83661Y21247D01*
X82895Y20777D01*
X82212Y20194D01*
X81628Y19511D01*
X81159Y18745D01*
X81014Y18395D01*
X76508D01*
X76363Y18745D01*
X75894Y19511D01*
X75310Y20194D01*
X74627Y20777D01*
X73861Y21247D01*
X73229Y21509D01*
Y24522D01*
X76772D01*
X77125Y24543D01*
X77469Y24626D01*
X77797Y24761D01*
X78099Y24946D01*
X78368Y25176D01*
X78381Y25191D01*
X78700Y25191D01*
X78853Y25228D01*
X78998Y25288D01*
X79133Y25371D01*
X79252Y25473D01*
X79355Y25592D01*
X79437Y25727D01*
X79497Y25872D01*
X79534Y26025D01*
X79543Y26182D01*
X79534Y31457D01*
X79497Y31610D01*
X79437Y31755D01*
X79355Y31890D01*
X79252Y32009D01*
X79133Y32112D01*
X78998Y32194D01*
X78853Y32254D01*
X78700Y32291D01*
X78543Y32300D01*
X78372Y32300D01*
X78368Y32305D01*
X78099Y32535D01*
X77797Y32720D01*
X77469Y32856D01*
X77125Y32938D01*
X76772Y32959D01*
X73229D01*
Y36997D01*
X78700Y37001D01*
X78853Y37038D01*
X78998Y37098D01*
X79133Y37181D01*
X79252Y37283D01*
X79355Y37402D01*
X79437Y37537D01*
X79497Y37682D01*
X79534Y37835D01*
X79543Y37992D01*
X79534Y43267D01*
X79497Y43420D01*
X79437Y43565D01*
X79355Y43700D01*
X79252Y43819D01*
X79133Y43922D01*
X78998Y44004D01*
X78853Y44064D01*
X78700Y44101D01*
X78543Y44110D01*
X73229Y44106D01*
Y53957D01*
G37*
G36*
Y21509D02*X73030Y21591D01*
X72157Y21801D01*
X71261Y21871D01*
X70365Y21801D01*
X69492Y21591D01*
X68661Y21247D01*
X67895Y20777D01*
X67212Y20194D01*
X66628Y19511D01*
X66159Y18745D01*
X66014Y18395D01*
X61508D01*
X61363Y18745D01*
X60894Y19511D01*
X60310Y20194D01*
X59843Y20593D01*
Y23863D01*
X61464Y22242D01*
X61427Y22089D01*
X61393Y21654D01*
X61427Y21219D01*
X61529Y20795D01*
X61696Y20392D01*
X61924Y20020D01*
X62207Y19688D01*
X62539Y19405D01*
X62911Y19177D01*
X63314Y19010D01*
X63738Y18908D01*
X64173Y18874D01*
X64608Y18908D01*
X65032Y19010D01*
X65435Y19177D01*
X65807Y19405D01*
X66139Y19688D01*
X66422Y20020D01*
X66650Y20392D01*
X66817Y20795D01*
X66919Y21219D01*
X66944Y21654D01*
X66919Y22089D01*
X66817Y22513D01*
X66650Y22916D01*
X66422Y23288D01*
X66139Y23620D01*
X65807Y23903D01*
X65435Y24131D01*
X65032Y24298D01*
X64608Y24400D01*
X64173Y24434D01*
X63738Y24400D01*
X63585Y24363D01*
X63426Y24522D01*
X73229D01*
Y21509D01*
G37*
G36*
Y5794D02*X59843D01*
Y11697D01*
X60310Y12096D01*
X60894Y12779D01*
X61363Y13545D01*
X61508Y13895D01*
X66014D01*
X66159Y13545D01*
X66628Y12779D01*
X67212Y12096D01*
X67895Y11512D01*
X68661Y11043D01*
X69492Y10699D01*
X70365Y10489D01*
X71261Y10419D01*
X72157Y10489D01*
X73030Y10699D01*
X73229Y10781D01*
Y5794D01*
G37*
G36*
Y0D02*X59843D01*
Y1294D01*
X73229D01*
Y0D01*
G37*
G36*
X60826Y59080D02*Y59308D01*
X60973Y59182D01*
X61343Y58955D01*
X61744Y58789D01*
X62166Y58688D01*
X62598Y58654D01*
X63030Y58688D01*
X63452Y58789D01*
X63853Y58955D01*
X64223Y59182D01*
X64552Y59464D01*
X64834Y59793D01*
X65061Y60163D01*
X65227Y60564D01*
X65328Y60986D01*
X65354Y61418D01*
X65328Y61850D01*
X65260Y62132D01*
X69468Y66339D01*
X71084D01*
X68749Y64004D01*
X68708Y63969D01*
X68567Y63804D01*
X68454Y63619D01*
X68371Y63419D01*
X68320Y63208D01*
X68303Y62992D01*
X68308Y62938D01*
Y59503D01*
X68303Y59449D01*
X68320Y59233D01*
X68371Y59022D01*
X68454Y58822D01*
X68567Y58637D01*
X68567Y58637D01*
X68708Y58472D01*
X68749Y58437D01*
X73229Y53957D01*
Y44106D01*
X67758Y44101D01*
X67605Y44064D01*
X67460Y44004D01*
X67325Y43922D01*
X67206Y43819D01*
X67103Y43700D01*
X67021Y43565D01*
X66961Y43420D01*
X66924Y43267D01*
X66915Y43110D01*
X66924Y37835D01*
X66961Y37682D01*
X67021Y37537D01*
X67103Y37402D01*
X67206Y37283D01*
X67325Y37181D01*
X67460Y37098D01*
X67605Y37038D01*
X67758Y37001D01*
X67915Y36992D01*
X73229Y36997D01*
Y32959D01*
X59843D01*
Y36997D01*
X65314Y37001D01*
X65467Y37038D01*
X65612Y37098D01*
X65747Y37181D01*
X65866Y37283D01*
X65969Y37402D01*
X66051Y37537D01*
X66111Y37682D01*
X66148Y37835D01*
X66157Y37992D01*
X66148Y43267D01*
X66111Y43420D01*
X66051Y43565D01*
X65969Y43700D01*
X65866Y43819D01*
X65747Y43922D01*
X65612Y44004D01*
X65467Y44064D01*
X65314Y44101D01*
X65157Y44110D01*
X59843Y44106D01*
Y47441D01*
X60605D01*
X60756Y47194D01*
X61038Y46864D01*
X61367Y46583D01*
X61737Y46356D01*
X62138Y46190D01*
X62560Y46089D01*
X62992Y46055D01*
X63425Y46089D01*
X63846Y46190D01*
X64247Y46356D01*
X64617Y46583D01*
X64947Y46864D01*
X65228Y47194D01*
X65455Y47564D01*
X65621Y47965D01*
X65722Y48387D01*
X65748Y48819D01*
X65722Y49251D01*
X65621Y49673D01*
X65455Y50074D01*
X65228Y50444D01*
X64947Y50773D01*
X64617Y51055D01*
X64247Y51282D01*
X63846Y51448D01*
X63425Y51549D01*
X62992Y51583D01*
X62880Y51574D01*
X62966Y51931D01*
X62992Y52363D01*
X62966Y52795D01*
X62865Y53217D01*
X62699Y53618D01*
X62472Y53988D01*
X62190Y54317D01*
X61861Y54599D01*
X61491Y54826D01*
X61481Y54830D01*
X61685Y55068D01*
X61912Y55438D01*
X62078Y55839D01*
X62179Y56261D01*
X62204Y56693D01*
X62179Y57125D01*
X62078Y57547D01*
X61912Y57948D01*
X61685Y58318D01*
X61403Y58647D01*
X61073Y58929D01*
X60826Y59080D01*
G37*
G36*
X59843Y32959D02*X51663D01*
X51575Y32966D01*
X51222Y32938D01*
X51222Y32938D01*
X51222Y32938D01*
X51222Y32938D01*
X51013Y32888D01*
X50877Y32856D01*
X50877Y32856D01*
X50877Y32855D01*
X50698Y32781D01*
X50550Y32720D01*
X50550Y32720D01*
X50550Y32720D01*
X50382Y32617D01*
X50248Y32535D01*
X50248Y32535D01*
X50248Y32535D01*
X50247Y32534D01*
X49979Y32305D01*
X49921Y32238D01*
X48281Y30597D01*
X47705D01*
X47694Y30604D01*
X47551Y30663D01*
X47400Y30699D01*
X47246Y30709D01*
X32130Y30699D01*
X31979Y30663D01*
X31836Y30604D01*
X31704Y30523D01*
X31587Y30422D01*
X31486Y30305D01*
X31405Y30173D01*
X31346Y30030D01*
X31310Y29879D01*
X31300Y29725D01*
X31310Y22877D01*
X31346Y22727D01*
X31405Y22583D01*
X31486Y22451D01*
X31587Y22334D01*
X31704Y22233D01*
X31836Y22152D01*
X31979Y22093D01*
X32130Y22057D01*
X32285Y22048D01*
X37515Y22051D01*
Y13606D01*
X34491Y10582D01*
X32243Y10573D01*
X32013Y10518D01*
X31795Y10428D01*
X31594Y10304D01*
X31414Y10151D01*
X31261Y9971D01*
X31137Y9770D01*
X31047Y9552D01*
X30995Y9337D01*
X29561D01*
X29509Y9552D01*
X29419Y9770D01*
X29295Y9971D01*
X29142Y10151D01*
X28962Y10304D01*
X28761Y10428D01*
X28543Y10518D01*
X28313Y10573D01*
X28078Y10587D01*
X27500Y10585D01*
X27557Y10633D01*
X27840Y10965D01*
X28068Y11337D01*
X28235Y11740D01*
X28255Y11822D01*
X28343Y11801D01*
X28578Y11787D01*
X32213Y11801D01*
X32443Y11856D01*
X32661Y11946D01*
X32862Y12070D01*
X33042Y12223D01*
X33195Y12403D01*
X33319Y12604D01*
X33409Y12822D01*
X33464Y13052D01*
X33478Y13287D01*
X33464Y17522D01*
X33409Y17752D01*
X33319Y17970D01*
X33195Y18171D01*
X33042Y18351D01*
X32862Y18504D01*
X32661Y18628D01*
X32443Y18718D01*
X32213Y18773D01*
X31978Y18787D01*
X28343Y18773D01*
X28113Y18718D01*
X27895Y18628D01*
X27694Y18504D01*
X27514Y18351D01*
X27361Y18171D01*
X27237Y17970D01*
X27147Y17752D01*
X27092Y17522D01*
X27078Y17287D01*
X27086Y14933D01*
X26853Y15076D01*
X26450Y15243D01*
X26026Y15345D01*
X25591Y15379D01*
X25156Y15345D01*
X24732Y15243D01*
X24329Y15076D01*
X23958Y14849D01*
X22529D01*
X22441Y14856D01*
X22088Y14828D01*
X22088Y14828D01*
X22088Y14828D01*
X22047Y14818D01*
Y23036D01*
X23017Y23041D01*
X23138Y23070D01*
X23252Y23117D01*
X23358Y23182D01*
X23452Y23262D01*
X23533Y23357D01*
X23598Y23463D01*
X23645Y23577D01*
X23674Y23698D01*
X23682Y23821D01*
X23674Y29850D01*
X23645Y29971D01*
X23622Y30028D01*
Y30726D01*
X30291Y37396D01*
X30325Y36967D01*
X30427Y36543D01*
X30594Y36140D01*
X30822Y35768D01*
X31105Y35436D01*
X31437Y35153D01*
X31809Y34925D01*
X32212Y34758D01*
X32636Y34656D01*
X33071Y34622D01*
X33506Y34656D01*
X33930Y34758D01*
X34333Y34925D01*
X34705Y35153D01*
X35037Y35436D01*
X35320Y35768D01*
X35548Y36140D01*
X35715Y36543D01*
X35817Y36967D01*
X35842Y37402D01*
X35817Y37837D01*
X35780Y37990D01*
X37629Y39839D01*
X45610D01*
X45669Y39834D01*
X45904Y39853D01*
X45904Y39853D01*
X46134Y39908D01*
X46352Y39998D01*
X46553Y40122D01*
X46733Y40275D01*
X46771Y40320D01*
X51019Y44568D01*
X51064Y44606D01*
X51217Y44786D01*
X51217Y44786D01*
X51306Y44931D01*
X51341Y44987D01*
X51341Y44987D01*
X51431Y45205D01*
X51486Y45435D01*
X51505Y45670D01*
X51500Y45729D01*
Y52304D01*
X51505Y52363D01*
X51486Y52598D01*
X51431Y52828D01*
X51341Y53046D01*
X51217Y53247D01*
X51064Y53427D01*
X51019Y53465D01*
X50536Y53949D01*
X50787Y53929D01*
X51219Y53963D01*
X51641Y54064D01*
X52042Y54230D01*
X52412Y54457D01*
X52741Y54738D01*
X52954Y54987D01*
Y53991D01*
X52949Y53937D01*
X52966Y53721D01*
X52966Y53721D01*
Y53721D01*
X52981Y53661D01*
X53017Y53510D01*
X53017Y53510D01*
Y53510D01*
X53022Y53498D01*
X53100Y53310D01*
X53213Y53125D01*
X53213Y53125D01*
X53213Y53125D01*
X53354Y52960D01*
X53395Y52925D01*
X58437Y47883D01*
X58472Y47842D01*
X58637Y47701D01*
X58637Y47701D01*
X58637Y47701D01*
X58637Y47701D01*
X58677Y47676D01*
X58821Y47588D01*
X59022Y47505D01*
X59022Y47505D01*
X59022Y47505D01*
X59110Y47484D01*
X59233Y47454D01*
X59233Y47454D01*
X59233Y47454D01*
X59449Y47437D01*
X59503Y47441D01*
X59843D01*
Y44106D01*
X54372Y44101D01*
X54219Y44064D01*
X54074Y44004D01*
X53939Y43922D01*
X53820Y43819D01*
X53717Y43700D01*
X53635Y43565D01*
X53575Y43420D01*
X53538Y43267D01*
X53529Y43110D01*
X53538Y37835D01*
X53575Y37682D01*
X53635Y37537D01*
X53717Y37402D01*
X53820Y37283D01*
X53939Y37181D01*
X54074Y37098D01*
X54219Y37038D01*
X54372Y37001D01*
X54529Y36992D01*
X59843Y36997D01*
Y32959D01*
G37*
G36*
Y5794D02*X49828D01*
X42015Y13606D01*
Y21766D01*
X50306D01*
X50394Y21759D01*
X50747Y21787D01*
X50747Y21787D01*
X50747D01*
X50988Y21845D01*
X51091Y21870D01*
X51091Y21870D01*
X51091Y21870D01*
X51356Y21979D01*
X51419Y22005D01*
X51419Y22005D01*
X51419Y22005D01*
X51702Y22179D01*
X51721Y22190D01*
X51721Y22190D01*
X51990Y22420D01*
X52047Y22488D01*
X54082Y24522D01*
X59183D01*
X59843Y23863D01*
Y20593D01*
X59627Y20777D01*
X58861Y21247D01*
X58030Y21591D01*
X57157Y21801D01*
X56261Y21871D01*
X55365Y21801D01*
X54492Y21591D01*
X53661Y21247D01*
X52895Y20777D01*
X52212Y20194D01*
X51628Y19511D01*
X51159Y18745D01*
X50815Y17914D01*
X50605Y17041D01*
X50535Y16145D01*
X50605Y15249D01*
X50815Y14375D01*
X51159Y13545D01*
X51628Y12779D01*
X52212Y12096D01*
X52895Y11512D01*
X53661Y11043D01*
X54492Y10699D01*
X55365Y10489D01*
X56261Y10419D01*
X57157Y10489D01*
X58030Y10699D01*
X58861Y11043D01*
X59627Y11512D01*
X59843Y11697D01*
Y5794D01*
G37*
G36*
Y0D02*X22047D01*
Y4426D01*
X22119Y4443D01*
X22522Y4610D01*
X22893Y4837D01*
X23195D01*
X23247Y4622D01*
X23337Y4404D01*
X23461Y4203D01*
X23614Y4023D01*
X23794Y3870D01*
X23995Y3746D01*
X24213Y3656D01*
X24443Y3601D01*
X24678Y3587D01*
X28313Y3601D01*
X28543Y3656D01*
X28761Y3746D01*
X28962Y3870D01*
X29142Y4023D01*
X29295Y4203D01*
X29419Y4404D01*
X29509Y4622D01*
X29561Y4837D01*
X30995D01*
X31047Y4622D01*
X31137Y4404D01*
X31261Y4203D01*
X31414Y4023D01*
X31594Y3870D01*
X31795Y3746D01*
X32013Y3656D01*
X32243Y3601D01*
X32478Y3587D01*
X36113Y3601D01*
X36343Y3656D01*
X36561Y3746D01*
X36762Y3870D01*
X36942Y4023D01*
X37095Y4203D01*
X37219Y4404D01*
X37309Y4622D01*
X37364Y4852D01*
X37378Y5087D01*
X37371Y7098D01*
X39765Y9492D01*
X47243Y2015D01*
X47300Y1948D01*
X47569Y1718D01*
X47569Y1718D01*
X47570Y1718D01*
X47739Y1614D01*
X47871Y1533D01*
X47871Y1533D01*
X47871Y1533D01*
X48049Y1460D01*
X48199Y1398D01*
X48199Y1398D01*
X48199Y1398D01*
X48369Y1357D01*
X48543Y1315D01*
X48543Y1315D01*
X48543Y1315D01*
X48896Y1287D01*
X48984Y1294D01*
X59843D01*
Y0D01*
G37*
G36*
X18610Y10584D02*X18555Y10587D01*
X14920Y10573D01*
X14690Y10518D01*
X14472Y10428D01*
X14271Y10304D01*
X14091Y10151D01*
X13938Y9971D01*
X13814Y9770D01*
X13724Y9552D01*
X13672Y9337D01*
X12955D01*
Y11794D01*
X14890Y11801D01*
X15120Y11856D01*
X15338Y11946D01*
X15539Y12070D01*
X15719Y12223D01*
X15872Y12403D01*
X15996Y12604D01*
X16086Y12822D01*
X16141Y13052D01*
X16155Y13287D01*
X16141Y17522D01*
X16086Y17752D01*
X15996Y17970D01*
X15872Y18171D01*
X15719Y18351D01*
X15539Y18504D01*
X15338Y18628D01*
X15120Y18718D01*
X14890Y18773D01*
X14655Y18787D01*
X12955Y18781D01*
Y19367D01*
X14902D01*
X14961Y19362D01*
X15196Y19381D01*
X15196Y19381D01*
X15196Y19381D01*
X15196D01*
X15208Y19384D01*
X15426Y19436D01*
X15644Y19526D01*
X15845Y19650D01*
X15845Y19650D01*
X15845Y19650D01*
X15846Y19650D01*
X16025Y19803D01*
X16063Y19848D01*
X18146Y21931D01*
X18191Y21969D01*
X18344Y22149D01*
X18344Y22149D01*
X18344Y22149D01*
X18442Y22308D01*
X18468Y22350D01*
X18468Y22350D01*
X18468Y22350D01*
X18506Y22443D01*
X18558Y22568D01*
X18558Y22568D01*
X18558Y22568D01*
X18589Y22698D01*
X18613Y22798D01*
Y22798D01*
X18613Y22798D01*
X18632Y23033D01*
X18627Y23092D01*
Y23148D01*
X18677Y23117D01*
X18791Y23070D01*
X18912Y23041D01*
X19036Y23033D01*
X20458Y23041D01*
X20579Y23070D01*
X20693Y23117D01*
X20799Y23182D01*
X20893Y23262D01*
X20964Y23346D01*
X21036Y23262D01*
X21130Y23182D01*
X21236Y23117D01*
X21350Y23070D01*
X21471Y23041D01*
X21594Y23033D01*
X23017Y23041D01*
X23138Y23070D01*
X23228Y23107D01*
Y14849D01*
X22529D01*
X22441Y14856D01*
X22088Y14828D01*
X22088Y14828D01*
X22088Y14828D01*
X21946Y14794D01*
X21744Y14745D01*
X21744Y14745D01*
X21744Y14745D01*
X21616Y14692D01*
X21417Y14610D01*
X21416Y14610D01*
X21416Y14610D01*
X21289Y14532D01*
X21115Y14425D01*
X21115Y14425D01*
X21114Y14425D01*
X20845Y14195D01*
X20817Y14162D01*
X20401Y14062D01*
X19998Y13895D01*
X19626Y13667D01*
X19294Y13384D01*
X19011Y13052D01*
X18783Y12680D01*
X18616Y12277D01*
X18514Y11853D01*
X18480Y11418D01*
X18514Y10983D01*
X18610Y10584D01*
G37*
G36*
X12955Y9337D02*X12238D01*
X12186Y9552D01*
X12096Y9770D01*
X11972Y9971D01*
X11819Y10151D01*
X11639Y10304D01*
X11438Y10428D01*
X11220Y10518D01*
X10990Y10573D01*
X10755Y10587D01*
X7688Y10575D01*
X6618Y11645D01*
Y18475D01*
X7172Y18476D01*
X7323Y18513D01*
X7466Y18572D01*
X7598Y18653D01*
X7715Y18753D01*
X7816Y18871D01*
X7897Y19003D01*
X7956Y19146D01*
X7992Y19297D01*
X8002Y19451D01*
X7992Y22437D01*
X7956Y22587D01*
X7897Y22730D01*
X7816Y22863D01*
X7715Y22980D01*
X7598Y23081D01*
X7466Y23162D01*
X7323Y23221D01*
X7172Y23257D01*
X7018Y23266D01*
X4845Y23261D01*
X3803Y24303D01*
X7172Y24310D01*
X7323Y24347D01*
X7466Y24406D01*
X7598Y24487D01*
X7715Y24587D01*
X7816Y24705D01*
X7897Y24837D01*
X7956Y24980D01*
X7992Y25131D01*
X8002Y25285D01*
X8000Y25880D01*
X8153Y25510D01*
X8381Y25138D01*
X8664Y24806D01*
X8996Y24523D01*
X9130Y24441D01*
Y22499D01*
X9125Y22440D01*
X9144Y22208D01*
X9144Y22206D01*
X9144Y22205D01*
X9144Y22205D01*
X9171Y22094D01*
X9199Y21976D01*
X9199Y21976D01*
X9199Y21976D01*
X9241Y21875D01*
X9289Y21758D01*
X9290Y21758D01*
X9290Y21757D01*
X9345Y21667D01*
X9413Y21557D01*
X9413Y21556D01*
X9413Y21556D01*
X9414Y21555D01*
X9566Y21377D01*
X9611Y21339D01*
X11103Y19848D01*
X11141Y19803D01*
X11321Y19650D01*
X11321Y19650D01*
X11321Y19649D01*
X11418Y19590D01*
X11522Y19526D01*
X11522Y19526D01*
X11522Y19526D01*
X11627Y19483D01*
X11740Y19436D01*
X11740Y19436D01*
X11740Y19436D01*
X11850Y19410D01*
X11970Y19381D01*
X11970Y19381D01*
X11970Y19381D01*
X12205Y19362D01*
X12264Y19367D01*
X12955D01*
Y18781D01*
X11020Y18773D01*
X10790Y18718D01*
X10572Y18628D01*
X10371Y18504D01*
X10191Y18351D01*
X10038Y18171D01*
X9914Y17970D01*
X9824Y17752D01*
X9769Y17522D01*
X9755Y17287D01*
X9769Y13052D01*
X9824Y12822D01*
X9914Y12604D01*
X10038Y12403D01*
X10191Y12223D01*
X10371Y12070D01*
X10572Y11946D01*
X10790Y11856D01*
X11020Y11801D01*
X11255Y11787D01*
X12955Y11794D01*
Y9337D01*
G37*
G36*
X7874Y49522D02*X7992Y49594D01*
X8109Y49694D01*
X8210Y49812D01*
X8291Y49944D01*
X8350Y50087D01*
X8386Y50238D01*
X8391Y50308D01*
X9330D01*
X9331Y50238D01*
X9367Y50087D01*
X9426Y49944D01*
X9507Y49812D01*
X9608Y49694D01*
X9725Y49594D01*
X9857Y49513D01*
X10000Y49454D01*
X10151Y49417D01*
X10306Y49408D01*
X12478Y49413D01*
X13068Y48824D01*
Y44490D01*
X13082Y44255D01*
X13135Y44035D01*
X13138Y41414D01*
X13167Y41293D01*
X13214Y41179D01*
X13279Y41073D01*
X13360Y40978D01*
X13454Y40898D01*
X13560Y40833D01*
X13674Y40786D01*
X13795Y40757D01*
X13918Y40749D01*
X15341Y40757D01*
X15462Y40786D01*
X15576Y40833D01*
X15682Y40898D01*
X15776Y40978D01*
X15848Y41062D01*
X15919Y40978D01*
X16013Y40898D01*
X16119Y40833D01*
X16233Y40786D01*
X16354Y40757D01*
X16478Y40749D01*
X17900Y40757D01*
X18021Y40786D01*
X18135Y40833D01*
X18241Y40898D01*
X18335Y40978D01*
X18406Y41061D01*
X18477Y40978D01*
X18571Y40898D01*
X18677Y40833D01*
X18791Y40786D01*
X18912Y40757D01*
X19036Y40749D01*
X20458Y40757D01*
X20579Y40786D01*
X20693Y40833D01*
X20799Y40898D01*
X20893Y40978D01*
X20964Y41062D01*
X21036Y40978D01*
X21130Y40898D01*
X21236Y40833D01*
X21350Y40786D01*
X21471Y40757D01*
X21594Y40749D01*
X23017Y40757D01*
X23138Y40786D01*
X23252Y40833D01*
X23358Y40898D01*
X23452Y40978D01*
X23533Y41073D01*
X23598Y41179D01*
X23645Y41293D01*
X23674Y41414D01*
X23682Y41537D01*
X23679Y43804D01*
X25196Y45321D01*
X25241Y45359D01*
X25394Y45538D01*
X25394Y45538D01*
X25394Y45538D01*
X25394Y45538D01*
X25438Y45610D01*
X25518Y45740D01*
X25518Y45740D01*
X25518Y45740D01*
X25551Y45820D01*
X25608Y45958D01*
X25608Y45958D01*
X25608Y45958D01*
X25626Y46033D01*
X25663Y46187D01*
X25663Y46187D01*
X25663Y46187D01*
X25663Y46188D01*
X25682Y46423D01*
X25677Y46482D01*
Y49881D01*
X25747Y49882D01*
X25898Y49918D01*
X26041Y49977D01*
X26173Y50058D01*
X26290Y50158D01*
X26391Y50276D01*
X26472Y50408D01*
X26531Y50551D01*
X26567Y50702D01*
X26576Y50856D01*
X26567Y54810D01*
X26531Y54960D01*
X26472Y55104D01*
X26391Y55236D01*
X26290Y55353D01*
X26173Y55454D01*
X26041Y55535D01*
X25910Y55589D01*
Y55847D01*
X25915Y55906D01*
X25896Y56141D01*
X25896Y56141D01*
X25896Y56141D01*
Y56141D01*
X25866Y56267D01*
X25841Y56371D01*
X25841Y56371D01*
X25813Y56440D01*
X31302Y50950D01*
X31310Y45317D01*
X31346Y45167D01*
X31405Y45023D01*
X31486Y44891D01*
X31587Y44774D01*
X31704Y44673D01*
X31836Y44592D01*
X31979Y44533D01*
X32130Y44497D01*
X32285Y44488D01*
X33487Y44488D01*
X21308Y32309D01*
X21267Y32274D01*
X21126Y32109D01*
X21013Y31924D01*
Y31924D01*
X21013Y31924D01*
X20999Y31890D01*
X20930Y31724D01*
X20879Y31513D01*
Y31513D01*
X20862Y31297D01*
X20866Y31243D01*
Y30308D01*
X20799Y30366D01*
X20693Y30431D01*
X20579Y30478D01*
X20458Y30507D01*
X20334Y30514D01*
X18912Y30507D01*
X18791Y30478D01*
X18677Y30431D01*
X18571Y30366D01*
X18477Y30285D01*
X18406Y30203D01*
X18335Y30285D01*
X18241Y30366D01*
X18135Y30431D01*
X18021Y30478D01*
X17900Y30507D01*
X17776Y30514D01*
X16354Y30507D01*
X16233Y30478D01*
X16119Y30431D01*
X16013Y30366D01*
X15919Y30285D01*
X15886Y30247D01*
X15843Y30318D01*
X15785Y30411D01*
X15785Y30411D01*
X15785Y30411D01*
X15632Y30591D01*
X15587Y30629D01*
X14886Y31330D01*
Y36556D01*
X14891Y36615D01*
X14872Y36850D01*
X14817Y37080D01*
X14727Y37298D01*
X14603Y37499D01*
X14450Y37679D01*
X14405Y37717D01*
X10752Y41370D01*
X10748Y42515D01*
X10712Y42665D01*
X10653Y42808D01*
X10572Y42940D01*
X10471Y43058D01*
X10354Y43159D01*
X10222Y43240D01*
X10079Y43299D01*
X9928Y43335D01*
X9774Y43344D01*
X7874Y43340D01*
Y44384D01*
X9928Y44388D01*
X10079Y44425D01*
X10222Y44484D01*
X10354Y44565D01*
X10471Y44665D01*
X10572Y44783D01*
X10653Y44915D01*
X10712Y45058D01*
X10748Y45209D01*
X10758Y45363D01*
X10748Y48349D01*
X10712Y48499D01*
X10653Y48642D01*
X10572Y48774D01*
X10471Y48892D01*
X10354Y48993D01*
X10222Y49074D01*
X10079Y49133D01*
X9928Y49169D01*
X9774Y49178D01*
X7874Y49174D01*
Y49522D01*
G37*
G36*
X4991Y37958D02*X4995Y36644D01*
X4724Y36373D01*
Y49411D01*
X7566Y49417D01*
X7717Y49454D01*
X7860Y49513D01*
X7874Y49522D01*
Y49174D01*
X5820Y49169D01*
X5670Y49133D01*
X5526Y49074D01*
X5394Y48993D01*
X5277Y48892D01*
X5176Y48774D01*
X5095Y48642D01*
X5036Y48499D01*
X5000Y48349D01*
X4991Y48194D01*
X5000Y45209D01*
X5036Y45058D01*
X5095Y44915D01*
X5176Y44783D01*
X5277Y44665D01*
X5394Y44565D01*
X5526Y44484D01*
X5670Y44425D01*
X5820Y44388D01*
X5975Y44379D01*
X7874Y44384D01*
Y43340D01*
X5820Y43335D01*
X5670Y43299D01*
X5526Y43240D01*
X5394Y43159D01*
X5277Y43058D01*
X5176Y42940D01*
X5095Y42808D01*
X5036Y42665D01*
X5000Y42515D01*
X4991Y42360D01*
X5000Y39375D01*
X5036Y39224D01*
X5095Y39081D01*
X5176Y38949D01*
X5277Y38831D01*
X5379Y38744D01*
X5277Y38656D01*
X5176Y38539D01*
X5095Y38407D01*
X5036Y38263D01*
X5000Y38113D01*
X4991Y37958D01*
G37*
G36*
X22836Y95951D02*X22986Y95589D01*
X23356Y94985D01*
X23816Y94446D01*
X24355Y93986D01*
X24959Y93616D01*
X25613Y93345D01*
X26302Y93179D01*
X27008Y93124D01*
X27714Y93179D01*
X28403Y93345D01*
X29057Y93616D01*
X29234Y93724D01*
X29144Y93349D01*
X29110Y92914D01*
X29144Y92479D01*
X29246Y92055D01*
X29413Y91652D01*
X29641Y91280D01*
X29924Y90948D01*
X30256Y90665D01*
X30628Y90437D01*
X31031Y90270D01*
X31315Y90202D01*
X31275Y90156D01*
X31193Y90021D01*
X31133Y89876D01*
X31096Y89723D01*
X31087Y89566D01*
X31096Y78781D01*
X31133Y78628D01*
X31193Y78483D01*
X31275Y78348D01*
X31378Y78229D01*
X31497Y78126D01*
X31632Y78044D01*
X31777Y77984D01*
X31930Y77947D01*
X32087Y77938D01*
X32396Y77939D01*
Y74677D01*
X32280Y74677D01*
X32050Y74622D01*
X31832Y74532D01*
X31631Y74408D01*
X31451Y74255D01*
X31298Y74075D01*
X31174Y73874D01*
X31084Y73656D01*
X31029Y73426D01*
X31015Y73191D01*
X31025Y70122D01*
X30120Y69217D01*
X29615D01*
X29601Y73426D01*
X29546Y73656D01*
X29456Y73874D01*
X29332Y74075D01*
X29179Y74255D01*
X28999Y74408D01*
X28798Y74532D01*
X28580Y74622D01*
X28350Y74677D01*
X28115Y74691D01*
X24480Y74677D01*
X24250Y74622D01*
X24032Y74532D01*
X23831Y74408D01*
X23651Y74255D01*
X23498Y74075D01*
X23374Y73874D01*
X23303Y73701D01*
X22836Y74167D01*
Y77942D01*
X25552Y77947D01*
X25705Y77984D01*
X25850Y78044D01*
X25985Y78126D01*
X26104Y78229D01*
X26207Y78348D01*
X26289Y78483D01*
X26349Y78628D01*
X26386Y78781D01*
X26395Y78938D01*
X26386Y89723D01*
X26349Y89876D01*
X26289Y90021D01*
X26207Y90156D01*
X26104Y90275D01*
X25985Y90377D01*
X25850Y90460D01*
X25705Y90520D01*
X25552Y90557D01*
X25395Y90566D01*
X22836Y90561D01*
Y95951D01*
G37*
G36*
X37010Y100591D02*X37520D01*
X37583Y100582D01*
X37863Y100513D01*
X38136Y100418D01*
X38247Y100380D01*
X38364Y100362D01*
X38482Y100363D01*
X38599Y100383D01*
X38711Y100420D01*
X38815Y100474D01*
X38874Y100517D01*
X39885Y99506D01*
X39841Y99447D01*
X39787Y99342D01*
X39749Y99229D01*
X39730Y99112D01*
X39729Y98994D01*
X39747Y98876D01*
X39785Y98764D01*
X39884Y98493D01*
X39952Y98212D01*
X39994Y97926D01*
X40008Y97638D01*
X39994Y97349D01*
X39952Y97063D01*
X39884Y96783D01*
X39788Y96510D01*
X39750Y96398D01*
X39733Y96282D01*
X39733Y96164D01*
X39753Y96047D01*
X39790Y95935D01*
X39844Y95830D01*
X39914Y95735D01*
X39999Y95652D01*
X40095Y95584D01*
X40200Y95531D01*
X40313Y95495D01*
X40429Y95478D01*
X40547Y95479D01*
X40664Y95498D01*
X40776Y95535D01*
X40881Y95590D01*
X40976Y95660D01*
X41059Y95744D01*
X41127Y95840D01*
X41178Y95946D01*
X41326Y96354D01*
X41430Y96775D01*
X41492Y97204D01*
X41513Y97638D01*
X41501Y97890D01*
X43898Y95492D01*
Y90595D01*
X43642Y90438D01*
X43310Y90155D01*
X43027Y89823D01*
X42799Y89451D01*
X42632Y89048D01*
X42530Y88624D01*
X42496Y88189D01*
X42530Y87754D01*
X42632Y87330D01*
X42799Y86927D01*
X43027Y86555D01*
X43310Y86223D01*
X43642Y85940D01*
X44014Y85712D01*
X44417Y85545D01*
X44841Y85443D01*
X45276Y85409D01*
X45469Y85424D01*
X45472Y85380D01*
Y78883D01*
X45326Y79008D01*
X44956Y79235D01*
X44555Y79401D01*
X44133Y79502D01*
X43701Y79536D01*
X43269Y79502D01*
X42847Y79401D01*
X42446Y79235D01*
X42076Y79008D01*
X41747Y78726D01*
X41465Y78397D01*
X41238Y78027D01*
X41072Y77626D01*
X40971Y77204D01*
X40937Y76772D01*
X40971Y76340D01*
X41072Y75918D01*
X41238Y75517D01*
X41465Y75147D01*
X41747Y74818D01*
X42076Y74536D01*
X42201Y74460D01*
Y60689D01*
X42196Y60630D01*
X42200Y60588D01*
X37010Y65778D01*
Y68163D01*
X37132Y68307D01*
X37256Y68508D01*
X37346Y68726D01*
X37401Y68956D01*
X37415Y69191D01*
X37401Y73426D01*
X37346Y73656D01*
X37256Y73874D01*
X37132Y74075D01*
X37010Y74219D01*
Y77947D01*
X37362Y77947D01*
X37515Y77984D01*
X37660Y78044D01*
X37795Y78126D01*
X37914Y78229D01*
X38017Y78348D01*
X38099Y78483D01*
X38159Y78628D01*
X38196Y78781D01*
X38205Y78938D01*
X38196Y89723D01*
X38159Y89876D01*
X38099Y90021D01*
X38017Y90156D01*
X37914Y90275D01*
X37795Y90377D01*
X37660Y90460D01*
X37515Y90520D01*
X37362Y90557D01*
X37205Y90566D01*
X37010Y90566D01*
Y93133D01*
X37441Y93153D01*
X37871Y93216D01*
X38292Y93319D01*
X38702Y93463D01*
X38808Y93516D01*
X38904Y93585D01*
X38989Y93668D01*
X39059Y93763D01*
X39114Y93869D01*
X39151Y93981D01*
X39171Y94098D01*
X39172Y94217D01*
X39154Y94334D01*
X39118Y94447D01*
X39065Y94553D01*
X38996Y94650D01*
X38913Y94734D01*
X38817Y94804D01*
X38712Y94859D01*
X38600Y94896D01*
X38483Y94916D01*
X38364Y94917D01*
X38247Y94899D01*
X38134Y94861D01*
X37863Y94762D01*
X37583Y94693D01*
X37297Y94652D01*
X37010Y94638D01*
Y100591D01*
G37*
G36*
Y74219D02*X36979Y74255D01*
X36896Y74326D01*
Y77946D01*
X37010Y77947D01*
Y74219D01*
G37*
G36*
Y65778D02*X36298Y66490D01*
X36241Y66557D01*
X35972Y66787D01*
X35972Y66787D01*
X35842Y66866D01*
X35670Y66972D01*
X35670Y66972D01*
X35490Y67047D01*
X35342Y67107D01*
X35342Y67107D01*
X35342Y67108D01*
X35254Y67129D01*
X34998Y67190D01*
X34998D01*
X34998Y67190D01*
X34998Y67190D01*
X34645Y67218D01*
X34557Y67211D01*
X32356D01*
X32838Y67692D01*
X36150Y67705D01*
X36380Y67760D01*
X36598Y67850D01*
X36799Y67974D01*
X36979Y68127D01*
X37010Y68163D01*
Y65778D01*
G37*
G36*
X33395Y102059D02*X34421Y101033D01*
X34456Y100992D01*
X34621Y100851D01*
X34621Y100851D01*
X34621Y100851D01*
X34679Y100815D01*
X34806Y100738D01*
X34806Y100738D01*
X34806Y100738D01*
X34889Y100703D01*
X34997Y100659D01*
X35020Y100626D01*
X35103Y100542D01*
X35199Y100471D01*
X35304Y100417D01*
X35416Y100379D01*
X35533Y100360D01*
X35652Y100359D01*
X35769Y100377D01*
X35882Y100415D01*
X36153Y100513D01*
X36433Y100582D01*
X36496Y100591D01*
X37010D01*
Y94638D01*
X37008Y94638D01*
X36719Y94652D01*
X36433Y94693D01*
X36153Y94762D01*
X35880Y94858D01*
X35769Y94896D01*
X35652Y94913D01*
X35534Y94912D01*
X35417Y94893D01*
X35305Y94856D01*
X35201Y94801D01*
X35106Y94731D01*
X35023Y94647D01*
X34954Y94551D01*
X34901Y94446D01*
X34865Y94333D01*
X34848Y94216D01*
X34849Y94098D01*
X34868Y93982D01*
X34905Y93870D01*
X34960Y93765D01*
X35030Y93670D01*
X35114Y93587D01*
X35210Y93519D01*
X35316Y93468D01*
X35724Y93319D01*
X36145Y93216D01*
X36575Y93153D01*
X37008Y93133D01*
X37010Y93133D01*
Y90566D01*
X36862Y90565D01*
X36832Y90689D01*
X36792Y90855D01*
X36792Y90855D01*
X36792Y90855D01*
X36728Y91010D01*
X36657Y91183D01*
X36657Y91183D01*
X36657Y91183D01*
X36562Y91338D01*
X36472Y91484D01*
X36472Y91484D01*
X36472Y91485D01*
X36472Y91485D01*
X36242Y91754D01*
X36175Y91811D01*
X34635Y93350D01*
X34534Y93773D01*
X34367Y94176D01*
X34139Y94548D01*
X33856Y94880D01*
X33524Y95163D01*
X33395Y95242D01*
Y95487D01*
X33468Y95475D01*
X33587Y95474D01*
X33704Y95492D01*
X33817Y95528D01*
X33923Y95581D01*
X34020Y95650D01*
X34104Y95733D01*
X34175Y95828D01*
X34229Y95934D01*
X34267Y96046D01*
X34286Y96163D01*
X34287Y96282D01*
X34269Y96399D01*
X34231Y96511D01*
X34132Y96783D01*
X34064Y97063D01*
X34022Y97349D01*
X34008Y97638D01*
X34022Y97926D01*
X34064Y98212D01*
X34132Y98493D01*
X34228Y98766D01*
X34266Y98877D01*
X34283Y98994D01*
X34283Y99112D01*
X34263Y99228D01*
X34226Y99340D01*
X34172Y99445D01*
X34102Y99540D01*
X34017Y99623D01*
X33921Y99692D01*
X33816Y99745D01*
X33703Y99780D01*
X33587Y99798D01*
X33469Y99797D01*
X33395Y99785D01*
Y102059D01*
G37*
G36*
X22836Y101518D02*X24666Y103347D01*
X32106D01*
X33395Y102059D01*
Y99785D01*
X33352Y99778D01*
X33240Y99740D01*
X33135Y99686D01*
X33040Y99616D01*
X32957Y99532D01*
X32889Y99436D01*
X32838Y99329D01*
X32690Y98922D01*
X32586Y98501D01*
X32524Y98071D01*
X32503Y97638D01*
X32524Y97204D01*
X32586Y96775D01*
X32690Y96354D01*
X32833Y95944D01*
X32886Y95838D01*
X32955Y95741D01*
X33038Y95657D01*
X33133Y95587D01*
X33239Y95532D01*
X33351Y95494D01*
X33395Y95487D01*
Y95242D01*
X33152Y95391D01*
X32749Y95558D01*
X32325Y95660D01*
X31890Y95694D01*
X31455Y95660D01*
X31031Y95558D01*
X31004Y95547D01*
X31030Y95589D01*
X31301Y96243D01*
X31466Y96932D01*
X31508Y97638D01*
X31466Y98344D01*
X31301Y99033D01*
X31030Y99687D01*
X30660Y100291D01*
X30200Y100830D01*
X29661Y101290D01*
X29057Y101660D01*
X28403Y101931D01*
X27714Y102096D01*
X27008Y102152D01*
X26302Y102096D01*
X25613Y101931D01*
X24959Y101660D01*
X24355Y101290D01*
X23816Y100830D01*
X23356Y100291D01*
X22986Y99687D01*
X22836Y99325D01*
Y101518D01*
G37*
G36*
Y107154D02*X22915Y107173D01*
X23322Y107342D01*
X23698Y107572D01*
X24033Y107858D01*
X24319Y108193D01*
X24411Y108344D01*
X30087Y108343D01*
X32327Y106102D01*
X24149D01*
X24095Y106107D01*
X23879Y106090D01*
X23668Y106039D01*
X23468Y105956D01*
X23283Y105843D01*
X23118Y105702D01*
X23083Y105661D01*
X22836Y105414D01*
Y107154D01*
G37*
G36*
X13288Y92438D02*X7008Y92430D01*
Y93144D01*
X10243Y93152D01*
X10473Y93207D01*
X10691Y93297D01*
X10892Y93421D01*
X11072Y93574D01*
X11225Y93753D01*
X11349Y93955D01*
X11439Y94173D01*
X11494Y94402D01*
X11508Y94638D01*
X11494Y100873D01*
X11439Y101103D01*
X11349Y101321D01*
X11225Y101522D01*
X11072Y101702D01*
X10892Y101855D01*
X10691Y101978D01*
X10473Y102069D01*
X10243Y102124D01*
X10008Y102138D01*
X7008Y102131D01*
Y107950D01*
X12226D01*
X12285Y107945D01*
X12520Y107964D01*
X12750Y108019D01*
X12968Y108109D01*
X13169Y108233D01*
X13349Y108386D01*
X13387Y108431D01*
X15065Y110109D01*
X15614Y109881D01*
X16303Y109716D01*
X17009Y109660D01*
X17715Y109716D01*
X18404Y109881D01*
X19058Y110152D01*
X19273Y110284D01*
X19273Y110283D01*
X19238Y109844D01*
X19273Y109405D01*
X19376Y108976D01*
X19544Y108569D01*
X19775Y108193D01*
X20061Y107858D01*
X20396Y107572D01*
X20772Y107342D01*
X21179Y107173D01*
X21608Y107070D01*
X22047Y107035D01*
X22486Y107070D01*
X22836Y107154D01*
Y105414D01*
X19072Y101650D01*
X19057Y101660D01*
X18403Y101931D01*
X17714Y102096D01*
X17008Y102152D01*
X16302Y102096D01*
X15613Y101931D01*
X14959Y101660D01*
X14355Y101290D01*
X13816Y100830D01*
X13356Y100291D01*
X12986Y99687D01*
X12715Y99033D01*
X12550Y98344D01*
X12494Y97638D01*
X12550Y96932D01*
X12715Y96243D01*
X12986Y95589D01*
X13356Y94985D01*
X13816Y94446D01*
X14355Y93986D01*
X14959Y93616D01*
X15613Y93345D01*
X16302Y93179D01*
X17008Y93124D01*
X17714Y93179D01*
X18403Y93345D01*
X19057Y93616D01*
X19661Y93986D01*
X20200Y94446D01*
X20660Y94985D01*
X21030Y95589D01*
X21301Y96243D01*
X21466Y96932D01*
X21508Y97638D01*
X21466Y98344D01*
X21301Y99033D01*
X21030Y99687D01*
X21021Y99702D01*
X22836Y101518D01*
Y99325D01*
X22715Y99033D01*
X22550Y98344D01*
X22494Y97638D01*
X22550Y96932D01*
X22715Y96243D01*
X22836Y95951D01*
Y90561D01*
X20120Y90557D01*
X19967Y90520D01*
X19822Y90460D01*
X19687Y90377D01*
X19568Y90275D01*
X19465Y90156D01*
X19383Y90021D01*
X19323Y89876D01*
X19286Y89723D01*
X19277Y89566D01*
X19286Y78781D01*
X19323Y78628D01*
X19383Y78483D01*
X19465Y78348D01*
X19568Y78229D01*
X19687Y78126D01*
X19822Y78044D01*
X19967Y77984D01*
X20120Y77947D01*
X20277Y77938D01*
X22836Y77942D01*
Y74167D01*
X17243Y79760D01*
X17205Y79805D01*
X17025Y79958D01*
X17025Y79958D01*
X17025Y79958D01*
X17025Y79958D01*
X16824Y80082D01*
X16683Y80140D01*
X16606Y80172D01*
X16606D01*
X16606Y80172D01*
X16376Y80227D01*
X16376Y80227D01*
X16141Y80246D01*
X16082Y80241D01*
X13933D01*
X13997Y80296D01*
X14100Y80415D01*
X14182Y80550D01*
X14242Y80695D01*
X14279Y80848D01*
X14288Y81005D01*
X14279Y91595D01*
X14242Y91748D01*
X14182Y91893D01*
X14100Y92028D01*
X13997Y92147D01*
X13878Y92250D01*
X13743Y92332D01*
X13598Y92392D01*
X13445Y92429D01*
X13288Y92438D01*
G37*
G36*
X7008Y92430D02*X6241Y92429D01*
X6088Y92392D01*
X5943Y92332D01*
X5808Y92250D01*
X5689Y92147D01*
X5586Y92028D01*
X5504Y91893D01*
X5444Y91748D01*
X5407Y91595D01*
X5398Y91438D01*
X5407Y80848D01*
X5444Y80695D01*
X5504Y80550D01*
X5586Y80415D01*
X5689Y80296D01*
X5753Y80241D01*
X4783D01*
X4724Y80246D01*
X4489Y80227D01*
X4489Y80227D01*
X4489D01*
X4381Y80201D01*
X4259Y80172D01*
X4259Y80172D01*
X4259Y80172D01*
X4226Y80158D01*
X4041Y80082D01*
X4041Y80082D01*
X4041Y80082D01*
X3948Y80024D01*
X3840Y79958D01*
X3840Y79958D01*
X3840Y79958D01*
X3660Y79805D01*
X3622Y79760D01*
X556Y76694D01*
X511Y76656D01*
X358Y76477D01*
X234Y76275D01*
X155Y76085D01*
X144Y76057D01*
Y76057D01*
X144Y76057D01*
X89Y75828D01*
X89Y75827D01*
X70Y75592D01*
X75Y75533D01*
Y59449D01*
X0D01*
Y118111D01*
X862D01*
Y109509D01*
X857Y109450D01*
X876Y109215D01*
X931Y108985D01*
X1021Y108767D01*
X1145Y108566D01*
X1298Y108386D01*
X1478Y108233D01*
X1679Y108109D01*
X1897Y108019D01*
X2127Y107964D01*
X2362Y107945D01*
X2421Y107950D01*
X7008D01*
Y102131D01*
X3773Y102124D01*
X3543Y102069D01*
X3325Y101978D01*
X3124Y101855D01*
X2944Y101702D01*
X2791Y101522D01*
X2667Y101321D01*
X2577Y101103D01*
X2522Y100873D01*
X2508Y100638D01*
X2522Y94402D01*
X2577Y94173D01*
X2667Y93955D01*
X2791Y93753D01*
X2944Y93574D01*
X3124Y93421D01*
X3325Y93297D01*
X3543Y93207D01*
X3773Y93152D01*
X4008Y93138D01*
X7008Y93144D01*
Y92430D01*
G37*
G36*
X137886Y283465D02*X157480D01*
Y227559D01*
X146006D01*
X146441Y228268D01*
X146785Y229098D01*
X146995Y229972D01*
X147047Y230868D01*
X146995Y231764D01*
X146785Y232637D01*
X146441Y233468D01*
X145971Y234234D01*
X145388Y234917D01*
X144705Y235500D01*
X143939Y235970D01*
X143108Y236314D01*
X142235Y236524D01*
X141339Y236594D01*
X140443Y236524D01*
X139570Y236314D01*
X138739Y235970D01*
X137973Y235500D01*
X137886Y235426D01*
Y241310D01*
X137973Y241235D01*
X138739Y240766D01*
X139570Y240422D01*
X140443Y240212D01*
X141339Y240142D01*
X142235Y240212D01*
X143108Y240422D01*
X143939Y240766D01*
X144705Y241235D01*
X145388Y241819D01*
X145971Y242502D01*
X146441Y243268D01*
X146785Y244098D01*
X146995Y244972D01*
X147047Y245868D01*
X146995Y246764D01*
X146785Y247637D01*
X146441Y248468D01*
X145971Y249234D01*
X145388Y249917D01*
X144705Y250500D01*
X143939Y250970D01*
X143108Y251314D01*
X142235Y251524D01*
X141339Y251594D01*
X140443Y251524D01*
X139570Y251314D01*
X138739Y250970D01*
X137973Y250500D01*
X137886Y250426D01*
Y256310D01*
X137973Y256235D01*
X138739Y255766D01*
X139570Y255422D01*
X140443Y255212D01*
X141339Y255142D01*
X142235Y255212D01*
X143108Y255422D01*
X143939Y255766D01*
X144705Y256235D01*
X145388Y256819D01*
X145971Y257502D01*
X146441Y258268D01*
X146785Y259098D01*
X146995Y259972D01*
X147047Y260868D01*
X146995Y261764D01*
X146785Y262637D01*
X146441Y263468D01*
X145971Y264234D01*
X145388Y264917D01*
X144705Y265500D01*
X143939Y265970D01*
X143108Y266314D01*
X142235Y266524D01*
X141339Y266594D01*
X140443Y266524D01*
X139570Y266314D01*
X138739Y265970D01*
X137973Y265500D01*
X137886Y265426D01*
Y283465D01*
G37*
G36*
X101218Y245480D02*X101654Y245044D01*
X101692Y244999D01*
X101871Y244846D01*
X101871Y244846D01*
X102073Y244722D01*
X102073Y244722D01*
X102174Y244680D01*
X102291Y244632D01*
X102521Y244577D01*
X102521D01*
X102521Y244577D01*
X102521Y244577D01*
X102756Y244558D01*
X102815Y244563D01*
X103940D01*
X103937Y244548D01*
X103923Y244313D01*
X103937Y242578D01*
X103992Y242348D01*
X104082Y242130D01*
X104206Y241929D01*
X104359Y241749D01*
X104538Y241596D01*
X104740Y241472D01*
X104958Y241382D01*
X105187Y241327D01*
X105423Y241313D01*
X107296Y241320D01*
X108690Y239926D01*
X108728Y239881D01*
X108908Y239728D01*
X108908Y239728D01*
X108908Y239728D01*
X108971Y239689D01*
X103543D01*
X103308Y239675D01*
X103078Y239620D01*
X102860Y239530D01*
X102659Y239406D01*
X102479Y239253D01*
X102326Y239073D01*
X102202Y238872D01*
X102149Y238743D01*
X101218Y237812D01*
Y245480D01*
G37*
G36*
Y261614D02*X101482D01*
X102004Y261663D01*
X102520Y261758D01*
X103025Y261901D01*
X103453Y262066D01*
X103152Y261809D01*
X102869Y261477D01*
X102641Y261105D01*
X102474Y260702D01*
X102372Y260278D01*
X102338Y259843D01*
X102372Y259408D01*
X102474Y258984D01*
X102641Y258581D01*
X102869Y258209D01*
X103152Y257877D01*
X103484Y257594D01*
X103791Y257406D01*
X103602D01*
X103543Y257411D01*
X103308Y257392D01*
X103078Y257337D01*
X102860Y257247D01*
X102659Y257123D01*
X102658Y257123D01*
X102479Y256970D01*
X102441Y256925D01*
X101218Y255702D01*
Y261614D01*
G37*
G36*
Y283465D02*X137886D01*
Y265426D01*
X137290Y264917D01*
X136706Y264234D01*
X136237Y263468D01*
X135893Y262637D01*
X135836Y262400D01*
X135833Y266495D01*
X135796Y266648D01*
X135736Y266793D01*
X135653Y266928D01*
X135551Y267047D01*
X135432Y267149D01*
X135297Y267232D01*
X135152Y267292D01*
X134999Y267329D01*
X134842Y267338D01*
X129567Y267329D01*
X129414Y267292D01*
X129269Y267232D01*
X129134Y267149D01*
X129015Y267047D01*
X128912Y266928D01*
X128830Y266793D01*
X128770Y266648D01*
X128733Y266495D01*
X128724Y266338D01*
X128733Y255553D01*
X128770Y255400D01*
X128830Y255255D01*
X128912Y255120D01*
X129015Y255001D01*
X129134Y254898D01*
X129269Y254816D01*
X129414Y254756D01*
X129567Y254719D01*
X129724Y254710D01*
X134999Y254719D01*
X135152Y254756D01*
X135297Y254816D01*
X135432Y254898D01*
X135551Y255001D01*
X135653Y255120D01*
X135736Y255255D01*
X135796Y255400D01*
X135833Y255553D01*
X135842Y255710D01*
X135839Y259325D01*
X135893Y259098D01*
X136237Y258268D01*
X136706Y257502D01*
X137290Y256819D01*
X137886Y256310D01*
Y250426D01*
X137290Y249917D01*
X136706Y249234D01*
X136237Y248468D01*
X135893Y247637D01*
X135836Y247400D01*
X135833Y251534D01*
X135796Y251687D01*
X135736Y251832D01*
X135653Y251967D01*
X135551Y252086D01*
X135432Y252188D01*
X135297Y252271D01*
X135152Y252331D01*
X134999Y252368D01*
X134842Y252377D01*
X129567Y252368D01*
X129414Y252331D01*
X129269Y252271D01*
X129134Y252188D01*
X129015Y252086D01*
X128912Y251967D01*
X128830Y251832D01*
X128770Y251687D01*
X128733Y251534D01*
X128724Y251377D01*
X128733Y240592D01*
X128770Y240439D01*
X128830Y240294D01*
X128912Y240159D01*
X129015Y240040D01*
X129134Y239937D01*
X129269Y239855D01*
X129414Y239795D01*
X129567Y239758D01*
X129724Y239749D01*
X134999Y239758D01*
X135152Y239795D01*
X135297Y239855D01*
X135432Y239937D01*
X135551Y240040D01*
X135653Y240159D01*
X135736Y240294D01*
X135796Y240439D01*
X135833Y240592D01*
X135842Y240749D01*
X135839Y244324D01*
X135893Y244098D01*
X136237Y243268D01*
X136706Y242502D01*
X137290Y241819D01*
X137886Y241310D01*
Y235426D01*
X137290Y234917D01*
X136706Y234234D01*
X136237Y233468D01*
X135893Y232637D01*
X135836Y232399D01*
X135833Y236180D01*
X135796Y236333D01*
X135736Y236478D01*
X135653Y236613D01*
X135551Y236732D01*
X135432Y236835D01*
X135297Y236917D01*
X135152Y236977D01*
X134999Y237014D01*
X134842Y237023D01*
X129567Y237014D01*
X129414Y236977D01*
X129269Y236917D01*
X129134Y236835D01*
X129015Y236732D01*
X128912Y236613D01*
X128830Y236478D01*
X128770Y236333D01*
X128733Y236180D01*
X128724Y236023D01*
X128731Y227559D01*
X128628D01*
Y253937D01*
X128607Y254290D01*
X128524Y254634D01*
X128389Y254962D01*
X128204Y255264D01*
X127974Y255533D01*
X127705Y255763D01*
X127403Y255948D01*
X127075Y256083D01*
X126731Y256166D01*
X126378Y256194D01*
X126025Y256166D01*
X125681Y256083D01*
X125353Y255948D01*
X125051Y255763D01*
X124782Y255533D01*
X124700Y255437D01*
X123995D01*
X124023Y255553D01*
X124032Y255710D01*
X124023Y266495D01*
X123986Y266648D01*
X123926Y266793D01*
X123843Y266928D01*
X123741Y267047D01*
X123622Y267149D01*
X123487Y267232D01*
X123342Y267292D01*
X123189Y267329D01*
X123032Y267338D01*
X121972Y267336D01*
Y272776D01*
X121977Y272835D01*
X121958Y273070D01*
X121903Y273300D01*
X121813Y273518D01*
X121689Y273719D01*
X121536Y273899D01*
X121491Y273937D01*
X117637Y277791D01*
X117599Y277836D01*
X117419Y277989D01*
X117218Y278113D01*
X117000Y278203D01*
X116770Y278258D01*
X116535Y278277D01*
X116476Y278272D01*
X108720D01*
X108661Y278277D01*
X108426Y278258D01*
X108196Y278203D01*
X107978Y278113D01*
X107777Y277989D01*
X107777Y277989D01*
X107597Y277836D01*
X107559Y277791D01*
X106461Y276693D01*
X106416Y276655D01*
X106263Y276475D01*
X106139Y276274D01*
X106049Y276056D01*
X105994Y275826D01*
X105994Y275826D01*
X105975Y275591D01*
X105980Y275532D01*
Y270480D01*
X105947Y270534D01*
X105898Y270596D01*
X105840Y270648D01*
X105775Y270691D01*
X105704Y270723D01*
X105628Y270744D01*
X105551Y270753D01*
X105472Y270749D01*
X105396Y270733D01*
X105323Y270706D01*
X105255Y270667D01*
X105194Y270618D01*
X105141Y270560D01*
X105098Y270495D01*
X105066Y270423D01*
X105045Y270348D01*
X105037Y270270D01*
X105040Y270192D01*
X105056Y270115D01*
X105084Y270042D01*
X105124Y269975D01*
X105355Y269609D01*
X105547Y269220D01*
X105703Y268815D01*
X105821Y268398D01*
X105900Y267972D01*
X105940Y267540D01*
Y267106D01*
X105900Y266674D01*
X105821Y266248D01*
X105703Y265831D01*
X105547Y265426D01*
X105355Y265037D01*
X105128Y264668D01*
X105088Y264602D01*
X105061Y264529D01*
X105045Y264453D01*
X105042Y264376D01*
X105050Y264299D01*
X105071Y264224D01*
X105102Y264154D01*
X105145Y264089D01*
X105197Y264032D01*
X105258Y263983D01*
X105325Y263945D01*
X105397Y263918D01*
X105473Y263902D01*
X105550Y263898D01*
X105627Y263907D01*
X105702Y263927D01*
X105773Y263959D01*
X105837Y264002D01*
X105895Y264054D01*
X105942Y264115D01*
X106221Y264558D01*
X106332Y264782D01*
X106416Y264684D01*
X106461Y264646D01*
X107532Y263574D01*
X107513Y263542D01*
X107422Y263324D01*
X107367Y263094D01*
X107353Y262859D01*
X107358Y261488D01*
X107084Y261809D01*
X106752Y262092D01*
X106380Y262320D01*
X105977Y262487D01*
X105553Y262589D01*
X105118Y262623D01*
X104683Y262589D01*
X104259Y262487D01*
X104242Y262480D01*
X104431Y262596D01*
X104493Y262645D01*
X104545Y262702D01*
X104588Y262768D01*
X104621Y262839D01*
X104641Y262915D01*
X104650Y262992D01*
X104646Y263071D01*
X104630Y263147D01*
X104603Y263220D01*
X104564Y263288D01*
X104515Y263349D01*
X104457Y263402D01*
X104392Y263445D01*
X104320Y263477D01*
X104245Y263498D01*
X104167Y263506D01*
X104089Y263503D01*
X104012Y263487D01*
X103939Y263459D01*
X103872Y263419D01*
X103506Y263188D01*
X103117Y262996D01*
X102712Y262840D01*
X102295Y262722D01*
X101869Y262643D01*
X101437Y262603D01*
X101218D01*
Y272042D01*
X101437D01*
X101869Y272003D01*
X102295Y271924D01*
X102712Y271806D01*
X103117Y271650D01*
X103506Y271458D01*
X103875Y271231D01*
X103941Y271191D01*
X104014Y271164D01*
X104090Y271148D01*
X104167Y271145D01*
X104244Y271153D01*
X104319Y271174D01*
X104389Y271205D01*
X104454Y271248D01*
X104511Y271300D01*
X104560Y271360D01*
X104598Y271428D01*
X104625Y271500D01*
X104641Y271576D01*
X104645Y271653D01*
X104636Y271730D01*
X104616Y271805D01*
X104584Y271876D01*
X104541Y271940D01*
X104489Y271998D01*
X104428Y272045D01*
X103984Y272324D01*
X103514Y272557D01*
X103025Y272745D01*
X102520Y272888D01*
X102004Y272983D01*
X101482Y273031D01*
X101218D01*
Y283465D01*
G37*
G36*
X96457D02*X101218D01*
Y273031D01*
X100958D01*
X100436Y272983D01*
X99920Y272888D01*
X99415Y272745D01*
X98926Y272557D01*
X98455Y272324D01*
X98009Y272050D01*
X97947Y272001D01*
X97895Y271943D01*
X97852Y271878D01*
X97819Y271807D01*
X97799Y271731D01*
X97790Y271654D01*
X97794Y271575D01*
X97810Y271499D01*
X97837Y271426D01*
X97876Y271358D01*
X97925Y271297D01*
X97983Y271244D01*
X98048Y271201D01*
X98120Y271169D01*
X98195Y271148D01*
X98273Y271140D01*
X98351Y271143D01*
X98427Y271159D01*
X98501Y271187D01*
X98568Y271227D01*
X98934Y271458D01*
X99323Y271650D01*
X99728Y271806D01*
X100145Y271924D01*
X100571Y272003D01*
X101003Y272042D01*
X101218D01*
Y262603D01*
X101003D01*
X100571Y262643D01*
X100145Y262722D01*
X99728Y262840D01*
X99323Y262996D01*
X98934Y263188D01*
X98565Y263415D01*
X98499Y263455D01*
X98426Y263482D01*
X98350Y263498D01*
X98273Y263501D01*
X98196Y263493D01*
X98121Y263472D01*
X98051Y263441D01*
X97986Y263398D01*
X97929Y263346D01*
X97880Y263285D01*
X97842Y263218D01*
X97815Y263146D01*
X97799Y263070D01*
X97795Y262993D01*
X97804Y262916D01*
X97824Y262841D01*
X97856Y262770D01*
X97899Y262706D01*
X97951Y262648D01*
X98012Y262601D01*
X98455Y262322D01*
X98926Y262089D01*
X99415Y261901D01*
X99920Y261758D01*
X100436Y261663D01*
X100958Y261614D01*
X101218D01*
Y255702D01*
X100950Y255434D01*
X100905Y255396D01*
X100752Y255216D01*
X100628Y255015D01*
X100538Y254797D01*
X100483Y254567D01*
X100483Y254567D01*
X100464Y254332D01*
X100469Y254273D01*
Y251557D01*
X100435Y251565D01*
X100000Y251599D01*
X99565Y251565D01*
X99141Y251463D01*
X98738Y251296D01*
X98366Y251068D01*
X98034Y250785D01*
X97751Y250453D01*
X97523Y250081D01*
X97356Y249678D01*
X97254Y249254D01*
X97220Y248819D01*
X97254Y248384D01*
X97356Y247960D01*
X97523Y247557D01*
X97751Y247185D01*
X98034Y246853D01*
X98366Y246570D01*
X98738Y246342D01*
X99141Y246175D01*
X99565Y246073D01*
X100000Y246039D01*
X100435Y246073D01*
X100588Y246110D01*
X101218Y245480D01*
Y237812D01*
X96457Y233052D01*
Y264170D01*
X96493Y264112D01*
X96542Y264050D01*
X96600Y263998D01*
X96665Y263955D01*
X96736Y263922D01*
X96812Y263902D01*
X96889Y263893D01*
X96968Y263897D01*
X97044Y263913D01*
X97117Y263940D01*
X97185Y263979D01*
X97246Y264028D01*
X97299Y264086D01*
X97342Y264151D01*
X97374Y264223D01*
X97395Y264298D01*
X97403Y264376D01*
X97400Y264454D01*
X97384Y264530D01*
X97356Y264604D01*
X97316Y264671D01*
X97085Y265037D01*
X96893Y265426D01*
X96737Y265831D01*
X96619Y266248D01*
X96540Y266674D01*
X96500Y267106D01*
Y267540D01*
X96540Y267972D01*
X96619Y268398D01*
X96737Y268815D01*
X96893Y269220D01*
X97085Y269609D01*
X97312Y269978D01*
X97352Y270044D01*
X97379Y270117D01*
X97395Y270193D01*
X97398Y270270D01*
X97390Y270347D01*
X97369Y270422D01*
X97338Y270492D01*
X97295Y270557D01*
X97243Y270614D01*
X97182Y270663D01*
X97115Y270701D01*
X97043Y270728D01*
X96967Y270744D01*
X96890Y270748D01*
X96813Y270739D01*
X96738Y270719D01*
X96667Y270687D01*
X96603Y270644D01*
X96545Y270592D01*
X96498Y270531D01*
X96457Y270466D01*
Y283465D01*
G37*
G36*
X90983D02*X96457D01*
Y270466D01*
X96219Y270087D01*
X95986Y269617D01*
X95798Y269128D01*
X95655Y268623D01*
X95560Y268107D01*
X95512Y267585D01*
Y267061D01*
X95560Y266538D01*
X95655Y266023D01*
X95798Y265518D01*
X95986Y265029D01*
X96219Y264558D01*
X96457Y264170D01*
Y233052D01*
X95472Y232066D01*
Y248372D01*
X95476Y248426D01*
X95459Y248642D01*
X95408Y248853D01*
X95325Y249053D01*
X95212Y249238D01*
X95071Y249403D01*
X95030Y249438D01*
X90983Y253485D01*
Y264180D01*
X91221Y264558D01*
X91454Y265029D01*
X91642Y265518D01*
X91785Y266023D01*
X91880Y266538D01*
X91928Y267061D01*
Y267585D01*
X91880Y268107D01*
X91785Y268623D01*
X91642Y269128D01*
X91454Y269617D01*
X91221Y270087D01*
X90983Y270476D01*
Y283465D01*
G37*
G36*
X86222D02*X90983D01*
Y270476D01*
X90947Y270534D01*
X90898Y270596D01*
X90840Y270648D01*
X90775Y270691D01*
X90704Y270723D01*
X90628Y270744D01*
X90551Y270753D01*
X90472Y270749D01*
X90396Y270733D01*
X90323Y270706D01*
X90255Y270667D01*
X90194Y270618D01*
X90141Y270560D01*
X90098Y270495D01*
X90066Y270423D01*
X90045Y270348D01*
X90037Y270270D01*
X90040Y270192D01*
X90056Y270115D01*
X90084Y270042D01*
X90124Y269975D01*
X90355Y269609D01*
X90547Y269220D01*
X90703Y268815D01*
X90821Y268398D01*
X90900Y267972D01*
X90940Y267540D01*
Y267106D01*
X90900Y266674D01*
X90821Y266248D01*
X90703Y265831D01*
X90547Y265426D01*
X90355Y265037D01*
X90128Y264668D01*
X90088Y264602D01*
X90061Y264529D01*
X90045Y264453D01*
X90042Y264376D01*
X90050Y264299D01*
X90071Y264224D01*
X90102Y264154D01*
X90145Y264089D01*
X90197Y264032D01*
X90258Y263983D01*
X90325Y263945D01*
X90397Y263918D01*
X90473Y263902D01*
X90550Y263898D01*
X90627Y263907D01*
X90702Y263927D01*
X90773Y263959D01*
X90837Y264002D01*
X90895Y264054D01*
X90942Y264115D01*
X90983Y264180D01*
Y253485D01*
X86839Y257629D01*
X86804Y257670D01*
X86639Y257811D01*
X86454Y257924D01*
X86254Y258007D01*
X86222Y258015D01*
Y261614D01*
X86482D01*
X87004Y261663D01*
X87520Y261758D01*
X88025Y261901D01*
X88514Y262089D01*
X88984Y262322D01*
X89431Y262596D01*
X89493Y262645D01*
X89545Y262702D01*
X89588Y262768D01*
X89621Y262839D01*
X89641Y262915D01*
X89650Y262992D01*
X89646Y263071D01*
X89630Y263147D01*
X89603Y263220D01*
X89564Y263288D01*
X89515Y263349D01*
X89457Y263402D01*
X89392Y263445D01*
X89320Y263477D01*
X89245Y263498D01*
X89167Y263506D01*
X89089Y263503D01*
X89012Y263487D01*
X88939Y263459D01*
X88872Y263419D01*
X88506Y263188D01*
X88117Y262996D01*
X87712Y262840D01*
X87295Y262722D01*
X86869Y262643D01*
X86437Y262603D01*
X86222D01*
Y272042D01*
X86437D01*
X86869Y272003D01*
X87295Y271924D01*
X87712Y271806D01*
X88117Y271650D01*
X88506Y271458D01*
X88875Y271231D01*
X88941Y271191D01*
X89014Y271164D01*
X89090Y271148D01*
X89167Y271145D01*
X89244Y271153D01*
X89319Y271174D01*
X89389Y271205D01*
X89454Y271248D01*
X89511Y271300D01*
X89560Y271360D01*
X89598Y271428D01*
X89625Y271500D01*
X89641Y271576D01*
X89645Y271653D01*
X89636Y271730D01*
X89616Y271805D01*
X89584Y271876D01*
X89541Y271940D01*
X89489Y271998D01*
X89428Y272045D01*
X88984Y272324D01*
X88514Y272557D01*
X88025Y272745D01*
X87520Y272888D01*
X87004Y272983D01*
X86482Y273031D01*
X86222D01*
Y283465D01*
G37*
G36*
X81457D02*X86222D01*
Y273031D01*
X85958D01*
X85436Y272983D01*
X84920Y272888D01*
X84415Y272745D01*
X83926Y272557D01*
X83455Y272324D01*
X83009Y272050D01*
X82947Y272001D01*
X82895Y271943D01*
X82852Y271878D01*
X82819Y271807D01*
X82799Y271731D01*
X82790Y271654D01*
X82794Y271575D01*
X82810Y271499D01*
X82837Y271426D01*
X82876Y271358D01*
X82925Y271297D01*
X82983Y271244D01*
X83048Y271201D01*
X83120Y271169D01*
X83195Y271148D01*
X83273Y271140D01*
X83351Y271143D01*
X83427Y271159D01*
X83501Y271187D01*
X83568Y271227D01*
X83934Y271458D01*
X84323Y271650D01*
X84728Y271806D01*
X85145Y271924D01*
X85571Y272003D01*
X86003Y272042D01*
X86222D01*
Y262603D01*
X86003D01*
X85571Y262643D01*
X85145Y262722D01*
X84728Y262840D01*
X84323Y262996D01*
X83934Y263188D01*
X83565Y263415D01*
X83499Y263455D01*
X83426Y263482D01*
X83350Y263498D01*
X83273Y263501D01*
X83196Y263493D01*
X83121Y263472D01*
X83051Y263441D01*
X82986Y263398D01*
X82929Y263346D01*
X82880Y263285D01*
X82842Y263218D01*
X82815Y263146D01*
X82799Y263070D01*
X82795Y262993D01*
X82804Y262916D01*
X82824Y262841D01*
X82856Y262770D01*
X82899Y262706D01*
X82951Y262648D01*
X83012Y262601D01*
X83455Y262322D01*
X83926Y262089D01*
X84415Y261901D01*
X84920Y261758D01*
X85436Y261663D01*
X85958Y261614D01*
X86222D01*
Y258015D01*
X86043Y258058D01*
X85827Y258075D01*
X85773Y258070D01*
X81457D01*
Y264170D01*
X81493Y264112D01*
X81542Y264050D01*
X81600Y263998D01*
X81665Y263955D01*
X81736Y263922D01*
X81812Y263902D01*
X81889Y263893D01*
X81968Y263897D01*
X82044Y263913D01*
X82117Y263940D01*
X82185Y263979D01*
X82246Y264028D01*
X82299Y264086D01*
X82342Y264151D01*
X82374Y264223D01*
X82395Y264298D01*
X82403Y264376D01*
X82400Y264454D01*
X82384Y264530D01*
X82356Y264604D01*
X82316Y264671D01*
X82085Y265037D01*
X81893Y265426D01*
X81737Y265831D01*
X81619Y266248D01*
X81540Y266674D01*
X81500Y267106D01*
Y267540D01*
X81540Y267972D01*
X81619Y268398D01*
X81737Y268815D01*
X81893Y269220D01*
X82085Y269609D01*
X82312Y269978D01*
X82352Y270044D01*
X82379Y270117D01*
X82395Y270193D01*
X82398Y270270D01*
X82390Y270347D01*
X82369Y270422D01*
X82338Y270492D01*
X82295Y270557D01*
X82243Y270614D01*
X82182Y270663D01*
X82115Y270701D01*
X82043Y270728D01*
X81967Y270744D01*
X81890Y270748D01*
X81813Y270739D01*
X81738Y270719D01*
X81667Y270687D01*
X81603Y270644D01*
X81545Y270592D01*
X81498Y270531D01*
X81457Y270466D01*
Y283465D01*
G37*
G36*
X75983D02*X81457D01*
Y270466D01*
X81219Y270087D01*
X80986Y269617D01*
X80798Y269128D01*
X80655Y268623D01*
X80560Y268107D01*
X80512Y267585D01*
Y267061D01*
X80560Y266538D01*
X80655Y266023D01*
X80798Y265518D01*
X80986Y265029D01*
X81219Y264558D01*
X81457Y264170D01*
Y258070D01*
X75983D01*
Y264180D01*
X76221Y264558D01*
X76454Y265029D01*
X76642Y265518D01*
X76785Y266023D01*
X76880Y266538D01*
X76928Y267061D01*
Y267585D01*
X76880Y268107D01*
X76785Y268623D01*
X76642Y269128D01*
X76454Y269617D01*
X76221Y270087D01*
X75983Y270476D01*
Y283465D01*
G37*
G36*
X71222D02*X75983D01*
Y270476D01*
X75947Y270534D01*
X75898Y270596D01*
X75840Y270648D01*
X75775Y270691D01*
X75704Y270723D01*
X75628Y270744D01*
X75551Y270753D01*
X75472Y270749D01*
X75396Y270733D01*
X75323Y270706D01*
X75255Y270667D01*
X75194Y270618D01*
X75141Y270560D01*
X75098Y270495D01*
X75066Y270423D01*
X75045Y270348D01*
X75037Y270270D01*
X75040Y270192D01*
X75056Y270115D01*
X75084Y270042D01*
X75124Y269975D01*
X75355Y269609D01*
X75547Y269220D01*
X75703Y268815D01*
X75821Y268398D01*
X75900Y267972D01*
X75940Y267540D01*
Y267106D01*
X75900Y266674D01*
X75821Y266248D01*
X75703Y265831D01*
X75547Y265426D01*
X75355Y265037D01*
X75128Y264668D01*
X75088Y264602D01*
X75061Y264529D01*
X75045Y264453D01*
X75042Y264376D01*
X75050Y264299D01*
X75071Y264224D01*
X75102Y264154D01*
X75145Y264089D01*
X75197Y264032D01*
X75258Y263983D01*
X75325Y263945D01*
X75397Y263918D01*
X75473Y263902D01*
X75550Y263898D01*
X75627Y263907D01*
X75702Y263927D01*
X75773Y263959D01*
X75837Y264002D01*
X75895Y264054D01*
X75942Y264115D01*
X75983Y264180D01*
Y258070D01*
X71222D01*
Y261614D01*
X71482D01*
X72004Y261663D01*
X72520Y261758D01*
X73025Y261901D01*
X73514Y262089D01*
X73984Y262322D01*
X74431Y262596D01*
X74493Y262645D01*
X74545Y262702D01*
X74588Y262768D01*
X74621Y262839D01*
X74641Y262915D01*
X74650Y262992D01*
X74646Y263071D01*
X74630Y263147D01*
X74603Y263220D01*
X74564Y263288D01*
X74515Y263349D01*
X74457Y263402D01*
X74392Y263445D01*
X74320Y263477D01*
X74245Y263498D01*
X74167Y263506D01*
X74089Y263503D01*
X74012Y263487D01*
X73939Y263459D01*
X73872Y263419D01*
X73506Y263188D01*
X73117Y262996D01*
X72712Y262840D01*
X72295Y262722D01*
X71869Y262643D01*
X71437Y262603D01*
X71222D01*
Y272042D01*
X71437D01*
X71869Y272003D01*
X72295Y271924D01*
X72712Y271806D01*
X73117Y271650D01*
X73506Y271458D01*
X73875Y271231D01*
X73941Y271191D01*
X74014Y271164D01*
X74090Y271148D01*
X74167Y271145D01*
X74244Y271153D01*
X74319Y271174D01*
X74389Y271205D01*
X74454Y271248D01*
X74511Y271300D01*
X74560Y271360D01*
X74598Y271428D01*
X74625Y271500D01*
X74641Y271576D01*
X74645Y271653D01*
X74636Y271730D01*
X74616Y271805D01*
X74584Y271876D01*
X74541Y271940D01*
X74489Y271998D01*
X74428Y272045D01*
X73984Y272324D01*
X73514Y272557D01*
X73025Y272745D01*
X72520Y272888D01*
X72004Y272983D01*
X71482Y273031D01*
X71222D01*
Y283465D01*
G37*
G36*
X66457Y273668D02*X67511Y273668D01*
X67632Y273697D01*
X67746Y273744D01*
X67852Y273809D01*
X67946Y273889D01*
X68026Y273983D01*
X68091Y274089D01*
X68138Y274204D01*
X68167Y274324D01*
X68175Y274447D01*
X68167Y282068D01*
X68138Y282188D01*
X68091Y282303D01*
X68026Y282408D01*
X67946Y282503D01*
X67852Y282583D01*
X67746Y282648D01*
X67632Y282695D01*
X67511Y282724D01*
X67388Y282731D01*
X66457Y282731D01*
Y283465D01*
X71222D01*
Y273031D01*
X70958D01*
X70436Y272983D01*
X69920Y272888D01*
X69415Y272745D01*
X68926Y272557D01*
X68455Y272324D01*
X68009Y272050D01*
X67947Y272001D01*
X67895Y271943D01*
X67852Y271878D01*
X67819Y271807D01*
X67799Y271731D01*
X67790Y271654D01*
X67794Y271575D01*
X67810Y271499D01*
X67837Y271426D01*
X67876Y271358D01*
X67925Y271297D01*
X67983Y271244D01*
X68048Y271201D01*
X68120Y271169D01*
X68195Y271148D01*
X68273Y271140D01*
X68351Y271143D01*
X68427Y271159D01*
X68501Y271187D01*
X68568Y271227D01*
X68934Y271458D01*
X69323Y271650D01*
X69728Y271806D01*
X70145Y271924D01*
X70571Y272003D01*
X71003Y272042D01*
X71222D01*
Y262603D01*
X71003D01*
X70571Y262643D01*
X70145Y262722D01*
X69728Y262840D01*
X69323Y262996D01*
X68934Y263188D01*
X68565Y263415D01*
X68499Y263455D01*
X68426Y263482D01*
X68350Y263498D01*
X68273Y263501D01*
X68196Y263493D01*
X68121Y263472D01*
X68051Y263441D01*
X67986Y263398D01*
X67929Y263346D01*
X67880Y263285D01*
X67842Y263218D01*
X67815Y263146D01*
X67799Y263070D01*
X67795Y262993D01*
X67804Y262916D01*
X67824Y262841D01*
X67856Y262770D01*
X67899Y262706D01*
X67951Y262648D01*
X68012Y262601D01*
X68455Y262322D01*
X68926Y262089D01*
X69415Y261901D01*
X69920Y261758D01*
X70436Y261663D01*
X70958Y261614D01*
X71222D01*
Y258070D01*
X66457D01*
Y264170D01*
X66493Y264112D01*
X66542Y264050D01*
X66600Y263998D01*
X66665Y263955D01*
X66736Y263922D01*
X66812Y263902D01*
X66889Y263893D01*
X66968Y263897D01*
X67044Y263913D01*
X67117Y263940D01*
X67185Y263979D01*
X67246Y264028D01*
X67299Y264086D01*
X67342Y264151D01*
X67374Y264223D01*
X67395Y264298D01*
X67403Y264376D01*
X67400Y264454D01*
X67384Y264530D01*
X67356Y264604D01*
X67316Y264671D01*
X67085Y265037D01*
X66893Y265426D01*
X66737Y265831D01*
X66619Y266248D01*
X66540Y266674D01*
X66500Y267106D01*
Y267540D01*
X66540Y267972D01*
X66619Y268398D01*
X66737Y268815D01*
X66893Y269220D01*
X67085Y269609D01*
X67312Y269978D01*
X67352Y270044D01*
X67379Y270117D01*
X67395Y270193D01*
X67398Y270270D01*
X67390Y270347D01*
X67369Y270422D01*
X67338Y270492D01*
X67295Y270557D01*
X67243Y270614D01*
X67182Y270663D01*
X67115Y270701D01*
X67043Y270728D01*
X66967Y270744D01*
X66890Y270748D01*
X66813Y270739D01*
X66738Y270719D01*
X66667Y270687D01*
X66603Y270644D01*
X66545Y270592D01*
X66498Y270531D01*
X66457Y270466D01*
Y273668D01*
G37*
G36*
Y282731D02*X34481Y282728D01*
Y283465D01*
X66457D01*
Y282731D01*
G37*
G36*
X60983Y273667D02*X66457Y273668D01*
Y270466D01*
X66219Y270087D01*
X65986Y269617D01*
X65798Y269128D01*
X65655Y268623D01*
X65560Y268107D01*
X65512Y267585D01*
Y267061D01*
X65560Y266538D01*
X65655Y266023D01*
X65798Y265518D01*
X65986Y265029D01*
X66219Y264558D01*
X66457Y264170D01*
Y258070D01*
X60983D01*
Y264180D01*
X61221Y264558D01*
X61454Y265029D01*
X61642Y265518D01*
X61785Y266023D01*
X61880Y266538D01*
X61928Y267061D01*
Y267585D01*
X61880Y268107D01*
X61785Y268623D01*
X61642Y269128D01*
X61454Y269617D01*
X61221Y270087D01*
X60983Y270476D01*
Y273667D01*
G37*
G36*
X56222Y273666D02*X60983Y273667D01*
Y270476D01*
X60947Y270534D01*
X60898Y270596D01*
X60840Y270648D01*
X60775Y270691D01*
X60704Y270723D01*
X60628Y270744D01*
X60551Y270753D01*
X60472Y270749D01*
X60396Y270733D01*
X60323Y270706D01*
X60255Y270667D01*
X60194Y270618D01*
X60141Y270560D01*
X60098Y270495D01*
X60066Y270423D01*
X60045Y270348D01*
X60037Y270270D01*
X60040Y270192D01*
X60056Y270115D01*
X60084Y270042D01*
X60124Y269975D01*
X60355Y269609D01*
X60547Y269220D01*
X60703Y268815D01*
X60821Y268398D01*
X60900Y267972D01*
X60940Y267540D01*
Y267106D01*
X60900Y266674D01*
X60821Y266248D01*
X60703Y265831D01*
X60547Y265426D01*
X60355Y265037D01*
X60128Y264668D01*
X60088Y264602D01*
X60061Y264529D01*
X60045Y264453D01*
X60042Y264376D01*
X60050Y264299D01*
X60071Y264224D01*
X60102Y264154D01*
X60145Y264089D01*
X60197Y264032D01*
X60258Y263983D01*
X60325Y263945D01*
X60397Y263918D01*
X60473Y263902D01*
X60550Y263898D01*
X60627Y263907D01*
X60702Y263927D01*
X60773Y263959D01*
X60837Y264002D01*
X60895Y264054D01*
X60942Y264115D01*
X60983Y264180D01*
Y258070D01*
X56222D01*
Y261614D01*
X56482D01*
X57004Y261663D01*
X57520Y261758D01*
X58025Y261901D01*
X58514Y262089D01*
X58984Y262322D01*
X59431Y262596D01*
X59493Y262645D01*
X59545Y262702D01*
X59588Y262768D01*
X59621Y262839D01*
X59641Y262915D01*
X59650Y262992D01*
X59646Y263071D01*
X59630Y263147D01*
X59603Y263220D01*
X59564Y263288D01*
X59515Y263349D01*
X59457Y263402D01*
X59392Y263445D01*
X59320Y263477D01*
X59245Y263498D01*
X59167Y263506D01*
X59089Y263503D01*
X59012Y263487D01*
X58939Y263459D01*
X58872Y263419D01*
X58506Y263188D01*
X58117Y262996D01*
X57712Y262840D01*
X57295Y262722D01*
X56869Y262643D01*
X56437Y262603D01*
X56222D01*
Y272042D01*
X56437D01*
X56869Y272003D01*
X57295Y271924D01*
X57712Y271806D01*
X58117Y271650D01*
X58506Y271458D01*
X58875Y271231D01*
X58941Y271191D01*
X59014Y271164D01*
X59090Y271148D01*
X59167Y271145D01*
X59244Y271153D01*
X59319Y271174D01*
X59389Y271205D01*
X59454Y271248D01*
X59511Y271300D01*
X59560Y271360D01*
X59598Y271428D01*
X59625Y271500D01*
X59641Y271576D01*
X59645Y271653D01*
X59636Y271730D01*
X59616Y271805D01*
X59584Y271876D01*
X59541Y271940D01*
X59489Y271998D01*
X59428Y272045D01*
X58984Y272324D01*
X58514Y272557D01*
X58025Y272745D01*
X57520Y272888D01*
X57004Y272983D01*
X56482Y273031D01*
X56222D01*
Y273666D01*
G37*
G36*
X58502Y245982D02*X58385Y246099D01*
X58347Y246144D01*
X58167Y246297D01*
X57966Y246421D01*
X57748Y246511D01*
X57518Y246566D01*
X57283Y246585D01*
X57224Y246580D01*
X56222D01*
Y247700D01*
X56420Y247532D01*
X56796Y247301D01*
X57203Y247133D01*
X57632Y247030D01*
X58071Y246995D01*
X58440Y247024D01*
X58411Y246655D01*
X58446Y246216D01*
X58502Y245982D01*
G37*
G36*
X51457Y273666D02*X56222Y273666D01*
Y273031D01*
X55958D01*
X55436Y272983D01*
X54920Y272888D01*
X54415Y272745D01*
X53926Y272557D01*
X53455Y272324D01*
X53009Y272050D01*
X52947Y272001D01*
X52895Y271943D01*
X52852Y271878D01*
X52819Y271807D01*
X52799Y271731D01*
X52790Y271654D01*
X52794Y271575D01*
X52810Y271499D01*
X52837Y271426D01*
X52876Y271358D01*
X52925Y271297D01*
X52983Y271244D01*
X53048Y271201D01*
X53120Y271169D01*
X53195Y271148D01*
X53273Y271140D01*
X53351Y271143D01*
X53427Y271159D01*
X53501Y271187D01*
X53568Y271227D01*
X53934Y271458D01*
X54323Y271650D01*
X54728Y271806D01*
X55145Y271924D01*
X55571Y272003D01*
X56003Y272042D01*
X56222D01*
Y262603D01*
X56003D01*
X55571Y262643D01*
X55145Y262722D01*
X54728Y262840D01*
X54323Y262996D01*
X53934Y263188D01*
X53565Y263415D01*
X53499Y263455D01*
X53426Y263482D01*
X53350Y263498D01*
X53273Y263501D01*
X53196Y263493D01*
X53121Y263472D01*
X53051Y263441D01*
X52986Y263398D01*
X52929Y263346D01*
X52880Y263285D01*
X52842Y263218D01*
X52815Y263146D01*
X52799Y263070D01*
X52795Y262993D01*
X52804Y262916D01*
X52824Y262841D01*
X52856Y262770D01*
X52899Y262706D01*
X52951Y262648D01*
X53012Y262601D01*
X53455Y262322D01*
X53926Y262089D01*
X54415Y261901D01*
X54920Y261758D01*
X55436Y261663D01*
X55958Y261614D01*
X56222D01*
Y258070D01*
X53991D01*
X53937Y258075D01*
X53721Y258058D01*
X53721Y258058D01*
X53721D01*
X53664Y258044D01*
X53510Y258007D01*
X53510Y258007D01*
X53510Y258007D01*
X53463Y257988D01*
X53310Y257924D01*
X53125Y257811D01*
X53125Y257811D01*
X53125Y257811D01*
X52960Y257670D01*
X52925Y257629D01*
X51457Y256162D01*
Y264170D01*
X51493Y264112D01*
X51542Y264050D01*
X51600Y263998D01*
X51665Y263955D01*
X51736Y263922D01*
X51812Y263902D01*
X51889Y263893D01*
X51968Y263897D01*
X52044Y263913D01*
X52117Y263940D01*
X52185Y263979D01*
X52246Y264028D01*
X52299Y264086D01*
X52342Y264151D01*
X52374Y264223D01*
X52395Y264298D01*
X52403Y264376D01*
X52400Y264454D01*
X52384Y264530D01*
X52356Y264604D01*
X52316Y264671D01*
X52085Y265037D01*
X51893Y265426D01*
X51737Y265831D01*
X51619Y266248D01*
X51540Y266674D01*
X51500Y267106D01*
Y267540D01*
X51540Y267972D01*
X51619Y268398D01*
X51737Y268815D01*
X51893Y269220D01*
X52085Y269609D01*
X52312Y269978D01*
X52352Y270044D01*
X52379Y270117D01*
X52395Y270193D01*
X52398Y270270D01*
X52390Y270347D01*
X52369Y270422D01*
X52338Y270492D01*
X52295Y270557D01*
X52243Y270614D01*
X52182Y270663D01*
X52115Y270701D01*
X52043Y270728D01*
X51967Y270744D01*
X51890Y270748D01*
X51813Y270739D01*
X51738Y270719D01*
X51667Y270687D01*
X51603Y270644D01*
X51545Y270592D01*
X51498Y270531D01*
X51457Y270466D01*
Y273666D01*
G37*
G36*
X56222Y246580D02*X51457D01*
Y249744D01*
X52334Y248868D01*
X52369Y248827D01*
X52534Y248686D01*
X52534Y248686D01*
X52534Y248686D01*
X52628Y248629D01*
X52719Y248573D01*
X52719Y248573D01*
X52719Y248573D01*
X52828Y248528D01*
X52919Y248490D01*
X52919Y248490D01*
X52919Y248490D01*
X53011Y248468D01*
X53130Y248439D01*
X53130Y248439D01*
X53130Y248439D01*
X53346Y248422D01*
X53400Y248426D01*
X55631D01*
X55799Y248153D01*
X56085Y247818D01*
X56222Y247700D01*
Y246580D01*
G37*
G36*
X51457D02*X34572D01*
X34542Y246598D01*
X34481Y246624D01*
Y273664D01*
X51457Y273666D01*
Y270466D01*
X51219Y270087D01*
X50986Y269617D01*
X50798Y269128D01*
X50655Y268623D01*
X50560Y268107D01*
X50512Y267585D01*
Y267061D01*
X50560Y266538D01*
X50655Y266023D01*
X50798Y265518D01*
X50986Y265029D01*
X51219Y264558D01*
X51457Y264170D01*
Y256162D01*
X50639Y255343D01*
X50598Y255308D01*
X50457Y255143D01*
X50457Y255143D01*
X50457Y255143D01*
X50457Y255143D01*
X50378Y255014D01*
X50344Y254958D01*
X50344Y254958D01*
X50344Y254958D01*
X50261Y254758D01*
X50216Y254573D01*
X50210Y254547D01*
Y254547D01*
X50210Y254547D01*
X50210Y254547D01*
X50193Y254331D01*
X50197Y254277D01*
Y251629D01*
X50193Y251575D01*
X50210Y251359D01*
X50210Y251359D01*
X50210Y251359D01*
X50210Y251359D01*
X50231Y251273D01*
X50261Y251148D01*
X50261Y251148D01*
X50261Y251148D01*
X50304Y251044D01*
X50344Y250948D01*
X50344Y250948D01*
X50344Y250948D01*
X50400Y250855D01*
X50457Y250763D01*
X50457Y250763D01*
X50457Y250763D01*
X50457Y250763D01*
X50598Y250598D01*
X50639Y250563D01*
X51457Y249744D01*
Y246580D01*
G37*
G36*
X34481Y246624D02*X34135Y246767D01*
X33706Y246870D01*
X33267Y246905D01*
X32828Y246870D01*
X32399Y246767D01*
X31992Y246598D01*
X31616Y246368D01*
X31281Y246082D01*
X31089Y245857D01*
X31046Y245961D01*
X30815Y246337D01*
X30529Y246672D01*
X30194Y246958D01*
X29818Y247188D01*
X29411Y247357D01*
X28982Y247460D01*
X28543Y247495D01*
X28104Y247460D01*
X27675Y247357D01*
X27268Y247188D01*
X26892Y246958D01*
X26557Y246672D01*
X26271Y246337D01*
X26040Y245961D01*
X25872Y245554D01*
X25769Y245125D01*
X25734Y244686D01*
X25769Y244247D01*
X25810Y244075D01*
X25162Y243426D01*
X25117Y243388D01*
X24964Y243208D01*
X24840Y243007D01*
X24750Y242789D01*
X24695Y242559D01*
X24695Y242559D01*
X24676Y242324D01*
X24681Y242265D01*
Y236085D01*
X24676Y236026D01*
X24695Y235791D01*
X24695Y235791D01*
X24695Y235791D01*
X24718Y235694D01*
X24750Y235561D01*
X24750Y235561D01*
X24750Y235561D01*
X24793Y235456D01*
X24840Y235343D01*
X24840Y235343D01*
X24840Y235343D01*
X24896Y235252D01*
X24964Y235142D01*
X24964Y235142D01*
X24964Y235142D01*
X25117Y234962D01*
X25162Y234924D01*
X25721Y234365D01*
X25716Y234362D01*
X25622Y234281D01*
X25541Y234187D01*
X25476Y234081D01*
X25429Y233967D01*
X25400Y233846D01*
X25392Y233722D01*
X25400Y232300D01*
X25421Y232211D01*
X17274Y232210D01*
X17340Y232267D01*
X17626Y232602D01*
X17857Y232978D01*
X18025Y233385D01*
X18128Y233814D01*
X18154Y234253D01*
X18128Y234692D01*
X18025Y235121D01*
X17857Y235528D01*
X17626Y235904D01*
X17340Y236239D01*
X17005Y236525D01*
X16629Y236755D01*
X16222Y236924D01*
X15793Y237027D01*
X15354Y237062D01*
X14915Y237027D01*
X14486Y236924D01*
X14079Y236755D01*
X13703Y236525D01*
X13368Y236239D01*
X13082Y235904D01*
X12851Y235528D01*
X12683Y235121D01*
X12580Y234692D01*
X12549Y234293D01*
X9645Y232514D01*
X9638Y233846D01*
X9609Y233967D01*
X9562Y234081D01*
X9497Y234187D01*
X9416Y234281D01*
X9322Y234362D01*
X9216Y234427D01*
X9102Y234474D01*
X8981Y234503D01*
X8858Y234510D01*
X3075Y234503D01*
Y236193D01*
X3217Y236184D01*
X7171Y236194D01*
X7322Y236230D01*
X7465Y236289D01*
X7597Y236370D01*
X7714Y236471D01*
X7815Y236588D01*
X7896Y236720D01*
X7955Y236863D01*
X7991Y237014D01*
X8000Y237168D01*
X7991Y240154D01*
X7955Y240304D01*
X7896Y240448D01*
X7815Y240580D01*
X7714Y240697D01*
X7597Y240798D01*
X7465Y240879D01*
X7322Y240938D01*
X7171Y240974D01*
X7017Y240983D01*
X3075Y240974D01*
Y241112D01*
X3983Y242020D01*
X7171Y242028D01*
X7322Y242064D01*
X7465Y242123D01*
X7597Y242204D01*
X7714Y242305D01*
X7815Y242422D01*
X7896Y242554D01*
X7955Y242697D01*
X7991Y242848D01*
X8000Y243002D01*
X7995Y244861D01*
X8023Y244509D01*
X8294Y243376D01*
X8740Y242300D01*
X9349Y241307D01*
X10105Y240421D01*
X10991Y239665D01*
X11984Y239056D01*
X13060Y238610D01*
X14193Y238339D01*
X15354Y238247D01*
X16515Y238339D01*
X17648Y238610D01*
X18724Y239056D01*
X19717Y239665D01*
X20603Y240421D01*
X21359Y241307D01*
X21968Y242300D01*
X22414Y243376D01*
X22685Y244509D01*
X22754Y245670D01*
X22685Y246831D01*
X22414Y247964D01*
X21968Y249040D01*
X21359Y250033D01*
X20603Y250919D01*
X19717Y251675D01*
X18724Y252284D01*
X17648Y252729D01*
X16515Y253001D01*
X15354Y253093D01*
X14193Y253001D01*
X13060Y252729D01*
X11984Y252284D01*
X10991Y251675D01*
X10105Y250919D01*
X9349Y250033D01*
X8740Y249040D01*
X8294Y247964D01*
X8023Y246831D01*
X7965Y246098D01*
X7955Y246138D01*
X7896Y246282D01*
X7815Y246414D01*
X7714Y246531D01*
X7597Y246632D01*
X7465Y246713D01*
X7322Y246772D01*
X7171Y246808D01*
X7017Y246817D01*
X3063Y246808D01*
X2912Y246772D01*
X2769Y246713D01*
X2637Y246632D01*
X2520Y246531D01*
X2419Y246414D01*
X2338Y246282D01*
X2279Y246138D01*
X2243Y245988D01*
X2234Y245833D01*
X2238Y244518D01*
X556Y242835D01*
X511Y242797D01*
X358Y242617D01*
X358Y242617D01*
X358Y242617D01*
X302Y242526D01*
X234Y242416D01*
X234Y242416D01*
X234Y242416D01*
X191Y242312D01*
X144Y242198D01*
X144Y242198D01*
X144Y242198D01*
X117Y242084D01*
X89Y241968D01*
X89Y241968D01*
X89Y241968D01*
X70Y241733D01*
X75Y241674D01*
Y227559D01*
X0D01*
Y283465D01*
X34481D01*
Y282728D01*
X1451Y282724D01*
X1331Y282695D01*
X1216Y282648D01*
X1110Y282583D01*
X1016Y282503D01*
X936Y282408D01*
X871Y282303D01*
X824Y282188D01*
X795Y282068D01*
X788Y281944D01*
X795Y274324D01*
X824Y274204D01*
X871Y274089D01*
X936Y273983D01*
X1016Y273889D01*
X1110Y273809D01*
X1216Y273744D01*
X1331Y273697D01*
X1451Y273668D01*
X1575Y273660D01*
X34481Y273664D01*
Y246624D01*
G37*
G36*
X110353Y271359D02*X108980Y271348D01*
Y274970D01*
X109282Y275272D01*
X115914D01*
X118972Y272214D01*
Y267331D01*
X117757Y267329D01*
X117604Y267292D01*
X117459Y267232D01*
X117324Y267149D01*
X117205Y267047D01*
X117102Y266928D01*
X117020Y266793D01*
X116963Y266655D01*
X116952Y266666D01*
X116939Y270094D01*
X116884Y270324D01*
X116794Y270542D01*
X116670Y270743D01*
X116517Y270923D01*
X116338Y271076D01*
X116136Y271200D01*
X115918Y271290D01*
X115689Y271345D01*
X115453Y271359D01*
X113718Y271345D01*
X113488Y271290D01*
X113453Y271275D01*
X113418Y271290D01*
X113189Y271345D01*
X112953Y271359D01*
X111218Y271345D01*
X110988Y271290D01*
X110903Y271255D01*
X110818Y271290D01*
X110589Y271345D01*
X110353Y271359D01*
G37*
G36*
X85986Y216733D02*X90157D01*
Y206694D01*
X85986D01*
Y208787D01*
X87827Y208791D01*
X87965Y208824D01*
X88096Y208879D01*
X88217Y208953D01*
X88324Y209045D01*
X88416Y209152D01*
X88490Y209273D01*
X88545Y209404D01*
X88578Y209542D01*
X88586Y209683D01*
X88578Y213824D01*
X88545Y213962D01*
X88490Y214093D01*
X88416Y214214D01*
X88324Y214321D01*
X88217Y214413D01*
X88096Y214487D01*
X87965Y214542D01*
X87827Y214575D01*
X87686Y214583D01*
X85986Y214579D01*
Y216733D01*
G37*
G36*
X80315D02*X85986D01*
Y214579D01*
X84145Y214575D01*
X84007Y214542D01*
X83876Y214487D01*
X83755Y214413D01*
X83648Y214321D01*
X83556Y214214D01*
X83482Y214093D01*
X83427Y213962D01*
X83394Y213824D01*
X83386Y213683D01*
X83394Y209542D01*
X83427Y209404D01*
X83482Y209273D01*
X83556Y209152D01*
X83648Y209045D01*
X83755Y208953D01*
X83876Y208879D01*
X84007Y208824D01*
X84145Y208791D01*
X84286Y208783D01*
X85986Y208787D01*
Y206694D01*
X80315D01*
Y208243D01*
X80351Y208252D01*
X80569Y208342D01*
X80770Y208466D01*
X80950Y208619D01*
X81103Y208799D01*
X81227Y209000D01*
X81317Y209218D01*
X81372Y209448D01*
X81386Y209683D01*
X81372Y213918D01*
X81317Y214148D01*
X81227Y214366D01*
X81103Y214567D01*
X80950Y214747D01*
X80770Y214900D01*
X80569Y215024D01*
X80351Y215114D01*
X80315Y215123D01*
Y216733D01*
G37*
G36*
X85986Y244883D02*X89567D01*
Y230710D01*
X85986D01*
Y233649D01*
X87859Y233654D01*
X88027Y233695D01*
X88187Y233761D01*
X88335Y233851D01*
X88466Y233964D01*
X88579Y234095D01*
X88669Y234243D01*
X88735Y234403D01*
X88776Y234571D01*
X88786Y234744D01*
X88776Y238917D01*
X88735Y239085D01*
X88669Y239245D01*
X88579Y239393D01*
X88466Y239524D01*
X88335Y239637D01*
X88187Y239727D01*
X88027Y239793D01*
X87859Y239834D01*
X87686Y239844D01*
X85986Y239839D01*
Y244883D01*
G37*
G36*
X79886Y239844D02*X76313Y239834D01*
X76145Y239793D01*
X75985Y239727D01*
X75837Y239637D01*
X75706Y239524D01*
X75593Y239393D01*
X75503Y239245D01*
X75437Y239085D01*
X75396Y238917D01*
X75386Y238744D01*
X75396Y234571D01*
X75437Y234403D01*
X75503Y234243D01*
X75542Y234180D01*
X75514Y234163D01*
X75179Y233877D01*
X75000Y233667D01*
Y234273D01*
X75005Y234293D01*
X75014Y234450D01*
X75005Y242087D01*
X75000Y242107D01*
Y244883D01*
X85986D01*
Y239839D01*
X84113Y239834D01*
X83945Y239793D01*
X83785Y239727D01*
X83637Y239637D01*
X83506Y239524D01*
X83393Y239393D01*
X83303Y239245D01*
X83237Y239085D01*
X83196Y238917D01*
X83186Y238744D01*
X83196Y234571D01*
X83237Y234403D01*
X83303Y234243D01*
X83393Y234095D01*
X83506Y233964D01*
X83637Y233851D01*
X83785Y233761D01*
X83945Y233695D01*
X84113Y233654D01*
X84286Y233644D01*
X85986Y233649D01*
Y230710D01*
X84672D01*
X84645Y230823D01*
X84590Y230954D01*
X84516Y231075D01*
X84424Y231182D01*
X84317Y231274D01*
X84196Y231348D01*
X84065Y231403D01*
X83927Y231436D01*
X83786Y231444D01*
X80245Y231436D01*
X80107Y231403D01*
X79976Y231348D01*
X79904Y231304D01*
X79939Y231452D01*
X79965Y231891D01*
X79939Y232330D01*
X79836Y232759D01*
X79686Y233121D01*
Y233653D01*
X80059Y233654D01*
X80227Y233695D01*
X80387Y233761D01*
X80535Y233851D01*
X80666Y233964D01*
X80779Y234095D01*
X80869Y234243D01*
X80935Y234403D01*
X80976Y234571D01*
X80986Y234744D01*
X80976Y238917D01*
X80935Y239085D01*
X80869Y239245D01*
X80779Y239393D01*
X80666Y239524D01*
X80535Y239637D01*
X80387Y239727D01*
X80227Y239793D01*
X80059Y239834D01*
X79886Y239844D01*
G37*
G36*
X75000Y220846D02*Y224431D01*
X75005Y224451D01*
X75014Y224608D01*
X75009Y228938D01*
X79489D01*
X79494Y226403D01*
X79527Y226265D01*
X79582Y226134D01*
X79656Y226013D01*
X79748Y225906D01*
X79855Y225814D01*
X79976Y225740D01*
X80107Y225685D01*
X80245Y225652D01*
X80386Y225644D01*
X83927Y225652D01*
X84065Y225685D01*
X84196Y225740D01*
X84317Y225814D01*
X84424Y225906D01*
X84516Y226013D01*
X84590Y226134D01*
X84645Y226265D01*
X84678Y226403D01*
X84686Y226544D01*
X84681Y228938D01*
X89567D01*
Y219293D01*
X84683D01*
X84678Y222024D01*
X84645Y222162D01*
X84590Y222293D01*
X84516Y222414D01*
X84424Y222521D01*
X84317Y222613D01*
X84196Y222687D01*
X84065Y222742D01*
X83927Y222775D01*
X83786Y222783D01*
X80245Y222775D01*
X80107Y222742D01*
X79976Y222687D01*
X79855Y222613D01*
X79748Y222521D01*
X79656Y222414D01*
X79582Y222293D01*
X79527Y222162D01*
X79494Y222024D01*
X79486Y221883D01*
X79491Y219293D01*
X77680D01*
X77604Y219311D01*
X77165Y219346D01*
X76726Y219311D01*
X76650Y219293D01*
X75007D01*
X75005Y220826D01*
X75000Y220846D01*
G37*
G36*
X77559Y159174D02*Y162063D01*
X80580Y162070D01*
X80718Y162103D01*
X80849Y162157D01*
X80970Y162231D01*
X81077Y162323D01*
X81169Y162431D01*
X81243Y162552D01*
X81298Y162683D01*
X81331Y162821D01*
X81339Y162962D01*
X81331Y167103D01*
X81298Y167241D01*
X81243Y167372D01*
X81169Y167492D01*
X81077Y167600D01*
X80970Y167692D01*
X80927Y167718D01*
X83661D01*
Y158072D01*
X77631D01*
X77629Y158934D01*
X77588Y159103D01*
X77559Y159174D01*
G37*
G36*
X72586Y153811D02*X72638Y153779D01*
X72798Y153712D01*
X72966Y153672D01*
X73139Y153662D01*
X76712Y153672D01*
X76880Y153712D01*
X77040Y153779D01*
X77188Y153869D01*
X77319Y153982D01*
X77432Y154113D01*
X77522Y154261D01*
X77588Y154421D01*
X77629Y154589D01*
X77639Y154762D01*
X77634Y156891D01*
X83661D01*
Y138190D01*
X67716D01*
Y147644D01*
X67997Y147973D01*
X68225Y148345D01*
X68392Y148748D01*
X68494Y149172D01*
X68520Y149607D01*
X68494Y150042D01*
X68392Y150466D01*
X68225Y150869D01*
X67997Y151241D01*
X67716Y151570D01*
Y153619D01*
X71791D01*
X71850Y153614D01*
X72085Y153633D01*
X72315Y153688D01*
X72533Y153778D01*
X72586Y153811D01*
G37*
G36*
X54724Y201970D02*X62598D01*
X66142Y205514D01*
X67903D01*
X67905Y203781D01*
X67942Y203628D01*
X68002Y203483D01*
X68084Y203348D01*
X68187Y203229D01*
X68306Y203126D01*
X68441Y203044D01*
X68586Y202984D01*
X68739Y202947D01*
X68896Y202938D01*
X74171Y202947D01*
X74324Y202984D01*
X74469Y203044D01*
X74604Y203126D01*
X74723Y203229D01*
X74826Y203348D01*
X74908Y203483D01*
X74968Y203628D01*
X75005Y203781D01*
X75014Y203938D01*
X75012Y205514D01*
X83661D01*
Y168900D01*
X67715D01*
X60629Y175986D01*
X54724D01*
Y176491D01*
X61059Y176498D01*
X61289Y176553D01*
X61507Y176643D01*
X61708Y176767D01*
X61888Y176920D01*
X62041Y177099D01*
X62165Y177301D01*
X62255Y177519D01*
X62310Y177748D01*
X62324Y177984D01*
X62310Y199419D01*
X62255Y199649D01*
X62165Y199867D01*
X62041Y200068D01*
X61888Y200248D01*
X61708Y200401D01*
X61507Y200524D01*
X61289Y200615D01*
X61059Y200670D01*
X60824Y200684D01*
X54724Y200677D01*
Y201970D01*
G37*
G36*
X37008Y183766D02*Y183860D01*
X32817Y184293D01*
X36659Y184298D01*
X36889Y184353D01*
X37107Y184443D01*
X37308Y184567D01*
X37488Y184720D01*
X37641Y184899D01*
X37765Y185101D01*
X37855Y185319D01*
X37910Y185548D01*
X37924Y185784D01*
X37910Y191619D01*
X37855Y191849D01*
X37765Y192067D01*
X37641Y192268D01*
X37488Y192448D01*
X37308Y192601D01*
X37107Y192724D01*
X36889Y192815D01*
X36659Y192870D01*
X36424Y192884D01*
X25590Y192872D01*
Y193309D01*
X26717Y193387D01*
X36659Y193398D01*
X36889Y193453D01*
X37107Y193543D01*
X37308Y193667D01*
X37488Y193820D01*
X37641Y193999D01*
X37765Y194201D01*
X37855Y194419D01*
X37910Y194648D01*
X37924Y194884D01*
X37922Y195820D01*
X37985Y195858D01*
X38036Y195902D01*
X38091Y195940D01*
X38149Y195999D01*
X38254Y196088D01*
X38354Y196206D01*
X39246Y197210D01*
X39763Y197170D01*
X40391Y197219D01*
X41003Y197366D01*
X41585Y197607D01*
X42121Y197936D01*
X42600Y198345D01*
X43009Y198824D01*
X43338Y199360D01*
X43579Y199942D01*
X43726Y200554D01*
X43763Y201182D01*
X43726Y201810D01*
X43687Y201970D01*
X48834D01*
X49114Y201854D01*
X49726Y201707D01*
X50354Y201658D01*
X50982Y201707D01*
X51594Y201854D01*
X51874Y201970D01*
X54724D01*
Y200677D01*
X48389Y200670D01*
X48159Y200615D01*
X47941Y200524D01*
X47740Y200401D01*
X47560Y200248D01*
X47407Y200068D01*
X47283Y199867D01*
X47193Y199649D01*
X47138Y199419D01*
X47124Y199184D01*
X47138Y177748D01*
X47193Y177519D01*
X47283Y177301D01*
X47407Y177099D01*
X47560Y176920D01*
X47740Y176767D01*
X47941Y176643D01*
X48159Y176553D01*
X48389Y176498D01*
X48624Y176484D01*
X54724Y176491D01*
Y175986D01*
X37694D01*
X37765Y176101D01*
X37855Y176319D01*
X37910Y176548D01*
X37924Y176784D01*
X37910Y182619D01*
X37855Y182849D01*
X37765Y183067D01*
X37641Y183268D01*
X37488Y183448D01*
X37308Y183601D01*
X37107Y183724D01*
X37008Y183766D01*
G37*
G54D38*X67913Y113387D02*Y113781D01*
G54D39*X62992Y79528D02*X68110D01*
X70866Y82284D01*
X59449Y84646D02*Y90158D01*
X57874Y85827D02*Y90946D01*
X56300Y86615D02*Y91733D01*
X54724Y87796D02*Y94489D01*
X59449Y90158D02*X65354Y96063D01*
X57874Y90946D02*X64566Y97638D01*
X56300Y91733D02*X63780Y99213D01*
X72834Y101182D02*X54725D01*
X53150Y81103D02*X57874Y85827D01*
X51575Y81889D02*X56300Y86615D01*
X55118Y80315D02*X59449Y84646D01*
X50000Y83071D02*X54724Y87796D01*
X51575Y87402D02*Y90552D01*
X80315Y108662D02*X72834Y101182D01*
G54D38*X77165Y111293D02*X73425Y107553D01*
G54D39*X73228Y79134D02*X74803Y80709D01*
X87795D01*
X77165Y78741D02*X86221D01*
X74409Y75985D02*X77165Y78741D01*
X78346Y77166D02*X84646D01*
X62992Y74410D02*X69685D01*
X71260Y75985D01*
X74409D01*
X73228Y72835D02*X74015D01*
X78346Y77166D01*
X82283Y74016D02*X79134Y70867D01*
Y68112D01*
X72441Y65748D02*X74803D01*
X77165Y63386D01*
X68898Y67717D02*X77165D01*
X102756Y94489D02*X105512Y91732D01*
Y90945D01*
X96260Y91536D02*X101181Y86615D01*
X93307Y88583D02*X99606Y82284D01*
X105512D01*
X91733Y85434D02*X99214Y77953D01*
X90550Y82284D02*X99212Y73622D01*
X99214Y77953D02*X101181D01*
X99212Y69292D02*X101181D01*
X99212Y73622D02*X105512D01*
X86221Y78741D02*X100000Y64961D01*
X105512D01*
X84646Y77166D02*X101181Y60630D01*
X87795Y80709D02*X99212Y69292D01*
X73228Y91536D02*X96260D01*
X70079Y88583D02*X93307D01*
X73228Y85434D02*X91733D01*
X70866Y82284D02*X90550D01*
X68110Y94489D02*X102756D01*
X65354Y96063D02*X113778D01*
X64566Y97638D02*X112992D01*
X63780Y99213D02*X112205D01*
X112598Y99607D01*
X69685Y62992D02*X72441Y65748D01*
X62598Y61418D02*X68898Y67717D01*
X55906Y66142D02*X51575Y70473D01*
X56299Y74804D02*X55117Y75986D01*
X55906Y70473D02*X53150Y73230D01*
Y81103D01*
X51575Y70473D02*Y81889D01*
X55117Y75986D02*X55118Y80315D01*
X56299Y61418D02*X50000Y67717D01*
Y83071D01*
X112598Y99607D02*Y124410D01*
G54D38*X105906Y120867D02*X86221D01*
G54D39*X87008Y126378D02*X80315Y119686D01*
Y119685D02*Y108662D01*
G54D38*X86221Y120867D02*X84252Y118898D01*
X82283Y126772D02*X77165Y121654D01*
Y111293D01*
X61786Y113053D02*X51831D01*
X66313Y109153D02*X67913Y107553D01*
X53586Y109153D02*X66313D01*
X73425Y106694D02*Y108146D01*
X67915Y107873D02*X68109Y107679D01*
X72241Y108146D02*X73425D01*
X48425Y109253D02*X34842D01*
G54D39*X51771Y112993D02*X48425Y109253D01*
G54D38*X51831Y113053D02*X51771Y112993D01*
X32283Y111812D02*X34839Y109256D01*
X47243Y114174D02*X47009D01*
X30709Y109843D02*X36218Y104331D01*
X67520Y113387D02*X62992Y117915D01*
X68897D02*X73425Y113387D01*
X67716Y117915D02*X68897D01*
X62204Y135041D02*X65748Y135040D01*
X63386Y129923D02*X64567D01*
X52362Y124804D02*X46851Y119293D01*
X54921Y121852D02*X47009Y114174D01*
X49212Y130710D02*X52755D01*
X43700Y136222D02*X49212Y130710D01*
X42519Y134253D02*X51968Y124804D01*
X71063Y104332D02*X73425Y106694D01*
X36218Y104331D02*X71063Y104332D01*
X67913Y113387D02*X67520D01*
G54D40*X74839Y151291D02*X64844Y141296D01*
G54D38*Y140436D02*X61023Y136615D01*
G54D40*X55820Y149496D02*X65637D01*
G54D38*X66339Y155119D02*X64567Y156891D01*
G54D39*X64075Y156202D02*X61614Y153741D01*
X64075Y156891D02*Y156202D01*
G54D38*X68307Y159450D02*X61614D01*
X64844Y141296D02*Y140436D01*
G54D40*X65637Y149496D02*X65748Y149607D01*
G54D38*X40340Y126379D02*Y125775D01*
X46851Y119293D02*X42126D01*
X62992Y117915D02*X62204D01*
X54921Y127756D02*Y121852D01*
X53937Y128741D02*X54921Y127756D01*
X61023Y136615D02*X57086D01*
X57873Y130710D02*X62204Y135041D01*
X53937Y129529D02*Y128741D01*
X52362Y131104D02*X53937Y129529D01*
G54D39*X46850Y60630D02*X50787Y56693D01*
X46850Y85434D02*Y60630D01*
X48425Y66930D02*Y84252D01*
G54D38*X43701Y76772D02*Y60630D01*
X47244Y57087D01*
G54D39*X49606Y96063D02*Y92914D01*
X48425Y91732D01*
Y87008D01*
X45276Y88189D02*Y96063D01*
X43701Y81497D02*X40945Y84253D01*
Y96063D01*
X48425Y87008D02*X46850Y85434D01*
X45276Y96063D02*X39370Y101969D01*
X40945Y96063D02*X39370Y97638D01*
X37008D01*
G54D40*X31890Y92914D02*X34646Y90158D01*
G54D38*X37008Y97638D02*X31890Y102756D01*
G54D39*X39370Y101969D02*X35433D01*
X32677Y104725D01*
G54D38*X30741Y67717D02*X34215Y71191D01*
G54D40*X34646Y71622D01*
Y90158D02*Y71622D01*
X22836Y84252D02*X20866Y86222D01*
X9843D01*
X16929Y82284D02*Y86221D01*
X24016Y76378D02*X22836Y77558D01*
Y84252D01*
G54D38*X31890Y102756D02*X24803D01*
X22047Y100000D01*
Y91339D01*
X22836Y90551D01*
G54D39*X32677Y104725D02*X24095D01*
X17008Y97638D01*
G54D38*X22836Y90551D02*Y84252D01*
X133465Y85201D02*X138500D01*
X133465Y100162D02*X138539D01*
X141339Y97362D01*
X128309Y86183D02*X130709Y88583D01*
X128310Y93344D02*X130709Y90945D01*
X133465Y70240D02*X138461D01*
X141339Y67362D01*
X130548Y67323D02*X133465Y64406D01*
X130709Y73623D02*X146063D01*
X126772Y67323D02*X130548D01*
X118572Y71223D02*X128309D01*
X130709Y73623D01*
G54D39*X112205Y61024D02*Y78347D01*
G54D38*X118572Y78384D02*X128310D01*
X130709Y75985D01*
X150787D01*
X146063Y73623D02*X147637Y72049D01*
X138500Y85201D02*X141339Y82362D01*
X126772Y82284D02*X130548D01*
X133465Y79367D01*
X118572Y86183D02*X128309D01*
X130709Y88583D02*X146063D01*
X118572Y93344D02*X128310D01*
X130709Y90945D02*X150787D01*
X146063Y88583D02*X147638Y87008D01*
G54D39*X116142Y82284D02*X126772D01*
X112205Y78347D02*X116142Y82284D01*
X113778Y96063D02*X114960Y97245D01*
X112992Y97638D02*X114173Y98819D01*
X114960Y97245D02*X126772D01*
G54D38*X133465Y115122D02*X138579D01*
X141339Y112362D01*
X133465Y130476D02*X138225D01*
X141339Y127362D01*
X126772Y127559D02*X130548D01*
X128309Y131459D02*X130315Y133466D01*
X130548Y127559D02*X133465Y124642D01*
X126772Y112205D02*X130548D01*
X133465Y109288D01*
X126772Y97245D02*X130548D01*
X133465Y94328D01*
X128309Y101144D02*X130709Y103544D01*
X128310Y108305D02*X130709Y105906D01*
X128309Y116498D02*X130709Y118898D01*
X148425Y133465D02*Y137796D01*
X137795Y148426D01*
X130315Y133466D02*X148425Y133465D01*
X118572Y101144D02*X128309D01*
X130709Y103544D02*X146062D01*
X147637Y101969D01*
X130709Y105906D02*X150787D01*
X118572Y108305D02*X128310D01*
X118572Y116498D02*X128309D01*
G54D39*X116535Y112205D02*X126772D01*
G54D38*X130709Y118898D02*X145669D01*
X128310Y123659D02*X130709Y121260D01*
X150787D01*
X145669Y118898D02*X147637Y116930D01*
G54D39*X114173Y98819D02*Y109843D01*
X116535Y112205D01*
X112598Y124410D02*X115747Y127559D01*
G54D38*X118572Y123659D02*X128310D01*
G54D39*X115747Y127559D02*X126772D01*
G54D38*X128309Y131459D02*X116498D01*
X105906Y120867D01*
X40340Y126379D02*X34252Y132285D01*
X62598Y129923D02*X64567D01*
X40340Y125775D02*X32283Y117718D01*
X37009Y114176D02*Y114174D01*
X42126Y119293D02*X37009Y114176D01*
X30708Y136222D02*X43700D01*
X2362Y131104D02*Y109450D01*
X7009Y115278D02*X14173Y122442D01*
X7009Y114174D02*Y115278D01*
X14173Y122442D02*X24803D01*
X32283Y117718D02*Y111812D01*
X15747Y144489D02*X2362Y131104D01*
X16929Y144489D02*X15747D01*
X3543Y137403D02*Y142703D01*
X5329Y144489D01*
X12285Y109450D02*X17009Y114174D01*
X2362Y109450D02*X12285D01*
X22047Y109844D02*X30709Y109843D01*
X77165Y231891D02*X74998D01*
G54D41*X33266Y230514D02*X29133D01*
G54D39*X33267Y230513D02*X33266Y230514D01*
X56299Y233269D02*X68110D01*
X55118Y234450D02*X56299Y233269D01*
G54D41*X52559Y220474D02*X47441D01*
X47243Y230316D02*X42716Y225789D01*
X47441Y220474D02*X42716Y215946D01*
G54D39*X63582Y221852D02*X53937D01*
G54D41*X52952Y230316D02*X47243D01*
X55119Y228150D02*X52952Y230316D01*
X55119Y224803D02*Y228150D01*
G54D39*X56495Y223426D02*X55119Y224803D01*
G54D38*X59645Y228348D02*X57676D01*
G54D39*X64960Y223426D02*X56495D01*
X65551Y219883D02*X63582Y221852D01*
G54D38*X57676Y228348D02*X50276Y235748D01*
X59645Y215748D02*Y216338D01*
X71455Y237009D02*X75195Y240749D01*
X71455Y240160D02*Y238190D01*
X68110Y243505D02*X71455Y240160D01*
X58858Y243505D02*X68110D01*
X57283Y245080D02*X58858Y243505D01*
X55118Y237402D02*Y234450D01*
X59645Y237009D02*X54016Y242639D01*
X74998Y231891D02*X71455Y228348D01*
G54D41*Y216340D02*X64960Y223426D01*
G54D39*X65551Y218505D02*Y219883D01*
X71455Y229924D02*Y228348D01*
X68110Y233269D02*X71455Y229924D01*
G54D40*X77165Y224017D02*X82086D01*
X75984Y222836D02*X77165Y224017D01*
X82086Y219883D02*Y228544D01*
G54D38*X34251Y245080D02*X57283D01*
G54D39*X61418Y246851D02*X61220Y246655D01*
X58071Y249804D02*X53346D01*
G54D38*X33267Y244096D02*X34251Y245080D01*
X26181Y242324D02*X28543Y244686D01*
X51968Y240552D02*X55118Y237402D01*
X48621Y240552D02*X51968D01*
G54D39*X55117Y253150D02*X54921Y252954D01*
X53346Y249804D02*X51575Y251575D01*
Y254331D01*
X53937Y256693D01*
G54D38*X43700Y235631D02*X48621Y240552D01*
X32481Y235631D02*X43700D01*
X29527Y238584D02*X32481Y235631D01*
X42323Y242639D02*X40354Y240670D01*
X50276Y235748D02*X50354Y235670D01*
X54016Y242639D02*X42323D01*
X107480Y265748D02*Y275591D01*
X108661Y276772D01*
X109603Y272595D02*X110630Y273622D01*
X109603Y268109D02*Y272595D01*
X105906Y259843D02*X108268Y257481D01*
X111418D01*
X112205Y258268D01*
Y261107D01*
X109603Y263625D02*X107480Y265748D01*
X112205Y261107D02*X112203Y261109D01*
Y268109D01*
X109603Y261109D02*Y263625D01*
X105118Y259843D02*X105906D01*
X141339Y260868D02*X132439D01*
X132283Y261024D01*
X108661Y276772D02*X116535D01*
X120472Y272835D01*
Y261025D01*
X120473Y261024D01*
X114703Y268109D02*Y266794D01*
X120473Y261024D01*
X117323Y253937D02*X126378D01*
X106693Y251182D02*X105118Y252757D01*
X103543Y255906D02*X106692D01*
X109055Y253544D01*
X114567D01*
X111024Y251182D02*X106693D01*
X114703Y261109D02*Y256557D01*
X117323Y253937D01*
X114567Y253544D02*X120473Y247638D01*
X114173Y243564D02*X117973D01*
X120473Y246064D01*
X113542Y248664D02*X111024Y251182D01*
X103937Y235827D02*X98819Y230708D01*
G54D39*X107173Y233309D02*X104175D01*
G54D38*X114173D02*X113542D01*
X111024Y235827D01*
X107173Y230709D02*X114173D01*
X107173Y248664D02*X104569D01*
X101969Y251182D01*
Y254332D01*
X103543Y255906D01*
X98819Y257874D02*Y253544D01*
X96850Y251575D01*
Y240552D01*
X97244Y240158D01*
X111024Y235827D02*X103937D01*
X103543Y238189D02*X114567D01*
X107173Y243564D02*X109792Y240945D01*
X100000Y248819D02*X102756Y246063D01*
X141339Y245868D02*X132478D01*
X132283Y246063D01*
X107173Y246064D02*X114173D01*
X120473Y247638D02*Y246064D01*
X114173Y248664D02*X113542D01*
X120473Y232283D02*Y230709D01*
X114567Y238189D02*X120473Y232283D01*
X115354Y240945D02*X117322Y238977D01*
X126378D01*
X109792Y240945D02*X115354D01*
G54D39*X87008Y253150D02*X55117D01*
X92520Y247638D02*X87008Y253150D01*
X90945Y245670D02*X89764Y246851D01*
X61418D01*
X53937Y256693D02*X85827D01*
X94094Y248426D01*
G54D38*X40354Y210631D02*Y210670D01*
G54D41*X42716Y225789D02*X37990D01*
X35433Y219096D02*Y225789D01*
X38582Y215946D02*X35433Y219096D01*
X42716Y215946D02*X38582D01*
X33266Y227955D02*X29133D01*
X35433Y225789D02*X33266Y227955D01*
X37990Y225789D02*X33266Y230513D01*
G54D38*X53937Y210631D02*X40354D01*
X23821Y220279D02*X29133D01*
X22441Y218899D02*X23821Y220279D01*
X29133Y217720D02*X25984Y217718D01*
X16535Y215356D02*X13779Y219686D01*
X29134Y212206D02*X29133Y215161D01*
X26181Y236026D02*Y242324D01*
X5905Y237796D02*X5117Y238584D01*
X9842Y237796D02*X5905D01*
G54D39*Y213387D02*Y215161D01*
X2758Y217720D02*X5905D01*
X1378Y216340D02*X2758Y217720D01*
X1378Y212599D02*Y216340D01*
X3149Y210828D02*X1378Y212599D01*
X7086Y212206D02*X5905Y213387D01*
X7086Y207481D02*Y212206D01*
X5905Y206300D02*X7086Y207481D01*
G54D38*X19686Y226773D02*X17716Y224804D01*
Y220080D02*X14567Y223230D01*
Y230710D02*X9055Y227954D01*
X9253Y230514D02*X15354Y234253D01*
X12204Y223230D02*X14567D01*
X13781Y226774D02*X13386Y226379D01*
X9055Y225198D02*X12204Y223230D01*
X5905Y225396D02*X9055Y225198D01*
Y222836D02*X13779Y219686D01*
X5905Y222838D02*X9055Y222836D01*
X5903D02*X5905Y222838D01*
X1575Y223623D02*X2362Y222836D01*
X5903D01*
X24016Y226773D02*X19686D01*
X28935Y230712D02*X14567Y230710D01*
X24802Y228742D02*X25590Y227954D01*
X15355Y228742D02*X24802D01*
X13781Y226774D02*X15355Y228742D01*
X29134Y227954D02*X29133Y227955D01*
X29132Y227954D02*X29133Y227955D01*
X25590Y227954D02*X29132D01*
X23226Y222838D02*X29133D01*
X22441Y223623D02*X23226Y222838D01*
X29133Y225396D02*X25392D01*
X24016Y226773D01*
X29133Y233073D02*X26181Y236026D01*
X1575Y241733D02*Y223623D01*
X3543Y243702D02*X1575Y241733D01*
X5117Y243702D02*X3543D01*
X5117Y238584D02*X5118Y233073D01*
X9055Y227954D02*X5905Y227955D01*
Y230514D02*X9253D01*
X76575Y212009D02*X71563Y216929D01*
X77165Y212704D02*X78186Y211683D01*
X77165Y216537D02*Y212704D01*
X78186Y211983D02*X76575Y212009D01*
G54D41*X71455Y216160D02*Y216340D01*
G54D38*X65551Y212401D02*Y218505D01*
X71455Y206497D02*X65551Y212401D01*
X71563Y216929D02*X71455D01*
Y206497D02*Y207678D01*
X83071D01*
G54D39*X71455Y215748D02*Y216160D01*
G54D38*X102756Y215748D02*X107173D01*
X101969Y209056D02*X103543Y210630D01*
X106692D01*
X107173Y218349D02*X104724D01*
X107173Y213249D02*X109792Y210630D01*
G54D39*X94488Y203544D02*Y217717D01*
X92913Y206300D02*Y216930D01*
X90945Y218897D01*
G54D38*X78186Y232912D02*X77165Y231891D01*
X78186Y236744D02*Y232912D01*
X85986Y238227D02*Y232519D01*
X83661Y240749D02*X85986Y238227D01*
X75195Y240749D02*X83661D01*
X85986Y232519D02*X86614Y231891D01*
G54D39*X92520Y219685D02*Y247638D01*
X90945Y218897D02*Y245670D01*
X94094Y248426D02*Y220474D01*
G54D38*X114173Y200788D02*X102362D01*
X107173Y203388D02*X104569D01*
X101969Y205906D01*
Y209056D01*
X106693Y205906D02*X105118Y207481D01*
X106692Y210630D02*X109055Y208268D01*
X114567D01*
X111024Y205906D02*X106693D01*
X109792Y210630D02*X115354D01*
X120473Y202362D02*Y200788D01*
X114567Y208268D02*X120473Y202362D01*
X115354Y210630D02*X117322Y208662D01*
X126378D01*
X114173Y203388D02*X113542D01*
X111024Y205906D01*
G54D39*X104175Y233309D02*X101968Y231102D01*
G54D38*X102756Y246063D02*X107173D01*
G54D39*X95669Y230315D02*X103543Y238189D01*
X101968Y231102D02*Y226378D01*
G54D38*X104724Y223229D02*X107087Y225591D01*
G54D39*X107173Y230709D02*X105118D01*
X103937Y229528D01*
Y225197D01*
X101575Y222835D01*
Y222048D01*
G54D38*X107087Y225591D02*X109448D01*
X111811Y223229D01*
X107173Y228209D02*X109398Y228346D01*
G54D39*X100394Y224803D02*X97243D01*
X95669Y226378D01*
Y230315D01*
G54D38*X98819Y230708D02*Y227953D01*
X112154Y225590D02*X115354D01*
X109398Y228346D02*X112154Y225590D01*
X109843Y220866D02*X108268Y222441D01*
X107173Y215749D02*X114173D01*
X111024Y220867D02*X109843Y220866D01*
X114173Y218349D02*X113542D01*
X111024Y220867D01*
X104724Y218349D02*Y223229D01*
X111811D02*X114567D01*
X117322Y223622D02*X126378D01*
X120473Y217323D02*Y215749D01*
X114567Y223229D02*X120473Y217323D01*
X114173Y213249D02*X117973D01*
X120473Y215749D01*
X115354Y225590D02*X117322Y223622D01*
X114173Y228209D02*X117973D01*
X120473Y230709D01*
X86614Y212311D02*X85986Y211683D01*
X86614Y216537D02*Y212311D01*
X85986Y210624D02*Y211683D01*
X83071Y207678D02*X85986Y210624D01*
X82283Y211615D02*X89567D01*
G54D39*X94488Y217717D02*X92520Y219685D01*
X94094Y220474D02*X96063Y218504D01*
Y200789D01*
G54D40*X51968Y153348D02*Y155159D01*
X50354Y156773D01*
G54D38*X52362Y124804D02*X51968D01*
G54D40*X55820Y149496D02*X51968Y153348D01*
G54D39*X55315Y158071D02*X52401Y160985D01*
X58820Y156891D02*X53228Y162560D01*
X55315Y154726D02*Y158071D01*
X56299Y153741D02*X55315Y154726D01*
X61614Y153741D02*X56299D01*
X58820Y156891D02*X58623D01*
G54D38*X59016D02*X58820D01*
X61614Y159450D02*X59016Y156891D01*
X59449Y167324D02*X58859Y166734D01*
X59252Y167521D02*X59449Y167324D01*
X58859Y166734D02*Y162009D01*
G54D40*X51653Y146773D02*X50354D01*
X53149Y145277D02*X51653Y146773D01*
G54D42*X60863Y145277D02*X53149D01*
X64844Y141296D02*X60863Y145277D01*
G54D38*X57480Y124804D02*X62598Y129923D01*
X78739Y160829D02*X79527Y160041D01*
X78739Y164962D02*Y160829D01*
X77559Y164962D02*X81496D01*
X70939Y163460D02*X68307Y159450D01*
X70939Y164962D02*Y163460D01*
X71850Y155119D02*X66339D01*
X71850Y160237D02*Y155119D01*
X74014Y160237D02*X71850D01*
X74839Y156762D02*X75301Y156300D01*
X78739Y164962D02*X74014Y160237D01*
X75301Y156300D02*X78149D01*
G54D40*X74839Y156762D02*Y151291D01*
G54D38*X64567Y167915D02*Y162009D01*
X60826Y171655D02*X64567Y167915D01*
X28740Y138190D02*X30708Y136222D01*
X26378Y137403D02*X29527Y134253D01*
X42519D02*X29527D01*
X34252Y132285D02*X28346D01*
X24409Y151183D02*X26378Y149214D01*
X24409Y159056D02*Y151183D01*
X26666Y161313D02*X24409Y159056D01*
X28754Y161313D02*X26666D01*
X23228Y137403D02*Y140552D01*
X24803Y122442D02*X28740Y126379D01*
X28346Y132285D02*X23228Y137403D01*
X58818Y205670D02*X50354D01*
X59645Y216338D02*X53937Y210631D01*
G54D41*Y221852D02*X52559Y220474D01*
G54D38*X59645Y206497D02*X58818Y205670D01*
X6890Y193110D02*X7480Y196064D01*
X6103Y183269D02*X4527Y181694D01*
X6102Y186024D02*X6103Y183269D01*
X6102Y192322D02*X6890Y193110D01*
G54D40*X6102Y192127D02*Y192322D01*
G54D38*X4921Y192323D02*X1771Y189174D01*
X7480Y196064D02*Y202757D01*
X11811Y185041D02*Y184647D01*
G54D43*X10826Y188977D02*X6102Y187205D01*
X21653Y188976D02*X10826Y188977D01*
G54D40*X25196Y192127D02*X6102D01*
G54D43*X21653Y185041D02*Y188976D01*
G54D39*X17716Y185631D02*X23031Y180316D01*
G54D43*X27109Y179584D02*X21653Y185041D01*
G54D40*X26378Y185434D02*X37008D01*
X30324Y179584D02*X27109D01*
X28738Y188584D02*X25196Y192127D01*
X36658Y197684D02*X30324D01*
X37008Y185434D02*Y191733D01*
X25590D01*
X61417Y177560D02*X61418Y199607D01*
X48031Y177560D02*X61417D01*
X54724Y188584D02*X28738D01*
X48031Y199607D02*Y177560D01*
X61418Y199607D02*X48031D01*
X39763Y201182D02*X36658Y197684D01*
G54D38*X22047Y213781D02*X21653Y210237D01*
X25197Y212205D02*X29134Y212206D01*
X25984Y217718D02*X22047Y213781D01*
X25197Y206693D02*Y212205D01*
X20472Y206694D02*X25197Y206693D01*
G54D40*X27559Y203544D02*X28739Y208269D01*
X39763Y201182D02*X34573Y208269D01*
X39763Y201182D02*Y201183D01*
G54D38*X19685Y207481D02*X20472Y206694D01*
X12992Y208663D02*X16535D01*
X9252Y205710D02*X12992Y208663D01*
X7480Y202757D02*X9252Y205710D01*
X12992Y216930D02*Y211812D01*
X16535Y208663D02*Y215356D01*
Y208663D02*X19685Y207481D01*
X9842Y220080D02*X12992Y216930D01*
X5905Y220279D02*X9842Y220080D01*
G54D39*X45472Y149017D02*X43307Y146852D01*
X45472Y158741D02*Y149017D01*
X47716Y160985D02*X45472Y158741D01*
X52401Y160985D02*X47716D01*
X53228Y162560D02*X47677D01*
G54D41*X37992Y166340D02*X34645Y162993D01*
X43897Y166340D02*X37992D01*
G54D39*X47677Y162560D02*X43897Y166340D01*
G54D38*X50354Y166773D02*X51102Y167521D01*
X60826Y171655D02*X40472D01*
X40354Y171773D01*
Y169883D01*
X51102Y167521D02*X59252D01*
X51378Y165749D02*X50354Y166773D01*
G54D39*X17126Y167520D02*X16535Y168111D01*
X20554Y161313D02*X19987D01*
X17126Y164174D02*Y167520D01*
G54D38*X9683Y168112D02*X16535Y168111D01*
G54D39*X19987Y161313D02*X17126Y164174D01*
G54D38*X20448Y161419D02*X20554Y161313D01*
X14370Y158072D02*X20448Y161419D01*
X19593Y161313D02*X20554D01*
X15748Y153938D02*X10469D01*
X9645Y160631D02*X4956Y153938D01*
X20866Y157678D02*X19488D01*
X12992Y164174D02*X14370Y162796D01*
X8858Y164174D02*X12992D01*
X7480Y165552D02*X8858Y164174D01*
X6102D02*X9645Y160631D01*
G54D41*X34645Y162993D02*Y149411D01*
X33267Y148033D01*
G54D38*X32283Y166537D02*Y158662D01*
X20472Y151182D02*Y153431D01*
X23228Y148426D02*X20472Y151182D01*
X16929Y152757D02*Y144489D01*
X20472Y153431D02*X20554Y153513D01*
G54D39*X23031Y175789D02*X20275Y165356D01*
X23031Y180316D02*Y175789D01*
G54D38*X23228Y147245D02*Y148426D01*
X28754Y153513D02*X28740Y138190D01*
X26378Y149214D02*Y137403D01*
X19488Y157678D02*X15748Y153938D01*
X30324Y188584D02*X29920D01*
G54D40*X26378Y174850D02*X30324Y179584D01*
X26378Y172048D02*Y174850D01*
G54D38*X16929Y152757D02*X15748Y153938D01*
X28822Y157481D02*X28754Y157413D01*
X31102Y157481D02*X28822D01*
X32283Y158662D02*X31102Y157481D01*
X26772Y172048D02*X32283Y166537D01*
X26378Y172048D02*X26772D01*
X1771Y148426D02*X5329Y144489D01*
X1771Y160631D02*X4330D01*
X4565Y168112D02*X4527Y164174D01*
Y181694D02*X4565Y168112D01*
X7480Y179922D02*Y165552D01*
X4527Y164174D02*X6102D01*
G54D39*X11811Y184647D02*X7480Y179922D01*
G54D38*X1771Y189174D02*Y148426D01*
X105906Y149213D02*X104331D01*
X115354Y150787D02*X117322Y148819D01*
X126378D01*
X109792Y150787D02*X115354D01*
G54D39*X107173Y173467D02*X104963D01*
X107173Y170867D02*X105118D01*
G54D38*X95669Y172441D02*X101575Y178347D01*
G54D39*X97638Y167323D02*X100001D01*
X101969Y170473D02*Y169292D01*
X100001Y167323D01*
G54D38*X97638D02*X95669Y169292D01*
Y172441D01*
X98819Y170473D02*Y172048D01*
X102756Y175985D01*
G54D39*X104963Y173467D02*X101969Y170473D01*
G54D38*X93701Y159843D02*Y174804D01*
X104331Y149213D02*X93701Y159843D01*
G54D39*X105118Y170867D02*X103937Y169686D01*
Y168898D01*
X99213Y164174D01*
X98819D01*
G54D38*X101969D02*X103543Y165748D01*
X107173Y158506D02*X104569D01*
X101969Y161024D01*
Y164174D01*
X106693Y161024D02*X105118Y162599D01*
X103543Y165748D02*X106692D01*
X109055Y163386D01*
X114567D01*
X107173Y170867D02*X114173D01*
X107173Y168367D02*X109792Y165748D01*
X115354D01*
X111024Y161024D02*X106693D01*
X113542Y158506D02*X111024Y161024D01*
X107173Y153406D02*X109792Y150787D01*
X114173Y155906D02*X102362D01*
X120473Y157480D02*Y155906D01*
Y172441D02*Y170867D01*
X114567Y163386D02*X120473Y157480D01*
X114173Y153406D02*X117973D01*
X120473Y155906D01*
X114173Y158506D02*X113542D01*
X115354Y165748D02*X117322Y163780D01*
X126378D01*
X101575Y178347D02*X114567D01*
X111024Y175985D02*X102756D01*
X114567Y178347D02*X120473Y172441D01*
X114173Y168367D02*X117973D01*
X120473Y170867D01*
X114173Y173467D02*X113542D01*
X111024Y175985D01*
X141339Y155868D02*X132321D01*
X132283Y155906D01*
X141339Y170868D02*X132284D01*
X132283Y170867D01*
X141339Y185868D02*X132324D01*
X132283Y185827D01*
X141339Y200868D02*X132363D01*
X132283Y200788D01*
X141339Y215868D02*X132403D01*
X132283Y215748D01*
G54D40*X126378Y142126D02*Y253937D01*
G54D38*X141339Y230868D02*X132442D01*
X132283Y230709D01*
X102363Y185827D02*X100000Y188189D01*
G54D39*X90945Y200000D02*X94488Y203544D01*
G54D38*X101969Y190945D02*Y194095D01*
G54D39*X101968Y226378D02*X100394Y224803D01*
G54D38*X101969Y194095D02*X103543Y195669D01*
X93701Y174804D02*X98819Y179922D01*
G54D39*X86614Y200000D02*X92913Y206300D01*
X87008Y191733D02*Y126378D01*
X96063Y200789D02*X87008Y191733D01*
G54D38*X107173Y188427D02*X104569D01*
X101969Y190945D01*
X114173Y185827D02*X102363D01*
X120473Y187401D02*Y185827D01*
X114173Y183327D02*X117973D01*
X115354Y180708D02*X117322Y178740D01*
X126378D01*
X107173Y183327D02*X109792Y180708D01*
X115354D01*
X117973Y183327D02*X120473Y185827D01*
X106693Y190945D02*X105118Y192520D01*
X103543Y195669D02*X106692D01*
X109055Y193307D01*
X111024Y190945D02*X106693D01*
X114567Y193307D02*X120473Y187401D01*
X114173Y188427D02*X113542D01*
X111024Y190945D01*
X114173Y198288D02*X117973D01*
X120473Y200788D01*
X115354Y195669D02*X117322Y193701D01*
X107173Y198288D02*X109792Y195669D01*
X109055Y193307D02*X114567D01*
X117322Y193701D02*X126378D01*
X109792Y195669D02*X115354D01*
G54D40*X56261Y16145D02*X101261D01*
G54D38*X130709Y15748D02*X150787D01*
X118572Y26341D02*X128309D01*
X118572Y18541D02*X127916D01*
G54D39*X126772Y22441D02*X106693D01*
G54D40*X132283Y3544D02*X48896D01*
X49999Y26378D02*X52362Y28741D01*
X50394Y24016D02*X53150Y26772D01*
G54D38*X59843Y25984D02*X64173Y21654D01*
G54D40*X73229Y28741D02*X52362D01*
X51575Y30709D02*X76772D01*
X53150Y26772D02*X76772D01*
G54D38*X59843Y28741D02*Y25984D01*
G54D40*X49213Y28347D02*X51575Y30709D01*
G54D38*X133465Y55280D02*X138421D01*
X141339Y52362D01*
X126772Y52363D02*X130548D01*
X130709Y58662D02*X146062D01*
X130709Y61024D02*X150787D01*
X146062Y58662D02*X147637Y57087D01*
X130548Y52363D02*X133465Y49446D01*
X118572Y48463D02*X128310D01*
X128309Y56262D02*X130709Y58662D01*
X128310Y63423D02*X130709Y61024D01*
Y43702D02*X146062D01*
X130709Y46064D02*X150787Y46063D01*
X146062Y43702D02*X147638Y42126D01*
X118572Y56262D02*X128309D01*
X118572Y63423D02*X128310D01*
G54D39*X109449Y55119D02*X114173Y59843D01*
G54D38*X133465Y25358D02*X138343D01*
X133465Y40319D02*X138382D01*
X141339Y37362D01*
X130709Y28741D02*X146062D01*
X130709Y31103D02*X150787D01*
X146062Y28741D02*X147637Y27166D01*
X138343Y25358D02*X141339Y22362D01*
X126772Y37402D02*X130548D01*
X118572Y33502D02*X128310D01*
X130709Y31103D01*
X118572Y41302D02*X128309D01*
X130548Y37402D02*X133465Y34485D01*
X126772Y22441D02*X130548D01*
X133465Y19524D01*
X128309Y26341D02*X130709Y28741D01*
X127916Y18541D02*X130709Y15748D01*
X128309Y41302D02*X130709Y43702D01*
X128310Y48463D02*X130709Y46064D01*
G54D39*X126772Y37402D02*X97244D01*
X92520Y52363D02*X126772D01*
X92126Y55119D02*X109449D01*
X114173Y59843D02*Y65354D01*
X108662Y57481D02*X112205Y61024D01*
X114173Y65354D02*X116142Y67323D01*
X126772D01*
X106693Y22441D02*X69685Y59449D01*
X97244Y37402D02*X73228Y60630D01*
X77165Y67717D02*X92520Y52363D01*
X79134Y68112D02*X92126Y55119D01*
X94094Y57481D02*X108662D01*
G54D40*X83465Y38977D02*X81891Y40551D01*
G54D39*X82283Y69292D02*X94094Y57481D01*
G54D40*X52755Y40551D02*X81891D01*
G54D38*X50000Y52363D02*Y45670D01*
G54D39*X59449Y77560D02*X58268Y78741D01*
X59449Y56693D02*Y77560D01*
X62992Y89371D02*X68110Y94489D01*
X54725Y101182D02*X49606Y96063D01*
X62992Y84646D02*X66142D01*
X48425Y84252D02*X51575Y87402D01*
X66142Y84646D02*X70079Y88583D01*
X69685Y59449D02*Y62992D01*
X60236Y52363D02*X59055D01*
X56299Y55119D01*
Y61418D01*
X62992Y48819D02*X59449D01*
X54331Y53937D01*
Y61024D01*
X48425Y66930D01*
G54D40*X21260Y11418D02*Y7087D01*
X48896Y3544D02*X39765Y12674D01*
X34178Y7087D01*
X25591Y12599D02*X22441D01*
X9055Y7087D02*X34178D01*
G54D38*X5118Y11024D02*X9055Y7087D01*
X17127Y51540D02*Y36810D01*
X19291Y34646D01*
Y27168D01*
X19685Y26774D01*
Y16930D01*
X9056Y40945D02*X13386Y36615D01*
Y30709D01*
X7874Y36543D02*X7015D01*
G54D40*X22441Y12599D02*X21260Y11418D01*
X26378Y16930D02*Y29134D01*
X19685Y16930D02*X28635D01*
X19685D02*X14598D01*
X39765Y26378D02*Y12674D01*
Y26378D02*X49999D01*
X39764Y28347D02*X49213D01*
X39764Y24016D02*X50394D01*
G54D39*X22244Y26774D02*Y31297D01*
G54D38*X17127Y26774D02*Y23033D01*
X14961Y20867D01*
X12205D02*X10630Y22441D01*
X14961Y20867D02*X12205D01*
G54D40*X28635Y16930D02*X30278Y15287D01*
G54D38*X5118Y26701D02*Y27953D01*
X7874Y30709D01*
X14568Y26774D02*Y29527D01*
X13386Y30709D01*
X7874D01*
X7015Y36543D02*X1575Y31103D01*
Y24410D01*
X5118Y20867D01*
Y11024D01*
X10630Y22441D02*Y26772D01*
G54D40*X14598Y16930D02*X12955Y15287D01*
G54D38*X5512Y51808D02*X12205D01*
X7874Y46779D02*X9127D01*
X12205Y43701D01*
Y40945D01*
X7874D02*X9056D01*
X12205Y51808D02*X14568Y49445D01*
X17127Y51540D02*X18343Y52756D01*
X14568Y49445D02*Y44490D01*
X12205Y40945D02*X14567Y38583D01*
X16929D01*
X5512Y57642D02*X14728D01*
X14961Y54725D02*X2362D01*
X1575Y55512D01*
G54D40*X22048Y38583D02*X17323D01*
G54D38*X24410Y52989D02*X24177Y52756D01*
G54D40*X24016Y61418D02*X34252Y51182D01*
G54D38*X24410Y55906D02*Y52989D01*
G54D40*X30315Y61024D02*Y59843D01*
X27953Y60630D02*Y59056D01*
X35827Y51182D01*
G54D38*X21260Y55118D02*X20079Y56299D01*
X24177Y52756D02*Y46423D01*
X22244Y44490D01*
X19685D02*Y47638D01*
X21260Y49213D01*
Y55118D01*
X20079Y56299D02*X16535D01*
X14961Y54725D01*
X14728Y57642D02*X15748Y58662D01*
X21654D01*
X24410Y55906D01*
G54D40*X30315Y62991D02*X39765Y53541D01*
X31496Y64961D02*X42126Y54331D01*
X34645Y64961D02*X44094Y55512D01*
X30315Y59843D02*X37795Y52363D01*
X30315Y62991D02*X28742Y61418D01*
X16535Y64961D02*X34645D01*
G54D38*X1575Y55512D02*Y75592D01*
X4724Y78741D01*
X5512Y57642D02*Y59449D01*
X4331Y60630D01*
Y75197D01*
X5512Y76378D01*
X4724Y78741D02*X16141D01*
X23622Y71260D01*
X26346D01*
X26415Y71191D01*
X5512Y76378D02*X14961D01*
G54D40*X13780Y72835D02*X14173Y72442D01*
G54D38*X14961Y76378D02*X23622Y67717D01*
G54D40*X14173Y72442D02*Y67323D01*
X15354Y69292D02*X18504Y66142D01*
X22441Y64961D02*X14567Y72835D01*
G54D38*X23622Y67717D02*X30741D01*
G54D40*X9843Y69293D02*X16145Y62991D01*
X14173Y67323D02*X16535Y64961D01*
X16145Y62991D02*X30315D01*
X28742Y61418D02*X7874D01*
X7480Y61812D01*
Y63780D01*
X7874Y63386D01*
X14173D01*
X39765Y53541D02*Y48818D01*
X42126Y54331D02*Y49607D01*
X44094Y55512D02*Y50788D01*
G54D38*X47244Y57087D02*Y55119D01*
X50000Y52363D01*
G54D39*X22244Y31297D02*X39765Y48818D01*
G54D38*X45669Y41339D02*X37008D01*
X33071Y37402D01*
G54D40*X52755Y40551D02*X45277Y33071D01*
G54D38*X50000Y45670D02*X45669Y41339D01*
G54D40*X22835Y37796D02*X22048Y38583D01*
X45277Y33071D02*X30316D01*
X26378Y29134D01*
G54D39*X2578Y279721D02*X4408D01*
X5018Y279111D01*
X4408Y278501D02*X5018Y279111D01*
X2578Y278501D02*X4408D01*
X1968Y277891D02*X2578Y278501D01*
X1968Y277891D02*X2578Y277281D01*
X4408D01*
X5018Y277891D01*
X1968Y279111D02*X2578Y279721D01*
X7092Y274841D02*Y279111D01*
X7702Y279721D01*
X6482Y276671D02*X7702D01*
X8922Y277281D02*Y279111D01*
X9532Y279721D01*
X10752D01*
X11362Y279111D01*
Y277281D02*Y279111D01*
X15266Y274841D02*Y279721D01*
X14656D02*X15266Y279111D01*
X13436Y279721D02*X14656D01*
X12826Y279111D02*X13436Y279721D01*
X12826Y277891D02*Y279111D01*
Y277891D02*X13436Y277281D01*
X14656D01*
X15266Y277891D01*
X17340Y279721D02*X19170D01*
X16730Y279111D02*X17340Y279721D01*
X16730Y277891D02*Y279111D01*
Y277891D02*X17340Y277281D01*
X18560D01*
X19170Y277891D01*
X16730Y278501D02*X19170D01*
Y277891D02*Y278501D01*
X21244Y277891D02*Y279721D01*
Y277891D02*X21854Y277281D01*
X22464D01*
X23074Y277891D01*
Y279721D01*
X20634Y277281D02*X21244Y277891D01*
X25148Y274841D02*Y279111D01*
X25758Y279721D01*
X24538Y276671D02*X25758D01*
X27588Y277891D02*Y279721D01*
Y277891D02*X28198Y277281D01*
X29418D01*
X26978D02*X27588Y277891D01*
X30882D02*Y279111D01*
Y277891D02*X31492Y277281D01*
X32712D01*
X33322Y277891D01*
Y279111D01*
X32712Y279721D02*X33322Y279111D01*
X31492Y279721D02*X32712D01*
X30882Y279111D02*X31492Y279721D01*
X34786Y274841D02*Y279721D01*
Y279111D02*X35396Y279721D01*
X36616D01*
X37226Y279111D01*
Y277891D02*Y279111D01*
X36616Y277281D02*X37226Y277891D01*
X35396Y277281D02*X36616D01*
X34786Y277891D02*X35396Y277281D01*
X38690Y277891D02*Y279111D01*
Y277891D02*X39300Y277281D01*
X40520D01*
X41130Y277891D01*
Y279111D01*
X40520Y279721D02*X41130Y279111D01*
X39300Y279721D02*X40520D01*
X38690Y279111D02*X39300Y279721D01*
X43204Y274841D02*Y279111D01*
X43814Y279721D01*
X42594Y276671D02*X43814D01*
X45034Y276061D02*Y276671D01*
Y277891D02*Y279721D01*
X46864Y277281D02*X48694D01*
X46254Y277891D02*X46864Y277281D01*
X46254Y277891D02*Y279111D01*
X46864Y279721D01*
X48694D01*
X50768D02*X52598D01*
X53208Y279111D01*
X52598Y278501D02*X53208Y279111D01*
X50768Y278501D02*X52598D01*
X50158Y277891D02*X50768Y278501D01*
X50158Y277891D02*X50768Y277281D01*
X52598D01*
X53208Y277891D01*
X50158Y279111D02*X50768Y279721D01*
X54672D02*X55282D01*
X56746Y277891D02*Y279111D01*
Y277891D02*X57356Y277281D01*
X58576D01*
X59186Y277891D01*
Y279111D01*
X58576Y279721D02*X59186Y279111D01*
X57356Y279721D02*X58576D01*
X56746Y279111D02*X57356Y279721D01*
X61260Y277891D02*Y279721D01*
Y277891D02*X61870Y277281D01*
X63090D01*
X60650D02*X61260Y277891D01*
X66384Y277281D02*X66994Y277891D01*
X65164Y277281D02*X66384D01*
X64554Y277891D02*X65164Y277281D01*
X64554Y277891D02*Y279111D01*
X65164Y279721D01*
X66384D01*
X66994Y279111D01*
X64554Y280941D02*X65164Y281551D01*
X66384D01*
X66994Y280941D01*
Y277281D02*Y280941D01*
G54D44*X141339Y127362D03*
Y155868D03*
Y170868D03*
G54D37*G36*
X4008Y100638D02*Y94638D01*
X10008D01*
Y100638D01*
X4008D01*
G37*
G54D45*X17008Y97638D03*
G54D37*G36*
X4009Y117174D02*Y111174D01*
X10009D01*
Y117174D01*
X4009D01*
G37*
G54D45*X27008Y97638D03*
X37008D03*
X17009Y114174D03*
X27009D03*
X37009D03*
X47009D03*
X50354Y136773D03*
Y146773D03*
X40354Y141773D03*
Y161773D03*
Y151773D03*
G54D37*G36*
X37354Y174773D02*Y168773D01*
X43354D01*
Y174773D01*
X37354D01*
G37*
G54D45*X50354Y156773D03*
Y166773D03*
G54D44*X141339Y67362D03*
Y82362D03*
Y97362D03*
Y112362D03*
Y22362D03*
Y37362D03*
Y52362D03*
X56261Y16145D03*
X71261D03*
X86261D03*
X101261D03*
X101220Y267323D03*
X86220D03*
X71220D03*
X56220D03*
X141339Y260868D03*
Y185868D03*
Y200868D03*
Y215868D03*
Y230868D03*
Y245868D03*
G54D45*X50354Y205670D03*
X40354Y210670D03*
X50354Y225670D03*
X40354Y230670D03*
Y220670D03*
X50354Y215670D03*
G54D37*G36*
X37354Y243670D02*Y237670D01*
X43354D01*
Y243670D01*
X37354D01*
G37*
G54D45*X50354Y235670D03*
G54D46*X40340Y127979D02*Y124779D01*
G54D47*X57802Y125288D02*Y124320D01*
X51968Y125288D02*Y124320D01*
G54D48*X53286Y109153D02*X53886D01*
X61486Y113053D02*X62086D01*
X61486Y105253D02*X62086D01*
G54D47*X57802Y131194D02*Y130226D01*
X51968Y131194D02*Y130226D01*
G54D49*X9843Y87993D02*Y84450D01*
G54D50*X27024Y179584D02*X33624D01*
G54D51*X5709Y186024D02*X6495D01*
G54D50*X27024Y188584D02*X33624D01*
X27024Y197684D02*X33624D01*
G54D52*X54724Y193084D02*Y184084D01*
G54D53*X27954Y161313D02*X29554D01*
X27954Y157413D02*X29554D01*
X27954Y153513D02*X29554D01*
X19754Y157413D02*X21354D01*
X19754Y161313D02*X21354D01*
G54D46*X28740Y127979D02*Y124779D01*
G54D53*X19754Y153513D02*X21354D01*
G54D46*X16929Y146089D02*Y142889D01*
X5329Y146089D02*Y142889D01*
G54D47*X10164Y161115D02*Y160147D01*
X10397Y154422D02*Y153454D01*
X10398Y168595D02*Y167627D01*
X4330Y161115D02*Y160147D01*
X4563Y154422D02*Y153454D01*
X4564Y168595D02*Y167627D01*
G54D51*X5709Y193110D02*X6495D01*
G54D54*X3602Y215161D02*X8208D01*
X3602Y217720D02*X8208D01*
X3602Y220279D02*X8208D01*
X3602Y222838D02*X8208D01*
X3602Y225396D02*X8208D01*
G54D47*X4633Y244418D02*X5601D01*
X4633Y238584D02*X5601D01*
G54D54*X3602Y227955D02*X8208D01*
X26830D02*X31436D01*
X3602Y230514D02*X8208D01*
X3602Y233073D02*X8208D01*
X26830D02*X31436D01*
X26830Y230514D02*X31436D01*
X26830Y225396D02*X31436D01*
X26830Y222838D02*X31436D01*
X26830Y220279D02*X31436D01*
X26830Y217720D02*X31436D01*
X26830Y215161D02*X31436D01*
G54D47*X34573Y208753D02*Y207785D01*
X28739Y208753D02*Y207785D01*
G54D48*X64844Y141596D02*Y140996D01*
X57044Y141596D02*Y140996D01*
X60944Y149796D02*Y149196D01*
G54D47*X64083Y156372D02*X65051D01*
X64083Y162206D02*X65051D01*
X58661Y167808D02*Y166840D01*
X64495Y167808D02*Y166840D01*
X58375Y156372D02*X59343D01*
X58375Y162206D02*X59343D01*
G54D51*X59645Y229529D02*Y227167D01*
Y208859D02*Y206497D01*
Y218110D02*Y215748D01*
Y239371D02*Y237009D01*
G54D48*X78186Y237044D02*Y236444D01*
X85986Y237044D02*Y236444D01*
X82086Y228844D02*Y228244D01*
X85986Y211983D02*Y211383D01*
X78186Y211983D02*Y211383D01*
G54D51*X71455Y218110D02*Y215748D01*
G54D48*X82086Y220183D02*Y219583D01*
G54D51*X71455Y229529D02*Y227167D01*
Y239371D02*Y237009D01*
G54D55*X106173Y243563D02*X108173D01*
X106173Y246063D02*X108173D01*
X106173Y248663D02*X108173D01*
X109603Y269109D02*Y267109D01*
Y262109D02*Y260109D01*
X112203Y269109D02*Y267109D01*
Y262109D02*Y260109D01*
X114703Y269109D02*Y267109D01*
Y262109D02*Y260109D01*
G54D51*X120473Y263779D02*Y258269D01*
X132283Y263779D02*Y258269D01*
Y248818D02*Y243308D01*
Y233464D02*Y227954D01*
X120473Y218503D02*Y212993D01*
X132283Y218503D02*Y212993D01*
G54D55*X113173Y248663D02*X115173D01*
X113173Y246063D02*X115173D01*
X113173Y243563D02*X115173D01*
G54D51*X120473Y248818D02*Y243308D01*
G54D55*X113173Y233309D02*X115173D01*
X113173Y230709D02*X115173D01*
X113173Y228209D02*X115173D01*
X106173D02*X108173D01*
X106173Y230709D02*X108173D01*
X106173Y233309D02*X108173D01*
G54D51*X120473Y233464D02*Y227954D01*
G54D48*X118272Y18541D02*X118872D01*
G54D51*X70474Y28741D02*X75984D01*
G54D48*X118272Y33502D02*X118872D01*
X118272Y26341D02*X118872D01*
X126472Y37402D02*X127072D01*
X126472Y22441D02*X127072D01*
G54D47*X132981Y25358D02*X133949D01*
X132981Y19524D02*X133949D01*
X132981Y40319D02*X133949D01*
X132981Y34485D02*X133949D01*
G54D48*X118272Y41302D02*X118872D01*
X118272Y48463D02*X118872D01*
G54D49*X9843Y71064D02*Y67521D01*
G54D48*X26415Y71491D02*Y70891D01*
X34215Y71491D02*Y70891D01*
X30315Y63291D02*Y62691D01*
G54D51*X70474Y40551D02*X75984D01*
X57088D02*X62598D01*
G54D47*X4634Y20867D02*X5602D01*
X7390Y30709D02*X8358D01*
X7390Y36543D02*X8358D01*
G54D56*X35631Y26378D02*X43899D01*
G54D54*X22244Y29077D02*Y24471D01*
X19685Y29077D02*Y24471D01*
X17127Y29077D02*Y24471D01*
X14568Y29077D02*Y24471D01*
G54D47*X7390Y40945D02*X8358D01*
G54D51*X57088Y28741D02*X62598D01*
G54D47*X4634Y26701D02*X5602D01*
G54D48*X16855Y7387D02*Y6787D01*
X9055Y7387D02*Y6787D01*
X12955Y15587D02*Y14987D01*
X34178Y7387D02*Y6787D01*
X30278Y15587D02*Y14987D01*
X26378Y7387D02*Y6787D01*
G54D56*X35631Y48818D02*X43899D01*
G54D51*X34646Y87007D02*Y81497D01*
X22836Y87007D02*Y81497D01*
G54D47*X7390Y46779D02*X8358D01*
G54D54*X14568Y46793D02*Y42187D01*
X17127Y46793D02*Y42187D01*
X19685Y46793D02*Y42187D01*
X22244Y46793D02*Y42187D01*
G54D47*X18343Y53240D02*Y52272D01*
X24177Y53240D02*Y52272D01*
X5028Y51808D02*X5996D01*
X11721D02*X12689D01*
X5028Y57642D02*X5996D01*
X11721D02*X12689D01*
G54D51*X120473Y203543D02*Y198033D01*
X132283Y203543D02*Y198033D01*
X120473Y188582D02*Y183072D01*
X132283Y188582D02*Y183072D01*
G54D55*X113173Y218348D02*X115173D01*
X113173Y215748D02*X115173D01*
X113173Y213248D02*X115173D01*
X106173D02*X108173D01*
X106173Y215748D02*X108173D01*
X106173Y218348D02*X108173D01*
X113173Y203388D02*X115173D01*
X113173Y200788D02*X115173D01*
X106173Y198288D02*X108173D01*
X106173Y200788D02*X108173D01*
X106173Y203388D02*X108173D01*
X113173Y183327D02*X115173D01*
X113173Y173467D02*X115173D01*
X113173Y170867D02*X115173D01*
X113173Y168367D02*X115173D01*
X113173Y158506D02*X115173D01*
X113173Y155906D02*X115173D01*
X113173Y153406D02*X115173D01*
G54D51*X120473Y158661D02*Y153151D01*
X132283Y158661D02*Y153151D01*
X120473Y173622D02*Y168112D01*
X132283Y173622D02*Y168112D01*
G54D55*X113173Y198288D02*X115173D01*
X113173Y188427D02*X115173D01*
X113173Y185827D02*X115173D01*
X106173Y183327D02*X108173D01*
X106173Y185827D02*X108173D01*
X106173Y188427D02*X108173D01*
G54D51*X71455Y208859D02*Y206497D01*
G54D55*X106173Y168367D02*X108173D01*
X106173Y170867D02*X108173D01*
X106173Y173467D02*X108173D01*
X106173Y153406D02*X108173D01*
X106173Y155906D02*X108173D01*
X106173Y158506D02*X108173D01*
G54D48*X70939Y165262D02*Y164662D01*
X78739Y165262D02*Y164662D01*
X74839Y157062D02*Y156462D01*
G54D47*X132981Y85201D02*X133949D01*
X132981Y100162D02*X133949D01*
X132981Y94328D02*X133949D01*
G54D48*X126472Y97245D02*X127072D01*
X118272Y86184D02*X118872D01*
X118272Y93345D02*X118872D01*
G54D47*X132981Y79367D02*X133949D01*
X67429Y113387D02*X68397D01*
X67429Y107553D02*X68397D01*
X72941Y113387D02*X73909D01*
X72941Y107553D02*X73909D01*
X132981Y130476D02*X133949D01*
X132981Y124642D02*X133949D01*
G54D48*X118272Y101145D02*X118872D01*
X118272Y108305D02*X118872D01*
G54D47*X132981Y115122D02*X133949D01*
X132981Y109288D02*X133949D01*
G54D48*X126472Y112205D02*X127072D01*
X118272Y116105D02*X118872D01*
X118272Y123659D02*X118872D01*
X118272Y131459D02*X118872D01*
X126472Y127559D02*X127072D01*
G54D47*X132981Y55280D02*X133949D01*
X132981Y49446D02*X133949D01*
G54D48*X126472Y82284D02*X127072D01*
X118272Y63423D02*X118872D01*
X118272Y56263D02*X118872D01*
G54D47*X132981Y70240D02*X133949D01*
X132981Y64406D02*X133949D01*
G54D48*X126472Y67323D02*X127072D01*
X118272Y78384D02*X118872D01*
X118272Y71223D02*X118872D01*
X126472Y52363D02*X127072D01*
G54D57*X77165Y231891D03*
G54D58*X75984Y222836D03*
G54D57*X86614Y216537D03*
X77165D03*
X86614Y231891D03*
X87402Y224410D03*
G54D59*X102362Y200788D03*
X90945Y200000D03*
X105118Y207481D03*
X108268Y222441D03*
X98819Y227953D03*
X102756Y215748D03*
X101575Y222048D03*
X98819Y179922D03*
X105906Y149213D03*
X109055Y141733D03*
Y132284D03*
X86614Y200000D03*
X150787Y90945D03*
Y75985D03*
Y61024D03*
Y46063D03*
Y31103D03*
X147638Y27166D03*
Y42126D03*
Y57087D03*
Y72048D03*
Y87008D03*
X150787Y15748D03*
X132283Y3544D03*
X127164D03*
X83465Y38977D03*
X94094Y29528D03*
Y22441D03*
X91339Y48426D03*
X105512Y90945D03*
Y82284D03*
Y73622D03*
X101181Y77953D03*
Y86615D03*
X105512Y64961D03*
X101181Y60630D03*
Y69292D03*
X77165Y63386D03*
X82283Y74016D03*
Y69292D03*
X150787Y121260D03*
Y105906D03*
X147638Y133465D03*
Y101969D03*
Y116930D03*
X137795Y148426D03*
X126378Y146457D03*
Y142126D03*
X117717Y141733D03*
X151968Y253544D03*
Y238189D03*
Y223229D03*
Y208268D03*
Y193701D03*
Y178741D03*
Y163780D03*
Y147638D03*
G54D57*X79527Y160041D03*
X67716Y117915D03*
X72244Y147245D03*
X79330Y148820D03*
X74839Y151291D03*
X57086Y136615D03*
X62204Y117915D03*
G54D58*X43307Y146852D03*
G54D57*X64567Y129923D03*
X65748Y135040D03*
G54D59*X82283Y126772D03*
X84252Y118898D03*
X65748Y149607D03*
X57874Y35040D03*
G54D45*X26378Y172048D03*
G54D57*X14370Y158072D03*
Y162796D03*
X68700Y159450D03*
X23228Y147245D03*
X3543Y137403D03*
X23228Y140552D03*
G54D59*X105118Y162599D03*
X102362Y155906D03*
X105118Y192520D03*
X98819Y170473D03*
Y164174D03*
X100000Y188189D03*
G54D57*X20275Y165356D03*
X40551Y180710D03*
X45275D03*
Y185434D03*
Y190159D03*
Y194883D03*
G54D58*X33267Y148033D03*
G54D57*X63189Y177757D03*
Y183072D03*
Y188387D03*
Y193702D03*
Y199017D03*
X66732Y191143D03*
Y196458D03*
X12992Y211812D03*
X11811Y185041D03*
G54D59*X10630Y26772D03*
X33071Y37402D03*
X24016Y76378D03*
X31890Y92914D03*
X30709Y33071D03*
X22835Y37796D03*
X27165Y29922D03*
X16929Y82284D03*
X2756Y83071D03*
Y89371D03*
X2362Y39764D03*
Y46457D03*
X18110Y33465D03*
X16929Y38583D03*
G54D57*X22047Y109844D03*
G54D59*X45276Y88189D03*
X43701Y81497D03*
Y76772D03*
X73228Y91536D03*
X54724Y94489D03*
X51575Y90552D03*
X73228Y72835D03*
X62992Y74410D03*
X73228Y79134D03*
X56299Y74804D03*
X55906Y70473D03*
X58268Y78741D03*
X62992Y89371D03*
Y84646D03*
X73228Y85434D03*
X62992Y79528D03*
X73228Y60630D03*
X62598Y61418D03*
X55906Y66142D03*
X59449Y56693D03*
X62992Y48819D03*
X60236Y52363D03*
X50787Y56693D03*
X64173Y21654D03*
X47244Y18504D03*
X19685Y16930D03*
X22835Y20079D03*
X21260Y7087D03*
Y11418D03*
X25591Y12599D03*
G54D45*X39763Y201182D03*
G54D57*X27559Y203544D03*
X15354Y234253D03*
X9842Y237796D03*
X22441Y218899D03*
X17716Y220080D03*
X22441Y223623D03*
X21653Y210237D03*
G54D58*X5905Y206300D03*
X3149Y210828D03*
G54D57*X17716Y185631D03*
X40551Y185434D03*
Y190159D03*
X61220Y246655D03*
X33267Y244096D03*
X28543Y244686D03*
X13386Y226379D03*
X17716Y224804D03*
G54D59*X5512Y256300D03*
G54D57*X29527Y238584D03*
X54921Y252954D03*
X58071Y249804D03*
G54D59*X97244Y240158D03*
X105118Y252757D03*
X110630Y273622D03*
X105118Y259843D03*
X100000Y248819D03*
X98819Y257874D03*
X94094Y278347D03*
X84646D03*
X74803D03*
G54D42*G54D60*G54D42*G54D60*G54D61*G54D42*G54D60*G54D42*G54D60*G54D42*G54D60*G54D61*G54D42*G54D60*G54D42*G54D60*G54D62*G54D63*G54D64*G54D63*G54D61*G54D64*G54D62*G54D61*G54D64*M02*
