G04 start of page 3 for group 1 idx 1 *
G04 Title: (unknown), solder *
G04 Creator: pcb 1.99z *
G04 CreationDate: Wed 16 Feb 2011 18:30:27 GMT UTC *
G04 For: rbarlow *
G04 Format: Gerber/RS-274X *
G04 PCB-Dimensions: 157480 283465 *
G04 PCB-Coordinate-Origin: lower left *
%MOIN*%
%FSLAX25Y25*%
%LNBACK*%
%ADD11C,0.0200*%
%ADD12C,0.0100*%
%ADD13C,0.0250*%
%ADD15C,0.0098*%
%ADD16C,0.0079*%
%ADD18C,0.0945*%
%ADD19C,0.0600*%
%ADD20C,0.0360*%
%ADD21C,0.0360*%
%ADD22C,0.0354*%
%ADD24R,0.0283X0.0283*%
%ADD25R,0.0340X0.0340*%
%ADD31C,0.0472*%
%ADD32C,0.0380*%
%ADD33C,0.1280*%
%ADD34C,0.0350*%
%ADD35C,0.0197*%
%ADD36C,0.0150*%
%ADD37R,0.0530X0.0530*%
%ADD38R,0.0689X0.0689*%
%ADD39R,0.0560X0.0560*%
%ADD40R,0.0512X0.0512*%
%ADD41R,0.1220X0.1220*%
%ADD42R,0.0240X0.0240*%
%ADD43R,0.0130X0.0130*%
%ADD44R,0.0150X0.0150*%
%ADD45R,0.0669X0.0669*%
G54D11*G36*
X0Y8662D02*Y61418D01*
X75D01*
Y55512D01*
X93Y55277D01*
X148Y55048D01*
X238Y54831D01*
X361Y54630D01*
X514Y54451D01*
X521Y54445D01*
X1295Y53671D01*
X1301Y53664D01*
X1480Y53511D01*
X1681Y53388D01*
X1898Y53298D01*
X2127Y53243D01*
X2362Y53225D01*
X2628D01*
Y53224D01*
X2640Y50238D01*
X2676Y50088D01*
X2735Y49945D01*
X2816Y49814D01*
X2916Y49696D01*
X3034Y49596D01*
X3165Y49515D01*
X3308Y49456D01*
X3458Y49420D01*
X3612Y49408D01*
X5512Y49414D01*
Y49063D01*
X5396Y48991D01*
X5278Y48891D01*
X5178Y48773D01*
X5097Y48642D01*
X5038Y48499D01*
X5002Y48349D01*
X4990Y48195D01*
X5002Y45209D01*
X5038Y45059D01*
X5097Y44916D01*
X5178Y44785D01*
X5278Y44667D01*
X5396Y44567D01*
X5512Y44495D01*
Y43229D01*
X5396Y43157D01*
X5278Y43057D01*
X5178Y42939D01*
X5097Y42808D01*
X5038Y42665D01*
X5002Y42515D01*
X4990Y42361D01*
X5002Y39375D01*
X5038Y39225D01*
X5097Y39082D01*
X5178Y38951D01*
X5278Y38833D01*
X5383Y38744D01*
X5278Y38655D01*
X5178Y38537D01*
X5097Y38406D01*
X5038Y38263D01*
X5002Y38113D01*
X4990Y37959D01*
X4995Y36645D01*
X514Y32164D01*
X361Y31985D01*
X238Y31784D01*
X147Y31567D01*
X92Y31338D01*
X74Y31103D01*
Y24410D01*
X93Y24175D01*
X148Y23946D01*
X238Y23729D01*
X361Y23528D01*
X514Y23349D01*
X521Y23343D01*
X2237Y21627D01*
X2246Y19297D01*
X2282Y19147D01*
X2341Y19004D01*
X2422Y18873D01*
X2522Y18755D01*
X2640Y18655D01*
X2771Y18574D01*
X2914Y18515D01*
X3064Y18479D01*
X3218Y18467D01*
X3617Y18468D01*
Y11024D01*
X3636Y10789D01*
X3691Y10560D01*
X3781Y10343D01*
X3904Y10142D01*
X4057Y9963D01*
X4064Y9957D01*
X5359Y8662D01*
X0D01*
G37*
G36*
X115354Y0D02*X0D01*
Y10630D01*
X3674D01*
X3691Y10560D01*
X3781Y10343D01*
X3904Y10142D01*
X4057Y9963D01*
X4064Y9957D01*
X5859Y8162D01*
X5873Y4852D01*
X5928Y4623D01*
X6018Y4406D01*
X6141Y4205D01*
X6294Y4026D01*
X6473Y3873D01*
X6674Y3750D01*
X6891Y3660D01*
X7120Y3605D01*
X7355Y3587D01*
X10990Y3605D01*
X11219Y3660D01*
X11436Y3750D01*
X11637Y3873D01*
X11816Y4026D01*
X11969Y4205D01*
X12092Y4406D01*
X12182Y4623D01*
X12233Y4837D01*
X13677D01*
X13728Y4623D01*
X13818Y4406D01*
X13941Y4205D01*
X14094Y4026D01*
X14273Y3873D01*
X14474Y3750D01*
X14691Y3660D01*
X14920Y3605D01*
X15155Y3587D01*
X18790Y3605D01*
X19019Y3660D01*
X19236Y3750D01*
X19437Y3873D01*
X19616Y4026D01*
X19769Y4205D01*
X19892Y4406D01*
X19982Y4623D01*
X19983Y4628D01*
X20002Y4617D01*
X20403Y4451D01*
X20826Y4349D01*
X21260Y4315D01*
X21694Y4349D01*
X22117Y4451D01*
X22518Y4617D01*
X22878Y4837D01*
X23200D01*
X23251Y4623D01*
X23341Y4406D01*
X23464Y4205D01*
X23617Y4026D01*
X23796Y3873D01*
X23997Y3750D01*
X24214Y3660D01*
X24443Y3605D01*
X24678Y3587D01*
X28313Y3605D01*
X28542Y3660D01*
X28759Y3750D01*
X28960Y3873D01*
X29139Y4026D01*
X29292Y4205D01*
X29415Y4406D01*
X29505Y4623D01*
X29556Y4837D01*
X31000D01*
X31051Y4623D01*
X31141Y4406D01*
X31264Y4205D01*
X31417Y4026D01*
X31596Y3873D01*
X31797Y3750D01*
X32014Y3660D01*
X32243Y3605D01*
X32478Y3587D01*
X36113Y3605D01*
X36342Y3660D01*
X36559Y3750D01*
X36760Y3873D01*
X36939Y4026D01*
X37092Y4205D01*
X37215Y4406D01*
X37305Y4623D01*
X37360Y4852D01*
X37378Y5087D01*
X37369Y7098D01*
X39764Y9493D01*
X47305Y1953D01*
X47573Y1724D01*
X47875Y1539D01*
X48201Y1404D01*
X48284Y1384D01*
X48545Y1321D01*
X48869Y1296D01*
X48896Y1294D01*
X115354D01*
Y0D01*
G37*
G36*
X137886Y145661D02*X138229Y145688D01*
X138376Y145724D01*
X146924Y137176D01*
Y136135D01*
X146781Y136101D01*
X146380Y135935D01*
X146009Y135708D01*
X145678Y135425D01*
X145395Y135094D01*
X145317Y134966D01*
X137886D01*
Y145661D01*
G37*
G36*
X157480Y229134D02*Y0D01*
X137886D01*
Y17826D01*
X137983Y17743D01*
X138747Y17275D01*
X139575Y16932D01*
X140446Y16723D01*
X141339Y16653D01*
X142232Y16723D01*
X143103Y16932D01*
X143931Y17275D01*
X144695Y17743D01*
X145376Y18325D01*
X145958Y19006D01*
X146426Y19770D01*
X146769Y20598D01*
X146978Y21469D01*
X147048Y22362D01*
X146978Y23255D01*
X146769Y24126D01*
X146565Y24620D01*
X146781Y24530D01*
X147204Y24428D01*
X147638Y24394D01*
X148072Y24428D01*
X148495Y24530D01*
X148896Y24696D01*
X149267Y24923D01*
X149598Y25206D01*
X149881Y25537D01*
X150108Y25908D01*
X150274Y26309D01*
X150376Y26732D01*
X150410Y27166D01*
X150376Y27600D01*
X150274Y28023D01*
X150108Y28424D01*
X149881Y28795D01*
X149598Y29126D01*
X149267Y29409D01*
X148896Y29636D01*
X148495Y29802D01*
X148072Y29904D01*
X147638Y29938D01*
X147204Y29904D01*
X147048Y29866D01*
X146944Y29955D01*
X146743Y30078D01*
X146526Y30169D01*
X146297Y30224D01*
X146062Y30242D01*
X137886D01*
Y32826D01*
X137983Y32743D01*
X138747Y32275D01*
X139575Y31932D01*
X140446Y31723D01*
X141339Y31653D01*
X142232Y31723D01*
X143103Y31932D01*
X143931Y32275D01*
X144695Y32743D01*
X145376Y33325D01*
X145958Y34006D01*
X146426Y34770D01*
X146769Y35598D01*
X146978Y36469D01*
X147048Y37362D01*
X146978Y38255D01*
X146769Y39126D01*
X146585Y39571D01*
X146781Y39490D01*
X147204Y39388D01*
X147638Y39354D01*
X148072Y39388D01*
X148495Y39490D01*
X148896Y39656D01*
X149267Y39883D01*
X149598Y40166D01*
X149881Y40497D01*
X150108Y40868D01*
X150274Y41269D01*
X150376Y41692D01*
X150410Y42126D01*
X150376Y42560D01*
X150274Y42983D01*
X150108Y43384D01*
X149881Y43755D01*
X149598Y44086D01*
X149267Y44369D01*
X148896Y44596D01*
X148495Y44762D01*
X148072Y44864D01*
X147638Y44898D01*
X147204Y44864D01*
X147049Y44827D01*
X146944Y44916D01*
X146743Y45039D01*
X146526Y45130D01*
X146297Y45185D01*
X146062Y45203D01*
X137886D01*
Y47826D01*
X137983Y47743D01*
X138747Y47275D01*
X139575Y46932D01*
X140446Y46723D01*
X141339Y46653D01*
X142232Y46723D01*
X143103Y46932D01*
X143931Y47275D01*
X144695Y47743D01*
X145376Y48325D01*
X145958Y49006D01*
X146426Y49770D01*
X146769Y50598D01*
X146978Y51469D01*
X147048Y52362D01*
X146978Y53255D01*
X146769Y54126D01*
X146604Y54524D01*
X146781Y54451D01*
X147204Y54349D01*
X147638Y54315D01*
X148072Y54349D01*
X148495Y54451D01*
X148896Y54617D01*
X149267Y54844D01*
X149598Y55127D01*
X149881Y55458D01*
X150108Y55829D01*
X150274Y56230D01*
X150376Y56653D01*
X150410Y57087D01*
X150376Y57521D01*
X150274Y57944D01*
X150108Y58345D01*
X149881Y58716D01*
X149598Y59047D01*
X149267Y59330D01*
X148896Y59557D01*
X148495Y59723D01*
X148072Y59825D01*
X147638Y59859D01*
X147204Y59825D01*
X147048Y59787D01*
X146944Y59876D01*
X146743Y59999D01*
X146526Y60090D01*
X146297Y60145D01*
X146062Y60163D01*
X137886D01*
Y62826D01*
X137983Y62743D01*
X138747Y62275D01*
X139575Y61932D01*
X140446Y61723D01*
X141339Y61653D01*
X142232Y61723D01*
X143103Y61932D01*
X143931Y62275D01*
X144695Y62743D01*
X145376Y63325D01*
X145958Y64006D01*
X146426Y64770D01*
X146769Y65598D01*
X146978Y66469D01*
X147048Y67362D01*
X146978Y68255D01*
X146769Y69126D01*
X146624Y69477D01*
X146781Y69412D01*
X147204Y69310D01*
X147638Y69276D01*
X148072Y69310D01*
X148495Y69412D01*
X148896Y69578D01*
X149267Y69805D01*
X149598Y70088D01*
X149881Y70419D01*
X150108Y70790D01*
X150274Y71191D01*
X150376Y71614D01*
X150410Y72048D01*
X150376Y72482D01*
X150274Y72905D01*
X150108Y73306D01*
X149881Y73677D01*
X149598Y74008D01*
X149267Y74291D01*
X148896Y74518D01*
X148495Y74684D01*
X148072Y74786D01*
X147638Y74820D01*
X147204Y74786D01*
X147049Y74749D01*
X146945Y74837D01*
X146744Y74960D01*
X146527Y75051D01*
X146298Y75106D01*
X146063Y75124D01*
X137886D01*
Y77826D01*
X137983Y77743D01*
X138747Y77275D01*
X139575Y76932D01*
X140446Y76723D01*
X141339Y76653D01*
X142232Y76723D01*
X143103Y76932D01*
X143931Y77275D01*
X144695Y77743D01*
X145376Y78325D01*
X145958Y79006D01*
X146426Y79770D01*
X146769Y80598D01*
X146978Y81469D01*
X147048Y82362D01*
X146978Y83255D01*
X146769Y84126D01*
X146644Y84429D01*
X146781Y84372D01*
X147204Y84270D01*
X147638Y84236D01*
X148072Y84270D01*
X148495Y84372D01*
X148896Y84538D01*
X149267Y84765D01*
X149598Y85048D01*
X149881Y85379D01*
X150108Y85750D01*
X150274Y86151D01*
X150376Y86574D01*
X150410Y87008D01*
X150376Y87442D01*
X150274Y87865D01*
X150108Y88266D01*
X149881Y88637D01*
X149598Y88968D01*
X149267Y89251D01*
X148896Y89478D01*
X148495Y89644D01*
X148072Y89746D01*
X147638Y89780D01*
X147204Y89746D01*
X147049Y89709D01*
X146945Y89797D01*
X146744Y89920D01*
X146527Y90011D01*
X146298Y90066D01*
X146063Y90084D01*
X137886D01*
Y92826D01*
X137983Y92743D01*
X138747Y92275D01*
X139575Y91932D01*
X140446Y91723D01*
X141339Y91653D01*
X142232Y91723D01*
X143103Y91932D01*
X143931Y92275D01*
X144695Y92743D01*
X145376Y93325D01*
X145958Y94006D01*
X146426Y94770D01*
X146769Y95598D01*
X146978Y96469D01*
X147048Y97362D01*
X146978Y98255D01*
X146769Y99126D01*
X146663Y99382D01*
X146781Y99333D01*
X147204Y99231D01*
X147638Y99197D01*
X148072Y99231D01*
X148495Y99333D01*
X148896Y99499D01*
X149267Y99726D01*
X149598Y100009D01*
X149881Y100340D01*
X150108Y100711D01*
X150274Y101112D01*
X150376Y101535D01*
X150410Y101969D01*
X150376Y102403D01*
X150274Y102826D01*
X150108Y103227D01*
X149881Y103598D01*
X149598Y103929D01*
X149267Y104212D01*
X148896Y104439D01*
X148495Y104605D01*
X148072Y104707D01*
X147638Y104741D01*
X147204Y104707D01*
X147048Y104669D01*
X146944Y104758D01*
X146743Y104881D01*
X146526Y104972D01*
X146297Y105027D01*
X146062Y105045D01*
X137886D01*
Y107826D01*
X137983Y107743D01*
X138747Y107275D01*
X139575Y106932D01*
X140446Y106723D01*
X141339Y106653D01*
X142232Y106723D01*
X143103Y106932D01*
X143931Y107275D01*
X144695Y107743D01*
X145376Y108325D01*
X145958Y109006D01*
X146426Y109770D01*
X146769Y110598D01*
X146978Y111469D01*
X147048Y112362D01*
X146978Y113255D01*
X146769Y114126D01*
X146683Y114335D01*
X146781Y114294D01*
X147204Y114192D01*
X147638Y114158D01*
X148072Y114192D01*
X148495Y114294D01*
X148896Y114460D01*
X149267Y114687D01*
X149598Y114970D01*
X149881Y115301D01*
X150108Y115672D01*
X150274Y116073D01*
X150376Y116496D01*
X150410Y116930D01*
X150376Y117364D01*
X150274Y117787D01*
X150108Y118188D01*
X149881Y118559D01*
X149598Y118890D01*
X149267Y119173D01*
X148896Y119400D01*
X148495Y119566D01*
X148072Y119668D01*
X147638Y119702D01*
X147204Y119668D01*
X147056Y119632D01*
X146736Y119952D01*
X146730Y119959D01*
X146551Y120112D01*
X146350Y120235D01*
X146133Y120325D01*
X145904Y120380D01*
X145670Y120398D01*
X137886D01*
Y122826D01*
X137983Y122743D01*
X138747Y122275D01*
X139575Y121932D01*
X140446Y121723D01*
X141339Y121653D01*
X142232Y121723D01*
X143103Y121932D01*
X143931Y122275D01*
X144695Y122743D01*
X145376Y123325D01*
X145958Y124006D01*
X146426Y124770D01*
X146769Y125598D01*
X146978Y126469D01*
X147048Y127362D01*
X146978Y128255D01*
X146769Y129126D01*
X146426Y129954D01*
X145958Y130718D01*
X145376Y131399D01*
X144713Y131965D01*
X145316D01*
X145395Y131836D01*
X145678Y131505D01*
X146009Y131222D01*
X146380Y130995D01*
X146781Y130829D01*
X147204Y130727D01*
X147638Y130693D01*
X148072Y130727D01*
X148495Y130829D01*
X148896Y130995D01*
X149267Y131222D01*
X149598Y131505D01*
X149881Y131836D01*
X150108Y132207D01*
X150274Y132608D01*
X150376Y133031D01*
X150410Y133465D01*
X150376Y133899D01*
X150274Y134322D01*
X150108Y134723D01*
X149925Y135022D01*
Y137797D01*
X149924Y137805D01*
X149908Y138031D01*
X149853Y138260D01*
X149762Y138477D01*
X149639Y138678D01*
X149486Y138857D01*
X149479Y138863D01*
X140497Y147845D01*
X140533Y147992D01*
X140567Y148426D01*
X140533Y148860D01*
X140431Y149283D01*
X140265Y149684D01*
X140038Y150055D01*
X139755Y150386D01*
X139741Y150398D01*
X140446Y150229D01*
X141339Y150159D01*
X142232Y150229D01*
X143103Y150438D01*
X143931Y150781D01*
X144695Y151249D01*
X145376Y151831D01*
X145958Y152512D01*
X146426Y153276D01*
X146769Y154104D01*
X146978Y154975D01*
X147048Y155868D01*
X146978Y156761D01*
X146769Y157632D01*
X146426Y158460D01*
X145958Y159224D01*
X145376Y159905D01*
X144695Y160487D01*
X143931Y160955D01*
X143103Y161298D01*
X142232Y161507D01*
X141339Y161577D01*
X140446Y161507D01*
X139575Y161298D01*
X138747Y160955D01*
X137983Y160487D01*
X137886Y160404D01*
Y166332D01*
X137983Y166249D01*
X138747Y165781D01*
X139575Y165438D01*
X140446Y165229D01*
X141339Y165159D01*
X142232Y165229D01*
X143103Y165438D01*
X143931Y165781D01*
X144695Y166249D01*
X145376Y166831D01*
X145958Y167512D01*
X146426Y168276D01*
X146769Y169104D01*
X146978Y169975D01*
X147048Y170868D01*
X146978Y171761D01*
X146769Y172632D01*
X146426Y173460D01*
X145958Y174224D01*
X145376Y174905D01*
X144695Y175487D01*
X143931Y175955D01*
X143103Y176298D01*
X142232Y176507D01*
X141339Y176577D01*
X140446Y176507D01*
X139575Y176298D01*
X138747Y175955D01*
X137983Y175487D01*
X137886Y175404D01*
Y181332D01*
X137983Y181249D01*
X138747Y180781D01*
X139575Y180438D01*
X140446Y180229D01*
X141339Y180159D01*
X142232Y180229D01*
X143103Y180438D01*
X143931Y180781D01*
X144695Y181249D01*
X145376Y181831D01*
X145958Y182512D01*
X146426Y183276D01*
X146769Y184104D01*
X146978Y184975D01*
X147048Y185868D01*
X146978Y186761D01*
X146769Y187632D01*
X146426Y188460D01*
X145958Y189224D01*
X145376Y189905D01*
X144695Y190487D01*
X143931Y190955D01*
X143103Y191298D01*
X142232Y191507D01*
X141339Y191577D01*
X140446Y191507D01*
X139575Y191298D01*
X138747Y190955D01*
X137983Y190487D01*
X137886Y190404D01*
Y196332D01*
X137983Y196249D01*
X138747Y195781D01*
X139575Y195438D01*
X140446Y195229D01*
X141339Y195159D01*
X142232Y195229D01*
X143103Y195438D01*
X143931Y195781D01*
X144695Y196249D01*
X145376Y196831D01*
X145958Y197512D01*
X146426Y198276D01*
X146769Y199104D01*
X146978Y199975D01*
X147048Y200868D01*
X146978Y201761D01*
X146769Y202632D01*
X146426Y203460D01*
X145958Y204224D01*
X145376Y204905D01*
X144695Y205487D01*
X143931Y205955D01*
X143103Y206298D01*
X142232Y206507D01*
X141339Y206577D01*
X140446Y206507D01*
X139575Y206298D01*
X138747Y205955D01*
X137983Y205487D01*
X137886Y205404D01*
Y211332D01*
X137983Y211249D01*
X138747Y210781D01*
X139575Y210438D01*
X140446Y210229D01*
X141339Y210159D01*
X142232Y210229D01*
X143103Y210438D01*
X143931Y210781D01*
X144695Y211249D01*
X145376Y211831D01*
X145958Y212512D01*
X146426Y213276D01*
X146769Y214104D01*
X146978Y214975D01*
X147048Y215868D01*
X146978Y216761D01*
X146769Y217632D01*
X146426Y218460D01*
X145958Y219224D01*
X145376Y219905D01*
X144695Y220487D01*
X143931Y220955D01*
X143103Y221298D01*
X142232Y221507D01*
X141339Y221577D01*
X140446Y221507D01*
X139575Y221298D01*
X138747Y220955D01*
X137983Y220487D01*
X137886Y220404D01*
Y226332D01*
X137983Y226249D01*
X138747Y225781D01*
X139575Y225438D01*
X140446Y225229D01*
X141339Y225159D01*
X142232Y225229D01*
X143103Y225438D01*
X143931Y225781D01*
X144695Y226249D01*
X145376Y226831D01*
X145958Y227512D01*
X146426Y228276D01*
X146769Y229104D01*
X146776Y229134D01*
X157480D01*
G37*
G36*
X137886Y160404D02*X137302Y159905D01*
X136720Y159224D01*
X136252Y158460D01*
X135909Y157632D01*
X135846Y157369D01*
X135834D01*
X135830Y161376D01*
X135793Y161529D01*
X135733Y161674D01*
X135651Y161808D01*
X135549Y161927D01*
X135430Y162029D01*
X135296Y162111D01*
X135151Y162171D01*
X134998Y162208D01*
X134842Y162220D01*
X129568Y162208D01*
X129415Y162171D01*
X129270Y162111D01*
X129136Y162029D01*
X129017Y161927D01*
X128915Y161808D01*
X128833Y161674D01*
X128773Y161529D01*
X128736Y161376D01*
X128724Y161220D01*
X128736Y150436D01*
X128773Y150283D01*
X128833Y150138D01*
X128915Y150004D01*
X129017Y149885D01*
X129136Y149783D01*
X129270Y149701D01*
X129415Y149641D01*
X129568Y149604D01*
X129724Y149592D01*
X134998Y149604D01*
X135151Y149641D01*
X135296Y149701D01*
X135359Y149740D01*
X135325Y149684D01*
X135159Y149283D01*
X135057Y148860D01*
X135023Y148426D01*
X135057Y147992D01*
X135159Y147569D01*
X135325Y147168D01*
X135552Y146797D01*
X135835Y146466D01*
X136166Y146183D01*
X136537Y145956D01*
X136938Y145790D01*
X137361Y145688D01*
X137795Y145654D01*
X137886Y145661D01*
Y134966D01*
X130315Y134967D01*
X130098Y134949D01*
X130080Y134948D01*
X129851Y134893D01*
X129634Y134803D01*
X129433Y134680D01*
X129254Y134527D01*
X127687Y132959D01*
X122056D01*
X122054Y133394D01*
X121999Y133623D01*
X121909Y133840D01*
X121786Y134041D01*
X121633Y134220D01*
X121454Y134373D01*
X121253Y134496D01*
X121036Y134586D01*
X120807Y134641D01*
X120572Y134659D01*
X116337Y134641D01*
X116108Y134586D01*
X115891Y134496D01*
X115690Y134373D01*
X115511Y134220D01*
X115358Y134041D01*
X115235Y133840D01*
X115145Y133623D01*
X115090Y133394D01*
X115072Y133159D01*
X115077Y132160D01*
X105284Y122367D01*
X86221D01*
X85986Y122349D01*
X85757Y122294D01*
X85540Y122204D01*
X85339Y122081D01*
X85160Y121928D01*
X84833Y121601D01*
X84686Y121636D01*
X84252Y121670D01*
X84247D01*
X87982Y125404D01*
X88124Y125568D01*
X88237Y125752D01*
X88319Y125952D01*
X88370Y126162D01*
X88387Y126378D01*
X88385Y126403D01*
Y191162D01*
X97037Y199815D01*
X97179Y199979D01*
X97292Y200163D01*
X97374Y200363D01*
X97425Y200573D01*
X97442Y200789D01*
X97441Y200802D01*
Y218505D01*
X97425Y218720D01*
X97375Y218930D01*
X97292Y219130D01*
X97179Y219315D01*
X97038Y219479D01*
X97031Y219485D01*
X95472Y221045D01*
Y224626D01*
X96268Y223829D01*
X96351Y223759D01*
X96433Y223688D01*
X96617Y223575D01*
X96817Y223492D01*
X97027Y223442D01*
X97243Y223425D01*
X99178D01*
X99105Y223306D01*
X98939Y222905D01*
X98837Y222482D01*
X98803Y222048D01*
X98837Y221614D01*
X98939Y221191D01*
X99105Y220790D01*
X99332Y220419D01*
X99615Y220088D01*
X99946Y219805D01*
X100317Y219578D01*
X100718Y219412D01*
X101141Y219310D01*
X101575Y219276D01*
X102009Y219310D01*
X102432Y219412D01*
X102833Y219578D01*
X103204Y219805D01*
X103224Y219822D01*
Y218478D01*
X103190Y218486D01*
X102756Y218520D01*
X102322Y218486D01*
X101899Y218384D01*
X101498Y218218D01*
X101127Y217991D01*
X100796Y217708D01*
X100513Y217377D01*
X100286Y217006D01*
X100120Y216605D01*
X100018Y216182D01*
X99984Y215748D01*
X100018Y215314D01*
X100120Y214891D01*
X100286Y214490D01*
X100513Y214119D01*
X100796Y213788D01*
X101127Y213505D01*
X101498Y213278D01*
X101899Y213112D01*
X102322Y213010D01*
X102756Y212976D01*
X103190Y213010D01*
X103613Y213112D01*
X103931Y213244D01*
X103941Y212263D01*
X103973Y212130D01*
X103543D01*
X103308Y212112D01*
X103079Y212057D01*
X102862Y211967D01*
X102661Y211844D01*
X102482Y211691D01*
X100908Y210117D01*
X100755Y209938D01*
X100632Y209737D01*
X100542Y209520D01*
X100487Y209291D01*
X100469Y209056D01*
Y205906D01*
X100470Y205896D01*
X100469Y205883D01*
X100479Y205772D01*
X100487Y205671D01*
X100490Y205658D01*
X100491Y205648D01*
X100512Y205566D01*
X100542Y205442D01*
X100548Y205427D01*
X100550Y205420D01*
X100574Y205364D01*
X100632Y205225D01*
X100639Y205214D01*
X100643Y205204D01*
X100697Y205119D01*
X100755Y205024D01*
X100765Y205012D01*
X100769Y205006D01*
X100807Y204963D01*
X100908Y204845D01*
X100920Y204835D01*
X100925Y204829D01*
X102245Y203551D01*
X101928Y203526D01*
X101505Y203424D01*
X101104Y203258D01*
X100733Y203031D01*
X100402Y202748D01*
X100119Y202417D01*
X99892Y202046D01*
X99726Y201645D01*
X99624Y201222D01*
X99590Y200788D01*
X99624Y200354D01*
X99726Y199931D01*
X99892Y199530D01*
X100119Y199159D01*
X100402Y198828D01*
X100733Y198545D01*
X101104Y198318D01*
X101505Y198152D01*
X101928Y198050D01*
X102362Y198016D01*
X102796Y198050D01*
X103219Y198152D01*
X103620Y198318D01*
X103929Y198507D01*
X103941Y197303D01*
X103973Y197169D01*
X103543D01*
X103308Y197151D01*
X103079Y197096D01*
X102862Y197006D01*
X102661Y196883D01*
X102482Y196730D01*
X100908Y195156D01*
X100755Y194977D01*
X100632Y194776D01*
X100542Y194559D01*
X100487Y194330D01*
X100469Y194095D01*
Y190945D01*
X100470Y190934D01*
X100469Y190922D01*
Y190918D01*
X100434Y190927D01*
X100000Y190961D01*
X99566Y190927D01*
X99143Y190825D01*
X98742Y190659D01*
X98371Y190432D01*
X98040Y190149D01*
X97757Y189818D01*
X97530Y189447D01*
X97364Y189046D01*
X97262Y188623D01*
X97228Y188189D01*
X97262Y187755D01*
X97364Y187332D01*
X97530Y186931D01*
X97757Y186560D01*
X98040Y186229D01*
X98371Y185946D01*
X98742Y185719D01*
X99143Y185553D01*
X99566Y185451D01*
X100000Y185417D01*
X100434Y185451D01*
X100582Y185487D01*
X101296Y184773D01*
X101302Y184766D01*
X101481Y184613D01*
X101682Y184490D01*
X101899Y184400D01*
X102128Y184345D01*
X102363Y184327D01*
X103945D01*
X103941Y184312D01*
X103923Y184077D01*
X103941Y182342D01*
X103996Y182113D01*
X104086Y181896D01*
X104209Y181695D01*
X104362Y181516D01*
X104541Y181363D01*
X104742Y181240D01*
X104959Y181150D01*
X105188Y181095D01*
X105423Y181077D01*
X107293Y181086D01*
X108532Y179847D01*
X101575D01*
X101340Y179829D01*
X101111Y179774D01*
X100894Y179684D01*
X100693Y179561D01*
X100514Y179408D01*
X94608Y173502D01*
X94455Y173323D01*
X94332Y173122D01*
X94242Y172905D01*
X94187Y172676D01*
X94169Y172441D01*
Y169292D01*
X94187Y169057D01*
X94242Y168828D01*
X94332Y168611D01*
X94455Y168410D01*
X94608Y168231D01*
X94615Y168225D01*
X96577Y166263D01*
X96757Y166109D01*
X96823Y166068D01*
X96589Y165794D01*
X96363Y165425D01*
X96198Y165026D01*
X96097Y164605D01*
X96063Y164174D01*
X96097Y163743D01*
X96198Y163322D01*
X96363Y162923D01*
X96589Y162554D01*
X96870Y162225D01*
X97199Y161944D01*
X97568Y161718D01*
X97967Y161553D01*
X98388Y161452D01*
X98819Y161418D01*
X99250Y161452D01*
X99671Y161553D01*
X100070Y161718D01*
X100439Y161944D01*
X100469Y161970D01*
Y161024D01*
X100470Y161014D01*
X100469Y161001D01*
X100479Y160890D01*
X100487Y160789D01*
X100490Y160776D01*
X100491Y160766D01*
X100512Y160684D01*
X100542Y160560D01*
X100548Y160545D01*
X100550Y160538D01*
X100574Y160482D01*
X100632Y160343D01*
X100639Y160332D01*
X100643Y160322D01*
X100697Y160237D01*
X100755Y160142D01*
X100765Y160130D01*
X100769Y160124D01*
X100807Y160081D01*
X100908Y159963D01*
X100920Y159953D01*
X100925Y159947D01*
X102245Y158669D01*
X101928Y158644D01*
X101505Y158542D01*
X101104Y158376D01*
X100733Y158149D01*
X100402Y157866D01*
X100119Y157535D01*
X99892Y157164D01*
X99726Y156763D01*
X99624Y156340D01*
X99590Y155906D01*
X99624Y155472D01*
X99726Y155049D01*
X99892Y154648D01*
X100119Y154277D01*
X100402Y153946D01*
X100733Y153663D01*
X101104Y153436D01*
X101505Y153270D01*
X101928Y153168D01*
X102362Y153134D01*
X102796Y153168D01*
X103219Y153270D01*
X103620Y153436D01*
X103929Y153625D01*
X103941Y152421D01*
X103996Y152192D01*
X104086Y151975D01*
X104209Y151774D01*
X104362Y151595D01*
X104541Y151442D01*
X104742Y151319D01*
X104959Y151229D01*
X105188Y151174D01*
X105423Y151156D01*
X107293Y151165D01*
X108725Y149733D01*
X108731Y149726D01*
X108910Y149573D01*
X109111Y149450D01*
X109328Y149360D01*
X109557Y149305D01*
X109792Y149287D01*
X114733D01*
X116255Y147765D01*
X116261Y147758D01*
X116440Y147605D01*
X116641Y147482D01*
X116858Y147392D01*
X117087Y147337D01*
X117322Y147319D01*
X123744D01*
X123742Y147314D01*
X123640Y146891D01*
X123606Y146457D01*
X123640Y146023D01*
X123742Y145600D01*
X123908Y145199D01*
X124127Y144841D01*
Y143742D01*
X123908Y143384D01*
X123742Y142983D01*
X123640Y142560D01*
X123606Y142126D01*
X123640Y141692D01*
X123742Y141269D01*
X123908Y140868D01*
X124135Y140497D01*
X124418Y140166D01*
X124749Y139883D01*
X125120Y139656D01*
X125521Y139490D01*
X125944Y139388D01*
X126378Y139354D01*
X126812Y139388D01*
X127235Y139490D01*
X127636Y139656D01*
X128007Y139883D01*
X128338Y140166D01*
X128621Y140497D01*
X128848Y140868D01*
X129014Y141269D01*
X129116Y141692D01*
X129150Y142126D01*
X129116Y142560D01*
X129014Y142983D01*
X128848Y143384D01*
X128628Y143744D01*
Y144839D01*
X128848Y145199D01*
X129014Y145600D01*
X129116Y146023D01*
X129150Y146457D01*
X129116Y146891D01*
X129014Y147314D01*
X128848Y147715D01*
X128628Y148075D01*
Y229134D01*
X128732D01*
X128736Y225239D01*
X128773Y225086D01*
X128833Y224941D01*
X128915Y224807D01*
X129017Y224688D01*
X129136Y224586D01*
X129270Y224504D01*
X129415Y224444D01*
X129568Y224407D01*
X129724Y224395D01*
X134998Y224407D01*
X135151Y224444D01*
X135296Y224504D01*
X135430Y224586D01*
X135549Y224688D01*
X135651Y224807D01*
X135733Y224941D01*
X135793Y225086D01*
X135830Y225239D01*
X135842Y225395D01*
X135838Y229134D01*
X135902D01*
X135909Y229104D01*
X136252Y228276D01*
X136720Y227512D01*
X137302Y226831D01*
X137886Y226332D01*
Y220404D01*
X137302Y219905D01*
X136720Y219224D01*
X136252Y218460D01*
X135909Y217632D01*
X135846Y217368D01*
X135834D01*
X135830Y221218D01*
X135793Y221371D01*
X135733Y221516D01*
X135651Y221650D01*
X135549Y221769D01*
X135430Y221871D01*
X135296Y221953D01*
X135151Y222013D01*
X134998Y222050D01*
X134842Y222062D01*
X129568Y222050D01*
X129415Y222013D01*
X129270Y221953D01*
X129136Y221871D01*
X129017Y221769D01*
X128915Y221650D01*
X128833Y221516D01*
X128773Y221371D01*
X128736Y221218D01*
X128724Y221062D01*
X128736Y210278D01*
X128773Y210125D01*
X128833Y209980D01*
X128915Y209846D01*
X129017Y209727D01*
X129136Y209625D01*
X129270Y209543D01*
X129415Y209483D01*
X129568Y209446D01*
X129724Y209434D01*
X134998Y209446D01*
X135151Y209483D01*
X135296Y209543D01*
X135430Y209625D01*
X135549Y209727D01*
X135651Y209846D01*
X135733Y209980D01*
X135793Y210125D01*
X135830Y210278D01*
X135842Y210434D01*
X135837Y214368D01*
X135846D01*
X135909Y214104D01*
X136252Y213276D01*
X136720Y212512D01*
X137302Y211831D01*
X137886Y211332D01*
Y205404D01*
X137302Y204905D01*
X136720Y204224D01*
X136252Y203460D01*
X135909Y202632D01*
X135846Y202368D01*
X135834D01*
X135830Y206258D01*
X135793Y206411D01*
X135733Y206556D01*
X135651Y206690D01*
X135549Y206809D01*
X135430Y206911D01*
X135296Y206993D01*
X135151Y207053D01*
X134998Y207090D01*
X134842Y207102D01*
X129568Y207090D01*
X129415Y207053D01*
X129270Y206993D01*
X129136Y206911D01*
X129017Y206809D01*
X128915Y206690D01*
X128833Y206556D01*
X128773Y206411D01*
X128736Y206258D01*
X128724Y206102D01*
X128736Y195318D01*
X128773Y195165D01*
X128833Y195020D01*
X128915Y194886D01*
X129017Y194767D01*
X129136Y194665D01*
X129270Y194583D01*
X129415Y194523D01*
X129568Y194486D01*
X129724Y194474D01*
X134998Y194486D01*
X135151Y194523D01*
X135296Y194583D01*
X135430Y194665D01*
X135549Y194767D01*
X135651Y194886D01*
X135733Y195020D01*
X135793Y195165D01*
X135830Y195318D01*
X135842Y195474D01*
X135837Y199368D01*
X135846D01*
X135909Y199104D01*
X136252Y198276D01*
X136720Y197512D01*
X137302Y196831D01*
X137886Y196332D01*
Y190404D01*
X137302Y189905D01*
X136720Y189224D01*
X136252Y188460D01*
X135909Y187632D01*
X135846Y187369D01*
X135834D01*
X135830Y191297D01*
X135793Y191450D01*
X135733Y191595D01*
X135651Y191729D01*
X135549Y191848D01*
X135430Y191950D01*
X135296Y192032D01*
X135151Y192092D01*
X134998Y192129D01*
X134842Y192141D01*
X129568Y192129D01*
X129415Y192092D01*
X129270Y192032D01*
X129136Y191950D01*
X129017Y191848D01*
X128915Y191729D01*
X128833Y191595D01*
X128773Y191450D01*
X128736Y191297D01*
X128724Y191141D01*
X128736Y180357D01*
X128773Y180204D01*
X128833Y180059D01*
X128915Y179925D01*
X129017Y179806D01*
X129136Y179704D01*
X129270Y179622D01*
X129415Y179562D01*
X129568Y179525D01*
X129724Y179513D01*
X134998Y179525D01*
X135151Y179562D01*
X135296Y179622D01*
X135430Y179704D01*
X135549Y179806D01*
X135651Y179925D01*
X135733Y180059D01*
X135793Y180204D01*
X135830Y180357D01*
X135842Y180513D01*
X135838Y184368D01*
X135846D01*
X135909Y184104D01*
X136252Y183276D01*
X136720Y182512D01*
X137302Y181831D01*
X137886Y181332D01*
Y175404D01*
X137302Y174905D01*
X136720Y174224D01*
X136252Y173460D01*
X135909Y172632D01*
X135846Y172369D01*
X135834D01*
X135830Y176337D01*
X135793Y176490D01*
X135733Y176635D01*
X135651Y176769D01*
X135549Y176888D01*
X135430Y176990D01*
X135296Y177072D01*
X135151Y177132D01*
X134998Y177169D01*
X134842Y177181D01*
X129568Y177169D01*
X129415Y177132D01*
X129270Y177072D01*
X129136Y176990D01*
X129017Y176888D01*
X128915Y176769D01*
X128833Y176635D01*
X128773Y176490D01*
X128736Y176337D01*
X128724Y176181D01*
X128736Y165397D01*
X128773Y165244D01*
X128833Y165099D01*
X128915Y164965D01*
X129017Y164846D01*
X129136Y164744D01*
X129270Y164662D01*
X129415Y164602D01*
X129568Y164565D01*
X129724Y164553D01*
X134998Y164565D01*
X135151Y164602D01*
X135296Y164662D01*
X135430Y164744D01*
X135549Y164846D01*
X135651Y164965D01*
X135733Y165099D01*
X135793Y165244D01*
X135830Y165397D01*
X135842Y165553D01*
X135838Y169368D01*
X135846D01*
X135909Y169104D01*
X136252Y168276D01*
X136720Y167512D01*
X137302Y166831D01*
X137886Y166332D01*
Y160404D01*
G37*
G36*
Y120398D02*X130709D01*
X130474Y120380D01*
X130245Y120325D01*
X130028Y120235D01*
X129827Y120112D01*
X129648Y119959D01*
X127688Y117999D01*
X122054D01*
Y118040D01*
X121999Y118269D01*
X121909Y118486D01*
X121786Y118687D01*
X121633Y118866D01*
X121454Y119019D01*
X121253Y119142D01*
X121036Y119232D01*
X120807Y119287D01*
X120572Y119305D01*
X116337Y119287D01*
X116108Y119232D01*
X115891Y119142D01*
X115690Y119019D01*
X115511Y118866D01*
X115358Y118687D01*
X115235Y118486D01*
X115145Y118269D01*
X115090Y118040D01*
X115072Y117805D01*
X115090Y114170D01*
X115145Y113941D01*
X115235Y113724D01*
X115358Y113523D01*
X115511Y113344D01*
X115631Y113241D01*
X115560Y113180D01*
X113976Y111596D01*
Y123840D01*
X115074Y124938D01*
X115090Y121724D01*
X115145Y121495D01*
X115235Y121278D01*
X115358Y121077D01*
X115511Y120898D01*
X115690Y120745D01*
X115891Y120622D01*
X116108Y120532D01*
X116337Y120477D01*
X116572Y120459D01*
X120807Y120477D01*
X121036Y120532D01*
X121253Y120622D01*
X121454Y120745D01*
X121633Y120898D01*
X121786Y121077D01*
X121909Y121278D01*
X121999Y121495D01*
X122054Y121724D01*
X122072Y121959D01*
X122054Y125594D01*
X121999Y125823D01*
X121909Y126040D01*
X121823Y126181D01*
X123287D01*
X123290Y125624D01*
X123345Y125395D01*
X123435Y125178D01*
X123558Y124977D01*
X123711Y124798D01*
X123890Y124645D01*
X124091Y124522D01*
X124308Y124432D01*
X124537Y124377D01*
X124772Y124359D01*
X129007Y124377D01*
X129236Y124432D01*
X129453Y124522D01*
X129654Y124645D01*
X129833Y124798D01*
X129986Y124977D01*
X130109Y125178D01*
X130199Y125395D01*
X130254Y125624D01*
X130262Y125724D01*
X130584Y125402D01*
X130593Y123072D01*
X130629Y122922D01*
X130688Y122779D01*
X130769Y122648D01*
X130869Y122530D01*
X130987Y122430D01*
X131118Y122349D01*
X131261Y122290D01*
X131411Y122254D01*
X131565Y122242D01*
X135519Y122254D01*
X135669Y122290D01*
X135812Y122349D01*
X135943Y122430D01*
X136061Y122530D01*
X136161Y122648D01*
X136242Y122779D01*
X136301Y122922D01*
X136337Y123072D01*
X136349Y123226D01*
X136343Y124621D01*
X136720Y124006D01*
X137302Y123325D01*
X137886Y122826D01*
Y120398D01*
G37*
G36*
Y105045D02*X130709D01*
X130474Y105026D01*
X130245Y104971D01*
X130028Y104881D01*
X129827Y104758D01*
X129648Y104605D01*
X127688Y102645D01*
X122056D01*
X122054Y103080D01*
X121999Y103309D01*
X121909Y103526D01*
X121786Y103727D01*
X121633Y103906D01*
X121454Y104059D01*
X121253Y104182D01*
X121036Y104272D01*
X120807Y104327D01*
X120572Y104345D01*
X116337Y104327D01*
X116108Y104272D01*
X115891Y104182D01*
X115690Y104059D01*
X115551Y103940D01*
Y105510D01*
X115690Y105391D01*
X115891Y105268D01*
X116108Y105178D01*
X116337Y105123D01*
X116572Y105105D01*
X120807Y105123D01*
X121036Y105178D01*
X121253Y105268D01*
X121454Y105391D01*
X121633Y105544D01*
X121786Y105723D01*
X121909Y105924D01*
X121999Y106141D01*
X122054Y106370D01*
X122072Y106605D01*
X122054Y110240D01*
X121999Y110469D01*
X121909Y110686D01*
X121823Y110827D01*
X123287D01*
X123290Y110270D01*
X123345Y110041D01*
X123435Y109824D01*
X123558Y109623D01*
X123711Y109444D01*
X123890Y109291D01*
X124091Y109168D01*
X124308Y109078D01*
X124537Y109023D01*
X124772Y109005D01*
X129007Y109023D01*
X129236Y109078D01*
X129453Y109168D01*
X129654Y109291D01*
X129833Y109444D01*
X129986Y109623D01*
X130109Y109824D01*
X130199Y110041D01*
X130254Y110270D01*
X130262Y110370D01*
X130584Y110048D01*
X130593Y107718D01*
X130629Y107568D01*
X130688Y107425D01*
X130769Y107294D01*
X130869Y107176D01*
X130987Y107076D01*
X131118Y106995D01*
X131261Y106936D01*
X131411Y106900D01*
X131565Y106888D01*
X135519Y106900D01*
X135669Y106936D01*
X135812Y106995D01*
X135943Y107076D01*
X136061Y107176D01*
X136161Y107294D01*
X136242Y107425D01*
X136301Y107568D01*
X136337Y107718D01*
X136349Y107872D01*
X136342Y109623D01*
X136720Y109006D01*
X137302Y108325D01*
X137886Y107826D01*
Y105045D01*
G37*
G36*
Y90084D02*X130709D01*
X130474Y90065D01*
X130245Y90010D01*
X130028Y89920D01*
X129827Y89797D01*
X129648Y89644D01*
X127688Y87684D01*
X122056D01*
X122054Y88119D01*
X121999Y88348D01*
X121909Y88565D01*
X121786Y88766D01*
X121633Y88945D01*
X121454Y89098D01*
X121253Y89221D01*
X121036Y89311D01*
X120807Y89366D01*
X120572Y89384D01*
X116337Y89366D01*
X116108Y89311D01*
X115891Y89221D01*
X115690Y89098D01*
X115511Y88945D01*
X115358Y88766D01*
X115235Y88565D01*
X115145Y88348D01*
X115090Y88119D01*
X115072Y87884D01*
X115090Y84249D01*
X115145Y84020D01*
X115235Y83803D01*
X115358Y83602D01*
X115462Y83480D01*
X115332Y83400D01*
X115167Y83259D01*
X111230Y79322D01*
X111140Y79215D01*
X111090Y79157D01*
X110977Y78973D01*
X110894Y78773D01*
X110844Y78563D01*
X110827Y78347D01*
Y61596D01*
X108090Y58859D01*
X104273D01*
X104364Y59008D01*
X104578Y59526D01*
X104709Y60071D01*
X104753Y60630D01*
X104709Y61189D01*
X104578Y61734D01*
X104483Y61964D01*
X104532Y61944D01*
X105016Y61828D01*
X105512Y61789D01*
X106008Y61828D01*
X106492Y61944D01*
X106952Y62135D01*
X107376Y62395D01*
X107755Y62718D01*
X108078Y63097D01*
X108338Y63521D01*
X108529Y63981D01*
X108645Y64465D01*
X108684Y64961D01*
X108645Y65457D01*
X108529Y65941D01*
X108338Y66401D01*
X108078Y66825D01*
X107755Y67204D01*
X107376Y67527D01*
X106952Y67787D01*
X106492Y67978D01*
X106008Y68094D01*
X105512Y68133D01*
X105016Y68094D01*
X104532Y67978D01*
X104222Y67849D01*
X104388Y68250D01*
X104511Y68765D01*
X104553Y69292D01*
X104511Y69819D01*
X104388Y70334D01*
X104222Y70734D01*
X104532Y70605D01*
X105016Y70489D01*
X105512Y70450D01*
X106008Y70489D01*
X106492Y70605D01*
X106952Y70796D01*
X107376Y71056D01*
X107755Y71379D01*
X108078Y71758D01*
X108338Y72182D01*
X108529Y72642D01*
X108645Y73126D01*
X108684Y73622D01*
X108645Y74118D01*
X108529Y74602D01*
X108338Y75062D01*
X108078Y75486D01*
X107755Y75865D01*
X107376Y76188D01*
X106952Y76448D01*
X106492Y76639D01*
X106008Y76755D01*
X105512Y76794D01*
X105016Y76755D01*
X104532Y76639D01*
X104222Y76510D01*
X104388Y76911D01*
X104511Y77426D01*
X104553Y77953D01*
X104511Y78480D01*
X104388Y78995D01*
X104222Y79396D01*
X104532Y79267D01*
X105016Y79151D01*
X105512Y79112D01*
X106008Y79151D01*
X106492Y79267D01*
X106952Y79458D01*
X107376Y79718D01*
X107755Y80041D01*
X108078Y80420D01*
X108338Y80844D01*
X108529Y81304D01*
X108645Y81788D01*
X108684Y82284D01*
X108645Y82780D01*
X108529Y83264D01*
X108338Y83724D01*
X108078Y84148D01*
X107755Y84527D01*
X107376Y84850D01*
X106952Y85110D01*
X106492Y85301D01*
X106008Y85417D01*
X105512Y85456D01*
X105016Y85417D01*
X104532Y85301D01*
X104222Y85172D01*
X104388Y85573D01*
X104511Y86088D01*
X104553Y86615D01*
X104511Y87142D01*
X104388Y87657D01*
X104222Y88057D01*
X104532Y87928D01*
X105016Y87812D01*
X105512Y87773D01*
X106008Y87812D01*
X106492Y87928D01*
X106952Y88119D01*
X107376Y88379D01*
X107755Y88702D01*
X108078Y89081D01*
X108338Y89505D01*
X108529Y89965D01*
X108645Y90449D01*
X108684Y90945D01*
X108645Y91441D01*
X108529Y91925D01*
X108338Y92385D01*
X108078Y92809D01*
X107755Y93188D01*
X107376Y93511D01*
X106952Y93771D01*
X106492Y93962D01*
X106008Y94078D01*
X105512Y94117D01*
X105108Y94085D01*
X104508Y94685D01*
X113778D01*
X113994Y94701D01*
X114204Y94751D01*
X114404Y94834D01*
X114589Y94947D01*
X114753Y95088D01*
X114765Y95102D01*
X115136Y95473D01*
X115090Y95280D01*
X115072Y95045D01*
X115090Y91410D01*
X115145Y91181D01*
X115235Y90964D01*
X115358Y90763D01*
X115511Y90584D01*
X115690Y90431D01*
X115891Y90308D01*
X116108Y90218D01*
X116337Y90163D01*
X116572Y90145D01*
X120807Y90163D01*
X121036Y90218D01*
X121253Y90308D01*
X121454Y90431D01*
X121633Y90584D01*
X121786Y90763D01*
X121909Y90964D01*
X121999Y91181D01*
X122054Y91410D01*
X122072Y91645D01*
X122054Y95280D01*
X121999Y95509D01*
X121909Y95726D01*
X121823Y95867D01*
X123287D01*
X123290Y95310D01*
X123345Y95081D01*
X123435Y94864D01*
X123558Y94663D01*
X123711Y94484D01*
X123890Y94331D01*
X124091Y94208D01*
X124308Y94118D01*
X124537Y94063D01*
X124772Y94045D01*
X129007Y94063D01*
X129236Y94118D01*
X129453Y94208D01*
X129654Y94331D01*
X129833Y94484D01*
X129986Y94663D01*
X130109Y94864D01*
X130199Y95081D01*
X130254Y95310D01*
X130262Y95410D01*
X130584Y95088D01*
X130593Y92758D01*
X130629Y92608D01*
X130688Y92465D01*
X130769Y92334D01*
X130869Y92216D01*
X130987Y92116D01*
X131118Y92035D01*
X131261Y91976D01*
X131411Y91940D01*
X131565Y91928D01*
X135519Y91940D01*
X135669Y91976D01*
X135812Y92035D01*
X135943Y92116D01*
X136061Y92216D01*
X136161Y92334D01*
X136242Y92465D01*
X136301Y92608D01*
X136337Y92758D01*
X136349Y92912D01*
X136342Y94623D01*
X136720Y94006D01*
X137302Y93325D01*
X137886Y92826D01*
Y90084D01*
G37*
G36*
Y75124D02*X130709D01*
X130474Y75105D01*
X130245Y75050D01*
X130028Y74960D01*
X129827Y74837D01*
X129648Y74684D01*
X127688Y72724D01*
X122056D01*
X122054Y73158D01*
X121999Y73387D01*
X121909Y73604D01*
X121786Y73805D01*
X121633Y73984D01*
X121454Y74137D01*
X121253Y74260D01*
X121036Y74350D01*
X120807Y74405D01*
X120572Y74423D01*
X116337Y74405D01*
X116108Y74350D01*
X115891Y74260D01*
X115690Y74137D01*
X115511Y73984D01*
X115358Y73805D01*
X115235Y73604D01*
X115145Y73387D01*
X115090Y73158D01*
X115072Y72923D01*
X115090Y69288D01*
X115145Y69059D01*
X115235Y68842D01*
X115358Y68641D01*
X115462Y68519D01*
X115332Y68439D01*
X115167Y68298D01*
X113582Y66713D01*
Y77776D01*
X115076Y79270D01*
X115090Y76449D01*
X115145Y76220D01*
X115235Y76003D01*
X115358Y75802D01*
X115511Y75623D01*
X115690Y75470D01*
X115891Y75347D01*
X116108Y75257D01*
X116337Y75202D01*
X116572Y75184D01*
X120807Y75202D01*
X121036Y75257D01*
X121253Y75347D01*
X121454Y75470D01*
X121633Y75623D01*
X121786Y75802D01*
X121909Y76003D01*
X121999Y76220D01*
X122054Y76449D01*
X122072Y76684D01*
X122054Y80319D01*
X121999Y80548D01*
X121909Y80765D01*
X121823Y80906D01*
X123287D01*
X123290Y80349D01*
X123345Y80120D01*
X123435Y79903D01*
X123558Y79702D01*
X123711Y79523D01*
X123890Y79370D01*
X124091Y79247D01*
X124308Y79157D01*
X124537Y79102D01*
X124772Y79084D01*
X129007Y79102D01*
X129236Y79157D01*
X129453Y79247D01*
X129654Y79370D01*
X129833Y79523D01*
X129986Y79702D01*
X130109Y79903D01*
X130199Y80120D01*
X130254Y80349D01*
X130262Y80449D01*
X130584Y80127D01*
X130593Y77797D01*
X130629Y77647D01*
X130688Y77504D01*
X130769Y77373D01*
X130869Y77255D01*
X130987Y77155D01*
X131118Y77074D01*
X131261Y77015D01*
X131411Y76979D01*
X131565Y76967D01*
X135519Y76979D01*
X135669Y77015D01*
X135812Y77074D01*
X135943Y77155D01*
X136061Y77255D01*
X136161Y77373D01*
X136242Y77504D01*
X136301Y77647D01*
X136337Y77797D01*
X136349Y77951D01*
X136342Y79623D01*
X136720Y79006D01*
X137302Y78325D01*
X137886Y77826D01*
Y75124D01*
G37*
G36*
Y60163D02*X130709D01*
X130474Y60144D01*
X130245Y60089D01*
X130028Y59999D01*
X129827Y59876D01*
X129648Y59723D01*
X127688Y57763D01*
X122056D01*
X122054Y58198D01*
X121999Y58427D01*
X121909Y58644D01*
X121786Y58845D01*
X121633Y59024D01*
X121454Y59177D01*
X121253Y59300D01*
X121036Y59390D01*
X120807Y59445D01*
X120572Y59463D01*
X116337Y59445D01*
X116108Y59390D01*
X115891Y59300D01*
X115690Y59177D01*
X115511Y59024D01*
X115358Y58845D01*
X115235Y58644D01*
X115145Y58427D01*
X115090Y58198D01*
X115072Y57963D01*
X115090Y54328D01*
X115145Y54099D01*
X115235Y53882D01*
X115321Y53742D01*
X109449D01*
X109665Y53758D01*
X109875Y53808D01*
X110075Y53891D01*
X110259Y54004D01*
X110423Y54145D01*
X115147Y58869D01*
X115289Y59033D01*
X115402Y59217D01*
X115484Y59417D01*
X115535Y59627D01*
X115552Y59843D01*
X115551Y59856D01*
Y60628D01*
X115690Y60509D01*
X115891Y60386D01*
X116108Y60296D01*
X116337Y60241D01*
X116572Y60223D01*
X120807Y60241D01*
X121036Y60296D01*
X121253Y60386D01*
X121454Y60509D01*
X121633Y60662D01*
X121786Y60841D01*
X121909Y61042D01*
X121999Y61259D01*
X122054Y61488D01*
X122072Y61723D01*
X122054Y65358D01*
X121999Y65587D01*
X121909Y65804D01*
X121823Y65945D01*
X123287D01*
X123290Y65388D01*
X123345Y65159D01*
X123435Y64942D01*
X123558Y64741D01*
X123711Y64562D01*
X123890Y64409D01*
X124091Y64286D01*
X124308Y64196D01*
X124537Y64141D01*
X124772Y64123D01*
X129007Y64141D01*
X129236Y64196D01*
X129453Y64286D01*
X129654Y64409D01*
X129833Y64562D01*
X129986Y64741D01*
X130109Y64942D01*
X130199Y65159D01*
X130254Y65388D01*
X130262Y65488D01*
X130584Y65166D01*
X130593Y62836D01*
X130629Y62686D01*
X130688Y62543D01*
X130769Y62412D01*
X130869Y62294D01*
X130987Y62194D01*
X131118Y62113D01*
X131261Y62054D01*
X131411Y62018D01*
X131565Y62006D01*
X135519Y62018D01*
X135669Y62054D01*
X135812Y62113D01*
X135943Y62194D01*
X136061Y62294D01*
X136161Y62412D01*
X136242Y62543D01*
X136301Y62686D01*
X136337Y62836D01*
X136349Y62990D01*
X136342Y64622D01*
X136720Y64006D01*
X137302Y63325D01*
X137886Y62826D01*
Y60163D01*
G37*
G36*
Y45203D02*X130709D01*
X130474Y45184D01*
X130245Y45129D01*
X130028Y45039D01*
X129827Y44916D01*
X129648Y44763D01*
X127688Y42803D01*
X122056D01*
X122054Y43237D01*
X121999Y43466D01*
X121909Y43683D01*
X121786Y43884D01*
X121633Y44063D01*
X121454Y44216D01*
X121253Y44339D01*
X121036Y44429D01*
X120807Y44484D01*
X120572Y44502D01*
X116337Y44484D01*
X116108Y44429D01*
X115891Y44339D01*
X115690Y44216D01*
X115511Y44063D01*
X115358Y43884D01*
X115235Y43683D01*
X115145Y43466D01*
X115090Y43237D01*
X115072Y43002D01*
X115090Y39367D01*
X115145Y39138D01*
X115235Y38921D01*
X115321Y38780D01*
X97802D01*
X75908Y59955D01*
X75966Y60196D01*
X76000Y60630D01*
X75980Y60886D01*
X76308Y60750D01*
X76731Y60648D01*
X77165Y60614D01*
X77599Y60648D01*
X78022Y60750D01*
X78423Y60916D01*
X78794Y61143D01*
X79125Y61426D01*
X79408Y61757D01*
X79635Y62128D01*
X79801Y62529D01*
X79903Y62952D01*
X79909Y63025D01*
X91545Y51389D01*
X91628Y51319D01*
X91710Y51248D01*
X91894Y51135D01*
X92094Y51052D01*
X92304Y51002D01*
X92520Y50985D01*
X115321D01*
X115235Y50844D01*
X115145Y50627D01*
X115090Y50398D01*
X115072Y50163D01*
X115090Y46528D01*
X115145Y46299D01*
X115235Y46082D01*
X115358Y45881D01*
X115511Y45702D01*
X115690Y45549D01*
X115891Y45426D01*
X116108Y45336D01*
X116337Y45281D01*
X116572Y45263D01*
X120807Y45281D01*
X121036Y45336D01*
X121253Y45426D01*
X121454Y45549D01*
X121633Y45702D01*
X121786Y45881D01*
X121909Y46082D01*
X121999Y46299D01*
X122054Y46528D01*
X122072Y46763D01*
X122054Y50398D01*
X121999Y50627D01*
X121909Y50844D01*
X121823Y50985D01*
X123287D01*
X123290Y50428D01*
X123345Y50199D01*
X123435Y49982D01*
X123558Y49781D01*
X123711Y49602D01*
X123890Y49449D01*
X124091Y49326D01*
X124308Y49236D01*
X124537Y49181D01*
X124772Y49163D01*
X129007Y49181D01*
X129236Y49236D01*
X129453Y49326D01*
X129654Y49449D01*
X129833Y49602D01*
X129986Y49781D01*
X130109Y49982D01*
X130199Y50199D01*
X130254Y50428D01*
X130262Y50528D01*
X130584Y50206D01*
X130593Y47876D01*
X130629Y47726D01*
X130688Y47583D01*
X130769Y47452D01*
X130869Y47334D01*
X130987Y47234D01*
X131118Y47153D01*
X131261Y47094D01*
X131411Y47058D01*
X131565Y47046D01*
X135519Y47058D01*
X135669Y47094D01*
X135812Y47153D01*
X135943Y47234D01*
X136061Y47334D01*
X136161Y47452D01*
X136242Y47583D01*
X136301Y47726D01*
X136337Y47876D01*
X136349Y48030D01*
X136343Y49622D01*
X136720Y49006D01*
X137302Y48325D01*
X137886Y47826D01*
Y45203D01*
G37*
G36*
Y30242D02*X130709D01*
X130474Y30223D01*
X130245Y30168D01*
X130028Y30078D01*
X129827Y29955D01*
X129648Y29802D01*
X127688Y27842D01*
X122056D01*
X122054Y28276D01*
X121999Y28505D01*
X121909Y28722D01*
X121786Y28923D01*
X121633Y29102D01*
X121454Y29255D01*
X121253Y29378D01*
X121036Y29468D01*
X120807Y29523D01*
X120572Y29541D01*
X116337Y29523D01*
X116108Y29468D01*
X115891Y29378D01*
X115690Y29255D01*
X115511Y29102D01*
X115358Y28923D01*
X115235Y28722D01*
X115145Y28505D01*
X115090Y28276D01*
X115072Y28041D01*
X115090Y24406D01*
X115145Y24177D01*
X115235Y23960D01*
X115321Y23820D01*
X107263D01*
X73225Y57858D01*
X73228D01*
X73662Y57892D01*
X73994Y57972D01*
X96285Y36412D01*
X96381Y36333D01*
X96434Y36287D01*
X96442Y36282D01*
X96453Y36273D01*
X96556Y36212D01*
X96618Y36174D01*
X96626Y36171D01*
X96639Y36163D01*
X96743Y36122D01*
X96818Y36091D01*
X96829Y36088D01*
X96840Y36084D01*
X96955Y36058D01*
X97028Y36041D01*
X97035Y36040D01*
X97051Y36037D01*
X97169Y36030D01*
X97244Y36024D01*
X115321D01*
X115235Y35883D01*
X115145Y35666D01*
X115090Y35437D01*
X115072Y35202D01*
X115090Y31567D01*
X115145Y31338D01*
X115235Y31121D01*
X115358Y30920D01*
X115511Y30741D01*
X115690Y30588D01*
X115891Y30465D01*
X116108Y30375D01*
X116337Y30320D01*
X116572Y30302D01*
X120807Y30320D01*
X121036Y30375D01*
X121253Y30465D01*
X121454Y30588D01*
X121633Y30741D01*
X121786Y30920D01*
X121909Y31121D01*
X121999Y31338D01*
X122054Y31567D01*
X122072Y31802D01*
X122054Y35437D01*
X121999Y35666D01*
X121909Y35883D01*
X121823Y36024D01*
X123287D01*
X123290Y35467D01*
X123345Y35238D01*
X123435Y35021D01*
X123558Y34820D01*
X123711Y34641D01*
X123890Y34488D01*
X124091Y34365D01*
X124308Y34275D01*
X124537Y34220D01*
X124772Y34202D01*
X129007Y34220D01*
X129236Y34275D01*
X129453Y34365D01*
X129654Y34488D01*
X129833Y34641D01*
X129986Y34820D01*
X130109Y35021D01*
X130199Y35238D01*
X130254Y35467D01*
X130262Y35567D01*
X130584Y35245D01*
X130593Y32915D01*
X130629Y32765D01*
X130688Y32622D01*
X130769Y32491D01*
X130869Y32373D01*
X130987Y32273D01*
X131118Y32192D01*
X131261Y32133D01*
X131411Y32097D01*
X131565Y32085D01*
X135519Y32097D01*
X135669Y32133D01*
X135812Y32192D01*
X135943Y32273D01*
X136061Y32373D01*
X136161Y32491D01*
X136242Y32622D01*
X136301Y32765D01*
X136337Y32915D01*
X136349Y33069D01*
X136343Y34622D01*
X136720Y34006D01*
X137302Y33325D01*
X137886Y32826D01*
Y30242D01*
G37*
G36*
Y0D02*X73229D01*
Y1294D01*
X125546D01*
X125906Y1074D01*
X126307Y908D01*
X126730Y806D01*
X127164Y772D01*
X127598Y806D01*
X128021Y908D01*
X128422Y1074D01*
X128782Y1294D01*
X130665D01*
X131025Y1074D01*
X131426Y908D01*
X131849Y806D01*
X132283Y772D01*
X132717Y806D01*
X133140Y908D01*
X133541Y1074D01*
X133912Y1301D01*
X134243Y1584D01*
X134526Y1915D01*
X134753Y2286D01*
X134919Y2687D01*
X135021Y3110D01*
X135055Y3544D01*
X135021Y3978D01*
X134919Y4401D01*
X134753Y4802D01*
X134526Y5173D01*
X134243Y5504D01*
X133912Y5787D01*
X133541Y6014D01*
X133140Y6180D01*
X132717Y6282D01*
X132283Y6316D01*
X131849Y6282D01*
X131426Y6180D01*
X131025Y6014D01*
X130667Y5795D01*
X128780D01*
X128422Y6014D01*
X128021Y6180D01*
X127598Y6282D01*
X127164Y6316D01*
X126730Y6282D01*
X126307Y6180D01*
X125906Y6014D01*
X125548Y5795D01*
X73229D01*
Y10800D01*
X73853Y11058D01*
X74617Y11526D01*
X75298Y12108D01*
X75880Y12789D01*
X76348Y13553D01*
X76490Y13895D01*
X81032D01*
X81174Y13553D01*
X81642Y12789D01*
X82224Y12108D01*
X82905Y11526D01*
X83669Y11058D01*
X84497Y10715D01*
X85368Y10506D01*
X86261Y10436D01*
X87154Y10506D01*
X88025Y10715D01*
X88853Y11058D01*
X89617Y11526D01*
X90298Y12108D01*
X90880Y12789D01*
X91348Y13553D01*
X91490Y13895D01*
X96032D01*
X96174Y13553D01*
X96642Y12789D01*
X97224Y12108D01*
X97905Y11526D01*
X98669Y11058D01*
X99497Y10715D01*
X100368Y10506D01*
X101261Y10436D01*
X102154Y10506D01*
X103025Y10715D01*
X103853Y11058D01*
X104617Y11526D01*
X105298Y12108D01*
X105880Y12789D01*
X106348Y13553D01*
X106691Y14381D01*
X106900Y15252D01*
X106970Y16145D01*
X106900Y17038D01*
X106691Y17909D01*
X106348Y18737D01*
X105880Y19501D01*
X105298Y20182D01*
X104617Y20764D01*
X103853Y21232D01*
X103025Y21575D01*
X102154Y21784D01*
X101261Y21854D01*
X100368Y21784D01*
X99497Y21575D01*
X98669Y21232D01*
X97905Y20764D01*
X97224Y20182D01*
X96642Y19501D01*
X96174Y18737D01*
X96033Y18396D01*
X91489D01*
X91348Y18737D01*
X90880Y19501D01*
X90298Y20182D01*
X89617Y20764D01*
X88853Y21232D01*
X88025Y21575D01*
X87154Y21784D01*
X86261Y21854D01*
X85368Y21784D01*
X84497Y21575D01*
X83669Y21232D01*
X82905Y20764D01*
X82224Y20182D01*
X81642Y19501D01*
X81174Y18737D01*
X81033Y18396D01*
X76489D01*
X76348Y18737D01*
X75880Y19501D01*
X75298Y20182D01*
X74617Y20764D01*
X73853Y21232D01*
X73229Y21490D01*
Y24523D01*
X76772D01*
X77124Y24550D01*
X77467Y24632D01*
X77793Y24767D01*
X78095Y24952D01*
X78363Y25181D01*
X78374Y25194D01*
X78699D01*
X78852Y25231D01*
X78997Y25291D01*
X79131Y25373D01*
X79250Y25475D01*
X79352Y25594D01*
X79434Y25728D01*
X79494Y25873D01*
X79531Y26026D01*
X79543Y26182D01*
X79531Y31456D01*
X79494Y31609D01*
X79434Y31754D01*
X79352Y31888D01*
X79250Y32007D01*
X79131Y32109D01*
X78997Y32191D01*
X78852Y32251D01*
X78699Y32288D01*
X78543Y32300D01*
X78363D01*
X78095Y32529D01*
X77793Y32714D01*
X77467Y32849D01*
X77124Y32931D01*
X76772Y32959D01*
X73229D01*
Y36998D01*
X78699Y37004D01*
X78852Y37041D01*
X78997Y37101D01*
X79131Y37183D01*
X79250Y37285D01*
X79352Y37404D01*
X79434Y37538D01*
X79494Y37683D01*
X79531Y37836D01*
X79543Y37992D01*
X79531Y43266D01*
X79494Y43419D01*
X79434Y43564D01*
X79352Y43698D01*
X79250Y43817D01*
X79131Y43919D01*
X78997Y44001D01*
X78852Y44061D01*
X78699Y44098D01*
X78543Y44110D01*
X73229Y44104D01*
Y53956D01*
X105718Y21467D01*
X105801Y21397D01*
X105883Y21326D01*
X106067Y21213D01*
X106267Y21130D01*
X106477Y21080D01*
X106693Y21063D01*
X115321D01*
X115235Y20922D01*
X115145Y20705D01*
X115090Y20476D01*
X115072Y20241D01*
X115090Y16606D01*
X115145Y16377D01*
X115235Y16160D01*
X115358Y15959D01*
X115511Y15780D01*
X115690Y15627D01*
X115891Y15504D01*
X116108Y15414D01*
X116337Y15359D01*
X116572Y15341D01*
X120807Y15359D01*
X121036Y15414D01*
X121253Y15504D01*
X121454Y15627D01*
X121633Y15780D01*
X121786Y15959D01*
X121909Y16160D01*
X121999Y16377D01*
X122054Y16606D01*
X122072Y16841D01*
X122054Y20476D01*
X121999Y20705D01*
X121909Y20922D01*
X121823Y21063D01*
X123287D01*
X123290Y20506D01*
X123345Y20277D01*
X123435Y20060D01*
X123558Y19859D01*
X123711Y19680D01*
X123890Y19527D01*
X124091Y19404D01*
X124308Y19314D01*
X124537Y19259D01*
X124772Y19241D01*
X129007Y19259D01*
X129236Y19314D01*
X129453Y19404D01*
X129654Y19527D01*
X129833Y19680D01*
X129986Y19859D01*
X130109Y20060D01*
X130199Y20277D01*
X130254Y20506D01*
X130262Y20606D01*
X130584Y20284D01*
X130593Y17954D01*
X130629Y17804D01*
X130688Y17661D01*
X130769Y17530D01*
X130869Y17412D01*
X130987Y17312D01*
X131118Y17231D01*
X131261Y17172D01*
X131411Y17136D01*
X131565Y17124D01*
X135519Y17136D01*
X135669Y17172D01*
X135812Y17231D01*
X135943Y17312D01*
X136061Y17412D01*
X136161Y17530D01*
X136242Y17661D01*
X136301Y17804D01*
X136337Y17954D01*
X136349Y18108D01*
X136343Y19622D01*
X136720Y19006D01*
X137302Y18325D01*
X137886Y17826D01*
Y0D01*
G37*
G36*
X73229Y32959D02*X59843D01*
Y36998D01*
X65313Y37004D01*
X65466Y37041D01*
X65611Y37101D01*
X65745Y37183D01*
X65864Y37285D01*
X65966Y37404D01*
X66048Y37538D01*
X66108Y37683D01*
X66145Y37836D01*
X66157Y37992D01*
X66145Y43266D01*
X66108Y43419D01*
X66048Y43564D01*
X65966Y43698D01*
X65864Y43817D01*
X65745Y43919D01*
X65611Y44001D01*
X65466Y44061D01*
X65313Y44098D01*
X65157Y44110D01*
X59843Y44104D01*
Y47441D01*
X60614D01*
X60762Y47199D01*
X61043Y46870D01*
X61372Y46589D01*
X61741Y46363D01*
X62140Y46198D01*
X62561Y46097D01*
X62992Y46063D01*
X63423Y46097D01*
X63844Y46198D01*
X64243Y46363D01*
X64612Y46589D01*
X64941Y46870D01*
X65222Y47199D01*
X65448Y47568D01*
X65613Y47967D01*
X65714Y48388D01*
X65748Y48819D01*
X65714Y49250D01*
X65613Y49671D01*
X65448Y50070D01*
X65222Y50439D01*
X64941Y50768D01*
X64612Y51049D01*
X64243Y51275D01*
X63844Y51440D01*
X63423Y51541D01*
X62992Y51575D01*
X62870Y51565D01*
X62958Y51932D01*
X62992Y52363D01*
X62958Y52794D01*
X62857Y53215D01*
X62692Y53614D01*
X62466Y53983D01*
X62185Y54312D01*
X61856Y54593D01*
X61487Y54819D01*
X61469Y54827D01*
X61679Y55073D01*
X61905Y55442D01*
X62070Y55841D01*
X62171Y56262D01*
X62205Y56693D01*
X62171Y57124D01*
X62070Y57545D01*
X61905Y57944D01*
X61679Y58313D01*
X61398Y58642D01*
X61069Y58923D01*
X60827Y59071D01*
Y59317D01*
X60978Y59188D01*
X61347Y58962D01*
X61746Y58797D01*
X62167Y58696D01*
X62598Y58662D01*
X63029Y58696D01*
X63450Y58797D01*
X63849Y58962D01*
X64218Y59188D01*
X64547Y59469D01*
X64828Y59798D01*
X65054Y60167D01*
X65219Y60566D01*
X65320Y60987D01*
X65354Y61418D01*
X65320Y61849D01*
X65254Y62125D01*
X69468Y66339D01*
X71082D01*
X68710Y63967D01*
X68620Y63860D01*
X68570Y63802D01*
X68457Y63618D01*
X68374Y63418D01*
X68324Y63208D01*
X68307Y62992D01*
Y59449D01*
X68324Y59233D01*
X68374Y59023D01*
X68457Y58823D01*
X68570Y58639D01*
X68635Y58564D01*
X68710Y58475D01*
X73229Y53956D01*
Y44104D01*
X67759Y44098D01*
X67606Y44061D01*
X67461Y44001D01*
X67327Y43919D01*
X67208Y43817D01*
X67106Y43698D01*
X67024Y43564D01*
X66964Y43419D01*
X66927Y43266D01*
X66915Y43110D01*
X66927Y37836D01*
X66964Y37683D01*
X67024Y37538D01*
X67106Y37404D01*
X67208Y37285D01*
X67327Y37183D01*
X67461Y37101D01*
X67606Y37041D01*
X67759Y37004D01*
X67915Y36992D01*
X73229Y36998D01*
Y32959D01*
G37*
G36*
Y21490D02*X73025Y21575D01*
X72154Y21784D01*
X71261Y21854D01*
X70368Y21784D01*
X69497Y21575D01*
X68669Y21232D01*
X67905Y20764D01*
X67224Y20182D01*
X66642Y19501D01*
X66174Y18737D01*
X66033Y18396D01*
X61489D01*
X61348Y18737D01*
X60880Y19501D01*
X60298Y20182D01*
X59843Y20571D01*
Y23863D01*
X61471Y22235D01*
X61435Y22088D01*
X61401Y21654D01*
X61435Y21220D01*
X61537Y20797D01*
X61703Y20396D01*
X61930Y20025D01*
X62213Y19694D01*
X62544Y19411D01*
X62915Y19184D01*
X63316Y19018D01*
X63739Y18916D01*
X64173Y18882D01*
X64607Y18916D01*
X65030Y19018D01*
X65431Y19184D01*
X65802Y19411D01*
X66133Y19694D01*
X66416Y20025D01*
X66643Y20396D01*
X66809Y20797D01*
X66911Y21220D01*
X66945Y21654D01*
X66911Y22088D01*
X66809Y22511D01*
X66643Y22912D01*
X66416Y23283D01*
X66133Y23614D01*
X65802Y23897D01*
X65431Y24124D01*
X65030Y24290D01*
X64607Y24392D01*
X64173Y24426D01*
X63739Y24392D01*
X63592Y24356D01*
X63425Y24523D01*
X73229D01*
Y21490D01*
G37*
G36*
Y5795D02*X59843D01*
Y11719D01*
X60298Y12108D01*
X60880Y12789D01*
X61348Y13553D01*
X61490Y13895D01*
X66032D01*
X66174Y13553D01*
X66642Y12789D01*
X67224Y12108D01*
X67905Y11526D01*
X68669Y11058D01*
X69497Y10715D01*
X70368Y10506D01*
X71261Y10436D01*
X72154Y10506D01*
X73025Y10715D01*
X73229Y10800D01*
Y5795D01*
G37*
G36*
Y0D02*X59843D01*
Y1294D01*
X73229D01*
Y0D01*
G37*
G36*
X59843Y32959D02*X51575D01*
X51223Y32931D01*
X50880Y32849D01*
X50554Y32714D01*
X50252Y32529D01*
X49984Y32300D01*
X48282Y30598D01*
X47699D01*
X47693Y30602D01*
X47550Y30661D01*
X47400Y30697D01*
X47246Y30709D01*
X32130Y30697D01*
X31980Y30661D01*
X31837Y30602D01*
X31706Y30521D01*
X31588Y30421D01*
X31488Y30303D01*
X31407Y30172D01*
X31348Y30029D01*
X31312Y29879D01*
X31300Y29725D01*
X31312Y22877D01*
X31348Y22727D01*
X31407Y22584D01*
X31488Y22453D01*
X31588Y22335D01*
X31706Y22235D01*
X31837Y22154D01*
X31980Y22095D01*
X32130Y22059D01*
X32284Y22047D01*
X37515Y22051D01*
Y13606D01*
X34489Y10580D01*
X32243Y10569D01*
X32014Y10514D01*
X31797Y10424D01*
X31596Y10301D01*
X31417Y10148D01*
X31264Y9969D01*
X31141Y9768D01*
X31051Y9551D01*
X31000Y9338D01*
X29556D01*
X29505Y9551D01*
X29415Y9768D01*
X29292Y9969D01*
X29139Y10148D01*
X28960Y10301D01*
X28759Y10424D01*
X28542Y10514D01*
X28313Y10569D01*
X28078Y10587D01*
X27487Y10584D01*
X27551Y10639D01*
X27834Y10970D01*
X28061Y11341D01*
X28227Y11742D01*
X28248Y11828D01*
X28343Y11805D01*
X28578Y11787D01*
X32213Y11805D01*
X32442Y11860D01*
X32659Y11950D01*
X32860Y12073D01*
X33039Y12226D01*
X33192Y12405D01*
X33315Y12606D01*
X33405Y12823D01*
X33460Y13052D01*
X33478Y13287D01*
X33460Y17522D01*
X33405Y17751D01*
X33315Y17968D01*
X33192Y18169D01*
X33039Y18348D01*
X32860Y18501D01*
X32659Y18624D01*
X32442Y18714D01*
X32213Y18769D01*
X31978Y18787D01*
X28343Y18769D01*
X28114Y18714D01*
X27897Y18624D01*
X27696Y18501D01*
X27517Y18348D01*
X27364Y18169D01*
X27241Y17968D01*
X27151Y17751D01*
X27096Y17522D01*
X27078Y17287D01*
X27088Y14923D01*
X26849Y15069D01*
X26448Y15235D01*
X26025Y15337D01*
X25591Y15371D01*
X25157Y15337D01*
X24734Y15235D01*
X24333Y15069D01*
X23973Y14849D01*
X22441D01*
X22089Y14821D01*
X22047Y14811D01*
Y23036D01*
X23017Y23043D01*
X23138Y23072D01*
X23252Y23119D01*
X23357Y23183D01*
X23451Y23264D01*
X23532Y23358D01*
X23596Y23463D01*
X23643Y23577D01*
X23672Y23698D01*
X23682Y23821D01*
X23672Y29850D01*
X23643Y29971D01*
X23622Y30022D01*
Y30727D01*
X30299Y37404D01*
Y37402D01*
X30333Y36968D01*
X30435Y36545D01*
X30601Y36144D01*
X30828Y35773D01*
X31111Y35442D01*
X31442Y35159D01*
X31813Y34932D01*
X32214Y34766D01*
X32637Y34664D01*
X33071Y34630D01*
X33505Y34664D01*
X33928Y34766D01*
X34329Y34932D01*
X34700Y35159D01*
X35031Y35442D01*
X35314Y35773D01*
X35541Y36144D01*
X35707Y36545D01*
X35809Y36968D01*
X35843Y37402D01*
X35809Y37836D01*
X35773Y37984D01*
X37628Y39839D01*
X45669D01*
X45904Y39856D01*
X46133Y39911D01*
X46350Y40002D01*
X46551Y40125D01*
X46730Y40278D01*
X46742Y40292D01*
X51047Y44597D01*
X51061Y44609D01*
X51214Y44788D01*
X51337Y44989D01*
X51427Y45206D01*
X51482Y45435D01*
X51500Y45670D01*
Y52364D01*
X51499Y52372D01*
X51483Y52598D01*
X51428Y52827D01*
X51337Y53044D01*
X51214Y53245D01*
X51061Y53424D01*
X51054Y53430D01*
X50526Y53958D01*
X50787Y53937D01*
X51218Y53971D01*
X51639Y54072D01*
X52038Y54237D01*
X52407Y54463D01*
X52736Y54744D01*
X52952Y54997D01*
Y53937D01*
X52970Y53721D01*
X53020Y53511D01*
X53103Y53311D01*
X53216Y53127D01*
X53281Y53052D01*
X53356Y52963D01*
X58474Y47845D01*
X58557Y47775D01*
X58639Y47704D01*
X58823Y47591D01*
X59023Y47508D01*
X59233Y47458D01*
X59449Y47441D01*
X59843D01*
Y44104D01*
X54373Y44098D01*
X54220Y44061D01*
X54075Y44001D01*
X53941Y43919D01*
X53822Y43817D01*
X53720Y43698D01*
X53638Y43564D01*
X53578Y43419D01*
X53541Y43266D01*
X53529Y43110D01*
X53541Y37836D01*
X53578Y37683D01*
X53638Y37538D01*
X53720Y37404D01*
X53822Y37285D01*
X53941Y37183D01*
X54075Y37101D01*
X54220Y37041D01*
X54373Y37004D01*
X54529Y36992D01*
X59843Y36998D01*
Y32959D01*
G37*
G36*
Y5795D02*X49827D01*
X42015Y13606D01*
Y21766D01*
X50394D01*
X50746Y21793D01*
X51090Y21875D01*
X51416Y22010D01*
X51717Y22195D01*
X51986Y22424D01*
X52009Y22451D01*
X54081Y24523D01*
X59183D01*
X59843Y23863D01*
Y20571D01*
X59617Y20764D01*
X58853Y21232D01*
X58025Y21575D01*
X57154Y21784D01*
X56261Y21854D01*
X55368Y21784D01*
X54497Y21575D01*
X53669Y21232D01*
X52905Y20764D01*
X52224Y20182D01*
X51642Y19501D01*
X51174Y18737D01*
X50831Y17909D01*
X50622Y17038D01*
X50552Y16145D01*
X50622Y15252D01*
X50831Y14381D01*
X51174Y13553D01*
X51642Y12789D01*
X52224Y12108D01*
X52905Y11526D01*
X53669Y11058D01*
X54497Y10715D01*
X55368Y10506D01*
X56261Y10436D01*
X57154Y10506D01*
X58025Y10715D01*
X58853Y11058D01*
X59617Y11526D01*
X59843Y11719D01*
Y5795D01*
G37*
G36*
Y0D02*X22047D01*
Y4434D01*
X22117Y4451D01*
X22518Y4617D01*
X22878Y4837D01*
X23200D01*
X23251Y4623D01*
X23341Y4406D01*
X23464Y4205D01*
X23617Y4026D01*
X23796Y3873D01*
X23997Y3750D01*
X24214Y3660D01*
X24443Y3605D01*
X24678Y3587D01*
X28313Y3605D01*
X28542Y3660D01*
X28759Y3750D01*
X28960Y3873D01*
X29139Y4026D01*
X29292Y4205D01*
X29415Y4406D01*
X29505Y4623D01*
X29556Y4837D01*
X31000D01*
X31051Y4623D01*
X31141Y4406D01*
X31264Y4205D01*
X31417Y4026D01*
X31596Y3873D01*
X31797Y3750D01*
X32014Y3660D01*
X32243Y3605D01*
X32478Y3587D01*
X36113Y3605D01*
X36342Y3660D01*
X36559Y3750D01*
X36760Y3873D01*
X36939Y4026D01*
X37092Y4205D01*
X37215Y4406D01*
X37305Y4623D01*
X37360Y4852D01*
X37378Y5087D01*
X37369Y7098D01*
X39764Y9493D01*
X47305Y1953D01*
X47573Y1724D01*
X47875Y1539D01*
X48201Y1404D01*
X48284Y1384D01*
X48545Y1321D01*
X48869Y1296D01*
X48896Y1294D01*
X59843D01*
Y0D01*
G37*
G36*
X12955Y19367D02*X14961D01*
X15196Y19385D01*
X15425Y19440D01*
X15642Y19530D01*
X15843Y19653D01*
X16022Y19806D01*
X16034Y19820D01*
X18174Y21960D01*
X18188Y21972D01*
X18341Y22151D01*
X18464Y22352D01*
X18554Y22569D01*
X18609Y22798D01*
X18627Y23033D01*
Y23149D01*
X18677Y23119D01*
X18791Y23072D01*
X18912Y23043D01*
X19035Y23033D01*
X20458Y23043D01*
X20579Y23072D01*
X20693Y23119D01*
X20798Y23183D01*
X20892Y23264D01*
X20964Y23348D01*
X21037Y23264D01*
X21131Y23183D01*
X21236Y23119D01*
X21350Y23072D01*
X21471Y23043D01*
X21594Y23033D01*
X23017Y23043D01*
X23138Y23072D01*
X23228Y23109D01*
Y14849D01*
X22441D01*
X22089Y14821D01*
X21746Y14739D01*
X21420Y14604D01*
X21118Y14419D01*
X20850Y14190D01*
X20812Y14152D01*
X20403Y14054D01*
X20002Y13888D01*
X19631Y13661D01*
X19300Y13378D01*
X19017Y13047D01*
X18790Y12676D01*
X18624Y12275D01*
X18522Y11852D01*
X18488Y11418D01*
X18522Y10984D01*
X18619Y10582D01*
X18555Y10587D01*
X14920Y10569D01*
X14691Y10514D01*
X14474Y10424D01*
X14273Y10301D01*
X14094Y10148D01*
X13941Y9969D01*
X13818Y9768D01*
X13728Y9551D01*
X13677Y9338D01*
X12955D01*
Y11795D01*
X14890Y11805D01*
X15119Y11860D01*
X15336Y11950D01*
X15537Y12073D01*
X15716Y12226D01*
X15869Y12405D01*
X15992Y12606D01*
X16082Y12823D01*
X16137Y13052D01*
X16155Y13287D01*
X16137Y17522D01*
X16082Y17751D01*
X15992Y17968D01*
X15869Y18169D01*
X15716Y18348D01*
X15537Y18501D01*
X15336Y18624D01*
X15119Y18714D01*
X14890Y18769D01*
X14655Y18787D01*
X12955Y18779D01*
Y19367D01*
G37*
G36*
X4846Y23260D02*X3803Y24303D01*
X7172Y24313D01*
X7322Y24349D01*
X7465Y24408D01*
X7596Y24489D01*
X7714Y24589D01*
X7814Y24707D01*
X7895Y24838D01*
X7954Y24981D01*
X7990Y25131D01*
X8002Y25285D01*
X8000Y25901D01*
X8160Y25514D01*
X8387Y25143D01*
X8670Y24812D01*
X9001Y24529D01*
X9129Y24451D01*
Y22441D01*
X9148Y22206D01*
X9203Y21977D01*
X9293Y21760D01*
X9416Y21559D01*
X9569Y21380D01*
X9576Y21374D01*
X11138Y19813D01*
X11144Y19806D01*
X11323Y19653D01*
X11524Y19530D01*
X11741Y19440D01*
X11970Y19385D01*
X12205Y19367D01*
X12955D01*
Y18779D01*
X11020Y18769D01*
X10791Y18714D01*
X10574Y18624D01*
X10373Y18501D01*
X10194Y18348D01*
X10041Y18169D01*
X9918Y17968D01*
X9828Y17751D01*
X9773Y17522D01*
X9755Y17287D01*
X9773Y13052D01*
X9828Y12823D01*
X9918Y12606D01*
X10041Y12405D01*
X10194Y12226D01*
X10373Y12073D01*
X10574Y11950D01*
X10791Y11860D01*
X11020Y11805D01*
X11255Y11787D01*
X12955Y11795D01*
Y9338D01*
X12233D01*
X12182Y9551D01*
X12092Y9768D01*
X11969Y9969D01*
X11816Y10148D01*
X11637Y10301D01*
X11436Y10424D01*
X11219Y10514D01*
X10990Y10569D01*
X10755Y10587D01*
X7691Y10572D01*
X6618Y11645D01*
Y18477D01*
X7172Y18479D01*
X7322Y18515D01*
X7465Y18574D01*
X7596Y18655D01*
X7714Y18755D01*
X7814Y18873D01*
X7895Y19004D01*
X7954Y19147D01*
X7990Y19297D01*
X8002Y19451D01*
X7990Y22437D01*
X7954Y22587D01*
X7895Y22730D01*
X7814Y22861D01*
X7714Y22979D01*
X7596Y23079D01*
X7465Y23160D01*
X7322Y23219D01*
X7172Y23255D01*
X7018Y23267D01*
X4846Y23260D01*
G37*
G36*
X7874Y49524D02*X7990Y49596D01*
X8108Y49696D01*
X8208Y49814D01*
X8289Y49945D01*
X8348Y50088D01*
X8384Y50238D01*
X8389Y50308D01*
X9333D01*
Y50238D01*
X9369Y50088D01*
X9428Y49945D01*
X9509Y49814D01*
X9609Y49696D01*
X9727Y49596D01*
X9858Y49515D01*
X10001Y49456D01*
X10151Y49420D01*
X10305Y49408D01*
X12477Y49415D01*
X13067Y48825D01*
Y44490D01*
X13086Y44255D01*
X13136Y44048D01*
X13140Y41414D01*
X13169Y41293D01*
X13216Y41179D01*
X13280Y41074D01*
X13361Y40980D01*
X13455Y40899D01*
X13560Y40835D01*
X13674Y40788D01*
X13795Y40759D01*
X13918Y40749D01*
X15341Y40759D01*
X15462Y40788D01*
X15576Y40835D01*
X15681Y40899D01*
X15775Y40980D01*
X15847Y41064D01*
X15920Y40980D01*
X16014Y40899D01*
X16119Y40835D01*
X16233Y40788D01*
X16354Y40759D01*
X16477Y40749D01*
X17900Y40759D01*
X18021Y40788D01*
X18135Y40835D01*
X18240Y40899D01*
X18334Y40980D01*
X18406Y41064D01*
X18478Y40980D01*
X18572Y40899D01*
X18677Y40835D01*
X18791Y40788D01*
X18912Y40759D01*
X19035Y40749D01*
X20458Y40759D01*
X20579Y40788D01*
X20693Y40835D01*
X20798Y40899D01*
X20892Y40980D01*
X20964Y41064D01*
X21037Y40980D01*
X21131Y40899D01*
X21236Y40835D01*
X21350Y40788D01*
X21471Y40759D01*
X21594Y40749D01*
X23017Y40759D01*
X23138Y40788D01*
X23252Y40835D01*
X23357Y40899D01*
X23451Y40980D01*
X23532Y41074D01*
X23596Y41179D01*
X23643Y41293D01*
X23672Y41414D01*
X23682Y41537D01*
X23678Y43804D01*
X25224Y45350D01*
X25238Y45362D01*
X25391Y45541D01*
X25514Y45742D01*
X25604Y45959D01*
X25659Y46188D01*
X25677Y46423D01*
Y49884D01*
X25747D01*
X25897Y49920D01*
X26040Y49979D01*
X26171Y50060D01*
X26289Y50160D01*
X26389Y50278D01*
X26470Y50409D01*
X26529Y50552D01*
X26565Y50702D01*
X26577Y50856D01*
X26565Y54810D01*
X26529Y54960D01*
X26470Y55103D01*
X26389Y55234D01*
X26289Y55352D01*
X26171Y55452D01*
X26040Y55533D01*
X25910Y55587D01*
Y55907D01*
X25909Y55924D01*
X25892Y56141D01*
X25837Y56370D01*
X25804Y56449D01*
X31302Y50951D01*
X31312Y45317D01*
X31348Y45167D01*
X31407Y45024D01*
X31488Y44893D01*
X31588Y44775D01*
X31706Y44675D01*
X31837Y44594D01*
X31980Y44535D01*
X32130Y44499D01*
X32284Y44487D01*
X33485Y44488D01*
X21269Y32272D01*
X21128Y32108D01*
X21015Y31923D01*
X20932Y31723D01*
X20882Y31513D01*
X20865Y31297D01*
Y30307D01*
X20798Y30365D01*
X20693Y30429D01*
X20579Y30476D01*
X20458Y30505D01*
X20335Y30515D01*
X18912Y30505D01*
X18791Y30476D01*
X18677Y30429D01*
X18572Y30365D01*
X18478Y30284D01*
X18406Y30200D01*
X18334Y30284D01*
X18240Y30365D01*
X18135Y30429D01*
X18021Y30476D01*
X17900Y30505D01*
X17777Y30515D01*
X16354Y30505D01*
X16233Y30476D01*
X16119Y30429D01*
X16014Y30365D01*
X15920Y30284D01*
X15884Y30242D01*
X15782Y30409D01*
X15629Y30588D01*
X15622Y30594D01*
X14886Y31330D01*
Y36616D01*
X14868Y36850D01*
X14813Y37079D01*
X14723Y37296D01*
X14600Y37497D01*
X14447Y37676D01*
X14440Y37682D01*
X10751Y41371D01*
X10746Y42515D01*
X10710Y42665D01*
X10651Y42808D01*
X10570Y42939D01*
X10470Y43057D01*
X10352Y43157D01*
X10221Y43238D01*
X10078Y43297D01*
X9928Y43333D01*
X9774Y43345D01*
X7874Y43339D01*
Y44385D01*
X9928Y44391D01*
X10078Y44427D01*
X10221Y44486D01*
X10352Y44567D01*
X10470Y44667D01*
X10570Y44785D01*
X10651Y44916D01*
X10710Y45059D01*
X10746Y45209D01*
X10758Y45363D01*
X10746Y48349D01*
X10710Y48499D01*
X10651Y48642D01*
X10570Y48773D01*
X10470Y48891D01*
X10352Y48991D01*
X10221Y49072D01*
X10078Y49131D01*
X9928Y49167D01*
X9774Y49179D01*
X7874Y49173D01*
Y49524D01*
G37*
G36*
X4995Y36645D02*X4724Y36374D01*
Y49411D01*
X7566Y49420D01*
X7716Y49456D01*
X7859Y49515D01*
X7874Y49524D01*
Y49173D01*
X5820Y49167D01*
X5670Y49131D01*
X5527Y49072D01*
X5396Y48991D01*
X5278Y48891D01*
X5178Y48773D01*
X5097Y48642D01*
X5038Y48499D01*
X5002Y48349D01*
X4990Y48195D01*
X5002Y45209D01*
X5038Y45059D01*
X5097Y44916D01*
X5178Y44785D01*
X5278Y44667D01*
X5396Y44567D01*
X5527Y44486D01*
X5670Y44427D01*
X5820Y44391D01*
X5974Y44379D01*
X7874Y44385D01*
Y43339D01*
X5820Y43333D01*
X5670Y43297D01*
X5527Y43238D01*
X5396Y43157D01*
X5278Y43057D01*
X5178Y42939D01*
X5097Y42808D01*
X5038Y42665D01*
X5002Y42515D01*
X4990Y42361D01*
X5002Y39375D01*
X5038Y39225D01*
X5097Y39082D01*
X5178Y38951D01*
X5278Y38833D01*
X5383Y38744D01*
X5278Y38655D01*
X5178Y38537D01*
X5097Y38406D01*
X5038Y38263D01*
X5002Y38113D01*
X4990Y37959D01*
X4995Y36645D01*
G37*
G36*
X22836Y95986D02*X22998Y95595D01*
X23367Y94993D01*
X23826Y94456D01*
X24363Y93997D01*
X24965Y93628D01*
X25617Y93358D01*
X26304Y93193D01*
X27008Y93138D01*
X27712Y93193D01*
X28399Y93358D01*
X29051Y93628D01*
X29249Y93749D01*
X29152Y93348D01*
X29118Y92914D01*
X29152Y92480D01*
X29254Y92057D01*
X29420Y91656D01*
X29647Y91285D01*
X29930Y90954D01*
X30261Y90671D01*
X30632Y90444D01*
X31033Y90278D01*
X31324Y90208D01*
X31278Y90154D01*
X31196Y90020D01*
X31136Y89875D01*
X31099Y89722D01*
X31087Y89566D01*
X31099Y78782D01*
X31136Y78629D01*
X31196Y78484D01*
X31278Y78350D01*
X31380Y78231D01*
X31499Y78129D01*
X31633Y78047D01*
X31778Y77987D01*
X31931Y77950D01*
X32087Y77938D01*
X32396Y77939D01*
Y74674D01*
X32280Y74673D01*
X32051Y74618D01*
X31834Y74528D01*
X31633Y74405D01*
X31454Y74252D01*
X31301Y74073D01*
X31178Y73872D01*
X31088Y73655D01*
X31033Y73426D01*
X31015Y73191D01*
X31028Y70126D01*
X30120Y69218D01*
X29615D01*
X29597Y73426D01*
X29542Y73655D01*
X29452Y73872D01*
X29329Y74073D01*
X29176Y74252D01*
X28997Y74405D01*
X28796Y74528D01*
X28579Y74618D01*
X28350Y74673D01*
X28115Y74691D01*
X24480Y74673D01*
X24251Y74618D01*
X24034Y74528D01*
X23833Y74405D01*
X23654Y74252D01*
X23501Y74073D01*
X23378Y73872D01*
X23306Y73697D01*
X22836Y74167D01*
Y77944D01*
X25551Y77950D01*
X25704Y77987D01*
X25849Y78047D01*
X25983Y78129D01*
X26102Y78231D01*
X26204Y78350D01*
X26286Y78484D01*
X26346Y78629D01*
X26383Y78782D01*
X26395Y78938D01*
X26383Y89722D01*
X26346Y89875D01*
X26286Y90020D01*
X26204Y90154D01*
X26102Y90273D01*
X25983Y90375D01*
X25849Y90457D01*
X25704Y90517D01*
X25551Y90554D01*
X25395Y90566D01*
X22836Y90560D01*
Y95986D01*
G37*
G36*
X37007Y100591D02*X37526D01*
X37580Y100583D01*
X37860Y100515D01*
X38131Y100420D01*
X38243Y100384D01*
X38360Y100366D01*
X38478Y100367D01*
X38594Y100387D01*
X38705Y100424D01*
X38810Y100479D01*
X38868Y100522D01*
X39891Y99499D01*
X39848Y99440D01*
X39794Y99336D01*
X39757Y99224D01*
X39737Y99108D01*
X39736Y98991D01*
X39754Y98874D01*
X39789Y98762D01*
X39884Y98491D01*
X39952Y98211D01*
X39994Y97926D01*
X40008Y97638D01*
X39994Y97351D01*
X39952Y97066D01*
X39884Y96786D01*
X39789Y96515D01*
X39753Y96403D01*
X39735Y96286D01*
X39736Y96168D01*
X39756Y96052D01*
X39793Y95941D01*
X39848Y95836D01*
X39918Y95741D01*
X40002Y95659D01*
X40098Y95591D01*
X40203Y95538D01*
X40315Y95503D01*
X40432Y95485D01*
X40550Y95486D01*
X40666Y95506D01*
X40777Y95543D01*
X40882Y95598D01*
X40977Y95668D01*
X41059Y95752D01*
X41127Y95848D01*
X41180Y95953D01*
X41322Y96360D01*
X41425Y96780D01*
X41487Y97207D01*
X41508Y97638D01*
X41496Y97894D01*
X43898Y95492D01*
Y90586D01*
X43647Y90432D01*
X43316Y90149D01*
X43033Y89818D01*
X42806Y89447D01*
X42640Y89046D01*
X42538Y88623D01*
X42504Y88189D01*
X42538Y87755D01*
X42640Y87332D01*
X42806Y86931D01*
X43033Y86560D01*
X43316Y86229D01*
X43647Y85946D01*
X44018Y85719D01*
X44419Y85553D01*
X44842Y85451D01*
X45276Y85417D01*
X45471Y85432D01*
Y78874D01*
X45321Y79002D01*
X44952Y79228D01*
X44553Y79393D01*
X44132Y79494D01*
X43701Y79528D01*
X43270Y79494D01*
X42849Y79393D01*
X42450Y79228D01*
X42081Y79002D01*
X41752Y78721D01*
X41471Y78392D01*
X41245Y78023D01*
X41080Y77624D01*
X40979Y77203D01*
X40945Y76772D01*
X40979Y76341D01*
X41080Y75920D01*
X41245Y75521D01*
X41471Y75152D01*
X41752Y74823D01*
X42081Y74542D01*
X42200Y74469D01*
Y60630D01*
X42204Y60583D01*
X37007Y65780D01*
Y68166D01*
X37129Y68309D01*
X37252Y68510D01*
X37342Y68727D01*
X37397Y68956D01*
X37415Y69191D01*
X37397Y73426D01*
X37342Y73655D01*
X37252Y73872D01*
X37129Y74073D01*
X37007Y74216D01*
Y77949D01*
X37361Y77950D01*
X37514Y77987D01*
X37659Y78047D01*
X37793Y78129D01*
X37912Y78231D01*
X38014Y78350D01*
X38096Y78484D01*
X38156Y78629D01*
X38193Y78782D01*
X38205Y78938D01*
X38193Y89722D01*
X38156Y89875D01*
X38096Y90020D01*
X38014Y90154D01*
X37912Y90273D01*
X37793Y90375D01*
X37659Y90457D01*
X37514Y90517D01*
X37361Y90554D01*
X37205Y90566D01*
X37007Y90565D01*
Y93138D01*
X37008D01*
X37439Y93159D01*
X37866Y93221D01*
X38286Y93324D01*
X38693Y93466D01*
X38798Y93520D01*
X38894Y93588D01*
X38978Y93670D01*
X39048Y93765D01*
X39102Y93869D01*
X39139Y93981D01*
X39159Y94097D01*
X39160Y94214D01*
X39142Y94331D01*
X39107Y94443D01*
X39054Y94548D01*
X38986Y94644D01*
X38904Y94728D01*
X38809Y94798D01*
X38705Y94852D01*
X38593Y94889D01*
X38477Y94909D01*
X38360Y94910D01*
X38243Y94892D01*
X38131Y94857D01*
X37860Y94762D01*
X37580Y94694D01*
X37295Y94652D01*
X37008Y94638D01*
X37007D01*
Y100591D01*
G37*
G36*
Y74216D02*X36976Y74252D01*
X36896Y74320D01*
Y77949D01*
X37007D01*
Y74216D01*
G37*
G36*
Y65780D02*X36254Y66533D01*
X36237Y66553D01*
X35968Y66782D01*
X35667Y66967D01*
X35341Y67102D01*
X34997Y67184D01*
X34645Y67212D01*
X33394D01*
Y67696D01*
X36150Y67709D01*
X36379Y67764D01*
X36596Y67854D01*
X36797Y67977D01*
X36976Y68130D01*
X37007Y68166D01*
Y65780D01*
G37*
G36*
X33394Y102059D02*X34458Y100995D01*
X34541Y100925D01*
X34623Y100854D01*
X34807Y100741D01*
X35007Y100658D01*
X35012Y100657D01*
X35029Y100633D01*
X35111Y100549D01*
X35206Y100479D01*
X35310Y100425D01*
X35422Y100388D01*
X35538Y100368D01*
X35655Y100367D01*
X35772Y100385D01*
X35884Y100420D01*
X36155Y100515D01*
X36435Y100583D01*
X36489Y100591D01*
X37007D01*
Y94638D01*
X36720Y94652D01*
X36435Y94694D01*
X36155Y94762D01*
X35884Y94857D01*
X35772Y94893D01*
X35655Y94911D01*
X35537Y94910D01*
X35421Y94890D01*
X35310Y94853D01*
X35205Y94798D01*
X35110Y94728D01*
X35028Y94644D01*
X34960Y94548D01*
X34907Y94443D01*
X34872Y94331D01*
X34854Y94214D01*
X34855Y94096D01*
X34875Y93980D01*
X34912Y93869D01*
X34967Y93764D01*
X35037Y93669D01*
X35121Y93587D01*
X35217Y93519D01*
X35322Y93466D01*
X35729Y93324D01*
X36149Y93221D01*
X36576Y93159D01*
X37007Y93138D01*
Y90565D01*
X36855D01*
X36848Y90593D01*
X36786Y90853D01*
X36651Y91179D01*
X36466Y91481D01*
X36237Y91749D01*
X36230Y91755D01*
X34625Y93360D01*
X34526Y93771D01*
X34360Y94172D01*
X34133Y94543D01*
X33850Y94874D01*
X33519Y95157D01*
X33394Y95233D01*
Y95499D01*
X33466Y95487D01*
X33583Y95486D01*
X33700Y95504D01*
X33812Y95539D01*
X33917Y95592D01*
X34013Y95660D01*
X34097Y95742D01*
X34167Y95837D01*
X34221Y95941D01*
X34258Y96053D01*
X34278Y96169D01*
X34279Y96286D01*
X34261Y96403D01*
X34226Y96515D01*
X34131Y96786D01*
X34063Y97066D01*
X34021Y97351D01*
X34008Y97638D01*
X34021Y97926D01*
X34063Y98211D01*
X34131Y98491D01*
X34226Y98762D01*
X34262Y98874D01*
X34280Y98991D01*
X34279Y99109D01*
X34259Y99225D01*
X34222Y99336D01*
X34167Y99441D01*
X34097Y99536D01*
X34013Y99618D01*
X33917Y99686D01*
X33812Y99739D01*
X33700Y99774D01*
X33583Y99792D01*
X33465Y99791D01*
X33394Y99779D01*
Y102059D01*
G37*
G36*
Y67212D02*X32356D01*
X32837Y67693D01*
X33394Y67696D01*
Y67212D01*
G37*
G36*
X22836Y101518D02*X24665Y103347D01*
X32106D01*
X33394Y102059D01*
Y99779D01*
X33349Y99771D01*
X33238Y99734D01*
X33133Y99679D01*
X33038Y99609D01*
X32956Y99525D01*
X32888Y99429D01*
X32835Y99324D01*
X32693Y98917D01*
X32590Y98497D01*
X32528Y98070D01*
X32508Y97638D01*
X32528Y97207D01*
X32590Y96780D01*
X32693Y96360D01*
X32835Y95953D01*
X32889Y95848D01*
X32957Y95752D01*
X33039Y95668D01*
X33134Y95598D01*
X33238Y95544D01*
X33350Y95507D01*
X33394Y95499D01*
Y95233D01*
X33148Y95384D01*
X32747Y95550D01*
X32324Y95652D01*
X31890Y95686D01*
X31456Y95652D01*
X31033Y95550D01*
X30976Y95526D01*
X31018Y95595D01*
X31288Y96247D01*
X31453Y96934D01*
X31508Y97638D01*
X31453Y98342D01*
X31288Y99029D01*
X31018Y99681D01*
X30649Y100283D01*
X30190Y100820D01*
X29653Y101279D01*
X29051Y101648D01*
X28399Y101918D01*
X27712Y102083D01*
X27008Y102138D01*
X26304Y102083D01*
X25617Y101918D01*
X24965Y101648D01*
X24363Y101279D01*
X23826Y100820D01*
X23367Y100283D01*
X22998Y99681D01*
X22836Y99290D01*
Y101518D01*
G37*
G36*
Y107163D02*X22912Y107181D01*
X23318Y107349D01*
X23693Y107579D01*
X24027Y107864D01*
X24312Y108198D01*
X24401Y108344D01*
X30088Y108343D01*
X32325Y106104D01*
X24095D01*
X23879Y106087D01*
X23669Y106036D01*
X23469Y105954D01*
X23285Y105841D01*
X23120Y105700D01*
X22836Y105416D01*
Y107163D01*
G37*
G36*
X7008Y107950D02*X12285D01*
X12520Y107967D01*
X12749Y108022D01*
X12966Y108113D01*
X13167Y108236D01*
X13346Y108389D01*
X13358Y108403D01*
X15074Y110119D01*
X15618Y109894D01*
X16305Y109729D01*
X17009Y109674D01*
X17713Y109729D01*
X18400Y109894D01*
X19052Y110164D01*
X19287Y110308D01*
X19281Y110282D01*
X19247Y109844D01*
X19281Y109406D01*
X19384Y108979D01*
X19552Y108573D01*
X19782Y108198D01*
X20067Y107864D01*
X20401Y107579D01*
X20776Y107349D01*
X21182Y107181D01*
X21609Y107078D01*
X22047Y107044D01*
X22485Y107078D01*
X22836Y107163D01*
Y105416D01*
X19062Y101642D01*
X19051Y101648D01*
X18399Y101918D01*
X17712Y102083D01*
X17008Y102138D01*
X16304Y102083D01*
X15617Y101918D01*
X14965Y101648D01*
X14363Y101279D01*
X13826Y100820D01*
X13367Y100283D01*
X12998Y99681D01*
X12728Y99029D01*
X12563Y98342D01*
X12508Y97638D01*
X12563Y96934D01*
X12728Y96247D01*
X12998Y95595D01*
X13367Y94993D01*
X13826Y94456D01*
X14363Y93997D01*
X14965Y93628D01*
X15617Y93358D01*
X16304Y93193D01*
X17008Y93138D01*
X17712Y93193D01*
X18399Y93358D01*
X19051Y93628D01*
X19653Y93997D01*
X20190Y94456D01*
X20649Y94993D01*
X21018Y95595D01*
X21288Y96247D01*
X21453Y96934D01*
X21508Y97638D01*
X21453Y98342D01*
X21288Y99029D01*
X21018Y99681D01*
X21011Y99693D01*
X22836Y101518D01*
Y99290D01*
X22728Y99029D01*
X22563Y98342D01*
X22508Y97638D01*
X22563Y96934D01*
X22728Y96247D01*
X22836Y95986D01*
Y90560D01*
X20121Y90554D01*
X19968Y90517D01*
X19823Y90457D01*
X19689Y90375D01*
X19570Y90273D01*
X19468Y90154D01*
X19386Y90020D01*
X19326Y89875D01*
X19289Y89722D01*
X19277Y89566D01*
X19289Y78782D01*
X19326Y78629D01*
X19386Y78484D01*
X19468Y78350D01*
X19570Y78231D01*
X19689Y78129D01*
X19823Y78047D01*
X19968Y77987D01*
X20121Y77950D01*
X20277Y77938D01*
X22836Y77944D01*
Y74167D01*
X17208Y79795D01*
X17202Y79802D01*
X17023Y79955D01*
X16822Y80078D01*
X16605Y80169D01*
X16376Y80224D01*
X16141Y80242D01*
X13930D01*
X13995Y80298D01*
X14097Y80417D01*
X14179Y80551D01*
X14239Y80696D01*
X14276Y80849D01*
X14288Y81005D01*
X14276Y91594D01*
X14239Y91747D01*
X14179Y91892D01*
X14097Y92026D01*
X13995Y92145D01*
X13876Y92247D01*
X13742Y92329D01*
X13597Y92389D01*
X13444Y92426D01*
X13288Y92438D01*
X7008Y92427D01*
Y93147D01*
X10243Y93156D01*
X10472Y93211D01*
X10689Y93301D01*
X10890Y93424D01*
X11069Y93577D01*
X11222Y93756D01*
X11345Y93957D01*
X11435Y94174D01*
X11490Y94403D01*
X11508Y94638D01*
X11490Y100873D01*
X11435Y101102D01*
X11345Y101319D01*
X11222Y101520D01*
X11069Y101699D01*
X10890Y101852D01*
X10689Y101975D01*
X10472Y102065D01*
X10243Y102120D01*
X10008Y102138D01*
X7008Y102129D01*
Y107950D01*
G37*
G36*
X0Y59449D02*Y118111D01*
X861D01*
Y109450D01*
X880Y109215D01*
X935Y108986D01*
X1025Y108769D01*
X1148Y108568D01*
X1301Y108389D01*
X1480Y108236D01*
X1681Y108113D01*
X1898Y108023D01*
X2127Y107968D01*
X2362Y107950D01*
X7008D01*
Y102129D01*
X3773Y102120D01*
X3544Y102065D01*
X3327Y101975D01*
X3126Y101852D01*
X2947Y101699D01*
X2794Y101520D01*
X2671Y101319D01*
X2581Y101102D01*
X2526Y100873D01*
X2508Y100638D01*
X2526Y94403D01*
X2581Y94174D01*
X2671Y93957D01*
X2794Y93756D01*
X2947Y93577D01*
X3126Y93424D01*
X3327Y93301D01*
X3544Y93211D01*
X3773Y93156D01*
X4008Y93138D01*
X7008Y93147D01*
Y92427D01*
X6242Y92426D01*
X6089Y92389D01*
X5944Y92329D01*
X5810Y92247D01*
X5691Y92145D01*
X5589Y92026D01*
X5507Y91892D01*
X5447Y91747D01*
X5410Y91594D01*
X5398Y91438D01*
X5410Y80849D01*
X5447Y80696D01*
X5507Y80551D01*
X5589Y80417D01*
X5691Y80298D01*
X5756Y80242D01*
X4724D01*
X4489Y80223D01*
X4260Y80168D01*
X4043Y80078D01*
X3842Y79955D01*
X3663Y79802D01*
X514Y76653D01*
X361Y76474D01*
X238Y76273D01*
X148Y76056D01*
X93Y75827D01*
X75Y75592D01*
Y59449D01*
X0D01*
G37*
G36*
X137886Y283465D02*X157480D01*
Y227559D01*
X145987D01*
X146426Y228276D01*
X146769Y229104D01*
X146978Y229975D01*
X147048Y230868D01*
X146978Y231761D01*
X146769Y232632D01*
X146426Y233460D01*
X145958Y234224D01*
X145376Y234905D01*
X144695Y235487D01*
X143931Y235955D01*
X143103Y236298D01*
X142232Y236507D01*
X141339Y236577D01*
X140446Y236507D01*
X139575Y236298D01*
X138747Y235955D01*
X137983Y235487D01*
X137886Y235404D01*
Y241332D01*
X137983Y241249D01*
X138747Y240781D01*
X139575Y240438D01*
X140446Y240229D01*
X141339Y240159D01*
X142232Y240229D01*
X143103Y240438D01*
X143931Y240781D01*
X144695Y241249D01*
X145376Y241831D01*
X145958Y242512D01*
X146426Y243276D01*
X146769Y244104D01*
X146978Y244975D01*
X147048Y245868D01*
X146978Y246761D01*
X146769Y247632D01*
X146426Y248460D01*
X145958Y249224D01*
X145376Y249905D01*
X144695Y250487D01*
X143931Y250955D01*
X143103Y251298D01*
X142232Y251507D01*
X141339Y251577D01*
X140446Y251507D01*
X139575Y251298D01*
X138747Y250955D01*
X137983Y250487D01*
X137886Y250404D01*
Y256332D01*
X137983Y256249D01*
X138747Y255781D01*
X139575Y255438D01*
X140446Y255229D01*
X141339Y255159D01*
X142232Y255229D01*
X143103Y255438D01*
X143931Y255781D01*
X144695Y256249D01*
X145376Y256831D01*
X145958Y257512D01*
X146426Y258276D01*
X146769Y259104D01*
X146978Y259975D01*
X147048Y260868D01*
X146978Y261761D01*
X146769Y262632D01*
X146426Y263460D01*
X145958Y264224D01*
X145376Y264905D01*
X144695Y265487D01*
X143931Y265955D01*
X143103Y266298D01*
X142232Y266507D01*
X141339Y266577D01*
X140446Y266507D01*
X139575Y266298D01*
X138747Y265955D01*
X137983Y265487D01*
X137886Y265404D01*
Y283465D01*
G37*
G36*
X51452Y249749D02*X52371Y248830D01*
X52454Y248760D01*
X52536Y248689D01*
X52720Y248576D01*
X52920Y248493D01*
X53130Y248443D01*
X53346Y248426D01*
X55642D01*
X55806Y248158D01*
X56091Y247824D01*
X56425Y247539D01*
X56800Y247309D01*
X57206Y247141D01*
X57633Y247038D01*
X58071Y247004D01*
X58449Y247033D01*
X58420Y246655D01*
X58454Y246217D01*
X58513Y245971D01*
X58350Y246134D01*
X58344Y246141D01*
X58165Y246294D01*
X57964Y246417D01*
X57747Y246507D01*
X57518Y246562D01*
X57301Y246579D01*
X57284Y246580D01*
X51452D01*
Y249749D01*
G37*
G36*
X101220Y245478D02*X101689Y245009D01*
X101695Y245002D01*
X101874Y244849D01*
X102075Y244726D01*
X102292Y244636D01*
X102521Y244581D01*
X102756Y244563D01*
X103945D01*
X103941Y244548D01*
X103923Y244313D01*
X103941Y242578D01*
X103996Y242349D01*
X104086Y242132D01*
X104209Y241931D01*
X104362Y241752D01*
X104541Y241599D01*
X104742Y241476D01*
X104959Y241386D01*
X105188Y241331D01*
X105423Y241313D01*
X107294Y241322D01*
X108725Y239891D01*
X108731Y239884D01*
X108910Y239731D01*
X108979Y239689D01*
X103543D01*
X103308Y239671D01*
X103079Y239616D01*
X102862Y239526D01*
X102661Y239403D01*
X102482Y239250D01*
X102329Y239071D01*
X102206Y238870D01*
X102158Y238754D01*
X101220Y237816D01*
Y245478D01*
G37*
G36*
Y261621D02*X101480D01*
X101999Y261669D01*
X102511Y261764D01*
X103012Y261904D01*
X103488Y262085D01*
X103158Y261803D01*
X102875Y261472D01*
X102648Y261101D01*
X102482Y260700D01*
X102380Y260277D01*
X102346Y259843D01*
X102380Y259409D01*
X102482Y258986D01*
X102648Y258585D01*
X102875Y258214D01*
X103158Y257883D01*
X103489Y257600D01*
X103806Y257406D01*
X103543D01*
X103308Y257388D01*
X103079Y257333D01*
X102862Y257243D01*
X102661Y257120D01*
X102482Y256967D01*
X101220Y255705D01*
Y261621D01*
G37*
G36*
Y283465D02*X137886D01*
Y265404D01*
X137302Y264905D01*
X136720Y264224D01*
X136252Y263460D01*
X135909Y262632D01*
X135846Y262368D01*
X135835D01*
X135830Y266494D01*
X135793Y266647D01*
X135733Y266792D01*
X135651Y266926D01*
X135549Y267045D01*
X135430Y267147D01*
X135296Y267229D01*
X135151Y267289D01*
X134998Y267326D01*
X134842Y267338D01*
X129568Y267326D01*
X129415Y267289D01*
X129270Y267229D01*
X129136Y267147D01*
X129017Y267045D01*
X128915Y266926D01*
X128833Y266792D01*
X128773Y266647D01*
X128736Y266494D01*
X128724Y266338D01*
X128736Y255554D01*
X128773Y255401D01*
X128833Y255256D01*
X128915Y255122D01*
X129017Y255003D01*
X129136Y254901D01*
X129270Y254819D01*
X129415Y254759D01*
X129568Y254722D01*
X129724Y254710D01*
X134998Y254722D01*
X135151Y254759D01*
X135296Y254819D01*
X135430Y254901D01*
X135549Y255003D01*
X135651Y255122D01*
X135733Y255256D01*
X135793Y255401D01*
X135830Y255554D01*
X135842Y255710D01*
X135838Y259368D01*
X135846D01*
X135909Y259104D01*
X136252Y258276D01*
X136720Y257512D01*
X137302Y256831D01*
X137886Y256332D01*
Y250404D01*
X137302Y249905D01*
X136720Y249224D01*
X136252Y248460D01*
X135909Y247632D01*
X135846Y247369D01*
X135835D01*
X135830Y251533D01*
X135793Y251686D01*
X135733Y251831D01*
X135651Y251965D01*
X135549Y252084D01*
X135430Y252186D01*
X135296Y252268D01*
X135151Y252328D01*
X134998Y252365D01*
X134842Y252377D01*
X129568Y252365D01*
X129415Y252328D01*
X129270Y252268D01*
X129136Y252186D01*
X129017Y252084D01*
X128915Y251965D01*
X128833Y251831D01*
X128773Y251686D01*
X128736Y251533D01*
X128724Y251377D01*
X128736Y240593D01*
X128773Y240440D01*
X128833Y240295D01*
X128915Y240161D01*
X129017Y240042D01*
X129136Y239940D01*
X129270Y239858D01*
X129415Y239798D01*
X129568Y239761D01*
X129724Y239749D01*
X134998Y239761D01*
X135151Y239798D01*
X135296Y239858D01*
X135430Y239940D01*
X135549Y240042D01*
X135651Y240161D01*
X135733Y240295D01*
X135793Y240440D01*
X135830Y240593D01*
X135842Y240749D01*
X135838Y244368D01*
X135846D01*
X135909Y244104D01*
X136252Y243276D01*
X136720Y242512D01*
X137302Y241831D01*
X137886Y241332D01*
Y235404D01*
X137302Y234905D01*
X136720Y234224D01*
X136252Y233460D01*
X135909Y232632D01*
X135846Y232369D01*
X135834D01*
X135830Y236179D01*
X135793Y236332D01*
X135733Y236477D01*
X135651Y236611D01*
X135549Y236730D01*
X135430Y236832D01*
X135296Y236914D01*
X135151Y236974D01*
X134998Y237011D01*
X134842Y237023D01*
X129568Y237011D01*
X129415Y236974D01*
X129270Y236914D01*
X129136Y236832D01*
X129017Y236730D01*
X128915Y236611D01*
X128833Y236477D01*
X128773Y236332D01*
X128736Y236179D01*
X128724Y236023D01*
X128733Y227559D01*
X128628D01*
Y253937D01*
X128601Y254289D01*
X128519Y254633D01*
X128384Y254959D01*
X128199Y255260D01*
X127970Y255529D01*
X127701Y255758D01*
X127400Y255943D01*
X127074Y256078D01*
X126730Y256160D01*
X126378Y256188D01*
X126026Y256160D01*
X125682Y256078D01*
X125356Y255943D01*
X125055Y255758D01*
X124786Y255529D01*
X124709Y255438D01*
X123992D01*
X124020Y255554D01*
X124032Y255710D01*
X124020Y266494D01*
X123983Y266647D01*
X123923Y266792D01*
X123841Y266926D01*
X123739Y267045D01*
X123620Y267147D01*
X123486Y267229D01*
X123341Y267289D01*
X123188Y267326D01*
X123032Y267338D01*
X121972Y267336D01*
Y272836D01*
X121955Y273070D01*
X121900Y273299D01*
X121809Y273516D01*
X121686Y273717D01*
X121533Y273896D01*
X121526Y273902D01*
X117602Y277826D01*
X117596Y277833D01*
X117417Y277986D01*
X117216Y278109D01*
X116999Y278199D01*
X116770Y278254D01*
X116536Y278272D01*
X108661D01*
X108426Y278254D01*
X108197Y278199D01*
X107980Y278109D01*
X107779Y277986D01*
X107600Y277833D01*
X106419Y276652D01*
X106266Y276473D01*
X106143Y276272D01*
X106052Y276055D01*
X105997Y275826D01*
X105979Y275591D01*
Y270471D01*
X105952Y270515D01*
X105904Y270575D01*
X105847Y270628D01*
X105783Y270670D01*
X105712Y270702D01*
X105638Y270723D01*
X105561Y270732D01*
X105484Y270728D01*
X105409Y270713D01*
X105336Y270686D01*
X105269Y270648D01*
X105209Y270600D01*
X105156Y270543D01*
X105114Y270479D01*
X105082Y270408D01*
X105061Y270334D01*
X105052Y270257D01*
X105056Y270180D01*
X105071Y270105D01*
X105098Y270032D01*
X105136Y269965D01*
X105360Y269597D01*
X105550Y269210D01*
X105704Y268807D01*
X105821Y268392D01*
X105899Y267968D01*
X105939Y267539D01*
Y267108D01*
X105899Y266679D01*
X105821Y266255D01*
X105704Y265840D01*
X105550Y265437D01*
X105360Y265050D01*
X105136Y264682D01*
X105098Y264615D01*
X105071Y264542D01*
X105056Y264467D01*
X105052Y264390D01*
X105061Y264313D01*
X105082Y264239D01*
X105114Y264168D01*
X105156Y264104D01*
X105209Y264047D01*
X105269Y263999D01*
X105336Y263961D01*
X105409Y263934D01*
X105484Y263919D01*
X105561Y263915D01*
X105638Y263924D01*
X105712Y263945D01*
X105783Y263977D01*
X105847Y264019D01*
X105904Y264072D01*
X105952Y264132D01*
X106223Y264576D01*
X106329Y264792D01*
X106419Y264687D01*
X106426Y264681D01*
X107535Y263572D01*
X107516Y263540D01*
X107426Y263323D01*
X107371Y263094D01*
X107353Y262859D01*
X107360Y261474D01*
X107078Y261803D01*
X106747Y262086D01*
X106376Y262313D01*
X105975Y262479D01*
X105552Y262581D01*
X105118Y262615D01*
X104684Y262581D01*
X104261Y262479D01*
X104157Y262436D01*
X104411Y262591D01*
X104471Y262639D01*
X104524Y262696D01*
X104566Y262760D01*
X104598Y262831D01*
X104619Y262905D01*
X104628Y262982D01*
X104624Y263059D01*
X104609Y263134D01*
X104582Y263207D01*
X104544Y263274D01*
X104496Y263334D01*
X104439Y263387D01*
X104375Y263429D01*
X104304Y263461D01*
X104230Y263482D01*
X104153Y263491D01*
X104076Y263487D01*
X104001Y263472D01*
X103928Y263445D01*
X103861Y263407D01*
X103493Y263183D01*
X103106Y262993D01*
X102703Y262839D01*
X102288Y262722D01*
X101864Y262644D01*
X101435Y262604D01*
X101220D01*
Y272043D01*
X101435D01*
X101864Y272003D01*
X102288Y271925D01*
X102703Y271808D01*
X103106Y271654D01*
X103493Y271464D01*
X103861Y271240D01*
X103928Y271202D01*
X104001Y271175D01*
X104076Y271160D01*
X104153Y271156D01*
X104230Y271165D01*
X104304Y271186D01*
X104375Y271218D01*
X104439Y271260D01*
X104496Y271313D01*
X104544Y271373D01*
X104582Y271440D01*
X104609Y271513D01*
X104624Y271588D01*
X104628Y271665D01*
X104619Y271742D01*
X104598Y271816D01*
X104566Y271887D01*
X104524Y271951D01*
X104471Y272008D01*
X104411Y272056D01*
X103967Y272327D01*
X103499Y272557D01*
X103012Y272743D01*
X102511Y272883D01*
X101999Y272978D01*
X101480Y273026D01*
X101220D01*
Y283465D01*
G37*
G36*
X96452D02*X101220D01*
Y273026D01*
X100959D01*
X100440Y272978D01*
X99928Y272883D01*
X99427Y272743D01*
X98940Y272557D01*
X98472Y272327D01*
X98028Y272056D01*
X97968Y272008D01*
X97915Y271951D01*
X97873Y271887D01*
X97841Y271816D01*
X97820Y271742D01*
X97811Y271665D01*
X97815Y271588D01*
X97830Y271513D01*
X97857Y271440D01*
X97895Y271373D01*
X97943Y271313D01*
X98000Y271260D01*
X98064Y271218D01*
X98135Y271186D01*
X98209Y271165D01*
X98286Y271156D01*
X98363Y271160D01*
X98438Y271175D01*
X98511Y271202D01*
X98578Y271240D01*
X98946Y271464D01*
X99333Y271654D01*
X99736Y271808D01*
X100151Y271925D01*
X100575Y272003D01*
X101004Y272043D01*
X101220D01*
Y262604D01*
X101004D01*
X100575Y262644D01*
X100151Y262722D01*
X99736Y262839D01*
X99333Y262993D01*
X98946Y263183D01*
X98578Y263407D01*
X98511Y263445D01*
X98438Y263472D01*
X98363Y263487D01*
X98286Y263491D01*
X98209Y263482D01*
X98135Y263461D01*
X98064Y263429D01*
X98000Y263387D01*
X97943Y263334D01*
X97895Y263274D01*
X97857Y263207D01*
X97830Y263134D01*
X97815Y263059D01*
X97811Y262982D01*
X97820Y262905D01*
X97841Y262831D01*
X97873Y262760D01*
X97915Y262696D01*
X97968Y262639D01*
X98028Y262591D01*
X98472Y262320D01*
X98940Y262090D01*
X99427Y261904D01*
X99928Y261764D01*
X100440Y261669D01*
X100959Y261621D01*
X101220D01*
Y255705D01*
X100908Y255393D01*
X100755Y255214D01*
X100632Y255013D01*
X100542Y254796D01*
X100487Y254567D01*
X100469Y254332D01*
Y251548D01*
X100434Y251557D01*
X100000Y251591D01*
X99566Y251557D01*
X99143Y251455D01*
X98742Y251289D01*
X98371Y251062D01*
X98040Y250779D01*
X97757Y250448D01*
X97530Y250077D01*
X97364Y249676D01*
X97262Y249253D01*
X97228Y248819D01*
X97262Y248385D01*
X97364Y247962D01*
X97530Y247561D01*
X97757Y247190D01*
X98040Y246859D01*
X98371Y246576D01*
X98742Y246349D01*
X99143Y246183D01*
X99566Y246081D01*
X100000Y246047D01*
X100434Y246081D01*
X100581Y246117D01*
X101220Y245478D01*
Y237816D01*
X96452Y233048D01*
Y264189D01*
X96487Y264132D01*
X96535Y264072D01*
X96592Y264019D01*
X96656Y263977D01*
X96727Y263945D01*
X96801Y263924D01*
X96878Y263915D01*
X96955Y263919D01*
X97030Y263934D01*
X97103Y263961D01*
X97170Y263999D01*
X97230Y264047D01*
X97283Y264104D01*
X97325Y264168D01*
X97357Y264239D01*
X97378Y264313D01*
X97387Y264390D01*
X97383Y264467D01*
X97368Y264542D01*
X97341Y264615D01*
X97303Y264682D01*
X97079Y265050D01*
X96889Y265437D01*
X96735Y265840D01*
X96618Y266255D01*
X96540Y266679D01*
X96500Y267108D01*
Y267539D01*
X96540Y267968D01*
X96618Y268392D01*
X96735Y268807D01*
X96889Y269210D01*
X97079Y269597D01*
X97303Y269965D01*
X97341Y270032D01*
X97368Y270105D01*
X97383Y270180D01*
X97387Y270257D01*
X97378Y270334D01*
X97357Y270408D01*
X97325Y270479D01*
X97283Y270543D01*
X97230Y270600D01*
X97170Y270648D01*
X97103Y270686D01*
X97030Y270713D01*
X96955Y270728D01*
X96878Y270732D01*
X96801Y270723D01*
X96727Y270702D01*
X96656Y270670D01*
X96592Y270628D01*
X96535Y270575D01*
X96487Y270515D01*
X96452Y270458D01*
Y283465D01*
G37*
G36*
X90987D02*X96452D01*
Y270458D01*
X96216Y270071D01*
X95986Y269603D01*
X95800Y269116D01*
X95660Y268615D01*
X95565Y268103D01*
X95517Y267584D01*
Y267063D01*
X95565Y266544D01*
X95660Y266032D01*
X95800Y265531D01*
X95986Y265044D01*
X96216Y264576D01*
X96452Y264189D01*
Y233048D01*
X95472Y232068D01*
Y248427D01*
X95455Y248642D01*
X95405Y248852D01*
X95322Y249052D01*
X95209Y249237D01*
X95068Y249401D01*
X90987Y253482D01*
Y264189D01*
X91223Y264576D01*
X91453Y265044D01*
X91639Y265531D01*
X91779Y266032D01*
X91874Y266544D01*
X91922Y267063D01*
Y267584D01*
X91874Y268103D01*
X91779Y268615D01*
X91639Y269116D01*
X91453Y269603D01*
X91223Y270071D01*
X90987Y270458D01*
Y283465D01*
G37*
G36*
X86220D02*X90987D01*
Y270458D01*
X90952Y270515D01*
X90904Y270575D01*
X90847Y270628D01*
X90783Y270670D01*
X90712Y270702D01*
X90638Y270723D01*
X90561Y270732D01*
X90484Y270728D01*
X90409Y270713D01*
X90336Y270686D01*
X90269Y270648D01*
X90209Y270600D01*
X90156Y270543D01*
X90114Y270479D01*
X90082Y270408D01*
X90061Y270334D01*
X90052Y270257D01*
X90056Y270180D01*
X90071Y270105D01*
X90098Y270032D01*
X90136Y269965D01*
X90360Y269597D01*
X90550Y269210D01*
X90704Y268807D01*
X90821Y268392D01*
X90899Y267968D01*
X90939Y267539D01*
Y267108D01*
X90899Y266679D01*
X90821Y266255D01*
X90704Y265840D01*
X90550Y265437D01*
X90360Y265050D01*
X90136Y264682D01*
X90098Y264615D01*
X90071Y264542D01*
X90056Y264467D01*
X90052Y264390D01*
X90061Y264313D01*
X90082Y264239D01*
X90114Y264168D01*
X90156Y264104D01*
X90209Y264047D01*
X90269Y263999D01*
X90336Y263961D01*
X90409Y263934D01*
X90484Y263919D01*
X90561Y263915D01*
X90638Y263924D01*
X90712Y263945D01*
X90783Y263977D01*
X90847Y264019D01*
X90904Y264072D01*
X90952Y264132D01*
X90987Y264189D01*
Y253482D01*
X86808Y257661D01*
X86802Y257668D01*
X86638Y257809D01*
X86453Y257922D01*
X86253Y258005D01*
X86220Y258013D01*
Y261621D01*
X86480D01*
X86999Y261669D01*
X87511Y261764D01*
X88012Y261904D01*
X88499Y262090D01*
X88967Y262320D01*
X89411Y262591D01*
X89471Y262639D01*
X89524Y262696D01*
X89566Y262760D01*
X89598Y262831D01*
X89619Y262905D01*
X89628Y262982D01*
X89624Y263059D01*
X89609Y263134D01*
X89582Y263207D01*
X89544Y263274D01*
X89496Y263334D01*
X89439Y263387D01*
X89375Y263429D01*
X89304Y263461D01*
X89230Y263482D01*
X89153Y263491D01*
X89076Y263487D01*
X89001Y263472D01*
X88928Y263445D01*
X88861Y263407D01*
X88493Y263183D01*
X88106Y262993D01*
X87703Y262839D01*
X87288Y262722D01*
X86864Y262644D01*
X86435Y262604D01*
X86220D01*
Y272043D01*
X86435D01*
X86864Y272003D01*
X87288Y271925D01*
X87703Y271808D01*
X88106Y271654D01*
X88493Y271464D01*
X88861Y271240D01*
X88928Y271202D01*
X89001Y271175D01*
X89076Y271160D01*
X89153Y271156D01*
X89230Y271165D01*
X89304Y271186D01*
X89375Y271218D01*
X89439Y271260D01*
X89496Y271313D01*
X89544Y271373D01*
X89582Y271440D01*
X89609Y271513D01*
X89624Y271588D01*
X89628Y271665D01*
X89619Y271742D01*
X89598Y271816D01*
X89566Y271887D01*
X89524Y271951D01*
X89471Y272008D01*
X89411Y272056D01*
X88967Y272327D01*
X88499Y272557D01*
X88012Y272743D01*
X87511Y272883D01*
X86999Y272978D01*
X86480Y273026D01*
X86220D01*
Y283465D01*
G37*
G36*
X81452D02*X86220D01*
Y273026D01*
X85959D01*
X85440Y272978D01*
X84928Y272883D01*
X84427Y272743D01*
X83940Y272557D01*
X83472Y272327D01*
X83028Y272056D01*
X82968Y272008D01*
X82915Y271951D01*
X82873Y271887D01*
X82841Y271816D01*
X82820Y271742D01*
X82811Y271665D01*
X82815Y271588D01*
X82830Y271513D01*
X82857Y271440D01*
X82895Y271373D01*
X82943Y271313D01*
X83000Y271260D01*
X83064Y271218D01*
X83135Y271186D01*
X83209Y271165D01*
X83286Y271156D01*
X83363Y271160D01*
X83438Y271175D01*
X83511Y271202D01*
X83578Y271240D01*
X83946Y271464D01*
X84333Y271654D01*
X84736Y271808D01*
X85151Y271925D01*
X85575Y272003D01*
X86004Y272043D01*
X86220D01*
Y262604D01*
X86004D01*
X85575Y262644D01*
X85151Y262722D01*
X84736Y262839D01*
X84333Y262993D01*
X83946Y263183D01*
X83578Y263407D01*
X83511Y263445D01*
X83438Y263472D01*
X83363Y263487D01*
X83286Y263491D01*
X83209Y263482D01*
X83135Y263461D01*
X83064Y263429D01*
X83000Y263387D01*
X82943Y263334D01*
X82895Y263274D01*
X82857Y263207D01*
X82830Y263134D01*
X82815Y263059D01*
X82811Y262982D01*
X82820Y262905D01*
X82841Y262831D01*
X82873Y262760D01*
X82915Y262696D01*
X82968Y262639D01*
X83028Y262591D01*
X83472Y262320D01*
X83940Y262090D01*
X84427Y261904D01*
X84928Y261764D01*
X85440Y261669D01*
X85959Y261621D01*
X86220D01*
Y258013D01*
X86043Y258055D01*
X85827Y258072D01*
X81452D01*
Y264189D01*
X81487Y264132D01*
X81535Y264072D01*
X81592Y264019D01*
X81656Y263977D01*
X81727Y263945D01*
X81801Y263924D01*
X81878Y263915D01*
X81955Y263919D01*
X82030Y263934D01*
X82103Y263961D01*
X82170Y263999D01*
X82230Y264047D01*
X82283Y264104D01*
X82325Y264168D01*
X82357Y264239D01*
X82378Y264313D01*
X82387Y264390D01*
X82383Y264467D01*
X82368Y264542D01*
X82341Y264615D01*
X82303Y264682D01*
X82079Y265050D01*
X81889Y265437D01*
X81735Y265840D01*
X81618Y266255D01*
X81540Y266679D01*
X81500Y267108D01*
Y267539D01*
X81540Y267968D01*
X81618Y268392D01*
X81735Y268807D01*
X81889Y269210D01*
X82079Y269597D01*
X82303Y269965D01*
X82341Y270032D01*
X82368Y270105D01*
X82383Y270180D01*
X82387Y270257D01*
X82378Y270334D01*
X82357Y270408D01*
X82325Y270479D01*
X82283Y270543D01*
X82230Y270600D01*
X82170Y270648D01*
X82103Y270686D01*
X82030Y270713D01*
X81955Y270728D01*
X81878Y270732D01*
X81801Y270723D01*
X81727Y270702D01*
X81656Y270670D01*
X81592Y270628D01*
X81535Y270575D01*
X81487Y270515D01*
X81452Y270458D01*
Y283465D01*
G37*
G36*
X75987D02*X81452D01*
Y270458D01*
X81216Y270071D01*
X80986Y269603D01*
X80800Y269116D01*
X80660Y268615D01*
X80565Y268103D01*
X80517Y267584D01*
Y267063D01*
X80565Y266544D01*
X80660Y266032D01*
X80800Y265531D01*
X80986Y265044D01*
X81216Y264576D01*
X81452Y264189D01*
Y258072D01*
X75987D01*
Y264189D01*
X76223Y264576D01*
X76453Y265044D01*
X76639Y265531D01*
X76779Y266032D01*
X76874Y266544D01*
X76922Y267063D01*
Y267584D01*
X76874Y268103D01*
X76779Y268615D01*
X76639Y269116D01*
X76453Y269603D01*
X76223Y270071D01*
X75987Y270458D01*
Y283465D01*
G37*
G36*
X71220D02*X75987D01*
Y270458D01*
X75952Y270515D01*
X75904Y270575D01*
X75847Y270628D01*
X75783Y270670D01*
X75712Y270702D01*
X75638Y270723D01*
X75561Y270732D01*
X75484Y270728D01*
X75409Y270713D01*
X75336Y270686D01*
X75269Y270648D01*
X75209Y270600D01*
X75156Y270543D01*
X75114Y270479D01*
X75082Y270408D01*
X75061Y270334D01*
X75052Y270257D01*
X75056Y270180D01*
X75071Y270105D01*
X75098Y270032D01*
X75136Y269965D01*
X75360Y269597D01*
X75550Y269210D01*
X75704Y268807D01*
X75821Y268392D01*
X75899Y267968D01*
X75939Y267539D01*
Y267108D01*
X75899Y266679D01*
X75821Y266255D01*
X75704Y265840D01*
X75550Y265437D01*
X75360Y265050D01*
X75136Y264682D01*
X75098Y264615D01*
X75071Y264542D01*
X75056Y264467D01*
X75052Y264390D01*
X75061Y264313D01*
X75082Y264239D01*
X75114Y264168D01*
X75156Y264104D01*
X75209Y264047D01*
X75269Y263999D01*
X75336Y263961D01*
X75409Y263934D01*
X75484Y263919D01*
X75561Y263915D01*
X75638Y263924D01*
X75712Y263945D01*
X75783Y263977D01*
X75847Y264019D01*
X75904Y264072D01*
X75952Y264132D01*
X75987Y264189D01*
Y258072D01*
X71220D01*
Y261621D01*
X71480D01*
X71999Y261669D01*
X72511Y261764D01*
X73012Y261904D01*
X73499Y262090D01*
X73967Y262320D01*
X74411Y262591D01*
X74471Y262639D01*
X74524Y262696D01*
X74566Y262760D01*
X74598Y262831D01*
X74619Y262905D01*
X74628Y262982D01*
X74624Y263059D01*
X74609Y263134D01*
X74582Y263207D01*
X74544Y263274D01*
X74496Y263334D01*
X74439Y263387D01*
X74375Y263429D01*
X74304Y263461D01*
X74230Y263482D01*
X74153Y263491D01*
X74076Y263487D01*
X74001Y263472D01*
X73928Y263445D01*
X73861Y263407D01*
X73493Y263183D01*
X73106Y262993D01*
X72703Y262839D01*
X72288Y262722D01*
X71864Y262644D01*
X71435Y262604D01*
X71220D01*
Y272043D01*
X71435D01*
X71864Y272003D01*
X72288Y271925D01*
X72703Y271808D01*
X73106Y271654D01*
X73493Y271464D01*
X73861Y271240D01*
X73928Y271202D01*
X74001Y271175D01*
X74076Y271160D01*
X74153Y271156D01*
X74230Y271165D01*
X74304Y271186D01*
X74375Y271218D01*
X74439Y271260D01*
X74496Y271313D01*
X74544Y271373D01*
X74582Y271440D01*
X74609Y271513D01*
X74624Y271588D01*
X74628Y271665D01*
X74619Y271742D01*
X74598Y271816D01*
X74566Y271887D01*
X74524Y271951D01*
X74471Y272008D01*
X74411Y272056D01*
X73967Y272327D01*
X73499Y272557D01*
X73012Y272743D01*
X72511Y272883D01*
X71999Y272978D01*
X71480Y273026D01*
X71220D01*
Y283465D01*
G37*
G36*
Y258072D02*X66452D01*
Y264189D01*
X66487Y264132D01*
X66535Y264072D01*
X66592Y264019D01*
X66656Y263977D01*
X66727Y263945D01*
X66801Y263924D01*
X66878Y263915D01*
X66955Y263919D01*
X67030Y263934D01*
X67103Y263961D01*
X67170Y263999D01*
X67230Y264047D01*
X67283Y264104D01*
X67325Y264168D01*
X67357Y264239D01*
X67378Y264313D01*
X67387Y264390D01*
X67383Y264467D01*
X67368Y264542D01*
X67341Y264615D01*
X67303Y264682D01*
X67079Y265050D01*
X66889Y265437D01*
X66735Y265840D01*
X66618Y266255D01*
X66540Y266679D01*
X66500Y267108D01*
Y267539D01*
X66540Y267968D01*
X66618Y268392D01*
X66735Y268807D01*
X66889Y269210D01*
X67079Y269597D01*
X67303Y269965D01*
X67341Y270032D01*
X67368Y270105D01*
X67383Y270180D01*
X67387Y270257D01*
X67378Y270334D01*
X67357Y270408D01*
X67325Y270479D01*
X67283Y270543D01*
X67230Y270600D01*
X67170Y270648D01*
X67103Y270686D01*
X67030Y270713D01*
X66955Y270728D01*
X66878Y270732D01*
X66801Y270723D01*
X66727Y270702D01*
X66656Y270670D01*
X66592Y270628D01*
X66535Y270575D01*
X66487Y270515D01*
X66452Y270458D01*
Y272142D01*
X68169D01*
X68028Y272056D01*
X67968Y272008D01*
X67915Y271951D01*
X67873Y271887D01*
X67841Y271816D01*
X67820Y271742D01*
X67811Y271665D01*
X67815Y271588D01*
X67830Y271513D01*
X67857Y271440D01*
X67895Y271373D01*
X67943Y271313D01*
X68000Y271260D01*
X68064Y271218D01*
X68135Y271186D01*
X68209Y271165D01*
X68286Y271156D01*
X68363Y271160D01*
X68438Y271175D01*
X68511Y271202D01*
X68578Y271240D01*
X68946Y271464D01*
X69333Y271654D01*
X69736Y271808D01*
X70151Y271925D01*
X70575Y272003D01*
X71004Y272043D01*
X71220D01*
Y262604D01*
X71004D01*
X70575Y262644D01*
X70151Y262722D01*
X69736Y262839D01*
X69333Y262993D01*
X68946Y263183D01*
X68578Y263407D01*
X68511Y263445D01*
X68438Y263472D01*
X68363Y263487D01*
X68286Y263491D01*
X68209Y263482D01*
X68135Y263461D01*
X68064Y263429D01*
X68000Y263387D01*
X67943Y263334D01*
X67895Y263274D01*
X67857Y263207D01*
X67830Y263134D01*
X67815Y263059D01*
X67811Y262982D01*
X67820Y262905D01*
X67841Y262831D01*
X67873Y262760D01*
X67915Y262696D01*
X67968Y262639D01*
X68028Y262591D01*
X68472Y262320D01*
X68940Y262090D01*
X69427Y261904D01*
X69928Y261764D01*
X70440Y261669D01*
X70959Y261621D01*
X71220D01*
Y258072D01*
G37*
G36*
X66452Y283465D02*X71220D01*
Y273026D01*
X70959D01*
X70440Y272978D01*
X69928Y272883D01*
X69462Y272753D01*
X69472Y272796D01*
X69482Y272919D01*
X69472Y282376D01*
X69443Y282496D01*
X69396Y282610D01*
X69332Y282716D01*
X69251Y282809D01*
X69158Y282890D01*
X69052Y282954D01*
X68938Y283001D01*
X68818Y283030D01*
X68695Y283040D01*
X66452D01*
Y283465D01*
G37*
G36*
Y258072D02*X60987D01*
Y264189D01*
X61223Y264576D01*
X61453Y265044D01*
X61639Y265531D01*
X61779Y266032D01*
X61874Y266544D01*
X61922Y267063D01*
Y267584D01*
X61874Y268103D01*
X61779Y268615D01*
X61639Y269116D01*
X61453Y269603D01*
X61223Y270071D01*
X60987Y270458D01*
Y272141D01*
X66452Y272142D01*
Y270458D01*
X66216Y270071D01*
X65986Y269603D01*
X65800Y269116D01*
X65660Y268615D01*
X65565Y268103D01*
X65517Y267584D01*
Y267063D01*
X65565Y266544D01*
X65660Y266032D01*
X65800Y265531D01*
X65986Y265044D01*
X66216Y264576D01*
X66452Y264189D01*
Y258072D01*
G37*
G36*
X60987Y283465D02*X66452D01*
Y283040D01*
X60987Y283039D01*
Y283465D01*
G37*
G36*
Y258072D02*X56220D01*
Y261621D01*
X56480D01*
X56999Y261669D01*
X57511Y261764D01*
X58012Y261904D01*
X58499Y262090D01*
X58967Y262320D01*
X59411Y262591D01*
X59471Y262639D01*
X59524Y262696D01*
X59566Y262760D01*
X59598Y262831D01*
X59619Y262905D01*
X59628Y262982D01*
X59624Y263059D01*
X59609Y263134D01*
X59582Y263207D01*
X59544Y263274D01*
X59496Y263334D01*
X59439Y263387D01*
X59375Y263429D01*
X59304Y263461D01*
X59230Y263482D01*
X59153Y263491D01*
X59076Y263487D01*
X59001Y263472D01*
X58928Y263445D01*
X58861Y263407D01*
X58493Y263183D01*
X58106Y262993D01*
X57703Y262839D01*
X57288Y262722D01*
X56864Y262644D01*
X56435Y262604D01*
X56220D01*
Y272043D01*
X56435D01*
X56864Y272003D01*
X57288Y271925D01*
X57703Y271808D01*
X58106Y271654D01*
X58493Y271464D01*
X58861Y271240D01*
X58928Y271202D01*
X59001Y271175D01*
X59076Y271160D01*
X59153Y271156D01*
X59230Y271165D01*
X59304Y271186D01*
X59375Y271218D01*
X59439Y271260D01*
X59496Y271313D01*
X59544Y271373D01*
X59582Y271440D01*
X59609Y271513D01*
X59624Y271588D01*
X59628Y271665D01*
X59619Y271742D01*
X59598Y271816D01*
X59566Y271887D01*
X59524Y271951D01*
X59471Y272008D01*
X59411Y272056D01*
X59272Y272141D01*
X60987D01*
Y270458D01*
X60952Y270515D01*
X60904Y270575D01*
X60847Y270628D01*
X60783Y270670D01*
X60712Y270702D01*
X60638Y270723D01*
X60561Y270732D01*
X60484Y270728D01*
X60409Y270713D01*
X60336Y270686D01*
X60269Y270648D01*
X60209Y270600D01*
X60156Y270543D01*
X60114Y270479D01*
X60082Y270408D01*
X60061Y270334D01*
X60052Y270257D01*
X60056Y270180D01*
X60071Y270105D01*
X60098Y270032D01*
X60136Y269965D01*
X60360Y269597D01*
X60550Y269210D01*
X60704Y268807D01*
X60821Y268392D01*
X60899Y267968D01*
X60939Y267539D01*
Y267108D01*
X60899Y266679D01*
X60821Y266255D01*
X60704Y265840D01*
X60550Y265437D01*
X60360Y265050D01*
X60136Y264682D01*
X60098Y264615D01*
X60071Y264542D01*
X60056Y264467D01*
X60052Y264390D01*
X60061Y264313D01*
X60082Y264239D01*
X60114Y264168D01*
X60156Y264104D01*
X60209Y264047D01*
X60269Y263999D01*
X60336Y263961D01*
X60409Y263934D01*
X60484Y263919D01*
X60561Y263915D01*
X60638Y263924D01*
X60712Y263945D01*
X60783Y263977D01*
X60847Y264019D01*
X60904Y264072D01*
X60952Y264132D01*
X60987Y264189D01*
Y258072D01*
G37*
G36*
X56220D02*X53937D01*
X53721Y258055D01*
X53511Y258004D01*
X53311Y257922D01*
X53127Y257809D01*
X52962Y257668D01*
X51452Y256158D01*
Y264189D01*
X51487Y264132D01*
X51535Y264072D01*
X51592Y264019D01*
X51656Y263977D01*
X51727Y263945D01*
X51801Y263924D01*
X51878Y263915D01*
X51955Y263919D01*
X52030Y263934D01*
X52103Y263961D01*
X52170Y263999D01*
X52230Y264047D01*
X52283Y264104D01*
X52325Y264168D01*
X52357Y264239D01*
X52378Y264313D01*
X52387Y264390D01*
X52383Y264467D01*
X52368Y264542D01*
X52341Y264615D01*
X52303Y264682D01*
X52079Y265050D01*
X51889Y265437D01*
X51735Y265840D01*
X51618Y266255D01*
X51540Y266679D01*
X51500Y267108D01*
Y267539D01*
X51540Y267968D01*
X51618Y268392D01*
X51735Y268807D01*
X51889Y269210D01*
X52079Y269597D01*
X52303Y269965D01*
X52341Y270032D01*
X52368Y270105D01*
X52383Y270180D01*
X52387Y270257D01*
X52378Y270334D01*
X52357Y270408D01*
X52325Y270479D01*
X52283Y270543D01*
X52230Y270600D01*
X52170Y270648D01*
X52103Y270686D01*
X52030Y270713D01*
X51955Y270728D01*
X51878Y270732D01*
X51801Y270723D01*
X51727Y270702D01*
X51656Y270670D01*
X51592Y270628D01*
X51535Y270575D01*
X51487Y270515D01*
X51452Y270458D01*
Y272140D01*
X53166D01*
X53028Y272056D01*
X52968Y272008D01*
X52915Y271951D01*
X52873Y271887D01*
X52841Y271816D01*
X52820Y271742D01*
X52811Y271665D01*
X52815Y271588D01*
X52830Y271513D01*
X52857Y271440D01*
X52895Y271373D01*
X52943Y271313D01*
X53000Y271260D01*
X53064Y271218D01*
X53135Y271186D01*
X53209Y271165D01*
X53286Y271156D01*
X53363Y271160D01*
X53438Y271175D01*
X53511Y271202D01*
X53578Y271240D01*
X53946Y271464D01*
X54333Y271654D01*
X54736Y271808D01*
X55151Y271925D01*
X55575Y272003D01*
X56004Y272043D01*
X56220D01*
Y262604D01*
X56004D01*
X55575Y262644D01*
X55151Y262722D01*
X54736Y262839D01*
X54333Y262993D01*
X53946Y263183D01*
X53578Y263407D01*
X53511Y263445D01*
X53438Y263472D01*
X53363Y263487D01*
X53286Y263491D01*
X53209Y263482D01*
X53135Y263461D01*
X53064Y263429D01*
X53000Y263387D01*
X52943Y263334D01*
X52895Y263274D01*
X52857Y263207D01*
X52830Y263134D01*
X52815Y263059D01*
X52811Y262982D01*
X52820Y262905D01*
X52841Y262831D01*
X52873Y262760D01*
X52915Y262696D01*
X52968Y262639D01*
X53028Y262591D01*
X53472Y262320D01*
X53940Y262090D01*
X54427Y261904D01*
X54928Y261764D01*
X55440Y261669D01*
X55959Y261621D01*
X56220D01*
Y258072D01*
G37*
G36*
X51452Y283465D02*X60987D01*
Y283039D01*
X51452Y283037D01*
Y283465D01*
G37*
G36*
X0D02*X51452D01*
Y283037D01*
X1144Y283030D01*
X1024Y283001D01*
X910Y282954D01*
X804Y282890D01*
X711Y282809D01*
X630Y282716D01*
X566Y282610D01*
X519Y282496D01*
X490Y282376D01*
X480Y282253D01*
X490Y272796D01*
X519Y272676D01*
X566Y272562D01*
X630Y272456D01*
X711Y272363D01*
X804Y272282D01*
X910Y272218D01*
X1024Y272171D01*
X1144Y272142D01*
X1267Y272132D01*
X51452Y272140D01*
Y270458D01*
X51216Y270071D01*
X50986Y269603D01*
X50800Y269116D01*
X50660Y268615D01*
X50565Y268103D01*
X50517Y267584D01*
Y267063D01*
X50565Y266544D01*
X50660Y266032D01*
X50800Y265531D01*
X50986Y265044D01*
X51216Y264576D01*
X51452Y264189D01*
Y256158D01*
X50600Y255306D01*
X50510Y255199D01*
X50460Y255141D01*
X50347Y254957D01*
X50264Y254757D01*
X50214Y254547D01*
X50197Y254331D01*
Y251575D01*
X50214Y251359D01*
X50264Y251149D01*
X50347Y250949D01*
X50460Y250765D01*
X50525Y250690D01*
X50600Y250601D01*
X51452Y249749D01*
Y246580D01*
X34556D01*
X34538Y246591D01*
X34132Y246759D01*
X33705Y246862D01*
X33267Y246896D01*
X32829Y246862D01*
X32402Y246759D01*
X31996Y246591D01*
X31621Y246361D01*
X31287Y246076D01*
X31086Y245841D01*
X31038Y245957D01*
X30808Y246332D01*
X30523Y246666D01*
X30189Y246951D01*
X29814Y247181D01*
X29408Y247349D01*
X28981Y247452D01*
X28543Y247486D01*
X28105Y247452D01*
X27678Y247349D01*
X27272Y247181D01*
X26897Y246951D01*
X26563Y246666D01*
X26278Y246332D01*
X26048Y245957D01*
X25880Y245551D01*
X25777Y245124D01*
X25743Y244686D01*
X25777Y244248D01*
X25817Y244082D01*
X25120Y243385D01*
X24967Y243206D01*
X24844Y243005D01*
X24754Y242788D01*
X24699Y242559D01*
X24681Y242324D01*
Y236026D01*
X24699Y235791D01*
X24754Y235562D01*
X24844Y235345D01*
X24967Y235144D01*
X25120Y234965D01*
X25127Y234959D01*
X25722Y234364D01*
X25717Y234361D01*
X25623Y234280D01*
X25542Y234186D01*
X25478Y234081D01*
X25431Y233967D01*
X25402Y233846D01*
X25392Y233723D01*
X25402Y232300D01*
X25423Y232212D01*
X17261Y232210D01*
X17334Y232273D01*
X17619Y232607D01*
X17849Y232982D01*
X18017Y233388D01*
X18120Y233815D01*
X18154Y234253D01*
X18120Y234691D01*
X18017Y235118D01*
X17849Y235524D01*
X17619Y235899D01*
X17334Y236233D01*
X17000Y236518D01*
X16625Y236748D01*
X16219Y236916D01*
X15792Y237019D01*
X15354Y237053D01*
X14916Y237019D01*
X14489Y236916D01*
X14083Y236748D01*
X13708Y236518D01*
X13374Y236233D01*
X13089Y235899D01*
X12859Y235524D01*
X12691Y235118D01*
X12588Y234691D01*
X12558Y234299D01*
X9645Y232514D01*
X9636Y233846D01*
X9607Y233967D01*
X9560Y234081D01*
X9496Y234186D01*
X9415Y234280D01*
X9321Y234361D01*
X9216Y234425D01*
X9102Y234472D01*
X8981Y234501D01*
X8858Y234511D01*
X3075Y234501D01*
Y236195D01*
X3217Y236184D01*
X7171Y236196D01*
X7321Y236232D01*
X7464Y236291D01*
X7595Y236372D01*
X7713Y236472D01*
X7813Y236590D01*
X7894Y236721D01*
X7953Y236864D01*
X7989Y237014D01*
X8001Y237168D01*
X7989Y240154D01*
X7953Y240304D01*
X7894Y240447D01*
X7813Y240578D01*
X7713Y240696D01*
X7595Y240796D01*
X7464Y240877D01*
X7321Y240936D01*
X7171Y240972D01*
X7017Y240984D01*
X3075Y240972D01*
Y241113D01*
X3981Y242020D01*
X7171Y242030D01*
X7321Y242066D01*
X7464Y242125D01*
X7595Y242206D01*
X7713Y242306D01*
X7813Y242424D01*
X7894Y242555D01*
X7953Y242698D01*
X7989Y242848D01*
X8001Y243002D01*
X7992Y245183D01*
X8045Y244512D01*
X8316Y243383D01*
X8761Y242310D01*
X9367Y241320D01*
X10121Y240437D01*
X11004Y239683D01*
X11994Y239077D01*
X13067Y238632D01*
X14196Y238361D01*
X15354Y238270D01*
X16512Y238361D01*
X17641Y238632D01*
X18714Y239077D01*
X19704Y239683D01*
X20587Y240437D01*
X21341Y241320D01*
X21947Y242310D01*
X22392Y243383D01*
X22663Y244512D01*
X22754Y245670D01*
X22663Y246828D01*
X22392Y247957D01*
X21947Y249030D01*
X21341Y250020D01*
X20587Y250903D01*
X19704Y251657D01*
X18714Y252263D01*
X17641Y252708D01*
X16512Y252979D01*
X15354Y253070D01*
X14196Y252979D01*
X13067Y252708D01*
X11994Y252263D01*
X11004Y251657D01*
X10121Y250903D01*
X9367Y250020D01*
X8761Y249030D01*
X8316Y247957D01*
X8045Y246828D01*
X7981Y246019D01*
X7953Y246138D01*
X7894Y246281D01*
X7813Y246412D01*
X7713Y246530D01*
X7595Y246630D01*
X7464Y246711D01*
X7321Y246770D01*
X7171Y246806D01*
X7017Y246818D01*
X3063Y246806D01*
X2913Y246770D01*
X2770Y246711D01*
X2639Y246630D01*
X2521Y246530D01*
X2421Y246412D01*
X2340Y246281D01*
X2281Y246138D01*
X2245Y245988D01*
X2233Y245834D01*
X2238Y244519D01*
X514Y242794D01*
X361Y242615D01*
X238Y242414D01*
X147Y242197D01*
X92Y241968D01*
X74Y241733D01*
Y227559D01*
X0D01*
Y283465D01*
G37*
G36*
X108980Y271345D02*Y274971D01*
X109281Y275272D01*
X115914D01*
X118971Y272215D01*
Y267329D01*
X117758Y267326D01*
X117605Y267289D01*
X117460Y267229D01*
X117326Y267147D01*
X117207Y267045D01*
X117105Y266926D01*
X117023Y266792D01*
X116965Y266653D01*
X116952Y266666D01*
X116935Y270094D01*
X116880Y270323D01*
X116790Y270540D01*
X116667Y270741D01*
X116514Y270920D01*
X116335Y271073D01*
X116134Y271196D01*
X115917Y271286D01*
X115688Y271341D01*
X115453Y271359D01*
X113718Y271341D01*
X113489Y271286D01*
X113453Y271271D01*
X113417Y271286D01*
X113188Y271341D01*
X112953Y271359D01*
X111218Y271341D01*
X110989Y271286D01*
X110903Y271250D01*
X110817Y271286D01*
X110588Y271341D01*
X110353Y271359D01*
X108980Y271345D01*
G37*
G36*
X85986Y216733D02*X90157D01*
Y206694D01*
X85986D01*
Y208788D01*
X87827Y208794D01*
X87964Y208827D01*
X88095Y208881D01*
X88215Y208955D01*
X88322Y209047D01*
X88414Y209154D01*
X88488Y209274D01*
X88542Y209405D01*
X88575Y209542D01*
X88586Y209683D01*
X88575Y213824D01*
X88542Y213961D01*
X88488Y214092D01*
X88414Y214212D01*
X88322Y214319D01*
X88215Y214411D01*
X88095Y214485D01*
X87964Y214539D01*
X87827Y214572D01*
X87686Y214583D01*
X85986Y214578D01*
Y216733D01*
G37*
G36*
X80315D02*X85986D01*
Y214578D01*
X84145Y214572D01*
X84008Y214539D01*
X83877Y214485D01*
X83757Y214411D01*
X83650Y214319D01*
X83558Y214212D01*
X83484Y214092D01*
X83430Y213961D01*
X83397Y213824D01*
X83386Y213683D01*
X83397Y209542D01*
X83430Y209405D01*
X83484Y209274D01*
X83558Y209154D01*
X83650Y209047D01*
X83757Y208955D01*
X83877Y208881D01*
X84008Y208827D01*
X84145Y208794D01*
X84286Y208783D01*
X85986Y208788D01*
Y206694D01*
X80315D01*
Y208248D01*
X80350Y208256D01*
X80567Y208346D01*
X80768Y208469D01*
X80947Y208622D01*
X81100Y208801D01*
X81223Y209002D01*
X81313Y209219D01*
X81368Y209448D01*
X81386Y209683D01*
X81368Y213918D01*
X81313Y214147D01*
X81223Y214364D01*
X81100Y214565D01*
X80947Y214744D01*
X80768Y214897D01*
X80567Y215020D01*
X80350Y215110D01*
X80315Y215118D01*
Y216733D01*
G37*
G36*
X89567Y230710D02*X85986D01*
Y233651D01*
X87858Y233658D01*
X88026Y233698D01*
X88185Y233764D01*
X88333Y233854D01*
X88464Y233966D01*
X88576Y234097D01*
X88666Y234245D01*
X88732Y234404D01*
X88772Y234572D01*
X88786Y234744D01*
X88772Y238916D01*
X88732Y239084D01*
X88666Y239243D01*
X88576Y239391D01*
X88464Y239522D01*
X88333Y239634D01*
X88185Y239724D01*
X88026Y239790D01*
X87858Y239830D01*
X87686Y239844D01*
X85986Y239837D01*
Y244883D01*
X89567D01*
Y230710D01*
G37*
G36*
X85986D02*X84669D01*
X84642Y230822D01*
X84588Y230953D01*
X84514Y231073D01*
X84422Y231180D01*
X84315Y231272D01*
X84195Y231346D01*
X84064Y231400D01*
X83927Y231433D01*
X83786Y231444D01*
X80245Y231433D01*
X80108Y231400D01*
X79977Y231346D01*
X79893Y231294D01*
X79931Y231453D01*
X79965Y231891D01*
X79931Y232329D01*
X79828Y232756D01*
X79686Y233099D01*
Y233657D01*
X80058Y233658D01*
X80226Y233698D01*
X80385Y233764D01*
X80533Y233854D01*
X80664Y233966D01*
X80776Y234097D01*
X80866Y234245D01*
X80932Y234404D01*
X80972Y234572D01*
X80986Y234744D01*
X80972Y238916D01*
X80932Y239084D01*
X80866Y239243D01*
X80776Y239391D01*
X80664Y239522D01*
X80533Y239634D01*
X80385Y239724D01*
X80226Y239790D01*
X80058Y239830D01*
X79886Y239844D01*
X76314Y239830D01*
X76146Y239790D01*
X75987Y239724D01*
X75839Y239634D01*
X75708Y239522D01*
X75596Y239391D01*
X75506Y239243D01*
X75440Y239084D01*
X75400Y238916D01*
X75386Y238744D01*
X75400Y234572D01*
X75440Y234404D01*
X75506Y234245D01*
X75549Y234174D01*
X75519Y234156D01*
X75185Y233871D01*
X75000Y233654D01*
Y234286D01*
X75002Y234294D01*
X75014Y234450D01*
X75002Y242086D01*
X75000Y242094D01*
Y244883D01*
X85986D01*
Y239837D01*
X84114Y239830D01*
X83946Y239790D01*
X83787Y239724D01*
X83639Y239634D01*
X83508Y239522D01*
X83396Y239391D01*
X83306Y239243D01*
X83240Y239084D01*
X83200Y238916D01*
X83186Y238744D01*
X83200Y234572D01*
X83240Y234404D01*
X83306Y234245D01*
X83396Y234097D01*
X83508Y233966D01*
X83639Y233854D01*
X83787Y233764D01*
X83946Y233698D01*
X84114Y233658D01*
X84286Y233644D01*
X85986Y233651D01*
Y230710D01*
G37*
G36*
X75000Y220833D02*Y224444D01*
X75002Y224452D01*
X75014Y224608D01*
X75007Y228938D01*
X79490D01*
X79497Y226403D01*
X79530Y226266D01*
X79584Y226135D01*
X79658Y226015D01*
X79750Y225908D01*
X79857Y225816D01*
X79977Y225742D01*
X80108Y225688D01*
X80245Y225655D01*
X80386Y225644D01*
X83927Y225655D01*
X84064Y225688D01*
X84195Y225742D01*
X84315Y225816D01*
X84422Y225908D01*
X84514Y226015D01*
X84588Y226135D01*
X84642Y226266D01*
X84675Y226403D01*
X84686Y226544D01*
X84680Y228938D01*
X89567D01*
Y219293D01*
X84682D01*
X84675Y222024D01*
X84642Y222161D01*
X84588Y222292D01*
X84514Y222412D01*
X84422Y222519D01*
X84315Y222611D01*
X84195Y222685D01*
X84064Y222739D01*
X83927Y222772D01*
X83786Y222783D01*
X80245Y222772D01*
X80108Y222739D01*
X79977Y222685D01*
X79857Y222611D01*
X79750Y222519D01*
X79658Y222412D01*
X79584Y222292D01*
X79530Y222161D01*
X79497Y222024D01*
X79486Y221883D01*
X79493Y219293D01*
X77644D01*
X77603Y219303D01*
X77165Y219337D01*
X76727Y219303D01*
X76686Y219293D01*
X75004D01*
X75002Y220825D01*
X75000Y220833D01*
G37*
G36*
X77559Y159165D02*Y162064D01*
X80580Y162073D01*
X80717Y162106D01*
X80848Y162160D01*
X80968Y162234D01*
X81075Y162326D01*
X81167Y162433D01*
X81241Y162553D01*
X81295Y162684D01*
X81328Y162821D01*
X81339Y162962D01*
X81328Y167103D01*
X81295Y167240D01*
X81241Y167371D01*
X81167Y167491D01*
X81075Y167598D01*
X80968Y167690D01*
X80923Y167718D01*
X83661D01*
Y158072D01*
X77628D01*
X77625Y158934D01*
X77585Y159102D01*
X77559Y159165D01*
G37*
G36*
X77632Y156891D02*X83661D01*
Y138190D01*
X67716D01*
Y147656D01*
X67991Y147978D01*
X68218Y148349D01*
X68384Y148750D01*
X68486Y149173D01*
X68520Y149607D01*
X68486Y150041D01*
X68384Y150464D01*
X68218Y150865D01*
X67991Y151236D01*
X67716Y151558D01*
Y153619D01*
X71850D01*
X72085Y153636D01*
X72314Y153691D01*
X72531Y153782D01*
X72585Y153815D01*
X72640Y153782D01*
X72799Y153716D01*
X72967Y153676D01*
X73139Y153662D01*
X76711Y153676D01*
X76879Y153716D01*
X77038Y153782D01*
X77186Y153872D01*
X77317Y153984D01*
X77429Y154115D01*
X77519Y154263D01*
X77585Y154422D01*
X77625Y154590D01*
X77639Y154762D01*
X77632Y156891D01*
G37*
G36*
X54724Y201970D02*X62598D01*
X66142Y205514D01*
X67905D01*
X67908Y203782D01*
X67945Y203629D01*
X68005Y203484D01*
X68087Y203350D01*
X68189Y203231D01*
X68308Y203129D01*
X68442Y203047D01*
X68587Y202987D01*
X68740Y202950D01*
X68896Y202938D01*
X74170Y202950D01*
X74323Y202987D01*
X74468Y203047D01*
X74602Y203129D01*
X74721Y203231D01*
X74823Y203350D01*
X74905Y203484D01*
X74965Y203629D01*
X75002Y203782D01*
X75014Y203938D01*
X75012Y205514D01*
X83661D01*
Y168900D01*
X67715D01*
X60629Y175986D01*
X54724D01*
Y176493D01*
X61059Y176502D01*
X61288Y176557D01*
X61505Y176647D01*
X61706Y176770D01*
X61885Y176923D01*
X62038Y177102D01*
X62161Y177303D01*
X62251Y177520D01*
X62306Y177749D01*
X62324Y177984D01*
X62306Y199419D01*
X62251Y199648D01*
X62161Y199865D01*
X62038Y200066D01*
X61885Y200245D01*
X61706Y200398D01*
X61505Y200521D01*
X61288Y200611D01*
X61059Y200666D01*
X60824Y200684D01*
X54724Y200675D01*
Y201970D01*
G37*
G36*
X37008Y183761D02*Y183860D01*
X32789Y184296D01*
X36659Y184302D01*
X36888Y184357D01*
X37105Y184447D01*
X37306Y184570D01*
X37485Y184723D01*
X37638Y184902D01*
X37761Y185103D01*
X37851Y185320D01*
X37906Y185549D01*
X37924Y185784D01*
X37906Y191619D01*
X37851Y191848D01*
X37761Y192065D01*
X37638Y192266D01*
X37485Y192445D01*
X37306Y192598D01*
X37105Y192721D01*
X36888Y192811D01*
X36659Y192866D01*
X36424Y192884D01*
X25590Y192868D01*
Y193309D01*
X26731Y193388D01*
X36659Y193402D01*
X36888Y193457D01*
X37105Y193547D01*
X37306Y193670D01*
X37485Y193823D01*
X37638Y194002D01*
X37761Y194203D01*
X37851Y194420D01*
X37906Y194649D01*
X37924Y194884D01*
X37921Y195827D01*
X37981Y195864D01*
X38036Y195911D01*
X38086Y195946D01*
X38156Y196014D01*
X38249Y196093D01*
X38299Y196152D01*
X38340Y196191D01*
X39255Y197222D01*
X39763Y197182D01*
X40389Y197231D01*
X40999Y197378D01*
X41579Y197618D01*
X42114Y197946D01*
X42591Y198354D01*
X42999Y198831D01*
X43327Y199366D01*
X43567Y199946D01*
X43714Y200556D01*
X43763Y201182D01*
X43714Y201808D01*
X43675Y201970D01*
X48867D01*
X49118Y201866D01*
X49728Y201719D01*
X50354Y201670D01*
X50980Y201719D01*
X51590Y201866D01*
X51841Y201970D01*
X54724D01*
Y200675D01*
X48389Y200666D01*
X48160Y200611D01*
X47943Y200521D01*
X47742Y200398D01*
X47563Y200245D01*
X47410Y200066D01*
X47287Y199865D01*
X47197Y199648D01*
X47142Y199419D01*
X47124Y199184D01*
X47142Y177749D01*
X47197Y177520D01*
X47287Y177303D01*
X47410Y177102D01*
X47563Y176923D01*
X47742Y176770D01*
X47943Y176647D01*
X48160Y176557D01*
X48389Y176502D01*
X48624Y176484D01*
X54724Y176493D01*
Y175986D01*
X37689D01*
X37761Y176103D01*
X37851Y176320D01*
X37906Y176549D01*
X37924Y176784D01*
X37906Y182619D01*
X37851Y182848D01*
X37761Y183065D01*
X37638Y183266D01*
X37485Y183445D01*
X37306Y183598D01*
X37105Y183721D01*
X37008Y183761D01*
G37*
G54D12*X67913Y113387D02*Y113781D01*
G54D16*X62992Y79528D02*X68110D01*
X70866Y82284D01*
X59449Y84646D02*Y90158D01*
X57874Y85827D02*Y90946D01*
X56300Y86615D02*Y91733D01*
X54724Y87796D02*Y94489D01*
X59449Y90158D02*X65354Y96063D01*
X57874Y90946D02*X64566Y97638D01*
X56300Y91733D02*X63780Y99213D01*
X72834Y101182D02*X54725D01*
X53150Y81103D02*X57874Y85827D01*
X51575Y81889D02*X56300Y86615D01*
X55118Y80315D02*X59449Y84646D01*
X50000Y83071D02*X54724Y87796D01*
X51575Y87402D02*Y90552D01*
X80315Y108662D02*X72834Y101182D01*
G54D12*X77165Y111293D02*X73425Y107553D01*
G54D16*X73228Y79134D02*X74803Y80709D01*
X87795D01*
X77165Y78741D02*X86221D01*
X74409Y75985D02*X77165Y78741D01*
X78346Y77166D02*X84646D01*
X62992Y74410D02*X69685D01*
X71260Y75985D01*
X74409D01*
X73228Y72835D02*X74015D01*
X78346Y77166D01*
X82283Y74016D02*X79134Y70867D01*
Y68112D01*
X72441Y65748D02*X74803D01*
X77165Y63386D01*
X68898Y67717D02*X77165D01*
X102756Y94489D02*X105512Y91732D01*
Y90945D01*
X96260Y91536D02*X101181Y86615D01*
X93307Y88583D02*X99606Y82284D01*
X105512D01*
X91733Y85434D02*X99214Y77953D01*
X90550Y82284D02*X99212Y73622D01*
X99214Y77953D02*X101181D01*
X99212Y69292D02*X101181D01*
X99212Y73622D02*X105512D01*
X86221Y78741D02*X100000Y64961D01*
X105512D01*
X84646Y77166D02*X101181Y60630D01*
X87795Y80709D02*X99212Y69292D01*
X73228Y91536D02*X96260D01*
X70079Y88583D02*X93307D01*
X73228Y85434D02*X91733D01*
X70866Y82284D02*X90550D01*
X68110Y94489D02*X102756D01*
X65354Y96063D02*X113778D01*
X64566Y97638D02*X112992D01*
X63780Y99213D02*X112205D01*
X112598Y99607D01*
X69685Y62992D02*X72441Y65748D01*
X62598Y61418D02*X68898Y67717D01*
X55906Y66142D02*X51575Y70473D01*
X56299Y74804D02*X55117Y75986D01*
X55906Y70473D02*X53150Y73230D01*
Y81103D01*
X51575Y70473D02*Y81889D01*
X55117Y75986D02*X55118Y80315D01*
X56299Y61418D02*X50000Y67717D01*
Y83071D01*
X112598Y99607D02*Y124410D01*
G54D12*X105906Y120867D02*X86221D01*
G54D16*X87008Y126378D02*X80315Y119686D01*
Y119685D02*Y108662D01*
G54D12*X86221Y120867D02*X84252Y118898D01*
X82283Y126772D02*X77165Y121654D01*
Y111293D01*
X61786Y113053D02*X51831D01*
X66313Y109153D02*X67913Y107553D01*
X53586Y109153D02*X66313D01*
X73425Y106694D02*Y108146D01*
X67915Y107873D02*X68109Y107679D01*
X72241Y108146D02*X73425D01*
X48425Y109253D02*X34842D01*
G54D16*X51771Y112993D02*X48425Y109253D01*
G54D12*X51831Y113053D02*X51771Y112993D01*
X32283Y111812D02*X34839Y109256D01*
X47243Y114174D02*X47009D01*
X30709Y109843D02*X36218Y104331D01*
X67520Y113387D02*X62992Y117915D01*
X68897D02*X73425Y113387D01*
X67716Y117915D02*X68897D01*
X62204Y135041D02*X65748Y135040D01*
X63386Y129923D02*X64567D01*
X52362Y124804D02*X46851Y119293D01*
X54921Y121852D02*X47009Y114174D01*
X49212Y130710D02*X52755D01*
X43700Y136222D02*X49212Y130710D01*
X42519Y134253D02*X51968Y124804D01*
X71063Y104332D02*X73425Y106694D01*
X36218Y104331D02*X71063Y104332D01*
X67913Y113387D02*X67520D01*
G54D13*X74839Y151291D02*X64844Y141296D01*
G54D12*Y140436D02*X61023Y136615D01*
G54D13*X55820Y149496D02*X65637D01*
G54D12*X66339Y155119D02*X64567Y156891D01*
G54D16*X64075Y156202D02*X61614Y153741D01*
X64075Y156891D02*Y156202D01*
G54D12*X68307Y159450D02*X61614D01*
X64844Y141296D02*Y140436D01*
G54D13*X65637Y149496D02*X65748Y149607D01*
G54D12*X40340Y126379D02*Y125775D01*
X46851Y119293D02*X42126D01*
X62992Y117915D02*X62204D01*
X54921Y127756D02*Y121852D01*
X53937Y128741D02*X54921Y127756D01*
X61023Y136615D02*X57086D01*
X57873Y130710D02*X62204Y135041D01*
X53937Y129529D02*Y128741D01*
X52362Y131104D02*X53937Y129529D01*
G54D16*X46850Y60630D02*X50787Y56693D01*
X46850Y85434D02*Y60630D01*
X48425Y66930D02*Y84252D01*
G54D12*X43701Y76772D02*Y60630D01*
X47244Y57087D01*
G54D16*X49606Y96063D02*Y92914D01*
X48425Y91732D01*
Y87008D01*
X45276Y88189D02*Y96063D01*
X43701Y81497D02*X40945Y84253D01*
Y96063D01*
X48425Y87008D02*X46850Y85434D01*
X45276Y96063D02*X39370Y101969D01*
X40945Y96063D02*X39370Y97638D01*
X37008D01*
G54D13*X31890Y92914D02*X34646Y90158D01*
G54D12*X37008Y97638D02*X31890Y102756D01*
G54D16*X39370Y101969D02*X35433D01*
X32677Y104725D01*
G54D12*X30741Y67717D02*X34215Y71191D01*
G54D13*X34646Y71622D01*
Y90158D02*Y71622D01*
X22836Y84252D02*X20866Y86222D01*
X9843D01*
X16929Y82284D02*Y86221D01*
X24016Y76378D02*X22836Y77558D01*
Y84252D01*
G54D12*X31890Y102756D02*X24803D01*
X22047Y100000D01*
Y91339D01*
X22836Y90551D01*
G54D16*X32677Y104725D02*X24095D01*
X17008Y97638D01*
G54D12*X22836Y90551D02*Y84252D01*
X133465Y85201D02*X138500D01*
X133465Y100162D02*X138539D01*
X141339Y97362D01*
X128309Y86183D02*X130709Y88583D01*
X128310Y93344D02*X130709Y90945D01*
X133465Y70240D02*X138461D01*
X141339Y67362D01*
X130548Y67323D02*X133465Y64406D01*
X130709Y73623D02*X146063D01*
X126772Y67323D02*X130548D01*
X118572Y71223D02*X128309D01*
X130709Y73623D01*
G54D16*X112205Y61024D02*Y78347D01*
G54D12*X118572Y78384D02*X128310D01*
X130709Y75985D01*
X150787D01*
X146063Y73623D02*X147637Y72049D01*
X138500Y85201D02*X141339Y82362D01*
X126772Y82284D02*X130548D01*
X133465Y79367D01*
X118572Y86183D02*X128309D01*
X130709Y88583D02*X146063D01*
X118572Y93344D02*X128310D01*
X130709Y90945D02*X150787D01*
X146063Y88583D02*X147638Y87008D01*
G54D16*X116142Y82284D02*X126772D01*
X112205Y78347D02*X116142Y82284D01*
X113778Y96063D02*X114960Y97245D01*
X112992Y97638D02*X114173Y98819D01*
X114960Y97245D02*X126772D01*
G54D12*X133465Y115122D02*X138579D01*
X141339Y112362D01*
X133465Y130476D02*X138225D01*
X141339Y127362D01*
X126772Y127559D02*X130548D01*
X128309Y131459D02*X130315Y133466D01*
X130548Y127559D02*X133465Y124642D01*
X126772Y112205D02*X130548D01*
X133465Y109288D01*
X126772Y97245D02*X130548D01*
X133465Y94328D01*
X128309Y101144D02*X130709Y103544D01*
X128310Y108305D02*X130709Y105906D01*
X128309Y116498D02*X130709Y118898D01*
X148425Y133465D02*Y137796D01*
X137795Y148426D01*
X130315Y133466D02*X148425Y133465D01*
X118572Y101144D02*X128309D01*
X130709Y103544D02*X146062D01*
X147637Y101969D01*
X130709Y105906D02*X150787D01*
X118572Y108305D02*X128310D01*
X118572Y116498D02*X128309D01*
G54D16*X116535Y112205D02*X126772D01*
G54D12*X130709Y118898D02*X145669D01*
X128310Y123659D02*X130709Y121260D01*
X150787D01*
X145669Y118898D02*X147637Y116930D01*
G54D16*X114173Y98819D02*Y109843D01*
X116535Y112205D01*
X112598Y124410D02*X115747Y127559D01*
G54D12*X118572Y123659D02*X128310D01*
G54D16*X115747Y127559D02*X126772D01*
G54D12*X128309Y131459D02*X116498D01*
X105906Y120867D01*
X40340Y126379D02*X34252Y132285D01*
X62598Y129923D02*X64567D01*
X40340Y125775D02*X32283Y117718D01*
X37009Y114176D02*Y114174D01*
X42126Y119293D02*X37009Y114176D01*
X30708Y136222D02*X43700D01*
X2362Y131104D02*Y109450D01*
X7009Y115278D02*X14173Y122442D01*
X7009Y114174D02*Y115278D01*
X14173Y122442D02*X24803D01*
X32283Y117718D02*Y111812D01*
X15747Y144489D02*X2362Y131104D01*
X16929Y144489D02*X15747D01*
X3543Y137403D02*Y142703D01*
X5329Y144489D01*
X12285Y109450D02*X17009Y114174D01*
X2362Y109450D02*X12285D01*
X22047Y109844D02*X30709Y109843D01*
X77165Y231891D02*X74998D01*
G54D15*X33266Y230514D02*X29133D01*
G54D16*X33267Y230513D02*X33266Y230514D01*
X56299Y233269D02*X68110D01*
X55118Y234450D02*X56299Y233269D01*
G54D15*X52559Y220474D02*X47441D01*
X47243Y230316D02*X42716Y225789D01*
X47441Y220474D02*X42716Y215946D01*
G54D16*X63582Y221852D02*X53937D01*
G54D15*X52952Y230316D02*X47243D01*
X55119Y228150D02*X52952Y230316D01*
X55119Y224803D02*Y228150D01*
G54D16*X56495Y223426D02*X55119Y224803D01*
G54D12*X59645Y228348D02*X57676D01*
G54D16*X64960Y223426D02*X56495D01*
X65551Y219883D02*X63582Y221852D01*
G54D12*X57676Y228348D02*X50276Y235748D01*
X59645Y215748D02*Y216338D01*
X71455Y237009D02*X75195Y240749D01*
X71455Y240160D02*Y238190D01*
X68110Y243505D02*X71455Y240160D01*
X58858Y243505D02*X68110D01*
X57283Y245080D02*X58858Y243505D01*
X55118Y237402D02*Y234450D01*
X59645Y237009D02*X54016Y242639D01*
X74998Y231891D02*X71455Y228348D01*
G54D15*Y216340D02*X64960Y223426D01*
G54D16*X65551Y218505D02*Y219883D01*
X71455Y229924D02*Y228348D01*
X68110Y233269D02*X71455Y229924D01*
G54D13*X77165Y224017D02*X82086D01*
X75984Y222836D02*X77165Y224017D01*
X82086Y219883D02*Y228544D01*
G54D12*X34251Y245080D02*X57283D01*
G54D16*X61418Y246851D02*X61220Y246655D01*
X58071Y249804D02*X53346D01*
G54D12*X33267Y244096D02*X34251Y245080D01*
X26181Y242324D02*X28543Y244686D01*
X51968Y240552D02*X55118Y237402D01*
X48621Y240552D02*X51968D01*
G54D16*X55117Y253150D02*X54921Y252954D01*
X53346Y249804D02*X51575Y251575D01*
Y254331D01*
X53937Y256693D01*
G54D12*X43700Y235631D02*X48621Y240552D01*
X32481Y235631D02*X43700D01*
X29527Y238584D02*X32481Y235631D01*
X42323Y242639D02*X40354Y240670D01*
X50276Y235748D02*X50354Y235670D01*
X54016Y242639D02*X42323D01*
X107480Y265748D02*Y275591D01*
X108661Y276772D01*
X109603Y272595D02*X110630Y273622D01*
X109603Y268109D02*Y272595D01*
X105906Y259843D02*X108268Y257481D01*
X111418D01*
X112205Y258268D01*
Y261107D01*
X109603Y263625D02*X107480Y265748D01*
X112205Y261107D02*X112203Y261109D01*
Y268109D01*
X109603Y261109D02*Y263625D01*
X105118Y259843D02*X105906D01*
X141339Y260868D02*X132439D01*
X132283Y261024D01*
X108661Y276772D02*X116535D01*
X120472Y272835D01*
Y261025D01*
X120473Y261024D01*
X114703Y268109D02*Y266794D01*
X120473Y261024D01*
X117323Y253937D02*X126378D01*
X106693Y251182D02*X105118Y252757D01*
X103543Y255906D02*X106692D01*
X109055Y253544D01*
X114567D01*
X111024Y251182D02*X106693D01*
X114703Y261109D02*Y256557D01*
X117323Y253937D01*
X114567Y253544D02*X120473Y247638D01*
X114173Y243564D02*X117973D01*
X120473Y246064D01*
X113542Y248664D02*X111024Y251182D01*
X103937Y235827D02*X98819Y230708D01*
G54D16*X107173Y233309D02*X104175D01*
G54D12*X114173D02*X113542D01*
X111024Y235827D01*
X107173Y230709D02*X114173D01*
X107173Y248664D02*X104569D01*
X101969Y251182D01*
Y254332D01*
X103543Y255906D01*
X98819Y257874D02*Y253544D01*
X96850Y251575D01*
Y240552D01*
X97244Y240158D01*
X111024Y235827D02*X103937D01*
X103543Y238189D02*X114567D01*
X107173Y243564D02*X109792Y240945D01*
X100000Y248819D02*X102756Y246063D01*
X141339Y245868D02*X132478D01*
X132283Y246063D01*
X107173Y246064D02*X114173D01*
X120473Y247638D02*Y246064D01*
X114173Y248664D02*X113542D01*
X120473Y232283D02*Y230709D01*
X114567Y238189D02*X120473Y232283D01*
X115354Y240945D02*X117322Y238977D01*
X126378D01*
X109792Y240945D02*X115354D01*
G54D16*X87008Y253150D02*X55117D01*
X92520Y247638D02*X87008Y253150D01*
X90945Y245670D02*X89764Y246851D01*
X61418D01*
X53937Y256693D02*X85827D01*
X94094Y248426D01*
G54D12*X40354Y210631D02*Y210670D01*
G54D15*X42716Y225789D02*X37990D01*
X35433Y219096D02*Y225789D01*
X38582Y215946D02*X35433Y219096D01*
X42716Y215946D02*X38582D01*
X33266Y227955D02*X29133D01*
X35433Y225789D02*X33266Y227955D01*
X37990Y225789D02*X33266Y230513D01*
G54D12*X53937Y210631D02*X40354D01*
X23821Y220279D02*X29133D01*
X22441Y218899D02*X23821Y220279D01*
X29133Y217720D02*X25984Y217718D01*
X16535Y215356D02*X13779Y219686D01*
X29134Y212206D02*X29133Y215161D01*
X26181Y236026D02*Y242324D01*
X5905Y237796D02*X5117Y238584D01*
X9842Y237796D02*X5905D01*
G54D16*Y213387D02*Y215161D01*
X2758Y217720D02*X5905D01*
X1378Y216340D02*X2758Y217720D01*
X1378Y212599D02*Y216340D01*
X3149Y210828D02*X1378Y212599D01*
X7086Y212206D02*X5905Y213387D01*
X7086Y207481D02*Y212206D01*
X5905Y206300D02*X7086Y207481D01*
G54D12*X19686Y226773D02*X17716Y224804D01*
Y220080D02*X14567Y223230D01*
Y230710D02*X9055Y227954D01*
X9253Y230514D02*X15354Y234253D01*
X12204Y223230D02*X14567D01*
X13781Y226774D02*X13386Y226379D01*
X9055Y225198D02*X12204Y223230D01*
X5905Y225396D02*X9055Y225198D01*
Y222836D02*X13779Y219686D01*
X5905Y222838D02*X9055Y222836D01*
X5903D02*X5905Y222838D01*
X1575Y223623D02*X2362Y222836D01*
X5903D01*
X24016Y226773D02*X19686D01*
X28935Y230712D02*X14567Y230710D01*
X24802Y228742D02*X25590Y227954D01*
X15355Y228742D02*X24802D01*
X13781Y226774D02*X15355Y228742D01*
X29134Y227954D02*X29133Y227955D01*
X29132Y227954D02*X29133Y227955D01*
X25590Y227954D02*X29132D01*
X23226Y222838D02*X29133D01*
X22441Y223623D02*X23226Y222838D01*
X29133Y225396D02*X25392D01*
X24016Y226773D01*
X29133Y233073D02*X26181Y236026D01*
X1575Y241733D02*Y223623D01*
X3543Y243702D02*X1575Y241733D01*
X5117Y243702D02*X3543D01*
X5117Y238584D02*X5118Y233073D01*
X9055Y227954D02*X5905Y227955D01*
Y230514D02*X9253D01*
X76575Y212009D02*X71563Y216929D01*
X77165Y212704D02*X78186Y211683D01*
X77165Y216537D02*Y212704D01*
X78186Y211983D02*X76575Y212009D01*
G54D15*X71455Y216160D02*Y216340D01*
G54D12*X65551Y212401D02*Y218505D01*
X71455Y206497D02*X65551Y212401D01*
X71563Y216929D02*X71455D01*
Y206497D02*Y207678D01*
X83071D01*
G54D16*X71455Y215748D02*Y216160D01*
G54D12*X102756Y215748D02*X107173D01*
X101969Y209056D02*X103543Y210630D01*
X106692D01*
X107173Y218349D02*X104724D01*
X107173Y213249D02*X109792Y210630D01*
G54D16*X94488Y203544D02*Y217717D01*
X92913Y206300D02*Y216930D01*
X90945Y218897D01*
G54D12*X78186Y232912D02*X77165Y231891D01*
X78186Y236744D02*Y232912D01*
X85986Y238227D02*Y232519D01*
X83661Y240749D02*X85986Y238227D01*
X75195Y240749D02*X83661D01*
X85986Y232519D02*X86614Y231891D01*
G54D16*X92520Y219685D02*Y247638D01*
X90945Y218897D02*Y245670D01*
X94094Y248426D02*Y220474D01*
G54D12*X114173Y200788D02*X102362D01*
X107173Y203388D02*X104569D01*
X101969Y205906D01*
Y209056D01*
X106693Y205906D02*X105118Y207481D01*
X106692Y210630D02*X109055Y208268D01*
X114567D01*
X111024Y205906D02*X106693D01*
X109792Y210630D02*X115354D01*
X120473Y202362D02*Y200788D01*
X114567Y208268D02*X120473Y202362D01*
X115354Y210630D02*X117322Y208662D01*
X126378D01*
X114173Y203388D02*X113542D01*
X111024Y205906D01*
G54D16*X104175Y233309D02*X101968Y231102D01*
G54D12*X102756Y246063D02*X107173D01*
G54D16*X95669Y230315D02*X103543Y238189D01*
X101968Y231102D02*Y226378D01*
G54D12*X104724Y223229D02*X107087Y225591D01*
G54D16*X107173Y230709D02*X105118D01*
X103937Y229528D01*
Y225197D01*
X101575Y222835D01*
Y222048D01*
G54D12*X107087Y225591D02*X109448D01*
X111811Y223229D01*
X107173Y228209D02*X109398Y228346D01*
G54D16*X100394Y224803D02*X97243D01*
X95669Y226378D01*
Y230315D01*
G54D12*X98819Y230708D02*Y227953D01*
X112154Y225590D02*X115354D01*
X109398Y228346D02*X112154Y225590D01*
X109843Y220866D02*X108268Y222441D01*
X107173Y215749D02*X114173D01*
X111024Y220867D02*X109843Y220866D01*
X114173Y218349D02*X113542D01*
X111024Y220867D01*
X104724Y218349D02*Y223229D01*
X111811D02*X114567D01*
X117322Y223622D02*X126378D01*
X120473Y217323D02*Y215749D01*
X114567Y223229D02*X120473Y217323D01*
X114173Y213249D02*X117973D01*
X120473Y215749D01*
X115354Y225590D02*X117322Y223622D01*
X114173Y228209D02*X117973D01*
X120473Y230709D01*
X86614Y212311D02*X85986Y211683D01*
X86614Y216537D02*Y212311D01*
X85986Y210624D02*Y211683D01*
X83071Y207678D02*X85986Y210624D01*
X82283Y211615D02*X89567D01*
G54D16*X94488Y217717D02*X92520Y219685D01*
X94094Y220474D02*X96063Y218504D01*
Y200789D01*
G54D13*X51968Y153348D02*Y155159D01*
X50354Y156773D01*
G54D12*X52362Y124804D02*X51968D01*
G54D13*X55820Y149496D02*X51968Y153348D01*
G54D16*X55315Y158071D02*X52401Y160985D01*
X58820Y156891D02*X53228Y162560D01*
X55315Y154726D02*Y158071D01*
X56299Y153741D02*X55315Y154726D01*
X61614Y153741D02*X56299D01*
X58820Y156891D02*X58623D01*
G54D12*X59016D02*X58820D01*
X61614Y159450D02*X59016Y156891D01*
X59449Y167324D02*X58859Y166734D01*
X59252Y167521D02*X59449Y167324D01*
X58859Y166734D02*Y162009D01*
G54D13*X51653Y146773D02*X50354D01*
X53149Y145277D02*X51653Y146773D01*
G54D11*X60863Y145277D02*X53149D01*
X64844Y141296D02*X60863Y145277D01*
G54D12*X57480Y124804D02*X62598Y129923D01*
X78739Y160829D02*X79527Y160041D01*
X78739Y164962D02*Y160829D01*
X77559Y164962D02*X81496D01*
X70939Y163460D02*X68307Y159450D01*
X70939Y164962D02*Y163460D01*
X71850Y155119D02*X66339D01*
X71850Y160237D02*Y155119D01*
X74014Y160237D02*X71850D01*
X74839Y156762D02*X75301Y156300D01*
X78739Y164962D02*X74014Y160237D01*
X75301Y156300D02*X78149D01*
G54D13*X74839Y156762D02*Y151291D01*
G54D12*X64567Y167915D02*Y162009D01*
X60826Y171655D02*X64567Y167915D01*
X28740Y138190D02*X30708Y136222D01*
X26378Y137403D02*X29527Y134253D01*
X42519D02*X29527D01*
X34252Y132285D02*X28346D01*
X24409Y151183D02*X26378Y149214D01*
X24409Y159056D02*Y151183D01*
X26666Y161313D02*X24409Y159056D01*
X28754Y161313D02*X26666D01*
X23228Y137403D02*Y140552D01*
X24803Y122442D02*X28740Y126379D01*
X28346Y132285D02*X23228Y137403D01*
X58818Y205670D02*X50354D01*
X59645Y216338D02*X53937Y210631D01*
G54D15*Y221852D02*X52559Y220474D01*
G54D12*X59645Y206497D02*X58818Y205670D01*
X6890Y193110D02*X7480Y196064D01*
X6103Y183269D02*X4527Y181694D01*
X6102Y186024D02*X6103Y183269D01*
X6102Y192322D02*X6890Y193110D01*
G54D13*X6102Y192127D02*Y192322D01*
G54D12*X4921Y192323D02*X1771Y189174D01*
X7480Y196064D02*Y202757D01*
X11811Y185041D02*Y184647D01*
G54D36*X10826Y188977D02*X6102Y187205D01*
X21653Y188976D02*X10826Y188977D01*
G54D13*X25196Y192127D02*X6102D01*
G54D36*X21653Y185041D02*Y188976D01*
G54D16*X17716Y185631D02*X23031Y180316D01*
G54D36*X27109Y179584D02*X21653Y185041D01*
G54D13*X26378Y185434D02*X37008D01*
X30324Y179584D02*X27109D01*
X28738Y188584D02*X25196Y192127D01*
X36658Y197684D02*X30324D01*
X37008Y185434D02*Y191733D01*
X25590D01*
X61417Y177560D02*X61418Y199607D01*
X48031Y177560D02*X61417D01*
X54724Y188584D02*X28738D01*
X48031Y199607D02*Y177560D01*
X61418Y199607D02*X48031D01*
X39763Y201182D02*X36658Y197684D01*
G54D12*X22047Y213781D02*X21653Y210237D01*
X25197Y212205D02*X29134Y212206D01*
X25984Y217718D02*X22047Y213781D01*
X25197Y206693D02*Y212205D01*
X20472Y206694D02*X25197Y206693D01*
G54D13*X27559Y203544D02*X28739Y208269D01*
X39763Y201182D02*X34573Y208269D01*
X39763Y201182D02*Y201183D01*
G54D12*X19685Y207481D02*X20472Y206694D01*
X12992Y208663D02*X16535D01*
X9252Y205710D02*X12992Y208663D01*
X7480Y202757D02*X9252Y205710D01*
X12992Y216930D02*Y211812D01*
X16535Y208663D02*Y215356D01*
Y208663D02*X19685Y207481D01*
X9842Y220080D02*X12992Y216930D01*
X5905Y220279D02*X9842Y220080D01*
G54D16*X45472Y149017D02*X43307Y146852D01*
X45472Y158741D02*Y149017D01*
X47716Y160985D02*X45472Y158741D01*
X52401Y160985D02*X47716D01*
X53228Y162560D02*X47677D01*
G54D15*X37992Y166340D02*X34645Y162993D01*
X43897Y166340D02*X37992D01*
G54D16*X47677Y162560D02*X43897Y166340D01*
G54D12*X50354Y166773D02*X51102Y167521D01*
X60826Y171655D02*X40472D01*
X40354Y171773D01*
Y169883D01*
X51102Y167521D02*X59252D01*
X51378Y165749D02*X50354Y166773D01*
G54D16*X17126Y167520D02*X16535Y168111D01*
X20554Y161313D02*X19987D01*
X17126Y164174D02*Y167520D01*
G54D12*X9683Y168112D02*X16535Y168111D01*
G54D16*X19987Y161313D02*X17126Y164174D01*
G54D12*X20448Y161419D02*X20554Y161313D01*
X14370Y158072D02*X20448Y161419D01*
X19593Y161313D02*X20554D01*
X15748Y153938D02*X10469D01*
X9645Y160631D02*X4956Y153938D01*
X20866Y157678D02*X19488D01*
X12992Y164174D02*X14370Y162796D01*
X8858Y164174D02*X12992D01*
X7480Y165552D02*X8858Y164174D01*
X6102D02*X9645Y160631D01*
G54D15*X34645Y162993D02*Y149411D01*
X33267Y148033D01*
G54D12*X32283Y166537D02*Y158662D01*
X20472Y151182D02*Y153431D01*
X23228Y148426D02*X20472Y151182D01*
X16929Y152757D02*Y144489D01*
X20472Y153431D02*X20554Y153513D01*
G54D16*X23031Y175789D02*X20275Y165356D01*
X23031Y180316D02*Y175789D01*
G54D12*X23228Y147245D02*Y148426D01*
X28754Y153513D02*X28740Y138190D01*
X26378Y149214D02*Y137403D01*
X19488Y157678D02*X15748Y153938D01*
X30324Y188584D02*X29920D01*
G54D13*X26378Y174850D02*X30324Y179584D01*
X26378Y172048D02*Y174850D01*
G54D12*X16929Y152757D02*X15748Y153938D01*
X28822Y157481D02*X28754Y157413D01*
X31102Y157481D02*X28822D01*
X32283Y158662D02*X31102Y157481D01*
X26772Y172048D02*X32283Y166537D01*
X26378Y172048D02*X26772D01*
X1771Y148426D02*X5329Y144489D01*
X1771Y160631D02*X4330D01*
X4565Y168112D02*X4527Y164174D01*
Y181694D02*X4565Y168112D01*
X7480Y179922D02*Y165552D01*
X4527Y164174D02*X6102D01*
G54D16*X11811Y184647D02*X7480Y179922D01*
G54D12*X1771Y189174D02*Y148426D01*
X105906Y149213D02*X104331D01*
X115354Y150787D02*X117322Y148819D01*
X126378D01*
X109792Y150787D02*X115354D01*
G54D16*X107173Y173467D02*X104963D01*
X107173Y170867D02*X105118D01*
G54D12*X95669Y172441D02*X101575Y178347D01*
G54D16*X97638Y167323D02*X100001D01*
X101969Y170473D02*Y169292D01*
X100001Y167323D01*
G54D12*X97638D02*X95669Y169292D01*
Y172441D01*
X98819Y170473D02*Y172048D01*
X102756Y175985D01*
G54D16*X104963Y173467D02*X101969Y170473D01*
G54D12*X93701Y159843D02*Y174804D01*
X104331Y149213D02*X93701Y159843D01*
G54D16*X105118Y170867D02*X103937Y169686D01*
Y168898D01*
X99213Y164174D01*
X98819D01*
G54D12*X101969D02*X103543Y165748D01*
X107173Y158506D02*X104569D01*
X101969Y161024D01*
Y164174D01*
X106693Y161024D02*X105118Y162599D01*
X103543Y165748D02*X106692D01*
X109055Y163386D01*
X114567D01*
X107173Y170867D02*X114173D01*
X107173Y168367D02*X109792Y165748D01*
X115354D01*
X111024Y161024D02*X106693D01*
X113542Y158506D02*X111024Y161024D01*
X107173Y153406D02*X109792Y150787D01*
X114173Y155906D02*X102362D01*
X120473Y157480D02*Y155906D01*
Y172441D02*Y170867D01*
X114567Y163386D02*X120473Y157480D01*
X114173Y153406D02*X117973D01*
X120473Y155906D01*
X114173Y158506D02*X113542D01*
X115354Y165748D02*X117322Y163780D01*
X126378D01*
X101575Y178347D02*X114567D01*
X111024Y175985D02*X102756D01*
X114567Y178347D02*X120473Y172441D01*
X114173Y168367D02*X117973D01*
X120473Y170867D01*
X114173Y173467D02*X113542D01*
X111024Y175985D01*
X141339Y155868D02*X132321D01*
X132283Y155906D01*
X141339Y170868D02*X132284D01*
X132283Y170867D01*
X141339Y185868D02*X132324D01*
X132283Y185827D01*
X141339Y200868D02*X132363D01*
X132283Y200788D01*
X141339Y215868D02*X132403D01*
X132283Y215748D01*
G54D13*X126378Y142126D02*Y253937D01*
G54D12*X141339Y230868D02*X132442D01*
X132283Y230709D01*
X102363Y185827D02*X100000Y188189D01*
G54D16*X90945Y200000D02*X94488Y203544D01*
G54D12*X101969Y190945D02*Y194095D01*
G54D16*X101968Y226378D02*X100394Y224803D01*
G54D12*X101969Y194095D02*X103543Y195669D01*
X93701Y174804D02*X98819Y179922D01*
G54D16*X86614Y200000D02*X92913Y206300D01*
X87008Y191733D02*Y126378D01*
X96063Y200789D02*X87008Y191733D01*
G54D12*X107173Y188427D02*X104569D01*
X101969Y190945D01*
X114173Y185827D02*X102363D01*
X120473Y187401D02*Y185827D01*
X114173Y183327D02*X117973D01*
X115354Y180708D02*X117322Y178740D01*
X126378D01*
X107173Y183327D02*X109792Y180708D01*
X115354D01*
X117973Y183327D02*X120473Y185827D01*
X106693Y190945D02*X105118Y192520D01*
X103543Y195669D02*X106692D01*
X109055Y193307D01*
X111024Y190945D02*X106693D01*
X114567Y193307D02*X120473Y187401D01*
X114173Y188427D02*X113542D01*
X111024Y190945D01*
X114173Y198288D02*X117973D01*
X120473Y200788D01*
X115354Y195669D02*X117322Y193701D01*
X107173Y198288D02*X109792Y195669D01*
X109055Y193307D02*X114567D01*
X117322Y193701D02*X126378D01*
X109792Y195669D02*X115354D01*
G54D13*X56261Y16145D02*X101261D01*
G54D12*X130709Y15748D02*X150787D01*
X118572Y26341D02*X128309D01*
X118572Y18541D02*X127916D01*
G54D16*X126772Y22441D02*X106693D01*
G54D13*X132283Y3544D02*X48896D01*
X49999Y26378D02*X52362Y28741D01*
X50394Y24016D02*X53150Y26772D01*
G54D12*X59843Y25984D02*X64173Y21654D01*
G54D13*X73229Y28741D02*X52362D01*
X51575Y30709D02*X76772D01*
X53150Y26772D02*X76772D01*
G54D12*X59843Y28741D02*Y25984D01*
G54D13*X49213Y28347D02*X51575Y30709D01*
G54D12*X133465Y55280D02*X138421D01*
X141339Y52362D01*
X126772Y52363D02*X130548D01*
X130709Y58662D02*X146062D01*
X130709Y61024D02*X150787D01*
X146062Y58662D02*X147637Y57087D01*
X130548Y52363D02*X133465Y49446D01*
X118572Y48463D02*X128310D01*
X128309Y56262D02*X130709Y58662D01*
X128310Y63423D02*X130709Y61024D01*
Y43702D02*X146062D01*
X130709Y46064D02*X150787Y46063D01*
X146062Y43702D02*X147638Y42126D01*
X118572Y56262D02*X128309D01*
X118572Y63423D02*X128310D01*
G54D16*X109449Y55119D02*X114173Y59843D01*
G54D12*X133465Y25358D02*X138343D01*
X133465Y40319D02*X138382D01*
X141339Y37362D01*
X130709Y28741D02*X146062D01*
X130709Y31103D02*X150787D01*
X146062Y28741D02*X147637Y27166D01*
X138343Y25358D02*X141339Y22362D01*
X126772Y37402D02*X130548D01*
X118572Y33502D02*X128310D01*
X130709Y31103D01*
X118572Y41302D02*X128309D01*
X130548Y37402D02*X133465Y34485D01*
X126772Y22441D02*X130548D01*
X133465Y19524D01*
X128309Y26341D02*X130709Y28741D01*
X127916Y18541D02*X130709Y15748D01*
X128309Y41302D02*X130709Y43702D01*
X128310Y48463D02*X130709Y46064D01*
G54D16*X126772Y37402D02*X97244D01*
X92520Y52363D02*X126772D01*
X92126Y55119D02*X109449D01*
X114173Y59843D02*Y65354D01*
X108662Y57481D02*X112205Y61024D01*
X114173Y65354D02*X116142Y67323D01*
X126772D01*
X106693Y22441D02*X69685Y59449D01*
X97244Y37402D02*X73228Y60630D01*
X77165Y67717D02*X92520Y52363D01*
X79134Y68112D02*X92126Y55119D01*
X94094Y57481D02*X108662D01*
G54D13*X83465Y38977D02*X81891Y40551D01*
G54D16*X82283Y69292D02*X94094Y57481D01*
G54D13*X52755Y40551D02*X81891D01*
G54D12*X50000Y52363D02*Y45670D01*
G54D16*X59449Y77560D02*X58268Y78741D01*
X59449Y56693D02*Y77560D01*
X62992Y89371D02*X68110Y94489D01*
X54725Y101182D02*X49606Y96063D01*
X62992Y84646D02*X66142D01*
X48425Y84252D02*X51575Y87402D01*
X66142Y84646D02*X70079Y88583D01*
X69685Y59449D02*Y62992D01*
X60236Y52363D02*X59055D01*
X56299Y55119D01*
Y61418D01*
X62992Y48819D02*X59449D01*
X54331Y53937D01*
Y61024D01*
X48425Y66930D01*
G54D13*X21260Y11418D02*Y7087D01*
X48896Y3544D02*X39765Y12674D01*
X34178Y7087D01*
X25591Y12599D02*X22441D01*
X9055Y7087D02*X34178D01*
G54D12*X5118Y11024D02*X9055Y7087D01*
X17127Y51540D02*Y36810D01*
X19291Y34646D01*
Y27168D01*
X19685Y26774D01*
Y16930D01*
X9056Y40945D02*X13386Y36615D01*
Y30709D01*
X7874Y36543D02*X7015D01*
G54D13*X22441Y12599D02*X21260Y11418D01*
X26378Y16930D02*Y29134D01*
X19685Y16930D02*X28635D01*
X19685D02*X14598D01*
X39765Y26378D02*Y12674D01*
Y26378D02*X49999D01*
X39764Y28347D02*X49213D01*
X39764Y24016D02*X50394D01*
G54D16*X22244Y26774D02*Y31297D01*
G54D12*X17127Y26774D02*Y23033D01*
X14961Y20867D01*
X12205D02*X10630Y22441D01*
X14961Y20867D02*X12205D01*
G54D13*X28635Y16930D02*X30278Y15287D01*
G54D12*X5118Y26701D02*Y27953D01*
X7874Y30709D01*
X14568Y26774D02*Y29527D01*
X13386Y30709D01*
X7874D01*
X7015Y36543D02*X1575Y31103D01*
Y24410D01*
X5118Y20867D01*
Y11024D01*
X10630Y22441D02*Y26772D01*
G54D13*X14598Y16930D02*X12955Y15287D01*
G54D12*X5512Y51808D02*X12205D01*
X7874Y46779D02*X9127D01*
X12205Y43701D01*
Y40945D01*
X7874D02*X9056D01*
X12205Y51808D02*X14568Y49445D01*
X17127Y51540D02*X18343Y52756D01*
X14568Y49445D02*Y44490D01*
X12205Y40945D02*X14567Y38583D01*
X16929D01*
X5512Y57642D02*X14728D01*
X14961Y54725D02*X2362D01*
X1575Y55512D01*
G54D13*X22048Y38583D02*X17323D01*
G54D12*X24410Y52989D02*X24177Y52756D01*
G54D13*X24016Y61418D02*X34252Y51182D01*
G54D12*X24410Y55906D02*Y52989D01*
G54D13*X30315Y61024D02*Y59843D01*
X27953Y60630D02*Y59056D01*
X35827Y51182D01*
G54D12*X21260Y55118D02*X20079Y56299D01*
X24177Y52756D02*Y46423D01*
X22244Y44490D01*
X19685D02*Y47638D01*
X21260Y49213D01*
Y55118D01*
X20079Y56299D02*X16535D01*
X14961Y54725D01*
X14728Y57642D02*X15748Y58662D01*
X21654D01*
X24410Y55906D01*
G54D13*X30315Y62991D02*X39765Y53541D01*
X31496Y64961D02*X42126Y54331D01*
X34645Y64961D02*X44094Y55512D01*
X30315Y59843D02*X37795Y52363D01*
X30315Y62991D02*X28742Y61418D01*
X16535Y64961D02*X34645D01*
G54D12*X1575Y55512D02*Y75592D01*
X4724Y78741D01*
X5512Y57642D02*Y59449D01*
X4331Y60630D01*
Y75197D01*
X5512Y76378D01*
X4724Y78741D02*X16141D01*
X23622Y71260D01*
X26346D01*
X26415Y71191D01*
X5512Y76378D02*X14961D01*
G54D13*X13780Y72835D02*X14173Y72442D01*
G54D12*X14961Y76378D02*X23622Y67717D01*
G54D13*X14173Y72442D02*Y67323D01*
X15354Y69292D02*X18504Y66142D01*
X22441Y64961D02*X14567Y72835D01*
G54D12*X23622Y67717D02*X30741D01*
G54D13*X9843Y69293D02*X16145Y62991D01*
X14173Y67323D02*X16535Y64961D01*
X16145Y62991D02*X30315D01*
X28742Y61418D02*X7874D01*
X7480Y61812D01*
Y63780D01*
X7874Y63386D01*
X14173D01*
X39765Y53541D02*Y48818D01*
X42126Y54331D02*Y49607D01*
X44094Y55512D02*Y50788D01*
G54D12*X47244Y57087D02*Y55119D01*
X50000Y52363D01*
G54D16*X22244Y31297D02*X39765Y48818D01*
G54D12*X45669Y41339D02*X37008D01*
X33071Y37402D01*
G54D13*X52755Y40551D02*X45277Y33071D01*
G54D12*X50000Y45670D02*X45669Y41339D01*
G54D13*X22835Y37796D02*X22048Y38583D01*
X45277Y33071D02*X30316D01*
X26378Y29134D01*
G54D16*X2578Y279721D02*X4408D01*
X5018Y279111D01*
X4408Y278501D02*X5018Y279111D01*
X2578Y278501D02*X4408D01*
X1968Y277891D02*X2578Y278501D01*
X1968Y277891D02*X2578Y277281D01*
X4408D01*
X5018Y277891D01*
X1968Y279111D02*X2578Y279721D01*
X7093Y274841D02*Y279111D01*
X7703Y279721D01*
X6483Y276671D02*X7703D01*
X8924Y277281D02*Y279111D01*
X9534Y279721D01*
X10754D01*
X11364Y279111D01*
Y277281D02*Y279111D01*
X15269Y274841D02*Y279721D01*
X14659D02*X15269Y279111D01*
X13439Y279721D02*X14659D01*
X12829Y279111D02*X13439Y279721D01*
X12829Y277891D02*Y279111D01*
Y277891D02*X13439Y277281D01*
X14659D01*
X15269Y277891D01*
X17344Y279721D02*X19174D01*
X16734Y279111D02*X17344Y279721D01*
X16734Y277891D02*Y279111D01*
Y277891D02*X17344Y277281D01*
X18564D01*
X19174Y277891D01*
X16734Y278501D02*X19174D01*
Y277891D02*Y278501D01*
X21250Y277891D02*Y279721D01*
Y277891D02*X21860Y277281D01*
X22470D01*
X23080Y277891D01*
Y279721D01*
X20640Y277281D02*X21250Y277891D01*
X25155Y274841D02*Y279111D01*
X25765Y279721D01*
X24545Y276671D02*X25765D01*
X27596Y277891D02*Y279721D01*
Y277891D02*X28206Y277281D01*
X29426D01*
X26986D02*X27596Y277891D01*
X30891D02*Y279111D01*
Y277891D02*X31501Y277281D01*
X32721D01*
X33331Y277891D01*
Y279111D01*
X32721Y279721D02*X33331Y279111D01*
X31501Y279721D02*X32721D01*
X30891Y279111D02*X31501Y279721D01*
X34796Y274841D02*Y279721D01*
Y279111D02*X35406Y279721D01*
X36626D01*
X37236Y279111D01*
Y277891D02*Y279111D01*
X36626Y277281D02*X37236Y277891D01*
X35406Y277281D02*X36626D01*
X34796Y277891D02*X35406Y277281D01*
X38702Y277891D02*Y279111D01*
Y277891D02*X39312Y277281D01*
X40532D01*
X41142Y277891D01*
Y279111D01*
X40532Y279721D02*X41142Y279111D01*
X39312Y279721D02*X40532D01*
X38702Y279111D02*X39312Y279721D01*
X43217Y274841D02*Y279111D01*
X43827Y279721D01*
X42607Y276671D02*X43827D01*
X45048Y276061D02*Y276671D01*
Y277891D02*Y279721D01*
X46879Y277281D02*X48709D01*
X46269Y277891D02*X46879Y277281D01*
X46269Y277891D02*Y279111D01*
X46879Y279721D01*
X48709D01*
X50785D02*X52615D01*
X53225Y279111D01*
X52615Y278501D02*X53225Y279111D01*
X50785Y278501D02*X52615D01*
X50175Y277891D02*X50785Y278501D01*
X50175Y277891D02*X50785Y277281D01*
X52615D01*
X53225Y277891D01*
X50175Y279111D02*X50785Y279721D01*
X54690D02*X55300D01*
X56765Y277891D02*Y279111D01*
Y277891D02*X57375Y277281D01*
X58595D01*
X59205Y277891D01*
Y279111D01*
X58595Y279721D02*X59205Y279111D01*
X57375Y279721D02*X58595D01*
X56765Y279111D02*X57375Y279721D01*
X61280Y277891D02*Y279721D01*
Y277891D02*X61890Y277281D01*
X63110D01*
X60670D02*X61280Y277891D01*
X66405Y277281D02*X67015Y277891D01*
X65185Y277281D02*X66405D01*
X64575Y277891D02*X65185Y277281D01*
X64575Y277891D02*Y279111D01*
X65185Y279721D01*
X66405D01*
X67015Y279111D01*
X64575Y280941D02*X65185Y281551D01*
X66405D01*
X67015Y280941D01*
Y277281D02*Y280941D01*
G54D18*X141339Y127362D03*
Y155868D03*
Y170868D03*
G54D11*G36*
X4008Y100638D02*Y94638D01*
X10008D01*
Y100638D01*
X4008D01*
G37*
G54D19*X17008Y97638D03*
G54D11*G36*
X4009Y117174D02*Y111174D01*
X10009D01*
Y117174D01*
X4009D01*
G37*
G54D19*X27008Y97638D03*
X37008D03*
X17009Y114174D03*
X27009D03*
X37009D03*
X47009D03*
X50354Y136773D03*
Y146773D03*
X40354Y141773D03*
Y161773D03*
Y151773D03*
G54D11*G36*
X37354Y174773D02*Y168773D01*
X43354D01*
Y174773D01*
X37354D01*
G37*
G54D19*X50354Y156773D03*
Y166773D03*
G54D18*X141339Y67362D03*
Y82362D03*
Y97362D03*
Y112362D03*
Y22362D03*
Y37362D03*
Y52362D03*
X56261Y16145D03*
X71261D03*
X86261D03*
X101261D03*
X101220Y267323D03*
X86220D03*
X71220D03*
X56220D03*
X141339Y260868D03*
Y185868D03*
Y200868D03*
Y215868D03*
Y230868D03*
Y245868D03*
G54D19*X50354Y205670D03*
X40354Y210670D03*
X50354Y225670D03*
X40354Y230670D03*
Y220670D03*
X50354Y215670D03*
G54D11*G36*
X37354Y243670D02*Y237670D01*
X43354D01*
Y243670D01*
X37354D01*
G37*
G54D19*X50354Y235670D03*
G54D20*X77165Y231891D03*
G54D21*X75984Y222836D03*
G54D20*X86614Y216537D03*
X77165D03*
X86614Y231891D03*
X87402Y224410D03*
G54D22*X102362Y200788D03*
X90945Y200000D03*
X105118Y207481D03*
X108268Y222441D03*
X98819Y227953D03*
X102756Y215748D03*
X101575Y222048D03*
X98819Y179922D03*
X105906Y149213D03*
X109055Y141733D03*
Y132284D03*
X86614Y200000D03*
X150787Y90945D03*
Y75985D03*
Y61024D03*
Y46063D03*
Y31103D03*
X147638Y27166D03*
Y42126D03*
Y57087D03*
Y72048D03*
Y87008D03*
X150787Y15748D03*
X132283Y3544D03*
X127164D03*
X83465Y38977D03*
X94094Y29528D03*
Y22441D03*
X91339Y48426D03*
X105512Y90945D03*
Y82284D03*
Y73622D03*
X101181Y77953D03*
Y86615D03*
X105512Y64961D03*
X101181Y60630D03*
Y69292D03*
X77165Y63386D03*
X82283Y74016D03*
Y69292D03*
X150787Y121260D03*
Y105906D03*
X147638Y133465D03*
Y101969D03*
Y116930D03*
X137795Y148426D03*
X126378Y146457D03*
Y142126D03*
X117717Y141733D03*
X151968Y253544D03*
Y238189D03*
Y223229D03*
Y208268D03*
Y193701D03*
Y178741D03*
Y163780D03*
Y147638D03*
G54D20*X79527Y160041D03*
X67716Y117915D03*
X72244Y147245D03*
X79330Y148820D03*
X74839Y151291D03*
X57086Y136615D03*
X62204Y117915D03*
G54D21*X43307Y146852D03*
G54D20*X64567Y129923D03*
X65748Y135040D03*
G54D22*X82283Y126772D03*
X84252Y118898D03*
X65748Y149607D03*
X57874Y35040D03*
G54D19*X26378Y172048D03*
G54D20*X14370Y158072D03*
Y162796D03*
X68700Y159450D03*
X23228Y147245D03*
X3543Y137403D03*
X23228Y140552D03*
G54D22*X105118Y162599D03*
X102362Y155906D03*
X105118Y192520D03*
X98819Y170473D03*
Y164174D03*
X100000Y188189D03*
G54D20*X20275Y165356D03*
X40551Y180710D03*
X45275D03*
Y185434D03*
Y190159D03*
Y194883D03*
G54D21*X33267Y148033D03*
G54D20*X63189Y177757D03*
Y183072D03*
Y188387D03*
Y193702D03*
Y199017D03*
X66732Y191143D03*
Y196458D03*
X12992Y211812D03*
X11811Y185041D03*
G54D22*X10630Y26772D03*
X33071Y37402D03*
X24016Y76378D03*
X31890Y92914D03*
X30709Y33071D03*
X22835Y37796D03*
X27165Y29922D03*
X16929Y82284D03*
X2756Y83071D03*
Y89371D03*
X2362Y39764D03*
Y46457D03*
X18110Y33465D03*
X16929Y38583D03*
G54D20*X22047Y109844D03*
G54D22*X45276Y88189D03*
X43701Y81497D03*
Y76772D03*
X73228Y91536D03*
X54724Y94489D03*
X51575Y90552D03*
X73228Y72835D03*
X62992Y74410D03*
X73228Y79134D03*
X56299Y74804D03*
X55906Y70473D03*
X58268Y78741D03*
X62992Y89371D03*
Y84646D03*
X73228Y85434D03*
X62992Y79528D03*
X73228Y60630D03*
X62598Y61418D03*
X55906Y66142D03*
X59449Y56693D03*
X62992Y48819D03*
X60236Y52363D03*
X50787Y56693D03*
X64173Y21654D03*
X47244Y18504D03*
X19685Y16930D03*
X22835Y20079D03*
X21260Y7087D03*
Y11418D03*
X25591Y12599D03*
G54D19*X39763Y201182D03*
G54D20*X27559Y203544D03*
X15354Y234253D03*
X9842Y237796D03*
X22441Y218899D03*
X17716Y220080D03*
X22441Y223623D03*
X21653Y210237D03*
G54D21*X5905Y206300D03*
X3149Y210828D03*
G54D20*X17716Y185631D03*
X40551Y185434D03*
Y190159D03*
X61220Y246655D03*
X33267Y244096D03*
X28543Y244686D03*
X13386Y226379D03*
X17716Y224804D03*
G54D22*X5512Y256300D03*
G54D20*X29527Y238584D03*
X54921Y252954D03*
X58071Y249804D03*
G54D22*X97244Y240158D03*
X105118Y252757D03*
X110630Y273622D03*
X105118Y259843D03*
X100000Y248819D03*
X98819Y257874D03*
X94094Y278347D03*
X84646D03*
X74803D03*
G54D37*X40340Y127979D02*Y124779D01*
G54D24*X57802Y125288D02*Y124320D01*
X51968Y125288D02*Y124320D01*
G54D25*X53286Y109153D02*X53886D01*
X61486Y113053D02*X62086D01*
X61486Y105253D02*X62086D01*
G54D24*X57802Y131194D02*Y130226D01*
X51968Y131194D02*Y130226D01*
G54D38*X9843Y87993D02*Y84450D01*
G54D39*X27024Y179584D02*X33624D01*
G54D40*X5709Y186024D02*X6495D01*
G54D39*X27024Y188584D02*X33624D01*
X27024Y197684D02*X33624D01*
G54D41*X54724Y193084D02*Y184084D01*
G54D42*X27954Y161313D02*X29554D01*
X27954Y157413D02*X29554D01*
X27954Y153513D02*X29554D01*
X19754Y157413D02*X21354D01*
X19754Y161313D02*X21354D01*
G54D37*X28740Y127979D02*Y124779D01*
G54D42*X19754Y153513D02*X21354D01*
G54D37*X16929Y146089D02*Y142889D01*
X5329Y146089D02*Y142889D01*
G54D24*X10164Y161115D02*Y160147D01*
X10397Y154422D02*Y153454D01*
X10398Y168595D02*Y167627D01*
X4330Y161115D02*Y160147D01*
X4563Y154422D02*Y153454D01*
X4564Y168595D02*Y167627D01*
G54D40*X5709Y193110D02*X6495D01*
G54D43*X3602Y215161D02*X8208D01*
X3602Y217720D02*X8208D01*
X3602Y220279D02*X8208D01*
X3602Y222838D02*X8208D01*
X3602Y225396D02*X8208D01*
G54D24*X4633Y244418D02*X5601D01*
X4633Y238584D02*X5601D01*
G54D43*X3602Y227955D02*X8208D01*
X26830D02*X31436D01*
X3602Y230514D02*X8208D01*
X3602Y233073D02*X8208D01*
X26830D02*X31436D01*
X26830Y230514D02*X31436D01*
X26830Y225396D02*X31436D01*
X26830Y222838D02*X31436D01*
X26830Y220279D02*X31436D01*
X26830Y217720D02*X31436D01*
X26830Y215161D02*X31436D01*
G54D24*X34573Y208753D02*Y207785D01*
X28739Y208753D02*Y207785D01*
G54D25*X64844Y141596D02*Y140996D01*
X57044Y141596D02*Y140996D01*
X60944Y149796D02*Y149196D01*
G54D24*X64083Y156372D02*X65051D01*
X64083Y162206D02*X65051D01*
X58661Y167808D02*Y166840D01*
X64495Y167808D02*Y166840D01*
X58375Y156372D02*X59343D01*
X58375Y162206D02*X59343D01*
G54D40*X59645Y229529D02*Y227167D01*
Y208859D02*Y206497D01*
Y218110D02*Y215748D01*
Y239371D02*Y237009D01*
G54D25*X78186Y237044D02*Y236444D01*
X85986Y237044D02*Y236444D01*
X82086Y228844D02*Y228244D01*
X85986Y211983D02*Y211383D01*
X78186Y211983D02*Y211383D01*
G54D40*X71455Y218110D02*Y215748D01*
G54D25*X82086Y220183D02*Y219583D01*
G54D40*X71455Y229529D02*Y227167D01*
Y239371D02*Y237009D01*
G54D44*X106173Y243563D02*X108173D01*
X106173Y246063D02*X108173D01*
X106173Y248663D02*X108173D01*
X109603Y269109D02*Y267109D01*
Y262109D02*Y260109D01*
X112203Y269109D02*Y267109D01*
Y262109D02*Y260109D01*
X114703Y269109D02*Y267109D01*
Y262109D02*Y260109D01*
G54D40*X120473Y263779D02*Y258269D01*
X132283Y263779D02*Y258269D01*
Y248818D02*Y243308D01*
Y233464D02*Y227954D01*
X120473Y218503D02*Y212993D01*
X132283Y218503D02*Y212993D01*
G54D44*X113173Y248663D02*X115173D01*
X113173Y246063D02*X115173D01*
X113173Y243563D02*X115173D01*
G54D40*X120473Y248818D02*Y243308D01*
G54D44*X113173Y233309D02*X115173D01*
X113173Y230709D02*X115173D01*
X113173Y228209D02*X115173D01*
X106173D02*X108173D01*
X106173Y230709D02*X108173D01*
X106173Y233309D02*X108173D01*
G54D40*X120473Y233464D02*Y227954D01*
G54D25*X118272Y18541D02*X118872D01*
G54D40*X70474Y28741D02*X75984D01*
G54D25*X118272Y33502D02*X118872D01*
X118272Y26341D02*X118872D01*
X126472Y37402D02*X127072D01*
X126472Y22441D02*X127072D01*
G54D24*X132981Y25358D02*X133949D01*
X132981Y19524D02*X133949D01*
X132981Y40319D02*X133949D01*
X132981Y34485D02*X133949D01*
G54D25*X118272Y41302D02*X118872D01*
X118272Y48463D02*X118872D01*
G54D38*X9843Y71064D02*Y67521D01*
G54D25*X26415Y71491D02*Y70891D01*
X34215Y71491D02*Y70891D01*
X30315Y63291D02*Y62691D01*
G54D40*X70474Y40551D02*X75984D01*
X57088D02*X62598D01*
G54D24*X4634Y20867D02*X5602D01*
X7390Y30709D02*X8358D01*
X7390Y36543D02*X8358D01*
G54D45*X35631Y26378D02*X43899D01*
G54D43*X22244Y29077D02*Y24471D01*
X19685Y29077D02*Y24471D01*
X17127Y29077D02*Y24471D01*
X14568Y29077D02*Y24471D01*
G54D24*X7390Y40945D02*X8358D01*
G54D40*X57088Y28741D02*X62598D01*
G54D24*X4634Y26701D02*X5602D01*
G54D25*X16855Y7387D02*Y6787D01*
X9055Y7387D02*Y6787D01*
X12955Y15587D02*Y14987D01*
X34178Y7387D02*Y6787D01*
X30278Y15587D02*Y14987D01*
X26378Y7387D02*Y6787D01*
G54D45*X35631Y48818D02*X43899D01*
G54D40*X34646Y87007D02*Y81497D01*
X22836Y87007D02*Y81497D01*
G54D24*X7390Y46779D02*X8358D01*
G54D43*X14568Y46793D02*Y42187D01*
X17127Y46793D02*Y42187D01*
X19685Y46793D02*Y42187D01*
X22244Y46793D02*Y42187D01*
G54D24*X18343Y53240D02*Y52272D01*
X24177Y53240D02*Y52272D01*
X5028Y51808D02*X5996D01*
X11721D02*X12689D01*
X5028Y57642D02*X5996D01*
X11721D02*X12689D01*
G54D40*X120473Y203543D02*Y198033D01*
X132283Y203543D02*Y198033D01*
X120473Y188582D02*Y183072D01*
X132283Y188582D02*Y183072D01*
G54D44*X113173Y218348D02*X115173D01*
X113173Y215748D02*X115173D01*
X113173Y213248D02*X115173D01*
X106173D02*X108173D01*
X106173Y215748D02*X108173D01*
X106173Y218348D02*X108173D01*
X113173Y203388D02*X115173D01*
X113173Y200788D02*X115173D01*
X106173Y198288D02*X108173D01*
X106173Y200788D02*X108173D01*
X106173Y203388D02*X108173D01*
X113173Y183327D02*X115173D01*
X113173Y173467D02*X115173D01*
X113173Y170867D02*X115173D01*
X113173Y168367D02*X115173D01*
X113173Y158506D02*X115173D01*
X113173Y155906D02*X115173D01*
X113173Y153406D02*X115173D01*
G54D40*X120473Y158661D02*Y153151D01*
X132283Y158661D02*Y153151D01*
X120473Y173622D02*Y168112D01*
X132283Y173622D02*Y168112D01*
G54D44*X113173Y198288D02*X115173D01*
X113173Y188427D02*X115173D01*
X113173Y185827D02*X115173D01*
X106173Y183327D02*X108173D01*
X106173Y185827D02*X108173D01*
X106173Y188427D02*X108173D01*
G54D40*X71455Y208859D02*Y206497D01*
G54D44*X106173Y168367D02*X108173D01*
X106173Y170867D02*X108173D01*
X106173Y173467D02*X108173D01*
X106173Y153406D02*X108173D01*
X106173Y155906D02*X108173D01*
X106173Y158506D02*X108173D01*
G54D25*X70939Y165262D02*Y164662D01*
X78739Y165262D02*Y164662D01*
X74839Y157062D02*Y156462D01*
G54D24*X132981Y85201D02*X133949D01*
X132981Y100162D02*X133949D01*
X132981Y94328D02*X133949D01*
G54D25*X126472Y97245D02*X127072D01*
X118272Y86184D02*X118872D01*
X118272Y93345D02*X118872D01*
G54D24*X132981Y79367D02*X133949D01*
X67429Y113387D02*X68397D01*
X67429Y107553D02*X68397D01*
X72941Y113387D02*X73909D01*
X72941Y107553D02*X73909D01*
X132981Y130476D02*X133949D01*
X132981Y124642D02*X133949D01*
G54D25*X118272Y101145D02*X118872D01*
X118272Y108305D02*X118872D01*
G54D24*X132981Y115122D02*X133949D01*
X132981Y109288D02*X133949D01*
G54D25*X126472Y112205D02*X127072D01*
X118272Y116105D02*X118872D01*
X118272Y123659D02*X118872D01*
X118272Y131459D02*X118872D01*
X126472Y127559D02*X127072D01*
G54D24*X132981Y55280D02*X133949D01*
X132981Y49446D02*X133949D01*
G54D25*X126472Y82284D02*X127072D01*
X118272Y63423D02*X118872D01*
X118272Y56263D02*X118872D01*
G54D24*X132981Y70240D02*X133949D01*
X132981Y64406D02*X133949D01*
G54D25*X126472Y67323D02*X127072D01*
X118272Y78384D02*X118872D01*
X118272Y71223D02*X118872D01*
X126472Y52363D02*X127072D01*
G54D31*G54D32*G54D33*G54D32*G54D34*G54D33*G54D31*G54D34*G54D33*G54D11*G54D35*G54D11*G54D35*G54D34*G54D11*G54D35*G54D11*G54D35*G54D11*G54D35*G54D34*G54D11*G54D35*G54D11*G54D35*M02*
