G04 start of page 8 for group -4079 idx -4079 *
G04 Title: (unknown), topsilk *
G04 Creator: pcb 20110918 *
G04 CreationDate: Tue 21 Aug 2012 15:57:03 GMT UTC *
G04 For: rob *
G04 Format: Gerber/RS-274X *
G04 PCB-Dimensions: 157480 283465 *
G04 PCB-Coordinate-Origin: lower left *
%MOIN*%
%FSLAX25Y25*%
%LNTOPSILK*%
%ADD106C,0.0098*%
%ADD105C,0.0084*%
%ADD104C,0.0079*%
%ADD103C,0.0100*%
G54D103*X135039Y15355D02*X114567D01*
X135039Y135434D02*Y15355D01*
X114567D02*Y135434D01*
X83465Y91733D02*X99213D01*
Y51575D01*
X83465D01*
Y91733D01*
X100394Y56693D02*X113386D01*
X69685Y207481D02*X84252D01*
Y168111D01*
X69685D01*
Y207481D01*
X85433Y196063D02*X113386D01*
G54D104*X57086Y123230D02*X53149Y119293D01*
X57086Y126773D02*Y123230D01*
G54D103*X114567Y268111D02*X135039D01*
Y147638D01*
X114567D01*
Y135434D02*X135039D01*
X114567Y147638D02*Y268111D01*
G54D104*X60184Y225985D02*X64804D01*
X60184D02*X59414Y226755D01*
Y228295D02*Y226755D01*
Y228295D02*X60184Y229065D01*
X64804D01*
X65574Y228295D02*X64804Y229065D01*
X65574Y228295D02*Y226755D01*
X64804Y225985D02*X65574Y226755D01*
X59414Y230913D02*X64804D01*
X65574Y231683D01*
Y233223D02*Y231683D01*
Y233223D02*X64804Y233993D01*
X59414D02*X64804D01*
X59414Y238921D02*Y235841D01*
Y237381D02*X65574D01*
X59611Y167093D02*Y165553D01*
Y166323D02*X65771D01*
Y167093D02*Y165553D01*
X59611Y168941D02*X65771D01*
X59611D02*X60381D01*
X64231Y172791D01*
X59611D02*X65771D01*
G54D105*X140944Y10498D02*X143044D01*
X141994D02*Y2098D01*
X140944D02*X143044D01*
X145564Y10498D02*Y2098D01*
Y10498D02*Y9448D01*
X150814Y4198D01*
Y10498D02*Y2098D01*
G54D104*X138584Y279070D02*Y273430D01*
Y279070D02*X139524Y280010D01*
X141404D01*
X142344Y279070D01*
Y273430D01*
X141404Y272490D02*X142344Y273430D01*
X139524Y272490D02*X141404D01*
X138584Y273430D02*X139524Y272490D01*
X144600Y280010D02*Y273430D01*
X145540Y272490D01*
X147420D01*
X148360Y273430D01*
Y280010D02*Y273430D01*
X150616Y280010D02*X154376D01*
X152496D02*Y272490D01*
X72986Y258786D02*X73911Y257861D01*
X70211Y258786D02*X72986D01*
X69286Y257861D02*X70211Y258786D01*
X69286Y257861D02*Y252311D01*
X70211Y251386D01*
X72986D01*
X73911Y252311D01*
Y254161D02*Y252311D01*
X72986Y255086D02*X73911Y254161D01*
X71136Y255086D02*X72986D01*
X76131Y258786D02*Y251386D01*
Y258786D02*Y257861D01*
X80756Y253236D01*
Y258786D02*Y251386D01*
X83901Y258786D02*Y251386D01*
X86676Y258786D02*X87601Y257861D01*
Y252311D01*
X86676Y251386D02*X87601Y252311D01*
X82976Y251386D02*X86676D01*
X82976Y258786D02*X86676D01*
X97636Y29596D02*X98401Y30361D01*
X99931D01*
X100696Y29596D01*
Y25006D01*
X99931Y24241D02*X100696Y25006D01*
X98401Y24241D02*X99931D01*
X97636Y25006D02*X98401Y24241D01*
Y27301D02*X100696D01*
X102532Y30361D02*Y25771D01*
X104062Y24241D01*
X105592Y25771D01*
Y30361D02*Y25771D01*
X107428Y29596D02*X108193Y30361D01*
X109723D01*
X110488Y29596D01*
Y25006D01*
X109723Y24241D02*X110488Y25006D01*
X108193Y24241D02*X109723D01*
X107428Y25006D02*X108193Y24241D01*
Y27301D02*X110488D01*
X101180Y38582D02*X113385D01*
Y51181D02*Y38582D01*
X101180Y51181D02*X113385D01*
X101180D02*Y38582D01*
G54D103*X131538Y28341D02*Y18541D01*
X118158Y28341D02*X131538D01*
X118158D02*Y16541D01*
X129538D01*
X131538Y18541D02*X129538Y16541D01*
X128848Y22441D02*G75*G03X128848Y22441I-4000J0D01*G01*
X131538Y43301D02*Y33501D01*
X118158Y43301D02*X131538D01*
X118158D02*Y31501D01*
X129538D01*
X131538Y33501D02*X129538Y31501D01*
X128848Y37401D02*G75*G03X128848Y37401I-4000J0D01*G01*
X118361Y14705D02*X132261D01*
X118361D02*Y1905D01*
X132261D01*
Y14705D02*Y1905D01*
G54D104*X64634Y29921D02*Y28347D01*
X67650Y29921D02*Y28347D01*
G54D106*X111497Y20869D02*Y397D01*
X46025Y20869D02*Y397D01*
Y20869D02*X111497D01*
G54D103*X85430Y35034D02*Y25234D01*
X72050Y35034D02*X85430D01*
X72050D02*Y23234D01*
X83430D01*
X85430Y25234D02*X83430Y23234D01*
X82740Y29134D02*G75*G03X82740Y29134I-4000J0D01*G01*
X131538Y58262D02*Y48462D01*
X118158Y58262D02*X131538D01*
X118158D02*Y46462D01*
X129538D01*
X131538Y48462D02*X129538Y46462D01*
X128848Y52362D02*G75*G03X128848Y52362I-4000J0D01*G01*
G54D106*X45984Y283071D02*Y262599D01*
X111456Y283071D02*Y262599D01*
X45984D02*X111456D01*
G54D103*X118159Y264531D02*Y254731D01*
X131539D01*
Y266531D01*
X120159D01*
X118159Y264531D02*X120159Y266531D01*
X120849Y260631D02*G75*G03X120849Y260631I4000J0D01*G01*
X118159Y204688D02*Y194888D01*
X131539D01*
Y206688D01*
X120159D01*
X118159Y204688D02*X120159Y206688D01*
X120849Y200788D02*G75*G03X120849Y200788I4000J0D01*G01*
G54D106*X136615Y271104D02*X157087D01*
X136615Y145632D02*X157087D01*
X136615Y271104D02*Y145632D01*
G54D103*X118159Y249964D02*Y240164D01*
X131539D01*
Y251964D01*
X120159D01*
X118159Y249964D02*X120159Y251964D01*
X120849Y246064D02*G75*G03X120849Y246064I4000J0D01*G01*
X118159Y234610D02*Y224810D01*
X131539D01*
Y236610D01*
X120159D01*
X118159Y234610D02*X120159Y236610D01*
X120849Y230710D02*G75*G03X120849Y230710I4000J0D01*G01*
X118159Y219649D02*Y209849D01*
X131539D01*
Y221649D01*
X120159D01*
X118159Y219649D02*X120159Y221649D01*
X120849Y215749D02*G75*G03X120849Y215749I4000J0D01*G01*
G54D104*X101181Y185040D02*X113386D01*
X101181D02*Y172441D01*
X113386D01*
Y185040D02*Y172441D01*
G54D103*X118159Y189728D02*Y179928D01*
X131539D01*
Y191728D01*
X120159D01*
X118159Y189728D02*X120159Y191728D01*
X120849Y185828D02*G75*G03X120849Y185828I4000J0D01*G01*
X118159Y174767D02*Y164967D01*
X131539D01*
Y176767D01*
X120159D01*
X118159Y174767D02*X120159Y176767D01*
X120849Y170867D02*G75*G03X120849Y170867I4000J0D01*G01*
X118159Y159806D02*Y150006D01*
X131539D01*
Y161806D01*
X120159D01*
X118159Y159806D02*X120159Y161806D01*
X120849Y155906D02*G75*G03X120849Y155906I4000J0D01*G01*
G54D104*X101180Y244884D02*X113385D01*
X101180D02*Y232285D01*
X113385D01*
Y244884D02*Y232285D01*
G54D103*X88486Y239644D02*Y225744D01*
X75686Y239644D02*X88486D01*
X75686D02*Y225744D01*
X88486D01*
X81239Y167862D02*Y153962D01*
X68439Y167862D02*X81239D01*
X68439D02*Y153962D01*
X81239D01*
X75686Y222683D02*Y208783D01*
X88486D01*
Y222683D01*
X75686D01*
G54D106*X136615Y137598D02*X157087D01*
X136615Y12126D02*X157087D01*
X136615Y137598D02*Y12126D01*
G54D103*X62992Y116146D02*Y113146D01*
X57692Y116146D02*X68292D01*
Y122446D02*Y109846D01*
X57692D02*X68292D01*
X57692Y122446D02*Y109846D01*
Y122446D02*X68292D01*
X131538Y118104D02*Y108304D01*
X118158Y118104D02*X131538D01*
X118158D02*Y106304D01*
X129538D01*
X131538Y108304D02*X129538Y106304D01*
X128848Y112204D02*G75*G03X128848Y112204I-4000J0D01*G01*
X131538Y133065D02*Y123265D01*
X118158Y133065D02*X131538D01*
X118158D02*Y121265D01*
X129538D01*
X131538Y123265D02*X129538Y121265D01*
X128848Y127165D02*G75*G03X128848Y127165I-4000J0D01*G01*
G54D104*X101178Y98424D02*X113383D01*
Y111023D02*Y98424D01*
X101178Y111023D02*X113383D01*
X101178D02*Y98424D01*
G54D103*X131538Y73223D02*Y63423D01*
X118158Y73223D02*X131538D01*
X118158D02*Y61423D01*
X129538D01*
X131538Y63423D02*X129538Y61423D01*
X128848Y67323D02*G75*G03X128848Y67323I-4000J0D01*G01*
X131538Y88183D02*Y78383D01*
X118158Y88183D02*X131538D01*
X118158D02*Y76383D01*
X129538D01*
X131538Y78383D02*X129538Y76383D01*
X128848Y82283D02*G75*G03X128848Y82283I-4000J0D01*G01*
X131538Y103144D02*Y93344D01*
X118158Y103144D02*X131538D01*
X118158D02*Y91344D01*
X129538D01*
X131538Y93344D02*X129538Y91344D01*
X128848Y97244D02*G75*G03X128848Y97244I-4000J0D01*G01*
X579Y186273D02*X55354D01*
Y122273D02*Y186273D01*
X579Y122273D02*X55354D01*
G54D104*X13547Y87469D02*X15121D01*
X13547Y90485D02*X15121D01*
X31169Y84878D02*Y83304D01*
X34185Y84878D02*Y83304D01*
X31496Y72281D02*X33858D01*
X32677Y73855D02*X31496Y72281D01*
X32677Y73855D02*X33858Y72281D01*
X32677Y73855D02*Y72281D01*
G54D103*X41140Y91538D02*X65550D01*
X41140D02*Y41932D01*
X65550D01*
Y91538D02*Y41932D01*
X41751Y89058D02*G75*G03X41751Y89058I610J0D01*G01*
G54D104*X34185Y62831D02*Y61257D01*
X31169Y62831D02*Y61257D01*
G54D103*X2008Y92638D02*X42008D01*
Y102638D02*Y92638D01*
X2008Y102638D02*X42008D01*
X2008D02*Y92638D01*
X12008Y102638D02*Y92638D01*
X2008Y102638D02*X12008D01*
X2009Y119174D02*X12009D01*
Y109174D01*
X2009Y119174D02*Y109174D01*
Y119174D02*X52009D01*
Y109174D01*
X2009D02*X52009D01*
X579Y255170D02*X55354D01*
Y191170D02*Y255170D01*
X579Y191170D02*X55354D01*
X38839Y37516D02*X50739D01*
X38839D02*Y28116D01*
X50739D01*
Y37516D02*Y28116D01*
G54D104*X27626Y46296D02*Y44722D01*
X30642Y46296D02*Y44722D01*
X13190Y1968D02*X31694D01*
X13190Y23228D02*X31694D01*
X131554Y140448D02*X132889D01*
Y137333D01*
X132444Y136888D02*X132889Y137333D01*
X131999Y136888D02*X132444D01*
X131554Y137333D02*X131999Y136888D01*
X134402D02*X135292D01*
X134847Y140448D02*Y136888D01*
X133957Y139558D02*X134847Y140448D01*
X131203Y145959D02*X132538D01*
Y142844D01*
X132093Y142399D02*X132538Y142844D01*
X131648Y142399D02*X132093D01*
X131203Y142844D02*X131648Y142399D01*
X133606Y145959D02*X135386D01*
X133606D02*Y144179D01*
X134051Y144624D01*
X134941D01*
X135386Y144179D01*
Y142844D01*
X134941Y142399D02*X135386Y142844D01*
X134051Y142399D02*X134941D01*
X133606Y142844D02*X134051Y142399D01*
X57496Y129161D02*X57886Y129551D01*
X57496Y129161D02*Y127991D01*
X57886Y127601D02*X57496Y127991D01*
X57886Y127601D02*X58666D01*
X59056Y127991D01*
Y129161D02*Y127991D01*
Y129161D02*X59446Y129551D01*
X60226D01*
X60616Y129161D02*X60226Y129551D01*
X60616Y129161D02*Y127991D01*
X60226Y127601D02*X60616Y127991D01*
X60226Y130487D02*X57886Y132827D01*
X57496Y134933D02*Y133763D01*
Y134933D02*X60226D01*
X60616Y134543D02*X60226Y134933D01*
X60616Y134543D02*Y134153D01*
X60226Y133763D02*X60616Y134153D01*
X57886Y135869D02*X57496Y136259D01*
Y137039D02*Y136259D01*
Y137039D02*X57886Y137429D01*
X60226D01*
X60616Y137039D02*X60226Y137429D01*
X60616Y137039D02*Y136259D01*
X60226Y135869D02*X60616Y136259D01*
X59056Y137429D02*Y136259D01*
X63589Y153183D02*X64034Y153628D01*
X63589Y153183D02*Y151848D01*
X64034Y151403D02*X63589Y151848D01*
X64034Y151403D02*X64924D01*
X65369Y151848D01*
Y153183D02*Y151848D01*
Y153183D02*X65814Y153628D01*
X66704D01*
X67149Y153183D02*X66704Y153628D01*
X67149Y153183D02*Y151848D01*
X66704Y151403D02*X67149Y151848D01*
X66704Y154696D02*X64034Y157366D01*
X63589Y158879D02*X67149D01*
X63589Y160214D02*X64034Y160659D01*
X66704D01*
X67149Y160214D02*X66704Y160659D01*
X67149Y160214D02*Y158434D01*
X63589Y160214D02*Y158434D01*
X67149Y161727D02*X65369Y163507D01*
X64034D02*X65369D01*
X63589Y163062D02*X64034Y163507D01*
X63589Y163062D02*Y162172D01*
X64034Y161727D02*X63589Y162172D01*
X64034Y161727D02*X64924D01*
X65369Y162172D01*
Y163507D02*Y162172D01*
X57072Y142252D02*X57517Y142697D01*
X57072Y142252D02*Y140917D01*
X57517Y140472D02*X57072Y140917D01*
X57517Y140472D02*X58407D01*
X58852Y140917D01*
Y142252D02*Y140917D01*
Y142252D02*X59297Y142697D01*
X60187D01*
X60632Y142252D02*X60187Y142697D01*
X60632Y142252D02*Y140917D01*
X60187Y140472D02*X60632Y140917D01*
X60187Y143765D02*X57517Y146435D01*
X57072Y149283D02*X57517Y149728D01*
X57072Y149283D02*Y147948D01*
X57517Y147503D02*X57072Y147948D01*
X57517Y147503D02*X58407D01*
X58852Y147948D01*
Y149283D02*Y147948D01*
Y149283D02*X59297Y149728D01*
X60187D01*
X60632Y149283D02*X60187Y149728D01*
X60632Y149283D02*Y147948D01*
X60187Y147503D02*X60632Y147948D01*
X60187Y150796D02*X57517Y153466D01*
X57072Y155869D02*Y154534D01*
Y155869D02*X60187D01*
X60632Y155424D02*X60187Y155869D01*
X60632Y155424D02*Y154979D01*
X60187Y154534D02*X60632Y154979D01*
Y158272D02*Y157382D01*
X57072Y157827D02*X60632D01*
X57962Y156937D02*X57072Y157827D01*
X102755Y230891D02*X104755D01*
X105255Y230391D01*
Y229391D01*
X104755Y228891D02*X105255Y229391D01*
X103255Y228891D02*X104755D01*
X103255Y230891D02*Y226891D01*
Y228891D02*X105255Y226891D01*
X106955D02*X107955D01*
X107455Y230891D02*Y226891D01*
X106455Y229891D02*X107455Y230891D01*
X109155Y230391D02*X109655Y230891D01*
X110655D01*
X111155Y230391D01*
Y227391D01*
X110655Y226891D02*X111155Y227391D01*
X109655Y226891D02*X110655D01*
X109155Y227391D02*X109655Y226891D01*
Y228891D02*X111155D01*
X46083Y261205D02*X47583D01*
Y257705D01*
X47083Y257205D02*X47583Y257705D01*
X46583Y257205D02*X47083D01*
X46083Y257705D02*X46583Y257205D01*
X48783Y260705D02*X49283Y261205D01*
X50283D01*
X50783Y260705D01*
Y257705D01*
X50283Y257205D02*X50783Y257705D01*
X49283Y257205D02*X50283D01*
X48783Y257705D02*X49283Y257205D01*
Y259205D02*X50783D01*
X70158Y227941D02*X70658Y228441D01*
X70158Y227941D02*Y226441D01*
X70658Y225941D02*X70158Y226441D01*
X70658Y225941D02*X71658D01*
X72158Y226441D01*
Y227941D02*Y226441D01*
Y227941D02*X72658Y228441D01*
X73658D01*
X74158Y227941D02*X73658Y228441D01*
X74158Y227941D02*Y226441D01*
X73658Y225941D02*X74158Y226441D01*
X73658Y229641D02*X70658Y232641D01*
X70158Y234341D02*X74158D01*
X70158Y235841D02*X70658Y236341D01*
X73658D01*
X74158Y235841D02*X73658Y236341D01*
X74158Y235841D02*Y233841D01*
X70158Y235841D02*Y233841D01*
X73658Y237541D02*X74158Y238041D01*
X72658Y237541D02*X73658D01*
X72658D02*X72158Y238041D01*
Y239041D02*Y238041D01*
Y239041D02*X72658Y239541D01*
X73658D01*
X74158Y239041D02*X73658Y239541D01*
X74158Y239041D02*Y238041D01*
X71658Y237541D02*X72158Y238041D01*
X70658Y237541D02*X71658D01*
X70658D02*X70158Y238041D01*
Y239041D02*Y238041D01*
Y239041D02*X70658Y239541D01*
X71658D01*
X72158Y239041D02*X71658Y239541D01*
X70159Y211011D02*X70659Y211511D01*
X70159Y211011D02*Y209511D01*
X70659Y209011D02*X70159Y209511D01*
X70659Y209011D02*X71659D01*
X72159Y209511D01*
Y211011D02*Y209511D01*
Y211011D02*X72659Y211511D01*
X73659D01*
X74159Y211011D02*X73659Y211511D01*
X74159Y211011D02*Y209511D01*
X73659Y209011D02*X74159Y209511D01*
X73659Y212711D02*X70659Y215711D01*
X70159Y217411D02*X74159D01*
X70159Y218911D02*X70659Y219411D01*
X73659D01*
X74159Y218911D02*X73659Y219411D01*
X74159Y218911D02*Y216911D01*
X70159Y218911D02*Y216911D01*
X74159Y220611D02*X71659Y223111D01*
X70159D02*X71659D01*
X70159D02*Y220611D01*
X57071Y205246D02*X57516Y205691D01*
X57071Y205246D02*Y203911D01*
X57516Y203466D02*X57071Y203911D01*
X57516Y203466D02*X58406D01*
X58851Y203911D01*
Y205246D02*Y203911D01*
Y205246D02*X59296Y205691D01*
X60186D01*
X60631Y205246D02*X60186Y205691D01*
X60631Y205246D02*Y203911D01*
X60186Y203466D02*X60631Y203911D01*
X60186Y206759D02*X57516Y209429D01*
X57071Y212277D02*X57516Y212722D01*
X57071Y212277D02*Y210942D01*
X57516Y210497D02*X57071Y210942D01*
X57516Y210497D02*X58406D01*
X58851Y210942D01*
Y212277D02*Y210942D01*
Y212277D02*X59296Y212722D01*
X60186D01*
X60631Y212277D02*X60186Y212722D01*
X60631Y212277D02*Y210942D01*
X60186Y210497D02*X60631Y210942D01*
X60186Y213790D02*X57516Y216460D01*
X57071Y218863D02*Y217528D01*
Y218863D02*X60186D01*
X60631Y218418D02*X60186Y218863D01*
X60631Y218418D02*Y217973D01*
X60186Y217528D02*X60631Y217973D01*
X57516Y219931D02*X57071Y220376D01*
Y221711D02*Y220376D01*
Y221711D02*X57516Y222156D01*
X58406D01*
X60631Y219931D02*X58406Y222156D01*
X60631D02*Y219931D01*
X71259Y206010D02*Y202890D01*
X72819D01*
X73755Y204450D02*X74925D01*
X73755Y202890D02*X75315D01*
X73755Y206010D02*Y202890D01*
Y206010D02*X75315D01*
X76641D02*Y202890D01*
X77811Y206010D02*X78201Y205620D01*
Y203280D01*
X77811Y202890D02*X78201Y203280D01*
X76251Y202890D02*X77811D01*
X76251Y206010D02*X77811D01*
X79527Y202890D02*X80307D01*
X79917Y206010D02*Y202890D01*
X79137Y205230D02*X79917Y206010D01*
X81243Y203280D02*X81633Y202890D01*
X81243Y205620D02*Y203280D01*
Y205620D02*X81633Y206010D01*
X82413D01*
X82803Y205620D01*
Y203280D01*
X82413Y202890D02*X82803Y203280D01*
X81633Y202890D02*X82413D01*
X81243Y203670D02*X82803Y205230D01*
X102755Y171047D02*X104755D01*
X105255Y170547D01*
Y169547D01*
X104755Y169047D02*X105255Y169547D01*
X103255Y169047D02*X104755D01*
X103255Y171047D02*Y167047D01*
Y169047D02*X105255Y167047D01*
X106955D02*X107955D01*
X107455Y171047D02*Y167047D01*
X106455Y170047D02*X107455Y171047D01*
X109155Y170547D02*X109655Y171047D01*
X111155D01*
X111655Y170547D01*
Y169547D01*
X109155Y167047D02*X111655Y169547D01*
X109155Y167047D02*X111655D01*
X71260Y187115D02*Y183995D01*
X72820D01*
X73756Y185555D02*X74926D01*
X73756Y183995D02*X75316D01*
X73756Y187115D02*Y183995D01*
Y187115D02*X75316D01*
X76642D02*Y183995D01*
X77812Y187115D02*X78202Y186725D01*
Y184385D01*
X77812Y183995D02*X78202Y184385D01*
X76252Y183995D02*X77812D01*
X76252Y187115D02*X77812D01*
X79138Y184385D02*X79528Y183995D01*
X79138Y185165D02*Y184385D01*
Y185165D02*X79528Y185555D01*
X80308D01*
X80698Y185165D01*
Y184385D01*
X80308Y183995D02*X80698Y184385D01*
X79528Y183995D02*X80308D01*
X79138Y185945D02*X79528Y185555D01*
X79138Y186725D02*Y185945D01*
Y186725D02*X79528Y187115D01*
X80308D01*
X80698Y186725D01*
Y185945D01*
X80308Y185555D02*X80698Y185945D01*
X71257Y201289D02*Y198169D01*
X72817D01*
X73753Y199729D02*X74923D01*
X73753Y198169D02*X75313D01*
X73753Y201289D02*Y198169D01*
Y201289D02*X75313D01*
X76639D02*Y198169D01*
X77809Y201289D02*X78199Y200899D01*
Y198559D01*
X77809Y198169D02*X78199Y198559D01*
X76249Y198169D02*X77809D01*
X76249Y201289D02*X77809D01*
X80305D02*X80695Y200899D01*
X79525Y201289D02*X80305D01*
X79135Y200899D02*X79525Y201289D01*
X79135Y200899D02*Y198559D01*
X79525Y198169D01*
X80305Y199729D02*X80695Y199339D01*
X79135Y199729D02*X80305D01*
X79525Y198169D02*X80305D01*
X80695Y198559D01*
Y199339D02*Y198559D01*
X71257Y196563D02*Y193443D01*
X72817D01*
X73753Y195003D02*X74923D01*
X73753Y193443D02*X75313D01*
X73753Y196563D02*Y193443D01*
Y196563D02*X75313D01*
X76639D02*Y193443D01*
X77809Y196563D02*X78199Y196173D01*
Y193833D01*
X77809Y193443D02*X78199Y193833D01*
X76249Y193443D02*X77809D01*
X76249Y196563D02*X77809D01*
X79135Y193443D02*X80695Y195003D01*
Y196173D02*Y195003D01*
X80305Y196563D02*X80695Y196173D01*
X79525Y196563D02*X80305D01*
X79135Y196173D02*X79525Y196563D01*
X79135Y196173D02*Y195393D01*
X79525Y195003D01*
X80695D01*
X71258Y191840D02*Y188720D01*
X72818D01*
X73754Y190280D02*X74924D01*
X73754Y188720D02*X75314D01*
X73754Y191840D02*Y188720D01*
Y191840D02*X75314D01*
X76640D02*Y188720D01*
X77810Y191840D02*X78200Y191450D01*
Y189110D01*
X77810Y188720D02*X78200Y189110D01*
X76250Y188720D02*X77810D01*
X76250Y191840D02*X77810D01*
X79136D02*X80696D01*
X79136D02*Y190280D01*
X79526Y190670D01*
X80306D01*
X80696Y190280D01*
Y189110D01*
X80306Y188720D02*X80696Y189110D01*
X79526Y188720D02*X80306D01*
X79136Y189110D02*X79526Y188720D01*
X71259Y182390D02*Y179270D01*
X72819D01*
X73755Y180830D02*X74925D01*
X73755Y179270D02*X75315D01*
X73755Y182390D02*Y179270D01*
Y182390D02*X75315D01*
X76641D02*Y179270D01*
X77811Y182390D02*X78201Y182000D01*
Y179660D01*
X77811Y179270D02*X78201Y179660D01*
X76251Y179270D02*X77811D01*
X76251Y182390D02*X77811D01*
X79137Y180830D02*X80697Y182390D01*
X79137Y180830D02*X81087D01*
X80697Y182390D02*Y179270D01*
X71261Y177667D02*Y174547D01*
X72821D01*
X73757Y176107D02*X74927D01*
X73757Y174547D02*X75317D01*
X73757Y177667D02*Y174547D01*
Y177667D02*X75317D01*
X76643D02*Y174547D01*
X77813Y177667D02*X78203Y177277D01*
Y174937D01*
X77813Y174547D02*X78203Y174937D01*
X76253Y174547D02*X77813D01*
X76253Y177667D02*X77813D01*
X79139Y174547D02*X81089Y176497D01*
Y177667D02*Y176497D01*
X79139Y177667D02*X81089D01*
X71259Y172940D02*Y169820D01*
X72819D01*
X73755Y171380D02*X74925D01*
X73755Y169820D02*X75315D01*
X73755Y172940D02*Y169820D01*
Y172940D02*X75315D01*
X76641D02*Y169820D01*
X77811Y172940D02*X78201Y172550D01*
Y170210D01*
X77811Y169820D02*X78201Y170210D01*
X76251Y169820D02*X77811D01*
X76251Y172940D02*X77811D01*
X79137Y172550D02*X79527Y172940D01*
X80307D01*
X80697Y172550D01*
Y170210D01*
X80307Y169820D02*X80697Y170210D01*
X79527Y169820D02*X80307D01*
X79137Y170210D02*X79527Y169820D01*
Y171380D02*X80697D01*
X59267Y27985D02*Y25985D01*
Y27985D02*X59767Y28485D01*
X60767D01*
X61267Y27985D02*X60767Y28485D01*
X61267Y27985D02*Y26485D01*
X59267D02*X63267D01*
X61267D02*X63267Y28485D01*
X59267Y31185D02*X59767Y31685D01*
X59267Y31185D02*Y30185D01*
X59767Y29685D02*X59267Y30185D01*
X59767Y29685D02*X62767D01*
X63267Y30185D01*
X61267Y31185D02*X61767Y31685D01*
X61267Y31185D02*Y29685D01*
X63267Y31185D02*Y30185D01*
Y31185D02*X62767Y31685D01*
X61767D02*X62767D01*
X88523Y24803D02*X91643D01*
Y26363D02*Y24803D01*
X90083Y28469D02*Y27299D01*
X91643Y28859D02*Y27299D01*
X88523D02*X91643D01*
X88523Y28859D02*Y27299D01*
Y30185D02*X91643D01*
X88523Y31355D02*X88913Y31745D01*
X91253D01*
X91643Y31355D02*X91253Y31745D01*
X91643Y31355D02*Y29795D01*
X88523Y31355D02*Y29795D01*
X91643Y33851D02*Y33071D01*
X88523Y33461D02*X91643D01*
X89303Y32681D02*X88523Y33461D01*
X103150Y37189D02*X105150D01*
X105650Y36689D01*
Y35689D01*
X105150Y35189D02*X105650Y35689D01*
X103650Y35189D02*X105150D01*
X103650Y37189D02*Y33189D01*
Y35189D02*X105650Y33189D01*
X107350D02*X108350D01*
X107850Y37189D02*Y33189D01*
X106850Y36189D02*X107850Y37189D01*
X110050Y33189D02*X111050D01*
X110550Y37189D02*Y33189D01*
X109550Y36189D02*X110550Y37189D01*
X85433Y56709D02*Y53589D01*
X86993D01*
X87929Y55149D02*X89099D01*
X87929Y53589D02*X89489D01*
X87929Y56709D02*Y53589D01*
Y56709D02*X89489D01*
X90815D02*Y53589D01*
X91985Y56709D02*X92375Y56319D01*
Y53979D01*
X91985Y53589D02*X92375Y53979D01*
X90425Y53589D02*X91985D01*
X90425Y56709D02*X91985D01*
X93701Y53589D02*X94481D01*
X94091Y56709D02*Y53589D01*
X93311Y55929D02*X94091Y56709D01*
X95417Y53979D02*X95807Y53589D01*
X95417Y54759D02*Y53979D01*
Y54759D02*X95807Y55149D01*
X96587D01*
X96977Y54759D01*
Y53979D01*
X96587Y53589D02*X96977Y53979D01*
X95807Y53589D02*X96587D01*
X95417Y55539D02*X95807Y55149D01*
X95417Y56319D02*Y55539D01*
Y56319D02*X95807Y56709D01*
X96587D01*
X96977Y56319D01*
Y55539D01*
X96587Y55149D02*X96977Y55539D01*
X85432Y61434D02*Y58314D01*
X86992D01*
X87928Y59874D02*X89098D01*
X87928Y58314D02*X89488D01*
X87928Y61434D02*Y58314D01*
Y61434D02*X89488D01*
X90814D02*Y58314D01*
X91984Y61434D02*X92374Y61044D01*
Y58704D01*
X91984Y58314D02*X92374Y58704D01*
X90424Y58314D02*X91984D01*
X90424Y61434D02*X91984D01*
X93700Y58314D02*X94480D01*
X94090Y61434D02*Y58314D01*
X93310Y60654D02*X94090Y61434D01*
X95416Y59874D02*X96976Y61434D01*
X95416Y59874D02*X97366D01*
X96976Y61434D02*Y58314D01*
X113392Y2436D02*X116952D01*
X113392Y3771D02*X113837Y4216D01*
X116507D01*
X116952Y3771D02*X116507Y4216D01*
X116952Y3771D02*Y1991D01*
X113392Y3771D02*Y1991D01*
X116952Y6619D02*Y5729D01*
X113392Y6174D02*X116952D01*
X114282Y5284D02*X113392Y6174D01*
X85432Y66157D02*Y63037D01*
X86992D01*
X87928Y64597D02*X89098D01*
X87928Y63037D02*X89488D01*
X87928Y66157D02*Y63037D01*
Y66157D02*X89488D01*
X90814D02*Y63037D01*
X91984Y66157D02*X92374Y65767D01*
Y63427D01*
X91984Y63037D02*X92374Y63427D01*
X90424Y63037D02*X91984D01*
X90424Y66157D02*X91984D01*
X93700Y63037D02*X94480D01*
X94090Y66157D02*Y63037D01*
X93310Y65377D02*X94090Y66157D01*
X95416Y63037D02*X97366Y64987D01*
Y66157D02*Y64987D01*
X95416Y66157D02*X97366D01*
X85433Y70881D02*Y67761D01*
X86993D01*
X87929Y69321D02*X89099D01*
X87929Y67761D02*X89489D01*
X87929Y70881D02*Y67761D01*
Y70881D02*X89489D01*
X90815D02*Y67761D01*
X91985Y70881D02*X92375Y70491D01*
Y68151D01*
X91985Y67761D02*X92375Y68151D01*
X90425Y67761D02*X91985D01*
X90425Y70881D02*X91985D01*
X93701Y67761D02*X94481D01*
X94091Y70881D02*Y67761D01*
X93311Y70101D02*X94091Y70881D01*
X95417Y70491D02*X95807Y70881D01*
X96587D01*
X96977Y70491D01*
Y68151D01*
X96587Y67761D02*X96977Y68151D01*
X95807Y67761D02*X96587D01*
X95417Y68151D02*X95807Y67761D01*
Y69321D02*X96977D01*
X85431Y75607D02*Y72487D01*
X86991D01*
X87927Y74047D02*X89097D01*
X87927Y72487D02*X89487D01*
X87927Y75607D02*Y72487D01*
Y75607D02*X89487D01*
X90813D02*Y72487D01*
X91983Y75607D02*X92373Y75217D01*
Y72877D01*
X91983Y72487D02*X92373Y72877D01*
X90423Y72487D02*X91983D01*
X90423Y75607D02*X91983D01*
X93699Y72487D02*X94479D01*
X94089Y75607D02*Y72487D01*
X93309Y74827D02*X94089Y75607D01*
X96585D02*X96975Y75217D01*
X95805Y75607D02*X96585D01*
X95415Y75217D02*X95805Y75607D01*
X95415Y75217D02*Y72877D01*
X95805Y72487D01*
X96585Y74047D02*X96975Y73657D01*
X95415Y74047D02*X96585D01*
X95805Y72487D02*X96585D01*
X96975Y72877D01*
Y73657D02*Y72877D01*
X85431Y80331D02*Y77211D01*
X86991D01*
X87927Y78771D02*X89097D01*
X87927Y77211D02*X89487D01*
X87927Y80331D02*Y77211D01*
Y80331D02*X89487D01*
X90813D02*Y77211D01*
X91983Y80331D02*X92373Y79941D01*
Y77601D01*
X91983Y77211D02*X92373Y77601D01*
X90423Y77211D02*X91983D01*
X90423Y80331D02*X91983D01*
X93699Y77211D02*X94479D01*
X94089Y80331D02*Y77211D01*
X93309Y79551D02*X94089Y80331D01*
X95415Y79941D02*X95805Y80331D01*
X96975D01*
X97365Y79941D01*
Y79161D01*
X95415Y77211D02*X97365Y79161D01*
X95415Y77211D02*X97365D01*
X85432Y85054D02*Y81934D01*
X86992D01*
X87928Y83494D02*X89098D01*
X87928Y81934D02*X89488D01*
X87928Y85054D02*Y81934D01*
Y85054D02*X89488D01*
X90814D02*Y81934D01*
X91984Y85054D02*X92374Y84664D01*
Y82324D01*
X91984Y81934D02*X92374Y82324D01*
X90424Y81934D02*X91984D01*
X90424Y85054D02*X91984D01*
X93700Y81934D02*X94480D01*
X94090Y85054D02*Y81934D01*
X93310Y84274D02*X94090Y85054D01*
X95416D02*X96976D01*
X95416D02*Y83494D01*
X95806Y83884D01*
X96586D01*
X96976Y83494D01*
Y82324D01*
X96586Y81934D02*X96976Y82324D01*
X95806Y81934D02*X96586D01*
X95416Y82324D02*X95806Y81934D01*
X85432Y89780D02*Y86660D01*
X86992D01*
X87928Y88220D02*X89098D01*
X87928Y86660D02*X89488D01*
X87928Y89780D02*Y86660D01*
Y89780D02*X89488D01*
X90814D02*Y86660D01*
X91984Y89780D02*X92374Y89390D01*
Y87050D01*
X91984Y86660D02*X92374Y87050D01*
X90424Y86660D02*X91984D01*
X90424Y89780D02*X91984D01*
X93700Y86660D02*X94480D01*
X94090Y89780D02*Y86660D01*
X93310Y89000D02*X94090Y89780D01*
X95806Y86660D02*X96586D01*
X96196Y89780D02*Y86660D01*
X95416Y89000D02*X96196Y89780D01*
X69585Y110582D02*X69975Y110972D01*
X69585Y110582D02*Y109412D01*
X69975Y109022D02*X69585Y109412D01*
X69975Y109022D02*X70755D01*
X71145Y109412D01*
Y110582D02*Y109412D01*
Y110582D02*X71535Y110972D01*
X72315D01*
X72705Y110582D02*X72315Y110972D01*
X72705Y110582D02*Y109412D01*
X72315Y109022D02*X72705Y109412D01*
X72315Y111908D02*X69975Y114248D01*
X69585Y115184D02*X72705D01*
Y116744D02*Y115184D01*
X71145Y118850D02*Y117680D01*
X72705Y119240D02*Y117680D01*
X69585D02*X72705D01*
X69585Y119240D02*Y117680D01*
Y120566D02*X72705D01*
X69585Y121736D02*X69975Y122126D01*
X72315D01*
X72705Y121736D02*X72315Y122126D01*
X72705Y121736D02*Y120176D01*
X69585Y121736D02*Y120176D01*
X72705Y124232D02*Y123452D01*
X69585Y123842D02*X72705D01*
X70365Y123062D02*X69585Y123842D01*
X102758Y116324D02*X104758D01*
X105258Y115824D01*
Y114824D01*
X104758Y114324D02*X105258Y114824D01*
X103258Y114324D02*X104758D01*
X103258Y116324D02*Y112324D01*
Y114324D02*X105258Y112324D01*
X106958D02*X107958D01*
X107458Y116324D02*Y112324D01*
X106458Y115324D02*X107458Y116324D01*
X109158Y112824D02*X109658Y112324D01*
X109158Y115824D02*Y112824D01*
Y115824D02*X109658Y116324D01*
X110658D01*
X111158Y115824D01*
Y112824D01*
X110658Y112324D02*X111158Y112824D01*
X109658Y112324D02*X110658D01*
X109158Y113324D02*X111158Y115324D01*
X20080Y28529D02*Y24529D01*
Y28529D02*X22080D01*
X20080Y26529D02*X21580D01*
X23780Y24529D02*X24780D01*
X24280Y28529D02*Y24529D01*
X23280Y27529D02*X24280Y28529D01*
X52383Y26561D02*X53883D01*
Y23061D01*
X53383Y22561D02*X53883Y23061D01*
X52883Y22561D02*X53383D01*
X52383Y23061D02*X52883Y22561D01*
X55083Y26061D02*X55583Y26561D01*
X57083D01*
X57583Y26061D01*
Y25061D01*
X55083Y22561D02*X57583Y25061D01*
X55083Y22561D02*X57583D01*
X33916Y28394D02*X36916D01*
X33916D02*X33416Y28894D01*
Y29894D02*Y28894D01*
Y29894D02*X33916Y30394D01*
X36916D01*
X37416Y29894D02*X36916Y30394D01*
X37416Y29894D02*Y28894D01*
X36916Y28394D02*X37416Y28894D01*
X36416Y29394D02*X37416Y30394D01*
X33916Y31594D02*X33416Y32094D01*
Y33594D02*Y32094D01*
Y33594D02*X33916Y34094D01*
X34916D01*
X37416Y31594D02*X34916Y34094D01*
X37416D02*Y31594D01*
X22260Y44359D02*Y42359D01*
Y44359D02*X22760Y44859D01*
X23760D01*
X24260Y44359D02*X23760Y44859D01*
X24260Y44359D02*Y42859D01*
X22260D02*X26260D01*
X24260D02*X26260Y44859D01*
X22260Y48059D02*Y46059D01*
X24260D01*
X23760Y46559D01*
Y47559D02*Y46559D01*
Y47559D02*X24260Y48059D01*
X25760D01*
X26260Y47559D02*X25760Y48059D01*
X26260Y47559D02*Y46559D01*
X25760Y46059D02*X26260Y46559D01*
X26479Y59959D02*Y58179D01*
Y59959D02*X26924Y60404D01*
X27814D01*
X28259Y59959D02*X27814Y60404D01*
X28259Y59959D02*Y58624D01*
X26479D02*X30039D01*
X28259D02*X30039Y60404D01*
X29594Y61472D02*X30039Y61917D01*
X28704Y61472D02*X29594D01*
X28704D02*X28259Y61917D01*
Y62807D02*Y61917D01*
Y62807D02*X28704Y63252D01*
X29594D01*
X30039Y62807D02*X29594Y63252D01*
X30039Y62807D02*Y61917D01*
X27814Y61472D02*X28259Y61917D01*
X26924Y61472D02*X27814D01*
X26924D02*X26479Y61917D01*
Y62807D02*Y61917D01*
Y62807D02*X26924Y63252D01*
X27814D01*
X28259Y62807D02*X27814Y63252D01*
X8894Y86007D02*X10894D01*
X11394Y85507D01*
Y84507D01*
X10894Y84007D02*X11394Y84507D01*
X9394Y84007D02*X10894D01*
X9394Y86007D02*Y82007D01*
Y84007D02*X11394Y82007D01*
X12594D02*X14594Y84007D01*
Y85507D02*Y84007D01*
X14094Y86007D02*X14594Y85507D01*
X13094Y86007D02*X14094D01*
X12594Y85507D02*X13094Y86007D01*
X12594Y85507D02*Y84507D01*
X13094Y84007D01*
X14594D01*
X30040Y84691D02*Y83356D01*
X29595Y82911D02*X30040Y83356D01*
X26925Y82911D02*X29595D01*
X26925D02*X26480Y83356D01*
Y84691D02*Y83356D01*
X30040Y85759D02*X27815Y87984D01*
X26480D02*X27815D01*
X26480D02*Y85759D01*
X26765Y68665D02*X29885D01*
Y70225D02*Y68665D01*
X28325Y72331D02*Y71161D01*
X29885Y72721D02*Y71161D01*
X26765D02*X29885D01*
X26765Y72721D02*Y71161D01*
Y74047D02*X29885D01*
X26765Y75217D02*X27155Y75607D01*
X29495D01*
X29885Y75217D02*X29495Y75607D01*
X29885Y75217D02*Y73657D01*
X26765Y75217D02*Y73657D01*
X27155Y76543D02*X26765Y76933D01*
Y78103D02*Y76933D01*
Y78103D02*X27155Y78493D01*
X27935D01*
X29885Y76543D02*X27935Y78493D01*
X29885D02*Y76543D01*
X43543Y98784D02*Y97284D01*
Y98784D02*X47043D01*
X47543Y98284D02*X47043Y98784D01*
X47543Y98284D02*Y97784D01*
X47043Y97284D02*X47543Y97784D01*
X45543Y99984D02*X43543Y101984D01*
X45543Y102484D02*Y99984D01*
X43543Y101984D02*X47543D01*
X59645Y96837D02*Y93337D01*
X60145Y92837D01*
X61145D01*
X61645Y93337D01*
Y96837D02*Y93337D01*
X62845Y96337D02*X63345Y96837D01*
X64845D01*
X65345Y96337D01*
Y95337D01*
X62845Y92837D02*X65345Y95337D01*
X62845Y92837D02*X65345D01*
M02*
