G04 start of page 6 for group -4063 idx -4063 *
G04 Title: (unknown), componentmask *
G04 Creator: pcb 20110918 *
G04 CreationDate: Tue 21 Aug 2012 15:57:03 GMT UTC *
G04 For: rob *
G04 Format: Gerber/RS-274X *
G04 PCB-Dimensions: 157480 283465 *
G04 PCB-Coordinate-Origin: lower left *
%MOIN*%
%FSLAX25Y25*%
%LNTOPMASK*%
%ADD84R,0.1004X0.1004*%
%ADD83R,0.0350X0.0350*%
%ADD82R,0.0218X0.0218*%
%ADD81R,0.0400X0.0400*%
%ADD80R,0.0660X0.0660*%
%ADD79R,0.0266X0.0266*%
%ADD78R,0.0440X0.0440*%
%ADD77R,0.0381X0.0381*%
%ADD76R,0.0494X0.0494*%
%ADD75C,0.0700*%
%ADD74C,0.1280*%
%ADD73C,0.0660*%
%ADD72C,0.0001*%
%ADD71C,0.1043*%
G54D71*X141339Y127362D03*
Y155868D03*
Y170868D03*
G54D72*G36*
X3708Y100938D02*Y94338D01*
X10308D01*
Y100938D01*
X3708D01*
G37*
G54D73*X17008Y97638D03*
G54D72*G36*
X3509Y117674D02*Y110674D01*
X10509D01*
Y117674D01*
X3509D01*
G37*
G54D74*X15354Y131773D03*
G54D73*X27008Y97638D03*
X37008D03*
G54D75*X17009Y114174D03*
X27009D03*
X37009D03*
X47009D03*
X50354Y136773D03*
Y146773D03*
X40354Y141773D03*
Y161773D03*
Y151773D03*
G54D72*G36*
X36854Y175273D02*Y168273D01*
X43854D01*
Y175273D01*
X36854D01*
G37*
G54D75*X50354Y156773D03*
Y166773D03*
G54D74*X15354Y176773D03*
G54D71*X141339Y67362D03*
Y82362D03*
Y97362D03*
Y112362D03*
Y22362D03*
Y37362D03*
Y52362D03*
X56261Y16145D03*
X71261D03*
X86261D03*
X101261D03*
X101220Y267323D03*
X86220D03*
X71220D03*
X56220D03*
X141339Y260868D03*
Y185868D03*
Y200868D03*
Y215868D03*
Y230868D03*
Y245868D03*
G54D75*X50354Y205670D03*
X40354Y210670D03*
X50354Y225670D03*
X40354Y230670D03*
Y220670D03*
X50354Y215670D03*
G54D72*G36*
X36854Y244170D02*Y237170D01*
X43854D01*
Y244170D01*
X36854D01*
G37*
G54D75*X50354Y235670D03*
G54D74*X15354Y245670D03*
Y200670D03*
G54D76*X60236Y124020D02*Y122052D01*
Y110240D02*Y108272D01*
G54D77*X17251Y89461D02*Y88493D01*
X11417Y89461D02*Y88493D01*
X32193Y87008D02*X33161D01*
G54D78*X85986Y237044D02*Y236444D01*
X78186Y237044D02*Y236444D01*
Y211983D02*Y211383D01*
X82086Y220183D02*Y219583D01*
Y228844D02*Y228244D01*
X85986Y211983D02*Y211383D01*
G54D79*X103001Y243309D02*X104871D01*
X103001Y240159D02*X104871D01*
X103001Y237010D02*X104871D01*
X103001Y233860D02*X104871D01*
X109694Y240159D02*X111564D01*
G54D80*X130709Y262749D02*Y258513D01*
Y248182D02*Y243946D01*
Y232828D02*Y228592D01*
X118989Y217867D02*Y213631D01*
X130709Y217867D02*Y213631D01*
X118989Y262749D02*Y258513D01*
Y248182D02*Y243946D01*
Y232828D02*Y228592D01*
G54D79*X109694Y243309D02*X111564D01*
X109694Y237010D02*X111564D01*
X109694Y233860D02*X111564D01*
G54D80*X118988Y24559D02*Y20323D01*
G54D77*X65658Y26217D02*X66626D01*
X65658Y32051D02*X66626D01*
G54D80*X84600Y31252D02*Y27016D01*
X72880Y31252D02*Y27016D01*
X130708Y24559D02*Y20323D01*
Y39519D02*Y35283D01*
G54D81*X120961Y12205D02*X121561D01*
X120961Y4405D02*X121561D01*
X129161Y8305D02*X129761D01*
G54D79*X109694Y40157D02*X111564D01*
X109694Y43307D02*X111564D01*
X109694Y46456D02*X111564D01*
X109694Y49606D02*X111564D01*
X103001Y40157D02*X104871D01*
X103001Y43307D02*X104871D01*
X103001Y46456D02*X104871D01*
X103001Y49606D02*X104871D01*
G54D80*X118988Y39519D02*Y35283D01*
G54D77*X32193Y70151D02*X33161D01*
X32193Y64961D02*X33161D01*
G54D82*X36908Y66735D02*X40254D01*
X36908Y64176D02*X40254D01*
X36908Y61617D02*X40254D01*
X36908Y59058D02*X40254D01*
G54D77*X32193Y59127D02*X33161D01*
G54D82*X66436Y43704D02*X69782D01*
G54D77*X28650Y42592D02*X29618D01*
G54D83*X41039Y35416D02*X41639D01*
X41039Y30316D02*X41639D01*
X48039Y32816D02*X48639D01*
G54D84*X7875Y19094D02*Y6102D01*
X37009Y19094D02*Y6102D01*
G54D82*X36908Y51381D02*X40254D01*
X36908Y48822D02*X40254D01*
X36908Y46263D02*X40254D01*
X36908Y43704D02*X40254D01*
G54D77*X28650Y48426D02*X29618D01*
G54D82*X66436Y46263D02*X69782D01*
X66436Y48822D02*X69782D01*
X66436Y51381D02*X69782D01*
X66436Y53940D02*X69782D01*
X66436Y56499D02*X69782D01*
X66436Y59058D02*X69782D01*
X66436Y61617D02*X69782D01*
X66436Y64176D02*X69782D01*
X66436Y66735D02*X69782D01*
X66436Y69294D02*X69782D01*
X66436Y71853D02*X69782D01*
X66436Y74412D02*X69782D01*
X66436Y76971D02*X69782D01*
X66436Y79530D02*X69782D01*
X66436Y82089D02*X69782D01*
G54D77*X32193Y75985D02*X33161D01*
G54D82*X36908Y89766D02*X40254D01*
X36908Y87207D02*X40254D01*
X36908Y84648D02*X40254D01*
X36908Y74412D02*X40254D01*
X36908Y71853D02*X40254D01*
X36908Y69294D02*X40254D01*
X36908Y82089D02*X40254D01*
X36908Y79530D02*X40254D01*
X36908Y76971D02*X40254D01*
G54D77*X32193Y81174D02*X33161D01*
G54D82*X36908Y56499D02*X40254D01*
X36908Y53940D02*X40254D01*
G54D80*X118989Y202906D02*Y198670D01*
X130709Y202906D02*Y198670D01*
X118989Y187946D02*Y183710D01*
X130709Y187946D02*Y183710D01*
Y172985D02*Y168749D01*
Y158024D02*Y153788D01*
X118989Y172985D02*Y168749D01*
Y158024D02*Y153788D01*
G54D79*X103002Y183465D02*X104872D01*
X109695D02*X111565D01*
X103002Y180315D02*X104872D01*
X109695D02*X111565D01*
X103002Y177166D02*X104872D01*
X109695D02*X111565D01*
X103002Y174016D02*X104872D01*
X109695D02*X111565D01*
G54D78*X78739Y165262D02*Y164662D01*
X70939Y165262D02*Y164662D01*
X74839Y157062D02*Y156462D01*
G54D80*X130708Y99362D02*Y95126D01*
Y84401D02*Y80165D01*
G54D82*X66436Y84648D02*X69782D01*
X66436Y87207D02*X69782D01*
X66436Y89766D02*X69782D01*
G54D76*X65748Y124020D02*Y122052D01*
Y110240D02*Y108272D01*
G54D79*X109692Y99999D02*X111562D01*
X109692Y103149D02*X111562D01*
X109692Y106298D02*X111562D01*
X109692Y109448D02*X111562D01*
X102999Y99999D02*X104869D01*
X102999Y103149D02*X104869D01*
X102999Y106298D02*X104869D01*
X102999Y109448D02*X104869D01*
G54D80*X130708Y129283D02*Y125047D01*
X118988Y99362D02*Y95126D01*
X130708Y114322D02*Y110086D01*
X118988Y114322D02*Y110086D01*
Y129283D02*Y125047D01*
X130708Y54480D02*Y50244D01*
X118988Y54480D02*Y50244D01*
X130708Y69441D02*Y65205D01*
X118988Y69441D02*Y65205D01*
Y84401D02*Y80165D01*
M02*
