M48
INCH
T69C0.020
T68C0.020
T67C0.035
T66C0.038
T65C0.047
%
T69
X010236Y020079
X009094Y020000
X010512Y020748
X010827Y022244
X009882Y022795
X010276Y021575
X010157Y022205
X009882Y017992
X010591Y014921
X010906Y014173
X010906Y013228
X008661Y020000
X015079Y009094
X015079Y007598
X015079Y006102
X015079Y004606
X015079Y003110
X014764Y002717
X014764Y004213
X014764Y005709
X014764Y007205
X014764Y008701
X015079Y001575
X013228Y000354
X012716Y000354
X008346Y003898
X009409Y002953
X009409Y002244
X009134Y004843
X010551Y009094
X010551Y008228
X010551Y007362
X010118Y007795
X010118Y008661
X010551Y006496
X010118Y006063
X010118Y006929
X007716Y006339
X008228Y007402
X008228Y006929
X015079Y012126
X015079Y010591
X014764Y013346
X014764Y010197
X014764Y011693
X013779Y014843
X012638Y014646
X012638Y014213
X011772Y014173
X015197Y025354
X015197Y023819
X015197Y022323
X015197Y020827
X015197Y019370
X015197Y017874
X015197Y016378
X015197Y014764
X008228Y012677
X008425Y011890
X006575Y014961
X005787Y003504
X010512Y016260
X010236Y015591
X010512Y019252
X009882Y017047
X009882Y016417
X010000Y018819
X001063Y002677
X003307Y003740
X002402Y007638
X003189Y009291
X003071Y003307
X002284Y003780
X002716Y002992
X001693Y008228
X000276Y008307
X000276Y008937
X000236Y003976
X000236Y004646
X001811Y003346
X001693Y003858
X004528Y008819
X004370Y008150
X004370Y007677
X007323Y009154
X005472Y009449
X005157Y009055
X007323Y007284
X006299Y007441
X007323Y007913
X005630Y007480
X005591Y007047
X005827Y007874
X006299Y008937
X006299Y008465
X007323Y008543
X006299Y007953
X007323Y006063
X006260Y006142
X005591Y006614
X005945Y005669
X006299Y004882
X006024Y005236
X005079Y005669
X006417Y002165
X004724Y001850
X001968Y001693
X002284Y002008
X002126Y000709
X002126Y001142
X002559Y001260
X000551Y025630
X009724Y024016
X010512Y025276
X011063Y027362
X010512Y025984
X010000Y024882
X009882Y025787
X009409Y027835
X008465Y027835
X007480Y027835
T68
X007716Y023189
X007598Y022284
X008661Y021654
X007716Y021654
X008661Y023189
X008740Y022441
X007953Y016004
X006772Y011791
X007224Y014724
X007933Y014882
X007484Y015129
X005709Y013661
X006220Y011791
X004331Y014685
X006457Y012992
X006575Y013504
X001437Y015807
X001437Y016280
X006870Y015945
X002323Y014724
X000354Y013740
X002323Y014055
X002028Y016536
X004055Y018071
X004528Y018071
X004528Y018543
X004528Y019016
X004528Y019488
X003327Y014803
X006319Y017776
X006319Y018307
X006319Y018839
X006319Y019370
X006319Y019902
X006673Y019114
X006673Y019646
X001299Y021181
X001181Y018504
X002205Y010984
X002756Y020354
X001535Y023425
X000984Y023780
X002244Y021890
X001772Y022008
X002244Y022362
X002165Y021024
X000590Y020630
X000315Y021083
X001772Y018563
X004055Y018543
X004055Y019016
X006122Y024665
X003327Y024410
X002854Y024469
X001339Y022638
X001772Y022480
X002953Y023858
X005492Y025295
X005807Y024980
T67
X005035Y013677
X005035Y014677
X004035Y014177
X004035Y016177
X004035Y015177
X004035Y017177
X005035Y015677
X005035Y016677
X005035Y020567
X004035Y021067
X005035Y022567
X004035Y023067
X004035Y022067
X005035Y021567
X004035Y024067
X005035Y023567
X002638Y017205
X003976Y020118
T66
X000701Y009764
X001701Y009764
X000701Y011417
X002701Y009764
X003701Y009764
X001701Y011417
X002701Y011417
X003701Y011417
X004701Y011417
T65
X014134Y012736
X014134Y015587
X014134Y017087
X014134Y006736
X014134Y008236
X014134Y009736
X014134Y011236
X014134Y002236
X014134Y003736
X014134Y005236
X005626Y001614
X007126Y001614
X008626Y001614
X010126Y001614
X010122Y026732
X008622Y026732
X007122Y026732
X005622Y026732
X014134Y026087
X014134Y018587
X014134Y020087
X014134Y021587
X014134Y023087
X014134Y024587
M30
