M48
INCH
T11C0.020
T32C0.038
T34C0.035
T46C0.047
%
T11
X007716Y023189
X007598Y022283
X008661Y021653
X007716Y021653
X008661Y023189
X008740Y022441
X010236Y020078
X009094Y020000
X010511Y020748
X010826Y022244
X009881Y022795
X010275Y021574
X010157Y022204
X009881Y017992
X010590Y014921
X010905Y014173
X010905Y013228
X008661Y020000
X015078Y009094
X015078Y007598
X015078Y006102
X015078Y004606
X015078Y003110
X014763Y002716
X014763Y004212
X014763Y005708
X014763Y007204
X014763Y008700
X015078Y001574
X013228Y000354
X012716Y000354
X008346Y003897
X009409Y002952
X009409Y002244
X009133Y004842
X010551Y009094
X010551Y008228
X010551Y007362
X010118Y007795
X010118Y008661
X010551Y006496
X010118Y006063
X010118Y006929
X007716Y006338
X008228Y007401
X008228Y006929
X015078Y012126
X015078Y010590
X014763Y013346
X014763Y010196
X014763Y011693
X013779Y014842
X012637Y014645
X012637Y014212
X011771Y014173
X015196Y025354
X015196Y023818
X015196Y022322
X015196Y020826
X015196Y019370
X015196Y017874
X015196Y016378
X015196Y014763
X007952Y016004
X006771Y011791
X007224Y014724
X007933Y014882
X007483Y015129
X005708Y013661
X006220Y011791
X004330Y014685
X006456Y012992
X006574Y013504
X008228Y012677
X008425Y011889
X006574Y014960
X005787Y003504
X001437Y015807
X001437Y016279
X006870Y015945
X002322Y014724
X000354Y013740
X002322Y014055
X010511Y016259
X010236Y015590
X010511Y019252
X009881Y017047
X009881Y016417
X010000Y018818
X002027Y016535
X004055Y018071
X004527Y018071
X004527Y018543
X004527Y019015
X004527Y019488
X003326Y014803
X006318Y017775
X006318Y018307
X006318Y018838
X006318Y019370
X006318Y019901
X006673Y019114
X006673Y019645
X001299Y021181
X001181Y018504
X001063Y002677
X003307Y003740
X002401Y007637
X003189Y009291
X003070Y003307
X002283Y003779
X002716Y002992
X001692Y008228
X000275Y008307
X000275Y008937
X000236Y003976
X000236Y004645
X001811Y003346
X001692Y003858
X002204Y010984
X004527Y008818
X004370Y008149
X004370Y007677
X007322Y009153
X005472Y009448
X005157Y009055
X007322Y007283
X006299Y007441
X007322Y007913
X005629Y007480
X005590Y007047
X005826Y007874
X006299Y008937
X006299Y008464
X007322Y008543
X006299Y007952
X007322Y006063
X006259Y006141
X005590Y006614
X005944Y005669
X006299Y004881
X006023Y005236
X005078Y005669
X006417Y002165
X004724Y001850
X001968Y001693
X002283Y002007
X002126Y000708
X002126Y001141
X002559Y001259
X002755Y020354
X001535Y023425
X000984Y023779
X002244Y021889
X001771Y022008
X002244Y022362
X002165Y021023
X000590Y020630
X000314Y021082
X001771Y018563
X004055Y018543
X004055Y019015
X006122Y024665
X003326Y024409
X002854Y024468
X001338Y022637
X001771Y022480
X000551Y025630
X002952Y023858
X005492Y025295
X005807Y024980
X009724Y024015
X010511Y025275
X011063Y027362
X010511Y025984
X010000Y024881
X009881Y025787
X009409Y027834
X008464Y027834
X007480Y027834
T34
X005035Y013677
X005035Y014677
X004035Y014177
X004035Y016177
X004035Y015177
X004035Y017177
X005035Y015677
X005035Y016677
X005035Y020567
X004035Y021067
X005035Y022567
X004035Y023067
X004035Y022067
X005035Y021567
X004035Y024067
X005035Y023567
X002637Y017204
X003976Y020118
T32
X000700Y009763
X001700Y009763
X000700Y011417
X002700Y009763
X003700Y009763
X001700Y011417
X002700Y011417
X003700Y011417
X004700Y011417
T46
X014133Y012736
X014133Y015586
X014133Y017086
X014133Y006736
X014133Y008236
X014133Y009736
X014133Y011236
X014133Y002236
X014133Y003736
X014133Y005236
X005626Y001614
X007126Y001614
X008626Y001614
X010126Y001614
X010122Y026732
X008622Y026732
X007122Y026732
X005622Y026732
X014133Y026086
X014133Y018586
X014133Y020086
X014133Y021586
X014133Y023086
X014133Y024586
M30
