G04 start of page 2 for group 0 idx 0 *
G04 Title: (unknown), component *
G04 Creator: pcb 1.99z *
G04 CreationDate: Wed 06 Oct 2010 18:12:43 GMT UTC *
G04 For: rbarlow *
G04 Format: Gerber/RS-274X *
G04 PCB-Dimensions: 157480 283465 *
G04 PCB-Coordinate-Origin: lower left *
%MOIN*%
%FSLAX25Y25*%
%LNFRONT*%
%ADD11C,0.0200*%
%ADD12C,0.0100*%
%ADD13C,0.0250*%
%ADD14C,0.0216*%
%ADD15C,0.0098*%
%ADD16C,0.0079*%
%ADD17C,0.0110*%
%ADD18C,0.0945*%
%ADD19C,0.0600*%
%ADD20C,0.0360*%
%ADD21C,0.0354*%
%ADD22C,0.0360*%
%ADD23R,0.0283X0.0283*%
%ADD24R,0.0600X0.0600*%
%ADD25R,0.0340X0.0340*%
%ADD26R,0.0167X0.0167*%
%ADD27R,0.0118X0.0118*%
%ADD28R,0.0290X0.0290*%
%ADD29R,0.0750X0.0750*%
%ADD30R,0.0394X0.0394*%
%ADD31C,0.0472*%
%ADD32C,0.0380*%
%ADD33C,0.1280*%
%ADD34C,0.0350*%
%ADD35C,0.0197*%
G54D11*G36*
X148577Y12205D02*X152474D01*
Y9594D01*
X148674Y5794D01*
X133901D01*
X133541Y6014D01*
X133140Y6180D01*
X132911Y6235D01*
X132943Y6370D01*
X132961Y6605D01*
X132943Y10240D01*
X132888Y10469D01*
X132798Y10686D01*
X132786Y10705D01*
X146457D01*
X146692Y10722D01*
X146921Y10777D01*
X147138Y10868D01*
X147339Y10991D01*
X147518Y11144D01*
X147530Y11158D01*
X148577Y12205D01*
G37*
G36*
X149137Y125985D02*X152474D01*
Y9594D01*
X148674Y5794D01*
X147638D01*
Y11266D01*
X148698Y12326D01*
X148852Y12504D01*
X148975Y12705D01*
X149065Y12922D01*
X149120Y13151D01*
X149138Y13386D01*
X149137Y13399D01*
Y24843D01*
X149267Y24923D01*
X149598Y25206D01*
X149881Y25537D01*
X150108Y25908D01*
X150274Y26309D01*
X150376Y26732D01*
X150410Y27166D01*
X150376Y27600D01*
X150274Y28023D01*
X150108Y28424D01*
X149881Y28795D01*
X149598Y29126D01*
X149267Y29409D01*
X149137Y29489D01*
Y39803D01*
X149267Y39883D01*
X149598Y40166D01*
X149881Y40497D01*
X150108Y40868D01*
X150274Y41269D01*
X150376Y41692D01*
X150410Y42126D01*
X150376Y42560D01*
X150274Y42983D01*
X150108Y43384D01*
X149881Y43755D01*
X149598Y44086D01*
X149267Y44369D01*
X149137Y44449D01*
Y54764D01*
X149267Y54844D01*
X149598Y55127D01*
X149881Y55458D01*
X150108Y55829D01*
X150274Y56230D01*
X150376Y56653D01*
X150410Y57087D01*
X150376Y57521D01*
X150274Y57944D01*
X150108Y58345D01*
X149881Y58716D01*
X149598Y59047D01*
X149267Y59330D01*
X149137Y59410D01*
Y69725D01*
X149267Y69805D01*
X149598Y70088D01*
X149881Y70419D01*
X150108Y70790D01*
X150274Y71191D01*
X150376Y71614D01*
X150410Y72048D01*
X150376Y72482D01*
X150274Y72905D01*
X150108Y73306D01*
X149881Y73677D01*
X149598Y74008D01*
X149267Y74291D01*
X149137Y74371D01*
Y84685D01*
X149267Y84765D01*
X149598Y85048D01*
X149881Y85379D01*
X150108Y85750D01*
X150274Y86151D01*
X150376Y86574D01*
X150410Y87008D01*
X150376Y87442D01*
X150274Y87865D01*
X150108Y88266D01*
X149881Y88637D01*
X149598Y88968D01*
X149267Y89251D01*
X149137Y89331D01*
Y99646D01*
X149267Y99726D01*
X149598Y100009D01*
X149881Y100340D01*
X150108Y100711D01*
X150274Y101112D01*
X150376Y101535D01*
X150410Y101969D01*
X150376Y102403D01*
X150274Y102826D01*
X150108Y103227D01*
X149881Y103598D01*
X149598Y103929D01*
X149267Y104212D01*
X149137Y104292D01*
Y114607D01*
X149267Y114687D01*
X149598Y114970D01*
X149881Y115301D01*
X150108Y115672D01*
X150274Y116073D01*
X150376Y116496D01*
X150410Y116930D01*
X150376Y117364D01*
X150274Y117787D01*
X150108Y118188D01*
X149881Y118559D01*
X149598Y118890D01*
X149267Y119173D01*
X149137Y119253D01*
Y125985D01*
G37*
G36*
X112071Y58376D02*X112085Y58388D01*
X112238Y58567D01*
X112361Y58768D01*
X112451Y58985D01*
X112506Y59214D01*
X112524Y59449D01*
Y68111D01*
X112523Y68119D01*
X112507Y68345D01*
X112452Y68574D01*
X112361Y68791D01*
X112238Y68992D01*
X112085Y69171D01*
X112078Y69177D01*
X108545Y72710D01*
X108645Y73126D01*
X108684Y73622D01*
X108645Y74118D01*
X108529Y74602D01*
X108338Y75062D01*
X108078Y75486D01*
X107755Y75865D01*
X107376Y76188D01*
X106952Y76448D01*
X106492Y76639D01*
X106008Y76755D01*
X105512Y76794D01*
X105016Y76755D01*
X104532Y76639D01*
X104222Y76510D01*
X104388Y76911D01*
X104511Y77426D01*
X104553Y77953D01*
X104511Y78480D01*
X104388Y78995D01*
X104222Y79396D01*
X104532Y79267D01*
X105016Y79151D01*
X105512Y79112D01*
X106008Y79151D01*
X106492Y79267D01*
X106952Y79458D01*
X107376Y79718D01*
X107755Y80041D01*
X108078Y80420D01*
X108338Y80844D01*
X108364Y80906D01*
X108661D01*
X108877Y80923D01*
X109087Y80973D01*
X109287Y81056D01*
X109471Y81169D01*
X109635Y81310D01*
X112785Y84460D01*
X112927Y84624D01*
X113040Y84808D01*
X113122Y85008D01*
X113173Y85218D01*
X113190Y85434D01*
X113189Y85447D01*
Y90202D01*
X115282Y88109D01*
X115281Y88108D01*
X115179Y87989D01*
X115097Y87855D01*
X115037Y87710D01*
X115000Y87557D01*
X114988Y87401D01*
X115000Y77009D01*
X115037Y76856D01*
X115097Y76711D01*
X115179Y76577D01*
X115281Y76458D01*
X115400Y76356D01*
X115534Y76274D01*
X115679Y76214D01*
X115748Y76197D01*
Y73409D01*
X115679Y73392D01*
X115534Y73332D01*
X115400Y73250D01*
X115281Y73148D01*
X115179Y73029D01*
X115097Y72895D01*
X115037Y72750D01*
X115000Y72597D01*
X114988Y72441D01*
X115000Y62049D01*
X115037Y61896D01*
X115097Y61751D01*
X115179Y61617D01*
X115281Y61498D01*
X113112Y59329D01*
X112959Y59150D01*
X112836Y58949D01*
X112746Y58732D01*
X112691Y58503D01*
X112673Y58268D01*
Y55512D01*
X109207D01*
X112071Y58376D01*
G37*
G36*
X105436Y51426D02*Y51741D01*
X112071Y58376D01*
X112085Y58388D01*
X112238Y58567D01*
X112361Y58768D01*
X112451Y58985D01*
X112506Y59214D01*
X112524Y59449D01*
Y68111D01*
X112523Y68119D01*
X112507Y68345D01*
X112452Y68574D01*
X112361Y68791D01*
X112238Y68992D01*
X112085Y69171D01*
X112078Y69177D01*
X108545Y72710D01*
X108645Y73126D01*
X108684Y73622D01*
X108645Y74118D01*
X108529Y74602D01*
X108338Y75062D01*
X108078Y75486D01*
X107755Y75865D01*
X107614Y75985D01*
X118898D01*
Y73435D01*
X115832Y73429D01*
X115679Y73392D01*
X115534Y73332D01*
X115400Y73250D01*
X115281Y73148D01*
X115179Y73029D01*
X115097Y72895D01*
X115037Y72750D01*
X115000Y72597D01*
X114988Y72441D01*
X115000Y62049D01*
X115037Y61896D01*
X115097Y61751D01*
X115179Y61617D01*
X115281Y61498D01*
X113112Y59329D01*
X112959Y59150D01*
X112836Y58949D01*
X112746Y58732D01*
X112691Y58503D01*
X112673Y58268D01*
Y51387D01*
X112555Y51415D01*
X112401Y51427D01*
X108703Y51415D01*
X108553Y51379D01*
X108410Y51320D01*
X108279Y51239D01*
X108161Y51139D01*
X108061Y51021D01*
X107980Y50890D01*
X107921Y50747D01*
X107885Y50597D01*
X107873Y50443D01*
X107885Y48615D01*
X107921Y48465D01*
X107980Y48322D01*
X108061Y48191D01*
X108161Y48073D01*
X108211Y48031D01*
X108161Y47989D01*
X108061Y47871D01*
X107980Y47740D01*
X107938Y47638D01*
X106627D01*
X106585Y47740D01*
X106504Y47871D01*
X106404Y47989D01*
X106354Y48031D01*
X106404Y48073D01*
X106504Y48191D01*
X106585Y48322D01*
X106644Y48465D01*
X106680Y48615D01*
X106692Y48769D01*
X106680Y50597D01*
X106644Y50747D01*
X106585Y50890D01*
X106504Y51021D01*
X106404Y51139D01*
X106286Y51239D01*
X106155Y51320D01*
X106012Y51379D01*
X105862Y51415D01*
X105708Y51427D01*
X105436Y51426D01*
G37*
G36*
X85827Y46457D02*Y46478D01*
X94957Y55608D01*
Y46457D01*
X85827D01*
G37*
G36*
X92716Y246063D02*X86220D01*
Y261614D01*
X87113Y261684D01*
X87984Y261893D01*
X88812Y262236D01*
X89576Y262704D01*
X90257Y263286D01*
X90839Y263967D01*
X91307Y264731D01*
X91650Y265559D01*
X91859Y266430D01*
X91929Y267323D01*
X91859Y268216D01*
X91650Y269087D01*
X91307Y269915D01*
X90839Y270679D01*
X90257Y271360D01*
X89576Y271942D01*
X88812Y272410D01*
X87984Y272753D01*
X87113Y272962D01*
X86220Y273032D01*
Y283465D01*
X98031D01*
Y272044D01*
X97864Y271942D01*
X97183Y271360D01*
X96601Y270679D01*
X96133Y269915D01*
X95790Y269087D01*
X95581Y268216D01*
X95511Y267323D01*
X95581Y266430D01*
X95790Y265559D01*
X96133Y264731D01*
X96601Y263967D01*
X97183Y263286D01*
X97864Y262704D01*
X98031Y262602D01*
Y253493D01*
X98009Y253479D01*
X97844Y253338D01*
X93119Y248613D01*
X93029Y248506D01*
X92979Y248448D01*
X92866Y248264D01*
X92783Y248064D01*
X92733Y247854D01*
X92716Y247638D01*
Y246063D01*
G37*
G36*
X86220D02*X71220D01*
Y261614D01*
X72113Y261684D01*
X72984Y261893D01*
X73812Y262236D01*
X74576Y262704D01*
X75257Y263286D01*
X75839Y263967D01*
X76307Y264731D01*
X76650Y265559D01*
X76859Y266430D01*
X76929Y267323D01*
X76859Y268216D01*
X76650Y269087D01*
X76307Y269915D01*
X75839Y270679D01*
X75257Y271360D01*
X74576Y271942D01*
X73812Y272410D01*
X72984Y272753D01*
X72113Y272962D01*
X71220Y273032D01*
Y283465D01*
X86220D01*
Y273032D01*
X85327Y272962D01*
X84456Y272753D01*
X83628Y272410D01*
X82864Y271942D01*
X82183Y271360D01*
X81601Y270679D01*
X81133Y269915D01*
X80790Y269087D01*
X80581Y268216D01*
X80511Y267323D01*
X80581Y266430D01*
X80790Y265559D01*
X81133Y264731D01*
X81601Y263967D01*
X82183Y263286D01*
X82864Y262704D01*
X83628Y262236D01*
X84456Y261893D01*
X85327Y261684D01*
X86220Y261614D01*
Y246063D01*
G37*
G36*
X71220D02*X63949D01*
X63986Y246217D01*
X64020Y246655D01*
X63986Y247093D01*
X63883Y247520D01*
X63715Y247926D01*
X63485Y248301D01*
X63200Y248635D01*
X62866Y248920D01*
X62491Y249150D01*
X62085Y249318D01*
X61658Y249421D01*
X61220Y249455D01*
X60842Y249426D01*
X60871Y249804D01*
X60837Y250242D01*
X60734Y250669D01*
X60566Y251075D01*
X60336Y251450D01*
X60051Y251784D01*
X59717Y252069D01*
X59342Y252299D01*
X58936Y252467D01*
X58509Y252570D01*
X58071Y252604D01*
X57692Y252575D01*
X57721Y252954D01*
X57687Y253392D01*
X57584Y253819D01*
X57416Y254225D01*
X57186Y254600D01*
X56901Y254934D01*
X56567Y255219D01*
X56192Y255449D01*
X55786Y255617D01*
X55359Y255720D01*
X54921Y255754D01*
X54483Y255720D01*
X54056Y255617D01*
X53650Y255449D01*
X53275Y255219D01*
X52941Y254934D01*
X52656Y254600D01*
X52566Y254454D01*
X42967D01*
Y268617D01*
X50677D01*
X50581Y268216D01*
X50511Y267323D01*
X50581Y266430D01*
X50790Y265559D01*
X51133Y264731D01*
X51601Y263967D01*
X52183Y263286D01*
X52864Y262704D01*
X53628Y262236D01*
X54456Y261893D01*
X55327Y261684D01*
X56220Y261614D01*
X57113Y261684D01*
X57984Y261893D01*
X58812Y262236D01*
X59576Y262704D01*
X60257Y263286D01*
X60839Y263967D01*
X61307Y264731D01*
X61650Y265559D01*
X61859Y266430D01*
X61929Y267323D01*
X61859Y268216D01*
X61650Y269087D01*
X61307Y269915D01*
X60839Y270679D01*
X60257Y271360D01*
X59576Y271942D01*
X58812Y272410D01*
X57984Y272753D01*
X57113Y272962D01*
X56220Y273032D01*
X55327Y272962D01*
X54456Y272753D01*
X54096Y272604D01*
X53999Y272687D01*
X53697Y272872D01*
X53371Y273007D01*
X53111Y273069D01*
X53029Y273089D01*
X53001Y273091D01*
X52676Y273117D01*
X42967D01*
Y283465D01*
X71220D01*
Y273032D01*
X70327Y272962D01*
X69456Y272753D01*
X68628Y272410D01*
X67864Y271942D01*
X67183Y271360D01*
X66601Y270679D01*
X66133Y269915D01*
X65790Y269087D01*
X65581Y268216D01*
X65511Y267323D01*
X65581Y266430D01*
X65790Y265559D01*
X66133Y264731D01*
X66601Y263967D01*
X67183Y263286D01*
X67864Y262704D01*
X68628Y262236D01*
X69456Y261893D01*
X70327Y261684D01*
X71220Y261614D01*
Y246063D01*
G37*
G36*
X42967Y254454D02*X23228D01*
X22993Y254436D01*
X22764Y254381D01*
X22547Y254291D01*
X22346Y254168D01*
X22167Y254015D01*
X22014Y253836D01*
X21891Y253635D01*
X21801Y253418D01*
X21746Y253189D01*
X21728Y252954D01*
X21736Y252850D01*
Y249375D01*
X21341Y250020D01*
X20587Y250903D01*
X19704Y251657D01*
X18714Y252263D01*
X17641Y252708D01*
X16512Y252979D01*
X15354Y253070D01*
X14196Y252979D01*
X13236Y252749D01*
Y263158D01*
X17140Y263164D01*
X17290Y263200D01*
X17433Y263259D01*
X17564Y263340D01*
X17682Y263440D01*
X17782Y263558D01*
X17863Y263689D01*
X17922Y263832D01*
X17958Y263982D01*
X17970Y264136D01*
X17958Y277790D01*
X17922Y277940D01*
X17863Y278083D01*
X17782Y278214D01*
X17682Y278332D01*
X17564Y278432D01*
X17433Y278513D01*
X17290Y278572D01*
X17140Y278608D01*
X16986Y278620D01*
X13236Y278614D01*
Y283465D01*
X42967D01*
Y273117D01*
X33466D01*
X33462Y277752D01*
X33426Y277902D01*
X33367Y278045D01*
X33286Y278176D01*
X33186Y278294D01*
X33068Y278394D01*
X32937Y278475D01*
X32794Y278534D01*
X32644Y278570D01*
X32490Y278582D01*
X24835Y278570D01*
X24685Y278534D01*
X24542Y278475D01*
X24411Y278394D01*
X24293Y278294D01*
X24193Y278176D01*
X24112Y278045D01*
X24053Y277902D01*
X24017Y277752D01*
X24005Y277598D01*
X24017Y263982D01*
X24053Y263832D01*
X24112Y263689D01*
X24193Y263558D01*
X24293Y263440D01*
X24411Y263340D01*
X24542Y263259D01*
X24685Y263200D01*
X24835Y263164D01*
X24989Y263152D01*
X32644Y263164D01*
X32794Y263200D01*
X32937Y263259D01*
X33068Y263340D01*
X33186Y263440D01*
X33286Y263558D01*
X33367Y263689D01*
X33426Y263832D01*
X33462Y263982D01*
X33474Y264136D01*
X33470Y268617D01*
X42967D01*
Y254454D01*
G37*
G36*
X13236Y252749D02*X13067Y252708D01*
X11994Y252263D01*
X11004Y251657D01*
X10121Y250903D01*
X9367Y250020D01*
X8761Y249030D01*
X8316Y247957D01*
X8045Y246828D01*
X7985Y246063D01*
X0D01*
Y283465D01*
X13236D01*
Y278614D01*
X9332Y278608D01*
X9182Y278572D01*
X9039Y278513D01*
X8908Y278432D01*
X8790Y278332D01*
X8690Y278214D01*
X8609Y278083D01*
X8550Y277940D01*
X8514Y277790D01*
X8502Y277636D01*
X8514Y263982D01*
X8550Y263832D01*
X8609Y263689D01*
X8690Y263558D01*
X8790Y263440D01*
X8908Y263340D01*
X9039Y263259D01*
X9182Y263200D01*
X9332Y263164D01*
X9486Y263152D01*
X13236Y263158D01*
Y252749D01*
G37*
G36*
X130708Y139876D02*X147493D01*
X152474Y134894D01*
Y107087D01*
X149137D01*
Y114607D01*
X149267Y114687D01*
X149598Y114970D01*
X149881Y115301D01*
X150108Y115672D01*
X150274Y116073D01*
X150376Y116496D01*
X150410Y116930D01*
X150376Y117364D01*
X150274Y117787D01*
X150108Y118188D01*
X149881Y118559D01*
X149598Y118890D01*
X149267Y119173D01*
X149137Y119253D01*
Y131142D01*
X149267Y131222D01*
X149598Y131505D01*
X149881Y131836D01*
X150108Y132207D01*
X150274Y132608D01*
X150376Y133031D01*
X150410Y133465D01*
X150376Y133899D01*
X150274Y134322D01*
X150108Y134723D01*
X149881Y135094D01*
X149598Y135425D01*
X149267Y135708D01*
X148896Y135935D01*
X148495Y136101D01*
X148072Y136203D01*
X147638Y136237D01*
X147204Y136203D01*
X146781Y136101D01*
X146380Y135935D01*
X146009Y135708D01*
X145678Y135425D01*
X145395Y135094D01*
X145168Y134723D01*
X145002Y134322D01*
X144900Y133899D01*
X144866Y133465D01*
X144900Y133031D01*
X145002Y132608D01*
X145168Y132207D01*
X145395Y131836D01*
X145678Y131505D01*
X146009Y131222D01*
X146138Y131143D01*
Y130424D01*
X145958Y130718D01*
X145376Y131399D01*
X144695Y131981D01*
X143931Y132449D01*
X143103Y132792D01*
X142232Y133001D01*
X141339Y133071D01*
X140446Y133001D01*
X139575Y132792D01*
X138747Y132449D01*
X137983Y131981D01*
X137302Y131399D01*
X136720Y130718D01*
X136252Y129954D01*
X135909Y129126D01*
X135700Y128255D01*
X135630Y127362D01*
X135700Y126469D01*
X135909Y125598D01*
X136252Y124770D01*
X136720Y124006D01*
X137302Y123325D01*
X137983Y122743D01*
X138747Y122275D01*
X139575Y121932D01*
X140446Y121723D01*
X141339Y121653D01*
X142232Y121723D01*
X143103Y121932D01*
X143931Y122275D01*
X144695Y122743D01*
X145376Y123325D01*
X145958Y124006D01*
X146138Y124300D01*
Y119252D01*
X146009Y119173D01*
X145678Y118890D01*
X145395Y118559D01*
X145168Y118188D01*
X145002Y117787D01*
X144900Y117364D01*
X144866Y116930D01*
X144874Y116828D01*
X144695Y116981D01*
X143931Y117449D01*
X143103Y117792D01*
X142232Y118001D01*
X141339Y118071D01*
X140446Y118001D01*
X139575Y117792D01*
X138747Y117449D01*
X137983Y116981D01*
X137302Y116399D01*
X136720Y115718D01*
X136252Y114954D01*
X135909Y114126D01*
X135700Y113255D01*
X135630Y112362D01*
X135700Y111469D01*
X135909Y110598D01*
X136252Y109770D01*
X136720Y109006D01*
X137302Y108325D01*
X137983Y107743D01*
X138747Y107275D01*
X139201Y107087D01*
X134708D01*
X134696Y117478D01*
X134659Y117631D01*
X134599Y117776D01*
X134517Y117910D01*
X134415Y118029D01*
X134296Y118131D01*
X134162Y118213D01*
X134017Y118273D01*
X133864Y118310D01*
X133708Y118322D01*
X130708Y118316D01*
Y121053D01*
X133864Y121059D01*
X134017Y121096D01*
X134162Y121156D01*
X134296Y121238D01*
X134415Y121340D01*
X134517Y121459D01*
X134599Y121593D01*
X134659Y121738D01*
X134696Y121891D01*
X134708Y122047D01*
X134696Y132439D01*
X134659Y132592D01*
X134599Y132737D01*
X134517Y132871D01*
X134415Y132990D01*
X134296Y133092D01*
X134162Y133174D01*
X134017Y133234D01*
X133864Y133271D01*
X133708Y133283D01*
X130708Y133277D01*
Y139876D01*
G37*
G36*
X141339Y283465D02*X157480D01*
Y107087D01*
X156973D01*
Y135813D01*
X156974Y135826D01*
X156946Y136178D01*
X156864Y136521D01*
X156729Y136847D01*
X156544Y137149D01*
X156315Y137417D01*
X150028Y143705D01*
X150017Y143718D01*
X149748Y143947D01*
X149447Y144132D01*
X149121Y144267D01*
X148777Y144349D01*
X148425Y144377D01*
X141339D01*
Y150159D01*
X142232Y150229D01*
X143103Y150438D01*
X143931Y150781D01*
X144695Y151249D01*
X145376Y151831D01*
X145958Y152512D01*
X146426Y153276D01*
X146769Y154104D01*
X146978Y154975D01*
X147048Y155868D01*
X146978Y156761D01*
X146769Y157632D01*
X146426Y158460D01*
X145958Y159224D01*
X145376Y159905D01*
X144695Y160487D01*
X143931Y160955D01*
X143103Y161298D01*
X142232Y161507D01*
X141339Y161577D01*
Y165159D01*
X142232Y165229D01*
X143103Y165438D01*
X143931Y165781D01*
X144695Y166249D01*
X145376Y166831D01*
X145958Y167512D01*
X146426Y168276D01*
X146769Y169104D01*
X146978Y169975D01*
X147048Y170868D01*
X146978Y171761D01*
X146769Y172632D01*
X146426Y173460D01*
X145958Y174224D01*
X145376Y174905D01*
X144695Y175487D01*
X143931Y175955D01*
X143103Y176298D01*
X142232Y176507D01*
X141339Y176577D01*
Y180159D01*
X142232Y180229D01*
X143103Y180438D01*
X143931Y180781D01*
X144695Y181249D01*
X145376Y181831D01*
X145958Y182512D01*
X146426Y183276D01*
X146769Y184104D01*
X146978Y184975D01*
X147048Y185868D01*
X146978Y186761D01*
X146769Y187632D01*
X146426Y188460D01*
X145958Y189224D01*
X145376Y189905D01*
X144695Y190487D01*
X143931Y190955D01*
X143103Y191298D01*
X142232Y191507D01*
X141339Y191577D01*
Y195159D01*
X142232Y195229D01*
X143103Y195438D01*
X143931Y195781D01*
X144695Y196249D01*
X145376Y196831D01*
X145958Y197512D01*
X146426Y198276D01*
X146769Y199104D01*
X146978Y199975D01*
X147048Y200868D01*
X146978Y201761D01*
X146769Y202632D01*
X146426Y203460D01*
X145958Y204224D01*
X145376Y204905D01*
X144695Y205487D01*
X143931Y205955D01*
X143103Y206298D01*
X142232Y206507D01*
X141339Y206577D01*
Y210159D01*
X142232Y210229D01*
X143103Y210438D01*
X143931Y210781D01*
X144695Y211249D01*
X145376Y211831D01*
X145958Y212512D01*
X146426Y213276D01*
X146769Y214104D01*
X146978Y214975D01*
X147048Y215868D01*
X146978Y216761D01*
X146769Y217632D01*
X146426Y218460D01*
X145958Y219224D01*
X145376Y219905D01*
X144695Y220487D01*
X143931Y220955D01*
X143103Y221298D01*
X142232Y221507D01*
X141339Y221577D01*
Y225159D01*
X142232Y225229D01*
X143103Y225438D01*
X143931Y225781D01*
X144695Y226249D01*
X145376Y226831D01*
X145958Y227512D01*
X146426Y228276D01*
X146769Y229104D01*
X146978Y229975D01*
X147048Y230868D01*
X146978Y231761D01*
X146769Y232632D01*
X146426Y233460D01*
X145958Y234224D01*
X145376Y234905D01*
X144695Y235487D01*
X143931Y235955D01*
X143103Y236298D01*
X142232Y236507D01*
X141339Y236577D01*
Y240159D01*
X142232Y240229D01*
X143103Y240438D01*
X143931Y240781D01*
X144695Y241249D01*
X145376Y241831D01*
X145958Y242512D01*
X146426Y243276D01*
X146769Y244104D01*
X146978Y244975D01*
X147048Y245868D01*
X146978Y246761D01*
X146769Y247632D01*
X146426Y248460D01*
X145958Y249224D01*
X145376Y249905D01*
X144695Y250487D01*
X143931Y250955D01*
X143103Y251298D01*
X142232Y251507D01*
X141339Y251577D01*
Y255159D01*
X142232Y255229D01*
X143103Y255438D01*
X143931Y255781D01*
X144695Y256249D01*
X145376Y256831D01*
X145958Y257512D01*
X146426Y258276D01*
X146769Y259104D01*
X146978Y259975D01*
X147048Y260868D01*
X146978Y261761D01*
X146769Y262632D01*
X146426Y263460D01*
X145958Y264224D01*
X145376Y264905D01*
X144695Y265487D01*
X143931Y265955D01*
X143103Y266298D01*
X142232Y266507D01*
X141339Y266577D01*
Y283465D01*
G37*
G36*
Y144377D02*X130708D01*
Y149794D01*
X133865Y149800D01*
X134018Y149837D01*
X134163Y149897D01*
X134188Y149912D01*
X135093Y149007D01*
X135057Y148860D01*
X135023Y148426D01*
X135057Y147992D01*
X135159Y147569D01*
X135325Y147168D01*
X135552Y146797D01*
X135835Y146466D01*
X136166Y146183D01*
X136537Y145956D01*
X136938Y145790D01*
X137361Y145688D01*
X137795Y145654D01*
X138229Y145688D01*
X138652Y145790D01*
X139053Y145956D01*
X139424Y146183D01*
X139755Y146466D01*
X140038Y146797D01*
X140265Y147168D01*
X140431Y147569D01*
X140533Y147992D01*
X140567Y148426D01*
X140533Y148860D01*
X140431Y149283D01*
X140265Y149684D01*
X140038Y150055D01*
X139755Y150386D01*
X139741Y150398D01*
X140446Y150229D01*
X141339Y150159D01*
Y144377D01*
G37*
G36*
X130708Y283465D02*X141339D01*
Y266577D01*
X140446Y266507D01*
X139575Y266298D01*
X138747Y265955D01*
X137983Y265487D01*
X137302Y264905D01*
X136720Y264224D01*
X136252Y263460D01*
X135909Y262632D01*
X135700Y261761D01*
X135630Y260868D01*
X135700Y259975D01*
X135909Y259104D01*
X136252Y258276D01*
X136720Y257512D01*
X137302Y256831D01*
X137983Y256249D01*
X138747Y255781D01*
X139575Y255438D01*
X140446Y255229D01*
X141339Y255159D01*
Y251577D01*
X140446Y251507D01*
X139575Y251298D01*
X138747Y250955D01*
X137983Y250487D01*
X137302Y249905D01*
X136720Y249224D01*
X136252Y248460D01*
X135909Y247632D01*
X135700Y246761D01*
X135630Y245868D01*
X135700Y244975D01*
X135909Y244104D01*
X136252Y243276D01*
X136720Y242512D01*
X137302Y241831D01*
X137983Y241249D01*
X138747Y240781D01*
X139575Y240438D01*
X140446Y240229D01*
X141339Y240159D01*
Y236577D01*
X140446Y236507D01*
X139575Y236298D01*
X138747Y235955D01*
X137983Y235487D01*
X137302Y234905D01*
X136720Y234224D01*
X136252Y233460D01*
X135909Y232632D01*
X135700Y231761D01*
X135630Y230868D01*
X135700Y229975D01*
X135909Y229104D01*
X136252Y228276D01*
X136720Y227512D01*
X137302Y226831D01*
X137983Y226249D01*
X138747Y225781D01*
X139575Y225438D01*
X140446Y225229D01*
X141339Y225159D01*
Y221577D01*
X140446Y221507D01*
X139575Y221298D01*
X138747Y220955D01*
X137983Y220487D01*
X137302Y219905D01*
X136720Y219224D01*
X136252Y218460D01*
X135909Y217632D01*
X135700Y216761D01*
X135630Y215868D01*
X135700Y214975D01*
X135909Y214104D01*
X136252Y213276D01*
X136720Y212512D01*
X137302Y211831D01*
X137983Y211249D01*
X138747Y210781D01*
X139575Y210438D01*
X140446Y210229D01*
X141339Y210159D01*
Y206577D01*
X140446Y206507D01*
X139575Y206298D01*
X138747Y205955D01*
X137983Y205487D01*
X137302Y204905D01*
X136720Y204224D01*
X136252Y203460D01*
X135909Y202632D01*
X135700Y201761D01*
X135630Y200868D01*
X135700Y199975D01*
X135909Y199104D01*
X136252Y198276D01*
X136720Y197512D01*
X137302Y196831D01*
X137983Y196249D01*
X138747Y195781D01*
X139575Y195438D01*
X140446Y195229D01*
X141339Y195159D01*
Y191577D01*
X140446Y191507D01*
X139575Y191298D01*
X138747Y190955D01*
X137983Y190487D01*
X137302Y189905D01*
X136720Y189224D01*
X136252Y188460D01*
X135909Y187632D01*
X135700Y186761D01*
X135630Y185868D01*
X135700Y184975D01*
X135909Y184104D01*
X136252Y183276D01*
X136720Y182512D01*
X137302Y181831D01*
X137983Y181249D01*
X138747Y180781D01*
X139575Y180438D01*
X140446Y180229D01*
X141339Y180159D01*
Y176577D01*
X140446Y176507D01*
X139575Y176298D01*
X138747Y175955D01*
X137983Y175487D01*
X137302Y174905D01*
X136720Y174224D01*
X136252Y173460D01*
X135909Y172632D01*
X135700Y171761D01*
X135630Y170868D01*
X135700Y169975D01*
X135909Y169104D01*
X136252Y168276D01*
X136720Y167512D01*
X137302Y166831D01*
X137983Y166249D01*
X138747Y165781D01*
X139575Y165438D01*
X140446Y165229D01*
X141339Y165159D01*
Y161577D01*
X140446Y161507D01*
X139575Y161298D01*
X138747Y160955D01*
X137983Y160487D01*
X137302Y159905D01*
X136720Y159224D01*
X136252Y158460D01*
X135909Y157632D01*
X135700Y156761D01*
X135630Y155868D01*
X135700Y154975D01*
X135909Y154104D01*
X136252Y153276D01*
X136720Y152512D01*
X137302Y151831D01*
X137983Y151249D01*
X138106Y151174D01*
X137795Y151198D01*
X137361Y151164D01*
X137214Y151128D01*
X134706Y153636D01*
X134697Y161180D01*
X134660Y161333D01*
X134600Y161478D01*
X134518Y161612D01*
X134416Y161731D01*
X134297Y161833D01*
X134163Y161915D01*
X134018Y161975D01*
X133865Y162012D01*
X133709Y162024D01*
X132208Y162021D01*
Y164758D01*
X133865Y164761D01*
X134018Y164798D01*
X134163Y164858D01*
X134297Y164940D01*
X134416Y165042D01*
X134518Y165161D01*
X134600Y165295D01*
X134660Y165440D01*
X134697Y165593D01*
X134709Y165749D01*
X134697Y176141D01*
X134660Y176294D01*
X134600Y176439D01*
X134518Y176573D01*
X134416Y176692D01*
X134297Y176794D01*
X134163Y176876D01*
X134018Y176936D01*
X133865Y176973D01*
X133709Y176985D01*
X132208Y176982D01*
Y179719D01*
X133865Y179722D01*
X134018Y179759D01*
X134163Y179819D01*
X134297Y179901D01*
X134416Y180003D01*
X134518Y180122D01*
X134600Y180256D01*
X134660Y180401D01*
X134697Y180554D01*
X134709Y180710D01*
X134697Y191102D01*
X134660Y191255D01*
X134600Y191400D01*
X134518Y191534D01*
X134416Y191653D01*
X134297Y191755D01*
X134163Y191837D01*
X134018Y191897D01*
X133865Y191934D01*
X133709Y191946D01*
X132208Y191943D01*
Y194679D01*
X133865Y194682D01*
X134018Y194719D01*
X134163Y194779D01*
X134297Y194861D01*
X134416Y194963D01*
X134518Y195082D01*
X134600Y195216D01*
X134660Y195361D01*
X134697Y195514D01*
X134709Y195670D01*
X134697Y206062D01*
X134660Y206215D01*
X134600Y206360D01*
X134518Y206494D01*
X134416Y206613D01*
X134297Y206715D01*
X134163Y206797D01*
X134018Y206857D01*
X133865Y206894D01*
X133709Y206906D01*
X132208Y206903D01*
Y209640D01*
X133865Y209643D01*
X134018Y209680D01*
X134163Y209740D01*
X134297Y209822D01*
X134416Y209924D01*
X134518Y210043D01*
X134600Y210177D01*
X134660Y210322D01*
X134697Y210475D01*
X134709Y210631D01*
X134697Y221023D01*
X134660Y221176D01*
X134600Y221321D01*
X134518Y221455D01*
X134416Y221574D01*
X134297Y221676D01*
X134163Y221758D01*
X134018Y221818D01*
X133865Y221855D01*
X133709Y221867D01*
X132208Y221864D01*
Y224601D01*
X133865Y224604D01*
X134018Y224641D01*
X134163Y224701D01*
X134297Y224783D01*
X134416Y224885D01*
X134518Y225004D01*
X134600Y225138D01*
X134660Y225283D01*
X134697Y225436D01*
X134709Y225592D01*
X134697Y235984D01*
X134660Y236137D01*
X134600Y236282D01*
X134518Y236416D01*
X134416Y236535D01*
X134297Y236637D01*
X134163Y236719D01*
X134018Y236779D01*
X133865Y236816D01*
X133709Y236828D01*
X132208Y236825D01*
Y239955D01*
X133865Y239958D01*
X134018Y239995D01*
X134163Y240055D01*
X134297Y240137D01*
X134416Y240239D01*
X134518Y240358D01*
X134600Y240492D01*
X134660Y240637D01*
X134697Y240790D01*
X134709Y240946D01*
X134697Y251338D01*
X134660Y251491D01*
X134600Y251636D01*
X134518Y251770D01*
X134416Y251889D01*
X134297Y251991D01*
X134163Y252073D01*
X134018Y252133D01*
X133865Y252170D01*
X133709Y252182D01*
X132208Y252179D01*
Y254522D01*
X133865Y254525D01*
X134018Y254562D01*
X134163Y254622D01*
X134297Y254704D01*
X134416Y254806D01*
X134518Y254925D01*
X134600Y255059D01*
X134660Y255204D01*
X134697Y255357D01*
X134709Y255513D01*
X134697Y265905D01*
X134660Y266058D01*
X134600Y266203D01*
X134518Y266337D01*
X134416Y266456D01*
X134297Y266558D01*
X134163Y266640D01*
X134018Y266700D01*
X133865Y266737D01*
X133709Y266749D01*
X130708Y266743D01*
Y283465D01*
G37*
G36*
X115431D02*X130708D01*
Y266743D01*
X127553Y266737D01*
X127400Y266700D01*
X127255Y266640D01*
X127121Y266558D01*
X127002Y266456D01*
X126900Y266337D01*
X126818Y266203D01*
X126758Y266058D01*
X126721Y265905D01*
X126709Y265749D01*
X126721Y255357D01*
X126758Y255204D01*
X126818Y255059D01*
X126900Y254925D01*
X127002Y254806D01*
X127121Y254704D01*
X127255Y254622D01*
X127400Y254562D01*
X127553Y254525D01*
X127709Y254513D01*
X129209Y254516D01*
Y252173D01*
X127553Y252170D01*
X127400Y252133D01*
X127255Y252073D01*
X127121Y251991D01*
X127002Y251889D01*
X126900Y251770D01*
X126818Y251636D01*
X126758Y251491D01*
X126721Y251338D01*
X126709Y251182D01*
X126721Y240790D01*
X126758Y240637D01*
X126818Y240492D01*
X126900Y240358D01*
X127002Y240239D01*
X127121Y240137D01*
X127255Y240055D01*
X127400Y239995D01*
X127553Y239958D01*
X127709Y239946D01*
X129209Y239949D01*
Y236819D01*
X127553Y236816D01*
X127400Y236779D01*
X127255Y236719D01*
X127121Y236637D01*
X127002Y236535D01*
X126900Y236416D01*
X126818Y236282D01*
X126758Y236137D01*
X126721Y235984D01*
X126709Y235828D01*
X126721Y225436D01*
X126758Y225283D01*
X126818Y225138D01*
X126900Y225004D01*
X127002Y224885D01*
X127121Y224783D01*
X127255Y224701D01*
X127400Y224641D01*
X127553Y224604D01*
X127709Y224592D01*
X129209Y224595D01*
Y221858D01*
X127553Y221855D01*
X127400Y221818D01*
X127255Y221758D01*
X127121Y221676D01*
X127002Y221574D01*
X126900Y221455D01*
X126818Y221321D01*
X126758Y221176D01*
X126721Y221023D01*
X126709Y220867D01*
X126721Y210475D01*
X126758Y210322D01*
X126818Y210177D01*
X126900Y210043D01*
X127002Y209924D01*
X127121Y209822D01*
X127255Y209740D01*
X127400Y209680D01*
X127553Y209643D01*
X127709Y209631D01*
X129209Y209634D01*
Y206897D01*
X127553Y206894D01*
X127400Y206857D01*
X127255Y206797D01*
X127121Y206715D01*
X127002Y206613D01*
X126900Y206494D01*
X126818Y206360D01*
X126758Y206215D01*
X126721Y206062D01*
X126709Y205906D01*
X126721Y195514D01*
X126758Y195361D01*
X126818Y195216D01*
X126900Y195082D01*
X127002Y194963D01*
X127121Y194861D01*
X127255Y194779D01*
X127400Y194719D01*
X127553Y194682D01*
X127709Y194670D01*
X129209Y194673D01*
Y191937D01*
X127553Y191934D01*
X127400Y191897D01*
X127255Y191837D01*
X127121Y191755D01*
X127002Y191653D01*
X126900Y191534D01*
X126818Y191400D01*
X126758Y191255D01*
X126721Y191102D01*
X126709Y190946D01*
X126721Y180554D01*
X126758Y180401D01*
X126818Y180256D01*
X126900Y180122D01*
X127002Y180003D01*
X127121Y179901D01*
X127255Y179819D01*
X127400Y179759D01*
X127553Y179722D01*
X127709Y179710D01*
X129209Y179713D01*
Y176976D01*
X127553Y176973D01*
X127400Y176936D01*
X127255Y176876D01*
X127121Y176794D01*
X127002Y176692D01*
X126900Y176573D01*
X126818Y176439D01*
X126758Y176294D01*
X126721Y176141D01*
X126709Y175985D01*
X126721Y165593D01*
X126758Y165440D01*
X126818Y165295D01*
X126900Y165161D01*
X127002Y165042D01*
X127121Y164940D01*
X127255Y164858D01*
X127400Y164798D01*
X127553Y164761D01*
X127709Y164749D01*
X129209Y164752D01*
Y162015D01*
X127553Y162012D01*
X127400Y161975D01*
X127255Y161915D01*
X127121Y161833D01*
X127002Y161731D01*
X126900Y161612D01*
X126818Y161478D01*
X126758Y161333D01*
X126721Y161180D01*
X126709Y161024D01*
X126721Y150632D01*
X126758Y150479D01*
X126818Y150334D01*
X126900Y150200D01*
X127002Y150081D01*
X127121Y149979D01*
X127255Y149897D01*
X127400Y149837D01*
X127553Y149800D01*
X127709Y149788D01*
X130708Y149794D01*
Y144377D01*
X128628D01*
Y144839D01*
X128848Y145199D01*
X129014Y145600D01*
X129116Y146023D01*
X129150Y146457D01*
X129116Y146891D01*
X129014Y147314D01*
X128848Y147715D01*
X128621Y148086D01*
X128338Y148417D01*
X128007Y148700D01*
X127636Y148927D01*
X127235Y149093D01*
X126812Y149195D01*
X126378Y149229D01*
X125944Y149195D01*
X125521Y149093D01*
X125120Y148927D01*
X124749Y148700D01*
X124418Y148417D01*
X124135Y148086D01*
X123908Y147715D01*
X123742Y147314D01*
X123640Y146891D01*
X123606Y146457D01*
X123640Y146023D01*
X123742Y145600D01*
X123908Y145199D01*
X124127Y144841D01*
Y143742D01*
X123908Y143384D01*
X123742Y142983D01*
X123640Y142560D01*
X123606Y142126D01*
X123640Y141692D01*
X123742Y141269D01*
X123908Y140868D01*
X124135Y140497D01*
X124418Y140166D01*
X124749Y139883D01*
X125120Y139656D01*
X125521Y139490D01*
X125944Y139388D01*
X126378Y139354D01*
X126812Y139388D01*
X127235Y139490D01*
X127636Y139656D01*
X127996Y139876D01*
X130708D01*
Y133277D01*
X127552Y133271D01*
X127399Y133234D01*
X127254Y133174D01*
X127120Y133092D01*
X127001Y132990D01*
X126899Y132871D01*
X126817Y132737D01*
X126757Y132592D01*
X126720Y132439D01*
X126708Y132283D01*
X126720Y121891D01*
X126757Y121738D01*
X126817Y121593D01*
X126899Y121459D01*
X127001Y121340D01*
X127120Y121238D01*
X127254Y121156D01*
X127399Y121096D01*
X127552Y121059D01*
X127708Y121047D01*
X130708Y121053D01*
Y118316D01*
X127552Y118310D01*
X127399Y118273D01*
X127254Y118213D01*
X127120Y118131D01*
X127001Y118029D01*
X126899Y117910D01*
X126817Y117776D01*
X126757Y117631D01*
X126720Y117478D01*
X126708Y117322D01*
X126720Y107087D01*
X122988D01*
X122976Y117478D01*
X122939Y117631D01*
X122879Y117776D01*
X122797Y117910D01*
X122695Y118029D01*
X122576Y118131D01*
X122442Y118213D01*
X122297Y118273D01*
X122144Y118310D01*
X121988Y118322D01*
X116493Y118311D01*
X119235Y121053D01*
X122144Y121059D01*
X122297Y121096D01*
X122442Y121156D01*
X122576Y121238D01*
X122695Y121340D01*
X122797Y121459D01*
X122879Y121593D01*
X122939Y121738D01*
X122976Y121891D01*
X122988Y122047D01*
X122976Y132439D01*
X122939Y132592D01*
X122879Y132737D01*
X122797Y132871D01*
X122695Y132990D01*
X122576Y133092D01*
X122442Y133174D01*
X122297Y133234D01*
X122144Y133271D01*
X121988Y133283D01*
X115832Y133271D01*
X115679Y133234D01*
X115534Y133174D01*
X115431Y133111D01*
Y149961D01*
X115535Y149897D01*
X115680Y149837D01*
X115833Y149800D01*
X115989Y149788D01*
X122145Y149800D01*
X122298Y149837D01*
X122443Y149897D01*
X122577Y149979D01*
X122696Y150081D01*
X122798Y150200D01*
X122880Y150334D01*
X122940Y150479D01*
X122977Y150632D01*
X122989Y150788D01*
X122977Y161180D01*
X122940Y161333D01*
X122880Y161478D01*
X122798Y161612D01*
X122696Y161731D01*
X122577Y161833D01*
X122443Y161915D01*
X122298Y161975D01*
X122145Y162012D01*
X121989Y162024D01*
X119236Y162019D01*
X116505Y164750D01*
X122145Y164761D01*
X122298Y164798D01*
X122443Y164858D01*
X122577Y164940D01*
X122696Y165042D01*
X122798Y165161D01*
X122880Y165295D01*
X122940Y165440D01*
X122977Y165593D01*
X122989Y165749D01*
X122977Y176141D01*
X122940Y176294D01*
X122880Y176439D01*
X122798Y176573D01*
X122696Y176692D01*
X122577Y176794D01*
X122443Y176876D01*
X122298Y176936D01*
X122145Y176973D01*
X121989Y176985D01*
X115833Y176973D01*
X115680Y176936D01*
X115535Y176876D01*
X115431Y176812D01*
Y179883D01*
X115535Y179819D01*
X115680Y179759D01*
X115833Y179722D01*
X115989Y179710D01*
X122145Y179722D01*
X122298Y179759D01*
X122443Y179819D01*
X122577Y179901D01*
X122696Y180003D01*
X122798Y180122D01*
X122880Y180256D01*
X122940Y180401D01*
X122977Y180554D01*
X122989Y180710D01*
X122977Y191102D01*
X122940Y191255D01*
X122880Y191400D01*
X122798Y191534D01*
X122696Y191653D01*
X122577Y191755D01*
X122443Y191837D01*
X122298Y191897D01*
X122145Y191934D01*
X121989Y191946D01*
X116495Y191935D01*
X119236Y194676D01*
X122145Y194682D01*
X122298Y194719D01*
X122443Y194779D01*
X122577Y194861D01*
X122696Y194963D01*
X122798Y195082D01*
X122880Y195216D01*
X122940Y195361D01*
X122977Y195514D01*
X122989Y195670D01*
X122977Y206062D01*
X122940Y206215D01*
X122880Y206360D01*
X122798Y206494D01*
X122696Y206613D01*
X122577Y206715D01*
X122443Y206797D01*
X122298Y206857D01*
X122145Y206894D01*
X121989Y206906D01*
X115833Y206894D01*
X115680Y206857D01*
X115535Y206797D01*
X115431Y206733D01*
Y209804D01*
X115535Y209740D01*
X115680Y209680D01*
X115833Y209643D01*
X115989Y209631D01*
X122145Y209643D01*
X122298Y209680D01*
X122443Y209740D01*
X122577Y209822D01*
X122696Y209924D01*
X122798Y210043D01*
X122880Y210177D01*
X122940Y210322D01*
X122977Y210475D01*
X122989Y210631D01*
X122977Y221023D01*
X122940Y221176D01*
X122880Y221321D01*
X122798Y221455D01*
X122696Y221574D01*
X122577Y221676D01*
X122443Y221758D01*
X122298Y221818D01*
X122145Y221855D01*
X121989Y221867D01*
X119236Y221862D01*
X116504Y224593D01*
X122145Y224604D01*
X122298Y224641D01*
X122443Y224701D01*
X122577Y224783D01*
X122696Y224885D01*
X122798Y225004D01*
X122880Y225138D01*
X122940Y225283D01*
X122977Y225436D01*
X122989Y225592D01*
X122977Y235984D01*
X122940Y236137D01*
X122880Y236282D01*
X122798Y236416D01*
X122696Y236535D01*
X122577Y236637D01*
X122443Y236719D01*
X122298Y236779D01*
X122145Y236816D01*
X121989Y236828D01*
X115833Y236816D01*
X115680Y236779D01*
X115535Y236719D01*
X115497Y236696D01*
X115431Y236763D01*
Y240119D01*
X115535Y240055D01*
X115680Y239995D01*
X115833Y239958D01*
X115989Y239946D01*
X122145Y239958D01*
X122298Y239995D01*
X122443Y240055D01*
X122577Y240137D01*
X122696Y240239D01*
X122798Y240358D01*
X122880Y240492D01*
X122940Y240637D01*
X122977Y240790D01*
X122989Y240946D01*
X122977Y251338D01*
X122940Y251491D01*
X122880Y251636D01*
X122798Y251770D01*
X122696Y251889D01*
X122577Y251991D01*
X122443Y252073D01*
X122298Y252133D01*
X122145Y252170D01*
X121989Y252182D01*
X116495Y252171D01*
X118843Y254519D01*
X122145Y254525D01*
X122298Y254562D01*
X122443Y254622D01*
X122577Y254704D01*
X122696Y254806D01*
X122798Y254925D01*
X122880Y255059D01*
X122940Y255204D01*
X122977Y255357D01*
X122989Y255513D01*
X122977Y265905D01*
X122940Y266058D01*
X122880Y266203D01*
X122798Y266337D01*
X122696Y266456D01*
X122577Y266558D01*
X122443Y266640D01*
X122298Y266700D01*
X122145Y266737D01*
X121989Y266749D01*
X115833Y266737D01*
X115680Y266700D01*
X115535Y266640D01*
X115431Y266576D01*
Y283465D01*
G37*
G36*
Y176812D02*X115401Y176794D01*
X115282Y176692D01*
X115251Y176656D01*
X113664Y178221D01*
X113659Y178227D01*
X113652Y178233D01*
X113650Y178235D01*
X113624Y178257D01*
X113480Y178380D01*
X113473Y178384D01*
X113471Y178386D01*
X113433Y178409D01*
X113279Y178503D01*
X113235Y178521D01*
X113198Y178581D01*
X113098Y178699D01*
X113049Y178740D01*
X113098Y178782D01*
X113126Y178815D01*
X113476D01*
X113492Y178816D01*
X113711Y178832D01*
X113940Y178887D01*
X114157Y178977D01*
X114358Y179100D01*
X114537Y179253D01*
X114549Y179267D01*
X115284Y180002D01*
X115401Y179901D01*
X115431Y179883D01*
Y176812D01*
G37*
G36*
Y236763D02*X114151Y238063D01*
X114150Y238064D01*
X114144Y238071D01*
X113965Y238224D01*
X113806Y238322D01*
X113775Y238341D01*
X113771Y238343D01*
X113764Y238347D01*
X113598Y238416D01*
X113558Y238433D01*
X113555Y238434D01*
X113547Y238437D01*
X113318Y238492D01*
X113137Y238506D01*
X113128Y238507D01*
X113097Y238543D01*
X113048Y238584D01*
X113097Y238626D01*
X113128Y238662D01*
X113319Y238677D01*
X113548Y238732D01*
X113765Y238822D01*
X113966Y238945D01*
X114145Y239098D01*
X114157Y239112D01*
X115283Y240238D01*
X115401Y240137D01*
X115431Y240119D01*
Y236763D01*
G37*
G36*
X105119Y155715D02*X105134Y155906D01*
X105119Y156097D01*
Y165439D01*
X105166Y165516D01*
X105248Y165716D01*
X105299Y165926D01*
X105316Y166142D01*
X105315Y166155D01*
Y172205D01*
X105863Y172207D01*
X106013Y172243D01*
X106156Y172302D01*
X106287Y172383D01*
X106405Y172483D01*
X106505Y172601D01*
X106586Y172732D01*
X106645Y172875D01*
X106681Y173025D01*
X106693Y173179D01*
X106681Y175007D01*
X106645Y175157D01*
X106586Y175300D01*
X106505Y175431D01*
X106405Y175549D01*
X106355Y175591D01*
X106405Y175633D01*
X106505Y175751D01*
X106586Y175882D01*
X106645Y176025D01*
X106681Y176175D01*
X106693Y176329D01*
X106681Y178157D01*
X106645Y178307D01*
X106586Y178450D01*
X106505Y178581D01*
X106405Y178699D01*
X106356Y178740D01*
X106405Y178782D01*
X106505Y178900D01*
X106586Y179031D01*
X106645Y179174D01*
X106681Y179324D01*
X106693Y179478D01*
X106681Y181306D01*
X106645Y181456D01*
X106586Y181599D01*
X106505Y181730D01*
X106405Y181848D01*
X106355Y181890D01*
X106405Y181932D01*
X106505Y182050D01*
X106586Y182181D01*
X106645Y182324D01*
X106681Y182474D01*
X106693Y182628D01*
X106681Y184456D01*
X106645Y184606D01*
X106586Y184749D01*
X106505Y184880D01*
X106405Y184998D01*
X106287Y185098D01*
X106156Y185179D01*
X106013Y185238D01*
X105863Y185274D01*
X105709Y185286D01*
X105437Y185285D01*
Y188978D01*
X105419Y189212D01*
X105364Y189441D01*
X105274Y189658D01*
X105151Y189859D01*
X105119Y189896D01*
Y191020D01*
X105354Y191038D01*
X105583Y191093D01*
X105800Y191183D01*
X106001Y191306D01*
X106180Y191459D01*
X106333Y191638D01*
X106456Y191839D01*
X106546Y192056D01*
X106601Y192285D01*
X106619Y192520D01*
X106601Y192755D01*
X106546Y192984D01*
X106456Y193201D01*
X106333Y193402D01*
X106180Y193581D01*
X106001Y193734D01*
X105800Y193857D01*
X105583Y193947D01*
X105354Y194002D01*
X105119Y194020D01*
Y200597D01*
X105134Y200788D01*
X105119Y200979D01*
Y214315D01*
X105226Y214490D01*
X105392Y214891D01*
X105494Y215314D01*
X105528Y215748D01*
X105494Y216182D01*
X105425Y216469D01*
X106092Y217137D01*
X106234Y217301D01*
X106347Y217485D01*
X106429Y217685D01*
X106480Y217895D01*
X106497Y218111D01*
X106496Y218124D01*
Y232436D01*
X106504Y232445D01*
X106585Y232576D01*
X106644Y232719D01*
X106680Y232869D01*
X106692Y233023D01*
X106680Y234851D01*
X106644Y235001D01*
X106585Y235144D01*
X106504Y235275D01*
X106404Y235393D01*
X106354Y235435D01*
X106404Y235477D01*
X106504Y235595D01*
X106585Y235726D01*
X106644Y235869D01*
X106680Y236019D01*
X106692Y236173D01*
X106680Y238001D01*
X106644Y238151D01*
X106585Y238294D01*
X106504Y238425D01*
X106404Y238543D01*
X106355Y238584D01*
X106404Y238626D01*
X106504Y238744D01*
X106585Y238875D01*
X106644Y239018D01*
X106680Y239168D01*
X106692Y239322D01*
X106680Y241150D01*
X106644Y241300D01*
X106585Y241443D01*
X106504Y241574D01*
X106404Y241692D01*
X106354Y241734D01*
X106404Y241776D01*
X106504Y241894D01*
X106585Y242025D01*
X106644Y242168D01*
X106680Y242318D01*
X106692Y242472D01*
X106680Y244300D01*
X106644Y244450D01*
X106585Y244593D01*
X106504Y244724D01*
X106404Y244842D01*
X106286Y244942D01*
X106155Y245023D01*
X106012Y245082D01*
X105862Y245118D01*
X105708Y245130D01*
X105437Y245129D01*
Y249214D01*
X105420Y249448D01*
X105365Y249677D01*
X105274Y249894D01*
X105151Y250095D01*
X105119Y250132D01*
Y257071D01*
X105552Y257105D01*
X105975Y257207D01*
X106376Y257373D01*
X106747Y257600D01*
X107078Y257883D01*
X107361Y258214D01*
X107588Y258585D01*
X107754Y258986D01*
X107856Y259409D01*
X107890Y259843D01*
X107856Y260277D01*
X107754Y260700D01*
X107588Y261101D01*
X107361Y261472D01*
X107078Y261803D01*
X106747Y262086D01*
X106376Y262313D01*
X105975Y262479D01*
X105552Y262581D01*
X105119Y262615D01*
Y263168D01*
X105257Y263286D01*
X105839Y263967D01*
X106307Y264731D01*
X106650Y265559D01*
X106859Y266430D01*
X106929Y267323D01*
X106859Y268216D01*
X106650Y269087D01*
X106307Y269915D01*
X105839Y270679D01*
X105257Y271360D01*
X105119Y271478D01*
Y283465D01*
X115431D01*
Y266576D01*
X115401Y266558D01*
X115282Y266456D01*
X115180Y266337D01*
X115098Y266203D01*
X115038Y266058D01*
X115001Y265905D01*
X114989Y265749D01*
X115001Y255357D01*
X115038Y255204D01*
X115098Y255059D01*
X115114Y255032D01*
X113112Y253030D01*
X112959Y252851D01*
X112836Y252650D01*
X112746Y252433D01*
X112691Y252204D01*
X112673Y251969D01*
Y245090D01*
X112555Y245118D01*
X112401Y245130D01*
X108703Y245118D01*
X108553Y245082D01*
X108410Y245023D01*
X108279Y244942D01*
X108161Y244842D01*
X108061Y244724D01*
X107980Y244593D01*
X107921Y244450D01*
X107885Y244300D01*
X107873Y244146D01*
X107885Y242318D01*
X107921Y242168D01*
X107980Y242025D01*
X108061Y241894D01*
X108161Y241776D01*
X108211Y241734D01*
X108161Y241692D01*
X108061Y241574D01*
X107980Y241443D01*
X107921Y241300D01*
X107885Y241150D01*
X107873Y240996D01*
X107885Y239168D01*
X107921Y239018D01*
X107980Y238875D01*
X108061Y238744D01*
X108161Y238626D01*
X108210Y238585D01*
X108161Y238543D01*
X108061Y238425D01*
X107980Y238294D01*
X107921Y238151D01*
X107885Y238001D01*
X107873Y237847D01*
X107885Y236019D01*
X107921Y235869D01*
X107980Y235726D01*
X108061Y235595D01*
X108161Y235477D01*
X108211Y235435D01*
X108161Y235393D01*
X108061Y235275D01*
X107980Y235144D01*
X107921Y235001D01*
X107885Y234851D01*
X107873Y234697D01*
X107885Y232869D01*
X107921Y232719D01*
X107980Y232576D01*
X108061Y232445D01*
X108161Y232327D01*
X108279Y232227D01*
X108410Y232146D01*
X108553Y232087D01*
X108703Y232051D01*
X108857Y232039D01*
X112555Y232051D01*
X112673Y232079D01*
Y224803D01*
X112691Y224568D01*
X112746Y224339D01*
X112836Y224122D01*
X112959Y223921D01*
X113112Y223742D01*
X113119Y223736D01*
X115282Y221574D01*
X115180Y221455D01*
X115098Y221321D01*
X115038Y221176D01*
X115001Y221023D01*
X114989Y220867D01*
X115001Y210475D01*
X115038Y210322D01*
X115098Y210177D01*
X115180Y210043D01*
X115282Y209924D01*
X115401Y209822D01*
X115431Y209804D01*
Y206733D01*
X115401Y206715D01*
X115282Y206613D01*
X115180Y206494D01*
X115098Y206360D01*
X115038Y206215D01*
X115001Y206062D01*
X114989Y205906D01*
X115001Y195514D01*
X115038Y195361D01*
X115098Y195216D01*
X115180Y195082D01*
X115282Y194964D01*
X113112Y192794D01*
X112959Y192615D01*
X112836Y192414D01*
X112746Y192197D01*
X112691Y191968D01*
X112673Y191733D01*
Y185246D01*
X112556Y185274D01*
X112402Y185286D01*
X108704Y185274D01*
X108554Y185238D01*
X108411Y185179D01*
X108280Y185098D01*
X108162Y184998D01*
X108062Y184880D01*
X107981Y184749D01*
X107922Y184606D01*
X107886Y184456D01*
X107874Y184302D01*
X107886Y182474D01*
X107922Y182324D01*
X107981Y182181D01*
X108062Y182050D01*
X108162Y181932D01*
X108212Y181890D01*
X108162Y181848D01*
X108062Y181730D01*
X107981Y181599D01*
X107922Y181456D01*
X107886Y181306D01*
X107874Y181152D01*
X107886Y179324D01*
X107922Y179174D01*
X107981Y179031D01*
X108062Y178900D01*
X108162Y178782D01*
X108211Y178741D01*
X108162Y178699D01*
X108062Y178581D01*
X107981Y178450D01*
X107922Y178307D01*
X107886Y178157D01*
X107874Y178003D01*
X107886Y176175D01*
X107922Y176025D01*
X107981Y175882D01*
X108062Y175751D01*
X108162Y175633D01*
X108212Y175591D01*
X108162Y175549D01*
X108062Y175431D01*
X107981Y175300D01*
X107922Y175157D01*
X107886Y175007D01*
X107874Y174853D01*
X107886Y173025D01*
X107922Y172875D01*
X107981Y172732D01*
X108062Y172601D01*
X108162Y172483D01*
X108280Y172383D01*
X108411Y172302D01*
X108554Y172243D01*
X108704Y172207D01*
X108858Y172195D01*
X112556Y172207D01*
X112656Y172231D01*
X112673Y172214D01*
Y164961D01*
X112691Y164726D01*
X112746Y164497D01*
X112836Y164280D01*
X112959Y164079D01*
X113112Y163900D01*
X113119Y163894D01*
X115282Y161731D01*
X115180Y161612D01*
X115098Y161478D01*
X115038Y161333D01*
X115001Y161180D01*
X114989Y161024D01*
X115001Y150632D01*
X115038Y150479D01*
X115098Y150334D01*
X115180Y150200D01*
X115282Y150081D01*
X115401Y149979D01*
X115431Y149961D01*
Y133111D01*
X115400Y133092D01*
X115281Y132990D01*
X115179Y132871D01*
X115097Y132737D01*
X115037Y132592D01*
X115000Y132439D01*
X114988Y132283D01*
X115000Y121891D01*
X115037Y121738D01*
X115097Y121593D01*
X115179Y121459D01*
X115281Y121341D01*
X113112Y119172D01*
X112959Y118993D01*
X112836Y118792D01*
X112745Y118575D01*
X112690Y118346D01*
X112672Y118111D01*
Y111228D01*
X112553Y111257D01*
X112399Y111269D01*
X108701Y111257D01*
X108551Y111221D01*
X108408Y111162D01*
X108277Y111081D01*
X108159Y110981D01*
X108059Y110863D01*
X107978Y110732D01*
X107919Y110589D01*
X107883Y110439D01*
X107871Y110285D01*
X107883Y108457D01*
X107919Y108307D01*
X107978Y108164D01*
X108059Y108033D01*
X108159Y107915D01*
X108209Y107873D01*
X108159Y107831D01*
X108059Y107713D01*
X107978Y107582D01*
X107919Y107439D01*
X107883Y107289D01*
X107871Y107135D01*
Y107087D01*
X106679D01*
X106678Y107289D01*
X106642Y107439D01*
X106583Y107582D01*
X106502Y107713D01*
X106402Y107831D01*
X106352Y107873D01*
X106402Y107915D01*
X106502Y108033D01*
X106583Y108164D01*
X106642Y108307D01*
X106678Y108457D01*
X106690Y108611D01*
X106678Y110439D01*
X106642Y110589D01*
X106583Y110732D01*
X106502Y110863D01*
X106402Y110981D01*
X106284Y111081D01*
X106153Y111162D01*
X106010Y111221D01*
X105860Y111257D01*
X105706Y111269D01*
X105119Y111267D01*
Y155715D01*
G37*
G36*
Y271478D02*X104576Y271942D01*
X103812Y272410D01*
X102984Y272753D01*
X102113Y272962D01*
X101220Y273032D01*
X100327Y272962D01*
X99456Y272753D01*
X98628Y272410D01*
X97864Y271942D01*
X97183Y271360D01*
X96601Y270679D01*
X96133Y269915D01*
X95790Y269087D01*
X95581Y268216D01*
X95511Y267323D01*
X95581Y266430D01*
X95790Y265559D01*
X96133Y264731D01*
X96601Y263967D01*
X97183Y263286D01*
X97864Y262704D01*
X98628Y262236D01*
X99456Y261893D01*
X100327Y261684D01*
X101220Y261614D01*
X102113Y261684D01*
X102984Y261893D01*
X103571Y262136D01*
X103489Y262086D01*
X103158Y261803D01*
X102875Y261472D01*
X102648Y261101D01*
X102482Y260700D01*
X102380Y260277D01*
X102346Y259843D01*
X102380Y259409D01*
X102415Y259262D01*
X100514Y257361D01*
X100361Y257182D01*
X100238Y256981D01*
X100147Y256764D01*
X100092Y256535D01*
X100074Y256300D01*
Y253741D01*
X98832D01*
X98819Y253742D01*
X98603Y253725D01*
X98393Y253674D01*
X98193Y253592D01*
X98009Y253479D01*
X97844Y253338D01*
X95276Y250770D01*
Y283465D01*
X105119D01*
Y271478D01*
G37*
G36*
Y262615D02*X105118D01*
X104684Y262581D01*
X104261Y262479D01*
X104100Y262412D01*
X104576Y262704D01*
X105119Y263168D01*
Y262615D01*
G37*
G36*
Y250132D02*X104998Y250274D01*
X104991Y250280D01*
X103075Y252196D01*
Y255680D01*
X104536Y257141D01*
X104684Y257105D01*
X105118Y257071D01*
X105119D01*
Y250132D01*
G37*
G36*
Y200979D02*X105100Y201222D01*
X104998Y201645D01*
X104832Y202046D01*
X104605Y202417D01*
X104322Y202748D01*
X103991Y203031D01*
X103620Y203258D01*
X103219Y203424D01*
X102796Y203526D01*
X102362Y203560D01*
X101928Y203526D01*
X101505Y203424D01*
X101104Y203258D01*
X100733Y203031D01*
X100591Y202910D01*
Y211635D01*
X102035Y213079D01*
X102322Y213010D01*
X102756Y212976D01*
X103190Y213010D01*
X103613Y213112D01*
X104014Y213278D01*
X104385Y213505D01*
X104716Y213788D01*
X104999Y214119D01*
X105119Y214315D01*
Y200979D01*
G37*
G36*
Y189896D02*X104998Y190038D01*
X104991Y190044D01*
X103469Y191566D01*
Y198255D01*
X103620Y198318D01*
X103991Y198545D01*
X104322Y198828D01*
X104605Y199159D01*
X104832Y199530D01*
X104998Y199931D01*
X105100Y200354D01*
X105119Y200597D01*
Y194020D01*
X105118D01*
X104883Y194002D01*
X104654Y193947D01*
X104437Y193857D01*
X104236Y193734D01*
X104057Y193581D01*
X103904Y193402D01*
X103781Y193201D01*
X103691Y192984D01*
X103636Y192755D01*
X103618Y192520D01*
X103636Y192285D01*
X103691Y192056D01*
X103781Y191839D01*
X103904Y191638D01*
X104057Y191459D01*
X104236Y191306D01*
X104437Y191183D01*
X104654Y191093D01*
X104883Y191038D01*
X105118Y191020D01*
X105119D01*
Y189896D01*
G37*
G36*
Y156097D02*X105100Y156340D01*
X104998Y156763D01*
X104832Y157164D01*
X104605Y157535D01*
X104322Y157866D01*
X103991Y158149D01*
X103740Y158303D01*
Y161026D01*
X103739Y161041D01*
X103724Y161241D01*
X103674Y161451D01*
X103591Y161651D01*
X103478Y161836D01*
X103347Y161988D01*
Y163604D01*
X104911Y165168D01*
X105053Y165332D01*
X105119Y165439D01*
Y156097D01*
G37*
G36*
X97834Y109273D02*X103336Y114775D01*
X103478Y114939D01*
X103591Y115123D01*
X103673Y115323D01*
X103724Y115533D01*
X103741Y115749D01*
X103740Y115762D01*
Y153509D01*
X103991Y153663D01*
X104322Y153946D01*
X104605Y154277D01*
X104832Y154648D01*
X104998Y155049D01*
X105100Y155472D01*
X105119Y155715D01*
Y111267D01*
X102008Y111257D01*
X101858Y111221D01*
X101715Y111162D01*
X101584Y111081D01*
X101466Y110981D01*
X101438Y110948D01*
X100392D01*
X100157Y110930D01*
X99928Y110875D01*
X99711Y110785D01*
X99510Y110662D01*
X99331Y110509D01*
X97834Y109012D01*
Y109273D01*
G37*
G36*
X68110Y246851D02*Y243443D01*
X67951Y243541D01*
X67625Y243676D01*
X67282Y243759D01*
X66930Y243786D01*
X66578Y243759D01*
X66235Y243676D01*
X65908Y243541D01*
X65607Y243357D01*
X65339Y243128D01*
X65110Y242860D01*
X64925Y242559D01*
X64790Y242233D01*
X64707Y241890D01*
X64680Y241538D01*
X64707Y241186D01*
X64790Y240843D01*
X64910Y240552D01*
X44348D01*
X44342Y243826D01*
X44305Y243979D01*
X44245Y244124D01*
X44163Y244258D01*
X44061Y244377D01*
X43942Y244479D01*
X43808Y244561D01*
X43663Y244621D01*
X43510Y244658D01*
X43354Y244670D01*
X37198Y244658D01*
X37045Y244621D01*
X36900Y244561D01*
X36766Y244479D01*
X36647Y244377D01*
X36545Y244258D01*
X36463Y244124D01*
X36403Y243979D01*
X36366Y243826D01*
X36354Y243670D01*
X36360Y240552D01*
X34767D01*
Y241741D01*
X34913Y241831D01*
X35247Y242116D01*
X35532Y242450D01*
X35762Y242825D01*
X35930Y243231D01*
X36033Y243658D01*
X36067Y244096D01*
X36033Y244534D01*
X35930Y244961D01*
X35762Y245367D01*
X35532Y245742D01*
X35247Y246076D01*
X35173Y246139D01*
X51347D01*
X51885Y245601D01*
X51891Y245594D01*
X52070Y245441D01*
X52271Y245318D01*
X52488Y245228D01*
X52717Y245173D01*
X52952Y245155D01*
X58865D01*
X58955Y245009D01*
X59240Y244675D01*
X59574Y244390D01*
X59949Y244160D01*
X60355Y243992D01*
X60782Y243889D01*
X61220Y243855D01*
X61658Y243889D01*
X62085Y243992D01*
X62491Y244160D01*
X62866Y244390D01*
X63200Y244675D01*
X63485Y245009D01*
X63715Y245384D01*
X63883Y245790D01*
X63986Y246217D01*
X64020Y246655D01*
X64005Y246851D01*
X68110D01*
G37*
G36*
X15417Y142038D02*X15431Y142050D01*
X15584Y142229D01*
X15707Y142430D01*
X15797Y142647D01*
X15852Y142876D01*
X15870Y143111D01*
Y155717D01*
X16016Y155807D01*
X16350Y156092D01*
X16635Y156426D01*
X16865Y156801D01*
X17033Y157207D01*
X17037Y157222D01*
X17049Y157208D01*
X17056Y157202D01*
X21728Y152530D01*
Y149600D01*
X21582Y149510D01*
X21248Y149225D01*
X20963Y148891D01*
X20733Y148516D01*
X20565Y148110D01*
X20462Y147683D01*
X20428Y147245D01*
X20462Y146807D01*
X20565Y146380D01*
X20733Y145974D01*
X20963Y145599D01*
X21248Y145265D01*
X21582Y144980D01*
X21957Y144750D01*
X22363Y144582D01*
X22790Y144479D01*
X23228Y144445D01*
X23666Y144479D01*
X24093Y144582D01*
X24499Y144750D01*
X24874Y144980D01*
X25208Y145265D01*
X25493Y145599D01*
X25664Y145878D01*
Y145110D01*
X23832Y143278D01*
X23666Y143318D01*
X23228Y143352D01*
X22790Y143318D01*
X22363Y143215D01*
X21957Y143047D01*
X21582Y142817D01*
X21248Y142532D01*
X20963Y142198D01*
X20733Y141823D01*
X20565Y141417D01*
X20462Y140990D01*
X20428Y140552D01*
X20462Y140114D01*
X20565Y139687D01*
X20733Y139281D01*
X20963Y138906D01*
X21248Y138572D01*
X21582Y138287D01*
X21957Y138057D01*
X22363Y137889D01*
X22790Y137786D01*
X23228Y137752D01*
X23666Y137786D01*
X24093Y137889D01*
X24499Y138057D01*
X24874Y138287D01*
X25208Y138572D01*
X25493Y138906D01*
X25723Y139281D01*
X25891Y139687D01*
X25994Y140114D01*
X26028Y140552D01*
X25994Y140990D01*
X25954Y141158D01*
X27829Y143033D01*
Y142915D01*
X27848Y142680D01*
X27903Y142451D01*
X27993Y142234D01*
X28116Y142033D01*
X28269Y141854D01*
X28345Y141789D01*
X30046Y140088D01*
X30225Y139935D01*
X30425Y139813D01*
X30641Y139723D01*
X30869Y139669D01*
X31103Y139650D01*
X31115Y139651D01*
X33661D01*
X33894Y139669D01*
X34122Y139724D01*
X34338Y139814D01*
X34538Y139936D01*
X34716Y140088D01*
X36357Y141729D01*
X36403Y141147D01*
X36550Y140537D01*
X36790Y139957D01*
X37118Y139422D01*
X37526Y138945D01*
X38003Y138537D01*
X38538Y138209D01*
X39118Y137969D01*
X39728Y137822D01*
X40354Y137773D01*
X40980Y137822D01*
X41590Y137969D01*
X42170Y138209D01*
X42705Y138537D01*
X43182Y138945D01*
X43590Y139422D01*
X43918Y139957D01*
X44114Y140430D01*
X48763D01*
X48538Y140337D01*
X48003Y140009D01*
X47526Y139601D01*
X47118Y139124D01*
X46790Y138589D01*
X46550Y138009D01*
X46403Y137399D01*
X46354Y136773D01*
X46403Y136147D01*
X46550Y135537D01*
X46790Y134957D01*
X47118Y134422D01*
X47526Y133945D01*
X48003Y133537D01*
X48538Y133209D01*
X48871Y133071D01*
X22629D01*
X22392Y134060D01*
X21947Y135133D01*
X21341Y136123D01*
X20587Y137006D01*
X19704Y137760D01*
X18714Y138366D01*
X17641Y138811D01*
X16512Y139082D01*
X15354Y139173D01*
X14196Y139082D01*
X13067Y138811D01*
X11994Y138366D01*
X11351Y137972D01*
X15417Y142038D01*
G37*
G36*
X47074Y223391D02*X47118Y223319D01*
X47526Y222842D01*
X48003Y222434D01*
X48538Y222106D01*
X49118Y221866D01*
X49728Y221719D01*
X50354Y221670D01*
X50980Y221719D01*
X51096Y221747D01*
X51969Y220874D01*
Y219327D01*
X51905Y219357D01*
X51565Y219482D01*
X51216Y219576D01*
X50860Y219638D01*
X50499Y219668D01*
X50138Y219665D01*
X49778Y219629D01*
X49423Y219561D01*
X49075Y219461D01*
X48738Y219330D01*
X48414Y219169D01*
X48349Y219127D01*
X48291Y219074D01*
X48243Y219012D01*
X48204Y218944D01*
X48176Y218871D01*
X48160Y218794D01*
X48157Y218715D01*
X48166Y218637D01*
X48187Y218561D01*
X48219Y218490D01*
X48262Y218424D01*
X48315Y218366D01*
X48377Y218318D01*
X48445Y218279D01*
X48518Y218251D01*
X48595Y218235D01*
X48674Y218232D01*
X48752Y218241D01*
X48828Y218262D01*
X48899Y218294D01*
X49142Y218415D01*
X49395Y218513D01*
X49655Y218588D01*
X49922Y218639D01*
X50192Y218666D01*
X50463Y218669D01*
X50733Y218646D01*
X51000Y218600D01*
X51262Y218529D01*
X51517Y218436D01*
X51762Y218319D01*
X51835Y218289D01*
X51911Y218269D01*
X51969Y218264D01*
Y213102D01*
X51955Y213100D01*
X51879Y213079D01*
X51808Y213047D01*
X51565Y212926D01*
X51312Y212828D01*
X51052Y212753D01*
X50785Y212702D01*
X50515Y212675D01*
X50244Y212672D01*
X49974Y212695D01*
X49707Y212741D01*
X49445Y212812D01*
X49190Y212905D01*
X48945Y213022D01*
X48872Y213052D01*
X48796Y213072D01*
X48718Y213079D01*
X48640Y213074D01*
X48564Y213057D01*
X48491Y213029D01*
X48423Y212989D01*
X48363Y212939D01*
X48311Y212880D01*
X48269Y212814D01*
X48238Y212742D01*
X48218Y212666D01*
X48211Y212588D01*
X48216Y212510D01*
X48233Y212434D01*
X48261Y212361D01*
X48292Y212308D01*
X47958Y212202D01*
X47384Y211965D01*
X47074Y211803D01*
Y213524D01*
X47080Y213521D01*
X47153Y213493D01*
X47230Y213477D01*
X47309Y213474D01*
X47387Y213483D01*
X47463Y213504D01*
X47534Y213536D01*
X47600Y213579D01*
X47658Y213632D01*
X47706Y213694D01*
X47745Y213762D01*
X47773Y213835D01*
X47789Y213912D01*
X47792Y213991D01*
X47783Y214069D01*
X47762Y214145D01*
X47730Y214216D01*
X47609Y214459D01*
X47511Y214712D01*
X47436Y214972D01*
X47385Y215239D01*
X47358Y215509D01*
X47355Y215780D01*
X47378Y216050D01*
X47424Y216317D01*
X47495Y216579D01*
X47588Y216834D01*
X47705Y217079D01*
X47735Y217152D01*
X47755Y217228D01*
X47762Y217306D01*
X47757Y217384D01*
X47740Y217460D01*
X47712Y217533D01*
X47672Y217601D01*
X47622Y217661D01*
X47563Y217713D01*
X47497Y217755D01*
X47425Y217786D01*
X47349Y217806D01*
X47271Y217813D01*
X47193Y217808D01*
X47117Y217791D01*
X47074Y217775D01*
Y223391D01*
G37*
G36*
X43633Y226515D02*X46396Y225134D01*
X46403Y225044D01*
X46550Y224434D01*
X46790Y223854D01*
X47074Y223391D01*
Y217775D01*
X47044Y217763D01*
X46976Y217723D01*
X46916Y217673D01*
X46864Y217614D01*
X46822Y217548D01*
X46667Y217222D01*
X46542Y216882D01*
X46448Y216533D01*
X46386Y216177D01*
X46356Y215816D01*
X46359Y215455D01*
X46395Y215095D01*
X46463Y214740D01*
X46563Y214392D01*
X46694Y214055D01*
X46855Y213731D01*
X46897Y213666D01*
X46950Y213608D01*
X47012Y213560D01*
X47074Y213524D01*
Y211803D01*
X46834Y211678D01*
X46310Y211344D01*
X45817Y210966D01*
X45359Y210547D01*
X44940Y210089D01*
X44562Y209596D01*
X44228Y209072D01*
X43941Y208522D01*
X43704Y207948D01*
X43633Y207723D01*
Y208389D01*
X43918Y208854D01*
X44158Y209434D01*
X44305Y210044D01*
X44354Y210670D01*
X44305Y211296D01*
X44158Y211906D01*
X43918Y212486D01*
X43633Y212951D01*
Y218566D01*
X43663Y218578D01*
X43731Y218618D01*
X43791Y218668D01*
X43843Y218727D01*
X43885Y218793D01*
X44040Y219119D01*
X44165Y219459D01*
X44259Y219808D01*
X44321Y220164D01*
X44351Y220525D01*
X44348Y220886D01*
X44312Y221246D01*
X44244Y221601D01*
X44144Y221949D01*
X44013Y222286D01*
X43852Y222610D01*
X43810Y222675D01*
X43757Y222733D01*
X43695Y222781D01*
X43633Y222817D01*
Y226515D01*
G37*
G36*
Y207723D02*X43517Y207356D01*
X43428Y206953D01*
X43348Y206947D01*
X43005Y206865D01*
X42679Y206730D01*
X42377Y206545D01*
X42109Y206316D01*
X40822Y205029D01*
X40389Y205133D01*
X40354Y205136D01*
Y206670D01*
X40980Y206719D01*
X41590Y206866D01*
X42170Y207106D01*
X42705Y207434D01*
X43182Y207842D01*
X43590Y208319D01*
X43633Y208389D01*
Y207723D01*
G37*
G36*
X40354Y226670D02*X40980Y226719D01*
X41590Y226866D01*
X42170Y227106D01*
X42296Y227184D01*
X43633Y226515D01*
Y222817D01*
X43627Y222820D01*
X43554Y222848D01*
X43477Y222864D01*
X43398Y222867D01*
X43320Y222858D01*
X43244Y222837D01*
X43173Y222805D01*
X43107Y222762D01*
X43049Y222709D01*
X43001Y222647D01*
X42962Y222579D01*
X42934Y222506D01*
X42918Y222429D01*
X42915Y222350D01*
X42924Y222272D01*
X42945Y222196D01*
X42977Y222125D01*
X43098Y221882D01*
X43196Y221629D01*
X43271Y221369D01*
X43322Y221102D01*
X43349Y220832D01*
X43352Y220561D01*
X43329Y220291D01*
X43283Y220024D01*
X43212Y219762D01*
X43119Y219507D01*
X43002Y219262D01*
X42972Y219189D01*
X42952Y219113D01*
X42945Y219035D01*
X42950Y218957D01*
X42967Y218881D01*
X42995Y218808D01*
X43035Y218740D01*
X43085Y218680D01*
X43144Y218628D01*
X43210Y218586D01*
X43282Y218555D01*
X43358Y218535D01*
X43436Y218528D01*
X43514Y218533D01*
X43590Y218550D01*
X43633Y218566D01*
Y212951D01*
X43590Y213021D01*
X43182Y213498D01*
X42705Y213906D01*
X42170Y214234D01*
X41590Y214474D01*
X40980Y214621D01*
X40354Y214670D01*
Y216674D01*
X40569Y216676D01*
X40929Y216712D01*
X41284Y216780D01*
X41632Y216880D01*
X41969Y217011D01*
X42293Y217172D01*
X42358Y217214D01*
X42416Y217267D01*
X42464Y217329D01*
X42503Y217397D01*
X42531Y217470D01*
X42547Y217547D01*
X42550Y217626D01*
X42541Y217704D01*
X42520Y217780D01*
X42488Y217851D01*
X42445Y217917D01*
X42392Y217975D01*
X42330Y218023D01*
X42262Y218062D01*
X42189Y218090D01*
X42112Y218106D01*
X42033Y218109D01*
X41955Y218100D01*
X41879Y218079D01*
X41808Y218047D01*
X41565Y217926D01*
X41312Y217828D01*
X41052Y217753D01*
X40785Y217702D01*
X40515Y217675D01*
X40354Y217673D01*
Y223668D01*
X40463Y223669D01*
X40733Y223646D01*
X41000Y223600D01*
X41262Y223529D01*
X41517Y223436D01*
X41762Y223319D01*
X41835Y223289D01*
X41911Y223269D01*
X41989Y223262D01*
X42067Y223267D01*
X42143Y223284D01*
X42216Y223312D01*
X42284Y223352D01*
X42344Y223402D01*
X42396Y223461D01*
X42438Y223527D01*
X42469Y223599D01*
X42489Y223675D01*
X42496Y223753D01*
X42491Y223831D01*
X42474Y223907D01*
X42446Y223980D01*
X42406Y224048D01*
X42356Y224108D01*
X42297Y224160D01*
X42231Y224202D01*
X41905Y224357D01*
X41565Y224482D01*
X41216Y224576D01*
X40860Y224638D01*
X40499Y224668D01*
X40354Y224667D01*
Y226670D01*
G37*
G36*
X51969Y245527D02*Y239317D01*
X51590Y239474D01*
X50980Y239621D01*
X50354Y239670D01*
X49728Y239621D01*
X49118Y239474D01*
X48538Y239234D01*
X48003Y238906D01*
X47526Y238498D01*
X47118Y238021D01*
X46790Y237486D01*
X46550Y236906D01*
X46403Y236296D01*
X46354Y235670D01*
X46403Y235044D01*
X46550Y234434D01*
X46790Y233854D01*
X47118Y233319D01*
X47526Y232842D01*
X48003Y232434D01*
X48538Y232106D01*
X49118Y231866D01*
X49728Y231719D01*
X50354Y231670D01*
X50980Y231719D01*
X51590Y231866D01*
X51969Y232023D01*
Y229317D01*
X51590Y229474D01*
X50980Y229621D01*
X50354Y229670D01*
X49728Y229621D01*
X49118Y229474D01*
X48538Y229234D01*
X48412Y229157D01*
X44312Y231207D01*
X44305Y231296D01*
X44158Y231906D01*
X43918Y232486D01*
X43590Y233021D01*
X43182Y233498D01*
X42705Y233906D01*
X42170Y234234D01*
X41590Y234474D01*
X40980Y234621D01*
X40354Y234670D01*
Y236676D01*
X43510Y236682D01*
X43663Y236719D01*
X43808Y236779D01*
X43942Y236861D01*
X44061Y236963D01*
X44163Y237082D01*
X44245Y237216D01*
X44305Y237361D01*
X44342Y237514D01*
X44354Y237670D01*
X44342Y243826D01*
X44305Y243979D01*
X44245Y244124D01*
X44163Y244258D01*
X44061Y244377D01*
X43942Y244479D01*
X43808Y244561D01*
X43663Y244621D01*
X43510Y244658D01*
X43354Y244670D01*
X40354Y244664D01*
Y245670D01*
X51816D01*
X51885Y245601D01*
X51891Y245594D01*
X51969Y245527D01*
G37*
G36*
X40354Y205136D02*X39763Y205182D01*
X39137Y205133D01*
X38527Y204986D01*
X37947Y204746D01*
X37412Y204418D01*
X36935Y204010D01*
X36527Y203533D01*
X36199Y202998D01*
X36099Y202756D01*
X34446D01*
X38771Y207010D01*
X39118Y206866D01*
X39728Y206719D01*
X40354Y206670D01*
Y205136D01*
G37*
G36*
X37074Y245670D02*X40354D01*
Y244664D01*
X37198Y244658D01*
X37074Y244628D01*
Y245670D01*
G37*
G36*
Y228391D02*X37118Y228319D01*
X37526Y227842D01*
X38003Y227434D01*
X38538Y227106D01*
X39118Y226866D01*
X39728Y226719D01*
X40354Y226670D01*
Y224667D01*
X40138Y224665D01*
X39778Y224629D01*
X39423Y224561D01*
X39075Y224461D01*
X38738Y224330D01*
X38414Y224169D01*
X38349Y224127D01*
X38291Y224074D01*
X38243Y224012D01*
X38204Y223944D01*
X38176Y223871D01*
X38160Y223794D01*
X38157Y223715D01*
X38166Y223637D01*
X38187Y223561D01*
X38219Y223490D01*
X38262Y223424D01*
X38315Y223366D01*
X38377Y223318D01*
X38445Y223279D01*
X38518Y223251D01*
X38595Y223235D01*
X38674Y223232D01*
X38752Y223241D01*
X38828Y223262D01*
X38899Y223294D01*
X39142Y223415D01*
X39395Y223513D01*
X39655Y223588D01*
X39922Y223639D01*
X40192Y223666D01*
X40354Y223668D01*
Y217673D01*
X40244Y217672D01*
X39974Y217695D01*
X39707Y217741D01*
X39445Y217812D01*
X39190Y217905D01*
X38945Y218022D01*
X38872Y218052D01*
X38796Y218072D01*
X38718Y218079D01*
X38640Y218074D01*
X38564Y218057D01*
X38491Y218029D01*
X38423Y217989D01*
X38363Y217939D01*
X38311Y217880D01*
X38269Y217814D01*
X38238Y217742D01*
X38218Y217666D01*
X38211Y217588D01*
X38216Y217510D01*
X38233Y217434D01*
X38261Y217361D01*
X38301Y217293D01*
X38351Y217233D01*
X38410Y217181D01*
X38476Y217139D01*
X38802Y216984D01*
X39142Y216859D01*
X39491Y216765D01*
X39847Y216703D01*
X40208Y216673D01*
X40354Y216674D01*
Y214670D01*
X39728Y214621D01*
X39118Y214474D01*
X38538Y214234D01*
X38003Y213906D01*
X37526Y213498D01*
X37118Y213021D01*
X37074Y212949D01*
Y218524D01*
X37080Y218521D01*
X37153Y218493D01*
X37230Y218477D01*
X37309Y218474D01*
X37387Y218483D01*
X37463Y218504D01*
X37534Y218536D01*
X37600Y218579D01*
X37658Y218632D01*
X37706Y218694D01*
X37745Y218762D01*
X37773Y218835D01*
X37789Y218912D01*
X37792Y218991D01*
X37783Y219069D01*
X37762Y219145D01*
X37730Y219216D01*
X37609Y219459D01*
X37511Y219712D01*
X37436Y219972D01*
X37385Y220239D01*
X37358Y220509D01*
X37355Y220780D01*
X37378Y221050D01*
X37424Y221317D01*
X37495Y221579D01*
X37588Y221834D01*
X37705Y222079D01*
X37735Y222152D01*
X37755Y222228D01*
X37762Y222306D01*
X37757Y222384D01*
X37740Y222460D01*
X37712Y222533D01*
X37672Y222601D01*
X37622Y222661D01*
X37563Y222713D01*
X37497Y222755D01*
X37425Y222786D01*
X37349Y222806D01*
X37271Y222813D01*
X37193Y222808D01*
X37117Y222791D01*
X37074Y222775D01*
Y228391D01*
G37*
G36*
X40354Y234670D02*X39728Y234621D01*
X39118Y234474D01*
X38538Y234234D01*
X38003Y233906D01*
X37526Y233498D01*
X37118Y233021D01*
X37074Y232949D01*
Y236712D01*
X37198Y236682D01*
X37354Y236670D01*
X40354Y236676D01*
Y234670D01*
G37*
G36*
X37074Y232949D02*X36790Y232486D01*
X36550Y231906D01*
X36403Y231296D01*
X36354Y230670D01*
X36403Y230044D01*
X36550Y229434D01*
X36790Y228854D01*
X37074Y228391D01*
Y222775D01*
X37044Y222763D01*
X36976Y222723D01*
X36916Y222673D01*
X36864Y222614D01*
X36822Y222548D01*
X36667Y222222D01*
X36542Y221882D01*
X36448Y221533D01*
X36386Y221177D01*
X36356Y220816D01*
X36359Y220455D01*
X36395Y220095D01*
X36463Y219740D01*
X36563Y219392D01*
X36694Y219055D01*
X36855Y218731D01*
X36897Y218666D01*
X36950Y218608D01*
X37012Y218560D01*
X37074Y218524D01*
Y212949D01*
X36790Y212486D01*
X36550Y211906D01*
X36403Y211296D01*
X36354Y210670D01*
X36403Y210044D01*
X36550Y209434D01*
X36668Y209149D01*
X30168Y202756D01*
X24432D01*
X24395Y202924D01*
X24138Y203736D01*
X23812Y204524D01*
X23419Y205279D01*
X22961Y205998D01*
X22442Y206674D01*
X22047Y207106D01*
Y207468D01*
X22091Y207471D01*
X22518Y207574D01*
X22924Y207742D01*
X23299Y207972D01*
X23633Y208257D01*
X23918Y208591D01*
X24148Y208966D01*
X24316Y209372D01*
X24419Y209799D01*
X24453Y210237D01*
X24419Y210675D01*
X24316Y211102D01*
X24148Y211508D01*
X23918Y211883D01*
X23633Y212217D01*
X23299Y212502D01*
X22924Y212732D01*
X22518Y212900D01*
X22091Y213003D01*
X22047Y213006D01*
Y216130D01*
X22441Y216099D01*
X22879Y216133D01*
X23306Y216236D01*
X23712Y216404D01*
X24087Y216634D01*
X24421Y216919D01*
X24706Y217253D01*
X24796Y217399D01*
X26378D01*
X26613Y217417D01*
X26842Y217472D01*
X27059Y217562D01*
X27260Y217685D01*
X27439Y217838D01*
X27451Y217852D01*
X32543Y222944D01*
X32557Y222956D01*
X32710Y223135D01*
X32833Y223336D01*
X32923Y223553D01*
X32978Y223782D01*
X32996Y224017D01*
Y234224D01*
X34314Y235542D01*
X34328Y235554D01*
X34481Y235733D01*
X34604Y235934D01*
X34694Y236151D01*
X34749Y236380D01*
X34767Y236615D01*
Y241741D01*
X34913Y241831D01*
X35247Y242116D01*
X35532Y242450D01*
X35762Y242825D01*
X35930Y243231D01*
X36033Y243658D01*
X36067Y244096D01*
X36033Y244534D01*
X35930Y244961D01*
X35762Y245367D01*
X35576Y245670D01*
X37074D01*
Y244628D01*
X37045Y244621D01*
X36900Y244561D01*
X36766Y244479D01*
X36647Y244377D01*
X36545Y244258D01*
X36463Y244124D01*
X36403Y243979D01*
X36366Y243826D01*
X36354Y243670D01*
X36366Y237514D01*
X36403Y237361D01*
X36463Y237216D01*
X36545Y237082D01*
X36647Y236963D01*
X36766Y236861D01*
X36900Y236779D01*
X37045Y236719D01*
X37074Y236712D01*
Y232949D01*
G37*
G36*
X130708Y135827D02*X146203D01*
X146009Y135708D01*
X145678Y135425D01*
X145395Y135094D01*
X145168Y134723D01*
X145002Y134322D01*
X144900Y133899D01*
X144866Y133465D01*
X144900Y133031D01*
X145002Y132608D01*
X145168Y132207D01*
X145395Y131836D01*
X145678Y131505D01*
X146009Y131222D01*
X146138Y131143D01*
Y130424D01*
X145958Y130718D01*
X145376Y131399D01*
X144695Y131981D01*
X143931Y132449D01*
X143103Y132792D01*
X142232Y133001D01*
X141339Y133071D01*
X140446Y133001D01*
X139575Y132792D01*
X138747Y132449D01*
X137983Y131981D01*
X137302Y131399D01*
X136720Y130718D01*
X136252Y129954D01*
X135909Y129126D01*
X135700Y128255D01*
X135630Y127362D01*
X135700Y126469D01*
X135909Y125598D01*
X136252Y124770D01*
X136720Y124006D01*
X137302Y123325D01*
X137983Y122743D01*
X138747Y122275D01*
X139575Y121932D01*
X140446Y121723D01*
X141339Y121653D01*
X142232Y121723D01*
X143103Y121932D01*
X143931Y122275D01*
X144695Y122743D01*
X145376Y123325D01*
X145958Y124006D01*
X146138Y124300D01*
Y119252D01*
X146009Y119173D01*
X145678Y118890D01*
X145395Y118559D01*
X145168Y118188D01*
X145002Y117787D01*
X144900Y117364D01*
X144866Y116930D01*
X144874Y116828D01*
X144695Y116981D01*
X143931Y117449D01*
X143103Y117792D01*
X142232Y118001D01*
X141339Y118071D01*
X140446Y118001D01*
X139575Y117792D01*
X138747Y117449D01*
X137983Y116981D01*
X137302Y116399D01*
X136720Y115718D01*
X136252Y114954D01*
X135909Y114126D01*
X135700Y113255D01*
X135630Y112362D01*
X135700Y111469D01*
X135909Y110598D01*
X136252Y109770D01*
X136720Y109006D01*
X137302Y108325D01*
X137983Y107743D01*
X138747Y107275D01*
X139575Y106932D01*
X140446Y106723D01*
X141339Y106653D01*
X142232Y106723D01*
X143103Y106932D01*
X143931Y107275D01*
X144695Y107743D01*
X145376Y108325D01*
X145958Y109006D01*
X146138Y109300D01*
Y104291D01*
X146009Y104212D01*
X145678Y103929D01*
X145395Y103598D01*
X145168Y103227D01*
X145002Y102826D01*
X144900Y102403D01*
X144866Y101969D01*
X144877Y101825D01*
X144695Y101981D01*
X143931Y102449D01*
X143103Y102792D01*
X142232Y103001D01*
X141339Y103071D01*
X140446Y103001D01*
X139575Y102792D01*
X138747Y102449D01*
X137983Y101981D01*
X137302Y101399D01*
X136720Y100718D01*
X136252Y99954D01*
X135909Y99126D01*
X135700Y98255D01*
X135630Y97362D01*
X135700Y96469D01*
X135909Y95598D01*
X136252Y94770D01*
X136720Y94006D01*
X137302Y93325D01*
X137983Y92743D01*
X138747Y92275D01*
X139575Y91932D01*
X140446Y91723D01*
X141339Y91653D01*
X142232Y91723D01*
X143103Y91932D01*
X143931Y92275D01*
X144695Y92743D01*
X145376Y93325D01*
X145958Y94006D01*
X146138Y94300D01*
Y89330D01*
X146009Y89251D01*
X145678Y88968D01*
X145395Y88637D01*
X145168Y88266D01*
X145002Y87865D01*
X144900Y87442D01*
X144866Y87008D01*
X144881Y86822D01*
X144695Y86981D01*
X143931Y87449D01*
X143103Y87792D01*
X142232Y88001D01*
X141339Y88071D01*
X140446Y88001D01*
X139575Y87792D01*
X138747Y87449D01*
X137983Y86981D01*
X137302Y86399D01*
X136720Y85718D01*
X136252Y84954D01*
X135909Y84126D01*
X135700Y83255D01*
X135630Y82362D01*
X135700Y81469D01*
X135909Y80598D01*
X136252Y79770D01*
X136720Y79006D01*
X137302Y78325D01*
X137983Y77743D01*
X138747Y77275D01*
X139575Y76932D01*
X140446Y76723D01*
X141339Y76653D01*
X142232Y76723D01*
X143103Y76932D01*
X143931Y77275D01*
X144695Y77743D01*
X145376Y78325D01*
X145958Y79006D01*
X146138Y79300D01*
Y74370D01*
X146009Y74291D01*
X145678Y74008D01*
X145395Y73677D01*
X145168Y73306D01*
X145002Y72905D01*
X144900Y72482D01*
X144866Y72048D01*
X144884Y71820D01*
X144695Y71981D01*
X143931Y72449D01*
X143103Y72792D01*
X142232Y73001D01*
X141339Y73071D01*
X140446Y73001D01*
X139575Y72792D01*
X138747Y72449D01*
X137983Y71981D01*
X137302Y71399D01*
X136720Y70718D01*
X136252Y69954D01*
X135909Y69126D01*
X135700Y68255D01*
X135630Y67362D01*
X135700Y66469D01*
X135909Y65598D01*
X136252Y64770D01*
X136720Y64006D01*
X137302Y63325D01*
X137983Y62743D01*
X138747Y62275D01*
X139575Y61932D01*
X140446Y61723D01*
X141339Y61653D01*
X142232Y61723D01*
X143103Y61932D01*
X143931Y62275D01*
X144695Y62743D01*
X145376Y63325D01*
X145958Y64006D01*
X146138Y64300D01*
Y59409D01*
X146009Y59330D01*
X145678Y59047D01*
X145395Y58716D01*
X145168Y58345D01*
X145002Y57944D01*
X144900Y57521D01*
X144866Y57087D01*
X144887Y56817D01*
X144695Y56981D01*
X143931Y57449D01*
X143103Y57792D01*
X142232Y58001D01*
X141339Y58071D01*
X140446Y58001D01*
X139575Y57792D01*
X138747Y57449D01*
X137983Y56981D01*
X137302Y56399D01*
X136720Y55718D01*
X136252Y54954D01*
X135909Y54126D01*
X135700Y53255D01*
X135630Y52362D01*
X135700Y51469D01*
X135909Y50598D01*
X136252Y49770D01*
X136720Y49006D01*
X137302Y48325D01*
X137983Y47743D01*
X138747Y47275D01*
X139575Y46932D01*
X140446Y46723D01*
X141339Y46653D01*
X142232Y46723D01*
X143103Y46932D01*
X143931Y47275D01*
X144695Y47743D01*
X145376Y48325D01*
X145958Y49006D01*
X146138Y49300D01*
Y44489D01*
X130708D01*
Y46250D01*
X133864Y46256D01*
X134017Y46293D01*
X134162Y46353D01*
X134296Y46435D01*
X134415Y46537D01*
X134517Y46656D01*
X134599Y46790D01*
X134659Y46935D01*
X134696Y47088D01*
X134708Y47244D01*
X134696Y57636D01*
X134659Y57789D01*
X134599Y57934D01*
X134517Y58068D01*
X134415Y58187D01*
X134296Y58289D01*
X134162Y58371D01*
X134017Y58431D01*
X133864Y58468D01*
X133708Y58480D01*
X130708Y58474D01*
Y61211D01*
X133864Y61217D01*
X134017Y61254D01*
X134162Y61314D01*
X134296Y61396D01*
X134415Y61498D01*
X134517Y61617D01*
X134599Y61751D01*
X134659Y61896D01*
X134696Y62049D01*
X134708Y62205D01*
X134696Y72597D01*
X134659Y72750D01*
X134599Y72895D01*
X134517Y73029D01*
X134415Y73148D01*
X134296Y73250D01*
X134162Y73332D01*
X134017Y73392D01*
X133864Y73429D01*
X133708Y73441D01*
X130708Y73435D01*
Y76171D01*
X133864Y76177D01*
X134017Y76214D01*
X134162Y76274D01*
X134296Y76356D01*
X134415Y76458D01*
X134517Y76577D01*
X134599Y76711D01*
X134659Y76856D01*
X134696Y77009D01*
X134708Y77165D01*
X134696Y87557D01*
X134659Y87710D01*
X134599Y87855D01*
X134517Y87989D01*
X134415Y88108D01*
X134296Y88210D01*
X134162Y88292D01*
X134017Y88352D01*
X133864Y88389D01*
X133708Y88401D01*
X130708Y88395D01*
Y91132D01*
X133864Y91138D01*
X134017Y91175D01*
X134162Y91235D01*
X134296Y91317D01*
X134415Y91419D01*
X134517Y91538D01*
X134599Y91672D01*
X134659Y91817D01*
X134696Y91970D01*
X134708Y92126D01*
X134696Y102518D01*
X134659Y102671D01*
X134599Y102816D01*
X134517Y102950D01*
X134415Y103069D01*
X134296Y103171D01*
X134162Y103253D01*
X134017Y103313D01*
X133864Y103350D01*
X133708Y103362D01*
X130708Y103356D01*
Y106092D01*
X133864Y106098D01*
X134017Y106135D01*
X134162Y106195D01*
X134296Y106277D01*
X134415Y106379D01*
X134517Y106498D01*
X134599Y106632D01*
X134659Y106777D01*
X134696Y106930D01*
X134708Y107086D01*
X134696Y117478D01*
X134659Y117631D01*
X134599Y117776D01*
X134517Y117910D01*
X134415Y118029D01*
X134296Y118131D01*
X134162Y118213D01*
X134017Y118273D01*
X133864Y118310D01*
X133708Y118322D01*
X130708Y118316D01*
Y121053D01*
X133864Y121059D01*
X134017Y121096D01*
X134162Y121156D01*
X134296Y121238D01*
X134415Y121340D01*
X134517Y121459D01*
X134599Y121593D01*
X134659Y121738D01*
X134696Y121891D01*
X134708Y122047D01*
X134696Y132439D01*
X134659Y132592D01*
X134599Y132737D01*
X134517Y132871D01*
X134415Y132990D01*
X134296Y133092D01*
X134162Y133174D01*
X134017Y133234D01*
X133864Y133271D01*
X133708Y133283D01*
X130708Y133277D01*
Y135827D01*
G37*
G36*
X113386Y44772D02*Y44991D01*
X113546Y45029D01*
X113763Y45119D01*
X113964Y45242D01*
X114143Y45395D01*
X114155Y45409D01*
X115282Y46536D01*
X115400Y46435D01*
X115534Y46353D01*
X115679Y46293D01*
X115832Y46256D01*
X115988Y46244D01*
X122144Y46256D01*
X122297Y46293D01*
X122442Y46353D01*
X122576Y46435D01*
X122695Y46537D01*
X122797Y46656D01*
X122879Y46790D01*
X122939Y46935D01*
X122976Y47088D01*
X122988Y47244D01*
X122976Y57636D01*
X122939Y57789D01*
X122879Y57934D01*
X122797Y58068D01*
X122695Y58187D01*
X122576Y58289D01*
X122442Y58371D01*
X122297Y58431D01*
X122144Y58468D01*
X121988Y58480D01*
X116494Y58469D01*
X119236Y61211D01*
X122144Y61217D01*
X122297Y61254D01*
X122442Y61314D01*
X122576Y61396D01*
X122695Y61498D01*
X122797Y61617D01*
X122879Y61751D01*
X122939Y61896D01*
X122976Y62049D01*
X122988Y62205D01*
X122976Y72597D01*
X122939Y72750D01*
X122879Y72895D01*
X122797Y73029D01*
X122695Y73148D01*
X122576Y73250D01*
X122442Y73332D01*
X122297Y73392D01*
X122144Y73429D01*
X121988Y73441D01*
X115832Y73429D01*
X115679Y73392D01*
X115534Y73332D01*
X115400Y73250D01*
X115281Y73148D01*
X115179Y73029D01*
X115097Y72895D01*
X115037Y72750D01*
X115000Y72597D01*
X114988Y72441D01*
X115000Y62049D01*
X115037Y61896D01*
X115097Y61751D01*
X115179Y61617D01*
X115281Y61498D01*
X113386Y59603D01*
Y90005D01*
X115282Y88109D01*
X115281Y88108D01*
X115179Y87989D01*
X115097Y87855D01*
X115037Y87710D01*
X115000Y87557D01*
X114988Y87401D01*
X115000Y77009D01*
X115037Y76856D01*
X115097Y76711D01*
X115179Y76577D01*
X115281Y76458D01*
X115400Y76356D01*
X115534Y76274D01*
X115679Y76214D01*
X115832Y76177D01*
X115988Y76165D01*
X122144Y76177D01*
X122297Y76214D01*
X122442Y76274D01*
X122576Y76356D01*
X122695Y76458D01*
X122797Y76577D01*
X122879Y76711D01*
X122939Y76856D01*
X122976Y77009D01*
X122988Y77165D01*
X122976Y87557D01*
X122939Y87710D01*
X122879Y87855D01*
X122797Y87989D01*
X122695Y88108D01*
X122576Y88210D01*
X122442Y88292D01*
X122297Y88352D01*
X122144Y88389D01*
X121988Y88401D01*
X119237Y88396D01*
X116506Y91127D01*
X122144Y91138D01*
X122297Y91175D01*
X122442Y91235D01*
X122576Y91317D01*
X122695Y91419D01*
X122797Y91538D01*
X122879Y91672D01*
X122939Y91817D01*
X122976Y91970D01*
X122988Y92126D01*
X122976Y102518D01*
X122939Y102671D01*
X122879Y102816D01*
X122797Y102950D01*
X122695Y103069D01*
X122576Y103171D01*
X122442Y103253D01*
X122297Y103313D01*
X122144Y103350D01*
X121988Y103362D01*
X115832Y103350D01*
X115679Y103313D01*
X115534Y103253D01*
X115400Y103171D01*
X115283Y103070D01*
X114150Y104203D01*
X114144Y104210D01*
X113965Y104363D01*
X113764Y104486D01*
X113547Y104576D01*
X113386Y104615D01*
Y104833D01*
X113546Y104871D01*
X113763Y104961D01*
X113964Y105084D01*
X114143Y105237D01*
X114155Y105251D01*
X115282Y106378D01*
X115400Y106277D01*
X115534Y106195D01*
X115679Y106135D01*
X115832Y106098D01*
X115988Y106086D01*
X122144Y106098D01*
X122297Y106135D01*
X122442Y106195D01*
X122576Y106277D01*
X122695Y106379D01*
X122797Y106498D01*
X122879Y106632D01*
X122939Y106777D01*
X122976Y106930D01*
X122988Y107086D01*
X122976Y117478D01*
X122939Y117631D01*
X122879Y117776D01*
X122797Y117910D01*
X122695Y118029D01*
X122576Y118131D01*
X122442Y118213D01*
X122297Y118273D01*
X122144Y118310D01*
X121988Y118322D01*
X116493Y118311D01*
X119235Y121053D01*
X122144Y121059D01*
X122297Y121096D01*
X122442Y121156D01*
X122576Y121238D01*
X122695Y121340D01*
X122797Y121459D01*
X122879Y121593D01*
X122939Y121738D01*
X122976Y121891D01*
X122988Y122047D01*
X122976Y132439D01*
X122939Y132592D01*
X122879Y132737D01*
X122797Y132871D01*
X122695Y132990D01*
X122576Y133092D01*
X122442Y133174D01*
X122297Y133234D01*
X122144Y133271D01*
X121988Y133283D01*
X115832Y133271D01*
X115679Y133234D01*
X115534Y133174D01*
X115400Y133092D01*
X115281Y132990D01*
X115179Y132871D01*
X115097Y132737D01*
X115037Y132592D01*
X115000Y132439D01*
X114988Y132283D01*
X115000Y121891D01*
X115037Y121738D01*
X115097Y121593D01*
X115179Y121459D01*
X115281Y121341D01*
X113386Y119446D01*
Y135827D01*
X130708D01*
Y133277D01*
X127552Y133271D01*
X127399Y133234D01*
X127254Y133174D01*
X127120Y133092D01*
X127001Y132990D01*
X126899Y132871D01*
X126817Y132737D01*
X126757Y132592D01*
X126720Y132439D01*
X126708Y132283D01*
X126720Y121891D01*
X126757Y121738D01*
X126817Y121593D01*
X126899Y121459D01*
X127001Y121340D01*
X127120Y121238D01*
X127254Y121156D01*
X127399Y121096D01*
X127552Y121059D01*
X127708Y121047D01*
X130708Y121053D01*
Y118316D01*
X127552Y118310D01*
X127399Y118273D01*
X127254Y118213D01*
X127120Y118131D01*
X127001Y118029D01*
X126899Y117910D01*
X126817Y117776D01*
X126757Y117631D01*
X126720Y117478D01*
X126708Y117322D01*
X126720Y106930D01*
X126757Y106777D01*
X126817Y106632D01*
X126899Y106498D01*
X127001Y106379D01*
X127120Y106277D01*
X127254Y106195D01*
X127399Y106135D01*
X127552Y106098D01*
X127708Y106086D01*
X130708Y106092D01*
Y103356D01*
X127552Y103350D01*
X127399Y103313D01*
X127254Y103253D01*
X127120Y103171D01*
X127001Y103069D01*
X126899Y102950D01*
X126817Y102816D01*
X126757Y102671D01*
X126720Y102518D01*
X126708Y102362D01*
X126720Y91970D01*
X126757Y91817D01*
X126817Y91672D01*
X126899Y91538D01*
X127001Y91419D01*
X127120Y91317D01*
X127254Y91235D01*
X127399Y91175D01*
X127552Y91138D01*
X127708Y91126D01*
X130708Y91132D01*
Y88395D01*
X127552Y88389D01*
X127399Y88352D01*
X127254Y88292D01*
X127120Y88210D01*
X127001Y88108D01*
X126899Y87989D01*
X126817Y87855D01*
X126757Y87710D01*
X126720Y87557D01*
X126708Y87401D01*
X126720Y77009D01*
X126757Y76856D01*
X126817Y76711D01*
X126899Y76577D01*
X127001Y76458D01*
X127120Y76356D01*
X127254Y76274D01*
X127399Y76214D01*
X127552Y76177D01*
X127708Y76165D01*
X130708Y76171D01*
Y73435D01*
X127552Y73429D01*
X127399Y73392D01*
X127254Y73332D01*
X127120Y73250D01*
X127001Y73148D01*
X126899Y73029D01*
X126817Y72895D01*
X126757Y72750D01*
X126720Y72597D01*
X126708Y72441D01*
X126720Y62049D01*
X126757Y61896D01*
X126817Y61751D01*
X126899Y61617D01*
X127001Y61498D01*
X127120Y61396D01*
X127254Y61314D01*
X127399Y61254D01*
X127552Y61217D01*
X127708Y61205D01*
X130708Y61211D01*
Y58474D01*
X127552Y58468D01*
X127399Y58431D01*
X127254Y58371D01*
X127120Y58289D01*
X127001Y58187D01*
X126899Y58068D01*
X126817Y57934D01*
X126757Y57789D01*
X126720Y57636D01*
X126708Y57480D01*
X126720Y47088D01*
X126757Y46935D01*
X126817Y46790D01*
X126899Y46656D01*
X127001Y46537D01*
X127120Y46435D01*
X127254Y46353D01*
X127399Y46293D01*
X127552Y46256D01*
X127708Y46244D01*
X130708Y46250D01*
Y44489D01*
X114001D01*
X113964Y44521D01*
X113763Y44644D01*
X113546Y44734D01*
X113386Y44772D01*
G37*
G36*
X130708Y1268D02*X131025Y1074D01*
X131426Y908D01*
X131849Y806D01*
X132283Y772D01*
X132717Y806D01*
X133140Y908D01*
X133541Y1074D01*
X133902Y1295D01*
X149606D01*
X149958Y1322D01*
X150301Y1404D01*
X150627Y1539D01*
X150929Y1724D01*
X151197Y1953D01*
X151209Y1967D01*
X156314Y7072D01*
X156544Y7339D01*
X156729Y7641D01*
X156864Y7967D01*
X156946Y8310D01*
X156974Y8662D01*
X156973Y8675D01*
Y48426D01*
X157480D01*
Y0D01*
X130708D01*
Y1268D01*
G37*
G36*
Y46250D02*X133864Y46256D01*
X134017Y46293D01*
X134162Y46353D01*
X134296Y46435D01*
X134415Y46537D01*
X134517Y46656D01*
X134599Y46790D01*
X134659Y46935D01*
X134696Y47088D01*
X134708Y47244D01*
X134707Y48426D01*
X137216D01*
X137302Y48325D01*
X137983Y47743D01*
X138747Y47275D01*
X139575Y46932D01*
X140446Y46723D01*
X141339Y46653D01*
X142232Y46723D01*
X143103Y46932D01*
X143931Y47275D01*
X144695Y47743D01*
X145376Y48325D01*
X145462Y48426D01*
X146138D01*
Y44448D01*
X146009Y44369D01*
X145678Y44086D01*
X145395Y43755D01*
X145168Y43384D01*
X145002Y42983D01*
X144900Y42560D01*
X144866Y42126D01*
X144890Y41814D01*
X144695Y41981D01*
X143931Y42449D01*
X143103Y42792D01*
X142232Y43001D01*
X141339Y43071D01*
X140446Y43001D01*
X139575Y42792D01*
X138747Y42449D01*
X137983Y41981D01*
X137302Y41399D01*
X136720Y40718D01*
X136252Y39954D01*
X135909Y39126D01*
X135700Y38255D01*
X135630Y37362D01*
X135700Y36469D01*
X135909Y35598D01*
X136252Y34770D01*
X136720Y34006D01*
X137302Y33325D01*
X137983Y32743D01*
X138747Y32275D01*
X139575Y31932D01*
X140446Y31723D01*
X141339Y31653D01*
X142232Y31723D01*
X143103Y31932D01*
X143931Y32275D01*
X144695Y32743D01*
X145376Y33325D01*
X145958Y34006D01*
X146138Y34300D01*
Y29488D01*
X146009Y29409D01*
X145678Y29126D01*
X145395Y28795D01*
X145168Y28424D01*
X145002Y28023D01*
X144900Y27600D01*
X144866Y27166D01*
X144894Y26811D01*
X144695Y26981D01*
X143931Y27449D01*
X143103Y27792D01*
X142232Y28001D01*
X141339Y28071D01*
X140446Y28001D01*
X139575Y27792D01*
X138747Y27449D01*
X137983Y26981D01*
X137302Y26399D01*
X136720Y25718D01*
X136252Y24954D01*
X135909Y24126D01*
X135700Y23255D01*
X135630Y22362D01*
X135700Y21469D01*
X135909Y20598D01*
X136252Y19770D01*
X136720Y19006D01*
X137302Y18325D01*
X137983Y17743D01*
X138747Y17275D01*
X139575Y16932D01*
X140446Y16723D01*
X141339Y16653D01*
X142232Y16723D01*
X143103Y16932D01*
X143931Y17275D01*
X144695Y17743D01*
X145376Y18325D01*
X145958Y19006D01*
X146138Y19300D01*
Y14008D01*
X145836Y13706D01*
X130708D01*
Y16329D01*
X133864Y16335D01*
X134017Y16372D01*
X134162Y16432D01*
X134296Y16514D01*
X134415Y16616D01*
X134517Y16735D01*
X134599Y16869D01*
X134659Y17014D01*
X134696Y17167D01*
X134708Y17323D01*
X134696Y27715D01*
X134659Y27868D01*
X134599Y28013D01*
X134517Y28147D01*
X134415Y28266D01*
X134296Y28368D01*
X134162Y28450D01*
X134017Y28510D01*
X133864Y28547D01*
X133708Y28559D01*
X130708Y28553D01*
Y31289D01*
X133864Y31295D01*
X134017Y31332D01*
X134162Y31392D01*
X134296Y31474D01*
X134415Y31576D01*
X134517Y31695D01*
X134599Y31829D01*
X134659Y31974D01*
X134696Y32127D01*
X134708Y32283D01*
X134696Y42675D01*
X134659Y42828D01*
X134599Y42973D01*
X134517Y43107D01*
X134415Y43226D01*
X134296Y43328D01*
X134162Y43410D01*
X134017Y43470D01*
X133864Y43507D01*
X133708Y43519D01*
X130708Y43513D01*
Y46250D01*
G37*
G36*
X101261Y38657D02*X101440D01*
X101468Y38624D01*
X101586Y38524D01*
X101717Y38443D01*
X101860Y38384D01*
X102010Y38348D01*
X102164Y38336D01*
X105862Y38348D01*
X106012Y38384D01*
X106155Y38443D01*
X106286Y38524D01*
X106404Y38624D01*
X106504Y38742D01*
X106585Y38873D01*
X106644Y39016D01*
X106680Y39166D01*
X106692Y39320D01*
X106680Y41148D01*
X106644Y41298D01*
X106585Y41441D01*
X106504Y41572D01*
X106404Y41690D01*
X106354Y41732D01*
X106404Y41774D01*
X106504Y41892D01*
X106585Y42023D01*
X106644Y42166D01*
X106680Y42316D01*
X106692Y42470D01*
X106680Y44298D01*
X106644Y44448D01*
X106585Y44591D01*
X106504Y44722D01*
X106404Y44840D01*
X106355Y44881D01*
X106404Y44923D01*
X106504Y45041D01*
X106585Y45172D01*
X106644Y45315D01*
X106680Y45465D01*
X106692Y45619D01*
X106680Y47447D01*
X106644Y47597D01*
X106585Y47740D01*
X106504Y47871D01*
X106404Y47989D01*
X106354Y48031D01*
X106404Y48073D01*
X106504Y48191D01*
X106585Y48322D01*
X106628Y48426D01*
X107937D01*
X107980Y48322D01*
X108061Y48191D01*
X108161Y48073D01*
X108211Y48031D01*
X108161Y47989D01*
X108061Y47871D01*
X107980Y47740D01*
X107921Y47597D01*
X107885Y47447D01*
X107873Y47293D01*
X107885Y45465D01*
X107921Y45315D01*
X107980Y45172D01*
X108061Y45041D01*
X108161Y44923D01*
X108210Y44882D01*
X108161Y44840D01*
X108061Y44722D01*
X107980Y44591D01*
X107921Y44448D01*
X107885Y44298D01*
X107873Y44144D01*
X107885Y42316D01*
X107921Y42166D01*
X107980Y42023D01*
X108061Y41892D01*
X108161Y41774D01*
X108211Y41732D01*
X108161Y41690D01*
X108061Y41572D01*
X107980Y41441D01*
X107921Y41298D01*
X107885Y41148D01*
X107873Y40994D01*
X107885Y39166D01*
X107921Y39016D01*
X107980Y38873D01*
X108061Y38742D01*
X108161Y38624D01*
X108279Y38524D01*
X108410Y38443D01*
X108553Y38384D01*
X108703Y38348D01*
X108857Y38336D01*
X112555Y38348D01*
X112673Y38376D01*
Y31497D01*
X112691Y31262D01*
X112746Y31033D01*
X112836Y30816D01*
X112959Y30615D01*
X113112Y30436D01*
X113119Y30430D01*
X115282Y28267D01*
X115281Y28266D01*
X115179Y28147D01*
X115097Y28013D01*
X115037Y27868D01*
X115000Y27715D01*
X114988Y27559D01*
X115000Y17167D01*
X115037Y17014D01*
X115097Y16869D01*
X115179Y16735D01*
X115281Y16616D01*
X115400Y16514D01*
X115534Y16432D01*
X115679Y16372D01*
X115832Y16335D01*
X115988Y16323D01*
X122144Y16335D01*
X122297Y16372D01*
X122442Y16432D01*
X122576Y16514D01*
X122695Y16616D01*
X122797Y16735D01*
X122879Y16869D01*
X122939Y17014D01*
X122976Y17167D01*
X122988Y17323D01*
X122976Y27715D01*
X122939Y27868D01*
X122879Y28013D01*
X122797Y28147D01*
X122695Y28266D01*
X122576Y28368D01*
X122442Y28450D01*
X122297Y28510D01*
X122144Y28547D01*
X121988Y28559D01*
X119237Y28554D01*
X116507Y31284D01*
X122144Y31295D01*
X122297Y31332D01*
X122442Y31392D01*
X122576Y31474D01*
X122695Y31576D01*
X122797Y31695D01*
X122879Y31829D01*
X122939Y31974D01*
X122976Y32127D01*
X122988Y32283D01*
X122976Y42675D01*
X122939Y42828D01*
X122879Y42973D01*
X122797Y43107D01*
X122695Y43226D01*
X122576Y43328D01*
X122442Y43410D01*
X122297Y43470D01*
X122144Y43507D01*
X121988Y43519D01*
X115832Y43507D01*
X115679Y43470D01*
X115534Y43410D01*
X115400Y43328D01*
X115283Y43227D01*
X114149Y44361D01*
X114143Y44368D01*
X113964Y44521D01*
X113763Y44644D01*
X113546Y44734D01*
X113317Y44789D01*
X113128Y44804D01*
X113097Y44840D01*
X113048Y44881D01*
X113097Y44923D01*
X113128Y44960D01*
X113317Y44974D01*
X113546Y45029D01*
X113763Y45119D01*
X113964Y45242D01*
X114143Y45395D01*
X114155Y45409D01*
X115282Y46536D01*
X115400Y46435D01*
X115534Y46353D01*
X115679Y46293D01*
X115832Y46256D01*
X115988Y46244D01*
X122144Y46256D01*
X122297Y46293D01*
X122442Y46353D01*
X122576Y46435D01*
X122695Y46537D01*
X122797Y46656D01*
X122879Y46790D01*
X122939Y46935D01*
X122976Y47088D01*
X122988Y47244D01*
X122987Y48426D01*
X126718D01*
X126720Y47088D01*
X126757Y46935D01*
X126817Y46790D01*
X126899Y46656D01*
X127001Y46537D01*
X127120Y46435D01*
X127254Y46353D01*
X127399Y46293D01*
X127552Y46256D01*
X127708Y46244D01*
X130708Y46250D01*
Y43513D01*
X127552Y43507D01*
X127399Y43470D01*
X127254Y43410D01*
X127120Y43328D01*
X127001Y43226D01*
X126899Y43107D01*
X126817Y42973D01*
X126757Y42828D01*
X126720Y42675D01*
X126708Y42519D01*
X126720Y32127D01*
X126757Y31974D01*
X126817Y31829D01*
X126899Y31695D01*
X127001Y31576D01*
X127120Y31474D01*
X127254Y31392D01*
X127399Y31332D01*
X127552Y31295D01*
X127708Y31283D01*
X130708Y31289D01*
Y28553D01*
X127552Y28547D01*
X127399Y28510D01*
X127254Y28450D01*
X127120Y28368D01*
X127001Y28266D01*
X126899Y28147D01*
X126817Y28013D01*
X126757Y27868D01*
X126720Y27715D01*
X126708Y27559D01*
X126720Y17167D01*
X126757Y17014D01*
X126817Y16869D01*
X126899Y16735D01*
X127001Y16616D01*
X127120Y16514D01*
X127254Y16432D01*
X127399Y16372D01*
X127552Y16335D01*
X127708Y16323D01*
X130708Y16329D01*
Y13706D01*
X124745D01*
X124743Y14140D01*
X124688Y14369D01*
X124598Y14586D01*
X124475Y14787D01*
X124322Y14966D01*
X124143Y15119D01*
X123942Y15242D01*
X123725Y15332D01*
X123496Y15387D01*
X123261Y15405D01*
X119026Y15387D01*
X118797Y15332D01*
X118580Y15242D01*
X118379Y15119D01*
X118200Y14966D01*
X118047Y14787D01*
X117924Y14586D01*
X117834Y14369D01*
X117779Y14140D01*
X117761Y13905D01*
X117779Y10270D01*
X117834Y10041D01*
X117924Y9824D01*
X118047Y9623D01*
X118200Y9444D01*
X118379Y9291D01*
X118580Y9168D01*
X118797Y9078D01*
X119011Y9027D01*
Y7583D01*
X118797Y7532D01*
X118580Y7442D01*
X118379Y7319D01*
X118200Y7166D01*
X118047Y6987D01*
X117924Y6786D01*
X117834Y6569D01*
X117779Y6340D01*
X117761Y6105D01*
X117779Y2470D01*
X117834Y2241D01*
X117924Y2024D01*
X118047Y1823D01*
X118200Y1644D01*
X118379Y1491D01*
X118580Y1368D01*
X118797Y1278D01*
X119026Y1223D01*
X119261Y1205D01*
X123496Y1223D01*
X123725Y1278D01*
X123942Y1368D01*
X124143Y1491D01*
X124322Y1644D01*
X124475Y1823D01*
X124598Y2024D01*
X124688Y2241D01*
X124697Y2280D01*
X124921Y1915D01*
X125204Y1584D01*
X125535Y1301D01*
X125906Y1074D01*
X126307Y908D01*
X126730Y806D01*
X127164Y772D01*
X127598Y806D01*
X128021Y908D01*
X128422Y1074D01*
X128783Y1295D01*
X130664D01*
X130708Y1268D01*
Y0D01*
X101261D01*
Y10436D01*
X102154Y10506D01*
X103025Y10715D01*
X103853Y11058D01*
X104617Y11526D01*
X105298Y12108D01*
X105880Y12789D01*
X106348Y13553D01*
X106691Y14381D01*
X106900Y15252D01*
X106970Y16145D01*
X106900Y17038D01*
X106691Y17909D01*
X106348Y18737D01*
X105880Y19501D01*
X105298Y20182D01*
X104617Y20764D01*
X103853Y21232D01*
X103025Y21575D01*
X102154Y21784D01*
X101261Y21854D01*
Y38657D01*
G37*
G36*
X86261Y46912D02*X87775Y48426D01*
X94957D01*
Y44489D01*
X94975Y44254D01*
X95030Y44025D01*
X95120Y43808D01*
X95243Y43607D01*
X95396Y43428D01*
X95403Y43422D01*
X99721Y39103D01*
X99727Y39096D01*
X99906Y38943D01*
X100107Y38820D01*
X100324Y38730D01*
X100553Y38675D01*
X100788Y38657D01*
X101261D01*
Y21854D01*
X100368Y21784D01*
X99497Y21575D01*
X98669Y21232D01*
X97905Y20764D01*
X97224Y20182D01*
X96642Y19501D01*
X96174Y18737D01*
X95831Y17909D01*
X95622Y17038D01*
X95552Y16145D01*
X95622Y15252D01*
X95831Y14381D01*
X96174Y13553D01*
X96642Y12789D01*
X97224Y12108D01*
X97905Y11526D01*
X98669Y11058D01*
X99497Y10715D01*
X100368Y10506D01*
X101261Y10436D01*
Y0D01*
X86261D01*
Y10436D01*
X87154Y10506D01*
X88025Y10715D01*
X88853Y11058D01*
X89617Y11526D01*
X90298Y12108D01*
X90880Y12789D01*
X91348Y13553D01*
X91691Y14381D01*
X91900Y15252D01*
X91970Y16145D01*
X91900Y17038D01*
X91691Y17909D01*
X91348Y18737D01*
X90880Y19501D01*
X90298Y20182D01*
X89617Y20764D01*
X88853Y21232D01*
X88025Y21575D01*
X87154Y21784D01*
X86261Y21854D01*
Y23025D01*
X87756Y23028D01*
X87909Y23065D01*
X88054Y23125D01*
X88188Y23207D01*
X88307Y23309D01*
X88409Y23428D01*
X88491Y23562D01*
X88551Y23707D01*
X88588Y23860D01*
X88600Y24016D01*
X88588Y34408D01*
X88551Y34561D01*
X88491Y34706D01*
X88409Y34840D01*
X88307Y34959D01*
X88188Y35061D01*
X88054Y35143D01*
X87909Y35203D01*
X87756Y35240D01*
X87600Y35252D01*
X86261Y35249D01*
Y46912D01*
G37*
G36*
X70866Y0D02*Y10467D01*
X71261Y10436D01*
X72154Y10506D01*
X73025Y10715D01*
X73853Y11058D01*
X74617Y11526D01*
X75298Y12108D01*
X75880Y12789D01*
X76348Y13553D01*
X76691Y14381D01*
X76900Y15252D01*
X76970Y16145D01*
X76900Y17038D01*
X76691Y17909D01*
X76348Y18737D01*
X75880Y19501D01*
X75298Y20182D01*
X74617Y20764D01*
X73853Y21232D01*
X73025Y21575D01*
X72154Y21784D01*
X71261Y21854D01*
X70866Y21823D01*
Y23018D01*
X76036Y23028D01*
X76189Y23065D01*
X76334Y23125D01*
X76468Y23207D01*
X76587Y23309D01*
X76689Y23428D01*
X76771Y23562D01*
X76831Y23707D01*
X76868Y23860D01*
X76880Y24016D01*
X76868Y34408D01*
X76831Y34561D01*
X76771Y34706D01*
X76689Y34840D01*
X76587Y34959D01*
X76468Y35061D01*
X76334Y35143D01*
X76189Y35203D01*
X76036Y35240D01*
X75880Y35252D01*
X70866Y35242D01*
Y37206D01*
X75984D01*
X76200Y37222D01*
X76410Y37272D01*
X76610Y37355D01*
X76794Y37468D01*
X76958Y37609D01*
X86261Y46912D01*
Y35249D01*
X81444Y35240D01*
X81291Y35203D01*
X81146Y35143D01*
X81012Y35061D01*
X80893Y34959D01*
X80791Y34840D01*
X80709Y34706D01*
X80649Y34561D01*
X80612Y34408D01*
X80600Y34252D01*
X80612Y23860D01*
X80649Y23707D01*
X80709Y23562D01*
X80791Y23428D01*
X80893Y23309D01*
X81012Y23207D01*
X81146Y23125D01*
X81291Y23065D01*
X81444Y23028D01*
X81600Y23016D01*
X86261Y23025D01*
Y21854D01*
X85368Y21784D01*
X84497Y21575D01*
X83669Y21232D01*
X82905Y20764D01*
X82224Y20182D01*
X81642Y19501D01*
X81174Y18737D01*
X80831Y17909D01*
X80622Y17038D01*
X80552Y16145D01*
X80622Y15252D01*
X80831Y14381D01*
X81174Y13553D01*
X81642Y12789D01*
X82224Y12108D01*
X82905Y11526D01*
X83669Y11058D01*
X84497Y10715D01*
X85368Y10506D01*
X86261Y10436D01*
Y0D01*
X70866D01*
G37*
G36*
X25960Y55384D02*X29965Y51379D01*
X29407Y50821D01*
X27080Y50814D01*
X26930Y50778D01*
X26787Y50719D01*
X26656Y50638D01*
X26538Y50538D01*
X26438Y50420D01*
X26357Y50289D01*
X26298Y50146D01*
X26262Y49996D01*
X26250Y49842D01*
X26262Y46856D01*
X26298Y46706D01*
X26357Y46563D01*
X26438Y46432D01*
X26538Y46314D01*
X26656Y46214D01*
X26787Y46133D01*
X26930Y46074D01*
X27080Y46038D01*
X27234Y46026D01*
X31188Y46038D01*
X31338Y46074D01*
X31481Y46133D01*
X31612Y46214D01*
X31730Y46314D01*
X31830Y46432D01*
X31911Y46563D01*
X31970Y46706D01*
X32006Y46856D01*
X32018Y47010D01*
X32009Y49181D01*
X32709Y49881D01*
X34953D01*
X34851Y49794D01*
X32490Y47432D01*
X32400Y47325D01*
X32350Y47267D01*
X32237Y47083D01*
X32154Y46883D01*
X32104Y46673D01*
X32087Y46457D01*
Y41733D01*
X32104Y41517D01*
X32154Y41307D01*
X32237Y41107D01*
X32350Y40923D01*
X32415Y40848D01*
X32490Y40759D01*
X33075Y40174D01*
X33071D01*
X32637Y40140D01*
X32490Y40104D01*
X31893Y40701D01*
X31911Y40729D01*
X31970Y40872D01*
X32006Y41022D01*
X32018Y41176D01*
X32006Y44162D01*
X31970Y44312D01*
X31911Y44455D01*
X31830Y44586D01*
X31730Y44704D01*
X31612Y44804D01*
X31481Y44885D01*
X31338Y44944D01*
X31188Y44980D01*
X31034Y44992D01*
X27080Y44980D01*
X26930Y44944D01*
X26787Y44885D01*
X26656Y44804D01*
X26538Y44704D01*
X26438Y44586D01*
X26357Y44455D01*
X26298Y44312D01*
X26262Y44162D01*
X26250Y44008D01*
X26262Y41022D01*
X26298Y40872D01*
X26357Y40729D01*
X26438Y40598D01*
X26538Y40480D01*
X26656Y40380D01*
X26787Y40299D01*
X26930Y40240D01*
X27080Y40204D01*
X27234Y40192D01*
X28157Y40195D01*
X30369Y37983D01*
X30333Y37836D01*
X30299Y37402D01*
X30333Y36968D01*
X30435Y36545D01*
X30601Y36144D01*
X30828Y35773D01*
X31111Y35442D01*
X31442Y35159D01*
X31813Y34932D01*
X32214Y34766D01*
X32637Y34664D01*
X33071Y34630D01*
X33505Y34664D01*
X33652Y34700D01*
X36746Y31606D01*
X36752Y31599D01*
X36931Y31446D01*
X37132Y31323D01*
X37349Y31233D01*
X37578Y31178D01*
X37813Y31160D01*
X38106D01*
X38107Y30975D01*
X38162Y30746D01*
X38252Y30529D01*
X38375Y30328D01*
X38528Y30149D01*
X38574Y30110D01*
X38528Y30071D01*
X38375Y29892D01*
X38252Y29691D01*
X38162Y29474D01*
X38107Y29245D01*
X38089Y29010D01*
X38107Y25875D01*
X38162Y25646D01*
X38252Y25429D01*
X38375Y25228D01*
X38528Y25049D01*
X38707Y24896D01*
X38908Y24773D01*
X39125Y24683D01*
X39354Y24628D01*
X39589Y24610D01*
X43324Y24628D01*
X43553Y24683D01*
X43770Y24773D01*
X43971Y24896D01*
X44150Y25049D01*
X44303Y25228D01*
X44426Y25429D01*
X44516Y25646D01*
X44571Y25875D01*
X44589Y26110D01*
X44571Y29245D01*
X44516Y29474D01*
X44426Y29691D01*
X44303Y29892D01*
X44150Y30071D01*
X44104Y30110D01*
X44150Y30149D01*
X44303Y30328D01*
X44426Y30529D01*
X44516Y30746D01*
X44571Y30975D01*
X44589Y31210D01*
X44571Y34345D01*
X44516Y34574D01*
X44426Y34791D01*
X44303Y34992D01*
X44150Y35171D01*
X43971Y35324D01*
X43770Y35447D01*
X43553Y35537D01*
X43324Y35592D01*
X43089Y35610D01*
X39354Y35592D01*
X39125Y35537D01*
X38908Y35447D01*
X38707Y35324D01*
X38528Y35171D01*
X38375Y34992D01*
X38252Y34791D01*
X38162Y34574D01*
X38135Y34460D01*
X35773Y36821D01*
X35809Y36968D01*
X35843Y37402D01*
X35839Y37447D01*
X35989Y37355D01*
X36189Y37272D01*
X36399Y37222D01*
X36615Y37205D01*
X36628Y37206D01*
X72441D01*
Y35245D01*
X69724Y35240D01*
X69571Y35203D01*
X69426Y35143D01*
X69292Y35061D01*
X69173Y34959D01*
X69071Y34840D01*
X68989Y34706D01*
X68929Y34561D01*
X68892Y34408D01*
X68880Y34252D01*
Y33977D01*
X68838Y34045D01*
X68738Y34163D01*
X68620Y34263D01*
X68489Y34344D01*
X68346Y34403D01*
X68196Y34439D01*
X68042Y34451D01*
X64088Y34439D01*
X63938Y34403D01*
X63795Y34344D01*
X63664Y34263D01*
X63546Y34163D01*
X63446Y34045D01*
X63365Y33914D01*
X63306Y33771D01*
X63270Y33621D01*
X63258Y33467D01*
X63263Y32314D01*
X61144Y30195D01*
X60991Y30016D01*
X60868Y29815D01*
X60778Y29598D01*
X60723Y29369D01*
X60705Y29134D01*
Y23622D01*
X60723Y23387D01*
X60778Y23158D01*
X60868Y22941D01*
X60991Y22740D01*
X61144Y22561D01*
X61151Y22555D01*
X61471Y22235D01*
X61435Y22088D01*
X61401Y21654D01*
X61435Y21220D01*
X61537Y20797D01*
X61703Y20396D01*
X61930Y20025D01*
X62213Y19694D01*
X62544Y19411D01*
X62915Y19184D01*
X63316Y19018D01*
X63739Y18916D01*
X64173Y18882D01*
X64607Y18916D01*
X65030Y19018D01*
X65431Y19184D01*
X65802Y19411D01*
X66133Y19694D01*
X66416Y20025D01*
X66643Y20396D01*
X66809Y20797D01*
X66911Y21220D01*
X66945Y21654D01*
X66911Y22088D01*
X66809Y22511D01*
X66643Y22912D01*
X66416Y23283D01*
X66133Y23614D01*
X65890Y23822D01*
X68196Y23829D01*
X68346Y23865D01*
X68489Y23924D01*
X68620Y24005D01*
X68738Y24105D01*
X68838Y24223D01*
X68891Y24309D01*
X68892Y23860D01*
X68929Y23707D01*
X68989Y23562D01*
X69071Y23428D01*
X69173Y23309D01*
X69292Y23207D01*
X69426Y23125D01*
X69571Y23065D01*
X69724Y23028D01*
X69880Y23016D01*
X72441Y23021D01*
Y21715D01*
X72154Y21784D01*
X71261Y21854D01*
X70368Y21784D01*
X69497Y21575D01*
X68669Y21232D01*
X67905Y20764D01*
X67224Y20182D01*
X66642Y19501D01*
X66174Y18737D01*
X65831Y17909D01*
X65622Y17038D01*
X65552Y16145D01*
X65622Y15252D01*
X65831Y14381D01*
X66174Y13553D01*
X66642Y12789D01*
X67224Y12108D01*
X67905Y11526D01*
X68669Y11058D01*
X69497Y10715D01*
X70368Y10506D01*
X71261Y10436D01*
X72154Y10506D01*
X72441Y10575D01*
Y0D01*
X25960D01*
Y5260D01*
X32794Y5271D01*
X32944Y5307D01*
X33087Y5366D01*
X33218Y5447D01*
X33336Y5547D01*
X33436Y5665D01*
X33517Y5796D01*
X33576Y5939D01*
X33612Y6089D01*
X33624Y6243D01*
X33620Y10729D01*
X53151Y10744D01*
X53158Y10745D01*
X53165Y10744D01*
X53288Y10754D01*
X53504Y10771D01*
X53516Y10774D01*
X53517D01*
X53557Y10784D01*
X53847Y10854D01*
X53853Y10857D01*
X53859Y10858D01*
X53950Y10897D01*
X54004Y10919D01*
X54497Y10715D01*
X55368Y10506D01*
X56261Y10436D01*
X57154Y10506D01*
X58025Y10715D01*
X58853Y11058D01*
X59617Y11526D01*
X60298Y12108D01*
X60880Y12789D01*
X61348Y13553D01*
X61691Y14381D01*
X61900Y15252D01*
X61970Y16145D01*
X61900Y17038D01*
X61691Y17909D01*
X61348Y18737D01*
X60880Y19501D01*
X60298Y20182D01*
X59617Y20764D01*
X58853Y21232D01*
X58025Y21575D01*
X57154Y21784D01*
X56261Y21854D01*
X55368Y21784D01*
X54497Y21575D01*
X53669Y21232D01*
X52905Y20764D01*
X52224Y20182D01*
X51642Y19501D01*
X51174Y18737D01*
X50831Y17909D01*
X50622Y17038D01*
X50552Y16145D01*
X50622Y15252D01*
X50625Y15241D01*
X33616Y15228D01*
X33612Y19859D01*
X33576Y20009D01*
X33517Y20152D01*
X33436Y20283D01*
X33336Y20401D01*
X33218Y20501D01*
X33087Y20582D01*
X32944Y20641D01*
X32794Y20677D01*
X32640Y20689D01*
X25960Y20679D01*
Y20941D01*
X45276D01*
X45511Y20959D01*
X45740Y21014D01*
X45957Y21104D01*
X46158Y21227D01*
X46337Y21380D01*
X46349Y21394D01*
X49472Y24518D01*
X49486Y24530D01*
X49639Y24709D01*
X49762Y24910D01*
X49852Y25127D01*
X49907Y25356D01*
X49925Y25591D01*
Y27126D01*
X50324Y27128D01*
X50553Y27183D01*
X50770Y27273D01*
X50971Y27396D01*
X51150Y27549D01*
X51303Y27728D01*
X51426Y27929D01*
X51516Y28146D01*
X51571Y28375D01*
X51589Y28610D01*
X51571Y31745D01*
X51516Y31974D01*
X51426Y32191D01*
X51303Y32392D01*
X51150Y32571D01*
X50971Y32724D01*
X50770Y32847D01*
X50553Y32937D01*
X50324Y32992D01*
X50089Y33010D01*
X46354Y32992D01*
X46125Y32937D01*
X45908Y32847D01*
X45707Y32724D01*
X45528Y32571D01*
X45375Y32392D01*
X45252Y32191D01*
X45162Y31974D01*
X45107Y31745D01*
X45089Y31510D01*
X45107Y28375D01*
X45162Y28146D01*
X45252Y27929D01*
X45375Y27728D01*
X45528Y27549D01*
X45707Y27396D01*
X45908Y27273D01*
X46125Y27183D01*
X46354Y27128D01*
X46589Y27110D01*
X46924Y27112D01*
Y26212D01*
X44654Y23941D01*
X25960D01*
Y55384D01*
G37*
G36*
Y83934D02*X27633D01*
Y75818D01*
X25960Y74145D01*
Y83934D01*
G37*
G36*
X11418Y5262D02*X17290Y5271D01*
X17440Y5307D01*
X17583Y5366D01*
X17714Y5447D01*
X17832Y5547D01*
X17932Y5665D01*
X18013Y5796D01*
X18072Y5939D01*
X18108Y6089D01*
X18120Y6243D01*
X18108Y19897D01*
X18072Y20047D01*
X18013Y20190D01*
X17932Y20321D01*
X17832Y20439D01*
X17714Y20539D01*
X17583Y20620D01*
X17440Y20679D01*
X17290Y20715D01*
X17136Y20727D01*
X12400Y20720D01*
X12479Y20812D01*
X12558Y20941D01*
X25960D01*
Y20679D01*
X24985Y20677D01*
X24835Y20641D01*
X24692Y20582D01*
X24561Y20501D01*
X24443Y20401D01*
X24343Y20283D01*
X24262Y20152D01*
X24203Y20009D01*
X24167Y19859D01*
X24155Y19705D01*
X24167Y6089D01*
X24203Y5939D01*
X24262Y5796D01*
X24343Y5665D01*
X24443Y5547D01*
X24561Y5447D01*
X24692Y5366D01*
X24835Y5307D01*
X24985Y5271D01*
X25139Y5259D01*
X25960Y5260D01*
Y0D01*
X11418D01*
Y5262D01*
G37*
G36*
Y85596D02*X12634Y84380D01*
X12640Y84373D01*
X12819Y84220D01*
X13020Y84097D01*
X13237Y84007D01*
X13466Y83952D01*
X13701Y83934D01*
X25960D01*
Y74145D01*
X25711Y73896D01*
X25558Y73717D01*
X25435Y73516D01*
X25344Y73299D01*
X25289Y73070D01*
X25271Y72835D01*
Y56693D01*
X25290Y56458D01*
X25345Y56229D01*
X25435Y56012D01*
X25558Y55811D01*
X25711Y55632D01*
X25718Y55626D01*
X25960Y55384D01*
Y23941D01*
X12558D01*
X12479Y24070D01*
X12196Y24401D01*
X11865Y24684D01*
X11494Y24911D01*
X11418Y24942D01*
Y59918D01*
X12303Y59957D01*
X13182Y60073D01*
X14047Y60265D01*
X14893Y60531D01*
X15712Y60871D01*
X16498Y61280D01*
X17246Y61756D01*
X17949Y62296D01*
X18602Y62895D01*
X19201Y63548D01*
X19741Y64251D01*
X20217Y64999D01*
X20626Y65785D01*
X20966Y66604D01*
X21232Y67450D01*
X21424Y68315D01*
X21540Y69194D01*
X21579Y70079D01*
X21540Y70965D01*
X21424Y71844D01*
X21232Y72710D01*
X20966Y73555D01*
X20626Y74374D01*
X20217Y75160D01*
X19741Y75908D01*
X19201Y76612D01*
X18602Y77265D01*
X17949Y77864D01*
X17245Y78404D01*
X16498Y78880D01*
X15711Y79289D01*
X14892Y79629D01*
X14047Y79895D01*
X13181Y80087D01*
X12302Y80203D01*
X11418Y80241D01*
Y85596D01*
G37*
G36*
X0Y0D02*Y114961D01*
X861D01*
Y109844D01*
X880Y109609D01*
X935Y109380D01*
X1025Y109163D01*
X1148Y108962D01*
X1301Y108783D01*
X1480Y108630D01*
X1681Y108507D01*
X1898Y108417D01*
X2127Y108362D01*
X2362Y108344D01*
X2375Y108345D01*
X5507D01*
Y102125D01*
X3773Y102120D01*
X3544Y102065D01*
X3327Y101975D01*
X3126Y101852D01*
X2947Y101699D01*
X2794Y101520D01*
X2671Y101319D01*
X2581Y101102D01*
X2526Y100873D01*
X2508Y100638D01*
X2526Y94403D01*
X2581Y94174D01*
X2671Y93957D01*
X2794Y93756D01*
X2947Y93577D01*
X3126Y93424D01*
X3327Y93301D01*
X3544Y93211D01*
X3773Y93156D01*
X4008Y93138D01*
X5507Y93142D01*
Y92126D01*
X5526Y91891D01*
X5581Y91662D01*
X5671Y91445D01*
X5794Y91244D01*
X5947Y91065D01*
X5954Y91059D01*
X9026Y87988D01*
X9029Y86923D01*
X9065Y86773D01*
X9124Y86630D01*
X9205Y86499D01*
X9305Y86381D01*
X9423Y86281D01*
X9554Y86200D01*
X9697Y86141D01*
X9847Y86105D01*
X10001Y86093D01*
X10917Y86097D01*
X11418Y85596D01*
Y80241D01*
X11417D01*
X10531Y80203D01*
X9652Y80087D01*
X8787Y79895D01*
X7941Y79629D01*
X7122Y79289D01*
X6336Y78880D01*
X5588Y78404D01*
X4885Y77864D01*
X4232Y77265D01*
X3633Y76612D01*
X3093Y75909D01*
X2617Y75161D01*
X2208Y74375D01*
X1868Y73556D01*
X1602Y72710D01*
X1410Y71845D01*
X1294Y70966D01*
X1256Y70080D01*
X1294Y69195D01*
X1410Y68316D01*
X1602Y67450D01*
X1868Y66605D01*
X2208Y65786D01*
X2617Y64999D01*
X3093Y64252D01*
X3633Y63548D01*
X4232Y62895D01*
X4885Y62296D01*
X5589Y61756D01*
X6336Y61280D01*
X7123Y60871D01*
X7942Y60531D01*
X8787Y60265D01*
X9653Y60073D01*
X10532Y59957D01*
X11418Y59918D01*
Y24942D01*
X11093Y25077D01*
X10670Y25179D01*
X10236Y25213D01*
X9802Y25179D01*
X9379Y25077D01*
X8978Y24911D01*
X8607Y24684D01*
X8276Y24401D01*
X7993Y24070D01*
X7766Y23699D01*
X7600Y23298D01*
X7498Y22875D01*
X7464Y22441D01*
X7498Y22007D01*
X7600Y21584D01*
X7766Y21183D01*
X7993Y20812D01*
X8276Y20481D01*
X8607Y20198D01*
X8731Y20122D01*
X8700Y20047D01*
X8664Y19897D01*
X8652Y19743D01*
X8656Y15244D01*
X7628D01*
X7567Y15344D01*
X7159Y15821D01*
X6682Y16229D01*
X6147Y16557D01*
X5567Y16797D01*
X4957Y16944D01*
X4331Y16993D01*
X3705Y16944D01*
X3095Y16797D01*
X2515Y16557D01*
X1980Y16229D01*
X1503Y15821D01*
X1095Y15344D01*
X767Y14809D01*
X527Y14229D01*
X380Y13619D01*
X331Y12993D01*
X380Y12367D01*
X527Y11757D01*
X767Y11177D01*
X1095Y10642D01*
X1503Y10165D01*
X1980Y9757D01*
X2515Y9429D01*
X3095Y9189D01*
X3705Y9042D01*
X4331Y8993D01*
X4957Y9042D01*
X5567Y9189D01*
X6147Y9429D01*
X6682Y9757D01*
X7159Y10165D01*
X7567Y10642D01*
X7629Y10743D01*
X8660D01*
X8664Y6089D01*
X8700Y5939D01*
X8759Y5796D01*
X8840Y5665D01*
X8940Y5547D01*
X9058Y5447D01*
X9189Y5366D01*
X9332Y5307D01*
X9482Y5271D01*
X9636Y5259D01*
X11418Y5262D01*
Y0D01*
X0D01*
G37*
G36*
X47009Y134600D02*X47118Y134422D01*
X47526Y133945D01*
X48003Y133537D01*
X48538Y133209D01*
X49118Y132969D01*
X49728Y132822D01*
X50354Y132773D01*
X50980Y132822D01*
X51590Y132969D01*
X52170Y133209D01*
X52705Y133537D01*
X53182Y133945D01*
X53590Y134422D01*
X53918Y134957D01*
X54158Y135537D01*
X54305Y136147D01*
X54314Y136258D01*
X54320Y136177D01*
X54423Y135750D01*
X54591Y135344D01*
X54821Y134969D01*
X55106Y134635D01*
X55440Y134350D01*
X55815Y134120D01*
X56221Y133952D01*
X56648Y133849D01*
X57086Y133815D01*
X57524Y133849D01*
X57951Y133952D01*
X58357Y134120D01*
X58732Y134350D01*
X59066Y134635D01*
X59351Y134969D01*
X59561Y135311D01*
Y134791D01*
X53133Y128363D01*
X52904Y128095D01*
X52719Y127793D01*
X52584Y127467D01*
X52502Y127124D01*
X52474Y126772D01*
Y118898D01*
X52502Y118546D01*
X52584Y118203D01*
X52719Y117877D01*
X52904Y117575D01*
X53133Y117307D01*
X53401Y117078D01*
X53703Y116893D01*
X54029Y116758D01*
X54037Y116756D01*
X57893Y112901D01*
X57804Y112847D01*
X57710Y112766D01*
X57629Y112672D01*
X57565Y112567D01*
X57518Y112453D01*
X57489Y112332D01*
X57479Y112209D01*
X57489Y106188D01*
X51574D01*
X51222Y106160D01*
X50879Y106077D01*
X50553Y105942D01*
X50251Y105757D01*
X49983Y105528D01*
X47009Y102554D01*
Y109674D01*
X47713Y109729D01*
X48400Y109894D01*
X49052Y110164D01*
X49654Y110533D01*
X50191Y110992D01*
X50650Y111529D01*
X51019Y112131D01*
X51289Y112783D01*
X51454Y113470D01*
X51509Y114174D01*
X51454Y114878D01*
X51289Y115565D01*
X51019Y116217D01*
X50650Y116819D01*
X50191Y117356D01*
X49654Y117815D01*
X49052Y118184D01*
X48400Y118454D01*
X47713Y118619D01*
X47009Y118674D01*
Y134600D01*
G37*
G36*
X37008Y138189D02*X38586D01*
X39118Y137969D01*
X39728Y137822D01*
X40354Y137773D01*
X40980Y137822D01*
X41590Y137969D01*
X42122Y138189D01*
X46624D01*
X46550Y138009D01*
X46403Y137399D01*
X46354Y136773D01*
X46403Y136147D01*
X46550Y135537D01*
X46790Y134957D01*
X47009Y134600D01*
Y118674D01*
X46305Y118619D01*
X45618Y118454D01*
X44966Y118184D01*
X44364Y117815D01*
X43827Y117356D01*
X43368Y116819D01*
X42999Y116217D01*
X42729Y115565D01*
X42564Y114878D01*
X42509Y114174D01*
X42564Y113470D01*
X42729Y112783D01*
X42999Y112131D01*
X43368Y111529D01*
X43827Y110992D01*
X44364Y110533D01*
X44966Y110164D01*
X45618Y109894D01*
X46305Y109729D01*
X47009Y109674D01*
Y102554D01*
X41457Y97001D01*
X41487Y97207D01*
X41508Y97638D01*
X41487Y98070D01*
X41425Y98497D01*
X41322Y98917D01*
X41180Y99324D01*
X41126Y99429D01*
X41058Y99525D01*
X40976Y99609D01*
X40881Y99679D01*
X40777Y99733D01*
X40665Y99770D01*
X40549Y99790D01*
X40432Y99791D01*
X40315Y99773D01*
X40203Y99738D01*
X40098Y99685D01*
X40002Y99617D01*
X39918Y99535D01*
X39848Y99440D01*
X39794Y99336D01*
X39757Y99224D01*
X39737Y99108D01*
X39736Y98991D01*
X39754Y98874D01*
X39789Y98762D01*
X39884Y98491D01*
X39952Y98211D01*
X39994Y97926D01*
X40008Y97638D01*
X39994Y97351D01*
X39952Y97066D01*
X39884Y96786D01*
X39789Y96515D01*
X39753Y96403D01*
X39735Y96286D01*
X39736Y96168D01*
X39756Y96052D01*
X39793Y95941D01*
X39848Y95836D01*
X39918Y95741D01*
X40002Y95659D01*
X40068Y95612D01*
X39227Y94771D01*
X38846D01*
X38809Y94798D01*
X38705Y94852D01*
X38593Y94889D01*
X38477Y94909D01*
X38360Y94910D01*
X38243Y94892D01*
X38131Y94857D01*
X37886Y94771D01*
X37008D01*
Y100638D01*
X37295Y100625D01*
X37580Y100583D01*
X37860Y100515D01*
X38131Y100420D01*
X38243Y100384D01*
X38360Y100366D01*
X38478Y100367D01*
X38594Y100387D01*
X38705Y100424D01*
X38810Y100479D01*
X38905Y100549D01*
X38987Y100633D01*
X39055Y100729D01*
X39108Y100834D01*
X39143Y100946D01*
X39161Y101063D01*
X39160Y101181D01*
X39140Y101297D01*
X39103Y101408D01*
X39048Y101513D01*
X38978Y101608D01*
X38894Y101690D01*
X38798Y101758D01*
X38693Y101811D01*
X38286Y101953D01*
X37866Y102056D01*
X37439Y102118D01*
X37008Y102138D01*
Y109674D01*
X37009D01*
X37713Y109729D01*
X38400Y109894D01*
X39052Y110164D01*
X39654Y110533D01*
X40191Y110992D01*
X40650Y111529D01*
X41019Y112131D01*
X41289Y112783D01*
X41454Y113470D01*
X41509Y114174D01*
X41454Y114878D01*
X41289Y115565D01*
X41019Y116217D01*
X40650Y116819D01*
X40191Y117356D01*
X39654Y117815D01*
X39052Y118184D01*
X38400Y118454D01*
X37713Y118619D01*
X37009Y118674D01*
X37008D01*
Y138189D01*
G37*
G36*
X33394Y111499D02*X33827Y110992D01*
X34364Y110533D01*
X34966Y110164D01*
X35618Y109894D01*
X36305Y109729D01*
X37008Y109674D01*
Y102138D01*
X36576Y102118D01*
X36149Y102056D01*
X35729Y101953D01*
X35322Y101811D01*
X35217Y101757D01*
X35121Y101689D01*
X35037Y101607D01*
X34967Y101512D01*
X34913Y101408D01*
X34876Y101296D01*
X34856Y101180D01*
X34855Y101063D01*
X34873Y100946D01*
X34908Y100834D01*
X34961Y100729D01*
X35029Y100633D01*
X35111Y100549D01*
X35206Y100479D01*
X35310Y100425D01*
X35422Y100388D01*
X35538Y100368D01*
X35655Y100367D01*
X35772Y100385D01*
X35884Y100420D01*
X36155Y100515D01*
X36435Y100583D01*
X36720Y100625D01*
X37008Y100638D01*
Y94771D01*
X36129D01*
X35884Y94857D01*
X35772Y94893D01*
X35655Y94911D01*
X35537Y94910D01*
X35421Y94890D01*
X35310Y94853D01*
X35205Y94798D01*
X35168Y94771D01*
X33938D01*
X33850Y94874D01*
X33519Y95157D01*
X33394Y95233D01*
Y95499D01*
X33466Y95487D01*
X33583Y95486D01*
X33700Y95504D01*
X33812Y95539D01*
X33917Y95592D01*
X34013Y95660D01*
X34097Y95742D01*
X34167Y95837D01*
X34221Y95941D01*
X34258Y96053D01*
X34278Y96169D01*
X34279Y96286D01*
X34261Y96403D01*
X34226Y96515D01*
X34131Y96786D01*
X34063Y97066D01*
X34021Y97351D01*
X34008Y97638D01*
X34021Y97926D01*
X34063Y98211D01*
X34131Y98491D01*
X34226Y98762D01*
X34262Y98874D01*
X34280Y98991D01*
X34279Y99109D01*
X34259Y99225D01*
X34222Y99336D01*
X34167Y99441D01*
X34097Y99536D01*
X34013Y99618D01*
X33917Y99686D01*
X33812Y99739D01*
X33700Y99774D01*
X33583Y99792D01*
X33465Y99791D01*
X33394Y99779D01*
Y111499D01*
G37*
G36*
Y138189D02*X37008D01*
Y118674D01*
X36305Y118619D01*
X35618Y118454D01*
X34966Y118184D01*
X34364Y117815D01*
X33827Y117356D01*
X33394Y116849D01*
Y138189D01*
G37*
G36*
X27008Y90334D02*X28550Y88792D01*
X28633Y88722D01*
X28715Y88651D01*
X28899Y88538D01*
X29099Y88455D01*
X29309Y88405D01*
X29525Y88388D01*
X29793D01*
X29794Y88194D01*
X29647Y88069D01*
X28513Y86935D01*
X27008D01*
Y90334D01*
G37*
G36*
X30623Y138189D02*X33394D01*
Y116849D01*
X33368Y116819D01*
X32999Y116217D01*
X32729Y115565D01*
X32564Y114878D01*
X32509Y114174D01*
X32564Y113470D01*
X32729Y112783D01*
X32999Y112131D01*
X33368Y111529D01*
X33394Y111499D01*
Y99779D01*
X33349Y99771D01*
X33238Y99734D01*
X33133Y99679D01*
X33038Y99609D01*
X32956Y99525D01*
X32888Y99429D01*
X32835Y99324D01*
X32693Y98917D01*
X32590Y98497D01*
X32528Y98070D01*
X32508Y97638D01*
X32528Y97207D01*
X32590Y96780D01*
X32693Y96360D01*
X32835Y95953D01*
X32889Y95848D01*
X32957Y95752D01*
X33039Y95668D01*
X33134Y95598D01*
X33238Y95544D01*
X33350Y95507D01*
X33394Y95499D01*
Y95233D01*
X33148Y95384D01*
X32747Y95550D01*
X32324Y95652D01*
X31890Y95686D01*
X31456Y95652D01*
X31033Y95550D01*
X30976Y95526D01*
X31018Y95595D01*
X31288Y96247D01*
X31453Y96934D01*
X31508Y97638D01*
X31453Y98342D01*
X31288Y99029D01*
X31018Y99681D01*
X30649Y100283D01*
X30623Y100313D01*
Y112034D01*
X30667Y112042D01*
X30778Y112079D01*
X30883Y112134D01*
X30978Y112204D01*
X31060Y112288D01*
X31128Y112384D01*
X31181Y112489D01*
X31323Y112896D01*
X31426Y113316D01*
X31488Y113743D01*
X31509Y114174D01*
X31488Y114606D01*
X31426Y115033D01*
X31323Y115453D01*
X31181Y115860D01*
X31127Y115965D01*
X31059Y116061D01*
X30977Y116145D01*
X30882Y116215D01*
X30778Y116269D01*
X30666Y116306D01*
X30623Y116313D01*
Y138189D01*
G37*
G36*
X27008D02*X30623D01*
Y116313D01*
X30550Y116326D01*
X30433Y116327D01*
X30316Y116309D01*
X30204Y116274D01*
X30099Y116221D01*
X30003Y116153D01*
X29919Y116071D01*
X29849Y115976D01*
X29795Y115872D01*
X29758Y115760D01*
X29738Y115644D01*
X29737Y115527D01*
X29755Y115410D01*
X29790Y115298D01*
X29885Y115027D01*
X29953Y114747D01*
X29995Y114462D01*
X30009Y114174D01*
X29995Y113887D01*
X29953Y113602D01*
X29885Y113322D01*
X29790Y113051D01*
X29754Y112939D01*
X29736Y112822D01*
X29737Y112704D01*
X29757Y112588D01*
X29794Y112477D01*
X29849Y112372D01*
X29919Y112277D01*
X30003Y112195D01*
X30099Y112127D01*
X30204Y112074D01*
X30316Y112039D01*
X30433Y112021D01*
X30551Y112022D01*
X30623Y112034D01*
Y100313D01*
X30190Y100820D01*
X29653Y101279D01*
X29051Y101648D01*
X28399Y101918D01*
X27712Y102083D01*
X27008Y102138D01*
Y109674D01*
X27009D01*
X27440Y109695D01*
X27867Y109757D01*
X28287Y109860D01*
X28694Y110002D01*
X28799Y110056D01*
X28895Y110124D01*
X28979Y110206D01*
X29049Y110301D01*
X29103Y110405D01*
X29140Y110517D01*
X29160Y110633D01*
X29161Y110750D01*
X29143Y110867D01*
X29108Y110979D01*
X29055Y111084D01*
X28987Y111180D01*
X28905Y111264D01*
X28810Y111334D01*
X28706Y111388D01*
X28594Y111425D01*
X28478Y111445D01*
X28361Y111446D01*
X28244Y111428D01*
X28132Y111393D01*
X27861Y111298D01*
X27581Y111230D01*
X27296Y111188D01*
X27009Y111174D01*
X27008D01*
Y117174D01*
X27009D01*
X27296Y117161D01*
X27581Y117119D01*
X27861Y117051D01*
X28132Y116956D01*
X28244Y116920D01*
X28361Y116902D01*
X28479Y116903D01*
X28595Y116923D01*
X28706Y116960D01*
X28811Y117015D01*
X28906Y117085D01*
X28988Y117169D01*
X29056Y117265D01*
X29109Y117370D01*
X29144Y117482D01*
X29162Y117599D01*
X29161Y117717D01*
X29141Y117833D01*
X29104Y117944D01*
X29049Y118049D01*
X28979Y118144D01*
X28895Y118226D01*
X28799Y118294D01*
X28694Y118347D01*
X28287Y118489D01*
X27867Y118592D01*
X27440Y118654D01*
X27009Y118674D01*
X27008D01*
Y138189D01*
G37*
G36*
X8508Y92747D02*Y93151D01*
X10243Y93156D01*
X10472Y93211D01*
X10689Y93301D01*
X10890Y93424D01*
X11069Y93577D01*
X11222Y93756D01*
X11345Y93957D01*
X11435Y94174D01*
X11490Y94403D01*
X11508Y94638D01*
X11490Y100873D01*
X11435Y101102D01*
X11345Y101319D01*
X11222Y101520D01*
X11069Y101699D01*
X10890Y101852D01*
X10689Y101975D01*
X10472Y102065D01*
X10243Y102120D01*
X10008Y102138D01*
X8508Y102134D01*
Y108345D01*
X19692D01*
X19782Y108198D01*
X20067Y107864D01*
X20401Y107579D01*
X20776Y107349D01*
X21182Y107181D01*
X21609Y107078D01*
X22047Y107044D01*
X22485Y107078D01*
X22912Y107181D01*
X23318Y107349D01*
X23693Y107579D01*
X24027Y107864D01*
X24312Y108198D01*
X24542Y108573D01*
X24710Y108979D01*
X24813Y109406D01*
X24847Y109844D01*
X24813Y110282D01*
X24710Y110709D01*
X24542Y111115D01*
X24312Y111490D01*
X24027Y111824D01*
X23754Y112057D01*
X23813Y112075D01*
X23918Y112128D01*
X24014Y112196D01*
X24098Y112278D01*
X24168Y112373D01*
X24222Y112477D01*
X24259Y112589D01*
X24279Y112705D01*
X24280Y112822D01*
X24262Y112939D01*
X24227Y113051D01*
X24132Y113322D01*
X24064Y113602D01*
X24022Y113887D01*
X24009Y114174D01*
X24022Y114462D01*
X24064Y114747D01*
X24132Y115027D01*
X24227Y115298D01*
X24263Y115410D01*
X24281Y115527D01*
X24280Y115645D01*
X24260Y115761D01*
X24223Y115872D01*
X24168Y115977D01*
X24098Y116072D01*
X24014Y116154D01*
X23918Y116222D01*
X23813Y116275D01*
X23701Y116310D01*
X23584Y116328D01*
X23466Y116327D01*
X23350Y116307D01*
X23239Y116270D01*
X23134Y116215D01*
X23039Y116145D01*
X22957Y116061D01*
X22889Y115965D01*
X22836Y115860D01*
X22694Y115453D01*
X22591Y115033D01*
X22529Y114606D01*
X22509Y114174D01*
X22529Y113743D01*
X22591Y113316D01*
X22694Y112896D01*
X22822Y112529D01*
X22485Y112610D01*
X22047Y112644D01*
X21609Y112610D01*
X21182Y112507D01*
X21173Y112503D01*
X21289Y112783D01*
X21454Y113470D01*
X21509Y114174D01*
X21454Y114878D01*
X21289Y115565D01*
X21019Y116217D01*
X20650Y116819D01*
X20191Y117356D01*
X19654Y117815D01*
X19052Y118184D01*
X18400Y118454D01*
X17713Y118619D01*
X17009Y118674D01*
X16305Y118619D01*
X15618Y118454D01*
X14966Y118184D01*
X14364Y117815D01*
X13827Y117356D01*
X13368Y116819D01*
X12999Y116217D01*
X12729Y115565D01*
X12564Y114878D01*
X12509Y114174D01*
X12564Y113470D01*
X12729Y112783D01*
X12999Y112131D01*
X13368Y111529D01*
X13526Y111344D01*
X11509D01*
X11491Y117409D01*
X11436Y117638D01*
X11346Y117855D01*
X11223Y118056D01*
X11070Y118235D01*
X10891Y118388D01*
X10690Y118511D01*
X10473Y118601D01*
X10244Y118656D01*
X10009Y118674D01*
X8585Y118670D01*
Y128837D01*
X8761Y128413D01*
X9367Y127423D01*
X10121Y126540D01*
X11004Y125786D01*
X11994Y125180D01*
X13067Y124735D01*
X14196Y124464D01*
X15354Y124373D01*
X16512Y124464D01*
X17641Y124735D01*
X18714Y125180D01*
X19704Y125786D01*
X20587Y126540D01*
X21341Y127423D01*
X21947Y128413D01*
X22392Y129486D01*
X22663Y130615D01*
X22754Y131773D01*
X22663Y132931D01*
X22392Y134060D01*
X21947Y135133D01*
X21341Y136123D01*
X20587Y137006D01*
X19704Y137760D01*
X19003Y138189D01*
X21742D01*
X21957Y138057D01*
X22363Y137889D01*
X22790Y137786D01*
X23228Y137752D01*
X23666Y137786D01*
X24093Y137889D01*
X24499Y138057D01*
X24714Y138189D01*
X27008D01*
Y118674D01*
X26577Y118654D01*
X26150Y118592D01*
X25730Y118489D01*
X25323Y118347D01*
X25218Y118293D01*
X25122Y118225D01*
X25038Y118143D01*
X24968Y118048D01*
X24914Y117944D01*
X24877Y117832D01*
X24857Y117716D01*
X24856Y117599D01*
X24874Y117482D01*
X24909Y117370D01*
X24962Y117265D01*
X25030Y117169D01*
X25112Y117085D01*
X25207Y117015D01*
X25311Y116961D01*
X25423Y116924D01*
X25539Y116904D01*
X25656Y116903D01*
X25773Y116921D01*
X25885Y116956D01*
X26156Y117051D01*
X26436Y117119D01*
X26721Y117161D01*
X27008Y117174D01*
Y111174D01*
X26721Y111188D01*
X26436Y111230D01*
X26156Y111298D01*
X25885Y111393D01*
X25773Y111429D01*
X25656Y111447D01*
X25538Y111446D01*
X25422Y111426D01*
X25311Y111389D01*
X25206Y111334D01*
X25111Y111264D01*
X25029Y111180D01*
X24961Y111084D01*
X24908Y110979D01*
X24873Y110867D01*
X24855Y110750D01*
X24856Y110632D01*
X24876Y110516D01*
X24913Y110405D01*
X24968Y110300D01*
X25038Y110205D01*
X25122Y110123D01*
X25218Y110055D01*
X25323Y110002D01*
X25730Y109860D01*
X26150Y109757D01*
X26577Y109695D01*
X27008Y109674D01*
Y102138D01*
X26304Y102083D01*
X25617Y101918D01*
X24965Y101648D01*
X24363Y101279D01*
X23826Y100820D01*
X23367Y100283D01*
X22998Y99681D01*
X22728Y99029D01*
X22563Y98342D01*
X22508Y97638D01*
X22563Y96934D01*
X22728Y96247D01*
X22998Y95595D01*
X23367Y94993D01*
X23826Y94456D01*
X24363Y93997D01*
X24965Y93628D01*
X25617Y93358D01*
X25786Y93317D01*
Y92126D01*
X25804Y91910D01*
X25854Y91700D01*
X25937Y91500D01*
X26050Y91316D01*
X26115Y91241D01*
X26190Y91152D01*
X27008Y90334D01*
Y86935D01*
X19640D01*
X19651Y87077D01*
X19639Y91031D01*
X19603Y91181D01*
X19544Y91324D01*
X19463Y91455D01*
X19363Y91573D01*
X19245Y91673D01*
X19114Y91754D01*
X18971Y91813D01*
X18821Y91849D01*
X18667Y91861D01*
X18386Y91860D01*
Y93355D01*
X18399Y93358D01*
X19051Y93628D01*
X19653Y93997D01*
X20190Y94456D01*
X20649Y94993D01*
X21018Y95595D01*
X21288Y96247D01*
X21453Y96934D01*
X21508Y97638D01*
X21453Y98342D01*
X21288Y99029D01*
X21018Y99681D01*
X20649Y100283D01*
X20190Y100820D01*
X19653Y101279D01*
X19051Y101648D01*
X18399Y101918D01*
X17712Y102083D01*
X17008Y102138D01*
X16304Y102083D01*
X15617Y101918D01*
X14965Y101648D01*
X14363Y101279D01*
X13826Y100820D01*
X13367Y100283D01*
X12998Y99681D01*
X12728Y99029D01*
X12563Y98342D01*
X12508Y97638D01*
X12563Y96934D01*
X12728Y96247D01*
X12998Y95595D01*
X13367Y94993D01*
X13826Y94456D01*
X14363Y93997D01*
X14965Y93628D01*
X15617Y93358D01*
X15629Y93355D01*
Y91837D01*
X15531Y91813D01*
X15388Y91754D01*
X15257Y91673D01*
X15139Y91573D01*
X15039Y91455D01*
X14958Y91324D01*
X14899Y91181D01*
X14863Y91031D01*
X14851Y90877D01*
X14863Y86935D01*
X14321D01*
X13816Y87440D01*
X13805Y91031D01*
X13769Y91181D01*
X13710Y91324D01*
X13629Y91455D01*
X13529Y91573D01*
X13411Y91673D01*
X13280Y91754D01*
X13137Y91813D01*
X12987Y91849D01*
X12833Y91861D01*
X9847Y91849D01*
X9697Y91813D01*
X9554Y91754D01*
X9521Y91734D01*
X8508Y92747D01*
G37*
G36*
X47074Y151199D02*X47554Y150719D01*
X47560Y150712D01*
X47739Y150559D01*
X47940Y150436D01*
X48157Y150346D01*
X48386Y150291D01*
X48443Y150287D01*
X48414Y150272D01*
X48349Y150230D01*
X48291Y150177D01*
X48243Y150115D01*
X48204Y150047D01*
X48176Y149974D01*
X48160Y149897D01*
X48157Y149818D01*
X48166Y149740D01*
X48187Y149664D01*
X48219Y149593D01*
X48262Y149527D01*
X48315Y149469D01*
X48377Y149421D01*
X48445Y149382D01*
X48518Y149354D01*
X48595Y149338D01*
X48674Y149335D01*
X48752Y149344D01*
X48828Y149365D01*
X48899Y149397D01*
X49142Y149518D01*
X49395Y149616D01*
X49655Y149691D01*
X49922Y149742D01*
X50192Y149769D01*
X50463Y149772D01*
X50733Y149749D01*
X51000Y149703D01*
X51262Y149632D01*
X51517Y149539D01*
X51762Y149422D01*
X51835Y149392D01*
X51911Y149372D01*
X51989Y149365D01*
X52067Y149370D01*
X52143Y149387D01*
X52216Y149415D01*
X52284Y149455D01*
X52344Y149505D01*
X52396Y149564D01*
X52399Y149569D01*
X52465Y149519D01*
X52673Y149329D01*
X52863Y149121D01*
X53034Y148898D01*
X53074Y148835D01*
X53049Y148812D01*
X53001Y148750D01*
X52962Y148682D01*
X52934Y148609D01*
X52918Y148532D01*
X52915Y148453D01*
X52924Y148375D01*
X52945Y148299D01*
X52977Y148228D01*
X53098Y147985D01*
X53196Y147732D01*
X53271Y147472D01*
X53322Y147205D01*
X53349Y146935D01*
X53352Y146664D01*
X53329Y146394D01*
X53283Y146127D01*
X53212Y145865D01*
X53119Y145610D01*
X53002Y145365D01*
X52972Y145292D01*
X52952Y145216D01*
X52945Y145138D01*
X52950Y145060D01*
X52967Y144984D01*
X52995Y144911D01*
X53035Y144843D01*
X53048Y144828D01*
X53034Y144806D01*
X52863Y144583D01*
X52673Y144375D01*
X52465Y144185D01*
X52359Y144104D01*
X52330Y144126D01*
X52262Y144165D01*
X52189Y144193D01*
X52112Y144209D01*
X52033Y144212D01*
X51955Y144203D01*
X51879Y144182D01*
X51808Y144150D01*
X51565Y144029D01*
X51312Y143931D01*
X51052Y143856D01*
X50785Y143805D01*
X50515Y143778D01*
X50244Y143775D01*
X49974Y143798D01*
X49707Y143844D01*
X49445Y143915D01*
X49190Y144008D01*
X48945Y144125D01*
X48872Y144155D01*
X48796Y144175D01*
X48718Y144182D01*
X48640Y144177D01*
X48564Y144160D01*
X48491Y144132D01*
X48423Y144092D01*
X48363Y144042D01*
X48311Y143983D01*
X48269Y143917D01*
X48238Y143845D01*
X48218Y143769D01*
X48211Y143691D01*
X48216Y143613D01*
X48233Y143537D01*
X48261Y143464D01*
X48280Y143431D01*
X47074D01*
Y144627D01*
X47080Y144624D01*
X47153Y144596D01*
X47230Y144580D01*
X47309Y144577D01*
X47387Y144586D01*
X47463Y144607D01*
X47534Y144639D01*
X47600Y144682D01*
X47658Y144735D01*
X47706Y144797D01*
X47745Y144865D01*
X47773Y144938D01*
X47789Y145015D01*
X47792Y145094D01*
X47783Y145172D01*
X47762Y145248D01*
X47730Y145319D01*
X47609Y145562D01*
X47511Y145815D01*
X47436Y146075D01*
X47385Y146342D01*
X47358Y146612D01*
X47355Y146883D01*
X47378Y147153D01*
X47424Y147420D01*
X47495Y147682D01*
X47588Y147937D01*
X47705Y148182D01*
X47735Y148255D01*
X47755Y148331D01*
X47762Y148409D01*
X47757Y148487D01*
X47740Y148563D01*
X47712Y148636D01*
X47672Y148704D01*
X47622Y148764D01*
X47563Y148816D01*
X47497Y148858D01*
X47425Y148889D01*
X47349Y148909D01*
X47271Y148916D01*
X47193Y148911D01*
X47117Y148894D01*
X47074Y148878D01*
Y151199D01*
G37*
G36*
X37074Y155688D02*X37122Y155640D01*
X37128Y155633D01*
X37307Y155480D01*
X37508Y155357D01*
X37725Y155267D01*
X37954Y155212D01*
X38189Y155194D01*
X38310D01*
X38291Y155177D01*
X38243Y155115D01*
X38204Y155047D01*
X38176Y154974D01*
X38160Y154897D01*
X38157Y154818D01*
X38166Y154740D01*
X38187Y154664D01*
X38219Y154593D01*
X38262Y154527D01*
X38315Y154469D01*
X38377Y154421D01*
X38445Y154382D01*
X38518Y154354D01*
X38595Y154338D01*
X38674Y154335D01*
X38752Y154344D01*
X38828Y154365D01*
X38899Y154397D01*
X39142Y154518D01*
X39395Y154616D01*
X39655Y154691D01*
X39922Y154742D01*
X40192Y154769D01*
X40463Y154772D01*
X40733Y154749D01*
X41000Y154703D01*
X41262Y154632D01*
X41517Y154539D01*
X41762Y154422D01*
X41835Y154392D01*
X41911Y154372D01*
X41989Y154365D01*
X42067Y154370D01*
X42143Y154387D01*
X42216Y154415D01*
X42284Y154455D01*
X42344Y154505D01*
X42396Y154564D01*
X42438Y154630D01*
X42469Y154702D01*
X42489Y154778D01*
X42496Y154856D01*
X42491Y154934D01*
X42474Y155010D01*
X42446Y155083D01*
X42406Y155151D01*
X42370Y155194D01*
X43079D01*
X47074Y151199D01*
Y148878D01*
X47044Y148866D01*
X46976Y148826D01*
X46916Y148776D01*
X46864Y148717D01*
X46822Y148651D01*
X46667Y148325D01*
X46542Y147985D01*
X46448Y147636D01*
X46386Y147280D01*
X46356Y146919D01*
X46359Y146558D01*
X46395Y146198D01*
X46463Y145843D01*
X46563Y145495D01*
X46694Y145158D01*
X46855Y144834D01*
X46897Y144769D01*
X46950Y144711D01*
X47012Y144663D01*
X47074Y144627D01*
Y143431D01*
X43983D01*
X43918Y143589D01*
X43619Y144077D01*
X43745Y144087D01*
X44172Y144190D01*
X44578Y144358D01*
X44952Y144588D01*
X45286Y144873D01*
X45571Y145207D01*
X45801Y145581D01*
X45969Y145987D01*
X46072Y146414D01*
X46106Y146852D01*
X46072Y147290D01*
X45969Y147717D01*
X45801Y148123D01*
X45571Y148497D01*
X45286Y148831D01*
X44952Y149116D01*
X44578Y149346D01*
X44172Y149514D01*
X43745Y149617D01*
X43506Y149636D01*
X43514D01*
X43590Y149653D01*
X43663Y149681D01*
X43731Y149721D01*
X43791Y149771D01*
X43843Y149830D01*
X43885Y149896D01*
X44040Y150222D01*
X44165Y150562D01*
X44259Y150911D01*
X44321Y151267D01*
X44351Y151628D01*
X44348Y151989D01*
X44312Y152349D01*
X44244Y152704D01*
X44144Y153052D01*
X44013Y153389D01*
X43852Y153713D01*
X43810Y153778D01*
X43757Y153836D01*
X43695Y153884D01*
X43627Y153923D01*
X43554Y153951D01*
X43477Y153967D01*
X43398Y153970D01*
X43320Y153961D01*
X43244Y153940D01*
X43173Y153908D01*
X43107Y153865D01*
X43049Y153812D01*
X43001Y153750D01*
X42962Y153682D01*
X42934Y153609D01*
X42918Y153532D01*
X42915Y153453D01*
X42924Y153375D01*
X42945Y153299D01*
X42977Y153228D01*
X43098Y152985D01*
X43196Y152732D01*
X43271Y152472D01*
X43322Y152205D01*
X43349Y151935D01*
X43352Y151664D01*
X43329Y151394D01*
X43283Y151127D01*
X43212Y150865D01*
X43119Y150610D01*
X43002Y150365D01*
X42972Y150292D01*
X42952Y150216D01*
X42945Y150138D01*
X42950Y150060D01*
X42967Y149984D01*
X42995Y149911D01*
X43035Y149843D01*
X43085Y149783D01*
X43144Y149731D01*
X43210Y149689D01*
X43282Y149658D01*
X43309Y149651D01*
X43307D01*
X42869Y149617D01*
X42442Y149514D01*
X42036Y149346D01*
X41662Y149116D01*
X41556Y149025D01*
X41312Y148931D01*
X41052Y148856D01*
X40785Y148805D01*
X40515Y148778D01*
X40244Y148775D01*
X39974Y148798D01*
X39707Y148844D01*
X39445Y148915D01*
X39190Y149008D01*
X38945Y149125D01*
X38872Y149155D01*
X38796Y149175D01*
X38718Y149182D01*
X38640Y149177D01*
X38564Y149160D01*
X38491Y149132D01*
X38423Y149092D01*
X38363Y149042D01*
X38311Y148983D01*
X38269Y148917D01*
X38238Y148845D01*
X38218Y148769D01*
X38211Y148691D01*
X38216Y148613D01*
X38233Y148537D01*
X38261Y148464D01*
X38301Y148396D01*
X38351Y148336D01*
X38410Y148284D01*
X38476Y148242D01*
X38652Y148158D01*
X38492Y148060D01*
X38314Y147908D01*
X37074Y146668D01*
Y149627D01*
X37080Y149624D01*
X37153Y149596D01*
X37230Y149580D01*
X37309Y149577D01*
X37387Y149586D01*
X37463Y149607D01*
X37534Y149639D01*
X37600Y149682D01*
X37658Y149735D01*
X37706Y149797D01*
X37745Y149865D01*
X37773Y149938D01*
X37789Y150015D01*
X37792Y150094D01*
X37783Y150172D01*
X37762Y150248D01*
X37730Y150319D01*
X37609Y150562D01*
X37511Y150815D01*
X37436Y151075D01*
X37385Y151342D01*
X37358Y151612D01*
X37355Y151883D01*
X37378Y152153D01*
X37424Y152420D01*
X37495Y152682D01*
X37588Y152937D01*
X37705Y153182D01*
X37735Y153255D01*
X37755Y153331D01*
X37762Y153409D01*
X37757Y153487D01*
X37740Y153563D01*
X37712Y153636D01*
X37672Y153704D01*
X37622Y153764D01*
X37563Y153816D01*
X37497Y153858D01*
X37425Y153889D01*
X37349Y153909D01*
X37271Y153916D01*
X37193Y153911D01*
X37117Y153894D01*
X37074Y153878D01*
Y155688D01*
G37*
G36*
X26775Y161024D02*X31738D01*
X37074Y155688D01*
Y153878D01*
X37044Y153866D01*
X36976Y153826D01*
X36916Y153776D01*
X36864Y153717D01*
X36822Y153651D01*
X36667Y153325D01*
X36542Y152985D01*
X36448Y152636D01*
X36386Y152280D01*
X36356Y151919D01*
X36359Y151558D01*
X36395Y151198D01*
X36463Y150843D01*
X36563Y150495D01*
X36694Y150158D01*
X36855Y149834D01*
X36897Y149769D01*
X36950Y149711D01*
X37012Y149663D01*
X37074Y149627D01*
Y146668D01*
X33041Y142635D01*
X31721D01*
X30830Y143526D01*
Y146669D01*
X31003Y146388D01*
X31288Y146054D01*
X31622Y145769D01*
X31996Y145539D01*
X32402Y145371D01*
X32829Y145268D01*
X33267Y145234D01*
X33705Y145268D01*
X34132Y145371D01*
X34538Y145539D01*
X34912Y145769D01*
X35246Y146054D01*
X35531Y146388D01*
X35761Y146762D01*
X35929Y147168D01*
X36032Y147595D01*
X36066Y148033D01*
X36032Y148471D01*
X35929Y148898D01*
X35761Y149304D01*
X35531Y149678D01*
X35246Y150012D01*
X34912Y150297D01*
X34759Y150391D01*
Y152462D01*
X34767Y152561D01*
X34748Y152795D01*
X34693Y153024D01*
X34603Y153242D01*
X34480Y153442D01*
X34327Y153621D01*
X27241Y160708D01*
X27063Y160860D01*
X26863Y160983D01*
X26783Y161016D01*
X26775Y161024D01*
G37*
G36*
X0Y248032D02*X8347D01*
X8316Y247957D01*
X8045Y246828D01*
X7954Y245670D01*
X8045Y244512D01*
X8316Y243383D01*
X8761Y242310D01*
X9367Y241320D01*
X10121Y240437D01*
X11004Y239683D01*
X11994Y239077D01*
X12949Y238681D01*
X9126Y234476D01*
X9079Y234415D01*
X9022Y234348D01*
X8998Y234309D01*
X8983Y234289D01*
X8955Y234238D01*
X8899Y234147D01*
X8882Y234107D01*
X8869Y234083D01*
X8850Y234030D01*
X8808Y233930D01*
X8795Y233877D01*
X8790Y233862D01*
X8784Y233829D01*
X8753Y233701D01*
X8749Y233645D01*
X8746Y233630D01*
X8745Y233593D01*
X8735Y233466D01*
Y224411D01*
X8754Y224176D01*
X8809Y223947D01*
X8899Y223730D01*
X9022Y223529D01*
X9175Y223350D01*
X9182Y223344D01*
X13500Y219026D01*
X13506Y219019D01*
X13685Y218866D01*
X13886Y218743D01*
X14103Y218653D01*
X14332Y218598D01*
X14567Y218580D01*
X15362D01*
X15451Y218434D01*
X15736Y218100D01*
X16070Y217815D01*
X16445Y217585D01*
X16851Y217417D01*
X17278Y217314D01*
X17716Y217280D01*
X18154Y217314D01*
X18581Y217417D01*
X18987Y217585D01*
X19362Y217815D01*
X19696Y218100D01*
X19748Y218160D01*
X19778Y218034D01*
X19946Y217628D01*
X20176Y217253D01*
X20461Y216919D01*
X20795Y216634D01*
X21170Y216404D01*
X21576Y216236D01*
X22003Y216133D01*
X22441Y216099D01*
X22879Y216133D01*
X23306Y216236D01*
X23712Y216404D01*
X24087Y216634D01*
X24421Y216919D01*
X24706Y217253D01*
X24796Y217399D01*
X25197D01*
Y168983D01*
X24962Y169289D01*
X24602Y169683D01*
X24208Y170043D01*
X23785Y170368D01*
X23335Y170655D01*
X22861Y170901D01*
X22368Y171106D01*
X21859Y171266D01*
X21338Y171382D01*
X20809Y171451D01*
X20499Y171464D01*
X20587Y171540D01*
X21341Y172423D01*
X21947Y173413D01*
X22392Y174486D01*
X22663Y175615D01*
X22754Y176773D01*
X22663Y177931D01*
X22392Y179060D01*
X21947Y180133D01*
X21341Y181123D01*
X20587Y182006D01*
X19704Y182760D01*
X19038Y183167D01*
X19362Y183366D01*
X19696Y183651D01*
X19981Y183985D01*
X20211Y184360D01*
X20379Y184766D01*
X20482Y185193D01*
X20516Y185631D01*
X20482Y186069D01*
X20379Y186496D01*
X20211Y186902D01*
X19981Y187277D01*
X19696Y187611D01*
X19362Y187896D01*
X19208Y187990D01*
Y189934D01*
X24283Y195009D01*
X24436Y195186D01*
X24559Y195386D01*
X24648Y195603D01*
X24703Y195830D01*
X24721Y196064D01*
X24720Y196077D01*
Y200291D01*
X24728Y200395D01*
X24690Y201247D01*
X24579Y202092D01*
X24395Y202924D01*
X24138Y203736D01*
X23812Y204524D01*
X23419Y205279D01*
X22961Y205998D01*
X22442Y206674D01*
X21867Y207303D01*
X21715Y207442D01*
X22091Y207471D01*
X22518Y207574D01*
X22924Y207742D01*
X23299Y207972D01*
X23633Y208257D01*
X23918Y208591D01*
X24148Y208966D01*
X24316Y209372D01*
X24419Y209799D01*
X24453Y210237D01*
X24419Y210675D01*
X24316Y211102D01*
X24148Y211508D01*
X23918Y211883D01*
X23633Y212217D01*
X23299Y212502D01*
X22924Y212732D01*
X22518Y212900D01*
X22091Y213003D01*
X21653Y213037D01*
X21215Y213003D01*
X20788Y212900D01*
X20382Y212732D01*
X20007Y212502D01*
X19968Y212469D01*
X16421Y216016D01*
X16415Y216023D01*
X16236Y216176D01*
X16035Y216299D01*
X15818Y216389D01*
X15589Y216444D01*
X15355Y216462D01*
X11417D01*
X11182Y216444D01*
X10953Y216389D01*
X10736Y216299D01*
X10535Y216176D01*
X10356Y216023D01*
X8781Y214448D01*
X8628Y214269D01*
X8505Y214068D01*
X8414Y213851D01*
X8359Y213622D01*
X8341Y213387D01*
Y207665D01*
X8169Y207945D01*
X7884Y208279D01*
X7550Y208564D01*
X7176Y208794D01*
X6770Y208962D01*
X6343Y209065D01*
X5905Y209099D01*
X5467Y209065D01*
X5272Y209018D01*
X5413Y209183D01*
X5643Y209557D01*
X5811Y209963D01*
X5914Y210390D01*
X5948Y210828D01*
X5914Y211266D01*
X5811Y211693D01*
X5643Y212099D01*
X5413Y212473D01*
X5128Y212807D01*
X4794Y213092D01*
X4420Y213322D01*
X4014Y213490D01*
X3587Y213593D01*
X3149Y213627D01*
X2711Y213593D01*
X2284Y213490D01*
X1878Y213322D01*
X1504Y213092D01*
X1170Y212807D01*
X885Y212473D01*
X655Y212099D01*
X487Y211693D01*
X384Y211266D01*
X350Y210828D01*
X384Y210390D01*
X487Y209963D01*
X655Y209557D01*
X861Y209222D01*
Y183269D01*
X880Y183034D01*
X935Y182805D01*
X1025Y182588D01*
X1148Y182387D01*
X1301Y182208D01*
X1480Y182055D01*
X1681Y181932D01*
X1761Y181899D01*
X3921Y179739D01*
Y176772D01*
X3964Y175776D01*
X4094Y174787D01*
X4310Y173813D01*
X4610Y172862D01*
X4992Y171941D01*
X5452Y171056D01*
X5988Y170215D01*
X6595Y169424D01*
X7269Y168688D01*
X8005Y168014D01*
X8796Y167407D01*
X9637Y166871D01*
X10522Y166411D01*
X11443Y166029D01*
X12334Y165748D01*
X0D01*
Y248032D01*
G37*
G36*
X23622Y207481D02*X34972D01*
X29656Y202252D01*
X29652Y202247D01*
X29647Y202243D01*
X29494Y202064D01*
X29371Y201863D01*
X29281Y201646D01*
X29226Y201417D01*
X29208Y201182D01*
X29209Y164174D01*
X29228Y163938D01*
X29249Y163851D01*
X29282Y163711D01*
X29372Y163494D01*
X29373Y163493D01*
Y163492D01*
X29448Y163370D01*
X29495Y163293D01*
X29648Y163114D01*
X37122Y155640D01*
X37128Y155633D01*
X37307Y155480D01*
X37402Y155422D01*
Y153895D01*
X37349Y153909D01*
X37271Y153916D01*
X37193Y153911D01*
X37117Y153894D01*
X37044Y153866D01*
X36976Y153826D01*
X36916Y153776D01*
X36864Y153717D01*
X36822Y153651D01*
X36667Y153325D01*
X36542Y152985D01*
X36448Y152636D01*
X36386Y152280D01*
X36356Y151919D01*
X36359Y151558D01*
X36395Y151198D01*
X36463Y150843D01*
X36563Y150495D01*
X36694Y150158D01*
X36855Y149834D01*
X36897Y149769D01*
X36950Y149711D01*
X37012Y149663D01*
X37080Y149624D01*
X37153Y149596D01*
X37230Y149580D01*
X37309Y149577D01*
X37387Y149586D01*
X37402Y149590D01*
Y148032D01*
X36066D01*
Y148033D01*
X36032Y148471D01*
X35929Y148898D01*
X35761Y149304D01*
X35531Y149678D01*
X35246Y150012D01*
X34912Y150297D01*
X34759Y150391D01*
Y152462D01*
X34767Y152561D01*
X34748Y152795D01*
X34693Y153024D01*
X34603Y153242D01*
X34480Y153442D01*
X34327Y153621D01*
X27241Y160708D01*
X27063Y160860D01*
X26863Y160983D01*
X26783Y161016D01*
X26394Y161405D01*
Y165552D01*
X26377Y165770D01*
X26375Y165778D01*
X26370Y165890D01*
X26301Y166419D01*
X26185Y166940D01*
X26025Y167449D01*
X25820Y167942D01*
X25574Y168415D01*
X25287Y168866D01*
X24962Y169289D01*
X24602Y169683D01*
X24208Y170043D01*
X23785Y170368D01*
X23622Y170472D01*
Y194348D01*
X24283Y195009D01*
X24436Y195186D01*
X24559Y195386D01*
X24648Y195603D01*
X24703Y195830D01*
X24721Y196064D01*
X24720Y196077D01*
Y200291D01*
X24728Y200395D01*
X24690Y201247D01*
X24579Y202092D01*
X24395Y202924D01*
X24138Y203736D01*
X23812Y204524D01*
X23622Y204889D01*
Y207481D01*
G37*
G36*
X0Y167323D02*X8928D01*
X9637Y166871D01*
X10522Y166411D01*
X11443Y166029D01*
X12394Y165729D01*
X13368Y165513D01*
X13602Y165482D01*
X13505Y165459D01*
X13099Y165291D01*
X12724Y165061D01*
X12390Y164776D01*
X12105Y164442D01*
X11875Y164067D01*
X11707Y163661D01*
X11604Y163234D01*
X11570Y162796D01*
X11604Y162358D01*
X11707Y161931D01*
X11875Y161525D01*
X12105Y161150D01*
X12390Y160816D01*
X12724Y160531D01*
X12882Y160434D01*
X12724Y160337D01*
X12390Y160052D01*
X12105Y159718D01*
X11875Y159343D01*
X11707Y158937D01*
X11604Y158510D01*
X11570Y158072D01*
X11604Y157634D01*
X11707Y157207D01*
X11875Y156801D01*
X12105Y156426D01*
X12390Y156092D01*
X12724Y155807D01*
X12869Y155718D01*
Y143732D01*
X6327Y137190D01*
X6343Y137403D01*
X6309Y137841D01*
X6206Y138268D01*
X6038Y138674D01*
X5808Y139049D01*
X5523Y139383D01*
X5189Y139668D01*
X4814Y139898D01*
X4408Y140066D01*
X3981Y140169D01*
X3543Y140203D01*
X3105Y140169D01*
X2678Y140066D01*
X2272Y139898D01*
X1897Y139668D01*
X1563Y139383D01*
X1278Y139049D01*
X1048Y138674D01*
X880Y138268D01*
X777Y137841D01*
X743Y137403D01*
X777Y136965D01*
X880Y136538D01*
X1048Y136132D01*
X1278Y135757D01*
X1563Y135423D01*
X1897Y135138D01*
X2043Y135048D01*
Y120308D01*
X1301Y119566D01*
X1148Y119387D01*
X1025Y119186D01*
X934Y118969D01*
X879Y118740D01*
X861Y118505D01*
Y112993D01*
X0D01*
Y167323D01*
G37*
G36*
X78186Y216734D02*X81693D01*
Y203348D01*
X78186D01*
Y208590D01*
X80058Y208597D01*
X80226Y208637D01*
X80385Y208703D01*
X80533Y208793D01*
X80664Y208905D01*
X80776Y209036D01*
X80866Y209184D01*
X80932Y209343D01*
X80972Y209511D01*
X80986Y209683D01*
X80972Y213855D01*
X80932Y214023D01*
X80866Y214182D01*
X80776Y214330D01*
X80664Y214461D01*
X80533Y214573D01*
X80385Y214663D01*
X80226Y214729D01*
X80058Y214769D01*
X79886Y214783D01*
X78186Y214776D01*
Y216734D01*
G37*
G36*
X69330D02*X78186D01*
Y214776D01*
X76314Y214769D01*
X76146Y214729D01*
X75987Y214663D01*
X75839Y214573D01*
X75708Y214461D01*
X75596Y214330D01*
X75506Y214182D01*
X75440Y214023D01*
X75400Y213855D01*
X75386Y213683D01*
X75400Y209511D01*
X75440Y209343D01*
X75506Y209184D01*
X75596Y209036D01*
X75708Y208905D01*
X75839Y208793D01*
X75987Y208703D01*
X76146Y208637D01*
X76314Y208597D01*
X76486Y208583D01*
X78186Y208590D01*
Y203348D01*
X69330D01*
Y216734D01*
G37*
G36*
X85986D02*X92716D01*
Y203348D01*
X85986D01*
Y208590D01*
X87858Y208597D01*
X88026Y208637D01*
X88185Y208703D01*
X88333Y208793D01*
X88464Y208905D01*
X88576Y209036D01*
X88666Y209184D01*
X88732Y209343D01*
X88772Y209511D01*
X88786Y209683D01*
X88772Y213855D01*
X88732Y214023D01*
X88666Y214182D01*
X88576Y214330D01*
X88464Y214461D01*
X88333Y214573D01*
X88185Y214663D01*
X88026Y214729D01*
X87858Y214769D01*
X87686Y214783D01*
X85986Y214776D01*
Y216734D01*
G37*
G36*
X82519D02*X85986D01*
Y214776D01*
X84114Y214769D01*
X83946Y214729D01*
X83787Y214663D01*
X83639Y214573D01*
X83508Y214461D01*
X83396Y214330D01*
X83306Y214182D01*
X83240Y214023D01*
X83200Y213855D01*
X83186Y213683D01*
X83200Y209511D01*
X83240Y209343D01*
X83306Y209184D01*
X83396Y209036D01*
X83508Y208905D01*
X83639Y208793D01*
X83787Y208703D01*
X83946Y208637D01*
X84114Y208597D01*
X84286Y208583D01*
X85986Y208590D01*
Y203348D01*
X82519D01*
Y216734D01*
G37*
G36*
X92716Y219293D02*X84881D01*
X84872Y222055D01*
X84832Y222223D01*
X84766Y222382D01*
X84676Y222530D01*
X84564Y222661D01*
X84433Y222773D01*
X84285Y222863D01*
X84126Y222929D01*
X83958Y222969D01*
X83786Y222983D01*
X80214Y222969D01*
X80046Y222929D01*
X79887Y222863D01*
X79739Y222773D01*
X79608Y222661D01*
X79496Y222530D01*
X79406Y222382D01*
X79340Y222223D01*
X79300Y222055D01*
X79286Y221883D01*
X79295Y219293D01*
X69291D01*
Y229135D01*
X79291D01*
X79300Y226372D01*
X79340Y226204D01*
X79406Y226045D01*
X79496Y225897D01*
X79608Y225766D01*
X79739Y225654D01*
X79887Y225564D01*
X80046Y225498D01*
X80214Y225458D01*
X80386Y225444D01*
X83958Y225458D01*
X84126Y225498D01*
X84285Y225564D01*
X84433Y225654D01*
X84564Y225766D01*
X84676Y225897D01*
X84766Y226045D01*
X84832Y226204D01*
X84872Y226372D01*
X84886Y226544D01*
X84877Y229135D01*
X92716D01*
Y219293D01*
G37*
G36*
X85986Y245080D02*X92716D01*
Y231694D01*
X85986D01*
Y233651D01*
X87858Y233658D01*
X88026Y233698D01*
X88185Y233764D01*
X88333Y233854D01*
X88464Y233966D01*
X88576Y234097D01*
X88666Y234245D01*
X88732Y234404D01*
X88772Y234572D01*
X88786Y234744D01*
X88772Y238916D01*
X88732Y239084D01*
X88666Y239243D01*
X88576Y239391D01*
X88464Y239522D01*
X88333Y239634D01*
X88185Y239724D01*
X88026Y239790D01*
X87858Y239830D01*
X87686Y239844D01*
X85986Y239837D01*
Y245080D01*
G37*
G36*
X82519D02*X85986D01*
Y239837D01*
X84114Y239830D01*
X83946Y239790D01*
X83787Y239724D01*
X83639Y239634D01*
X83508Y239522D01*
X83396Y239391D01*
X83306Y239243D01*
X83240Y239084D01*
X83200Y238916D01*
X83186Y238744D01*
X83200Y234572D01*
X83240Y234404D01*
X83306Y234245D01*
X83396Y234097D01*
X83508Y233966D01*
X83639Y233854D01*
X83787Y233764D01*
X83946Y233698D01*
X84114Y233658D01*
X84286Y233644D01*
X85986Y233651D01*
Y231694D01*
X82519D01*
Y245080D01*
G37*
G36*
X78739Y182285D02*X81889D01*
Y159647D01*
X78739D01*
Y162067D01*
X80580Y162073D01*
X80717Y162106D01*
X80848Y162160D01*
X80968Y162234D01*
X81075Y162326D01*
X81167Y162433D01*
X81241Y162553D01*
X81295Y162684D01*
X81328Y162821D01*
X81339Y162962D01*
X81328Y167103D01*
X81295Y167240D01*
X81241Y167371D01*
X81167Y167491D01*
X81075Y167598D01*
X80968Y167690D01*
X80848Y167764D01*
X80717Y167818D01*
X80580Y167851D01*
X80439Y167862D01*
X78739Y167857D01*
Y182285D01*
G37*
G36*
X75393Y159658D02*Y182285D01*
X78739D01*
Y167857D01*
X76898Y167851D01*
X76761Y167818D01*
X76630Y167764D01*
X76510Y167690D01*
X76403Y167598D01*
X76311Y167491D01*
X76237Y167371D01*
X76183Y167240D01*
X76150Y167103D01*
X76139Y166962D01*
X76150Y162821D01*
X76183Y162684D01*
X76237Y162553D01*
X76311Y162433D01*
X76403Y162326D01*
X76510Y162234D01*
X76630Y162160D01*
X76761Y162106D01*
X76898Y162073D01*
X77039Y162062D01*
X78739Y162067D01*
Y159647D01*
X76697D01*
X76680Y159651D01*
X76539Y159662D01*
X75393Y159658D01*
G37*
G36*
X72981Y159647D02*X71485D01*
X71466Y159888D01*
X71363Y160315D01*
X71195Y160721D01*
X70965Y161096D01*
X70680Y161430D01*
X70346Y161715D01*
X69971Y161945D01*
X69685Y162063D01*
X72780Y162073D01*
X72917Y162106D01*
X73048Y162160D01*
X73168Y162234D01*
X73275Y162326D01*
X73367Y162433D01*
X73441Y162553D01*
X73495Y162684D01*
X73528Y162821D01*
X73539Y162962D01*
X73528Y167103D01*
X73495Y167240D01*
X73441Y167371D01*
X73367Y167491D01*
X73275Y167598D01*
X73168Y167690D01*
X73048Y167764D01*
X72917Y167818D01*
X72780Y167851D01*
X72639Y167862D01*
X69488Y167852D01*
Y182285D01*
X74409D01*
Y159655D01*
X72998Y159651D01*
X72981Y159647D01*
G37*
G36*
X69291Y139371D02*Y156694D01*
X72244D01*
X72250Y154621D01*
X72283Y154484D01*
X72337Y154353D01*
X72411Y154233D01*
X72503Y154126D01*
X72610Y154034D01*
X72730Y153960D01*
X72861Y153906D01*
X72998Y153873D01*
X73139Y153862D01*
X76680Y153873D01*
X76817Y153906D01*
X76948Y153960D01*
X77068Y154034D01*
X77175Y154126D01*
X77267Y154233D01*
X77341Y154353D01*
X77395Y154484D01*
X77428Y154621D01*
X77439Y154762D01*
X77434Y156694D01*
X82086D01*
Y139371D01*
X69291D01*
G37*
G36*
X81652Y245080D02*Y231694D01*
X78186D01*
Y233651D01*
X80058Y233658D01*
X80226Y233698D01*
X80385Y233764D01*
X80533Y233854D01*
X80664Y233966D01*
X80776Y234097D01*
X80866Y234245D01*
X80932Y234404D01*
X80972Y234572D01*
X80986Y234744D01*
X80972Y238916D01*
X80932Y239084D01*
X80866Y239243D01*
X80776Y239391D01*
X80664Y239522D01*
X80533Y239634D01*
X80385Y239724D01*
X80226Y239790D01*
X80058Y239830D01*
X79886Y239844D01*
X78186Y239837D01*
Y245080D01*
X81652D01*
G37*
G36*
X78186Y231694D02*X72525D01*
Y238191D01*
X72498Y238543D01*
X72416Y238887D01*
X72281Y239213D01*
X72096Y239514D01*
X71867Y239783D01*
X71847Y239800D01*
X69290Y242357D01*
Y245080D01*
X78186D01*
Y239837D01*
X76314Y239830D01*
X76146Y239790D01*
X75987Y239724D01*
X75839Y239634D01*
X75708Y239522D01*
X75596Y239391D01*
X75506Y239243D01*
X75440Y239084D01*
X75400Y238916D01*
X75386Y238744D01*
X75400Y234572D01*
X75440Y234404D01*
X75506Y234245D01*
X75596Y234097D01*
X75708Y233966D01*
X75839Y233854D01*
X75987Y233764D01*
X76146Y233698D01*
X76314Y233658D01*
X76486Y233644D01*
X78186Y233651D01*
Y231694D01*
G37*
G36*
X53937Y239371D02*X58267D01*
Y224804D01*
X68307D01*
Y174805D01*
X58267Y174804D01*
Y163781D01*
X68307D01*
Y162219D01*
X68262Y162216D01*
X67835Y162113D01*
X67429Y161945D01*
X67054Y161715D01*
X66720Y161430D01*
X66435Y161096D01*
X66205Y160721D01*
X66037Y160315D01*
X65934Y159888D01*
X65900Y159450D01*
X65934Y159012D01*
X66037Y158585D01*
X66205Y158179D01*
X66435Y157804D01*
X66720Y157470D01*
X67054Y157185D01*
X67429Y156955D01*
X67835Y156787D01*
X68262Y156684D01*
X68307Y156681D01*
Y150650D01*
X68218Y150865D01*
X67991Y151236D01*
X67708Y151567D01*
X67377Y151850D01*
X67006Y152077D01*
X66605Y152243D01*
X66182Y152345D01*
X65748Y152379D01*
X65314Y152345D01*
X64891Y152243D01*
X64490Y152077D01*
X64119Y151850D01*
X63788Y151567D01*
X63505Y151236D01*
X63278Y150865D01*
X63112Y150464D01*
X63010Y150041D01*
X62976Y149607D01*
X63010Y149173D01*
X63112Y148750D01*
X63278Y148349D01*
X63498Y147989D01*
Y142271D01*
X60598Y139371D01*
X57565D01*
X57524Y139381D01*
X57389Y139391D01*
X57676Y139765D01*
X58014Y140295D01*
X58304Y140853D01*
X58545Y141434D01*
X58734Y142034D01*
X58870Y142648D01*
X58952Y143271D01*
X58980Y143899D01*
X58979Y143912D01*
Y155697D01*
X58980Y155710D01*
X58951Y156373D01*
X58864Y157031D01*
X58720Y157678D01*
X58521Y158311D01*
X58267Y158923D01*
X57961Y159511D01*
X57605Y160071D01*
X57201Y160597D01*
X56753Y161086D01*
X56264Y161534D01*
X55738Y161938D01*
X55179Y162294D01*
X54590Y162600D01*
X54330Y162708D01*
Y166466D01*
X54354Y166773D01*
X54330Y167080D01*
Y168899D01*
X44882Y178347D01*
X44227D01*
X44188Y178380D01*
X43987Y178503D01*
X43770Y178593D01*
X43541Y178648D01*
X43307Y178666D01*
X43306D01*
X39370Y178667D01*
X39294Y178671D01*
X39220Y178681D01*
X39146Y178697D01*
X39075Y178719D01*
X39005Y178748D01*
X38939Y178783D01*
X38875Y178823D01*
X38815Y178869D01*
X38760Y178920D01*
X38709Y178975D01*
X38663Y179035D01*
X38623Y179098D01*
X38588Y179165D01*
X38559Y179235D01*
X38537Y179306D01*
X38521Y179380D01*
X38511Y179454D01*
X38508Y179529D01*
Y191507D01*
X48940Y201940D01*
X49118Y201866D01*
X49728Y201719D01*
X50354Y201670D01*
X50980Y201719D01*
X51590Y201866D01*
X51839Y201969D01*
X52756D01*
X53937Y203150D01*
Y203900D01*
X54158Y204434D01*
X54305Y205044D01*
X54354Y205670D01*
X54305Y206296D01*
X54158Y206906D01*
X53937Y207440D01*
Y209577D01*
X53952Y209585D01*
X54476Y209919D01*
X54969Y210297D01*
X55426Y210717D01*
X55846Y211174D01*
X56224Y211667D01*
X56558Y212191D01*
X56845Y212742D01*
X57082Y213316D01*
X57269Y213908D01*
X57403Y214514D01*
X57408Y214550D01*
X57517Y214728D01*
X57652Y215054D01*
X57734Y215397D01*
X57762Y215749D01*
Y220514D01*
X57734Y220866D01*
X57708Y220974D01*
X57652Y221208D01*
X57517Y221534D01*
X57516Y221535D01*
Y221536D01*
X57448Y221647D01*
X57332Y221836D01*
X57103Y222104D01*
X57102D01*
Y222105D01*
X54277Y224929D01*
X54305Y225044D01*
X54354Y225670D01*
X54305Y226296D01*
X54158Y226906D01*
X53937Y227440D01*
Y233900D01*
X54158Y234434D01*
X54305Y235044D01*
X54354Y235670D01*
X54305Y236296D01*
X54158Y236906D01*
X53937Y237440D01*
Y239371D01*
G37*
G54D12*X78186Y215516D02*Y211683D01*
X74803Y211615D02*X81102D01*
X78149Y208072D02*Y211646D01*
X78186Y211683D01*
X77165Y216537D02*X78186Y215516D01*
X78740Y219883D02*X85236D01*
G54D13*X55512Y220513D02*Y215749D01*
X50354Y225670D02*X55512Y220513D01*
G54D12*X85986Y215909D02*Y211683D01*
X89370Y211615D02*X83071D01*
X86023Y211646D02*X85986Y211683D01*
X86614Y216537D02*X85986Y215909D01*
X86023Y208072D02*Y211646D01*
X78186Y232912D02*X77165Y231891D01*
G54D13*X70275Y231694D02*X71063Y229332D01*
G54D12*X78543Y228544D02*X85433D01*
G54D13*X71063Y229332D02*Y224214D01*
G54D12*X85986Y232519D02*X86614Y231891D01*
G54D13*X71063Y224214D02*X82086D01*
Y228544D02*Y219883D01*
X66929Y241537D02*X70275Y238191D01*
X49016Y241537D02*X66929D01*
G54D14*X45472Y237993D02*X49016Y241537D01*
X45472Y237009D02*Y237993D01*
X44094Y235631D02*X45472Y237009D01*
X36613Y235631D02*X44094D01*
G54D13*X34645Y233663D02*X36613Y235631D01*
G54D12*X33267Y236615D02*Y244096D01*
X31496Y247639D02*X51968D01*
X52952Y246655D02*X61023D01*
X28543Y244686D02*X31496Y247639D01*
X51968D02*X52952Y246655D01*
X50393Y235709D02*X50354Y235670D01*
X22441Y231497D02*X29527Y238584D01*
G54D13*X65748Y249607D02*Y241733D01*
X34645Y226379D02*Y233663D01*
X40354Y220670D02*X34645Y226379D01*
G54D12*X31496Y234844D02*X33267Y236615D01*
X31496Y224017D02*Y234844D01*
G54D13*X40354Y230670D02*X50354Y225670D01*
X40354Y220670D02*X50354Y215670D01*
G54D12*X14567Y220080D02*X10236Y224411D01*
X17716Y220080D02*X14567D01*
X10236Y233466D02*X14173Y237796D01*
X10236Y224411D02*Y233466D01*
X7480Y235433D02*X9842Y237796D01*
X13386Y232285D02*Y226379D01*
G54D13*X13236Y270886D02*Y265504D01*
G54D12*X7480Y223623D02*Y235433D01*
G54D15*X23228Y246064D02*Y252954D01*
G54D13*X13236Y265504D02*X19291Y259449D01*
G54D12*X25197Y239371D02*Y249804D01*
X17716Y224804D02*Y231890D01*
X25197Y239371D01*
X14173Y237796D02*X15354D01*
X13386Y232285D02*X15354Y234253D01*
X22441Y223623D02*Y231497D01*
X12992Y211812D02*X14960Y208663D01*
X9842Y213387D02*Y206694D01*
X11417Y214962D02*X9842Y213387D01*
X15354Y214962D02*X11417D01*
X20079Y210237D02*X15354Y214962D01*
X21653Y210237D02*X20079D01*
X21653D02*Y210238D01*
X20469Y215356D02*X15352Y217324D01*
X13779D01*
X27559Y215356D02*X20469D01*
X26378Y218899D02*X31496Y224017D01*
X22441Y218899D02*X26378D01*
G54D13*X40354Y220670D02*X27559Y207875D01*
G54D12*X13779Y217324D02*X7480Y223623D01*
X27559Y215356D02*Y203544D01*
X25197Y249804D02*X57874D01*
X23228Y252954D02*X54724D01*
G54D13*X28740Y270867D02*X52676D01*
X19291Y259449D02*X55906D01*
X52676Y270867D02*X56220Y267323D01*
X74015Y257874D02*X65748Y249607D01*
X55906Y259449D02*X65748Y249607D01*
G54D12*X86054Y236812D02*X88976D01*
X85986Y236744D02*X86054Y236812D01*
X86023Y236781D02*Y240552D01*
X85986Y236744D02*X85918Y236812D01*
X78254D02*X81102D01*
X78186Y236744D02*X78254Y236812D01*
X78149Y236781D02*Y240159D01*
X78186Y236744D02*X78149Y236781D01*
X78118Y236812D02*X74606D01*
X78186Y236744D02*X78118Y236812D01*
X85986Y236744D02*X86023Y236781D01*
X85918Y236812D02*X83071D01*
X85986Y236744D02*Y232519D01*
X78186Y236744D02*Y232912D01*
G54D13*X70275Y238191D02*Y231694D01*
G54D12*X110629Y240159D02*X113084D01*
X110629Y237010D02*X113083D01*
X118898Y231103D01*
X114173Y233071D02*X113386Y233859D01*
X110630D01*
X110629Y233860D01*
X113084Y240159D02*X118989Y246064D01*
Y260631D02*Y256785D01*
X114173Y251969D01*
Y244095D01*
X113386Y243308D01*
X110630D01*
X110629Y243309D01*
X110630Y258269D02*Y273622D01*
X118989Y219988D02*X114173Y224803D01*
Y233071D01*
X103936Y240159D02*X101574D01*
X100000Y241733D01*
Y248819D01*
X103937Y243310D02*X103936Y243309D01*
X105118Y259843D02*X101575Y256300D01*
X94488Y257874D02*Y270080D01*
X98031Y273622D01*
X110630D01*
X101575Y256300D02*Y251575D01*
X103937Y249213D01*
X107087Y250788D02*X105118Y252757D01*
G54D16*X101575Y252363D02*X98819D01*
X94094Y247638D01*
G54D12*X105118Y252757D02*X110630Y258269D01*
G54D16*X101969Y226772D02*X95669Y220473D01*
X99213Y231890D02*X101969Y229134D01*
Y226772D01*
X105118Y232678D02*X103936Y233860D01*
G54D12*X98819Y227953D02*X97244Y229528D01*
Y240158D01*
G54D16*X99213Y237796D02*Y231890D01*
G54D13*X98819Y257874D02*X74015D01*
G54D12*X137795Y148426D02*X130709Y155512D01*
X108660Y149213D02*X130708Y127165D01*
G54D13*X126378Y146457D02*Y142126D01*
G54D12*X118988Y127165D02*Y122926D01*
X114173Y118111D01*
Y110236D01*
X113386Y109449D01*
X110628D01*
G54D16*X102362Y115749D02*X96456Y109843D01*
X98819Y114567D02*X94882Y110630D01*
X95669Y113779D02*X93308Y111417D01*
X74016Y124016D02*X68110Y129922D01*
X75590Y125198D02*X65749Y135039D01*
X65748Y135040D01*
X77165Y131497D02*X83465Y137796D01*
X68110Y129922D02*X64568D01*
G54D13*X61811Y133859D02*X54724Y126772D01*
Y118898D01*
G54D11*X59449Y114174D01*
X69291D01*
X70472Y112993D01*
G54D16*X64568Y129922D02*X64567Y129923D01*
G54D13*X65748Y149607D02*Y141339D01*
X61811Y137402D01*
Y133859D01*
G54D12*X110630Y180315D02*X113476Y180314D01*
G54D16*X103937Y180315D02*X102362D01*
X100787Y182284D01*
G54D12*X103936Y180316D02*X103937Y180315D01*
X113476Y180314D02*X118989Y185828D01*
X110630Y177166D02*X112598D01*
X112992Y174016D02*X110630D01*
X114173Y184251D02*X113386Y183464D01*
X110630Y183465D01*
G54D16*X102362Y161025D02*Y115749D01*
X98819Y164961D02*Y114567D01*
X95669Y181496D02*Y113779D01*
Y181496D02*X97638Y183465D01*
X100787D01*
G54D12*X98819Y170473D02*Y171653D01*
X98031Y172441D01*
Y179134D01*
X98819Y179922D01*
X112598Y177166D02*X118989Y170867D01*
Y155906D02*Y160145D01*
X114173Y164961D01*
Y172835D01*
X112992Y174016D01*
G54D16*X102362Y161025D02*X101969Y161418D01*
Y164174D01*
X98819Y164961D02*X101969Y168111D01*
G54D12*X105906Y149213D02*Y161811D01*
G54D16*X101969Y164174D02*X103937Y166142D01*
Y174016D01*
G54D12*X105118Y162599D02*X107087Y164568D01*
X105906Y161811D02*X105118Y162599D01*
G54D16*X94094Y198033D02*X87795Y191733D01*
X85039Y137008D02*Y194095D01*
X90945Y200000D01*
X83465Y137796D02*Y196850D01*
X86614Y200000D01*
X87795Y117717D02*X85434Y115356D01*
X89370Y116930D02*X87008Y114568D01*
G54D12*X84252Y124803D02*X82283Y126772D01*
X84252Y118898D02*Y124803D01*
G54D16*X87795Y191733D02*Y117717D01*
X89370Y190552D02*Y116930D01*
X94094Y187008D02*Y114567D01*
X92520Y188189D02*Y115353D01*
X90945Y189371D02*Y116143D01*
X94094Y114567D02*X91733Y112206D01*
X92520Y115353D02*X90157Y112991D01*
X90945Y116143D02*X88582Y113780D01*
X102756Y215748D02*X105118Y218111D01*
X102756Y215748D02*X99213Y212205D01*
G54D12*X108268Y207481D02*X105118D01*
X102362Y200788D02*X101969Y200395D01*
Y190945D02*X103937Y188977D01*
X101969Y200395D02*Y190945D01*
G54D16*X99213Y212205D02*Y194883D01*
G54D12*X103937Y249213D02*Y243310D01*
G54D16*X105118Y218111D02*Y232678D01*
X103543Y224410D02*Y229922D01*
G54D12*X107087Y224411D02*Y250788D01*
G54D16*X103543Y229922D02*X100787Y232678D01*
Y235827D01*
X101970Y237010D01*
X103936D01*
X101575Y240158D02*X99213Y237796D01*
X94094Y247638D02*Y198033D01*
X103543Y224410D02*X101182Y222048D01*
X101575D02*X97244Y217716D01*
X95669Y220473D02*Y196851D01*
X99212Y192126D02*X94094Y187008D01*
X99213Y194883D02*X92520Y188189D01*
X97244Y195670D02*X90945Y189371D01*
X95669Y196851D02*X89370Y190552D01*
X97244Y217716D02*Y195670D01*
G54D12*X118989Y215749D02*Y219988D01*
X108268Y222441D02*X107087Y224411D01*
X118989Y200788D02*Y196549D01*
X114173Y191733D01*
Y184251D01*
X108268Y191733D02*X107087Y190552D01*
X108268Y207481D02*Y191733D01*
Y222441D02*Y207481D01*
X130709Y260631D02*Y155512D01*
X103937Y188977D02*Y183465D01*
G54D16*X101969Y192126D02*X99212D01*
G54D12*X107087Y190552D02*X105118Y192520D01*
X105119D02*X105118D01*
G54D16*X100787Y187402D02*X100000Y188189D01*
X100787Y182284D02*Y187402D01*
X101969Y168111D02*Y171654D01*
G54D12*X105906Y149213D02*X108660D01*
X107087Y164568D02*Y190553D01*
G54D16*X101969Y171654D02*X100394Y173229D01*
Y176379D01*
X101181Y177166D01*
X103937D01*
G54D12*X70866Y165035D02*X70939Y164962D01*
Y161689D01*
X78740Y168505D02*Y164963D01*
X78739Y164962D01*
X81299D02*X75984D01*
X70939D02*X73819D01*
X70866Y168505D02*Y165035D01*
X70939Y161689D02*X68700Y159450D01*
X78739Y160829D02*X79527Y160041D01*
G54D16*X78740Y130709D02*X85039Y137008D01*
G54D12*X78739Y164962D02*Y160829D01*
X75497Y156104D02*X78543D01*
X74839Y156762D02*X75497Y156104D01*
X74181D02*X71260D01*
X74839Y156762D02*X74181Y156104D01*
G54D13*X74803Y156726D02*X74839Y156762D01*
Y151291D02*Y156762D01*
G54D15*X33267Y152560D02*Y148033D01*
G54D12*X27165Y151970D02*Y144489D01*
X29330Y142915D02*Y152560D01*
G54D13*X27559Y162600D02*X38386Y151773D01*
G54D15*X39370Y146852D02*X43307D01*
G54D13*X38386Y151773D02*X43700Y151970D01*
G54D15*X33661Y141143D02*X39370Y146852D01*
G54D12*X50393Y141930D02*X40511D01*
X40551D02*X40354Y141773D01*
X40511Y141930D02*X40354Y141773D01*
X57480Y143899D02*Y155710D01*
X55118Y146655D02*Y147048D01*
X50393Y151773D02*X48621D01*
X43700Y156694D01*
X38189D02*X43700D01*
G54D13*X40354Y161773D02*X50354Y156773D01*
Y146773D02*X43700Y151970D01*
G54D12*X30708Y201182D02*X30709Y164174D01*
G54D15*X17716Y190552D02*Y185631D01*
G54D13*X27559Y207875D02*Y162600D01*
G54D16*X7086Y176773D02*Y181497D01*
X5315Y176773D02*Y180316D01*
X19488Y170080D02*X15354Y168505D01*
X19488Y170080D02*X20275D01*
X20078Y168505D02*X20275D01*
X20079D02*X15354Y166733D01*
G54D12*X20275Y158860D02*X27165Y151970D01*
X23228Y153151D02*Y147245D01*
X18110Y158269D02*X23228Y153151D01*
X20275Y165356D02*Y158860D01*
G54D16*X25000Y160828D02*Y165552D01*
X23425Y158466D02*Y165356D01*
X26181Y159647D02*X25000Y160828D01*
G54D12*X14370Y158072D02*Y143111D01*
X29330Y152560D02*X23425Y158466D01*
X33267Y152560D02*X26181Y159647D01*
X30709Y164174D02*X38189Y156694D01*
X18110Y158269D02*Y159056D01*
X14370Y162796D01*
G54D11*X43700Y204726D02*X45275Y205513D01*
G54D12*X40354Y210670D02*X30708Y201182D01*
G54D13*X43700Y204725D02*X33858Y194883D01*
G54D12*X50393Y205513D02*X37008Y192127D01*
X45275Y175197D02*Y166930D01*
X39370Y177167D02*X43306Y177166D01*
X45275Y175197D01*
X37008Y192127D02*Y179529D01*
G54D13*X33858Y194883D02*Y166537D01*
X38622Y161773D02*X40354D01*
X33858Y166537D02*X38622Y161773D01*
G54D12*X9842Y206694D02*X7480Y202757D01*
G54D15*X23228Y200395D02*Y196064D01*
G54D12*X7480Y202757D02*Y189765D01*
G54D16*X5315Y180316D02*X2362Y183269D01*
G54D15*X23228Y196064D02*X17716Y190552D01*
G54D12*X11811Y185434D02*Y185041D01*
X7480Y189765D02*X11811Y185434D01*
G54D16*X7086Y181498D02*X5512Y183072D01*
G54D12*X2362Y183269D02*Y210041D01*
X3149Y210828D01*
X5512Y183072D02*Y205907D01*
X5905Y206300D01*
X130708Y127165D02*Y22441D01*
X118988Y82283D02*Y86524D01*
Y67323D02*Y63083D01*
X114173Y58268D01*
X109055Y60630D02*Y66142D01*
X111024Y59449D02*Y68110D01*
X114173Y39371D02*X113386Y40158D01*
X110630D01*
X148462Y8305D02*X129461D01*
G54D13*X127165Y3544D02*X149606D01*
X121261Y4405D02*Y12205D01*
G54D12*X146457D02*X121261D01*
X150787Y135040D02*Y10630D01*
G54D13*X154724Y8662D02*Y135826D01*
X149606Y3544D02*X154724Y8662D01*
G54D12*X147638Y13386D02*X146457Y12205D01*
X150787Y10630D02*X148462Y8305D01*
X147638Y133465D02*Y13386D01*
G54D16*X111811Y94489D02*Y85434D01*
X108661Y92520D02*Y89370D01*
G54D13*X154724Y135826D02*X148425Y142126D01*
G54D12*X150787Y135040D02*X149213Y136615D01*
X140158D01*
G54D13*X148425Y142126D02*X126378D01*
G54D12*X140158Y136615D02*X130708Y127165D01*
X110627Y106298D02*X113082D01*
X118988Y112204D01*
X103934Y109448D02*X100392D01*
X98425Y107481D01*
X103934Y106298D02*X102361D01*
X100394Y104331D01*
X110627Y103149D02*X113083D01*
X118988Y97244D01*
X114173Y99213D02*X113386Y100000D01*
X110628D01*
G54D16*X107087Y99213D02*X111811Y94489D01*
X107480Y96457D02*X110236Y93701D01*
X106693Y94489D02*X108268Y92914D01*
X108661Y92520D01*
Y82284D02*X105512D01*
X111811Y85434D02*X108661Y82284D01*
G54D12*X107087Y87796D02*X102362D01*
X101181Y86615D01*
X104331Y85434D02*X101181Y82284D01*
X107480Y85434D02*X104331D01*
X101181Y82284D02*Y77953D01*
X118988Y86524D02*X114173Y91339D01*
Y99213D01*
G54D16*X110236Y93701D02*Y88190D01*
X107480Y85434D01*
X108661Y89370D02*X107087Y87796D01*
G54D12*X98425Y107481D02*Y95670D01*
X100394Y104331D02*Y96851D01*
X102756Y94489D02*X106693D01*
G54D16*X103934Y97641D02*X105118Y96457D01*
X107480D01*
G54D12*X98425Y95670D02*X103150Y90945D01*
X105512D01*
X100394Y96851D02*X102756Y94489D01*
G54D16*X107087Y101182D02*Y99213D01*
X103934Y99999D02*Y97641D01*
Y103149D02*X105120D01*
X107087Y101182D01*
G54D12*X110629Y46456D02*X113082D01*
X118988Y52362D01*
X110629Y43307D02*X113082D01*
X118988Y37401D01*
X103936Y40157D02*X100788D01*
X96457Y44489D01*
X103936Y43307D02*X101181D01*
X114173Y58268D02*Y50394D01*
X113386Y49607D01*
X110630D01*
X118988Y22441D02*Y26682D01*
X114173Y31497D01*
Y39371D01*
X103936Y46456D02*X101970D01*
X100394Y48032D01*
Y51970D01*
X109055Y60630D01*
X103936Y49606D02*Y52361D01*
X111024Y59449D01*
X96457Y44489D02*Y55905D01*
X101181Y60630D01*
Y43307D02*X98425Y46063D01*
Y52756D01*
X105512Y59843D01*
Y64961D01*
X109055Y66142D02*X105906Y69292D01*
X101181D01*
X111024Y68110D02*X105512Y73622D01*
G54D16*X96456Y59055D02*X75984Y38583D01*
X94882Y59842D02*X75197Y40158D01*
G54D13*X83465Y38977D02*X84600Y37842D01*
Y29134D01*
G54D16*X68303Y46457D02*X68109Y46263D01*
X68112Y43701D02*X68109Y43704D01*
X74016Y43701D02*X68112D01*
X74409Y46457D02*X68303D01*
X74803Y51575D02*X68303D01*
X74803Y53937D02*X68112D01*
X87008Y63780D02*X74803Y51575D01*
X85434Y64568D02*X74803Y53937D01*
X93308Y60631D02*X74409Y41734D01*
X91733Y61418D02*X74016Y43701D01*
X90157Y62205D02*X74409Y46457D01*
X68112Y48819D02*X68109Y48822D01*
X68303Y51575D02*X68109Y51381D01*
X68112Y53937D02*X68109Y53940D01*
X88582Y62992D02*X74409Y48819D01*
X72246Y71853D02*X68109D01*
X73228Y72835D02*X72246Y71853D01*
X73228Y91536D02*Y89567D01*
X70866Y87402D01*
X62992Y89371D02*Y89764D01*
X68107D02*X68109Y89766D01*
X70866Y87402D02*X68304D01*
X68109Y87207D01*
X73228Y85434D02*Y83858D01*
X71654Y82284D01*
X62992Y84646D02*X68107D01*
X68109Y84648D01*
X62992Y79528D02*X68107D01*
X68109Y79530D01*
X62992Y74410D02*X68107D01*
X68109Y74412D01*
X71654Y82284D02*X68304D01*
X68109Y82089D01*
X73228Y79134D02*Y78740D01*
X71654Y77166D01*
X68304D01*
X68109Y76971D01*
X96456Y109843D02*Y59055D01*
X94882Y110630D02*Y59842D01*
X93308Y111417D02*Y60631D01*
X85434Y115356D02*Y64568D01*
X91733Y112206D02*Y61418D01*
X90157Y112991D02*Y62205D01*
X88582Y113780D02*Y62992D01*
X87008Y114568D02*Y63780D01*
G54D13*X28890Y12974D02*X53150Y12993D01*
X56261Y16145D01*
G54D12*X10236Y22441D02*X45276D01*
X48425Y25591D01*
X66142Y26217D02*X69963D01*
X72880Y29134D01*
X64173Y21654D02*X62205Y23622D01*
Y29134D01*
X41339Y27560D02*X36220D01*
X30709Y33071D01*
X41339Y32660D02*X37813D01*
X48425Y29974D02*X48339Y30060D01*
X48425Y25591D02*Y29974D01*
G54D16*X38578Y48819D02*X38581Y48822D01*
X38381Y46063D02*X38581Y46263D01*
X33465Y46457D02*X35826Y48819D01*
X38578D01*
X35827Y46063D02*X38381D01*
X38584Y43701D02*X38581Y43704D01*
X42520Y43701D02*X38584D01*
X36614Y38583D02*X33465Y41733D01*
Y46457D01*
X37402Y40158D02*X35039Y42520D01*
Y45276D01*
X35827Y46063D01*
G54D12*X29134Y41339D02*X37813Y32660D01*
G54D16*X44488Y41733D02*X42520Y43701D01*
G54D12*X51771Y138190D02*X50354Y136773D01*
X45669Y125198D02*X57086Y136615D01*
X67716Y117915D02*X65748Y123036D01*
X62204Y117915D02*X60236Y123036D01*
G54D15*X31102Y141143D02*X33661D01*
G54D12*X38033Y125198D02*X27009Y114174D01*
X45669Y125198D02*X38033D01*
G54D15*X29330Y142915D02*X31102Y141143D01*
G54D12*X27165Y144489D02*X23228Y140552D01*
X31927Y109256D02*X27009Y114174D01*
X31927Y109256D02*X52359D01*
X2362Y109844D02*X22047D01*
X7086Y114251D02*X7009Y114174D01*
X7008Y109764D02*X7087Y109843D01*
X14370Y143111D02*X7086Y135828D01*
X2362Y118505D02*Y109844D01*
X3543Y119686D02*X2362Y118505D01*
X3543Y137403D02*Y119686D01*
X7086Y135828D02*Y114251D01*
X7008Y109764D02*Y92126D01*
G54D16*X78740Y102756D02*Y130709D01*
X74016Y105119D02*Y124016D01*
X75590Y104332D02*Y125198D01*
X69685Y100788D02*X74016Y105119D01*
X70471Y99213D02*X75590Y104332D01*
X71260Y97638D02*X77165Y103544D01*
Y131497D01*
X70472Y94489D02*X78740Y102756D01*
G54D13*X70472Y112993D02*Y105905D01*
G54D16*X62992Y89764D02*X68107D01*
X48031D02*Y94489D01*
G54D13*X40159Y92520D02*X32284D01*
G54D16*X42126Y90945D02*X51969Y100788D01*
G54D13*X51575Y103937D02*X40159Y92520D01*
G54D16*X51575Y95670D02*X53543Y97638D01*
X48031Y94489D02*X52756Y99213D01*
X51575Y90552D02*Y95670D01*
G54D12*X37008Y97638D02*Y109056D01*
X52559Y109253D02*X65748Y109256D01*
G54D16*X51969Y100788D02*X69685D01*
X52756Y99213D02*X70471D01*
X53543Y97638D02*X71260D01*
X54724Y94489D02*X70472D01*
G54D13*X68504Y103937D02*X51575D01*
X70472Y105905D02*X68504Y103937D01*
G54D16*X75984Y38583D02*X36614D01*
X75197Y40158D02*X37402D01*
X74409Y41734D02*X44488Y41733D01*
G54D12*X62205Y29134D02*X65122Y32051D01*
X66142D01*
G54D16*X74409Y48819D02*X68112D01*
X68109Y59058D02*X64569D01*
X68109Y56499D02*X65554D01*
X64173Y55119D01*
Y50394D01*
X62992Y48819D01*
X68308Y61418D02*X68109Y61617D01*
X73228Y60630D02*X72440Y61418D01*
X68308D01*
X38581Y64176D02*X43698D01*
X38581Y66735D02*X44683D01*
X38581Y69294D02*X44880D01*
X43698Y64176D02*X48031Y59843D01*
X44683Y66735D02*X50000Y61418D01*
X44880Y69294D02*X51181Y62993D01*
X48031Y59843D02*X61023D01*
X50000Y61418D02*X58268D01*
X51181Y62993D02*X57481D01*
X58268Y61418D02*X61811Y64961D01*
Y69292D01*
X56299Y74804D01*
X57481Y62993D02*X60236Y65748D01*
Y67717D01*
X57480Y70473D01*
X61023Y59843D02*X62598Y61418D01*
X64569Y59058D02*X62598Y57087D01*
Y54725D01*
G54D12*X55512Y52756D02*X59449Y56693D01*
G54D16*X62598Y54725D02*X60236Y52363D01*
X77165Y63386D02*X75589D01*
X79726Y66735D02*X82283Y69292D01*
X77559D02*X82283Y74016D01*
X75589Y63386D02*X74801Y64174D01*
X68111D02*X68109Y64176D01*
X74801Y64174D02*X68111D01*
X68109Y69294D02*X77559Y69292D01*
X68109Y66735D02*X79726D01*
G54D12*X50393Y161812D02*X51378D01*
G54D16*X58268Y79528D02*X48031Y89764D01*
X58268Y78741D03*
Y79528D01*
X41340Y84648D02*X42126Y85434D01*
X38581Y84648D02*X41340D01*
X42126Y85434D02*Y90945D01*
X46850Y86615D02*X45276Y88189D01*
G54D12*X38581Y87207D02*X33660D01*
X32677Y87008D02*X30708D01*
X29134Y85434D02*X13701D01*
G54D16*X38581Y89766D02*X29525D01*
G54D12*X30708Y87008D02*X29134Y85434D01*
X33592Y82089D02*X32677Y81174D01*
Y75985D02*Y81174D01*
G54D13*X31890Y92914D02*X32284Y92520D01*
G54D16*X29525Y89766D02*X27165Y92126D01*
Y97481D01*
X27008Y97638D01*
X38581Y79530D02*X40943D01*
G54D12*X29134Y85434D02*Y75197D01*
G54D13*X16929Y82284D02*X22835Y76378D01*
X24016D01*
G54D16*X46651Y71853D02*X52362Y66142D01*
X55906D01*
G54D12*X38581Y56499D02*X41139D01*
X44882Y52756D01*
G54D16*X38581Y59058D02*X44879D01*
X47244Y56693D01*
X50787D01*
G54D12*X44882Y52756D02*X55512D01*
X28740Y57481D02*Y72048D01*
X26772Y56693D02*Y72835D01*
G54D13*X22835Y75197D02*Y37796D01*
G54D12*X29134Y42592D02*Y41339D01*
X32084Y51381D02*X26772Y56693D01*
X29134Y48426D02*X32084Y51376D01*
Y51381D01*
X29134Y75197D02*X26772Y72835D01*
X28740Y72048D02*X32677Y75985D01*
G54D13*X24016Y76378D02*X22835Y75197D01*
G54D12*X38581Y51381D02*X32084D01*
X38581Y53940D02*X32283Y53937D01*
X28740Y57481D01*
X38581Y61617D02*X35167D01*
X32677Y59127D01*
Y64961D02*Y70151D01*
G54D13*X22835Y37796D02*X27560Y33071D01*
X30709D01*
G54D16*X38581Y74412D02*X41336D01*
X42126Y73622D01*
X45275D01*
X46850Y75197D01*
X38581Y71853D02*X46651D01*
X57480Y70473D02*X55906D01*
G54D12*X38581Y82089D02*X33592D01*
G54D16*X46850Y75197D02*Y86615D01*
X40943Y79530D02*X43701Y76772D01*
X38581Y82089D02*X43109D01*
X43701Y81497D01*
G54D13*X4331Y12993D02*Y11811D01*
X13386Y12993D02*X4331D01*
G54D12*X13701Y85434D02*X7008Y92126D01*
G54D16*X17008Y97638D02*Y89220D01*
X17251Y88977D01*
G54D17*X7085Y67717D02*X5510Y66536D01*
Y71654D02*X11416Y73623D01*
X5510Y71654D02*X10235Y69292D01*
X7085Y67717D01*
X15746D02*X17321Y66536D01*
X11416Y73623D02*X17321Y71654D01*
X12597Y69292D02*X15746Y67717D01*
X17321Y71654D02*X12597Y69292D01*
G54D12*X37008Y179529D02*G75*G03X39370Y177167I2362J0D01*G01*
G54D16*X7086Y176773D02*G75*G03X15354Y168505I8268J0D01*G01*
G54D12*X51771Y138190D02*G75*G03X57480Y143899I0J5709D01*G01*
Y155710D02*G75*G03X51378Y161812I-6102J0D01*G01*
X45275Y166930D02*G75*G03X50393Y161812I5118J0D01*G01*
X55118Y147048D02*G75*G03X50393Y151773I-4725J0D01*G01*
Y141930D02*G75*G03X55118Y146655I0J4725D01*G01*
G54D16*X5315Y176772D02*G75*G03X15354Y166733I10039J0D01*G01*
X25000Y165356D02*G75*G03X20276Y170080I-4724J0D01*G01*
X23425Y165356D02*G75*G03X20276Y168505I-3149J0D01*G01*
G54D12*X20079Y70079D02*G75*G03X11417Y78741I-8662J0D01*G01*
G75*G03X2756Y70080I0J-8661D01*G01*
G75*G03X11418Y61418I8662J0D01*G01*
G75*G03X20079Y70079I0J8661D01*G01*
G54D15*X15354Y237796D02*G75*G03X23228Y245670I0J7874D01*G01*
G54D12*Y200395D02*G75*G03X14960Y208663I-8268J0D01*G01*
G54D11*X50393Y210631D02*G75*G03X55512Y215750I0J5119D01*G01*
X50393Y210631D02*G75*G03X45275Y205513I0J-5118D01*G01*
G54D16*X60183Y225985D02*X64803D01*
X60183D02*X59413Y226755D01*
Y228295D02*Y226755D01*
Y228295D02*X60183Y229065D01*
X64803D01*
X65573Y228295D02*X64803Y229065D01*
X65573Y228295D02*Y226755D01*
X64803Y225985D02*X65573Y226755D01*
X59413Y230914D02*X64803D01*
X65573Y231684D01*
Y233224D02*Y231684D01*
Y233224D02*X64803Y233994D01*
X59413D02*X64803D01*
X59413Y238924D02*Y235844D01*
Y237384D02*X65573D01*
X59612Y167093D02*Y165553D01*
Y166323D02*X65772D01*
Y167093D02*Y165553D01*
X59612Y168942D02*X65772D01*
X59612D02*X60382D01*
X64232Y172792D01*
X59612D02*X65772D01*
G54D18*X141339Y127362D03*
Y155868D03*
Y170868D03*
G54D11*G36*
X4008Y100638D02*Y94638D01*
X10008D01*
Y100638D01*
X4008D01*
G37*
G54D19*X17008Y97638D03*
G54D11*G36*
X4009Y117174D02*Y111174D01*
X10009D01*
Y117174D01*
X4009D01*
G37*
G54D19*X27008Y97638D03*
X37008D03*
X17009Y114174D03*
X27009D03*
X37009D03*
X47009D03*
X50354Y136773D03*
Y146773D03*
X40354Y141773D03*
Y161773D03*
Y151773D03*
G54D11*G36*
X37354Y174773D02*Y168773D01*
X43354D01*
Y174773D01*
X37354D01*
G37*
G54D19*X50354Y156773D03*
Y166773D03*
G54D18*X141339Y67362D03*
Y82362D03*
Y97362D03*
Y112362D03*
Y22362D03*
Y37362D03*
Y52362D03*
X56261Y16145D03*
X71261D03*
X86261D03*
X101261D03*
X101220Y267323D03*
X86220D03*
X71220D03*
X56220D03*
X141339Y260868D03*
Y185868D03*
Y200868D03*
Y215868D03*
Y230868D03*
Y245868D03*
G54D19*X50354Y205670D03*
X40354Y210670D03*
X50354Y225670D03*
X40354Y230670D03*
Y220670D03*
X50354Y215670D03*
G54D11*G36*
X37354Y243670D02*Y237670D01*
X43354D01*
Y243670D01*
X37354D01*
G37*
G54D19*X50354Y235670D03*
X26378Y172048D03*
G54D20*X14370Y158072D03*
Y162796D03*
X68700Y159450D03*
X23228Y147245D03*
X3543Y137403D03*
X23228Y140552D03*
G54D21*X65748Y149607D03*
X105118Y162599D03*
X102362Y155906D03*
X105906Y149213D03*
X109055Y141733D03*
X105118Y192520D03*
X86614Y200000D03*
X90945D03*
X98819Y170473D03*
Y164174D03*
Y179922D03*
X100000Y188189D03*
G54D20*X61220Y246655D03*
X33267Y244096D03*
X28543Y244686D03*
X13386Y226379D03*
X17716Y224804D03*
X29527Y238584D03*
X54921Y252954D03*
X58071Y249804D03*
G54D21*X5512Y256300D03*
G54D20*X20275Y165356D03*
X40551Y180710D03*
X45275D03*
Y185434D03*
Y190159D03*
Y194883D03*
G54D22*X33267Y148033D03*
G54D20*X63189Y177757D03*
Y183072D03*
Y188387D03*
Y193702D03*
Y199017D03*
X66732Y191143D03*
Y196458D03*
G54D21*X97244Y240158D03*
X105118Y252757D03*
X110630Y273622D03*
X105118Y259843D03*
X100000Y248819D03*
X98819Y257874D03*
X94094Y278347D03*
X78740D03*
X63780D03*
G54D19*X39763Y201182D03*
G54D20*X27559Y203544D03*
X15354Y234253D03*
X9842Y237796D03*
X22441Y218899D03*
X17716Y220080D03*
X22441Y223623D03*
X21653Y210237D03*
G54D22*X5905Y206300D03*
X3149Y210828D03*
G54D20*X17716Y185631D03*
X40551Y185434D03*
Y190159D03*
X77165Y231891D03*
G54D22*X75984Y222836D03*
G54D20*X86614Y216537D03*
X77165D03*
X86614Y231891D03*
X87402Y224410D03*
G54D21*X102362Y200788D03*
X105118Y207481D03*
X108268Y222441D03*
X98819Y227953D03*
X102756Y215748D03*
X101575Y222048D03*
X151968Y253544D03*
Y238189D03*
Y223229D03*
Y208268D03*
Y193701D03*
G54D20*X79527Y160041D03*
X67716Y117915D03*
X72244Y147245D03*
X79330Y148820D03*
X74839Y151291D03*
X57086Y136615D03*
X62204Y117915D03*
G54D22*X43307Y146852D03*
G54D20*X64567Y129923D03*
X65748Y135040D03*
G54D21*X82283Y126772D03*
X84252Y118898D03*
X150787Y90945D03*
Y75985D03*
Y61024D03*
Y46063D03*
Y31103D03*
X147638Y27166D03*
Y42126D03*
Y57087D03*
Y72048D03*
Y87008D03*
X150787Y15748D03*
X132283Y3544D03*
X127164D03*
G54D20*X22047Y109844D03*
G54D21*X62992Y89371D03*
Y74410D03*
Y84646D03*
Y79528D03*
X73228Y85434D03*
Y79134D03*
Y91536D03*
X56299Y74804D03*
X58268Y78741D03*
X54724Y94489D03*
X51575Y90552D03*
X55906Y70473D03*
X43701Y76772D03*
X55906Y66142D03*
X83465Y38977D03*
X73228Y72835D03*
Y60630D03*
X77165Y63386D03*
X82283Y74016D03*
Y69292D03*
X105512Y90945D03*
Y82284D03*
Y73622D03*
X101181Y77953D03*
Y86615D03*
X105512Y64961D03*
X101181Y60630D03*
Y69292D03*
X94094Y29528D03*
Y22441D03*
X91339Y48426D03*
X62598Y61418D03*
X62992Y48819D03*
X64173Y21654D03*
X57874Y35040D03*
X59449Y56693D03*
X60236Y52363D03*
X50787Y56693D03*
G54D20*X12992Y211812D03*
X11811Y185041D03*
G54D19*X4331Y12993D03*
G54D21*X10236Y22441D03*
X2756Y83071D03*
Y89371D03*
X45276Y88189D03*
X33071Y37402D03*
X24016Y76378D03*
X31890Y92914D03*
X43701Y81497D03*
X30709Y33071D03*
X27165Y29922D03*
X47244Y18504D03*
X22835Y37796D03*
X18110Y33465D03*
X16929Y38583D03*
X21260Y12205D03*
Y16930D03*
X16929Y82284D03*
X2362Y39764D03*
Y46457D03*
X150787Y121260D03*
Y105906D03*
X147638Y133465D03*
Y101969D03*
Y116930D03*
X137795Y148426D03*
X126378Y146457D03*
Y142126D03*
X109055Y132284D03*
X117717Y141733D03*
X151968Y178741D03*
Y163780D03*
Y147638D03*
G54D23*X65658Y26217D02*X66626D01*
X65658Y32051D02*X66626D01*
G54D24*X84600Y31252D02*Y27016D01*
X72880Y31252D02*Y27016D01*
G54D25*X120961Y12205D02*X121561D01*
X129161Y8305D02*X129761D01*
X120961Y4405D02*X121561D01*
G54D26*X109694Y40157D02*X111564D01*
X109694Y43307D02*X111564D01*
X109694Y46456D02*X111564D01*
X109694Y49606D02*X111564D01*
X103001Y40157D02*X104871D01*
X103001Y43307D02*X104871D01*
X103001Y46456D02*X104871D01*
X103001Y49606D02*X104871D01*
G54D24*X118988Y24559D02*Y20323D01*
Y39519D02*Y35283D01*
X130708Y24559D02*Y20323D01*
Y39519D02*Y35283D01*
X118988Y54480D02*Y50244D01*
Y69441D02*Y65205D01*
Y84401D02*Y80165D01*
X130708Y54480D02*Y50244D01*
Y69441D02*Y65205D01*
Y84401D02*Y80165D01*
G54D27*X66436Y59058D02*X69782D01*
G54D23*X28650Y42592D02*X29618D01*
X28650Y48426D02*X29618D01*
G54D27*X66436Y61617D02*X69782D01*
X66436Y64176D02*X69782D01*
X66436Y66735D02*X69782D01*
X66436Y69294D02*X69782D01*
X66436Y71853D02*X69782D01*
X66436Y74412D02*X69782D01*
X66436Y76971D02*X69782D01*
X66436Y79530D02*X69782D01*
X66436Y82089D02*X69782D01*
X66436Y84648D02*X69782D01*
X66436Y87207D02*X69782D01*
X66436Y89766D02*X69782D01*
G54D23*X32193Y81174D02*X33161D01*
X32193Y87008D02*X33161D01*
X32193Y75985D02*X33161D01*
X32193Y70151D02*X33161D01*
X32193Y64961D02*X33161D01*
X17251Y89461D02*Y88493D01*
X11417Y89461D02*Y88493D01*
G54D27*X36908Y89766D02*X40254D01*
X36908Y87207D02*X40254D01*
X36908Y84648D02*X40254D01*
X36908Y82089D02*X40254D01*
X36908Y79530D02*X40254D01*
X36908Y76971D02*X40254D01*
X36908Y74412D02*X40254D01*
X36908Y71853D02*X40254D01*
X36908Y69294D02*X40254D01*
X36908Y66735D02*X40254D01*
X36908Y64176D02*X40254D01*
X36908Y61617D02*X40254D01*
X36908Y59058D02*X40254D01*
X36908Y56499D02*X40254D01*
G54D23*X32193Y59127D02*X33161D01*
G54D27*X36908Y53940D02*X40254D01*
X66436Y43704D02*X69782D01*
X36908Y51381D02*X40254D01*
X36908Y48822D02*X40254D01*
X36908Y46263D02*X40254D01*
X36908Y43704D02*X40254D01*
X66436Y46263D02*X69782D01*
X66436Y48822D02*X69782D01*
X66436Y51381D02*X69782D01*
X66436Y53940D02*X69782D01*
X66436Y56499D02*X69782D01*
G54D28*X41039Y32660D02*X41639D01*
G54D29*X28890Y15954D02*Y9993D01*
X13386Y15993D02*Y9993D01*
G54D28*X41039Y27560D02*X41639D01*
X48039Y30060D02*X48639D01*
G54D25*X70939Y165262D02*Y164662D01*
X74839Y157062D02*Y156462D01*
G54D24*X130708Y99362D02*Y95126D01*
X118988Y99362D02*Y95126D01*
G54D26*X109692Y99999D02*X111562D01*
X109692Y103149D02*X111562D01*
X102999Y99999D02*X104869D01*
X102999Y103149D02*X104869D01*
X102999Y106298D02*X104869D01*
X102999Y109448D02*X104869D01*
G54D24*X130708Y114322D02*Y110086D01*
Y129283D02*Y125047D01*
X118988Y129283D02*Y125047D01*
Y114322D02*Y110086D01*
G54D26*X109692Y106298D02*X111562D01*
X109692Y109448D02*X111562D01*
G54D30*X65748Y124020D02*Y122052D01*
Y110240D02*Y108272D01*
X60236Y110240D02*Y108272D01*
Y124020D02*Y122052D01*
G54D24*X118989Y158024D02*Y153788D01*
X130709Y158024D02*Y153788D01*
G54D25*X85986Y237044D02*Y236444D01*
X78186Y237044D02*Y236444D01*
X82086Y228844D02*Y228244D01*
G54D29*X28740Y273847D02*Y267886D01*
X13236Y273886D02*Y267886D01*
G54D26*X103001Y243309D02*X104871D01*
X103001Y240159D02*X104871D01*
X103001Y237010D02*X104871D01*
X103001Y233860D02*X104871D01*
X109694Y240159D02*X111564D01*
G54D24*X130709Y248182D02*Y243946D01*
Y232828D02*Y228592D01*
X118989Y262749D02*Y258513D01*
X130709Y262749D02*Y258513D01*
X118989Y248182D02*Y243946D01*
Y232828D02*Y228592D01*
G54D26*X109694Y243309D02*X111564D01*
X109694Y237010D02*X111564D01*
X109694Y233860D02*X111564D01*
G54D24*X130709Y217867D02*Y213631D01*
Y202906D02*Y198670D01*
Y187946D02*Y183710D01*
Y172985D02*Y168749D01*
X118989Y202906D02*Y198670D01*
Y217867D02*Y213631D01*
G54D25*X78186Y211983D02*Y211383D01*
X85986Y211983D02*Y211383D01*
X82086Y220183D02*Y219583D01*
G54D26*X109695Y174016D02*X111565D01*
G54D25*X78739Y165262D02*Y164662D01*
G54D26*X103002Y183465D02*X104872D01*
X109695D02*X111565D01*
X103002Y180315D02*X104872D01*
X109695D02*X111565D01*
X109695Y177166D02*X111565D01*
X103002D02*X104872D01*
X103002Y174016D02*X104872D01*
G54D24*X118989Y187946D02*Y183710D01*
Y172985D02*Y168749D01*
G54D31*G54D32*G54D33*G54D32*G54D34*G54D33*G54D31*G54D34*G54D33*G54D34*G54D11*G54D35*G54D11*G54D35*G54D11*G54D35*G54D34*G54D11*G54D35*G54D11*G54D35*G54D11*G54D35*G54D11*G54D34*G54D35*M02*
