G04 start of page 10 for group -4014 idx -4014 *
G04 Title: (unknown), bottompaste *
G04 Creator: pcb 1.99z *
G04 CreationDate: Wed 16 Feb 2011 18:30:27 GMT UTC *
G04 For: rbarlow *
G04 Format: Gerber/RS-274X *
G04 PCB-Dimensions: 157480 283465 *
G04 PCB-Coordinate-Origin: lower left *
%MOIN*%
%FSLAX25Y25*%
%LNBACKPASTE*%
%ADD24R,0.0283X0.0283*%
%ADD25R,0.0340X0.0340*%
%ADD37R,0.0530X0.0530*%
%ADD38R,0.0689X0.0689*%
%ADD39R,0.0560X0.0560*%
%ADD40R,0.0512X0.0512*%
%ADD41R,0.1220X0.1220*%
%ADD42R,0.0240X0.0240*%
%ADD43R,0.0130X0.0130*%
%ADD44R,0.0150X0.0150*%
%ADD45R,0.0669X0.0669*%
G54D24*X11721Y51808D02*X12689D01*
X11721Y57642D02*X12689D01*
X7390Y30709D02*X8358D01*
X7390Y36543D02*X8358D01*
X5028Y51808D02*X5996D01*
X5028Y57642D02*X5996D01*
X18343Y53240D02*Y52272D01*
X24177Y53240D02*Y52272D01*
G54D43*X22244Y29077D02*Y24471D01*
X19685Y29077D02*Y24471D01*
X17127Y29077D02*Y24471D01*
X14568Y29077D02*Y24471D01*
Y46793D02*Y42187D01*
X17127Y46793D02*Y42187D01*
X19685Y46793D02*Y42187D01*
X22244Y46793D02*Y42187D01*
G54D24*X7390Y46779D02*X8358D01*
X7390Y40945D02*X8358D01*
G54D40*X57088Y28741D02*X62598D01*
X57088Y40551D02*X62598D01*
G54D24*X132981Y25358D02*X133949D01*
X132981Y19524D02*X133949D01*
G54D44*X109603Y269109D02*Y267109D01*
X112203Y269109D02*Y267109D01*
X114703Y269109D02*Y267109D01*
Y262109D02*Y260109D01*
X112203Y262109D02*Y260109D01*
X109603Y262109D02*Y260109D01*
G54D25*X34178Y7387D02*Y6787D01*
X26378Y7387D02*Y6787D01*
X30278Y15587D02*Y14987D01*
X118272Y48463D02*X118872D01*
X118272Y56263D02*X118872D01*
X126472Y52363D02*X127072D01*
X118272Y63423D02*X118872D01*
X118272Y71223D02*X118872D01*
X126472Y67323D02*X127072D01*
X118272Y123659D02*X118872D01*
X118272Y131459D02*X118872D01*
X126472Y127559D02*X127072D01*
X118272Y108305D02*X118872D01*
X118272Y116105D02*X118872D01*
X126472Y112205D02*X127072D01*
X118272Y93345D02*X118872D01*
X118272Y101145D02*X118872D01*
X126472Y97245D02*X127072D01*
X118272Y78384D02*X118872D01*
X118272Y86184D02*X118872D01*
X126472Y82284D02*X127072D01*
X70939Y165262D02*Y164662D01*
X78739Y165262D02*Y164662D01*
X74839Y157062D02*Y156462D01*
G54D40*X59645Y218110D02*Y215748D01*
X71455Y218110D02*Y215748D01*
X59645Y208859D02*Y206497D01*
X71455Y208859D02*Y206497D01*
X59645Y239371D02*Y237009D01*
X71455Y239371D02*Y237009D01*
X59645Y229529D02*Y227167D01*
X71455Y229529D02*Y227167D01*
G54D24*X4564Y168595D02*Y167627D01*
X10398Y168595D02*Y167627D01*
X4633Y244418D02*X5601D01*
X4633Y238584D02*X5601D01*
X58375Y156372D02*X59343D01*
X58375Y162206D02*X59343D01*
X4563Y154422D02*Y153454D01*
X10397Y154422D02*Y153454D01*
X10164Y161115D02*Y160147D01*
X4330Y161115D02*Y160147D01*
X57802Y125288D02*Y124320D01*
X51968Y125288D02*Y124320D01*
X57802Y131194D02*Y130226D01*
X51968Y131194D02*Y130226D01*
X72941Y113387D02*X73909D01*
X72941Y107553D02*X73909D01*
X67429Y113387D02*X68397D01*
X67429Y107553D02*X68397D01*
X58661Y167808D02*Y166840D01*
X64495Y167808D02*Y166840D01*
X64083Y156372D02*X65051D01*
X64083Y162206D02*X65051D01*
X34573Y208753D02*Y207785D01*
X28739Y208753D02*Y207785D01*
G54D25*X61486Y113053D02*X62086D01*
X61486Y105253D02*X62086D01*
X53286Y109153D02*X53886D01*
G54D37*X16929Y146089D02*Y142889D01*
X5329Y146089D02*Y142889D01*
G54D40*X120473Y173622D02*Y168112D01*
X132283Y173622D02*Y168112D01*
G54D25*X85986Y211983D02*Y211383D01*
X78186Y211983D02*Y211383D01*
X82086Y220183D02*Y219583D01*
G54D40*X34646Y87007D02*Y81497D01*
X22836Y87007D02*Y81497D01*
G54D44*X113173Y158506D02*X115173D01*
X113173Y155906D02*X115173D01*
X113173Y153406D02*X115173D01*
X106173D02*X108173D01*
X106173Y155906D02*X108173D01*
X106173Y158506D02*X108173D01*
G54D24*X132981Y130476D02*X133949D01*
X132981Y124642D02*X133949D01*
X132981Y115122D02*X133949D01*
X132981Y109288D02*X133949D01*
G54D40*X120473Y188582D02*Y183072D01*
X132283Y188582D02*Y183072D01*
X120473Y203543D02*Y198033D01*
X132283Y203543D02*Y198033D01*
X120473Y218503D02*Y212993D01*
X132283Y218503D02*Y212993D01*
X120473Y233464D02*Y227954D01*
X132283Y233464D02*Y227954D01*
X120473Y248818D02*Y243308D01*
X132283Y248818D02*Y243308D01*
X120473Y263779D02*Y258269D01*
X132283Y263779D02*Y258269D01*
G54D44*X113173Y173467D02*X115173D01*
X113173Y170867D02*X115173D01*
X113173Y168367D02*X115173D01*
X106173D02*X108173D01*
X106173Y170867D02*X108173D01*
X106173Y173467D02*X108173D01*
X113173Y188427D02*X115173D01*
X113173Y185827D02*X115173D01*
X113173Y183327D02*X115173D01*
X106173D02*X108173D01*
X106173Y185827D02*X108173D01*
X106173Y188427D02*X108173D01*
X113173Y203388D02*X115173D01*
X113173Y200788D02*X115173D01*
X113173Y198288D02*X115173D01*
X106173D02*X108173D01*
X106173Y200788D02*X108173D01*
X106173Y203388D02*X108173D01*
G54D25*X16855Y7387D02*Y6787D01*
X9055Y7387D02*Y6787D01*
X12955Y15587D02*Y14987D01*
G54D44*X113173Y248663D02*X115173D01*
X113173Y246063D02*X115173D01*
X113173Y243563D02*X115173D01*
X106173D02*X108173D01*
X106173Y246063D02*X108173D01*
X106173Y248663D02*X108173D01*
X113173Y233309D02*X115173D01*
X113173Y230709D02*X115173D01*
X113173Y228209D02*X115173D01*
X106173D02*X108173D01*
X106173Y230709D02*X108173D01*
X106173Y233309D02*X108173D01*
X113173Y218348D02*X115173D01*
X113173Y215748D02*X115173D01*
X113173Y213248D02*X115173D01*
X106173D02*X108173D01*
X106173Y215748D02*X108173D01*
X106173Y218348D02*X108173D01*
G54D40*X120473Y158661D02*Y153151D01*
X132283Y158661D02*Y153151D01*
G54D43*X3602Y215161D02*X8208D01*
X3602Y217720D02*X8208D01*
X3602Y220279D02*X8208D01*
X3602Y222838D02*X8208D01*
X3602Y225396D02*X8208D01*
X3602Y227955D02*X8208D01*
X3602Y230514D02*X8208D01*
X3602Y233073D02*X8208D01*
X26830D02*X31436D01*
X26830Y230514D02*X31436D01*
X26830Y227955D02*X31436D01*
X26830Y225396D02*X31436D01*
X26830Y222838D02*X31436D01*
X26830Y220279D02*X31436D01*
X26830Y217720D02*X31436D01*
X26830Y215161D02*X31436D01*
G54D40*X5709Y186024D02*X6495D01*
X5709Y193110D02*X6495D01*
G54D39*X27024Y179584D02*X33624D01*
X27024Y188584D02*X33624D01*
X27024Y197684D02*X33624D01*
G54D41*X54724Y193084D02*Y184084D01*
G54D37*X28740Y127979D02*Y124779D01*
X40340Y127979D02*Y124779D01*
G54D25*X26415Y71491D02*Y70891D01*
X34215Y71491D02*Y70891D01*
X30315Y63291D02*Y62691D01*
G54D45*X35631Y48818D02*X43899D01*
X35631Y26378D02*X43899D01*
G54D38*X9843Y71064D02*Y67521D01*
Y87993D02*Y84450D01*
G54D24*X4634Y26701D02*X5602D01*
X4634Y20867D02*X5602D01*
G54D40*X70474Y28741D02*X75984D01*
X70474Y40551D02*X75984D01*
G54D24*X132981Y100162D02*X133949D01*
X132981Y94328D02*X133949D01*
X132981Y85201D02*X133949D01*
X132981Y79367D02*X133949D01*
X132981Y70240D02*X133949D01*
X132981Y64406D02*X133949D01*
X132981Y55280D02*X133949D01*
X132981Y49446D02*X133949D01*
X132981Y40319D02*X133949D01*
X132981Y34485D02*X133949D01*
G54D25*X118272Y18541D02*X118872D01*
X118272Y26341D02*X118872D01*
X126472Y22441D02*X127072D01*
X118272Y33502D02*X118872D01*
X118272Y41302D02*X118872D01*
X126472Y37402D02*X127072D01*
G54D42*X27954Y161313D02*X29554D01*
X27954Y157413D02*X29554D01*
X27954Y153513D02*X29554D01*
X19754D02*X21354D01*
X19754Y157413D02*X21354D01*
X19754Y161313D02*X21354D01*
G54D25*X64844Y141596D02*Y140996D01*
X57044Y141596D02*Y140996D01*
X60944Y149796D02*Y149196D01*
X78186Y237044D02*Y236444D01*
X85986Y237044D02*Y236444D01*
X82086Y228844D02*Y228244D01*
M02*
