G04 start of page 8 for group -4079 idx -4079 *
G04 Title: (unknown), topsilk *
G04 Creator: pcb 1.99z *
G04 CreationDate: Wed 16 Feb 2011 18:30:27 GMT UTC *
G04 For: rbarlow *
G04 Format: Gerber/RS-274X *
G04 PCB-Dimensions: 157480 283465 *
G04 PCB-Coordinate-Origin: lower left *
%MOIN*%
%FSLAX25Y25*%
%LNFRONTSILK*%
%ADD12C,0.0100*%
%ADD15C,0.0098*%
%ADD16C,0.0079*%
%ADD67C,0.0084*%
%ADD68C,0.0102*%
%ADD69C,0.0080*%
G54D12*X135039Y15355D02*X114567D01*
X135039Y135434D02*Y15355D01*
X114567D02*Y135434D01*
X83465Y91733D02*X99213D01*
Y51575D01*
X83465D01*
Y91733D01*
X100394Y56693D02*X113386D01*
X69685Y207481D02*X84252D01*
Y168111D01*
X69685D01*
Y207481D01*
X85433Y196063D02*X113386D01*
G54D16*X57086Y123230D02*X53149Y119293D01*
X57086Y126773D02*Y123230D01*
G54D12*X114567Y268111D02*X135039D01*
Y147638D01*
X114567D01*
Y135434D02*X135039D01*
X114567Y147638D02*Y268111D01*
G54D16*X60184Y225985D02*X64804D01*
X60184D02*X59414Y226755D01*
Y228295D02*Y226755D01*
Y228295D02*X60184Y229065D01*
X64804D01*
X65574Y228295D02*X64804Y229065D01*
X65574Y228295D02*Y226755D01*
X64804Y225985D02*X65574Y226755D01*
X59414Y230914D02*X64804D01*
X65574Y231684D01*
Y233224D02*Y231684D01*
Y233224D02*X64804Y233994D01*
X59414D02*X64804D01*
X59414Y238924D02*Y235844D01*
Y237384D02*X65574D01*
X59611Y167093D02*Y165553D01*
Y166323D02*X65771D01*
Y167093D02*Y165553D01*
X59611Y168942D02*X65771D01*
X59611D02*X60381D01*
X64231Y172792D01*
X59611D02*X65771D01*
G54D67*X140944Y10498D02*X143044D01*
X141994D02*Y2098D01*
X140944D02*X143044D01*
X145566Y10498D02*Y2098D01*
Y10498D02*Y9448D01*
X150816Y4198D01*
Y10498D02*Y2098D01*
G54D16*X138584Y279070D02*Y273430D01*
Y279070D02*X139524Y280010D01*
X141404D01*
X142344Y279070D01*
Y273430D01*
X141404Y272490D02*X142344Y273430D01*
X139524Y272490D02*X141404D01*
X138584Y273430D02*X139524Y272490D01*
X144601Y280010D02*Y273430D01*
X145541Y272490D01*
X147421D01*
X148361Y273430D01*
Y280010D02*Y273430D01*
X150619Y280010D02*X154379D01*
X152499D02*Y272490D01*
G54D68*X71222Y260847D02*X72492Y259577D01*
X67412Y260847D02*X71222D01*
X66142Y259577D02*X67412Y260847D01*
X66142Y259577D02*Y251957D01*
X67412Y250687D01*
X71222D01*
X72492Y251957D01*
Y254497D02*Y251957D01*
X71222Y255767D02*X72492Y254497D01*
X68682Y255767D02*X71222D01*
X75542Y260847D02*Y250687D01*
Y260847D02*Y259577D01*
X81892Y253227D01*
Y260847D02*Y250687D01*
X86213Y260847D02*Y250687D01*
X90023Y260847D02*X91293Y259577D01*
Y251957D01*
X90023Y250687D02*X91293Y251957D01*
X84943Y250687D02*X90023D01*
X84943Y260847D02*X90023D01*
G54D69*X96457Y29299D02*X97452Y30294D01*
X99442D01*
X100437Y29299D01*
Y23329D01*
X99442Y22334D02*X100437Y23329D01*
X97452Y22334D02*X99442D01*
X96457Y23329D02*X97452Y22334D01*
Y26314D02*X100437D01*
X102826Y30294D02*Y24324D01*
X104816Y22334D01*
X106806Y24324D01*
Y30294D02*Y24324D01*
X109196Y29299D02*X110191Y30294D01*
X112181D01*
X113176Y29299D01*
Y23329D01*
X112181Y22334D02*X113176Y23329D01*
X110191Y22334D02*X112181D01*
X109196Y23329D02*X110191Y22334D01*
Y26314D02*X113176D01*
G54D12*X85430Y25234D02*X83430Y23234D01*
X72050D02*X83430D01*
X72050Y35034D02*Y23234D01*
Y35034D02*X85430D01*
Y25234D01*
X82740Y29134D02*G75*G03X82740Y29134I-4000J0D01*G01*
X50739Y37516D02*Y28116D01*
X38839D02*X50739D01*
X38839Y37516D02*Y28116D01*
Y37516D02*X50739D01*
G54D15*X46025Y20869D02*X111497D01*
X46025D02*Y397D01*
X111497Y20869D02*Y397D01*
G54D16*X67650Y29921D02*Y28347D01*
X64634Y29921D02*Y28347D01*
X101180Y51181D02*Y38582D01*
Y51181D02*X113385D01*
Y38582D01*
X101180D02*X113385D01*
X31169Y62831D02*Y61257D01*
X34185Y62831D02*Y61257D01*
X32677Y73855D02*Y72281D01*
Y73855D02*X33858Y72281D01*
X32677Y73855D02*X31496Y72281D01*
X33858D01*
X30642Y46296D02*Y44722D01*
X27626Y46296D02*Y44722D01*
G54D12*X65550Y91538D02*Y41932D01*
X41140D02*X65550D01*
X41140Y91538D02*Y41932D01*
Y91538D02*X65550D01*
X41751Y89058D02*G75*G03X41751Y89058I610J0D01*G01*
G54D16*X34185Y84878D02*Y83304D01*
X31169Y84878D02*Y83304D01*
X13547Y90485D02*X15121D01*
X13547Y87469D02*X15121D01*
G54D12*X2008Y102638D02*X12008D01*
Y92638D01*
X2008Y102638D02*Y92638D01*
Y102638D02*X42008D01*
Y92638D01*
X2008D02*X42008D01*
X132261Y14705D02*Y1905D01*
X118361D02*X132261D01*
X118361Y14705D02*Y1905D01*
Y14705D02*X132261D01*
X131538Y48462D02*X129538Y46462D01*
X118158D02*X129538D01*
X118158Y58262D02*Y46462D01*
Y58262D02*X131538D01*
Y48462D01*
X128848Y52362D02*G75*G03X128848Y52362I-4000J0D01*G01*
X131538Y33501D02*X129538Y31501D01*
X118158D02*X129538D01*
X118158Y43301D02*Y31501D01*
Y43301D02*X131538D01*
Y33501D01*
X128848Y37401D02*G75*G03X128848Y37401I-4000J0D01*G01*
X131538Y18541D02*X129538Y16541D01*
X118158D02*X129538D01*
X118158Y28341D02*Y16541D01*
Y28341D02*X131538D01*
Y18541D01*
X128848Y22441D02*G75*G03X128848Y22441I-4000J0D01*G01*
G54D15*X136615Y137598D02*Y12126D01*
X157087D01*
X136615Y137598D02*X157087D01*
G54D12*X131538Y78383D02*X129538Y76383D01*
X118158D02*X129538D01*
X118158Y88183D02*Y76383D01*
Y88183D02*X131538D01*
Y78383D01*
X128848Y82283D02*G75*G03X128848Y82283I-4000J0D01*G01*
X131538Y63423D02*X129538Y61423D01*
X118158D02*X129538D01*
X118158Y73223D02*Y61423D01*
Y73223D02*X131538D01*
Y63423D01*
X128848Y67323D02*G75*G03X128848Y67323I-4000J0D01*G01*
G54D16*X13190Y23228D02*X31694D01*
X13190Y1968D02*X31694D01*
G54D12*X579Y122273D02*X55354D01*
Y186273D01*
X579D02*X55354D01*
X57692Y122446D02*X68292D01*
X57692D02*Y109846D01*
X68292D01*
Y122446D02*Y109846D01*
X57692Y116146D02*X68292D01*
X62992D02*Y113146D01*
X2009Y109174D02*X52009D01*
Y119174D02*Y109174D01*
X2009Y119174D02*X52009D01*
X2009D02*Y109174D01*
X12009Y119174D02*Y109174D01*
X2009Y119174D02*X12009D01*
X579Y191170D02*X55354D01*
Y255170D01*
X579D02*X55354D01*
X75686Y225744D02*X88486D01*
X75686Y239644D02*Y225744D01*
Y239644D02*X88486D01*
Y225744D01*
G54D15*X45984Y262599D02*X111456D01*
Y283071D02*Y262599D01*
X45984Y283071D02*Y262599D01*
G54D16*X101178Y111023D02*Y98424D01*
Y111023D02*X113383D01*
Y98424D01*
X101178D02*X113383D01*
G54D12*X68439Y153962D02*X81239D01*
X68439Y167862D02*Y153962D01*
Y167862D02*X81239D01*
Y153962D01*
X118159Y159806D02*X120159Y161806D01*
X131539D02*X120159D01*
X131539Y150006D02*Y161806D01*
X118159Y150006D02*X131539D01*
X118159Y159806D02*Y150006D01*
X120849Y155906D02*G75*G03X120849Y155906I4000J0D01*G01*
X118159Y174767D02*X120159Y176767D01*
X131539D02*X120159D01*
X131539Y164967D02*Y176767D01*
X118159Y164967D02*X131539D01*
X118159Y174767D02*Y164967D01*
X120849Y170867D02*G75*G03X120849Y170867I4000J0D01*G01*
X131538Y123265D02*X129538Y121265D01*
X118158D02*X129538D01*
X118158Y133065D02*Y121265D01*
Y133065D02*X131538D01*
Y123265D01*
X128848Y127165D02*G75*G03X128848Y127165I-4000J0D01*G01*
X131538Y108304D02*X129538Y106304D01*
X118158D02*X129538D01*
X118158Y118104D02*Y106304D01*
Y118104D02*X131538D01*
Y108304D01*
X128848Y112204D02*G75*G03X128848Y112204I-4000J0D01*G01*
X131538Y93344D02*X129538Y91344D01*
X118158D02*X129538D01*
X118158Y103144D02*Y91344D01*
Y103144D02*X131538D01*
Y93344D01*
X128848Y97244D02*G75*G03X128848Y97244I-4000J0D01*G01*
X88486Y222683D02*X75686D01*
X88486Y208783D02*Y222683D01*
X75686Y208783D02*X88486D01*
X75686Y222683D02*Y208783D01*
X118159Y219649D02*X120159Y221649D01*
X131539D02*X120159D01*
X131539Y209849D02*Y221649D01*
X118159Y209849D02*X131539D01*
X118159Y219649D02*Y209849D01*
X120849Y215749D02*G75*G03X120849Y215749I4000J0D01*G01*
G54D15*X136615Y271104D02*Y145632D01*
X157087D01*
X136615Y271104D02*X157087D01*
G54D16*X113386Y185040D02*Y172441D01*
X101181D02*X113386D01*
X101181Y185040D02*Y172441D01*
Y185040D02*X113386D01*
G54D12*X118159Y234610D02*X120159Y236610D01*
X131539D02*X120159D01*
X131539Y224810D02*Y236610D01*
X118159Y224810D02*X131539D01*
X118159Y234610D02*Y224810D01*
X120849Y230710D02*G75*G03X120849Y230710I4000J0D01*G01*
X118159Y249964D02*X120159Y251964D01*
X131539D02*X120159D01*
X131539Y240164D02*Y251964D01*
X118159Y240164D02*X131539D01*
X118159Y249964D02*Y240164D01*
X120849Y246064D02*G75*G03X120849Y246064I4000J0D01*G01*
X118159Y264531D02*X120159Y266531D01*
X131539D02*X120159D01*
X131539Y254731D02*Y266531D01*
X118159Y254731D02*X131539D01*
X118159Y264531D02*Y254731D01*
X120849Y260631D02*G75*G03X120849Y260631I4000J0D01*G01*
X118159Y189728D02*X120159Y191728D01*
X131539D02*X120159D01*
X131539Y179928D02*Y191728D01*
X118159Y179928D02*X131539D01*
X118159Y189728D02*Y179928D01*
X120849Y185828D02*G75*G03X120849Y185828I4000J0D01*G01*
X118159Y204688D02*X120159Y206688D01*
X131539D02*X120159D01*
X131539Y194888D02*Y206688D01*
X118159Y194888D02*X131539D01*
X118159Y204688D02*Y194888D01*
X120849Y200788D02*G75*G03X120849Y200788I4000J0D01*G01*
G54D16*X113385Y244884D02*Y232285D01*
X101180D02*X113385D01*
X101180Y244884D02*Y232285D01*
Y244884D02*X113385D01*
X102758Y116324D02*X104758D01*
X105258Y115824D01*
Y114824D01*
X104758Y114324D02*X105258Y114824D01*
X103258Y114324D02*X104758D01*
X103258Y116324D02*Y112324D01*
Y114324D02*X105258Y112324D01*
X106959D02*X107959D01*
X107459Y116324D02*Y112324D01*
X106459Y115324D02*X107459Y116324D01*
X109160Y112824D02*X109660Y112324D01*
X109160Y115824D02*Y112824D01*
Y115824D02*X109660Y116324D01*
X110660D01*
X111160Y115824D01*
Y112824D01*
X110660Y112324D02*X111160Y112824D01*
X109660Y112324D02*X110660D01*
X109160Y113324D02*X111160Y115324D01*
X131203Y145959D02*X132538D01*
Y142844D01*
X132093Y142399D02*X132538Y142844D01*
X131648Y142399D02*X132093D01*
X131203Y142844D02*X131648Y142399D01*
X133606Y145959D02*X135386D01*
X133606D02*Y144179D01*
X134051Y144624D01*
X134941D01*
X135386Y144179D01*
Y142844D01*
X134941Y142399D02*X135386Y142844D01*
X134051Y142399D02*X134941D01*
X133606Y142844D02*X134051Y142399D01*
X131554Y140448D02*X132889D01*
Y137333D01*
X132444Y136888D02*X132889Y137333D01*
X131999Y136888D02*X132444D01*
X131554Y137333D02*X131999Y136888D01*
X134402D02*X135292D01*
X134847Y140448D02*Y136888D01*
X133957Y139558D02*X134847Y140448D01*
X69585Y110582D02*X69975Y110972D01*
X69585Y110582D02*Y109412D01*
X69975Y109022D02*X69585Y109412D01*
X69975Y109022D02*X70755D01*
X71145Y109412D01*
Y110582D02*Y109412D01*
Y110582D02*X71535Y110972D01*
X72315D01*
X72705Y110582D02*X72315Y110972D01*
X72705Y110582D02*Y109412D01*
X72315Y109022D02*X72705Y109412D01*
X72315Y111908D02*X69975Y114248D01*
X69585Y115185D02*X72705D01*
Y116745D02*Y115185D01*
X71145Y118852D02*Y117682D01*
X72705Y119242D02*Y117682D01*
X69585D02*X72705D01*
X69585Y119242D02*Y117682D01*
Y120569D02*X72705D01*
X69585Y121739D02*X69975Y122129D01*
X72315D01*
X72705Y121739D02*X72315Y122129D01*
X72705Y121739D02*Y120179D01*
X69585Y121739D02*Y120179D01*
X72705Y124235D02*Y123455D01*
X69585Y123845D02*X72705D01*
X70365Y123065D02*X69585Y123845D01*
X30040Y84691D02*Y83356D01*
X29595Y82911D02*X30040Y83356D01*
X26925Y82911D02*X29595D01*
X26925D02*X26480Y83356D01*
Y84691D02*Y83356D01*
X30040Y85759D02*X27815Y87984D01*
X26480D02*X27815D01*
X26480D02*Y85759D01*
X59645Y96837D02*Y93337D01*
X60145Y92837D01*
X61145D01*
X61645Y93337D01*
Y96837D02*Y93337D01*
X62846Y96337D02*X63346Y96837D01*
X64846D01*
X65346Y96337D01*
Y95337D01*
X62846Y92837D02*X65346Y95337D01*
X62846Y92837D02*X65346D01*
X43543Y98784D02*Y97284D01*
Y98784D02*X47043D01*
X47543Y98284D02*X47043Y98784D01*
X47543Y98284D02*Y97784D01*
X47043Y97284D02*X47543Y97784D01*
X45543Y99985D02*X43543Y101985D01*
X45543Y102485D02*Y99985D01*
X43543Y101985D02*X47543D01*
X8894Y86007D02*X10894D01*
X11394Y85507D01*
Y84507D01*
X10894Y84007D02*X11394Y84507D01*
X9394Y84007D02*X10894D01*
X9394Y86007D02*Y82007D01*
Y84007D02*X11394Y82007D01*
X12595D02*X14595Y84007D01*
Y85507D02*Y84007D01*
X14095Y86007D02*X14595Y85507D01*
X13095Y86007D02*X14095D01*
X12595Y85507D02*X13095Y86007D01*
X12595Y85507D02*Y84507D01*
X13095Y84007D01*
X14595D01*
X26479Y59959D02*Y58179D01*
Y59959D02*X26924Y60404D01*
X27814D01*
X28259Y59959D02*X27814Y60404D01*
X28259Y59959D02*Y58624D01*
X26479D02*X30039D01*
X28259D02*X30039Y60404D01*
X29594Y61472D02*X30039Y61917D01*
X28704Y61472D02*X29594D01*
X28704D02*X28259Y61917D01*
Y62807D02*Y61917D01*
Y62807D02*X28704Y63252D01*
X29594D01*
X30039Y62807D02*X29594Y63252D01*
X30039Y62807D02*Y61917D01*
X27814Y61472D02*X28259Y61917D01*
X26924Y61472D02*X27814D01*
X26924D02*X26479Y61917D01*
Y62807D02*Y61917D01*
Y62807D02*X26924Y63252D01*
X27814D01*
X28259Y62807D02*X27814Y63252D01*
X26765Y68665D02*X29885D01*
Y70225D02*Y68665D01*
X28325Y72331D02*Y71161D01*
X29885Y72721D02*Y71161D01*
X26765D02*X29885D01*
X26765Y72721D02*Y71161D01*
Y74048D02*X29885D01*
X26765Y75218D02*X27155Y75608D01*
X29495D01*
X29885Y75218D02*X29495Y75608D01*
X29885Y75218D02*Y73658D01*
X26765Y75218D02*Y73658D01*
X27155Y76545D02*X26765Y76935D01*
Y78105D02*Y76935D01*
Y78105D02*X27155Y78495D01*
X27935D01*
X29885Y76545D02*X27935Y78495D01*
X29885D02*Y76545D01*
X22260Y44359D02*Y42359D01*
Y44359D02*X22760Y44859D01*
X23760D01*
X24260Y44359D02*X23760Y44859D01*
X24260Y44359D02*Y42859D01*
X22260D02*X26260D01*
X24260D02*X26260Y44859D01*
X22260Y48060D02*Y46060D01*
X24260D01*
X23760Y46560D01*
Y47560D02*Y46560D01*
Y47560D02*X24260Y48060D01*
X25760D01*
X26260Y47560D02*X25760Y48060D01*
X26260Y47560D02*Y46560D01*
X25760Y46060D02*X26260Y46560D01*
X33916Y28394D02*X36916D01*
X33916D02*X33416Y28894D01*
Y29894D02*Y28894D01*
Y29894D02*X33916Y30394D01*
X36916D01*
X37416Y29894D02*X36916Y30394D01*
X37416Y29894D02*Y28894D01*
X36916Y28394D02*X37416Y28894D01*
X36416Y29394D02*X37416Y30394D01*
X33916Y31595D02*X33416Y32095D01*
Y33595D02*Y32095D01*
Y33595D02*X33916Y34095D01*
X34916D01*
X37416Y31595D02*X34916Y34095D01*
X37416D02*Y31595D01*
X52383Y26561D02*X53883D01*
Y23061D01*
X53383Y22561D02*X53883Y23061D01*
X52883Y22561D02*X53383D01*
X52383Y23061D02*X52883Y22561D01*
X55084Y26061D02*X55584Y26561D01*
X57084D01*
X57584Y26061D01*
Y25061D01*
X55084Y22561D02*X57584Y25061D01*
X55084Y22561D02*X57584D01*
X59267Y27985D02*Y25985D01*
Y27985D02*X59767Y28485D01*
X60767D01*
X61267Y27985D02*X60767Y28485D01*
X61267Y27985D02*Y26485D01*
X59267D02*X63267D01*
X61267D02*X63267Y28485D01*
X59267Y31186D02*X59767Y31686D01*
X59267Y31186D02*Y30186D01*
X59767Y29686D02*X59267Y30186D01*
X59767Y29686D02*X62767D01*
X63267Y30186D01*
X61267Y31186D02*X61767Y31686D01*
X61267Y31186D02*Y29686D01*
X63267Y31186D02*Y30186D01*
Y31186D02*X62767Y31686D01*
X61767D02*X62767D01*
X20080Y28529D02*Y24529D01*
Y28529D02*X22080D01*
X20080Y26529D02*X21580D01*
X23781Y24529D02*X24781D01*
X24281Y28529D02*Y24529D01*
X23281Y27529D02*X24281Y28529D01*
X85431Y80331D02*Y77211D01*
X86991D01*
X87927Y78771D02*X89097D01*
X87927Y77211D02*X89487D01*
X87927Y80331D02*Y77211D01*
Y80331D02*X89487D01*
X90814D02*Y77211D01*
X91984Y80331D02*X92374Y79941D01*
Y77601D01*
X91984Y77211D02*X92374Y77601D01*
X90424Y77211D02*X91984D01*
X90424Y80331D02*X91984D01*
X93701Y77211D02*X94481D01*
X94091Y80331D02*Y77211D01*
X93311Y79551D02*X94091Y80331D01*
X95418Y79941D02*X95808Y80331D01*
X96978D01*
X97368Y79941D01*
Y79161D01*
X95418Y77211D02*X97368Y79161D01*
X95418Y77211D02*X97368D01*
X113392Y2436D02*X116952D01*
X113392Y3771D02*X113837Y4216D01*
X116507D01*
X116952Y3771D02*X116507Y4216D01*
X116952Y3771D02*Y1991D01*
X113392Y3771D02*Y1991D01*
X116952Y6619D02*Y5729D01*
X113392Y6174D02*X116952D01*
X114282Y5284D02*X113392Y6174D01*
X103150Y37189D02*X105150D01*
X105650Y36689D01*
Y35689D01*
X105150Y35189D02*X105650Y35689D01*
X103650Y35189D02*X105150D01*
X103650Y37189D02*Y33189D01*
Y35189D02*X105650Y33189D01*
X107351D02*X108351D01*
X107851Y37189D02*Y33189D01*
X106851Y36189D02*X107851Y37189D01*
X110052Y33189D02*X111052D01*
X110552Y37189D02*Y33189D01*
X109552Y36189D02*X110552Y37189D01*
X85431Y75607D02*Y72487D01*
X86991D01*
X87927Y74047D02*X89097D01*
X87927Y72487D02*X89487D01*
X87927Y75607D02*Y72487D01*
Y75607D02*X89487D01*
X90814D02*Y72487D01*
X91984Y75607D02*X92374Y75217D01*
Y72877D01*
X91984Y72487D02*X92374Y72877D01*
X90424Y72487D02*X91984D01*
X90424Y75607D02*X91984D01*
X93701Y72487D02*X94481D01*
X94091Y75607D02*Y72487D01*
X93311Y74827D02*X94091Y75607D01*
X96588D02*X96978Y75217D01*
X95808Y75607D02*X96588D01*
X95418Y75217D02*X95808Y75607D01*
X95418Y75217D02*Y72877D01*
X95808Y72487D01*
X96588Y74047D02*X96978Y73657D01*
X95418Y74047D02*X96588D01*
X95808Y72487D02*X96588D01*
X96978Y72877D01*
Y73657D02*Y72877D01*
X85432Y89780D02*Y86660D01*
X86992D01*
X87928Y88220D02*X89098D01*
X87928Y86660D02*X89488D01*
X87928Y89780D02*Y86660D01*
Y89780D02*X89488D01*
X90815D02*Y86660D01*
X91985Y89780D02*X92375Y89390D01*
Y87050D01*
X91985Y86660D02*X92375Y87050D01*
X90425Y86660D02*X91985D01*
X90425Y89780D02*X91985D01*
X93702Y86660D02*X94482D01*
X94092Y89780D02*Y86660D01*
X93312Y89000D02*X94092Y89780D01*
X95809Y86660D02*X96589D01*
X96199Y89780D02*Y86660D01*
X95419Y89000D02*X96199Y89780D01*
X85432Y85054D02*Y81934D01*
X86992D01*
X87928Y83494D02*X89098D01*
X87928Y81934D02*X89488D01*
X87928Y85054D02*Y81934D01*
Y85054D02*X89488D01*
X90815D02*Y81934D01*
X91985Y85054D02*X92375Y84664D01*
Y82324D01*
X91985Y81934D02*X92375Y82324D01*
X90425Y81934D02*X91985D01*
X90425Y85054D02*X91985D01*
X93702Y81934D02*X94482D01*
X94092Y85054D02*Y81934D01*
X93312Y84274D02*X94092Y85054D01*
X95419D02*X96979D01*
X95419D02*Y83494D01*
X95809Y83884D01*
X96589D01*
X96979Y83494D01*
Y82324D01*
X96589Y81934D02*X96979Y82324D01*
X95809Y81934D02*X96589D01*
X95419Y82324D02*X95809Y81934D01*
X88523Y24803D02*X91643D01*
Y26363D02*Y24803D01*
X90083Y28469D02*Y27299D01*
X91643Y28859D02*Y27299D01*
X88523D02*X91643D01*
X88523Y28859D02*Y27299D01*
Y30186D02*X91643D01*
X88523Y31356D02*X88913Y31746D01*
X91253D01*
X91643Y31356D02*X91253Y31746D01*
X91643Y31356D02*Y29796D01*
X88523Y31356D02*Y29796D01*
X91643Y33853D02*Y33073D01*
X88523Y33463D02*X91643D01*
X89303Y32683D02*X88523Y33463D01*
X85433Y70881D02*Y67761D01*
X86993D01*
X87929Y69321D02*X89099D01*
X87929Y67761D02*X89489D01*
X87929Y70881D02*Y67761D01*
Y70881D02*X89489D01*
X90816D02*Y67761D01*
X91986Y70881D02*X92376Y70491D01*
Y68151D01*
X91986Y67761D02*X92376Y68151D01*
X90426Y67761D02*X91986D01*
X90426Y70881D02*X91986D01*
X93703Y67761D02*X94483D01*
X94093Y70881D02*Y67761D01*
X93313Y70101D02*X94093Y70881D01*
X95420Y70491D02*X95810Y70881D01*
X96590D01*
X96980Y70491D01*
Y68151D01*
X96590Y67761D02*X96980Y68151D01*
X95810Y67761D02*X96590D01*
X95420Y68151D02*X95810Y67761D01*
Y69321D02*X96980D01*
X85432Y66157D02*Y63037D01*
X86992D01*
X87928Y64597D02*X89098D01*
X87928Y63037D02*X89488D01*
X87928Y66157D02*Y63037D01*
Y66157D02*X89488D01*
X90815D02*Y63037D01*
X91985Y66157D02*X92375Y65767D01*
Y63427D01*
X91985Y63037D02*X92375Y63427D01*
X90425Y63037D02*X91985D01*
X90425Y66157D02*X91985D01*
X93702Y63037D02*X94482D01*
X94092Y66157D02*Y63037D01*
X93312Y65377D02*X94092Y66157D01*
X95419Y63037D02*X97369Y64987D01*
Y66157D02*Y64987D01*
X95419Y66157D02*X97369D01*
X85432Y61434D02*Y58314D01*
X86992D01*
X87928Y59874D02*X89098D01*
X87928Y58314D02*X89488D01*
X87928Y61434D02*Y58314D01*
Y61434D02*X89488D01*
X90815D02*Y58314D01*
X91985Y61434D02*X92375Y61044D01*
Y58704D01*
X91985Y58314D02*X92375Y58704D01*
X90425Y58314D02*X91985D01*
X90425Y61434D02*X91985D01*
X93702Y58314D02*X94482D01*
X94092Y61434D02*Y58314D01*
X93312Y60654D02*X94092Y61434D01*
X95419Y59874D02*X96979Y61434D01*
X95419Y59874D02*X97369D01*
X96979Y61434D02*Y58314D01*
X85433Y56709D02*Y53589D01*
X86993D01*
X87929Y55149D02*X89099D01*
X87929Y53589D02*X89489D01*
X87929Y56709D02*Y53589D01*
Y56709D02*X89489D01*
X90816D02*Y53589D01*
X91986Y56709D02*X92376Y56319D01*
Y53979D01*
X91986Y53589D02*X92376Y53979D01*
X90426Y53589D02*X91986D01*
X90426Y56709D02*X91986D01*
X93703Y53589D02*X94483D01*
X94093Y56709D02*Y53589D01*
X93313Y55929D02*X94093Y56709D01*
X95420Y53979D02*X95810Y53589D01*
X95420Y54759D02*Y53979D01*
Y54759D02*X95810Y55149D01*
X96590D01*
X96980Y54759D01*
Y53979D01*
X96590Y53589D02*X96980Y53979D01*
X95810Y53589D02*X96590D01*
X95420Y55539D02*X95810Y55149D01*
X95420Y56319D02*Y55539D01*
Y56319D02*X95810Y56709D01*
X96590D01*
X96980Y56319D01*
Y55539D01*
X96590Y55149D02*X96980Y55539D01*
X57071Y205246D02*X57516Y205691D01*
X57071Y205246D02*Y203911D01*
X57516Y203466D02*X57071Y203911D01*
X57516Y203466D02*X58406D01*
X58851Y203911D01*
Y205246D02*Y203911D01*
Y205246D02*X59296Y205691D01*
X60186D01*
X60631Y205246D02*X60186Y205691D01*
X60631Y205246D02*Y203911D01*
X60186Y203466D02*X60631Y203911D01*
X60186Y206759D02*X57516Y209429D01*
X57071Y212278D02*X57516Y212723D01*
X57071Y212278D02*Y210943D01*
X57516Y210498D02*X57071Y210943D01*
X57516Y210498D02*X58406D01*
X58851Y210943D01*
Y212278D02*Y210943D01*
Y212278D02*X59296Y212723D01*
X60186D01*
X60631Y212278D02*X60186Y212723D01*
X60631Y212278D02*Y210943D01*
X60186Y210498D02*X60631Y210943D01*
X60186Y213792D02*X57516Y216462D01*
X57071Y218866D02*Y217531D01*
Y218866D02*X60186D01*
X60631Y218421D02*X60186Y218866D01*
X60631Y218421D02*Y217976D01*
X60186Y217531D02*X60631Y217976D01*
X57516Y219935D02*X57071Y220380D01*
Y221715D02*Y220380D01*
Y221715D02*X57516Y222160D01*
X58406D01*
X60631Y219935D02*X58406Y222160D01*
X60631D02*Y219935D01*
X70159Y211011D02*X70659Y211511D01*
X70159Y211011D02*Y209511D01*
X70659Y209011D02*X70159Y209511D01*
X70659Y209011D02*X71659D01*
X72159Y209511D01*
Y211011D02*Y209511D01*
Y211011D02*X72659Y211511D01*
X73659D01*
X74159Y211011D02*X73659Y211511D01*
X74159Y211011D02*Y209511D01*
X73659Y209011D02*X74159Y209511D01*
X73659Y212712D02*X70659Y215712D01*
X70159Y217413D02*X74159D01*
X70159Y218913D02*X70659Y219413D01*
X73659D01*
X74159Y218913D02*X73659Y219413D01*
X74159Y218913D02*Y216913D01*
X70159Y218913D02*Y216913D01*
X74159Y220614D02*X71659Y223114D01*
X70159D02*X71659D01*
X70159D02*Y220614D01*
X70158Y227941D02*X70658Y228441D01*
X70158Y227941D02*Y226441D01*
X70658Y225941D02*X70158Y226441D01*
X70658Y225941D02*X71658D01*
X72158Y226441D01*
Y227941D02*Y226441D01*
Y227941D02*X72658Y228441D01*
X73658D01*
X74158Y227941D02*X73658Y228441D01*
X74158Y227941D02*Y226441D01*
X73658Y225941D02*X74158Y226441D01*
X73658Y229642D02*X70658Y232642D01*
X70158Y234343D02*X74158D01*
X70158Y235843D02*X70658Y236343D01*
X73658D01*
X74158Y235843D02*X73658Y236343D01*
X74158Y235843D02*Y233843D01*
X70158Y235843D02*Y233843D01*
X73658Y237544D02*X74158Y238044D01*
X72658Y237544D02*X73658D01*
X72658D02*X72158Y238044D01*
Y239044D02*Y238044D01*
Y239044D02*X72658Y239544D01*
X73658D01*
X74158Y239044D02*X73658Y239544D01*
X74158Y239044D02*Y238044D01*
X71658Y237544D02*X72158Y238044D01*
X70658Y237544D02*X71658D01*
X70658D02*X70158Y238044D01*
Y239044D02*Y238044D01*
Y239044D02*X70658Y239544D01*
X71658D01*
X72158Y239044D02*X71658Y239544D01*
X46083Y261205D02*X47583D01*
Y257705D01*
X47083Y257205D02*X47583Y257705D01*
X46583Y257205D02*X47083D01*
X46083Y257705D02*X46583Y257205D01*
X48784Y260705D02*X49284Y261205D01*
X50284D01*
X50784Y260705D01*
Y257705D01*
X50284Y257205D02*X50784Y257705D01*
X49284Y257205D02*X50284D01*
X48784Y257705D02*X49284Y257205D01*
Y259205D02*X50784D01*
X102755Y230891D02*X104755D01*
X105255Y230391D01*
Y229391D01*
X104755Y228891D02*X105255Y229391D01*
X103255Y228891D02*X104755D01*
X103255Y230891D02*Y226891D01*
Y228891D02*X105255Y226891D01*
X106956D02*X107956D01*
X107456Y230891D02*Y226891D01*
X106456Y229891D02*X107456Y230891D01*
X109157Y230391D02*X109657Y230891D01*
X110657D01*
X111157Y230391D01*
Y227391D01*
X110657Y226891D02*X111157Y227391D01*
X109657Y226891D02*X110657D01*
X109157Y227391D02*X109657Y226891D01*
Y228891D02*X111157D01*
X71258Y191840D02*Y188720D01*
X72818D01*
X73754Y190280D02*X74924D01*
X73754Y188720D02*X75314D01*
X73754Y191840D02*Y188720D01*
Y191840D02*X75314D01*
X76641D02*Y188720D01*
X77811Y191840D02*X78201Y191450D01*
Y189110D01*
X77811Y188720D02*X78201Y189110D01*
X76251Y188720D02*X77811D01*
X76251Y191840D02*X77811D01*
X79138D02*X80698D01*
X79138D02*Y190280D01*
X79528Y190670D01*
X80308D01*
X80698Y190280D01*
Y189110D01*
X80308Y188720D02*X80698Y189110D01*
X79528Y188720D02*X80308D01*
X79138Y189110D02*X79528Y188720D01*
X71257Y196563D02*Y193443D01*
X72817D01*
X73753Y195003D02*X74923D01*
X73753Y193443D02*X75313D01*
X73753Y196563D02*Y193443D01*
Y196563D02*X75313D01*
X76640D02*Y193443D01*
X77810Y196563D02*X78200Y196173D01*
Y193833D01*
X77810Y193443D02*X78200Y193833D01*
X76250Y193443D02*X77810D01*
X76250Y196563D02*X77810D01*
X79137Y193443D02*X80697Y195003D01*
Y196173D02*Y195003D01*
X80307Y196563D02*X80697Y196173D01*
X79527Y196563D02*X80307D01*
X79137Y196173D02*X79527Y196563D01*
X79137Y196173D02*Y195393D01*
X79527Y195003D01*
X80697D01*
X71259Y172940D02*Y169820D01*
X72819D01*
X73755Y171380D02*X74925D01*
X73755Y169820D02*X75315D01*
X73755Y172940D02*Y169820D01*
Y172940D02*X75315D01*
X76642D02*Y169820D01*
X77812Y172940D02*X78202Y172550D01*
Y170210D01*
X77812Y169820D02*X78202Y170210D01*
X76252Y169820D02*X77812D01*
X76252Y172940D02*X77812D01*
X79139Y172550D02*X79529Y172940D01*
X80309D01*
X80699Y172550D01*
Y170210D01*
X80309Y169820D02*X80699Y170210D01*
X79529Y169820D02*X80309D01*
X79139Y170210D02*X79529Y169820D01*
Y171380D02*X80699D01*
X71259Y182390D02*Y179270D01*
X72819D01*
X73755Y180830D02*X74925D01*
X73755Y179270D02*X75315D01*
X73755Y182390D02*Y179270D01*
Y182390D02*X75315D01*
X76642D02*Y179270D01*
X77812Y182390D02*X78202Y182000D01*
Y179660D01*
X77812Y179270D02*X78202Y179660D01*
X76252Y179270D02*X77812D01*
X76252Y182390D02*X77812D01*
X79139Y180830D02*X80699Y182390D01*
X79139Y180830D02*X81089D01*
X80699Y182390D02*Y179270D01*
X71261Y177667D02*Y174547D01*
X72821D01*
X73757Y176107D02*X74927D01*
X73757Y174547D02*X75317D01*
X73757Y177667D02*Y174547D01*
Y177667D02*X75317D01*
X76644D02*Y174547D01*
X77814Y177667D02*X78204Y177277D01*
Y174937D01*
X77814Y174547D02*X78204Y174937D01*
X76254Y174547D02*X77814D01*
X76254Y177667D02*X77814D01*
X79141Y174547D02*X81091Y176497D01*
Y177667D02*Y176497D01*
X79141Y177667D02*X81091D01*
X71257Y201289D02*Y198169D01*
X72817D01*
X73753Y199729D02*X74923D01*
X73753Y198169D02*X75313D01*
X73753Y201289D02*Y198169D01*
Y201289D02*X75313D01*
X76640D02*Y198169D01*
X77810Y201289D02*X78200Y200899D01*
Y198559D01*
X77810Y198169D02*X78200Y198559D01*
X76250Y198169D02*X77810D01*
X76250Y201289D02*X77810D01*
X80307D02*X80697Y200899D01*
X79527Y201289D02*X80307D01*
X79137Y200899D02*X79527Y201289D01*
X79137Y200899D02*Y198559D01*
X79527Y198169D01*
X80307Y199729D02*X80697Y199339D01*
X79137Y199729D02*X80307D01*
X79527Y198169D02*X80307D01*
X80697Y198559D01*
Y199339D02*Y198559D01*
X71259Y206010D02*Y202890D01*
X72819D01*
X73755Y204450D02*X74925D01*
X73755Y202890D02*X75315D01*
X73755Y206010D02*Y202890D01*
Y206010D02*X75315D01*
X76642D02*Y202890D01*
X77812Y206010D02*X78202Y205620D01*
Y203280D01*
X77812Y202890D02*X78202Y203280D01*
X76252Y202890D02*X77812D01*
X76252Y206010D02*X77812D01*
X79529Y202890D02*X80309D01*
X79919Y206010D02*Y202890D01*
X79139Y205230D02*X79919Y206010D01*
X81246Y203280D02*X81636Y202890D01*
X81246Y205620D02*Y203280D01*
Y205620D02*X81636Y206010D01*
X82416D01*
X82806Y205620D01*
Y203280D01*
X82416Y202890D02*X82806Y203280D01*
X81636Y202890D02*X82416D01*
X81246Y203670D02*X82806Y205230D01*
X71260Y187115D02*Y183995D01*
X72820D01*
X73756Y185555D02*X74926D01*
X73756Y183995D02*X75316D01*
X73756Y187115D02*Y183995D01*
Y187115D02*X75316D01*
X76643D02*Y183995D01*
X77813Y187115D02*X78203Y186725D01*
Y184385D01*
X77813Y183995D02*X78203Y184385D01*
X76253Y183995D02*X77813D01*
X76253Y187115D02*X77813D01*
X79140Y184385D02*X79530Y183995D01*
X79140Y185165D02*Y184385D01*
Y185165D02*X79530Y185555D01*
X80310D01*
X80700Y185165D01*
Y184385D01*
X80310Y183995D02*X80700Y184385D01*
X79530Y183995D02*X80310D01*
X79140Y185945D02*X79530Y185555D01*
X79140Y186725D02*Y185945D01*
Y186725D02*X79530Y187115D01*
X80310D01*
X80700Y186725D01*
Y185945D01*
X80310Y185555D02*X80700Y185945D01*
X57072Y142252D02*X57517Y142697D01*
X57072Y142252D02*Y140917D01*
X57517Y140472D02*X57072Y140917D01*
X57517Y140472D02*X58407D01*
X58852Y140917D01*
Y142252D02*Y140917D01*
Y142252D02*X59297Y142697D01*
X60187D01*
X60632Y142252D02*X60187Y142697D01*
X60632Y142252D02*Y140917D01*
X60187Y140472D02*X60632Y140917D01*
X60187Y143765D02*X57517Y146435D01*
X57072Y149284D02*X57517Y149729D01*
X57072Y149284D02*Y147949D01*
X57517Y147504D02*X57072Y147949D01*
X57517Y147504D02*X58407D01*
X58852Y147949D01*
Y149284D02*Y147949D01*
Y149284D02*X59297Y149729D01*
X60187D01*
X60632Y149284D02*X60187Y149729D01*
X60632Y149284D02*Y147949D01*
X60187Y147504D02*X60632Y147949D01*
X60187Y150798D02*X57517Y153468D01*
X57072Y155872D02*Y154537D01*
Y155872D02*X60187D01*
X60632Y155427D02*X60187Y155872D01*
X60632Y155427D02*Y154982D01*
X60187Y154537D02*X60632Y154982D01*
Y158276D02*Y157386D01*
X57072Y157831D02*X60632D01*
X57962Y156941D02*X57072Y157831D01*
X63589Y153183D02*X64034Y153628D01*
X63589Y153183D02*Y151848D01*
X64034Y151403D02*X63589Y151848D01*
X64034Y151403D02*X64924D01*
X65369Y151848D01*
Y153183D02*Y151848D01*
Y153183D02*X65814Y153628D01*
X66704D01*
X67149Y153183D02*X66704Y153628D01*
X67149Y153183D02*Y151848D01*
X66704Y151403D02*X67149Y151848D01*
X66704Y154696D02*X64034Y157366D01*
X63589Y158880D02*X67149D01*
X63589Y160215D02*X64034Y160660D01*
X66704D01*
X67149Y160215D02*X66704Y160660D01*
X67149Y160215D02*Y158435D01*
X63589Y160215D02*Y158435D01*
X67149Y161729D02*X65369Y163509D01*
X64034D02*X65369D01*
X63589Y163064D02*X64034Y163509D01*
X63589Y163064D02*Y162174D01*
X64034Y161729D02*X63589Y162174D01*
X64034Y161729D02*X64924D01*
X65369Y162174D01*
Y163509D02*Y162174D01*
X57496Y129161D02*X57886Y129551D01*
X57496Y129161D02*Y127991D01*
X57886Y127601D02*X57496Y127991D01*
X57886Y127601D02*X58666D01*
X59056Y127991D01*
Y129161D02*Y127991D01*
Y129161D02*X59446Y129551D01*
X60226D01*
X60616Y129161D02*X60226Y129551D01*
X60616Y129161D02*Y127991D01*
X60226Y127601D02*X60616Y127991D01*
X60226Y130487D02*X57886Y132827D01*
X57496Y134934D02*Y133764D01*
Y134934D02*X60226D01*
X60616Y134544D02*X60226Y134934D01*
X60616Y134544D02*Y134154D01*
X60226Y133764D02*X60616Y134154D01*
X57886Y135871D02*X57496Y136261D01*
Y137041D02*Y136261D01*
Y137041D02*X57886Y137431D01*
X60226D01*
X60616Y137041D02*X60226Y137431D01*
X60616Y137041D02*Y136261D01*
X60226Y135871D02*X60616Y136261D01*
X59056Y137431D02*Y136261D01*
X102755Y171047D02*X104755D01*
X105255Y170547D01*
Y169547D01*
X104755Y169047D02*X105255Y169547D01*
X103255Y169047D02*X104755D01*
X103255Y171047D02*Y167047D01*
Y169047D02*X105255Y167047D01*
X106956D02*X107956D01*
X107456Y171047D02*Y167047D01*
X106456Y170047D02*X107456Y171047D01*
X109157Y170547D02*X109657Y171047D01*
X111157D01*
X111657Y170547D01*
Y169547D01*
X109157Y167047D02*X111657Y169547D01*
X109157Y167047D02*X111657D01*
M02*
