G04 start of page 9 for group -4078 idx -4078 *
G04 Title: (unknown), bottomsilk *
G04 Creator: pcb 20110918 *
G04 CreationDate: Tue 21 Aug 2012 15:57:03 GMT UTC *
G04 For: rob *
G04 Format: Gerber/RS-274X *
G04 PCB-Dimensions: 157480 283465 *
G04 PCB-Coordinate-Origin: lower left *
%MOIN*%
%FSLAX25Y25*%
%LNBOTTOMSILK*%
%ADD112C,0.0098*%
%ADD111C,0.0200*%
%ADD110C,0.0080*%
%ADD109C,0.0100*%
%ADD108C,0.0079*%
%ADD107C,0.0001*%
G54D107*G36*
X86853Y92467D02*Y153775D01*
X103359D01*
Y92467D01*
X86853D01*
G37*
G54D108*X76968Y203545D02*Y204332D01*
X69291Y202560D02*Y183466D01*
X82283Y183269D02*Y202560D01*
X69291Y183269D02*X82283D01*
X76969Y204331D02*X76182Y205118D01*
X75197Y202757D02*X55905D01*
X82283Y202560D02*X69291D01*
X75197Y243111D02*Y202757D01*
X55905Y243111D02*X75197D01*
G54D109*X7874Y253150D02*X5118Y250394D01*
Y247245D01*
G54D108*X55905Y202757D02*Y243111D01*
G54D109*X22441Y57087D02*X21260Y55906D01*
X2362Y101575D02*Y55119D01*
X2756Y54725D01*
X25197Y57087D02*X22441D01*
G54D108*X55905Y164371D02*Y154135D01*
X67323D02*Y164371D01*
X61811D02*Y154135D01*
X55905D02*X67323D01*
X13582Y156104D02*X12795Y155317D01*
G54D109*X27953Y146457D02*Y150000D01*
G54D108*X13582Y160828D02*Y156104D01*
X17323Y164568D02*X13582Y160828D01*
X25197Y164568D02*X17323D01*
X12402Y165749D02*X10040Y163387D01*
X67126Y172640D02*X67716Y173230D01*
X67126Y165356D02*Y172640D01*
X68897Y169096D02*Y181694D01*
X67323Y164371D02*X55905D01*
X79527Y169096D02*X68897D01*
X79527Y181694D02*Y169096D01*
X68897Y181694D02*X79527D01*
X74212D02*Y169096D01*
G54D109*X135039Y162993D02*X127559D01*
X127165Y162599D01*
X135039Y177953D02*X127559D01*
X127165Y177559D01*
X135039Y193308D02*X127559D01*
X127165Y192914D01*
X135039Y208268D02*X127559D01*
X127165Y207874D01*
X135039Y223229D02*X127559D01*
X127165Y222835D01*
X135039Y238189D02*X127558D01*
X135039Y253150D02*X127559D01*
X127165Y252756D01*
X135039Y268111D02*X127559D01*
X127165Y267717D01*
X127558Y238189D02*X127165Y237796D01*
X115672Y31002D02*X129572D01*
X115672Y43802D02*Y31002D01*
Y43802D02*X129572D01*
Y31002D01*
X115672Y16041D02*X129572D01*
X115672Y28841D02*Y16041D01*
Y28841D02*X129572D01*
Y16041D01*
G54D110*X78543Y36614D02*Y32678D01*
X67915Y36614D02*Y32678D01*
X65157Y36614D02*Y32678D01*
X54529Y36614D02*Y32678D01*
G54D108*X134973Y38189D02*Y36615D01*
X131957Y38189D02*Y36615D01*
X134973Y53150D02*Y51576D01*
X131957Y53150D02*Y51576D01*
X134973Y23228D02*Y21654D01*
X131957Y23228D02*Y21654D01*
G54D109*X104773Y250063D02*X116673D01*
Y242063D01*
X104773D02*X116673D01*
X104773Y250063D02*Y242063D01*
X111273Y250063D02*Y248563D01*
G54D110*X124410Y255710D02*X128346D01*
X124410Y266338D02*X128346D01*
G54D109*X108203Y270609D02*Y258709D01*
Y270609D02*X116203D01*
Y258709D01*
X108203D02*X116203D01*
X108203Y265209D02*X109703D01*
G54D110*X124410Y210434D02*X128346D01*
X124410Y221062D02*X128346D01*
X124410Y195474D02*X128346D01*
X124410Y206102D02*X128346D01*
X124410Y240749D02*X128346D01*
X124410Y251377D02*X128346D01*
X124410Y225395D02*X128346D01*
X124410Y236023D02*X128346D01*
G54D109*X104773Y204788D02*X116673D01*
Y196788D01*
X104773D02*X116673D01*
X104773Y204788D02*Y196788D01*
X111273Y204788D02*Y203288D01*
X104773Y189827D02*X116673D01*
Y181827D01*
X104773D02*X116673D01*
X104773Y189827D02*Y181827D01*
X111273Y189827D02*Y188327D01*
X104773Y174867D02*X116673D01*
Y166867D01*
X104773D02*X116673D01*
X104773Y174867D02*Y166867D01*
X111273Y174867D02*Y173367D01*
X104773Y159906D02*X116673D01*
Y151906D01*
X104773D02*X116673D01*
X104773Y159906D02*Y151906D01*
X111273Y159906D02*Y158406D01*
G54D110*X124410Y150592D02*X128346D01*
X124410Y161220D02*X128346D01*
X124410Y180513D02*X128346D01*
X124410Y191141D02*X128346D01*
X124410Y165553D02*X128346D01*
X124410Y176181D02*X128346D01*
G54D109*X88486Y225744D02*X75686D01*
X88486Y239644D02*Y225744D01*
X75686Y239644D02*X88486D01*
X75686Y225744D02*Y239644D01*
X104773Y234709D02*X116673D01*
Y226709D01*
X104773D02*X116673D01*
X104773Y234709D02*Y226709D01*
X111273Y234709D02*Y233209D01*
X81239Y153962D02*X68439D01*
X81239Y167862D02*Y153962D01*
X68439Y167862D02*X81239D01*
X68439Y153962D02*Y167862D01*
X104773Y219748D02*X116673D01*
Y211748D01*
X104773D02*X116673D01*
X104773Y219748D02*Y211748D01*
X111273Y219748D02*Y218248D01*
X75686Y222683D02*X88486D01*
X75686D02*Y208783D01*
X88486D01*
Y222683D02*Y208783D01*
G54D110*X63188Y224608D02*X67912D01*
X63188Y232088D02*X67912D01*
X63188Y234450D02*X67912D01*
X63188Y241930D02*X67912D01*
X63188Y203938D02*X67912D01*
X63188Y211418D02*X67912D01*
X63188Y213189D02*X67912D01*
X63188Y220669D02*X67912D01*
G54D108*X134973Y68110D02*Y66536D01*
X131957Y68110D02*Y66536D01*
X134973Y83071D02*Y81497D01*
X131957Y83071D02*Y81497D01*
X134973Y98032D02*Y96458D01*
X131957Y98032D02*Y96458D01*
X134973Y112992D02*Y111418D01*
X131957Y112992D02*Y111418D01*
X134973Y128346D02*Y126772D01*
X131957Y128346D02*Y126772D01*
G54D109*X50786Y115553D02*X64686D01*
Y102753D01*
X50786D02*X64686D01*
X50786Y115553D02*Y102753D01*
G54D108*X66405Y111257D02*Y109683D01*
X69421Y111257D02*Y109683D01*
X71917Y111257D02*Y109683D01*
X74933Y111257D02*Y109683D01*
X54098Y132218D02*X55672D01*
X54098Y129202D02*X55672D01*
X54098Y126312D02*X55672D01*
X54098Y123296D02*X55672D01*
G54D109*X115672Y105805D02*X129572D01*
X115672Y118605D02*Y105805D01*
Y118605D02*X129572D01*
Y105805D01*
X115672Y75884D02*X129572D01*
X115672Y88684D02*Y75884D01*
Y88684D02*X129572D01*
Y75884D01*
X115672Y60923D02*X129572D01*
X115672Y73723D02*Y60923D01*
Y73723D02*X129572D01*
Y60923D01*
X115672Y45963D02*X129572D01*
X115672Y58763D02*Y45963D01*
Y58763D02*X129572D01*
Y45963D01*
X115672Y90845D02*X129572D01*
X115672Y103645D02*Y90845D01*
Y103645D02*X129572D01*
Y90845D01*
X115672Y121159D02*X129572D01*
X115672Y133959D02*Y121159D01*
Y133959D02*X129572D01*
Y121159D01*
X54544Y152296D02*X67344D01*
X54544D02*Y138396D01*
X67344D01*
Y152296D02*Y138396D01*
G54D108*X66075Y160076D02*Y158502D01*
X63059Y160076D02*Y158502D01*
X60791Y165816D02*X62365D01*
X60791Y168832D02*X62365D01*
X60367Y160076D02*Y158502D01*
X57351Y160076D02*Y158502D01*
G54D109*X19129Y149989D02*X21729Y148789D01*
X1529Y149989D02*X19129D01*
X1529D02*Y138989D01*
X19129D01*
X21729Y140189D02*X19129Y138989D01*
G54D111*X21729Y148789D02*Y140189D01*
G54D108*X6460Y162139D02*X8034D01*
X6460Y159123D02*X8034D01*
X6693Y152430D02*X8267D01*
X6693Y155446D02*X8267D01*
X6694Y166603D02*X8268D01*
X6694Y169619D02*X8268D01*
G54D109*X17754Y163313D02*Y151513D01*
X31654D01*
Y163313D02*Y151513D01*
X26254Y163313D02*X31654D01*
X17754D02*X23154D01*
G75*G03X26154Y163313I1500J0D01*G01*
X63224Y202884D02*Y174384D01*
X21824Y202884D02*X63224D01*
X21824D02*Y174384D01*
X63224D01*
G54D111*X5637Y62107D02*X14049D01*
G54D109*X5637D02*X3937Y69107D01*
Y93407D02*Y69107D01*
Y93407D02*X15749D01*
Y69107D01*
X14049Y62107D02*X15749Y69107D01*
G54D110*X26773Y89566D02*X30709D01*
X26773Y78938D02*X30709D01*
G54D109*X23915Y74091D02*Y60191D01*
Y74091D02*X36715D01*
Y60191D01*
X23915D02*X36715D01*
X26540Y120879D02*X23940Y122079D01*
X44140Y120879D02*X26540D01*
X44140Y131879D02*Y120879D01*
X26540Y131879D02*X44140D01*
X23940Y130679D02*X26540Y131879D01*
G54D111*X23940Y122079D02*Y130679D01*
G54D108*X13713Y55512D02*Y53938D01*
X10697Y55512D02*Y53938D01*
G54D110*X3347Y189960D02*Y189174D01*
X8857Y189960D02*Y189174D01*
G54D109*X20019Y213511D02*X33085D01*
X1953D02*X15019D01*
X33085Y234723D02*Y213511D01*
X1953Y234723D02*X33085D01*
X1953D02*Y213511D01*
X20019D02*G75*G03X15019Y213511I-2500J0D01*G01*
G54D108*X3609Y242288D02*Y240714D01*
X6625Y242288D02*Y240714D01*
X30869Y209777D02*X32443D01*
X30869Y206761D02*X32443D01*
X3610Y24571D02*Y22997D01*
X6626Y24571D02*Y22997D01*
G54D109*X19355Y18087D02*Y4187D01*
X6555D02*X19355D01*
X6555Y18087D02*Y4187D01*
Y18087D02*X19355D01*
X36678D02*Y4187D01*
X23878D02*X36678D01*
X23878Y18087D02*Y4187D01*
Y18087D02*X36678D01*
G54D112*X51970Y53346D02*Y21850D01*
X27560D02*X51970D01*
X27560Y53346D02*Y21850D01*
Y53346D02*X51970D01*
G54D108*X6366Y44649D02*Y43075D01*
X9382Y44649D02*Y43075D01*
G54D109*X12918Y22821D02*X23894D01*
X12918Y48443D02*Y22821D01*
Y48443D02*X23894D01*
Y33132D02*Y22821D01*
Y48443D02*Y38132D01*
G75*G03X23894Y33132I0J-2500D01*G01*
G54D108*X20473Y51248D02*X22047D01*
X20473Y54264D02*X22047D01*
X7020Y55512D02*Y53938D01*
X4004Y55512D02*Y53938D01*
X9382Y34413D02*Y32839D01*
X6366Y34413D02*Y32839D01*
X68677Y150737D02*X69067Y150347D01*
X68677Y150737D02*Y151907D01*
X69067Y152297D02*X68677Y151907D01*
X69067Y152297D02*X69847D01*
X70237Y151907D01*
Y150737D02*Y151907D01*
Y150737D02*X70627Y150347D01*
X71407D01*
X71797Y150737D02*X71407Y150347D01*
X71797Y150737D02*Y151907D01*
X71407Y152297D02*X71797Y151907D01*
X71407Y149411D02*X69067Y147071D01*
X68677Y145745D02*X71797D01*
X68677Y144575D02*X69067Y144185D01*
X71407D01*
X71797Y144575D02*X71407Y144185D01*
X71797Y144575D02*Y146135D01*
X68677Y144575D02*Y146135D01*
Y142079D02*X69067Y141689D01*
X68677Y142079D02*Y142859D01*
X69067Y143249D02*X68677Y142859D01*
X69067Y143249D02*X71407D01*
X71797Y142859D01*
X70237Y142079D02*X70627Y141689D01*
X70237Y142079D02*Y143249D01*
X71797Y142079D02*Y142859D01*
Y142079D02*X71407Y141689D01*
X70627D02*X71407D01*
X26621Y142136D02*X27066Y142581D01*
X25286Y142136D02*X26621D01*
X24841Y142581D02*X25286Y142136D01*
X24841Y142581D02*Y143471D01*
X25286Y143916D01*
X26621D01*
X27066Y144361D01*
Y145251D01*
X26621Y145696D02*X27066Y145251D01*
X25286Y145696D02*X26621D01*
X24841Y145251D02*X25286Y145696D01*
X28134Y145251D02*X30804Y142581D01*
X31872Y142136D02*Y145251D01*
X32317Y145696D01*
X33207D01*
X33652Y145251D01*
Y142136D02*Y145251D01*
X34720Y143916D02*X36500Y142136D01*
X34720Y143916D02*X36945D01*
X36500Y142136D02*Y145696D01*
X111860Y147306D02*Y149976D01*
Y147306D02*X112305Y146861D01*
X113195D01*
X113640Y147306D01*
Y149976D01*
X113195Y150421D02*X113640Y149976D01*
X112305Y150421D02*X113195D01*
X111860Y149976D02*X112305Y150421D01*
X112750Y149531D02*X113640Y150421D01*
X116043Y146861D02*X116488Y147306D01*
X115153Y146861D02*X116043D01*
X114708Y147306D02*X115153Y146861D01*
X114708Y147306D02*Y149976D01*
X115153Y150421D01*
X116043Y148641D02*X116488Y149086D01*
X114708Y148641D02*X116043D01*
X115153Y150421D02*X116043D01*
X116488Y149976D01*
Y149086D02*Y149976D01*
X23608Y134956D02*X23998Y135346D01*
X22438Y134956D02*X23608D01*
X22048Y135346D02*X22438Y134956D01*
X22048Y135346D02*Y136126D01*
X22438Y136516D01*
X23608D01*
X23998Y136906D01*
Y137686D01*
X23608Y138076D02*X23998Y137686D01*
X22438Y138076D02*X23608D01*
X22048Y137686D02*X22438Y138076D01*
X24934Y137686D02*X27274Y135346D01*
X28600Y134956D02*Y138076D01*
X29770Y134956D02*X30160Y135346D01*
Y137686D01*
X29770Y138076D02*X30160Y137686D01*
X28210Y138076D02*X29770D01*
X28210Y134956D02*X29770D01*
X31486Y138076D02*X32266D01*
X31876Y134956D02*Y138076D01*
X31096Y135736D02*X31876Y134956D01*
X64993Y184696D02*X65383Y184306D01*
X64993Y184696D02*Y185866D01*
X65383Y186256D02*X64993Y185866D01*
X65383Y186256D02*X66163D01*
X66553Y185866D01*
Y184696D02*Y185866D01*
Y184696D02*X66943Y184306D01*
X67723D01*
X68113Y184696D02*X67723Y184306D01*
X68113Y184696D02*Y185866D01*
X67723Y186256D02*X68113Y185866D01*
X67723Y183370D02*X65383Y181030D01*
X64993Y180094D02*X67723D01*
X68113Y179704D01*
Y178924D02*Y179704D01*
Y178924D02*X67723Y178534D01*
X64993D02*X67723D01*
X68113Y176428D02*Y177208D01*
X64993Y176818D02*X68113D01*
X65773Y177598D02*X64993Y176818D01*
X62237Y128757D02*X62737Y129257D01*
X60737Y128757D02*X62237D01*
X60237Y129257D02*X60737Y128757D01*
X60237Y129257D02*Y130257D01*
X60737Y130757D01*
X62237D01*
X62737Y131257D01*
Y132257D01*
X62237Y132757D02*X62737Y132257D01*
X60737Y132757D02*X62237D01*
X60237Y132257D02*X60737Y132757D01*
X63937Y132257D02*X66937Y129257D01*
X68137Y128757D02*X70137D01*
X70637Y129257D01*
Y130257D01*
X70137Y130757D02*X70637Y130257D01*
X68637Y130757D02*X70137D01*
X68637Y128757D02*Y132757D01*
Y130757D02*X70637Y132757D01*
X71837Y129257D02*X72337Y128757D01*
X73837D01*
X74337Y129257D01*
Y130257D01*
X71837Y132757D02*X74337Y130257D01*
X71837Y132757D02*X74337D01*
X75385Y179150D02*X75775Y178760D01*
X75385Y179150D02*Y180320D01*
X75775Y180710D02*X75385Y180320D01*
X75775Y180710D02*X76555D01*
X76945Y180320D01*
Y179150D02*Y180320D01*
Y179150D02*X77335Y178760D01*
X78115D01*
X78505Y179150D02*X78115Y178760D01*
X78505Y179150D02*Y180320D01*
X78115Y180710D02*X78505Y180320D01*
X78115Y177824D02*X75775Y175484D01*
X75385Y172988D02*Y174548D01*
Y172988D02*X75775Y172598D01*
X76555D01*
X76945Y172988D02*X76555Y172598D01*
X76945Y172988D02*Y174158D01*
X75385D02*X78505D01*
X76945D02*X78505Y172598D01*
X76945Y171662D02*X75385Y170102D01*
X76945Y169712D02*Y171662D01*
X75385Y170102D02*X78505D01*
X82498Y166134D02*X82888Y165744D01*
X82498Y166134D02*Y167304D01*
X82888Y167694D02*X82498Y167304D01*
X82888Y167694D02*X83668D01*
X84058Y167304D01*
Y166134D02*Y167304D01*
Y166134D02*X84448Y165744D01*
X85228D01*
X85618Y166134D02*X85228Y165744D01*
X85618Y166134D02*Y167304D01*
X85228Y167694D02*X85618Y167304D01*
X85228Y164808D02*X82888Y162468D01*
X82498Y161142D02*X85618D01*
X82498Y159972D02*X82888Y159582D01*
X85228D01*
X85618Y159972D02*X85228Y159582D01*
X85618Y159972D02*Y161532D01*
X82498Y159972D02*Y161532D01*
X82888Y158646D02*X82498Y158256D01*
Y157476D02*Y158256D01*
Y157476D02*X82888Y157086D01*
X85228D01*
X85618Y157476D02*X85228Y157086D01*
X85618Y157476D02*Y158256D01*
X85228Y158646D02*X85618Y158256D01*
X84058Y157086D02*Y158256D01*
X89822Y236871D02*X90212Y236481D01*
X89822Y236871D02*Y238041D01*
X90212Y238431D02*X89822Y238041D01*
X90212Y238431D02*X90992D01*
X91382Y238041D01*
Y236871D02*Y238041D01*
Y236871D02*X91772Y236481D01*
X92552D01*
X92942Y236871D02*X92552Y236481D01*
X92942Y236871D02*Y238041D01*
X92552Y238431D02*X92942Y238041D01*
X92552Y235545D02*X90212Y233205D01*
X89822Y231879D02*X92942D01*
X89822Y230709D02*X90212Y230319D01*
X92552D01*
X92942Y230709D02*X92552Y230319D01*
X92942Y230709D02*Y232269D01*
X89822Y230709D02*Y232269D01*
Y227823D02*Y229383D01*
X91382D01*
X90992Y228993D01*
Y228213D02*Y228993D01*
Y228213D02*X91382Y227823D01*
X92552D01*
X92942Y228213D02*X92552Y227823D01*
X92942Y228213D02*Y228993D01*
X92552Y229383D02*X92942Y228993D01*
X111860Y237461D02*Y240131D01*
Y237461D02*X112305Y237016D01*
X113195D01*
X113640Y237461D01*
Y240131D01*
X113195Y240576D02*X113640Y240131D01*
X112305Y240576D02*X113195D01*
X111860Y240131D02*X112305Y240576D01*
X112750Y239686D02*X113640Y240576D01*
X114708D02*X116488Y238796D01*
Y237461D02*Y238796D01*
X116043Y237016D02*X116488Y237461D01*
X115153Y237016D02*X116043D01*
X114708Y237461D02*X115153Y237016D01*
X114708Y237461D02*Y238351D01*
X115153Y238796D01*
X116488D01*
X136219Y266638D02*Y270198D01*
Y266638D02*X137999D01*
X136219Y268418D02*X137554D01*
X139512Y270198D02*X140402D01*
X139957Y266638D02*Y270198D01*
X139067Y267528D02*X139957Y266638D01*
X141470Y269753D02*X141915Y270198D01*
X141470Y267083D02*Y269753D01*
Y267083D02*X141915Y266638D01*
X142805D01*
X143250Y267083D01*
Y269753D01*
X142805Y270198D02*X143250Y269753D01*
X141915Y270198D02*X142805D01*
X141470Y269308D02*X143250Y267528D01*
X136220Y251677D02*Y255237D01*
Y251677D02*X138000D01*
X136220Y253457D02*X137555D01*
X139068Y255237D02*X140848Y253457D01*
Y252122D02*Y253457D01*
X140403Y251677D02*X140848Y252122D01*
X139513Y251677D02*X140403D01*
X139068Y252122D02*X139513Y251677D01*
X139068Y252122D02*Y253012D01*
X139513Y253457D01*
X140848D01*
X108315Y253769D02*Y256769D01*
Y253769D02*X108815Y253269D01*
X109815D01*
X110315Y253769D01*
Y256769D01*
X109815Y257269D02*X110315Y256769D01*
X108815Y257269D02*X109815D01*
X108315Y256769D02*X108815Y257269D01*
X109315Y256269D02*X110315Y257269D01*
X112015D02*X113015D01*
X112515Y253269D02*Y257269D01*
X111515Y254269D02*X112515Y253269D01*
X114215Y256769D02*X114715Y257269D01*
X114215Y253769D02*Y256769D01*
Y253769D02*X114715Y253269D01*
X115715D01*
X116215Y253769D01*
Y256769D01*
X115715Y257269D02*X116215Y256769D01*
X114715Y257269D02*X115715D01*
X114215Y256269D02*X116215Y254269D01*
X136220Y236717D02*Y240277D01*
Y236717D02*X138000D01*
X136220Y238497D02*X137555D01*
X139068Y239832D02*X139513Y240277D01*
X139068Y238942D02*Y239832D01*
Y238942D02*X139513Y238497D01*
X140403D01*
X140848Y238942D01*
Y239832D01*
X140403Y240277D02*X140848Y239832D01*
X139513Y240277D02*X140403D01*
X139068Y238052D02*X139513Y238497D01*
X139068Y237162D02*Y238052D01*
Y237162D02*X139513Y236717D01*
X140403D01*
X140848Y237162D01*
Y238052D01*
X140403Y238497D02*X140848Y238052D01*
X136219Y221756D02*Y225316D01*
Y221756D02*X137999D01*
X136219Y223536D02*X137554D01*
X139067Y225316D02*X141292Y223091D01*
Y221756D02*Y223091D01*
X139067Y221756D02*X141292D01*
X136221Y206796D02*Y210356D01*
Y206796D02*X138001D01*
X136221Y208576D02*X137556D01*
X140404Y206796D02*X140849Y207241D01*
X139514Y206796D02*X140404D01*
X139069Y207241D02*X139514Y206796D01*
X139069Y207241D02*Y209911D01*
X139514Y210356D01*
X140404Y208576D02*X140849Y209021D01*
X139069Y208576D02*X140404D01*
X139514Y210356D02*X140404D01*
X140849Y209911D01*
Y209021D02*Y209911D01*
X136221Y191834D02*Y195394D01*
Y191834D02*X138001D01*
X136221Y193614D02*X137556D01*
X139069Y191834D02*X140849D01*
X139069D02*Y193614D01*
X139514Y193169D01*
X140404D01*
X140849Y193614D01*
Y194949D01*
X140404Y195394D02*X140849Y194949D01*
X139514Y195394D02*X140404D01*
X139069Y194949D02*X139514Y195394D01*
X111467Y207541D02*Y210211D01*
Y207541D02*X111912Y207096D01*
X112802D01*
X113247Y207541D01*
Y210211D01*
X112802Y210656D02*X113247Y210211D01*
X111912Y210656D02*X112802D01*
X111467Y210211D02*X111912Y210656D01*
X112357Y209766D02*X113247Y210656D01*
X114315D02*X116540Y208431D01*
Y207096D02*Y208431D01*
X114315Y207096D02*X116540D01*
X111859Y222107D02*Y224777D01*
Y222107D02*X112304Y221662D01*
X113194D01*
X113639Y222107D01*
Y224777D01*
X113194Y225222D02*X113639Y224777D01*
X112304Y225222D02*X113194D01*
X111859Y224777D02*X112304Y225222D01*
X112749Y224332D02*X113639Y225222D01*
X114707Y224777D02*X115152Y225222D01*
X114707Y223887D02*Y224777D01*
Y223887D02*X115152Y223442D01*
X116042D01*
X116487Y223887D01*
Y224777D01*
X116042Y225222D02*X116487Y224777D01*
X115152Y225222D02*X116042D01*
X114707Y222997D02*X115152Y223442D01*
X114707Y222107D02*Y222997D01*
Y222107D02*X115152Y221662D01*
X116042D01*
X116487Y222107D01*
Y222997D01*
X116042Y223442D02*X116487Y222997D01*
X111861Y192186D02*Y194856D01*
Y192186D02*X112306Y191741D01*
X113196D01*
X113641Y192186D01*
Y194856D01*
X113196Y195301D02*X113641Y194856D01*
X112306Y195301D02*X113196D01*
X111861Y194856D02*X112306Y195301D01*
X112751Y194411D02*X113641Y195301D01*
X114709Y192186D02*X115154Y191741D01*
X116044D01*
X116489Y192186D01*
Y194856D01*
X116044Y195301D02*X116489Y194856D01*
X115154Y195301D02*X116044D01*
X114709Y194856D02*X115154Y195301D01*
Y193521D02*X116489D01*
X89820Y219941D02*X90210Y219551D01*
X89820Y219941D02*Y221111D01*
X90210Y221501D02*X89820Y221111D01*
X90210Y221501D02*X90990D01*
X91380Y221111D01*
Y219941D02*Y221111D01*
Y219941D02*X91770Y219551D01*
X92550D01*
X92940Y219941D02*X92550Y219551D01*
X92940Y219941D02*Y221111D01*
X92550Y221501D02*X92940Y221111D01*
X92550Y218615D02*X90210Y216275D01*
X89820Y214949D02*X92940D01*
X89820Y213779D02*X90210Y213389D01*
X92550D01*
X92940Y213779D02*X92550Y213389D01*
X92940Y213779D02*Y215339D01*
X89820Y213779D02*Y215339D01*
X91380Y212453D02*X89820Y210893D01*
X91380Y210503D02*Y212453D01*
X89820Y210893D02*X92940D01*
X18261Y235826D02*X18651Y236216D01*
X17091Y235826D02*X18261D01*
X16701Y236216D02*X17091Y235826D01*
X16701Y236216D02*Y236996D01*
X17091Y237386D01*
X18261D01*
X18651Y237776D01*
Y238556D01*
X18261Y238946D02*X18651Y238556D01*
X17091Y238946D02*X18261D01*
X16701Y238556D02*X17091Y238946D01*
X19587Y238556D02*X21927Y236216D01*
X22863Y235826D02*Y238556D01*
X23253Y238946D01*
X24033D01*
X24423Y238556D01*
Y235826D02*Y238556D01*
X25359Y236216D02*X25749Y235826D01*
X26919D01*
X27309Y236216D01*
Y236996D01*
X25359Y238946D02*X27309Y236996D01*
X25359Y238946D02*X27309D01*
X10834Y253843D02*X11279Y254288D01*
X9499Y253843D02*X10834D01*
X9054Y254288D02*X9499Y253843D01*
X9054Y254288D02*Y255178D01*
X9499Y255623D01*
X10834D01*
X11279Y256068D01*
Y256958D01*
X10834Y257403D02*X11279Y256958D01*
X9499Y257403D02*X10834D01*
X9054Y256958D02*X9499Y257403D01*
X12347Y256958D02*X15017Y254288D01*
X16530Y257403D02*X17865D01*
X16085Y256958D02*X16530Y257403D01*
X16085Y254288D02*Y256958D01*
Y254288D02*X16530Y253843D01*
X17865D01*
X18933Y254288D02*X19378Y253843D01*
X20268D01*
X20713Y254288D01*
Y256958D01*
X20268Y257403D02*X20713Y256958D01*
X19378Y257403D02*X20268D01*
X18933Y256958D02*X19378Y257403D01*
Y255623D02*X20713D01*
X136220Y176481D02*Y180041D01*
Y176481D02*X138000D01*
X136220Y178261D02*X137555D01*
X139068D02*X140848Y176481D01*
X139068Y178261D02*X141293D01*
X140848Y176481D02*Y180041D01*
X136220Y161520D02*Y165080D01*
Y161520D02*X138000D01*
X136220Y163300D02*X137555D01*
X139068Y161965D02*X139513Y161520D01*
X140403D01*
X140848Y161965D01*
Y164635D01*
X140403Y165080D02*X140848Y164635D01*
X139513Y165080D02*X140403D01*
X139068Y164635D02*X139513Y165080D01*
Y163300D02*X140848D01*
X111466Y177224D02*Y179894D01*
Y177224D02*X111911Y176779D01*
X112801D01*
X113246Y177224D01*
Y179894D01*
X112801Y180339D02*X113246Y179894D01*
X111911Y180339D02*X112801D01*
X111466Y179894D02*X111911Y180339D01*
X112356Y179449D02*X113246Y180339D01*
X114314Y178559D02*X116094Y176779D01*
X114314Y178559D02*X116539D01*
X116094Y176779D02*Y180339D01*
X111860Y162266D02*Y164936D01*
Y162266D02*X112305Y161821D01*
X113195D01*
X113640Y162266D01*
Y164936D01*
X113195Y165381D02*X113640Y164936D01*
X112305Y165381D02*X113195D01*
X111860Y164936D02*X112305Y165381D01*
X112750Y164491D02*X113640Y165381D01*
X114708Y161821D02*X116488D01*
X114708D02*Y163601D01*
X115153Y163156D01*
X116043D01*
X116488Y163601D01*
Y164936D01*
X116043Y165381D02*X116488Y164936D01*
X115153Y165381D02*X116043D01*
X114708Y164936D02*X115153Y165381D01*
X72031Y198222D02*X72421Y198612D01*
X70861Y198222D02*X72031D01*
X70471Y198612D02*X70861Y198222D01*
X70471Y198612D02*Y199392D01*
X70861Y199782D01*
X72031D01*
X72421Y200172D01*
Y200952D01*
X72031Y201342D02*X72421Y200952D01*
X70861Y201342D02*X72031D01*
X70471Y200952D02*X70861Y201342D01*
X73357Y200952D02*X75697Y198612D01*
X76633Y198222D02*Y201342D01*
Y198222D02*X78193D01*
X76633Y199782D02*X77803D01*
X79129Y198612D02*X79519Y198222D01*
X80299D01*
X80689Y198612D01*
Y200952D01*
X80299Y201342D02*X80689Y200952D01*
X79519Y201342D02*X80299D01*
X79129Y200952D02*X79519Y201342D01*
Y199782D02*X80689D01*
X72032Y184442D02*X72422Y184832D01*
X70862Y184442D02*X72032D01*
X70472Y184832D02*X70862Y184442D01*
X70472Y184832D02*Y185612D01*
X70862Y186002D01*
X72032D01*
X72422Y186392D01*
Y187172D01*
X72032Y187562D02*X72422Y187172D01*
X70862Y187562D02*X72032D01*
X70472Y187172D02*X70862Y187562D01*
X73358Y187172D02*X75698Y184832D01*
X76634Y184442D02*Y187562D01*
Y184442D02*X78194D01*
X76634Y186002D02*X77804D01*
X79130Y184832D02*X79520Y184442D01*
X80690D01*
X81080Y184832D01*
Y185612D01*
X79130Y187562D02*X81080Y185612D01*
X79130Y187562D02*X81080D01*
X38175Y204324D02*X38565Y204714D01*
X37005Y204324D02*X38175D01*
X36615Y204714D02*X37005Y204324D01*
X36615Y204714D02*Y205494D01*
X37005Y205884D01*
X38175D01*
X38565Y206274D01*
Y207054D01*
X38175Y207444D02*X38565Y207054D01*
X37005Y207444D02*X38175D01*
X36615Y207054D02*X37005Y207444D01*
X39501Y207054D02*X41841Y204714D01*
X43167Y207444D02*X44337D01*
X42777Y207054D02*X43167Y207444D01*
X42777Y204714D02*Y207054D01*
Y204714D02*X43167Y204324D01*
X44337D01*
X45663Y207444D02*X46443D01*
X46053Y204324D02*Y207444D01*
X45273Y205104D02*X46053Y204324D01*
X54316Y170072D02*X54706Y170462D01*
X53146Y170072D02*X54316D01*
X52756Y170462D02*X53146Y170072D01*
X52756Y170462D02*Y171242D01*
X53146Y171632D01*
X54316D01*
X54706Y172022D01*
Y172802D01*
X54316Y173192D02*X54706Y172802D01*
X53146Y173192D02*X54316D01*
X52756Y172802D02*X53146Y173192D01*
X55642Y172802D02*X57982Y170462D01*
X58918Y170072D02*X60478D01*
X60868Y170462D01*
Y171242D01*
X60478Y171632D02*X60868Y171242D01*
X59308Y171632D02*X60478D01*
X59308Y170072D02*Y173192D01*
Y171632D02*X60868Y173192D01*
X61804D02*X63754Y171242D01*
Y170072D02*Y171242D01*
X61804Y170072D02*X63754D01*
X70071Y179150D02*X70461Y178760D01*
X70071Y179150D02*Y180320D01*
X70461Y180710D02*X70071Y180320D01*
X70461Y180710D02*X71241D01*
X71631Y180320D01*
Y179150D02*Y180320D01*
Y179150D02*X72021Y178760D01*
X72801D01*
X73191Y179150D02*X72801Y178760D01*
X73191Y179150D02*Y180320D01*
X72801Y180710D02*X73191Y180320D01*
X72801Y177824D02*X70461Y175484D01*
X70071Y172988D02*Y174548D01*
Y172988D02*X70461Y172598D01*
X71241D01*
X71631Y172988D02*X71241Y172598D01*
X71631Y172988D02*Y174158D01*
X70071D02*X73191D01*
X71631D02*X73191Y172598D01*
X72801Y171662D02*X73191Y171272D01*
X72021Y171662D02*X72801D01*
X72021D02*X71631Y171272D01*
Y170492D02*Y171272D01*
Y170492D02*X72021Y170102D01*
X72801D01*
X73191Y170492D02*X72801Y170102D01*
X73191Y170492D02*Y171272D01*
X71241Y171662D02*X71631Y171272D01*
X70461Y171662D02*X71241D01*
X70461D02*X70071Y171272D01*
Y170492D02*Y171272D01*
Y170492D02*X70461Y170102D01*
X71241D01*
X71631Y170492D02*X71241Y170102D01*
X72031Y193694D02*X72421Y194084D01*
X70861Y193694D02*X72031D01*
X70471Y194084D02*X70861Y193694D01*
X70471Y194084D02*Y194864D01*
X70861Y195254D01*
X72031D01*
X72421Y195644D01*
Y196424D01*
X72031Y196814D02*X72421Y196424D01*
X70861Y196814D02*X72031D01*
X70471Y196424D02*X70861Y196814D01*
X73357Y196424D02*X75697Y194084D01*
X76633Y193694D02*Y196814D01*
Y193694D02*X78193D01*
X76633Y195254D02*X77803D01*
X79129D02*X80689Y193694D01*
X79129Y195254D02*X81079D01*
X80689Y193694D02*Y196814D01*
X72030Y188969D02*X72420Y189359D01*
X70860Y188969D02*X72030D01*
X70470Y189359D02*X70860Y188969D01*
X70470Y189359D02*Y190139D01*
X70860Y190529D01*
X72030D01*
X72420Y190919D01*
Y191699D01*
X72030Y192089D02*X72420Y191699D01*
X70860Y192089D02*X72030D01*
X70470Y191699D02*X70860Y192089D01*
X73356Y191699D02*X75696Y189359D01*
X76632Y188969D02*Y192089D01*
Y188969D02*X78192D01*
X76632Y190529D02*X77802D01*
X79518Y192089D02*X80298D01*
X79908Y188969D02*Y192089D01*
X79128Y189749D02*X79908Y188969D01*
X14726Y166616D02*X15061Y166951D01*
X13721Y166616D02*X14726D01*
X13386Y166951D02*X13721Y166616D01*
X13386Y166951D02*Y167621D01*
X13721Y167956D01*
X14726D01*
X15061Y168291D01*
Y168961D01*
X14726Y169296D02*X15061Y168961D01*
X13721Y169296D02*X14726D01*
X13386Y168961D02*X13721Y169296D01*
X15865Y168961D02*X17875Y166951D01*
X19014Y169296D02*X20019D01*
X18679Y168961D02*X19014Y169296D01*
X18679Y166951D02*Y168961D01*
Y166951D02*X19014Y166616D01*
X20019D01*
X20823Y167956D02*X22163Y166616D01*
X20823Y167956D02*X22498D01*
X22163Y166616D02*Y169296D01*
X27521Y164647D02*X27856Y164982D01*
X26516Y164647D02*X27521D01*
X26181Y164982D02*X26516Y164647D01*
X26181Y164982D02*Y165652D01*
X26516Y165987D01*
X27521D01*
X27856Y166322D01*
Y166992D01*
X27521Y167327D02*X27856Y166992D01*
X26516Y167327D02*X27521D01*
X26181Y166992D02*X26516Y167327D01*
X28660Y166992D02*X30670Y164982D01*
X31809Y167327D02*X32814D01*
X31474Y166992D02*X31809Y167327D01*
X31474Y164982D02*Y166992D01*
Y164982D02*X31809Y164647D01*
X32814D01*
X34623D02*X34958Y164982D01*
X33953Y164647D02*X34623D01*
X33618Y164982D02*X33953Y164647D01*
X33618Y164982D02*Y166992D01*
X33953Y167327D01*
X34623Y165987D02*X34958Y166322D01*
X33618Y165987D02*X34623D01*
X33953Y167327D02*X34623D01*
X34958Y166992D01*
Y166322D02*Y166992D01*
X4015Y178779D02*X4350Y178444D01*
X4015Y178779D02*Y179784D01*
X4350Y180119D02*X4015Y179784D01*
X4350Y180119D02*X5020D01*
X5355Y179784D01*
Y178779D02*Y179784D01*
Y178779D02*X5690Y178444D01*
X6360D01*
X6695Y178779D02*X6360Y178444D01*
X6695Y178779D02*Y179784D01*
X6360Y180119D02*X6695Y179784D01*
X6360Y177640D02*X4350Y175630D01*
X4015Y173486D02*Y174826D01*
Y173486D02*X4350Y173151D01*
X5020D01*
X5355Y173486D02*X5020Y173151D01*
X5355Y173486D02*Y174491D01*
X4015D02*X6695D01*
X5355D02*X6695Y173151D01*
X4350Y172347D02*X4015Y172012D01*
Y171342D02*Y172012D01*
Y171342D02*X4350Y171007D01*
X6360D01*
X6695Y171342D02*X6360Y171007D01*
X6695Y171342D02*Y172012D01*
X6360Y172347D02*X6695Y172012D01*
X5355Y171007D02*Y172012D01*
X2047Y204371D02*X2382Y204036D01*
X2047Y204371D02*Y205376D01*
X2382Y205711D02*X2047Y205376D01*
X2382Y205711D02*X3052D01*
X3387Y205376D01*
Y204371D02*Y205376D01*
Y204371D02*X3722Y204036D01*
X4392D01*
X4727Y204371D02*X4392Y204036D01*
X4727Y204371D02*Y205376D01*
X4392Y205711D02*X4727Y205376D01*
X4392Y203232D02*X2382Y201222D01*
X4727Y199078D02*Y200083D01*
X4392Y200418D02*X4727Y200083D01*
X2382Y200418D02*X4392D01*
X2382D02*X2047Y200083D01*
Y199078D02*Y200083D01*
X2382Y198274D02*X2047Y197939D01*
Y196934D02*Y197939D01*
Y196934D02*X2382Y196599D01*
X3052D01*
X4727Y198274D02*X3052Y196599D01*
X4727D02*Y198274D01*
X110317Y28286D02*X114317D01*
X110317Y26786D02*X110817Y26286D01*
X113817D01*
X114317Y26786D02*X113817Y26286D01*
X114317Y26786D02*Y28786D01*
X110317Y26786D02*Y28786D01*
Y23586D02*X110817Y23086D01*
X110317Y23586D02*Y24586D01*
X110817Y25086D02*X110317Y24586D01*
X110817Y25086D02*X113817D01*
X114317Y24586D01*
X112317Y23586D02*X112817Y23086D01*
X112317Y23586D02*Y25086D01*
X114317Y23586D02*Y24586D01*
Y23586D02*X113817Y23086D01*
X112817D02*X113817D01*
X131497Y28167D02*X133497D01*
X133997Y28667D01*
Y29667D01*
X133497Y30167D02*X133997Y29667D01*
X131997Y30167D02*X133497D01*
X131997Y28167D02*Y32167D01*
Y30167D02*X133997Y32167D01*
X135197D02*X137697Y29667D01*
Y28167D02*Y29667D01*
X135197Y28167D02*X137697D01*
X110316Y43245D02*X114316D01*
X110316Y41745D02*X110816Y41245D01*
X113816D01*
X114316Y41745D02*X113816Y41245D01*
X114316Y41745D02*Y43745D01*
X110316Y41745D02*Y43745D01*
Y38045D02*Y40045D01*
X112316D01*
X111816Y39545D01*
Y38545D02*Y39545D01*
Y38545D02*X112316Y38045D01*
X113816D01*
X114316Y38545D02*X113816Y38045D01*
X114316Y38545D02*Y39545D01*
X113816Y40045D02*X114316Y39545D01*
X131495Y43127D02*X133495D01*
X133995Y43627D01*
Y44627D01*
X133495Y45127D02*X133995Y44627D01*
X131995Y45127D02*X133495D01*
X131995Y43127D02*Y47127D01*
Y45127D02*X133995Y47127D01*
X135695D02*X136695D01*
X136195Y43127D02*Y47127D01*
X135195Y44127D02*X136195Y43127D01*
X137895Y45127D02*X139895Y43127D01*
X137895Y45127D02*X140395D01*
X139895Y43127D02*Y47127D01*
X131495Y58087D02*X133495D01*
X133995Y58587D01*
Y59587D01*
X133495Y60087D02*X133995Y59587D01*
X131995Y60087D02*X133495D01*
X131995Y58087D02*Y62087D01*
Y60087D02*X133995Y62087D01*
X135695D02*X136695D01*
X136195Y58087D02*Y62087D01*
X135195Y59087D02*X136195Y58087D01*
X137895D02*X139895D01*
X137895D02*Y60087D01*
X138395Y59587D01*
X139395D01*
X139895Y60087D01*
Y61587D01*
X139395Y62087D02*X139895Y61587D01*
X138395Y62087D02*X139395D01*
X137895Y61587D02*X138395Y62087D01*
X110316Y58207D02*X114316D01*
X110316Y56707D02*X110816Y56207D01*
X113816D01*
X114316Y56707D02*X113816Y56207D01*
X114316Y56707D02*Y58707D01*
X110316Y56707D02*Y58707D01*
X112316Y55007D02*X110316Y53007D01*
X112316Y52507D02*Y55007D01*
X110316Y53007D02*X114316D01*
X69003Y48305D02*X70503D01*
X68503Y47805D02*X69003Y48305D01*
X68503Y44805D02*Y47805D01*
Y44805D02*X69003Y44305D01*
X70503D01*
X71703Y46305D02*X73703Y44305D01*
X71703Y46305D02*X74203D01*
X73703Y44305D02*Y48305D01*
X131497Y13204D02*X133497D01*
X133997Y13704D01*
Y14704D01*
X133497Y15204D02*X133997Y14704D01*
X131997Y15204D02*X133497D01*
X131997Y13204D02*Y17204D01*
Y15204D02*X133997Y17204D01*
X135197Y15204D02*X137197Y13204D01*
X135197Y15204D02*X137697D01*
X137197Y13204D02*Y17204D01*
X110317Y73169D02*X114317D01*
X110317Y71669D02*X110817Y71169D01*
X113817D01*
X114317Y71669D02*X113817Y71169D01*
X114317Y71669D02*Y73669D01*
X110317Y71669D02*Y73669D01*
X110817Y69969D02*X110317Y69469D01*
Y68469D02*Y69469D01*
Y68469D02*X110817Y67969D01*
X113817D01*
X114317Y68469D02*X113817Y67969D01*
X114317Y68469D02*Y69469D01*
X113817Y69969D02*X114317Y69469D01*
X112317Y67969D02*Y69469D01*
X131496Y73047D02*X133496D01*
X133996Y73547D01*
Y74547D01*
X133496Y75047D02*X133996Y74547D01*
X131996Y75047D02*X133496D01*
X131996Y73047D02*Y77047D01*
Y75047D02*X133996Y77047D01*
X135696D02*X136696D01*
X136196Y73047D02*Y77047D01*
X135196Y74047D02*X136196Y73047D01*
X139396D02*X139896Y73547D01*
X138396Y73047D02*X139396D01*
X137896Y73547D02*X138396Y73047D01*
X137896Y73547D02*Y76547D01*
X138396Y77047D01*
X139396Y75047D02*X139896Y75547D01*
X137896Y75047D02*X139396D01*
X138396Y77047D02*X139396D01*
X139896Y76547D01*
Y75547D02*Y76547D01*
X131496Y88008D02*X133496D01*
X133996Y88508D01*
Y89508D01*
X133496Y90008D02*X133996Y89508D01*
X131996Y90008D02*X133496D01*
X131996Y88008D02*Y92008D01*
Y90008D02*X133996Y92008D01*
X135696D02*X136696D01*
X136196Y88008D02*Y92008D01*
X135196Y89008D02*X136196Y88008D01*
X137896Y92008D02*X140396Y89508D01*
Y88008D02*Y89508D01*
X137896Y88008D02*X140396D01*
X131496Y102968D02*X133496D01*
X133996Y103468D01*
Y104468D01*
X133496Y104968D02*X133996Y104468D01*
X131996Y104968D02*X133496D01*
X131996Y102968D02*Y106968D01*
Y104968D02*X133996Y106968D01*
X135696D02*X136696D01*
X136196Y102968D02*Y106968D01*
X135196Y103968D02*X136196Y102968D01*
X137896Y106468D02*X138396Y106968D01*
X137896Y105468D02*Y106468D01*
Y105468D02*X138396Y104968D01*
X139396D01*
X139896Y105468D01*
Y106468D01*
X139396Y106968D02*X139896Y106468D01*
X138396Y106968D02*X139396D01*
X137896Y104468D02*X138396Y104968D01*
X137896Y103468D02*Y104468D01*
Y103468D02*X138396Y102968D01*
X139396D01*
X139896Y103468D01*
Y104468D01*
X139396Y104968D02*X139896Y104468D01*
X131889Y118324D02*X133889D01*
X134389Y118824D01*
Y119824D01*
X133889Y120324D02*X134389Y119824D01*
X132389Y120324D02*X133889D01*
X132389Y118324D02*Y122324D01*
Y120324D02*X134389Y122324D01*
X136089D02*X137089D01*
X136589Y118324D02*Y122324D01*
X135589Y119324D02*X136589Y118324D01*
X138289Y122324D02*X140289Y120324D01*
Y118824D02*Y120324D01*
X139789Y118324D02*X140289Y118824D01*
X138789Y118324D02*X139789D01*
X138289Y118824D02*X138789Y118324D01*
X138289Y118824D02*Y119824D01*
X138789Y120324D01*
X140289D01*
X110317Y88127D02*X114317D01*
X110317Y86627D02*X110817Y86127D01*
X113817D01*
X114317Y86627D02*X113817Y86127D01*
X114317Y86627D02*Y88627D01*
X110317Y86627D02*Y88627D01*
X114317Y84927D02*X112317Y82927D01*
X110817D02*X112317D01*
X110317Y83427D02*X110817Y82927D01*
X110317Y83427D02*Y84427D01*
X110817Y84927D02*X110317Y84427D01*
X110817Y84927D02*X111817D01*
X112317Y84427D01*
Y82927D02*Y84427D01*
X110316Y103088D02*X114316D01*
X110316Y101588D02*X110816Y101088D01*
X113816D01*
X114316Y101588D02*X113816Y101088D01*
X114316Y101588D02*Y103588D01*
X110316Y101588D02*Y103588D01*
X114316Y98388D02*Y99388D01*
X110316Y98888D02*X114316D01*
X111316Y99888D02*X110316Y98888D01*
X113816Y97188D02*X114316Y96688D01*
X110816Y97188D02*X113816D01*
X110816D02*X110316Y96688D01*
Y95688D02*Y96688D01*
Y95688D02*X110816Y95188D01*
X113816D01*
X114316Y95688D02*X113816Y95188D01*
X114316Y95688D02*Y96688D01*
X113316Y97188D02*X111316Y95188D01*
X76196Y115000D02*X76696Y114500D01*
X76196Y115000D02*Y116500D01*
X76696Y117000D02*X76196Y116500D01*
X76696Y117000D02*X77696D01*
X78196Y116500D01*
Y115000D02*Y116500D01*
Y115000D02*X78696Y114500D01*
X79696D01*
X80196Y115000D02*X79696Y114500D01*
X80196Y115000D02*Y116500D01*
X79696Y117000D02*X80196Y116500D01*
X79696Y113300D02*X76696Y110300D01*
X76196Y107100D02*Y109100D01*
Y107100D02*X76696Y106600D01*
X77696D01*
X78196Y107100D02*X77696Y106600D01*
X78196Y107100D02*Y108600D01*
X76196D02*X80196D01*
X78196D02*X80196Y106600D01*
X76196Y103400D02*Y105400D01*
X78196D01*
X77696Y104900D01*
Y103900D02*Y104900D01*
Y103900D02*X78196Y103400D01*
X79696D01*
X80196Y103900D02*X79696Y103400D01*
X80196Y103900D02*Y104900D01*
X79696Y105400D02*X80196Y104900D01*
X62237Y122852D02*X62737Y123352D01*
X60737Y122852D02*X62237D01*
X60237Y123352D02*X60737Y122852D01*
X60237Y123352D02*Y124352D01*
X60737Y124852D01*
X62237D01*
X62737Y125352D01*
Y126352D01*
X62237Y126852D02*X62737Y126352D01*
X60737Y126852D02*X62237D01*
X60237Y126352D02*X60737Y126852D01*
X63937Y126352D02*X66937Y123352D01*
X68137Y122852D02*X70137D01*
X70637Y123352D01*
Y124352D01*
X70137Y124852D02*X70637Y124352D01*
X68637Y124852D02*X70137D01*
X68637Y122852D02*Y126852D01*
Y124852D02*X70637Y126852D01*
X72337D02*X73337D01*
X72837Y122852D02*Y126852D01*
X71837Y123852D02*X72837Y122852D01*
X110316Y118049D02*X114316D01*
X110316Y116549D02*X110816Y116049D01*
X113816D01*
X114316Y116549D02*X113816Y116049D01*
X114316Y116549D02*Y118549D01*
X110316Y116549D02*Y118549D01*
X114316Y113349D02*Y114349D01*
X110316Y113849D02*X114316D01*
X111316Y114849D02*X110316Y113849D01*
X114316Y110649D02*Y111649D01*
X110316Y111149D02*X114316D01*
X111316Y112149D02*X110316Y111149D01*
X110317Y129467D02*X114317D01*
X110317Y127967D02*X110817Y127467D01*
X113817D01*
X114317Y127967D02*X113817Y127467D01*
X114317Y127967D02*Y129967D01*
X110317Y127967D02*Y129967D01*
X114317Y124767D02*Y125767D01*
X110317Y125267D02*X114317D01*
X111317Y126267D02*X110317Y125267D01*
X110817Y123567D02*X110317Y123067D01*
Y121567D02*Y123067D01*
Y121567D02*X110817Y121067D01*
X111817D01*
X114317Y123567D02*X111817Y121067D01*
X114317D02*Y123567D01*
X7757Y27168D02*Y28508D01*
Y27168D02*X8092Y26833D01*
X8762D01*
X9097Y27168D02*X8762Y26833D01*
X9097Y27168D02*Y28173D01*
X7757D02*X10437D01*
X9097D02*X10437Y26833D01*
X8092Y26029D02*X7757Y25694D01*
Y24689D02*Y25694D01*
Y24689D02*X8092Y24354D01*
X8762D01*
X10437Y26029D02*X8762Y24354D01*
X10437D02*Y26029D01*
X1902Y8586D02*X5462D01*
X1902Y7251D02*X2347Y6806D01*
X5017D01*
X5462Y7251D02*X5017Y6806D01*
X5462Y7251D02*Y9031D01*
X1902Y7251D02*Y9031D01*
X5017Y5738D02*X5462Y5293D01*
X4127Y5738D02*X5017D01*
X4127D02*X3682Y5293D01*
Y4403D02*Y5293D01*
Y4403D02*X4127Y3958D01*
X5017D01*
X5462Y4403D02*X5017Y3958D01*
X5462Y4403D02*Y5293D01*
X3237Y5738D02*X3682Y5293D01*
X2347Y5738D02*X3237D01*
X2347D02*X1902Y5293D01*
Y4403D02*Y5293D01*
Y4403D02*X2347Y3958D01*
X3237D01*
X3682Y4403D02*X3237Y3958D01*
X19852Y18894D02*Y21624D01*
X20242Y22014D01*
X21022D01*
X21412Y21624D01*
Y18894D02*Y21624D01*
X22738Y22014D02*X23518D01*
X23128Y18894D02*Y22014D01*
X22348Y19674D02*X23128Y18894D01*
X5081Y33712D02*Y34882D01*
X4691Y35272D02*X5081Y34882D01*
X2351Y35272D02*X4691D01*
X2351D02*X1961Y34882D01*
Y33712D02*Y34882D01*
X2351Y32776D02*X1961Y32386D01*
Y31216D02*Y32386D01*
Y31216D02*X2351Y30826D01*
X3131D01*
X5081Y32776D02*X3131Y30826D01*
X5081D02*Y32776D01*
X39567Y15963D02*Y19963D01*
X41567D01*
X43267D02*X44267D01*
X43767Y15963D02*Y19963D01*
X42767Y16963D02*X43767Y15963D01*
X38123Y9373D02*X41683D01*
X38123Y8038D02*X38568Y7593D01*
X41238D01*
X41683Y8038D02*X41238Y7593D01*
X41683Y8038D02*Y9818D01*
X38123Y8038D02*Y9818D01*
X41683Y6525D02*X39458Y4300D01*
X38123D02*X39458D01*
X38123D02*Y6525D01*
X55224Y48307D02*X56724D01*
X54724Y47807D02*X55224Y48307D01*
X54724Y44807D02*Y47807D01*
Y44807D02*X55224Y44307D01*
X56724D01*
X57924D02*X59924D01*
X57924D02*Y46307D01*
X58424Y45807D01*
X59424D01*
X59924Y46307D01*
Y47807D01*
X59424Y48307D02*X59924Y47807D01*
X58424Y48307D02*X59424D01*
X57924Y47807D02*X58424Y48307D01*
X26822Y58386D02*X28157D01*
X26377Y57941D02*X26822Y58386D01*
X26377Y55271D02*Y57941D01*
Y55271D02*X26822Y54826D01*
X28157D01*
X30560D02*X31005Y55271D01*
X29670Y54826D02*X30560D01*
X29225Y55271D02*X29670Y54826D01*
X29225Y55271D02*Y57941D01*
X29670Y58386D01*
X30560Y56606D02*X31005Y57051D01*
X29225Y56606D02*X30560D01*
X29670Y58386D02*X30560D01*
X31005Y57941D01*
Y57051D02*Y57941D01*
X2354Y44271D02*Y45831D01*
Y44271D02*X2744Y43881D01*
X3524D01*
X3914Y44271D02*X3524Y43881D01*
X3914Y44271D02*Y45441D01*
X2354D02*X5474D01*
X3914D02*X5474Y43881D01*
X2744Y42945D02*X2354Y42555D01*
Y41775D02*Y42555D01*
Y41775D02*X2744Y41385D01*
X5084D01*
X5474Y41775D02*X5084Y41385D01*
X5474Y41775D02*Y42555D01*
X5084Y42945D02*X5474Y42555D01*
X3914Y41385D02*Y42555D01*
X15063Y58851D02*Y60631D01*
Y58851D02*X15508Y58406D01*
X16398D01*
X16843Y58851D02*X16398Y58406D01*
X16843Y58851D02*Y60186D01*
X15063D02*X18623D01*
X16843D02*X18623Y58406D01*
Y56003D02*Y56893D01*
X15063Y56448D02*X18623D01*
X15953Y57338D02*X15063Y56448D01*
X17286Y75485D02*X21286D01*
X17286Y73985D02*X17786Y73485D01*
X20786D01*
X21286Y73985D02*X20786Y73485D01*
X21286Y73985D02*Y75985D01*
X17286Y73985D02*Y75985D01*
X17786Y72285D02*X17286Y71785D01*
Y70285D02*Y71785D01*
Y70285D02*X17786Y69785D01*
X18786D01*
X21286Y72285D02*X18786Y69785D01*
X21286D02*Y72285D01*
X20914Y94215D02*X22249D01*
X20469Y93770D02*X20914Y94215D01*
X20469Y91100D02*Y93770D01*
Y91100D02*X20914Y90655D01*
X22249D01*
X23317Y91100D02*X23762Y90655D01*
X24652D01*
X25097Y91100D01*
Y93770D01*
X24652Y94215D02*X25097Y93770D01*
X23762Y94215D02*X24652D01*
X23317Y93770D02*X23762Y94215D01*
Y92435D02*X25097D01*
X38770Y74061D02*X41770D01*
X38770D02*X38270Y73561D01*
Y72561D02*Y73561D01*
Y72561D02*X38770Y72061D01*
X41770D01*
X42270Y72561D02*X41770Y72061D01*
X42270Y72561D02*Y73561D01*
X41770Y74061D02*X42270Y73561D01*
X41270Y73061D02*X42270Y72061D01*
Y69361D02*Y70361D01*
X38270Y69861D02*X42270D01*
X39270Y70861D02*X38270Y69861D01*
X36645Y104115D02*X37145Y104615D01*
X35145Y104115D02*X36645D01*
X34645Y104615D02*X35145Y104115D01*
X34645Y104615D02*Y105615D01*
X35145Y106115D01*
X36645D01*
X37145Y106615D01*
Y107615D01*
X36645Y108115D02*X37145Y107615D01*
X35145Y108115D02*X36645D01*
X34645Y107615D02*X35145Y108115D01*
X38345Y107615D02*X41345Y104615D01*
X42545D02*Y107615D01*
Y104615D02*X43045Y104115D01*
X44045D01*
X44545Y104615D01*
Y107615D01*
X44045Y108115D02*X44545Y107615D01*
X43045Y108115D02*X44045D01*
X42545Y107615D02*X43045Y108115D01*
X43545Y107115D02*X44545Y108115D01*
X46245D02*X47245D01*
X46745Y104115D02*Y108115D01*
X45745Y105115D02*X46745Y104115D01*
X66050Y103338D02*X66495Y102893D01*
X66050Y103338D02*Y104673D01*
X66495Y105118D02*X66050Y104673D01*
X66495Y105118D02*X67385D01*
X67830Y104673D01*
Y103338D02*Y104673D01*
Y103338D02*X68275Y102893D01*
X69165D01*
X69610Y103338D02*X69165Y102893D01*
X69610Y103338D02*Y104673D01*
X69165Y105118D02*X69610Y104673D01*
X69165Y101825D02*X66495Y99155D01*
X66050Y96307D02*Y98087D01*
Y96307D02*X66495Y95862D01*
X67385D01*
X67830Y96307D02*X67385Y95862D01*
X67830Y96307D02*Y97642D01*
X66050D02*X69610D01*
X67830D02*X69610Y95862D01*
X66050Y93459D02*X66495Y93014D01*
X66050Y93459D02*Y94349D01*
X66495Y94794D02*X66050Y94349D01*
X66495Y94794D02*X69165D01*
X69610Y94349D01*
X67830Y93459D02*X68275Y93014D01*
X67830Y93459D02*Y94794D01*
X69610Y93459D02*Y94349D01*
Y93459D02*X69165Y93014D01*
X68275D02*X69165D01*
X12585Y119994D02*X12975Y120384D01*
X11415Y119994D02*X12585D01*
X11025Y120384D02*X11415Y119994D01*
X11025Y120384D02*Y121164D01*
X11415Y121554D01*
X12585D01*
X12975Y121944D01*
Y122724D01*
X12585Y123114D02*X12975Y122724D01*
X11415Y123114D02*X12585D01*
X11025Y122724D02*X11415Y123114D01*
X13911Y122724D02*X16251Y120384D01*
X17577Y119994D02*Y123114D01*
X18747Y119994D02*X19137Y120384D01*
Y122724D01*
X18747Y123114D02*X19137Y122724D01*
X17187Y123114D02*X18747D01*
X17187Y119994D02*X18747D01*
X20073Y120384D02*X20463Y119994D01*
X21633D01*
X22023Y120384D01*
Y121164D01*
X20073Y123114D02*X22023Y121164D01*
X20073Y123114D02*X22023D01*
X2805Y106417D02*X4140D01*
X2360Y105972D02*X2805Y106417D01*
X2360Y103302D02*Y105972D01*
Y103302D02*X2805Y102857D01*
X4140D01*
X5653Y106417D02*X6543D01*
X6098Y102857D02*Y106417D01*
X5208Y103747D02*X6098Y102857D01*
M02*
