*
%FSLAX26Y26*%
%MOIN*%
%ADD10C,0.101300*%
%ADD11C,0.063000*%
%ADD12C,0.131000*%
%ADD13C,0.067000*%
%ADD14R,0.046400X0.046400*%
%ADD15R,0.035200X0.035200*%
%ADD16R,0.041000X0.041000*%
%ADD17R,0.023600X0.023600*%
%ADD18R,0.063000X0.063000*%
%ADD19R,0.037000X0.037000*%
%ADD20R,0.018800X0.018800*%
%ADD21R,0.032000X0.032000*%
%ADD22R,0.097400X0.097400*%
%ADD23C,0.137795*%
%ADD24C,0.124016*%
%IPPOS*%
%LNcr.gbx*%
%LPD*%
G75*
G54D10*
X01413390Y01273620D03*
Y01558680D03*
Y01708680D03*
G36*
X00101580Y01007880D02*
Y00944880D01*
X00038580D01*
Y01007880D01*
X00101580D01*
G37*
G54D11*
X00170080Y00976380D03*
G36*
X00103590Y01175240D02*
Y01108240D01*
X00036590D01*
Y01175240D01*
X00103590D01*
G37*
G54D12*
X00153540Y01317730D03*
G54D11*
X00270080Y00976380D03*
X00370080D03*
G54D13*
X00170090Y01141740D03*
X00270090D03*
X00370090D03*
X00470090D03*
X00503540Y01367730D03*
Y01467730D03*
X00403540Y01417730D03*
Y01617730D03*
Y01517730D03*
G36*
X00437040Y01751230D02*
Y01684230D01*
X00370040D01*
Y01751230D01*
X00437040D01*
G37*
G54D13*
X00503540Y01567730D03*
Y01667730D03*
G54D12*
X00153540Y01767730D03*
G54D10*
X01413390Y00673620D03*
Y00823620D03*
Y00973620D03*
Y01123620D03*
Y00223620D03*
Y00373620D03*
Y00523620D03*
X00562610Y00161450D03*
X00712610D03*
X00862610D03*
X01012610D03*
X01012200Y02673230D03*
X00862200D03*
X00712200D03*
X00562200D03*
X01413390Y02608680D03*
Y01858680D03*
Y02008680D03*
Y02158680D03*
Y02308680D03*
Y02458680D03*
G54D13*
X00503540Y02056700D03*
X00403540Y02106700D03*
X00503540Y02256700D03*
X00403540Y02306700D03*
Y02206700D03*
X00503540Y02156700D03*
G36*
X00437040Y02440200D02*
Y02373200D01*
X00370040D01*
Y02440200D01*
X00437040D01*
G37*
G54D13*
X00503540Y02356700D03*
G54D12*
X00153540Y02456700D03*
Y02006700D03*
G54D14*
X00602360Y01240200D02*
Y01220520D01*
Y01102400D02*
Y01082720D01*
G54D15*
X00172510Y00894610D02*
Y00884930D01*
X00114170Y00894610D02*
Y00884930D01*
X00321930Y00870080D02*
X00331610D01*
G54D16*
X00859860Y02370440D02*
Y02364440D01*
X00781860Y02370440D02*
Y02364440D01*
Y02119830D02*
Y02113830D01*
X00820860Y02201830D02*
Y02195830D01*
Y02288440D02*
Y02282440D01*
X00859860Y02119830D02*
Y02113830D01*
G54D17*
X01030010Y02433090D02*
X01048710D01*
X01030010Y02401590D02*
X01048710D01*
X01030010Y02370100D02*
X01048710D01*
X01030010Y02338600D02*
X01048710D01*
X01096940Y02401590D02*
X01115640D01*
G54D18*
X01307090Y02627490D02*
Y02585130D01*
Y02481820D02*
Y02439460D01*
Y02328280D02*
Y02285920D01*
X01189890Y02178670D02*
Y02136310D01*
X01307090Y02178670D02*
Y02136310D01*
X01189890Y02627490D02*
Y02585130D01*
Y02481820D02*
Y02439460D01*
Y02328280D02*
Y02285920D01*
G54D17*
X01096940Y02433090D02*
X01115640D01*
X01096940Y02370100D02*
X01115640D01*
X01096940Y02338600D02*
X01115640D01*
G54D18*
X01189880Y00245590D02*
Y00203230D01*
G54D15*
X00656580Y00262170D02*
X00666260D01*
X00656580Y00320510D02*
X00666260D01*
G54D18*
X00846000Y00312520D02*
Y00270160D01*
X00728800Y00312520D02*
Y00270160D01*
X01307080Y00245590D02*
Y00203230D01*
Y00395190D02*
Y00352830D01*
G54D19*
X01209610Y00122050D02*
X01215610D01*
X01209610Y00044050D02*
X01215610D01*
X01291610Y00083050D02*
X01297610D01*
G54D17*
X01096940Y00401570D02*
X01115640D01*
X01096940Y00433070D02*
X01115640D01*
X01096940Y00464560D02*
X01115640D01*
X01096940Y00496060D02*
X01115640D01*
X01030010Y00401570D02*
X01048710D01*
X01030010Y00433070D02*
X01048710D01*
X01030010Y00464560D02*
X01048710D01*
X01030010Y00496060D02*
X01048710D01*
G54D18*
X01189880Y00395190D02*
Y00352830D01*
G54D15*
X00321930Y00701510D02*
X00331610D01*
X00321930Y00649610D02*
X00331610D01*
G54D20*
X00369080Y00667350D02*
X00402540D01*
X00369080Y00641760D02*
X00402540D01*
X00369080Y00616170D02*
X00402540D01*
X00369080Y00590580D02*
X00402540D01*
G54D15*
X00321930Y00591270D02*
X00331610D01*
G54D20*
X00664360Y00437040D02*
X00697820D01*
G54D15*
X00286500Y00425920D02*
X00296180D01*
G54D21*
X00410390Y00354160D02*
X00416390D01*
X00410390Y00303160D02*
X00416390D01*
X00480390Y00328160D02*
X00486390D01*
G54D22*
X00078750Y00190940D02*
Y00061020D01*
X00370090Y00190940D02*
Y00061020D01*
G54D20*
X00369080Y00513810D02*
X00402540D01*
X00369080Y00488220D02*
X00402540D01*
X00369080Y00462630D02*
X00402540D01*
X00369080Y00437040D02*
X00402540D01*
G54D15*
X00286500Y00484260D02*
X00296180D01*
G54D20*
X00664360Y00462630D02*
X00697820D01*
X00664360Y00488220D02*
X00697820D01*
X00664360Y00513810D02*
X00697820D01*
X00664360Y00539400D02*
X00697820D01*
X00664360Y00564990D02*
X00697820D01*
X00664360Y00590580D02*
X00697820D01*
X00664360Y00616170D02*
X00697820D01*
X00664360Y00641760D02*
X00697820D01*
X00664360Y00667350D02*
X00697820D01*
X00664360Y00692940D02*
X00697820D01*
X00664360Y00718530D02*
X00697820D01*
X00664360Y00744120D02*
X00697820D01*
X00664360Y00769710D02*
X00697820D01*
X00664360Y00795300D02*
X00697820D01*
X00664360Y00820890D02*
X00697820D01*
G54D15*
X00321930Y00759850D02*
X00331610D01*
G54D20*
X00369080Y00897660D02*
X00402540D01*
X00369080Y00872070D02*
X00402540D01*
X00369080Y00846480D02*
X00402540D01*
X00369080Y00744120D02*
X00402540D01*
X00369080Y00718530D02*
X00402540D01*
X00369080Y00692940D02*
X00402540D01*
X00369080Y00820890D02*
X00402540D01*
X00369080Y00795300D02*
X00402540D01*
X00369080Y00769710D02*
X00402540D01*
G54D15*
X00321930Y00811740D02*
X00331610D01*
G54D20*
X00369080Y00564990D02*
X00402540D01*
X00369080Y00539400D02*
X00402540D01*
G54D18*
X01189890Y02029060D02*
Y01986700D01*
X01307090Y02029060D02*
Y01986700D01*
X01189890Y01879460D02*
Y01837100D01*
X01307090Y01879460D02*
Y01837100D01*
Y01729850D02*
Y01687490D01*
Y01580240D02*
Y01537880D01*
X01189890Y01729850D02*
Y01687490D01*
Y01580240D02*
Y01537880D01*
G54D17*
X01030020Y01834650D02*
X01048720D01*
X01096950D02*
X01115650D01*
X01030020Y01803150D02*
X01048720D01*
X01096950D02*
X01115650D01*
X01030020Y01771660D02*
X01048720D01*
X01096950D02*
X01115650D01*
X01030020Y01740160D02*
X01048720D01*
X01096950D02*
X01115650D01*
G54D16*
X00787390Y01652620D02*
Y01646620D01*
X00709390Y01652620D02*
Y01646620D01*
X00748390Y01570620D02*
Y01564620D01*
G54D18*
X01307080Y00993620D02*
Y00951260D01*
Y00844010D02*
Y00801650D01*
G54D20*
X00664360Y00846480D02*
X00697820D01*
X00664360Y00872070D02*
X00697820D01*
X00664360Y00897660D02*
X00697820D01*
G54D14*
X00657480Y01240200D02*
Y01220520D01*
Y01102400D02*
Y01082720D01*
G54D17*
X01096920Y00999990D02*
X01115620D01*
X01096920Y01031490D02*
X01115620D01*
X01096920Y01062980D02*
X01115620D01*
X01096920Y01094480D02*
X01115620D01*
X01029990Y00999990D02*
X01048690D01*
X01029990Y01031490D02*
X01048690D01*
X01029990Y01062980D02*
X01048690D01*
X01029990Y01094480D02*
X01048690D01*
G54D18*
X01307080Y01292830D02*
Y01250470D01*
X01189880Y00993620D02*
Y00951260D01*
X01307080Y01143220D02*
Y01100860D01*
X01189880Y01143220D02*
Y01100860D01*
Y01292830D02*
Y01250470D01*
X01307080Y00544800D02*
Y00502440D01*
X01189880Y00544800D02*
Y00502440D01*
X01307080Y00694410D02*
Y00652050D01*
X01189880Y00694410D02*
Y00652050D01*
Y00844010D02*
Y00801650D01*
G54D10*
X01413390Y04344486D03*
Y04629546D03*
Y04779546D03*
G36*
X00101580Y04078746D02*
Y04015746D01*
X00038580D01*
Y04078746D01*
X00101580D01*
G37*
G54D11*
X00170080Y04047246D03*
G36*
X00103590Y04246106D02*
Y04179106D01*
X00036590D01*
Y04246106D01*
X00103590D01*
G37*
G54D12*
X00153540Y04388596D03*
G54D11*
X00270080Y04047246D03*
X00370080D03*
G54D13*
X00170090Y04212606D03*
X00270090D03*
X00370090D03*
X00470090D03*
X00503540Y04438596D03*
Y04538596D03*
X00403540Y04488596D03*
Y04688596D03*
Y04588596D03*
G36*
X00437040Y04822096D02*
Y04755096D01*
X00370040D01*
Y04822096D01*
X00437040D01*
G37*
G54D13*
X00503540Y04638596D03*
Y04738596D03*
G54D12*
X00153540Y04838596D03*
G54D10*
X01413390Y03744486D03*
Y03894486D03*
Y04044486D03*
Y04194486D03*
Y03294486D03*
Y03444486D03*
Y03594486D03*
X00562610Y03232316D03*
X00712610D03*
X00862610D03*
X01012610D03*
X01012200Y05744096D03*
X00862200D03*
X00712200D03*
X00562200D03*
X01413390Y05679546D03*
Y04929546D03*
Y05079546D03*
Y05229546D03*
Y05379546D03*
Y05529546D03*
G54D13*
X00503540Y05127566D03*
X00403540Y05177566D03*
X00503540Y05327566D03*
X00403540Y05377566D03*
Y05277566D03*
X00503540Y05227566D03*
G36*
X00437040Y05511066D02*
Y05444066D01*
X00370040D01*
Y05511066D01*
X00437040D01*
G37*
G54D13*
X00503540Y05427566D03*
G54D12*
X00153540Y05527566D03*
Y05077566D03*
G54D14*
X00602360Y04311066D02*
Y04291386D01*
Y04173266D02*
Y04153586D01*
G54D15*
X00172510Y03965476D02*
Y03955796D01*
X00114170Y03965476D02*
Y03955796D01*
X00321930Y03940946D02*
X00331610D01*
G54D16*
X00859860Y05441306D02*
Y05435306D01*
X00781860Y05441306D02*
Y05435306D01*
Y05190696D02*
Y05184696D01*
X00820860Y05272696D02*
Y05266696D01*
Y05359306D02*
Y05353306D01*
X00859860Y05190696D02*
Y05184696D01*
G54D17*
X01030010Y05503956D02*
X01048710D01*
X01030010Y05472456D02*
X01048710D01*
X01030010Y05440966D02*
X01048710D01*
X01030010Y05409466D02*
X01048710D01*
X01096940Y05472456D02*
X01115640D01*
G54D18*
X01307090Y05698356D02*
Y05655996D01*
Y05552686D02*
Y05510326D01*
Y05399146D02*
Y05356786D01*
X01189890Y05249536D02*
Y05207176D01*
X01307090Y05249536D02*
Y05207176D01*
X01189890Y05698356D02*
Y05655996D01*
Y05552686D02*
Y05510326D01*
Y05399146D02*
Y05356786D01*
G54D17*
X01096940Y05503956D02*
X01115640D01*
X01096940Y05440966D02*
X01115640D01*
X01096940Y05409466D02*
X01115640D01*
G54D18*
X01189880Y03316456D02*
Y03274096D01*
G54D15*
X00656580Y03333036D02*
X00666260D01*
X00656580Y03391376D02*
X00666260D01*
G54D18*
X00846000Y03383386D02*
Y03341026D01*
X00728800Y03383386D02*
Y03341026D01*
X01307080Y03316456D02*
Y03274096D01*
Y03466056D02*
Y03423696D01*
G54D19*
X01209610Y03192916D02*
X01215610D01*
X01209610Y03114916D02*
X01215610D01*
X01291610Y03153916D02*
X01297610D01*
G54D17*
X01096940Y03472436D02*
X01115640D01*
X01096940Y03503936D02*
X01115640D01*
X01096940Y03535426D02*
X01115640D01*
X01096940Y03566926D02*
X01115640D01*
X01030010Y03472436D02*
X01048710D01*
X01030010Y03503936D02*
X01048710D01*
X01030010Y03535426D02*
X01048710D01*
X01030010Y03566926D02*
X01048710D01*
G54D18*
X01189880Y03466056D02*
Y03423696D01*
G54D15*
X00321930Y03772376D02*
X00331610D01*
X00321930Y03720476D02*
X00331610D01*
G54D20*
X00369080Y03738216D02*
X00402540D01*
X00369080Y03712626D02*
X00402540D01*
X00369080Y03687036D02*
X00402540D01*
X00369080Y03661446D02*
X00402540D01*
G54D15*
X00321930Y03662136D02*
X00331610D01*
G54D20*
X00664360Y03507906D02*
X00697820D01*
G54D15*
X00286500Y03496786D02*
X00296180D01*
G54D21*
X00410390Y03425026D02*
X00416390D01*
X00410390Y03374026D02*
X00416390D01*
X00480390Y03399026D02*
X00486390D01*
G54D22*
X00078750Y03261806D02*
Y03131886D01*
X00370090Y03261806D02*
Y03131886D01*
G54D20*
X00369080Y03584676D02*
X00402540D01*
X00369080Y03559086D02*
X00402540D01*
X00369080Y03533496D02*
X00402540D01*
X00369080Y03507906D02*
X00402540D01*
G54D15*
X00286500Y03555126D02*
X00296180D01*
G54D20*
X00664360Y03533496D02*
X00697820D01*
X00664360Y03559086D02*
X00697820D01*
X00664360Y03584676D02*
X00697820D01*
X00664360Y03610266D02*
X00697820D01*
X00664360Y03635856D02*
X00697820D01*
X00664360Y03661446D02*
X00697820D01*
X00664360Y03687036D02*
X00697820D01*
X00664360Y03712626D02*
X00697820D01*
X00664360Y03738216D02*
X00697820D01*
X00664360Y03763806D02*
X00697820D01*
X00664360Y03789396D02*
X00697820D01*
X00664360Y03814986D02*
X00697820D01*
X00664360Y03840576D02*
X00697820D01*
X00664360Y03866166D02*
X00697820D01*
X00664360Y03891756D02*
X00697820D01*
G54D15*
X00321930Y03830716D02*
X00331610D01*
G54D20*
X00369080Y03968526D02*
X00402540D01*
X00369080Y03942936D02*
X00402540D01*
X00369080Y03917346D02*
X00402540D01*
X00369080Y03814986D02*
X00402540D01*
X00369080Y03789396D02*
X00402540D01*
X00369080Y03763806D02*
X00402540D01*
X00369080Y03891756D02*
X00402540D01*
X00369080Y03866166D02*
X00402540D01*
X00369080Y03840576D02*
X00402540D01*
G54D15*
X00321930Y03882606D02*
X00331610D01*
G54D20*
X00369080Y03635856D02*
X00402540D01*
X00369080Y03610266D02*
X00402540D01*
G54D18*
X01189890Y05099926D02*
Y05057566D01*
X01307090Y05099926D02*
Y05057566D01*
X01189890Y04950326D02*
Y04907966D01*
X01307090Y04950326D02*
Y04907966D01*
Y04800716D02*
Y04758356D01*
Y04651106D02*
Y04608746D01*
X01189890Y04800716D02*
Y04758356D01*
Y04651106D02*
Y04608746D01*
G54D17*
X01030020Y04905516D02*
X01048720D01*
X01096950D02*
X01115650D01*
X01030020Y04874016D02*
X01048720D01*
X01096950D02*
X01115650D01*
X01030020Y04842526D02*
X01048720D01*
X01096950D02*
X01115650D01*
X01030020Y04811026D02*
X01048720D01*
X01096950D02*
X01115650D01*
G54D16*
X00787390Y04723486D02*
Y04717486D01*
X00709390Y04723486D02*
Y04717486D01*
X00748390Y04641486D02*
Y04635486D01*
G54D18*
X01307080Y04064486D02*
Y04022126D01*
Y03914876D02*
Y03872516D01*
G54D20*
X00664360Y03917346D02*
X00697820D01*
X00664360Y03942936D02*
X00697820D01*
X00664360Y03968526D02*
X00697820D01*
G54D14*
X00657480Y04311066D02*
Y04291386D01*
Y04173266D02*
Y04153586D01*
G54D17*
X01096920Y04070856D02*
X01115620D01*
X01096920Y04102356D02*
X01115620D01*
X01096920Y04133846D02*
X01115620D01*
X01096920Y04165346D02*
X01115620D01*
X01029990Y04070856D02*
X01048690D01*
X01029990Y04102356D02*
X01048690D01*
X01029990Y04133846D02*
X01048690D01*
X01029990Y04165346D02*
X01048690D01*
G54D18*
X01307080Y04363696D02*
Y04321336D01*
X01189880Y04064486D02*
Y04022126D01*
X01307080Y04214086D02*
Y04171726D01*
X01189880Y04214086D02*
Y04171726D01*
Y04363696D02*
Y04321336D01*
X01307080Y03615666D02*
Y03573306D01*
X01189880Y03615666D02*
Y03573306D01*
X01307080Y03765276D02*
Y03722916D01*
X01189880Y03765276D02*
Y03722916D01*
Y03914876D02*
Y03872516D01*
G54D10*
X03224414Y01273620D03*
Y01558680D03*
Y01708680D03*
G36*
X01912604Y01007880D02*
Y00944880D01*
X01849604D01*
Y01007880D01*
X01912604D01*
G37*
G54D11*
X01981104Y00976380D03*
G36*
X01914614Y01175240D02*
Y01108240D01*
X01847614D01*
Y01175240D01*
X01914614D01*
G37*
G54D12*
X01964564Y01317730D03*
G54D11*
X02081104Y00976380D03*
X02181104D03*
G54D13*
X01981114Y01141740D03*
X02081114D03*
X02181114D03*
X02281114D03*
X02314564Y01367730D03*
Y01467730D03*
X02214564Y01417730D03*
Y01617730D03*
Y01517730D03*
G36*
X02248064Y01751230D02*
Y01684230D01*
X02181064D01*
Y01751230D01*
X02248064D01*
G37*
G54D13*
X02314564Y01567730D03*
Y01667730D03*
G54D12*
X01964564Y01767730D03*
G54D10*
X03224414Y00673620D03*
Y00823620D03*
Y00973620D03*
Y01123620D03*
Y00223620D03*
Y00373620D03*
Y00523620D03*
X02373634Y00161450D03*
X02523634D03*
X02673634D03*
X02823634D03*
X02823224Y02673230D03*
X02673224D03*
X02523224D03*
X02373224D03*
X03224414Y02608680D03*
Y01858680D03*
Y02008680D03*
Y02158680D03*
Y02308680D03*
Y02458680D03*
G54D13*
X02314564Y02056700D03*
X02214564Y02106700D03*
X02314564Y02256700D03*
X02214564Y02306700D03*
Y02206700D03*
X02314564Y02156700D03*
G36*
X02248064Y02440200D02*
Y02373200D01*
X02181064D01*
Y02440200D01*
X02248064D01*
G37*
G54D13*
X02314564Y02356700D03*
G54D12*
X01964564Y02456700D03*
Y02006700D03*
G54D14*
X02413384Y01240200D02*
Y01220520D01*
Y01102400D02*
Y01082720D01*
G54D15*
X01983534Y00894610D02*
Y00884930D01*
X01925194Y00894610D02*
Y00884930D01*
X02132954Y00870080D02*
X02142634D01*
G54D16*
X02670884Y02370440D02*
Y02364440D01*
X02592884Y02370440D02*
Y02364440D01*
Y02119830D02*
Y02113830D01*
X02631884Y02201830D02*
Y02195830D01*
Y02288440D02*
Y02282440D01*
X02670884Y02119830D02*
Y02113830D01*
G54D17*
X02841034Y02433090D02*
X02859734D01*
X02841034Y02401590D02*
X02859734D01*
X02841034Y02370100D02*
X02859734D01*
X02841034Y02338600D02*
X02859734D01*
X02907964Y02401590D02*
X02926664D01*
G54D18*
X03118114Y02627490D02*
Y02585130D01*
Y02481820D02*
Y02439460D01*
Y02328280D02*
Y02285920D01*
X03000914Y02178670D02*
Y02136310D01*
X03118114Y02178670D02*
Y02136310D01*
X03000914Y02627490D02*
Y02585130D01*
Y02481820D02*
Y02439460D01*
Y02328280D02*
Y02285920D01*
G54D17*
X02907964Y02433090D02*
X02926664D01*
X02907964Y02370100D02*
X02926664D01*
X02907964Y02338600D02*
X02926664D01*
G54D18*
X03000904Y00245590D02*
Y00203230D01*
G54D15*
X02467604Y00262170D02*
X02477284D01*
X02467604Y00320510D02*
X02477284D01*
G54D18*
X02657024Y00312520D02*
Y00270160D01*
X02539824Y00312520D02*
Y00270160D01*
X03118104Y00245590D02*
Y00203230D01*
Y00395190D02*
Y00352830D01*
G54D19*
X03020634Y00122050D02*
X03026634D01*
X03020634Y00044050D02*
X03026634D01*
X03102634Y00083050D02*
X03108634D01*
G54D17*
X02907964Y00401570D02*
X02926664D01*
X02907964Y00433070D02*
X02926664D01*
X02907964Y00464560D02*
X02926664D01*
X02907964Y00496060D02*
X02926664D01*
X02841034Y00401570D02*
X02859734D01*
X02841034Y00433070D02*
X02859734D01*
X02841034Y00464560D02*
X02859734D01*
X02841034Y00496060D02*
X02859734D01*
G54D18*
X03000904Y00395190D02*
Y00352830D01*
G54D15*
X02132954Y00701510D02*
X02142634D01*
X02132954Y00649610D02*
X02142634D01*
G54D20*
X02180104Y00667350D02*
X02213564D01*
X02180104Y00641760D02*
X02213564D01*
X02180104Y00616170D02*
X02213564D01*
X02180104Y00590580D02*
X02213564D01*
G54D15*
X02132954Y00591270D02*
X02142634D01*
G54D20*
X02475384Y00437040D02*
X02508844D01*
G54D15*
X02097524Y00425920D02*
X02107204D01*
G54D21*
X02221414Y00354160D02*
X02227414D01*
X02221414Y00303160D02*
X02227414D01*
X02291414Y00328160D02*
X02297414D01*
G54D22*
X01889774Y00190940D02*
Y00061020D01*
X02181114Y00190940D02*
Y00061020D01*
G54D20*
X02180104Y00513810D02*
X02213564D01*
X02180104Y00488220D02*
X02213564D01*
X02180104Y00462630D02*
X02213564D01*
X02180104Y00437040D02*
X02213564D01*
G54D15*
X02097524Y00484260D02*
X02107204D01*
G54D20*
X02475384Y00462630D02*
X02508844D01*
X02475384Y00488220D02*
X02508844D01*
X02475384Y00513810D02*
X02508844D01*
X02475384Y00539400D02*
X02508844D01*
X02475384Y00564990D02*
X02508844D01*
X02475384Y00590580D02*
X02508844D01*
X02475384Y00616170D02*
X02508844D01*
X02475384Y00641760D02*
X02508844D01*
X02475384Y00667350D02*
X02508844D01*
X02475384Y00692940D02*
X02508844D01*
X02475384Y00718530D02*
X02508844D01*
X02475384Y00744120D02*
X02508844D01*
X02475384Y00769710D02*
X02508844D01*
X02475384Y00795300D02*
X02508844D01*
X02475384Y00820890D02*
X02508844D01*
G54D15*
X02132954Y00759850D02*
X02142634D01*
G54D20*
X02180104Y00897660D02*
X02213564D01*
X02180104Y00872070D02*
X02213564D01*
X02180104Y00846480D02*
X02213564D01*
X02180104Y00744120D02*
X02213564D01*
X02180104Y00718530D02*
X02213564D01*
X02180104Y00692940D02*
X02213564D01*
X02180104Y00820890D02*
X02213564D01*
X02180104Y00795300D02*
X02213564D01*
X02180104Y00769710D02*
X02213564D01*
G54D15*
X02132954Y00811740D02*
X02142634D01*
G54D20*
X02180104Y00564990D02*
X02213564D01*
X02180104Y00539400D02*
X02213564D01*
G54D18*
X03000914Y02029060D02*
Y01986700D01*
X03118114Y02029060D02*
Y01986700D01*
X03000914Y01879460D02*
Y01837100D01*
X03118114Y01879460D02*
Y01837100D01*
Y01729850D02*
Y01687490D01*
Y01580240D02*
Y01537880D01*
X03000914Y01729850D02*
Y01687490D01*
Y01580240D02*
Y01537880D01*
G54D17*
X02841044Y01834650D02*
X02859744D01*
X02907974D02*
X02926674D01*
X02841044Y01803150D02*
X02859744D01*
X02907974D02*
X02926674D01*
X02841044Y01771660D02*
X02859744D01*
X02907974D02*
X02926674D01*
X02841044Y01740160D02*
X02859744D01*
X02907974D02*
X02926674D01*
G54D16*
X02598414Y01652620D02*
Y01646620D01*
X02520414Y01652620D02*
Y01646620D01*
X02559414Y01570620D02*
Y01564620D01*
G54D18*
X03118104Y00993620D02*
Y00951260D01*
Y00844010D02*
Y00801650D01*
G54D20*
X02475384Y00846480D02*
X02508844D01*
X02475384Y00872070D02*
X02508844D01*
X02475384Y00897660D02*
X02508844D01*
G54D14*
X02468504Y01240200D02*
Y01220520D01*
Y01102400D02*
Y01082720D01*
G54D17*
X02907944Y00999990D02*
X02926644D01*
X02907944Y01031490D02*
X02926644D01*
X02907944Y01062980D02*
X02926644D01*
X02907944Y01094480D02*
X02926644D01*
X02841014Y00999990D02*
X02859714D01*
X02841014Y01031490D02*
X02859714D01*
X02841014Y01062980D02*
X02859714D01*
X02841014Y01094480D02*
X02859714D01*
G54D18*
X03118104Y01292830D02*
Y01250470D01*
X03000904Y00993620D02*
Y00951260D01*
X03118104Y01143220D02*
Y01100860D01*
X03000904Y01143220D02*
Y01100860D01*
Y01292830D02*
Y01250470D01*
X03118104Y00544800D02*
Y00502440D01*
X03000904Y00544800D02*
Y00502440D01*
X03118104Y00694410D02*
Y00652050D01*
X03000904Y00694410D02*
Y00652050D01*
Y00844010D02*
Y00801650D01*
G54D10*
X03224414Y04344486D03*
Y04629546D03*
Y04779546D03*
G36*
X01912604Y04078746D02*
Y04015746D01*
X01849604D01*
Y04078746D01*
X01912604D01*
G37*
G54D11*
X01981104Y04047246D03*
G36*
X01914614Y04246106D02*
Y04179106D01*
X01847614D01*
Y04246106D01*
X01914614D01*
G37*
G54D12*
X01964564Y04388596D03*
G54D11*
X02081104Y04047246D03*
X02181104D03*
G54D13*
X01981114Y04212606D03*
X02081114D03*
X02181114D03*
X02281114D03*
X02314564Y04438596D03*
Y04538596D03*
X02214564Y04488596D03*
Y04688596D03*
Y04588596D03*
G36*
X02248064Y04822096D02*
Y04755096D01*
X02181064D01*
Y04822096D01*
X02248064D01*
G37*
G54D13*
X02314564Y04638596D03*
Y04738596D03*
G54D12*
X01964564Y04838596D03*
G54D10*
X03224414Y03744486D03*
Y03894486D03*
Y04044486D03*
Y04194486D03*
Y03294486D03*
Y03444486D03*
Y03594486D03*
X02373634Y03232316D03*
X02523634D03*
X02673634D03*
X02823634D03*
X02823224Y05744096D03*
X02673224D03*
X02523224D03*
X02373224D03*
X03224414Y05679546D03*
Y04929546D03*
Y05079546D03*
Y05229546D03*
Y05379546D03*
Y05529546D03*
G54D13*
X02314564Y05127566D03*
X02214564Y05177566D03*
X02314564Y05327566D03*
X02214564Y05377566D03*
Y05277566D03*
X02314564Y05227566D03*
G36*
X02248064Y05511066D02*
Y05444066D01*
X02181064D01*
Y05511066D01*
X02248064D01*
G37*
G54D13*
X02314564Y05427566D03*
G54D12*
X01964564Y05527566D03*
Y05077566D03*
G54D14*
X02413384Y04311066D02*
Y04291386D01*
Y04173266D02*
Y04153586D01*
G54D15*
X01983534Y03965476D02*
Y03955796D01*
X01925194Y03965476D02*
Y03955796D01*
X02132954Y03940946D02*
X02142634D01*
G54D16*
X02670884Y05441306D02*
Y05435306D01*
X02592884Y05441306D02*
Y05435306D01*
Y05190696D02*
Y05184696D01*
X02631884Y05272696D02*
Y05266696D01*
Y05359306D02*
Y05353306D01*
X02670884Y05190696D02*
Y05184696D01*
G54D17*
X02841034Y05503956D02*
X02859734D01*
X02841034Y05472456D02*
X02859734D01*
X02841034Y05440966D02*
X02859734D01*
X02841034Y05409466D02*
X02859734D01*
X02907964Y05472456D02*
X02926664D01*
G54D18*
X03118114Y05698356D02*
Y05655996D01*
Y05552686D02*
Y05510326D01*
Y05399146D02*
Y05356786D01*
X03000914Y05249536D02*
Y05207176D01*
X03118114Y05249536D02*
Y05207176D01*
X03000914Y05698356D02*
Y05655996D01*
Y05552686D02*
Y05510326D01*
Y05399146D02*
Y05356786D01*
G54D17*
X02907964Y05503956D02*
X02926664D01*
X02907964Y05440966D02*
X02926664D01*
X02907964Y05409466D02*
X02926664D01*
G54D18*
X03000904Y03316456D02*
Y03274096D01*
G54D15*
X02467604Y03333036D02*
X02477284D01*
X02467604Y03391376D02*
X02477284D01*
G54D18*
X02657024Y03383386D02*
Y03341026D01*
X02539824Y03383386D02*
Y03341026D01*
X03118104Y03316456D02*
Y03274096D01*
Y03466056D02*
Y03423696D01*
G54D19*
X03020634Y03192916D02*
X03026634D01*
X03020634Y03114916D02*
X03026634D01*
X03102634Y03153916D02*
X03108634D01*
G54D17*
X02907964Y03472436D02*
X02926664D01*
X02907964Y03503936D02*
X02926664D01*
X02907964Y03535426D02*
X02926664D01*
X02907964Y03566926D02*
X02926664D01*
X02841034Y03472436D02*
X02859734D01*
X02841034Y03503936D02*
X02859734D01*
X02841034Y03535426D02*
X02859734D01*
X02841034Y03566926D02*
X02859734D01*
G54D18*
X03000904Y03466056D02*
Y03423696D01*
G54D15*
X02132954Y03772376D02*
X02142634D01*
X02132954Y03720476D02*
X02142634D01*
G54D20*
X02180104Y03738216D02*
X02213564D01*
X02180104Y03712626D02*
X02213564D01*
X02180104Y03687036D02*
X02213564D01*
X02180104Y03661446D02*
X02213564D01*
G54D15*
X02132954Y03662136D02*
X02142634D01*
G54D20*
X02475384Y03507906D02*
X02508844D01*
G54D15*
X02097524Y03496786D02*
X02107204D01*
G54D21*
X02221414Y03425026D02*
X02227414D01*
X02221414Y03374026D02*
X02227414D01*
X02291414Y03399026D02*
X02297414D01*
G54D22*
X01889774Y03261806D02*
Y03131886D01*
X02181114Y03261806D02*
Y03131886D01*
G54D20*
X02180104Y03584676D02*
X02213564D01*
X02180104Y03559086D02*
X02213564D01*
X02180104Y03533496D02*
X02213564D01*
X02180104Y03507906D02*
X02213564D01*
G54D15*
X02097524Y03555126D02*
X02107204D01*
G54D20*
X02475384Y03533496D02*
X02508844D01*
X02475384Y03559086D02*
X02508844D01*
X02475384Y03584676D02*
X02508844D01*
X02475384Y03610266D02*
X02508844D01*
X02475384Y03635856D02*
X02508844D01*
X02475384Y03661446D02*
X02508844D01*
X02475384Y03687036D02*
X02508844D01*
X02475384Y03712626D02*
X02508844D01*
X02475384Y03738216D02*
X02508844D01*
X02475384Y03763806D02*
X02508844D01*
X02475384Y03789396D02*
X02508844D01*
X02475384Y03814986D02*
X02508844D01*
X02475384Y03840576D02*
X02508844D01*
X02475384Y03866166D02*
X02508844D01*
X02475384Y03891756D02*
X02508844D01*
G54D15*
X02132954Y03830716D02*
X02142634D01*
G54D20*
X02180104Y03968526D02*
X02213564D01*
X02180104Y03942936D02*
X02213564D01*
X02180104Y03917346D02*
X02213564D01*
X02180104Y03814986D02*
X02213564D01*
X02180104Y03789396D02*
X02213564D01*
X02180104Y03763806D02*
X02213564D01*
X02180104Y03891756D02*
X02213564D01*
X02180104Y03866166D02*
X02213564D01*
X02180104Y03840576D02*
X02213564D01*
G54D15*
X02132954Y03882606D02*
X02142634D01*
G54D20*
X02180104Y03635856D02*
X02213564D01*
X02180104Y03610266D02*
X02213564D01*
G54D18*
X03000914Y05099926D02*
Y05057566D01*
X03118114Y05099926D02*
Y05057566D01*
X03000914Y04950326D02*
Y04907966D01*
X03118114Y04950326D02*
Y04907966D01*
Y04800716D02*
Y04758356D01*
Y04651106D02*
Y04608746D01*
X03000914Y04800716D02*
Y04758356D01*
Y04651106D02*
Y04608746D01*
G54D17*
X02841044Y04905516D02*
X02859744D01*
X02907974D02*
X02926674D01*
X02841044Y04874016D02*
X02859744D01*
X02907974D02*
X02926674D01*
X02841044Y04842526D02*
X02859744D01*
X02907974D02*
X02926674D01*
X02841044Y04811026D02*
X02859744D01*
X02907974D02*
X02926674D01*
G54D16*
X02598414Y04723486D02*
Y04717486D01*
X02520414Y04723486D02*
Y04717486D01*
X02559414Y04641486D02*
Y04635486D01*
G54D18*
X03118104Y04064486D02*
Y04022126D01*
Y03914876D02*
Y03872516D01*
G54D20*
X02475384Y03917346D02*
X02508844D01*
X02475384Y03942936D02*
X02508844D01*
X02475384Y03968526D02*
X02508844D01*
G54D14*
X02468504Y04311066D02*
Y04291386D01*
Y04173266D02*
Y04153586D01*
G54D17*
X02907944Y04070856D02*
X02926644D01*
X02907944Y04102356D02*
X02926644D01*
X02907944Y04133846D02*
X02926644D01*
X02907944Y04165346D02*
X02926644D01*
X02841014Y04070856D02*
X02859714D01*
X02841014Y04102356D02*
X02859714D01*
X02841014Y04133846D02*
X02859714D01*
X02841014Y04165346D02*
X02859714D01*
G54D18*
X03118104Y04363696D02*
Y04321336D01*
X03000904Y04064486D02*
Y04022126D01*
X03118104Y04214086D02*
Y04171726D01*
X03000904Y04214086D02*
Y04171726D01*
Y04363696D02*
Y04321336D01*
X03118104Y03615666D02*
Y03573306D01*
X03000904Y03615666D02*
Y03573306D01*
X03118104Y03765276D02*
Y03722916D01*
X03000904Y03765276D02*
Y03722916D01*
Y03914876D02*
Y03872516D01*
G54D10*
X05035437Y01273620D03*
Y01558680D03*
Y01708680D03*
G36*
X03723627Y01007880D02*
Y00944880D01*
X03660627D01*
Y01007880D01*
X03723627D01*
G37*
G54D11*
X03792127Y00976380D03*
G36*
X03725637Y01175240D02*
Y01108240D01*
X03658637D01*
Y01175240D01*
X03725637D01*
G37*
G54D12*
X03775587Y01317730D03*
G54D11*
X03892127Y00976380D03*
X03992127D03*
G54D13*
X03792137Y01141740D03*
X03892137D03*
X03992137D03*
X04092137D03*
X04125587Y01367730D03*
Y01467730D03*
X04025587Y01417730D03*
Y01617730D03*
Y01517730D03*
G36*
X04059087Y01751230D02*
Y01684230D01*
X03992087D01*
Y01751230D01*
X04059087D01*
G37*
G54D13*
X04125587Y01567730D03*
Y01667730D03*
G54D12*
X03775587Y01767730D03*
G54D10*
X05035437Y00673620D03*
Y00823620D03*
Y00973620D03*
Y01123620D03*
Y00223620D03*
Y00373620D03*
Y00523620D03*
X04184657Y00161450D03*
X04334657D03*
X04484657D03*
X04634657D03*
X04634247Y02673230D03*
X04484247D03*
X04334247D03*
X04184247D03*
X05035437Y02608680D03*
Y01858680D03*
Y02008680D03*
Y02158680D03*
Y02308680D03*
Y02458680D03*
G54D13*
X04125587Y02056700D03*
X04025587Y02106700D03*
X04125587Y02256700D03*
X04025587Y02306700D03*
Y02206700D03*
X04125587Y02156700D03*
G36*
X04059087Y02440200D02*
Y02373200D01*
X03992087D01*
Y02440200D01*
X04059087D01*
G37*
G54D13*
X04125587Y02356700D03*
G54D12*
X03775587Y02456700D03*
Y02006700D03*
G54D14*
X04224407Y01240200D02*
Y01220520D01*
Y01102400D02*
Y01082720D01*
G54D15*
X03794557Y00894610D02*
Y00884930D01*
X03736217Y00894610D02*
Y00884930D01*
X03943977Y00870080D02*
X03953657D01*
G54D16*
X04481907Y02370440D02*
Y02364440D01*
X04403907Y02370440D02*
Y02364440D01*
Y02119830D02*
Y02113830D01*
X04442907Y02201830D02*
Y02195830D01*
Y02288440D02*
Y02282440D01*
X04481907Y02119830D02*
Y02113830D01*
G54D17*
X04652057Y02433090D02*
X04670757D01*
X04652057Y02401590D02*
X04670757D01*
X04652057Y02370100D02*
X04670757D01*
X04652057Y02338600D02*
X04670757D01*
X04718987Y02401590D02*
X04737687D01*
G54D18*
X04929137Y02627490D02*
Y02585130D01*
Y02481820D02*
Y02439460D01*
Y02328280D02*
Y02285920D01*
X04811937Y02178670D02*
Y02136310D01*
X04929137Y02178670D02*
Y02136310D01*
X04811937Y02627490D02*
Y02585130D01*
Y02481820D02*
Y02439460D01*
Y02328280D02*
Y02285920D01*
G54D17*
X04718987Y02433090D02*
X04737687D01*
X04718987Y02370100D02*
X04737687D01*
X04718987Y02338600D02*
X04737687D01*
G54D18*
X04811927Y00245590D02*
Y00203230D01*
G54D15*
X04278627Y00262170D02*
X04288307D01*
X04278627Y00320510D02*
X04288307D01*
G54D18*
X04468047Y00312520D02*
Y00270160D01*
X04350847Y00312520D02*
Y00270160D01*
X04929127Y00245590D02*
Y00203230D01*
Y00395190D02*
Y00352830D01*
G54D19*
X04831657Y00122050D02*
X04837657D01*
X04831657Y00044050D02*
X04837657D01*
X04913657Y00083050D02*
X04919657D01*
G54D17*
X04718987Y00401570D02*
X04737687D01*
X04718987Y00433070D02*
X04737687D01*
X04718987Y00464560D02*
X04737687D01*
X04718987Y00496060D02*
X04737687D01*
X04652057Y00401570D02*
X04670757D01*
X04652057Y00433070D02*
X04670757D01*
X04652057Y00464560D02*
X04670757D01*
X04652057Y00496060D02*
X04670757D01*
G54D18*
X04811927Y00395190D02*
Y00352830D01*
G54D15*
X03943977Y00701510D02*
X03953657D01*
X03943977Y00649610D02*
X03953657D01*
G54D20*
X03991127Y00667350D02*
X04024587D01*
X03991127Y00641760D02*
X04024587D01*
X03991127Y00616170D02*
X04024587D01*
X03991127Y00590580D02*
X04024587D01*
G54D15*
X03943977Y00591270D02*
X03953657D01*
G54D20*
X04286407Y00437040D02*
X04319867D01*
G54D15*
X03908547Y00425920D02*
X03918227D01*
G54D21*
X04032437Y00354160D02*
X04038437D01*
X04032437Y00303160D02*
X04038437D01*
X04102437Y00328160D02*
X04108437D01*
G54D22*
X03700797Y00190940D02*
Y00061020D01*
X03992137Y00190940D02*
Y00061020D01*
G54D20*
X03991127Y00513810D02*
X04024587D01*
X03991127Y00488220D02*
X04024587D01*
X03991127Y00462630D02*
X04024587D01*
X03991127Y00437040D02*
X04024587D01*
G54D15*
X03908547Y00484260D02*
X03918227D01*
G54D20*
X04286407Y00462630D02*
X04319867D01*
X04286407Y00488220D02*
X04319867D01*
X04286407Y00513810D02*
X04319867D01*
X04286407Y00539400D02*
X04319867D01*
X04286407Y00564990D02*
X04319867D01*
X04286407Y00590580D02*
X04319867D01*
X04286407Y00616170D02*
X04319867D01*
X04286407Y00641760D02*
X04319867D01*
X04286407Y00667350D02*
X04319867D01*
X04286407Y00692940D02*
X04319867D01*
X04286407Y00718530D02*
X04319867D01*
X04286407Y00744120D02*
X04319867D01*
X04286407Y00769710D02*
X04319867D01*
X04286407Y00795300D02*
X04319867D01*
X04286407Y00820890D02*
X04319867D01*
G54D15*
X03943977Y00759850D02*
X03953657D01*
G54D20*
X03991127Y00897660D02*
X04024587D01*
X03991127Y00872070D02*
X04024587D01*
X03991127Y00846480D02*
X04024587D01*
X03991127Y00744120D02*
X04024587D01*
X03991127Y00718530D02*
X04024587D01*
X03991127Y00692940D02*
X04024587D01*
X03991127Y00820890D02*
X04024587D01*
X03991127Y00795300D02*
X04024587D01*
X03991127Y00769710D02*
X04024587D01*
G54D15*
X03943977Y00811740D02*
X03953657D01*
G54D20*
X03991127Y00564990D02*
X04024587D01*
X03991127Y00539400D02*
X04024587D01*
G54D18*
X04811937Y02029060D02*
Y01986700D01*
X04929137Y02029060D02*
Y01986700D01*
X04811937Y01879460D02*
Y01837100D01*
X04929137Y01879460D02*
Y01837100D01*
Y01729850D02*
Y01687490D01*
Y01580240D02*
Y01537880D01*
X04811937Y01729850D02*
Y01687490D01*
Y01580240D02*
Y01537880D01*
G54D17*
X04652067Y01834650D02*
X04670767D01*
X04718997D02*
X04737697D01*
X04652067Y01803150D02*
X04670767D01*
X04718997D02*
X04737697D01*
X04652067Y01771660D02*
X04670767D01*
X04718997D02*
X04737697D01*
X04652067Y01740160D02*
X04670767D01*
X04718997D02*
X04737697D01*
G54D16*
X04409437Y01652620D02*
Y01646620D01*
X04331437Y01652620D02*
Y01646620D01*
X04370437Y01570620D02*
Y01564620D01*
G54D18*
X04929127Y00993620D02*
Y00951260D01*
Y00844010D02*
Y00801650D01*
G54D20*
X04286407Y00846480D02*
X04319867D01*
X04286407Y00872070D02*
X04319867D01*
X04286407Y00897660D02*
X04319867D01*
G54D14*
X04279527Y01240200D02*
Y01220520D01*
Y01102400D02*
Y01082720D01*
G54D17*
X04718967Y00999990D02*
X04737667D01*
X04718967Y01031490D02*
X04737667D01*
X04718967Y01062980D02*
X04737667D01*
X04718967Y01094480D02*
X04737667D01*
X04652037Y00999990D02*
X04670737D01*
X04652037Y01031490D02*
X04670737D01*
X04652037Y01062980D02*
X04670737D01*
X04652037Y01094480D02*
X04670737D01*
G54D18*
X04929127Y01292830D02*
Y01250470D01*
X04811927Y00993620D02*
Y00951260D01*
X04929127Y01143220D02*
Y01100860D01*
X04811927Y01143220D02*
Y01100860D01*
Y01292830D02*
Y01250470D01*
X04929127Y00544800D02*
Y00502440D01*
X04811927Y00544800D02*
Y00502440D01*
X04929127Y00694410D02*
Y00652050D01*
X04811927Y00694410D02*
Y00652050D01*
Y00844010D02*
Y00801650D01*
G54D10*
X05035437Y04344486D03*
Y04629546D03*
Y04779546D03*
G36*
X03723627Y04078746D02*
Y04015746D01*
X03660627D01*
Y04078746D01*
X03723627D01*
G37*
G54D11*
X03792127Y04047246D03*
G36*
X03725637Y04246106D02*
Y04179106D01*
X03658637D01*
Y04246106D01*
X03725637D01*
G37*
G54D12*
X03775587Y04388596D03*
G54D11*
X03892127Y04047246D03*
X03992127D03*
G54D13*
X03792137Y04212606D03*
X03892137D03*
X03992137D03*
X04092137D03*
X04125587Y04438596D03*
Y04538596D03*
X04025587Y04488596D03*
Y04688596D03*
Y04588596D03*
G36*
X04059087Y04822096D02*
Y04755096D01*
X03992087D01*
Y04822096D01*
X04059087D01*
G37*
G54D13*
X04125587Y04638596D03*
Y04738596D03*
G54D12*
X03775587Y04838596D03*
G54D10*
X05035437Y03744486D03*
Y03894486D03*
Y04044486D03*
Y04194486D03*
Y03294486D03*
Y03444486D03*
Y03594486D03*
X04184657Y03232316D03*
X04334657D03*
X04484657D03*
X04634657D03*
X04634247Y05744096D03*
X04484247D03*
X04334247D03*
X04184247D03*
X05035437Y05679546D03*
Y04929546D03*
Y05079546D03*
Y05229546D03*
Y05379546D03*
Y05529546D03*
G54D13*
X04125587Y05127566D03*
X04025587Y05177566D03*
X04125587Y05327566D03*
X04025587Y05377566D03*
Y05277566D03*
X04125587Y05227566D03*
G36*
X04059087Y05511066D02*
Y05444066D01*
X03992087D01*
Y05511066D01*
X04059087D01*
G37*
G54D13*
X04125587Y05427566D03*
G54D12*
X03775587Y05527566D03*
Y05077566D03*
G54D14*
X04224407Y04311066D02*
Y04291386D01*
Y04173266D02*
Y04153586D01*
G54D15*
X03794557Y03965476D02*
Y03955796D01*
X03736217Y03965476D02*
Y03955796D01*
X03943977Y03940946D02*
X03953657D01*
G54D16*
X04481907Y05441306D02*
Y05435306D01*
X04403907Y05441306D02*
Y05435306D01*
Y05190696D02*
Y05184696D01*
X04442907Y05272696D02*
Y05266696D01*
Y05359306D02*
Y05353306D01*
X04481907Y05190696D02*
Y05184696D01*
G54D17*
X04652057Y05503956D02*
X04670757D01*
X04652057Y05472456D02*
X04670757D01*
X04652057Y05440966D02*
X04670757D01*
X04652057Y05409466D02*
X04670757D01*
X04718987Y05472456D02*
X04737687D01*
G54D18*
X04929137Y05698356D02*
Y05655996D01*
Y05552686D02*
Y05510326D01*
Y05399146D02*
Y05356786D01*
X04811937Y05249536D02*
Y05207176D01*
X04929137Y05249536D02*
Y05207176D01*
X04811937Y05698356D02*
Y05655996D01*
Y05552686D02*
Y05510326D01*
Y05399146D02*
Y05356786D01*
G54D17*
X04718987Y05503956D02*
X04737687D01*
X04718987Y05440966D02*
X04737687D01*
X04718987Y05409466D02*
X04737687D01*
G54D18*
X04811927Y03316456D02*
Y03274096D01*
G54D15*
X04278627Y03333036D02*
X04288307D01*
X04278627Y03391376D02*
X04288307D01*
G54D18*
X04468047Y03383386D02*
Y03341026D01*
X04350847Y03383386D02*
Y03341026D01*
X04929127Y03316456D02*
Y03274096D01*
Y03466056D02*
Y03423696D01*
G54D19*
X04831657Y03192916D02*
X04837657D01*
X04831657Y03114916D02*
X04837657D01*
X04913657Y03153916D02*
X04919657D01*
G54D17*
X04718987Y03472436D02*
X04737687D01*
X04718987Y03503936D02*
X04737687D01*
X04718987Y03535426D02*
X04737687D01*
X04718987Y03566926D02*
X04737687D01*
X04652057Y03472436D02*
X04670757D01*
X04652057Y03503936D02*
X04670757D01*
X04652057Y03535426D02*
X04670757D01*
X04652057Y03566926D02*
X04670757D01*
G54D18*
X04811927Y03466056D02*
Y03423696D01*
G54D15*
X03943977Y03772376D02*
X03953657D01*
X03943977Y03720476D02*
X03953657D01*
G54D20*
X03991127Y03738216D02*
X04024587D01*
X03991127Y03712626D02*
X04024587D01*
X03991127Y03687036D02*
X04024587D01*
X03991127Y03661446D02*
X04024587D01*
G54D15*
X03943977Y03662136D02*
X03953657D01*
G54D20*
X04286407Y03507906D02*
X04319867D01*
G54D15*
X03908547Y03496786D02*
X03918227D01*
G54D21*
X04032437Y03425026D02*
X04038437D01*
X04032437Y03374026D02*
X04038437D01*
X04102437Y03399026D02*
X04108437D01*
G54D22*
X03700797Y03261806D02*
Y03131886D01*
X03992137Y03261806D02*
Y03131886D01*
G54D20*
X03991127Y03584676D02*
X04024587D01*
X03991127Y03559086D02*
X04024587D01*
X03991127Y03533496D02*
X04024587D01*
X03991127Y03507906D02*
X04024587D01*
G54D15*
X03908547Y03555126D02*
X03918227D01*
G54D20*
X04286407Y03533496D02*
X04319867D01*
X04286407Y03559086D02*
X04319867D01*
X04286407Y03584676D02*
X04319867D01*
X04286407Y03610266D02*
X04319867D01*
X04286407Y03635856D02*
X04319867D01*
X04286407Y03661446D02*
X04319867D01*
X04286407Y03687036D02*
X04319867D01*
X04286407Y03712626D02*
X04319867D01*
X04286407Y03738216D02*
X04319867D01*
X04286407Y03763806D02*
X04319867D01*
X04286407Y03789396D02*
X04319867D01*
X04286407Y03814986D02*
X04319867D01*
X04286407Y03840576D02*
X04319867D01*
X04286407Y03866166D02*
X04319867D01*
X04286407Y03891756D02*
X04319867D01*
G54D15*
X03943977Y03830716D02*
X03953657D01*
G54D20*
X03991127Y03968526D02*
X04024587D01*
X03991127Y03942936D02*
X04024587D01*
X03991127Y03917346D02*
X04024587D01*
X03991127Y03814986D02*
X04024587D01*
X03991127Y03789396D02*
X04024587D01*
X03991127Y03763806D02*
X04024587D01*
X03991127Y03891756D02*
X04024587D01*
X03991127Y03866166D02*
X04024587D01*
X03991127Y03840576D02*
X04024587D01*
G54D15*
X03943977Y03882606D02*
X03953657D01*
G54D20*
X03991127Y03635856D02*
X04024587D01*
X03991127Y03610266D02*
X04024587D01*
G54D18*
X04811937Y05099926D02*
Y05057566D01*
X04929137Y05099926D02*
Y05057566D01*
X04811937Y04950326D02*
Y04907966D01*
X04929137Y04950326D02*
Y04907966D01*
Y04800716D02*
Y04758356D01*
Y04651106D02*
Y04608746D01*
X04811937Y04800716D02*
Y04758356D01*
Y04651106D02*
Y04608746D01*
G54D17*
X04652067Y04905516D02*
X04670767D01*
X04718997D02*
X04737697D01*
X04652067Y04874016D02*
X04670767D01*
X04718997D02*
X04737697D01*
X04652067Y04842526D02*
X04670767D01*
X04718997D02*
X04737697D01*
X04652067Y04811026D02*
X04670767D01*
X04718997D02*
X04737697D01*
G54D16*
X04409437Y04723486D02*
Y04717486D01*
X04331437Y04723486D02*
Y04717486D01*
X04370437Y04641486D02*
Y04635486D01*
G54D18*
X04929127Y04064486D02*
Y04022126D01*
Y03914876D02*
Y03872516D01*
G54D20*
X04286407Y03917346D02*
X04319867D01*
X04286407Y03942936D02*
X04319867D01*
X04286407Y03968526D02*
X04319867D01*
G54D14*
X04279527Y04311066D02*
Y04291386D01*
Y04173266D02*
Y04153586D01*
G54D17*
X04718967Y04070856D02*
X04737667D01*
X04718967Y04102356D02*
X04737667D01*
X04718967Y04133846D02*
X04737667D01*
X04718967Y04165346D02*
X04737667D01*
X04652037Y04070856D02*
X04670737D01*
X04652037Y04102356D02*
X04670737D01*
X04652037Y04133846D02*
X04670737D01*
X04652037Y04165346D02*
X04670737D01*
G54D18*
X04929127Y04363696D02*
Y04321336D01*
X04811927Y04064486D02*
Y04022126D01*
X04929127Y04214086D02*
Y04171726D01*
X04811927Y04214086D02*
Y04171726D01*
Y04363696D02*
Y04321336D01*
X04929127Y03615666D02*
Y03573306D01*
X04811927Y03615666D02*
Y03573306D01*
X04929127Y03765276D02*
Y03722916D01*
X04811927Y03765276D02*
Y03722916D01*
Y03914876D02*
Y03872516D01*
G54D23*
X00000000Y06142087D03*
X05433268Y05512165D03*
X04409646Y-00236220D03*
X-00236220Y01181102D03*
G54D24*
Y06142087D03*
X05433268D03*
Y-00236220D03*
X-00236220D03*
M02*
