*
%FSLAX26Y26*%
%MOIN*%
%ADD10R,0.028300X0.028300*%
%ADD11R,0.013000X0.013000*%
%ADD12R,0.051200X0.051200*%
%ADD13R,0.015000X0.015000*%
%ADD14R,0.034000X0.034000*%
%ADD15R,0.053000X0.053000*%
%ADD16R,0.056000X0.056000*%
%ADD17R,0.122000X0.122000*%
%ADD18R,0.066900X0.066900*%
%ADD19R,0.068900X0.068900*%
%ADD20R,0.024000X0.024000*%
%IPPOS*%
%LNsp.gbx*%
%LPD*%
G75*
G54D10*
X00117210Y00518080D02*
X00126890D01*
X00117210Y00576420D02*
X00126890D01*
X00073900Y00307090D02*
X00083580D01*
X00073900Y00365430D02*
X00083580D01*
X00050280Y00518080D02*
X00059960D01*
X00050280Y00576420D02*
X00059960D01*
X00183430Y00532400D02*
Y00522720D01*
X00241770Y00532400D02*
Y00522720D01*
G54D11*
X00222440Y00290770D02*
Y00244710D01*
X00196850Y00290770D02*
Y00244710D01*
X00171270Y00290770D02*
Y00244710D01*
X00145680Y00290770D02*
Y00244710D01*
Y00467930D02*
Y00421870D01*
X00171270Y00467930D02*
Y00421870D01*
X00196850Y00467930D02*
Y00421870D01*
X00222440Y00467930D02*
Y00421870D01*
G54D10*
X00073900Y00467790D02*
X00083580D01*
X00073900Y00409450D02*
X00083580D01*
G54D12*
X00570880Y00287410D02*
X00625980D01*
X00570880Y00405510D02*
X00625980D01*
G54D10*
X01329810Y00253580D02*
X01339490D01*
X01329810Y00195240D02*
X01339490D01*
G54D13*
X01096030Y02691090D02*
Y02671090D01*
X01122030Y02691090D02*
Y02671090D01*
X01147030Y02691090D02*
Y02671090D01*
Y02621090D02*
Y02601090D01*
X01122030Y02621090D02*
Y02601090D01*
X01096030Y02621090D02*
Y02601090D01*
G54D14*
X00341780Y00073870D02*
Y00067870D01*
X00263780Y00073870D02*
Y00067870D01*
X00302780Y00155870D02*
Y00149870D01*
X01182720Y00484630D02*
X01188720D01*
X01182720Y00562630D02*
X01188720D01*
X01264720Y00523630D02*
X01270720D01*
X01182720Y00634230D02*
X01188720D01*
X01182720Y00712230D02*
X01188720D01*
X01264720Y00673230D02*
X01270720D01*
X01182720Y01236590D02*
X01188720D01*
X01182720Y01314590D02*
X01188720D01*
X01264720Y01275590D02*
X01270720D01*
X01182720Y01083050D02*
X01188720D01*
X01182720Y01161050D02*
X01188720D01*
X01264720Y01122050D02*
X01270720D01*
X01182720Y00933450D02*
X01188720D01*
X01182720Y01011450D02*
X01188720D01*
X01264720Y00972450D02*
X01270720D01*
X01182720Y00783840D02*
X01188720D01*
X01182720Y00861840D02*
X01188720D01*
X01264720Y00822840D02*
X01270720D01*
X00709390Y01652620D02*
Y01646620D01*
X00787390Y01652620D02*
Y01646620D01*
X00748390Y01570620D02*
Y01564620D01*
G54D12*
X00596450Y02181100D02*
Y02157480D01*
X00714550Y02181100D02*
Y02157480D01*
X00596450Y02088590D02*
Y02064970D01*
X00714550Y02088590D02*
Y02064970D01*
X00596450Y02393710D02*
Y02370090D01*
X00714550Y02393710D02*
Y02370090D01*
X00596450Y02295290D02*
Y02271670D01*
X00714550Y02295290D02*
Y02271670D01*
G54D10*
X00045640Y01685950D02*
Y01676270D01*
X00103980Y01685950D02*
Y01676270D01*
X00046330Y02444180D02*
X00056010D01*
X00046330Y02385840D02*
X00056010D01*
X00583750Y01563720D02*
X00593430D01*
X00583750Y01622060D02*
X00593430D01*
X00045630Y01544220D02*
Y01534540D01*
X00103970Y01544220D02*
Y01534540D01*
X00101640Y01611150D02*
Y01601470D01*
X00043300Y01611150D02*
Y01601470D01*
X00578020Y01252880D02*
Y01243200D01*
X00519680Y01252880D02*
Y01243200D01*
X00578020Y01311940D02*
Y01302260D01*
X00519680Y01311940D02*
Y01302260D01*
X00729410Y01133870D02*
X00739090D01*
X00729410Y01075530D02*
X00739090D01*
X00674290Y01133870D02*
X00683970D01*
X00674290Y01075530D02*
X00683970D01*
X00586610Y01678080D02*
Y01668400D01*
X00644950Y01678080D02*
Y01668400D01*
X00640830Y01563720D02*
X00650510D01*
X00640830Y01622060D02*
X00650510D01*
X00345730Y02087530D02*
Y02077850D01*
X00287390Y02087530D02*
Y02077850D01*
G54D14*
X00614860Y01130530D02*
X00620860D01*
X00614860Y01052530D02*
X00620860D01*
X00532860Y01091530D02*
X00538860D01*
G54D15*
X00169290Y01460890D02*
Y01428890D01*
X00053290Y01460890D02*
Y01428890D01*
G54D12*
X01204730Y01736220D02*
Y01681120D01*
X01322830Y01736220D02*
Y01681120D01*
G54D14*
X00859860Y02119830D02*
Y02113830D01*
X00781860Y02119830D02*
Y02113830D01*
X00820860Y02201830D02*
Y02195830D01*
G54D12*
X00346460Y00870070D02*
Y00814970D01*
X00228360Y00870070D02*
Y00814970D01*
G54D13*
X01131730Y01585060D02*
X01151730D01*
X01131730Y01559060D02*
X01151730D01*
X01131730Y01534060D02*
X01151730D01*
X01061730D02*
X01081730D01*
X01061730Y01559060D02*
X01081730D01*
X01061730Y01585060D02*
X01081730D01*
G54D10*
X01329810Y01304760D02*
X01339490D01*
X01329810Y01246420D02*
X01339490D01*
X01329810Y01151220D02*
X01339490D01*
X01329810Y01092880D02*
X01339490D01*
G54D12*
X01204730Y01885820D02*
Y01830720D01*
X01322830Y01885820D02*
Y01830720D01*
X01204730Y02035430D02*
Y01980330D01*
X01322830Y02035430D02*
Y01980330D01*
X01204730Y02185030D02*
Y02129930D01*
X01322830Y02185030D02*
Y02129930D01*
X01204730Y02334640D02*
Y02279540D01*
X01322830Y02334640D02*
Y02279540D01*
X01204730Y02488180D02*
Y02433080D01*
X01322830Y02488180D02*
Y02433080D01*
X01204730Y02637790D02*
Y02582690D01*
X01322830Y02637790D02*
Y02582690D01*
G54D13*
X01131730Y01734670D02*
X01151730D01*
X01131730Y01708670D02*
X01151730D01*
X01131730Y01683670D02*
X01151730D01*
X01061730D02*
X01081730D01*
X01061730Y01708670D02*
X01081730D01*
X01061730Y01734670D02*
X01081730D01*
X01131730Y01884270D02*
X01151730D01*
X01131730Y01858270D02*
X01151730D01*
X01131730Y01833270D02*
X01151730D01*
X01061730D02*
X01081730D01*
X01061730Y01858270D02*
X01081730D01*
X01061730Y01884270D02*
X01081730D01*
X01131730Y02033880D02*
X01151730D01*
X01131730Y02007880D02*
X01151730D01*
X01131730Y01982880D02*
X01151730D01*
X01061730D02*
X01081730D01*
X01061730Y02007880D02*
X01081730D01*
X01061730Y02033880D02*
X01081730D01*
G54D14*
X00168550Y00073870D02*
Y00067870D01*
X00090550Y00073870D02*
Y00067870D01*
X00129550Y00155870D02*
Y00149870D01*
G54D13*
X01131730Y02486630D02*
X01151730D01*
X01131730Y02460630D02*
X01151730D01*
X01131730Y02435630D02*
X01151730D01*
X01061730D02*
X01081730D01*
X01061730Y02460630D02*
X01081730D01*
X01061730Y02486630D02*
X01081730D01*
X01131730Y02333090D02*
X01151730D01*
X01131730Y02307090D02*
X01151730D01*
X01131730Y02282090D02*
X01151730D01*
X01061730D02*
X01081730D01*
X01061730Y02307090D02*
X01081730D01*
X01061730Y02333090D02*
X01081730D01*
X01131730Y02183480D02*
X01151730D01*
X01131730Y02157480D02*
X01151730D01*
X01131730Y02132480D02*
X01151730D01*
X01061730D02*
X01081730D01*
X01061730Y02157480D02*
X01081730D01*
X01061730Y02183480D02*
X01081730D01*
G54D12*
X01204730Y01586610D02*
Y01531510D01*
X01322830Y01586610D02*
Y01531510D01*
G54D11*
X00036020Y02151610D02*
X00082080D01*
X00036020Y02177200D02*
X00082080D01*
X00036020Y02202790D02*
X00082080D01*
X00036020Y02228380D02*
X00082080D01*
X00036020Y02253960D02*
X00082080D01*
X00036020Y02279550D02*
X00082080D01*
X00036020Y02305140D02*
X00082080D01*
X00036020Y02330730D02*
X00082080D01*
X00268300D02*
X00314360D01*
X00268300Y02305140D02*
X00314360D01*
X00268300Y02279550D02*
X00314360D01*
X00268300Y02253960D02*
X00314360D01*
X00268300Y02228380D02*
X00314360D01*
X00268300Y02202790D02*
X00314360D01*
X00268300Y02177200D02*
X00314360D01*
X00268300Y02151610D02*
X00314360D01*
G54D12*
X00057090Y01860240D02*
X00064950D01*
X00057090Y01931100D02*
X00064950D01*
G54D16*
X00270240Y01795840D02*
X00336240D01*
X00270240Y01885840D02*
X00336240D01*
X00270240Y01976840D02*
X00336240D01*
G54D17*
X00547240Y01930840D02*
Y01840840D01*
G54D15*
X00287400Y01279790D02*
Y01247790D01*
X00403400Y01279790D02*
Y01247790D01*
G54D14*
X00264150Y00714910D02*
Y00708910D01*
X00342150Y00714910D02*
Y00708910D01*
X00303150Y00632910D02*
Y00626910D01*
G54D18*
X00356310Y00488180D02*
X00438990D01*
X00356310Y00263780D02*
X00438990D01*
G54D19*
X00098430Y00710640D02*
Y00675210D01*
Y00879930D02*
Y00844500D01*
G54D10*
X00046340Y00267010D02*
X00056020D01*
X00046340Y00208670D02*
X00056020D01*
G54D12*
X00704740Y00287410D02*
X00759840D01*
X00704740Y00405510D02*
X00759840D01*
G54D10*
X01329810Y01001620D02*
X01339490D01*
X01329810Y00943280D02*
X01339490D01*
X01329810Y00852010D02*
X01339490D01*
X01329810Y00793670D02*
X01339490D01*
X01329810Y00702400D02*
X01339490D01*
X01329810Y00644060D02*
X01339490D01*
X01329810Y00552800D02*
X01339490D01*
X01329810Y00494460D02*
X01339490D01*
X01329810Y00403190D02*
X01339490D01*
X01329810Y00344850D02*
X01339490D01*
G54D14*
X01182720Y00185410D02*
X01188720D01*
X01182720Y00263410D02*
X01188720D01*
X01264720Y00224410D02*
X01270720D01*
X01182720Y00335020D02*
X01188720D01*
X01182720Y00413020D02*
X01188720D01*
X01264720Y00374020D02*
X01270720D01*
G54D20*
X00279540Y01613130D02*
X00295540D01*
X00279540Y01574130D02*
X00295540D01*
X00279540Y01535130D02*
X00295540D01*
X00197540D02*
X00213540D01*
X00197540Y01574130D02*
X00213540D01*
X00197540Y01613130D02*
X00213540D01*
G54D14*
X00648440Y01415960D02*
Y01409960D01*
X00570440Y01415960D02*
Y01409960D01*
X00609440Y01497960D02*
Y01491960D01*
X00781860Y02370440D02*
Y02364440D01*
X00859860Y02370440D02*
Y02364440D01*
X00820860Y02288440D02*
Y02282440D01*
G54D10*
X00117210Y03588946D02*
X00126890D01*
X00117210Y03647286D02*
X00126890D01*
X00073900Y03377956D02*
X00083580D01*
X00073900Y03436296D02*
X00083580D01*
X00050280Y03588946D02*
X00059960D01*
X00050280Y03647286D02*
X00059960D01*
X00183430Y03603266D02*
Y03593586D01*
X00241770Y03603266D02*
Y03593586D01*
G54D11*
X00222440Y03361636D02*
Y03315576D01*
X00196850Y03361636D02*
Y03315576D01*
X00171270Y03361636D02*
Y03315576D01*
X00145680Y03361636D02*
Y03315576D01*
Y03538796D02*
Y03492736D01*
X00171270Y03538796D02*
Y03492736D01*
X00196850Y03538796D02*
Y03492736D01*
X00222440Y03538796D02*
Y03492736D01*
G54D10*
X00073900Y03538656D02*
X00083580D01*
X00073900Y03480316D02*
X00083580D01*
G54D12*
X00570880Y03358276D02*
X00625980D01*
X00570880Y03476376D02*
X00625980D01*
G54D10*
X01329810Y03324446D02*
X01339490D01*
X01329810Y03266106D02*
X01339490D01*
G54D13*
X01096030Y05761956D02*
Y05741956D01*
X01122030Y05761956D02*
Y05741956D01*
X01147030Y05761956D02*
Y05741956D01*
Y05691956D02*
Y05671956D01*
X01122030Y05691956D02*
Y05671956D01*
X01096030Y05691956D02*
Y05671956D01*
G54D14*
X00341780Y03144736D02*
Y03138736D01*
X00263780Y03144736D02*
Y03138736D01*
X00302780Y03226736D02*
Y03220736D01*
X01182720Y03555496D02*
X01188720D01*
X01182720Y03633496D02*
X01188720D01*
X01264720Y03594496D02*
X01270720D01*
X01182720Y03705096D02*
X01188720D01*
X01182720Y03783096D02*
X01188720D01*
X01264720Y03744096D02*
X01270720D01*
X01182720Y04307456D02*
X01188720D01*
X01182720Y04385456D02*
X01188720D01*
X01264720Y04346456D02*
X01270720D01*
X01182720Y04153916D02*
X01188720D01*
X01182720Y04231916D02*
X01188720D01*
X01264720Y04192916D02*
X01270720D01*
X01182720Y04004316D02*
X01188720D01*
X01182720Y04082316D02*
X01188720D01*
X01264720Y04043316D02*
X01270720D01*
X01182720Y03854706D02*
X01188720D01*
X01182720Y03932706D02*
X01188720D01*
X01264720Y03893706D02*
X01270720D01*
X00709390Y04723486D02*
Y04717486D01*
X00787390Y04723486D02*
Y04717486D01*
X00748390Y04641486D02*
Y04635486D01*
G54D12*
X00596450Y05251966D02*
Y05228346D01*
X00714550Y05251966D02*
Y05228346D01*
X00596450Y05159456D02*
Y05135836D01*
X00714550Y05159456D02*
Y05135836D01*
X00596450Y05464576D02*
Y05440956D01*
X00714550Y05464576D02*
Y05440956D01*
X00596450Y05366156D02*
Y05342536D01*
X00714550Y05366156D02*
Y05342536D01*
G54D10*
X00045640Y04756816D02*
Y04747136D01*
X00103980Y04756816D02*
Y04747136D01*
X00046330Y05515046D02*
X00056010D01*
X00046330Y05456706D02*
X00056010D01*
X00583750Y04634586D02*
X00593430D01*
X00583750Y04692926D02*
X00593430D01*
X00045630Y04615086D02*
Y04605406D01*
X00103970Y04615086D02*
Y04605406D01*
X00101640Y04682016D02*
Y04672336D01*
X00043300Y04682016D02*
Y04672336D01*
X00578020Y04323746D02*
Y04314066D01*
X00519680Y04323746D02*
Y04314066D01*
X00578020Y04382806D02*
Y04373126D01*
X00519680Y04382806D02*
Y04373126D01*
X00729410Y04204736D02*
X00739090D01*
X00729410Y04146396D02*
X00739090D01*
X00674290Y04204736D02*
X00683970D01*
X00674290Y04146396D02*
X00683970D01*
X00586610Y04748946D02*
Y04739266D01*
X00644950Y04748946D02*
Y04739266D01*
X00640830Y04634586D02*
X00650510D01*
X00640830Y04692926D02*
X00650510D01*
X00345730Y05158396D02*
Y05148716D01*
X00287390Y05158396D02*
Y05148716D01*
G54D14*
X00614860Y04201396D02*
X00620860D01*
X00614860Y04123396D02*
X00620860D01*
X00532860Y04162396D02*
X00538860D01*
G54D15*
X00169290Y04531756D02*
Y04499756D01*
X00053290Y04531756D02*
Y04499756D01*
G54D12*
X01204730Y04807086D02*
Y04751986D01*
X01322830Y04807086D02*
Y04751986D01*
G54D14*
X00859860Y05190696D02*
Y05184696D01*
X00781860Y05190696D02*
Y05184696D01*
X00820860Y05272696D02*
Y05266696D01*
G54D12*
X00346460Y03940936D02*
Y03885836D01*
X00228360Y03940936D02*
Y03885836D01*
G54D13*
X01131730Y04655926D02*
X01151730D01*
X01131730Y04629926D02*
X01151730D01*
X01131730Y04604926D02*
X01151730D01*
X01061730D02*
X01081730D01*
X01061730Y04629926D02*
X01081730D01*
X01061730Y04655926D02*
X01081730D01*
G54D10*
X01329810Y04375626D02*
X01339490D01*
X01329810Y04317286D02*
X01339490D01*
X01329810Y04222086D02*
X01339490D01*
X01329810Y04163746D02*
X01339490D01*
G54D12*
X01204730Y04956686D02*
Y04901586D01*
X01322830Y04956686D02*
Y04901586D01*
X01204730Y05106296D02*
Y05051196D01*
X01322830Y05106296D02*
Y05051196D01*
X01204730Y05255896D02*
Y05200796D01*
X01322830Y05255896D02*
Y05200796D01*
X01204730Y05405506D02*
Y05350406D01*
X01322830Y05405506D02*
Y05350406D01*
X01204730Y05559046D02*
Y05503946D01*
X01322830Y05559046D02*
Y05503946D01*
X01204730Y05708656D02*
Y05653556D01*
X01322830Y05708656D02*
Y05653556D01*
G54D13*
X01131730Y04805536D02*
X01151730D01*
X01131730Y04779536D02*
X01151730D01*
X01131730Y04754536D02*
X01151730D01*
X01061730D02*
X01081730D01*
X01061730Y04779536D02*
X01081730D01*
X01061730Y04805536D02*
X01081730D01*
X01131730Y04955136D02*
X01151730D01*
X01131730Y04929136D02*
X01151730D01*
X01131730Y04904136D02*
X01151730D01*
X01061730D02*
X01081730D01*
X01061730Y04929136D02*
X01081730D01*
X01061730Y04955136D02*
X01081730D01*
X01131730Y05104746D02*
X01151730D01*
X01131730Y05078746D02*
X01151730D01*
X01131730Y05053746D02*
X01151730D01*
X01061730D02*
X01081730D01*
X01061730Y05078746D02*
X01081730D01*
X01061730Y05104746D02*
X01081730D01*
G54D14*
X00168550Y03144736D02*
Y03138736D01*
X00090550Y03144736D02*
Y03138736D01*
X00129550Y03226736D02*
Y03220736D01*
G54D13*
X01131730Y05557496D02*
X01151730D01*
X01131730Y05531496D02*
X01151730D01*
X01131730Y05506496D02*
X01151730D01*
X01061730D02*
X01081730D01*
X01061730Y05531496D02*
X01081730D01*
X01061730Y05557496D02*
X01081730D01*
X01131730Y05403956D02*
X01151730D01*
X01131730Y05377956D02*
X01151730D01*
X01131730Y05352956D02*
X01151730D01*
X01061730D02*
X01081730D01*
X01061730Y05377956D02*
X01081730D01*
X01061730Y05403956D02*
X01081730D01*
X01131730Y05254346D02*
X01151730D01*
X01131730Y05228346D02*
X01151730D01*
X01131730Y05203346D02*
X01151730D01*
X01061730D02*
X01081730D01*
X01061730Y05228346D02*
X01081730D01*
X01061730Y05254346D02*
X01081730D01*
G54D12*
X01204730Y04657476D02*
Y04602376D01*
X01322830Y04657476D02*
Y04602376D01*
G54D11*
X00036020Y05222476D02*
X00082080D01*
X00036020Y05248066D02*
X00082080D01*
X00036020Y05273656D02*
X00082080D01*
X00036020Y05299246D02*
X00082080D01*
X00036020Y05324826D02*
X00082080D01*
X00036020Y05350416D02*
X00082080D01*
X00036020Y05376006D02*
X00082080D01*
X00036020Y05401596D02*
X00082080D01*
X00268300D02*
X00314360D01*
X00268300Y05376006D02*
X00314360D01*
X00268300Y05350416D02*
X00314360D01*
X00268300Y05324826D02*
X00314360D01*
X00268300Y05299246D02*
X00314360D01*
X00268300Y05273656D02*
X00314360D01*
X00268300Y05248066D02*
X00314360D01*
X00268300Y05222476D02*
X00314360D01*
G54D12*
X00057090Y04931106D02*
X00064950D01*
X00057090Y05001966D02*
X00064950D01*
G54D16*
X00270240Y04866706D02*
X00336240D01*
X00270240Y04956706D02*
X00336240D01*
X00270240Y05047706D02*
X00336240D01*
G54D17*
X00547240Y05001706D02*
Y04911706D01*
G54D15*
X00287400Y04350656D02*
Y04318656D01*
X00403400Y04350656D02*
Y04318656D01*
G54D14*
X00264150Y03785776D02*
Y03779776D01*
X00342150Y03785776D02*
Y03779776D01*
X00303150Y03703776D02*
Y03697776D01*
G54D18*
X00356310Y03559046D02*
X00438990D01*
X00356310Y03334646D02*
X00438990D01*
G54D19*
X00098430Y03781506D02*
Y03746076D01*
Y03950796D02*
Y03915366D01*
G54D10*
X00046340Y03337876D02*
X00056020D01*
X00046340Y03279536D02*
X00056020D01*
G54D12*
X00704740Y03358276D02*
X00759840D01*
X00704740Y03476376D02*
X00759840D01*
G54D10*
X01329810Y04072486D02*
X01339490D01*
X01329810Y04014146D02*
X01339490D01*
X01329810Y03922876D02*
X01339490D01*
X01329810Y03864536D02*
X01339490D01*
X01329810Y03773266D02*
X01339490D01*
X01329810Y03714926D02*
X01339490D01*
X01329810Y03623666D02*
X01339490D01*
X01329810Y03565326D02*
X01339490D01*
X01329810Y03474056D02*
X01339490D01*
X01329810Y03415716D02*
X01339490D01*
G54D14*
X01182720Y03256276D02*
X01188720D01*
X01182720Y03334276D02*
X01188720D01*
X01264720Y03295276D02*
X01270720D01*
X01182720Y03405886D02*
X01188720D01*
X01182720Y03483886D02*
X01188720D01*
X01264720Y03444886D02*
X01270720D01*
G54D20*
X00279540Y04683996D02*
X00295540D01*
X00279540Y04644996D02*
X00295540D01*
X00279540Y04605996D02*
X00295540D01*
X00197540D02*
X00213540D01*
X00197540Y04644996D02*
X00213540D01*
X00197540Y04683996D02*
X00213540D01*
G54D14*
X00648440Y04486826D02*
Y04480826D01*
X00570440Y04486826D02*
Y04480826D01*
X00609440Y04568826D02*
Y04562826D01*
X00781860Y05441306D02*
Y05435306D01*
X00859860Y05441306D02*
Y05435306D01*
X00820860Y05359306D02*
Y05353306D01*
G54D10*
X01928234Y00518080D02*
X01937914D01*
X01928234Y00576420D02*
X01937914D01*
X01884924Y00307090D02*
X01894604D01*
X01884924Y00365430D02*
X01894604D01*
X01861304Y00518080D02*
X01870984D01*
X01861304Y00576420D02*
X01870984D01*
X01994454Y00532400D02*
Y00522720D01*
X02052794Y00532400D02*
Y00522720D01*
G54D11*
X02033464Y00290770D02*
Y00244710D01*
X02007874Y00290770D02*
Y00244710D01*
X01982294Y00290770D02*
Y00244710D01*
X01956704Y00290770D02*
Y00244710D01*
Y00467930D02*
Y00421870D01*
X01982294Y00467930D02*
Y00421870D01*
X02007874Y00467930D02*
Y00421870D01*
X02033464Y00467930D02*
Y00421870D01*
G54D10*
X01884924Y00467790D02*
X01894604D01*
X01884924Y00409450D02*
X01894604D01*
G54D12*
X02381904Y00287410D02*
X02437004D01*
X02381904Y00405510D02*
X02437004D01*
G54D10*
X03140834Y00253580D02*
X03150514D01*
X03140834Y00195240D02*
X03150514D01*
G54D13*
X02907054Y02691090D02*
Y02671090D01*
X02933054Y02691090D02*
Y02671090D01*
X02958054Y02691090D02*
Y02671090D01*
Y02621090D02*
Y02601090D01*
X02933054Y02621090D02*
Y02601090D01*
X02907054Y02621090D02*
Y02601090D01*
G54D14*
X02152804Y00073870D02*
Y00067870D01*
X02074804Y00073870D02*
Y00067870D01*
X02113804Y00155870D02*
Y00149870D01*
X02993744Y00484630D02*
X02999744D01*
X02993744Y00562630D02*
X02999744D01*
X03075744Y00523630D02*
X03081744D01*
X02993744Y00634230D02*
X02999744D01*
X02993744Y00712230D02*
X02999744D01*
X03075744Y00673230D02*
X03081744D01*
X02993744Y01236590D02*
X02999744D01*
X02993744Y01314590D02*
X02999744D01*
X03075744Y01275590D02*
X03081744D01*
X02993744Y01083050D02*
X02999744D01*
X02993744Y01161050D02*
X02999744D01*
X03075744Y01122050D02*
X03081744D01*
X02993744Y00933450D02*
X02999744D01*
X02993744Y01011450D02*
X02999744D01*
X03075744Y00972450D02*
X03081744D01*
X02993744Y00783840D02*
X02999744D01*
X02993744Y00861840D02*
X02999744D01*
X03075744Y00822840D02*
X03081744D01*
X02520414Y01652620D02*
Y01646620D01*
X02598414Y01652620D02*
Y01646620D01*
X02559414Y01570620D02*
Y01564620D01*
G54D12*
X02407474Y02181100D02*
Y02157480D01*
X02525574Y02181100D02*
Y02157480D01*
X02407474Y02088590D02*
Y02064970D01*
X02525574Y02088590D02*
Y02064970D01*
X02407474Y02393710D02*
Y02370090D01*
X02525574Y02393710D02*
Y02370090D01*
X02407474Y02295290D02*
Y02271670D01*
X02525574Y02295290D02*
Y02271670D01*
G54D10*
X01856664Y01685950D02*
Y01676270D01*
X01915004Y01685950D02*
Y01676270D01*
X01857354Y02444180D02*
X01867034D01*
X01857354Y02385840D02*
X01867034D01*
X02394774Y01563720D02*
X02404454D01*
X02394774Y01622060D02*
X02404454D01*
X01856654Y01544220D02*
Y01534540D01*
X01914994Y01544220D02*
Y01534540D01*
X01912664Y01611150D02*
Y01601470D01*
X01854324Y01611150D02*
Y01601470D01*
X02389044Y01252880D02*
Y01243200D01*
X02330704Y01252880D02*
Y01243200D01*
X02389044Y01311940D02*
Y01302260D01*
X02330704Y01311940D02*
Y01302260D01*
X02540434Y01133870D02*
X02550114D01*
X02540434Y01075530D02*
X02550114D01*
X02485314Y01133870D02*
X02494994D01*
X02485314Y01075530D02*
X02494994D01*
X02397634Y01678080D02*
Y01668400D01*
X02455974Y01678080D02*
Y01668400D01*
X02451854Y01563720D02*
X02461534D01*
X02451854Y01622060D02*
X02461534D01*
X02156754Y02087530D02*
Y02077850D01*
X02098414Y02087530D02*
Y02077850D01*
G54D14*
X02425884Y01130530D02*
X02431884D01*
X02425884Y01052530D02*
X02431884D01*
X02343884Y01091530D02*
X02349884D01*
G54D15*
X01980314Y01460890D02*
Y01428890D01*
X01864314Y01460890D02*
Y01428890D01*
G54D12*
X03015754Y01736220D02*
Y01681120D01*
X03133854Y01736220D02*
Y01681120D01*
G54D14*
X02670884Y02119830D02*
Y02113830D01*
X02592884Y02119830D02*
Y02113830D01*
X02631884Y02201830D02*
Y02195830D01*
G54D12*
X02157484Y00870070D02*
Y00814970D01*
X02039384Y00870070D02*
Y00814970D01*
G54D13*
X02942754Y01585060D02*
X02962754D01*
X02942754Y01559060D02*
X02962754D01*
X02942754Y01534060D02*
X02962754D01*
X02872754D02*
X02892754D01*
X02872754Y01559060D02*
X02892754D01*
X02872754Y01585060D02*
X02892754D01*
G54D10*
X03140834Y01304760D02*
X03150514D01*
X03140834Y01246420D02*
X03150514D01*
X03140834Y01151220D02*
X03150514D01*
X03140834Y01092880D02*
X03150514D01*
G54D12*
X03015754Y01885820D02*
Y01830720D01*
X03133854Y01885820D02*
Y01830720D01*
X03015754Y02035430D02*
Y01980330D01*
X03133854Y02035430D02*
Y01980330D01*
X03015754Y02185030D02*
Y02129930D01*
X03133854Y02185030D02*
Y02129930D01*
X03015754Y02334640D02*
Y02279540D01*
X03133854Y02334640D02*
Y02279540D01*
X03015754Y02488180D02*
Y02433080D01*
X03133854Y02488180D02*
Y02433080D01*
X03015754Y02637790D02*
Y02582690D01*
X03133854Y02637790D02*
Y02582690D01*
G54D13*
X02942754Y01734670D02*
X02962754D01*
X02942754Y01708670D02*
X02962754D01*
X02942754Y01683670D02*
X02962754D01*
X02872754D02*
X02892754D01*
X02872754Y01708670D02*
X02892754D01*
X02872754Y01734670D02*
X02892754D01*
X02942754Y01884270D02*
X02962754D01*
X02942754Y01858270D02*
X02962754D01*
X02942754Y01833270D02*
X02962754D01*
X02872754D02*
X02892754D01*
X02872754Y01858270D02*
X02892754D01*
X02872754Y01884270D02*
X02892754D01*
X02942754Y02033880D02*
X02962754D01*
X02942754Y02007880D02*
X02962754D01*
X02942754Y01982880D02*
X02962754D01*
X02872754D02*
X02892754D01*
X02872754Y02007880D02*
X02892754D01*
X02872754Y02033880D02*
X02892754D01*
G54D14*
X01979574Y00073870D02*
Y00067870D01*
X01901574Y00073870D02*
Y00067870D01*
X01940574Y00155870D02*
Y00149870D01*
G54D13*
X02942754Y02486630D02*
X02962754D01*
X02942754Y02460630D02*
X02962754D01*
X02942754Y02435630D02*
X02962754D01*
X02872754D02*
X02892754D01*
X02872754Y02460630D02*
X02892754D01*
X02872754Y02486630D02*
X02892754D01*
X02942754Y02333090D02*
X02962754D01*
X02942754Y02307090D02*
X02962754D01*
X02942754Y02282090D02*
X02962754D01*
X02872754D02*
X02892754D01*
X02872754Y02307090D02*
X02892754D01*
X02872754Y02333090D02*
X02892754D01*
X02942754Y02183480D02*
X02962754D01*
X02942754Y02157480D02*
X02962754D01*
X02942754Y02132480D02*
X02962754D01*
X02872754D02*
X02892754D01*
X02872754Y02157480D02*
X02892754D01*
X02872754Y02183480D02*
X02892754D01*
G54D12*
X03015754Y01586610D02*
Y01531510D01*
X03133854Y01586610D02*
Y01531510D01*
G54D11*
X01847044Y02151610D02*
X01893104D01*
X01847044Y02177200D02*
X01893104D01*
X01847044Y02202790D02*
X01893104D01*
X01847044Y02228380D02*
X01893104D01*
X01847044Y02253960D02*
X01893104D01*
X01847044Y02279550D02*
X01893104D01*
X01847044Y02305140D02*
X01893104D01*
X01847044Y02330730D02*
X01893104D01*
X02079324D02*
X02125384D01*
X02079324Y02305140D02*
X02125384D01*
X02079324Y02279550D02*
X02125384D01*
X02079324Y02253960D02*
X02125384D01*
X02079324Y02228380D02*
X02125384D01*
X02079324Y02202790D02*
X02125384D01*
X02079324Y02177200D02*
X02125384D01*
X02079324Y02151610D02*
X02125384D01*
G54D12*
X01868114Y01860240D02*
X01875974D01*
X01868114Y01931100D02*
X01875974D01*
G54D16*
X02081264Y01795840D02*
X02147264D01*
X02081264Y01885840D02*
X02147264D01*
X02081264Y01976840D02*
X02147264D01*
G54D17*
X02358264Y01930840D02*
Y01840840D01*
G54D15*
X02098424Y01279790D02*
Y01247790D01*
X02214424Y01279790D02*
Y01247790D01*
G54D14*
X02075174Y00714910D02*
Y00708910D01*
X02153174Y00714910D02*
Y00708910D01*
X02114174Y00632910D02*
Y00626910D01*
G54D18*
X02167334Y00488180D02*
X02250014D01*
X02167334Y00263780D02*
X02250014D01*
G54D19*
X01909454Y00710640D02*
Y00675210D01*
Y00879930D02*
Y00844500D01*
G54D10*
X01857364Y00267010D02*
X01867044D01*
X01857364Y00208670D02*
X01867044D01*
G54D12*
X02515764Y00287410D02*
X02570864D01*
X02515764Y00405510D02*
X02570864D01*
G54D10*
X03140834Y01001620D02*
X03150514D01*
X03140834Y00943280D02*
X03150514D01*
X03140834Y00852010D02*
X03150514D01*
X03140834Y00793670D02*
X03150514D01*
X03140834Y00702400D02*
X03150514D01*
X03140834Y00644060D02*
X03150514D01*
X03140834Y00552800D02*
X03150514D01*
X03140834Y00494460D02*
X03150514D01*
X03140834Y00403190D02*
X03150514D01*
X03140834Y00344850D02*
X03150514D01*
G54D14*
X02993744Y00185410D02*
X02999744D01*
X02993744Y00263410D02*
X02999744D01*
X03075744Y00224410D02*
X03081744D01*
X02993744Y00335020D02*
X02999744D01*
X02993744Y00413020D02*
X02999744D01*
X03075744Y00374020D02*
X03081744D01*
G54D20*
X02090564Y01613130D02*
X02106564D01*
X02090564Y01574130D02*
X02106564D01*
X02090564Y01535130D02*
X02106564D01*
X02008564D02*
X02024564D01*
X02008564Y01574130D02*
X02024564D01*
X02008564Y01613130D02*
X02024564D01*
G54D14*
X02459464Y01415960D02*
Y01409960D01*
X02381464Y01415960D02*
Y01409960D01*
X02420464Y01497960D02*
Y01491960D01*
X02592884Y02370440D02*
Y02364440D01*
X02670884Y02370440D02*
Y02364440D01*
X02631884Y02288440D02*
Y02282440D01*
G54D10*
X01928234Y03588946D02*
X01937914D01*
X01928234Y03647286D02*
X01937914D01*
X01884924Y03377956D02*
X01894604D01*
X01884924Y03436296D02*
X01894604D01*
X01861304Y03588946D02*
X01870984D01*
X01861304Y03647286D02*
X01870984D01*
X01994454Y03603266D02*
Y03593586D01*
X02052794Y03603266D02*
Y03593586D01*
G54D11*
X02033464Y03361636D02*
Y03315576D01*
X02007874Y03361636D02*
Y03315576D01*
X01982294Y03361636D02*
Y03315576D01*
X01956704Y03361636D02*
Y03315576D01*
Y03538796D02*
Y03492736D01*
X01982294Y03538796D02*
Y03492736D01*
X02007874Y03538796D02*
Y03492736D01*
X02033464Y03538796D02*
Y03492736D01*
G54D10*
X01884924Y03538656D02*
X01894604D01*
X01884924Y03480316D02*
X01894604D01*
G54D12*
X02381904Y03358276D02*
X02437004D01*
X02381904Y03476376D02*
X02437004D01*
G54D10*
X03140834Y03324446D02*
X03150514D01*
X03140834Y03266106D02*
X03150514D01*
G54D13*
X02907054Y05761956D02*
Y05741956D01*
X02933054Y05761956D02*
Y05741956D01*
X02958054Y05761956D02*
Y05741956D01*
Y05691956D02*
Y05671956D01*
X02933054Y05691956D02*
Y05671956D01*
X02907054Y05691956D02*
Y05671956D01*
G54D14*
X02152804Y03144736D02*
Y03138736D01*
X02074804Y03144736D02*
Y03138736D01*
X02113804Y03226736D02*
Y03220736D01*
X02993744Y03555496D02*
X02999744D01*
X02993744Y03633496D02*
X02999744D01*
X03075744Y03594496D02*
X03081744D01*
X02993744Y03705096D02*
X02999744D01*
X02993744Y03783096D02*
X02999744D01*
X03075744Y03744096D02*
X03081744D01*
X02993744Y04307456D02*
X02999744D01*
X02993744Y04385456D02*
X02999744D01*
X03075744Y04346456D02*
X03081744D01*
X02993744Y04153916D02*
X02999744D01*
X02993744Y04231916D02*
X02999744D01*
X03075744Y04192916D02*
X03081744D01*
X02993744Y04004316D02*
X02999744D01*
X02993744Y04082316D02*
X02999744D01*
X03075744Y04043316D02*
X03081744D01*
X02993744Y03854706D02*
X02999744D01*
X02993744Y03932706D02*
X02999744D01*
X03075744Y03893706D02*
X03081744D01*
X02520414Y04723486D02*
Y04717486D01*
X02598414Y04723486D02*
Y04717486D01*
X02559414Y04641486D02*
Y04635486D01*
G54D12*
X02407474Y05251966D02*
Y05228346D01*
X02525574Y05251966D02*
Y05228346D01*
X02407474Y05159456D02*
Y05135836D01*
X02525574Y05159456D02*
Y05135836D01*
X02407474Y05464576D02*
Y05440956D01*
X02525574Y05464576D02*
Y05440956D01*
X02407474Y05366156D02*
Y05342536D01*
X02525574Y05366156D02*
Y05342536D01*
G54D10*
X01856664Y04756816D02*
Y04747136D01*
X01915004Y04756816D02*
Y04747136D01*
X01857354Y05515046D02*
X01867034D01*
X01857354Y05456706D02*
X01867034D01*
X02394774Y04634586D02*
X02404454D01*
X02394774Y04692926D02*
X02404454D01*
X01856654Y04615086D02*
Y04605406D01*
X01914994Y04615086D02*
Y04605406D01*
X01912664Y04682016D02*
Y04672336D01*
X01854324Y04682016D02*
Y04672336D01*
X02389044Y04323746D02*
Y04314066D01*
X02330704Y04323746D02*
Y04314066D01*
X02389044Y04382806D02*
Y04373126D01*
X02330704Y04382806D02*
Y04373126D01*
X02540434Y04204736D02*
X02550114D01*
X02540434Y04146396D02*
X02550114D01*
X02485314Y04204736D02*
X02494994D01*
X02485314Y04146396D02*
X02494994D01*
X02397634Y04748946D02*
Y04739266D01*
X02455974Y04748946D02*
Y04739266D01*
X02451854Y04634586D02*
X02461534D01*
X02451854Y04692926D02*
X02461534D01*
X02156754Y05158396D02*
Y05148716D01*
X02098414Y05158396D02*
Y05148716D01*
G54D14*
X02425884Y04201396D02*
X02431884D01*
X02425884Y04123396D02*
X02431884D01*
X02343884Y04162396D02*
X02349884D01*
G54D15*
X01980314Y04531756D02*
Y04499756D01*
X01864314Y04531756D02*
Y04499756D01*
G54D12*
X03015754Y04807086D02*
Y04751986D01*
X03133854Y04807086D02*
Y04751986D01*
G54D14*
X02670884Y05190696D02*
Y05184696D01*
X02592884Y05190696D02*
Y05184696D01*
X02631884Y05272696D02*
Y05266696D01*
G54D12*
X02157484Y03940936D02*
Y03885836D01*
X02039384Y03940936D02*
Y03885836D01*
G54D13*
X02942754Y04655926D02*
X02962754D01*
X02942754Y04629926D02*
X02962754D01*
X02942754Y04604926D02*
X02962754D01*
X02872754D02*
X02892754D01*
X02872754Y04629926D02*
X02892754D01*
X02872754Y04655926D02*
X02892754D01*
G54D10*
X03140834Y04375626D02*
X03150514D01*
X03140834Y04317286D02*
X03150514D01*
X03140834Y04222086D02*
X03150514D01*
X03140834Y04163746D02*
X03150514D01*
G54D12*
X03015754Y04956686D02*
Y04901586D01*
X03133854Y04956686D02*
Y04901586D01*
X03015754Y05106296D02*
Y05051196D01*
X03133854Y05106296D02*
Y05051196D01*
X03015754Y05255896D02*
Y05200796D01*
X03133854Y05255896D02*
Y05200796D01*
X03015754Y05405506D02*
Y05350406D01*
X03133854Y05405506D02*
Y05350406D01*
X03015754Y05559046D02*
Y05503946D01*
X03133854Y05559046D02*
Y05503946D01*
X03015754Y05708656D02*
Y05653556D01*
X03133854Y05708656D02*
Y05653556D01*
G54D13*
X02942754Y04805536D02*
X02962754D01*
X02942754Y04779536D02*
X02962754D01*
X02942754Y04754536D02*
X02962754D01*
X02872754D02*
X02892754D01*
X02872754Y04779536D02*
X02892754D01*
X02872754Y04805536D02*
X02892754D01*
X02942754Y04955136D02*
X02962754D01*
X02942754Y04929136D02*
X02962754D01*
X02942754Y04904136D02*
X02962754D01*
X02872754D02*
X02892754D01*
X02872754Y04929136D02*
X02892754D01*
X02872754Y04955136D02*
X02892754D01*
X02942754Y05104746D02*
X02962754D01*
X02942754Y05078746D02*
X02962754D01*
X02942754Y05053746D02*
X02962754D01*
X02872754D02*
X02892754D01*
X02872754Y05078746D02*
X02892754D01*
X02872754Y05104746D02*
X02892754D01*
G54D14*
X01979574Y03144736D02*
Y03138736D01*
X01901574Y03144736D02*
Y03138736D01*
X01940574Y03226736D02*
Y03220736D01*
G54D13*
X02942754Y05557496D02*
X02962754D01*
X02942754Y05531496D02*
X02962754D01*
X02942754Y05506496D02*
X02962754D01*
X02872754D02*
X02892754D01*
X02872754Y05531496D02*
X02892754D01*
X02872754Y05557496D02*
X02892754D01*
X02942754Y05403956D02*
X02962754D01*
X02942754Y05377956D02*
X02962754D01*
X02942754Y05352956D02*
X02962754D01*
X02872754D02*
X02892754D01*
X02872754Y05377956D02*
X02892754D01*
X02872754Y05403956D02*
X02892754D01*
X02942754Y05254346D02*
X02962754D01*
X02942754Y05228346D02*
X02962754D01*
X02942754Y05203346D02*
X02962754D01*
X02872754D02*
X02892754D01*
X02872754Y05228346D02*
X02892754D01*
X02872754Y05254346D02*
X02892754D01*
G54D12*
X03015754Y04657476D02*
Y04602376D01*
X03133854Y04657476D02*
Y04602376D01*
G54D11*
X01847044Y05222476D02*
X01893104D01*
X01847044Y05248066D02*
X01893104D01*
X01847044Y05273656D02*
X01893104D01*
X01847044Y05299246D02*
X01893104D01*
X01847044Y05324826D02*
X01893104D01*
X01847044Y05350416D02*
X01893104D01*
X01847044Y05376006D02*
X01893104D01*
X01847044Y05401596D02*
X01893104D01*
X02079324D02*
X02125384D01*
X02079324Y05376006D02*
X02125384D01*
X02079324Y05350416D02*
X02125384D01*
X02079324Y05324826D02*
X02125384D01*
X02079324Y05299246D02*
X02125384D01*
X02079324Y05273656D02*
X02125384D01*
X02079324Y05248066D02*
X02125384D01*
X02079324Y05222476D02*
X02125384D01*
G54D12*
X01868114Y04931106D02*
X01875974D01*
X01868114Y05001966D02*
X01875974D01*
G54D16*
X02081264Y04866706D02*
X02147264D01*
X02081264Y04956706D02*
X02147264D01*
X02081264Y05047706D02*
X02147264D01*
G54D17*
X02358264Y05001706D02*
Y04911706D01*
G54D15*
X02098424Y04350656D02*
Y04318656D01*
X02214424Y04350656D02*
Y04318656D01*
G54D14*
X02075174Y03785776D02*
Y03779776D01*
X02153174Y03785776D02*
Y03779776D01*
X02114174Y03703776D02*
Y03697776D01*
G54D18*
X02167334Y03559046D02*
X02250014D01*
X02167334Y03334646D02*
X02250014D01*
G54D19*
X01909454Y03781506D02*
Y03746076D01*
Y03950796D02*
Y03915366D01*
G54D10*
X01857364Y03337876D02*
X01867044D01*
X01857364Y03279536D02*
X01867044D01*
G54D12*
X02515764Y03358276D02*
X02570864D01*
X02515764Y03476376D02*
X02570864D01*
G54D10*
X03140834Y04072486D02*
X03150514D01*
X03140834Y04014146D02*
X03150514D01*
X03140834Y03922876D02*
X03150514D01*
X03140834Y03864536D02*
X03150514D01*
X03140834Y03773266D02*
X03150514D01*
X03140834Y03714926D02*
X03150514D01*
X03140834Y03623666D02*
X03150514D01*
X03140834Y03565326D02*
X03150514D01*
X03140834Y03474056D02*
X03150514D01*
X03140834Y03415716D02*
X03150514D01*
G54D14*
X02993744Y03256276D02*
X02999744D01*
X02993744Y03334276D02*
X02999744D01*
X03075744Y03295276D02*
X03081744D01*
X02993744Y03405886D02*
X02999744D01*
X02993744Y03483886D02*
X02999744D01*
X03075744Y03444886D02*
X03081744D01*
G54D20*
X02090564Y04683996D02*
X02106564D01*
X02090564Y04644996D02*
X02106564D01*
X02090564Y04605996D02*
X02106564D01*
X02008564D02*
X02024564D01*
X02008564Y04644996D02*
X02024564D01*
X02008564Y04683996D02*
X02024564D01*
G54D14*
X02459464Y04486826D02*
Y04480826D01*
X02381464Y04486826D02*
Y04480826D01*
X02420464Y04568826D02*
Y04562826D01*
X02592884Y05441306D02*
Y05435306D01*
X02670884Y05441306D02*
Y05435306D01*
X02631884Y05359306D02*
Y05353306D01*
G54D10*
X03739257Y00518080D02*
X03748937D01*
X03739257Y00576420D02*
X03748937D01*
X03695947Y00307090D02*
X03705627D01*
X03695947Y00365430D02*
X03705627D01*
X03672327Y00518080D02*
X03682007D01*
X03672327Y00576420D02*
X03682007D01*
X03805477Y00532400D02*
Y00522720D01*
X03863817Y00532400D02*
Y00522720D01*
G54D11*
X03844487Y00290770D02*
Y00244710D01*
X03818897Y00290770D02*
Y00244710D01*
X03793317Y00290770D02*
Y00244710D01*
X03767727Y00290770D02*
Y00244710D01*
Y00467930D02*
Y00421870D01*
X03793317Y00467930D02*
Y00421870D01*
X03818897Y00467930D02*
Y00421870D01*
X03844487Y00467930D02*
Y00421870D01*
G54D10*
X03695947Y00467790D02*
X03705627D01*
X03695947Y00409450D02*
X03705627D01*
G54D12*
X04192927Y00287410D02*
X04248027D01*
X04192927Y00405510D02*
X04248027D01*
G54D10*
X04951857Y00253580D02*
X04961537D01*
X04951857Y00195240D02*
X04961537D01*
G54D13*
X04718077Y02691090D02*
Y02671090D01*
X04744077Y02691090D02*
Y02671090D01*
X04769077Y02691090D02*
Y02671090D01*
Y02621090D02*
Y02601090D01*
X04744077Y02621090D02*
Y02601090D01*
X04718077Y02621090D02*
Y02601090D01*
G54D14*
X03963827Y00073870D02*
Y00067870D01*
X03885827Y00073870D02*
Y00067870D01*
X03924827Y00155870D02*
Y00149870D01*
X04804767Y00484630D02*
X04810767D01*
X04804767Y00562630D02*
X04810767D01*
X04886767Y00523630D02*
X04892767D01*
X04804767Y00634230D02*
X04810767D01*
X04804767Y00712230D02*
X04810767D01*
X04886767Y00673230D02*
X04892767D01*
X04804767Y01236590D02*
X04810767D01*
X04804767Y01314590D02*
X04810767D01*
X04886767Y01275590D02*
X04892767D01*
X04804767Y01083050D02*
X04810767D01*
X04804767Y01161050D02*
X04810767D01*
X04886767Y01122050D02*
X04892767D01*
X04804767Y00933450D02*
X04810767D01*
X04804767Y01011450D02*
X04810767D01*
X04886767Y00972450D02*
X04892767D01*
X04804767Y00783840D02*
X04810767D01*
X04804767Y00861840D02*
X04810767D01*
X04886767Y00822840D02*
X04892767D01*
X04331437Y01652620D02*
Y01646620D01*
X04409437Y01652620D02*
Y01646620D01*
X04370437Y01570620D02*
Y01564620D01*
G54D12*
X04218497Y02181100D02*
Y02157480D01*
X04336597Y02181100D02*
Y02157480D01*
X04218497Y02088590D02*
Y02064970D01*
X04336597Y02088590D02*
Y02064970D01*
X04218497Y02393710D02*
Y02370090D01*
X04336597Y02393710D02*
Y02370090D01*
X04218497Y02295290D02*
Y02271670D01*
X04336597Y02295290D02*
Y02271670D01*
G54D10*
X03667687Y01685950D02*
Y01676270D01*
X03726027Y01685950D02*
Y01676270D01*
X03668377Y02444180D02*
X03678057D01*
X03668377Y02385840D02*
X03678057D01*
X04205797Y01563720D02*
X04215477D01*
X04205797Y01622060D02*
X04215477D01*
X03667677Y01544220D02*
Y01534540D01*
X03726017Y01544220D02*
Y01534540D01*
X03723687Y01611150D02*
Y01601470D01*
X03665347Y01611150D02*
Y01601470D01*
X04200067Y01252880D02*
Y01243200D01*
X04141727Y01252880D02*
Y01243200D01*
X04200067Y01311940D02*
Y01302260D01*
X04141727Y01311940D02*
Y01302260D01*
X04351457Y01133870D02*
X04361137D01*
X04351457Y01075530D02*
X04361137D01*
X04296337Y01133870D02*
X04306017D01*
X04296337Y01075530D02*
X04306017D01*
X04208657Y01678080D02*
Y01668400D01*
X04266997Y01678080D02*
Y01668400D01*
X04262877Y01563720D02*
X04272557D01*
X04262877Y01622060D02*
X04272557D01*
X03967777Y02087530D02*
Y02077850D01*
X03909437Y02087530D02*
Y02077850D01*
G54D14*
X04236907Y01130530D02*
X04242907D01*
X04236907Y01052530D02*
X04242907D01*
X04154907Y01091530D02*
X04160907D01*
G54D15*
X03791337Y01460890D02*
Y01428890D01*
X03675337Y01460890D02*
Y01428890D01*
G54D12*
X04826777Y01736220D02*
Y01681120D01*
X04944877Y01736220D02*
Y01681120D01*
G54D14*
X04481907Y02119830D02*
Y02113830D01*
X04403907Y02119830D02*
Y02113830D01*
X04442907Y02201830D02*
Y02195830D01*
G54D12*
X03968507Y00870070D02*
Y00814970D01*
X03850407Y00870070D02*
Y00814970D01*
G54D13*
X04753777Y01585060D02*
X04773777D01*
X04753777Y01559060D02*
X04773777D01*
X04753777Y01534060D02*
X04773777D01*
X04683777D02*
X04703777D01*
X04683777Y01559060D02*
X04703777D01*
X04683777Y01585060D02*
X04703777D01*
G54D10*
X04951857Y01304760D02*
X04961537D01*
X04951857Y01246420D02*
X04961537D01*
X04951857Y01151220D02*
X04961537D01*
X04951857Y01092880D02*
X04961537D01*
G54D12*
X04826777Y01885820D02*
Y01830720D01*
X04944877Y01885820D02*
Y01830720D01*
X04826777Y02035430D02*
Y01980330D01*
X04944877Y02035430D02*
Y01980330D01*
X04826777Y02185030D02*
Y02129930D01*
X04944877Y02185030D02*
Y02129930D01*
X04826777Y02334640D02*
Y02279540D01*
X04944877Y02334640D02*
Y02279540D01*
X04826777Y02488180D02*
Y02433080D01*
X04944877Y02488180D02*
Y02433080D01*
X04826777Y02637790D02*
Y02582690D01*
X04944877Y02637790D02*
Y02582690D01*
G54D13*
X04753777Y01734670D02*
X04773777D01*
X04753777Y01708670D02*
X04773777D01*
X04753777Y01683670D02*
X04773777D01*
X04683777D02*
X04703777D01*
X04683777Y01708670D02*
X04703777D01*
X04683777Y01734670D02*
X04703777D01*
X04753777Y01884270D02*
X04773777D01*
X04753777Y01858270D02*
X04773777D01*
X04753777Y01833270D02*
X04773777D01*
X04683777D02*
X04703777D01*
X04683777Y01858270D02*
X04703777D01*
X04683777Y01884270D02*
X04703777D01*
X04753777Y02033880D02*
X04773777D01*
X04753777Y02007880D02*
X04773777D01*
X04753777Y01982880D02*
X04773777D01*
X04683777D02*
X04703777D01*
X04683777Y02007880D02*
X04703777D01*
X04683777Y02033880D02*
X04703777D01*
G54D14*
X03790597Y00073870D02*
Y00067870D01*
X03712597Y00073870D02*
Y00067870D01*
X03751597Y00155870D02*
Y00149870D01*
G54D13*
X04753777Y02486630D02*
X04773777D01*
X04753777Y02460630D02*
X04773777D01*
X04753777Y02435630D02*
X04773777D01*
X04683777D02*
X04703777D01*
X04683777Y02460630D02*
X04703777D01*
X04683777Y02486630D02*
X04703777D01*
X04753777Y02333090D02*
X04773777D01*
X04753777Y02307090D02*
X04773777D01*
X04753777Y02282090D02*
X04773777D01*
X04683777D02*
X04703777D01*
X04683777Y02307090D02*
X04703777D01*
X04683777Y02333090D02*
X04703777D01*
X04753777Y02183480D02*
X04773777D01*
X04753777Y02157480D02*
X04773777D01*
X04753777Y02132480D02*
X04773777D01*
X04683777D02*
X04703777D01*
X04683777Y02157480D02*
X04703777D01*
X04683777Y02183480D02*
X04703777D01*
G54D12*
X04826777Y01586610D02*
Y01531510D01*
X04944877Y01586610D02*
Y01531510D01*
G54D11*
X03658067Y02151610D02*
X03704127D01*
X03658067Y02177200D02*
X03704127D01*
X03658067Y02202790D02*
X03704127D01*
X03658067Y02228380D02*
X03704127D01*
X03658067Y02253960D02*
X03704127D01*
X03658067Y02279550D02*
X03704127D01*
X03658067Y02305140D02*
X03704127D01*
X03658067Y02330730D02*
X03704127D01*
X03890347D02*
X03936407D01*
X03890347Y02305140D02*
X03936407D01*
X03890347Y02279550D02*
X03936407D01*
X03890347Y02253960D02*
X03936407D01*
X03890347Y02228380D02*
X03936407D01*
X03890347Y02202790D02*
X03936407D01*
X03890347Y02177200D02*
X03936407D01*
X03890347Y02151610D02*
X03936407D01*
G54D12*
X03679137Y01860240D02*
X03686997D01*
X03679137Y01931100D02*
X03686997D01*
G54D16*
X03892287Y01795840D02*
X03958287D01*
X03892287Y01885840D02*
X03958287D01*
X03892287Y01976840D02*
X03958287D01*
G54D17*
X04169287Y01930840D02*
Y01840840D01*
G54D15*
X03909447Y01279790D02*
Y01247790D01*
X04025447Y01279790D02*
Y01247790D01*
G54D14*
X03886197Y00714910D02*
Y00708910D01*
X03964197Y00714910D02*
Y00708910D01*
X03925197Y00632910D02*
Y00626910D01*
G54D18*
X03978357Y00488180D02*
X04061037D01*
X03978357Y00263780D02*
X04061037D01*
G54D19*
X03720477Y00710640D02*
Y00675210D01*
Y00879930D02*
Y00844500D01*
G54D10*
X03668387Y00267010D02*
X03678067D01*
X03668387Y00208670D02*
X03678067D01*
G54D12*
X04326787Y00287410D02*
X04381887D01*
X04326787Y00405510D02*
X04381887D01*
G54D10*
X04951857Y01001620D02*
X04961537D01*
X04951857Y00943280D02*
X04961537D01*
X04951857Y00852010D02*
X04961537D01*
X04951857Y00793670D02*
X04961537D01*
X04951857Y00702400D02*
X04961537D01*
X04951857Y00644060D02*
X04961537D01*
X04951857Y00552800D02*
X04961537D01*
X04951857Y00494460D02*
X04961537D01*
X04951857Y00403190D02*
X04961537D01*
X04951857Y00344850D02*
X04961537D01*
G54D14*
X04804767Y00185410D02*
X04810767D01*
X04804767Y00263410D02*
X04810767D01*
X04886767Y00224410D02*
X04892767D01*
X04804767Y00335020D02*
X04810767D01*
X04804767Y00413020D02*
X04810767D01*
X04886767Y00374020D02*
X04892767D01*
G54D20*
X03901587Y01613130D02*
X03917587D01*
X03901587Y01574130D02*
X03917587D01*
X03901587Y01535130D02*
X03917587D01*
X03819587D02*
X03835587D01*
X03819587Y01574130D02*
X03835587D01*
X03819587Y01613130D02*
X03835587D01*
G54D14*
X04270487Y01415960D02*
Y01409960D01*
X04192487Y01415960D02*
Y01409960D01*
X04231487Y01497960D02*
Y01491960D01*
X04403907Y02370440D02*
Y02364440D01*
X04481907Y02370440D02*
Y02364440D01*
X04442907Y02288440D02*
Y02282440D01*
G54D10*
X03739257Y03588946D02*
X03748937D01*
X03739257Y03647286D02*
X03748937D01*
X03695947Y03377956D02*
X03705627D01*
X03695947Y03436296D02*
X03705627D01*
X03672327Y03588946D02*
X03682007D01*
X03672327Y03647286D02*
X03682007D01*
X03805477Y03603266D02*
Y03593586D01*
X03863817Y03603266D02*
Y03593586D01*
G54D11*
X03844487Y03361636D02*
Y03315576D01*
X03818897Y03361636D02*
Y03315576D01*
X03793317Y03361636D02*
Y03315576D01*
X03767727Y03361636D02*
Y03315576D01*
Y03538796D02*
Y03492736D01*
X03793317Y03538796D02*
Y03492736D01*
X03818897Y03538796D02*
Y03492736D01*
X03844487Y03538796D02*
Y03492736D01*
G54D10*
X03695947Y03538656D02*
X03705627D01*
X03695947Y03480316D02*
X03705627D01*
G54D12*
X04192927Y03358276D02*
X04248027D01*
X04192927Y03476376D02*
X04248027D01*
G54D10*
X04951857Y03324446D02*
X04961537D01*
X04951857Y03266106D02*
X04961537D01*
G54D13*
X04718077Y05761956D02*
Y05741956D01*
X04744077Y05761956D02*
Y05741956D01*
X04769077Y05761956D02*
Y05741956D01*
Y05691956D02*
Y05671956D01*
X04744077Y05691956D02*
Y05671956D01*
X04718077Y05691956D02*
Y05671956D01*
G54D14*
X03963827Y03144736D02*
Y03138736D01*
X03885827Y03144736D02*
Y03138736D01*
X03924827Y03226736D02*
Y03220736D01*
X04804767Y03555496D02*
X04810767D01*
X04804767Y03633496D02*
X04810767D01*
X04886767Y03594496D02*
X04892767D01*
X04804767Y03705096D02*
X04810767D01*
X04804767Y03783096D02*
X04810767D01*
X04886767Y03744096D02*
X04892767D01*
X04804767Y04307456D02*
X04810767D01*
X04804767Y04385456D02*
X04810767D01*
X04886767Y04346456D02*
X04892767D01*
X04804767Y04153916D02*
X04810767D01*
X04804767Y04231916D02*
X04810767D01*
X04886767Y04192916D02*
X04892767D01*
X04804767Y04004316D02*
X04810767D01*
X04804767Y04082316D02*
X04810767D01*
X04886767Y04043316D02*
X04892767D01*
X04804767Y03854706D02*
X04810767D01*
X04804767Y03932706D02*
X04810767D01*
X04886767Y03893706D02*
X04892767D01*
X04331437Y04723486D02*
Y04717486D01*
X04409437Y04723486D02*
Y04717486D01*
X04370437Y04641486D02*
Y04635486D01*
G54D12*
X04218497Y05251966D02*
Y05228346D01*
X04336597Y05251966D02*
Y05228346D01*
X04218497Y05159456D02*
Y05135836D01*
X04336597Y05159456D02*
Y05135836D01*
X04218497Y05464576D02*
Y05440956D01*
X04336597Y05464576D02*
Y05440956D01*
X04218497Y05366156D02*
Y05342536D01*
X04336597Y05366156D02*
Y05342536D01*
G54D10*
X03667687Y04756816D02*
Y04747136D01*
X03726027Y04756816D02*
Y04747136D01*
X03668377Y05515046D02*
X03678057D01*
X03668377Y05456706D02*
X03678057D01*
X04205797Y04634586D02*
X04215477D01*
X04205797Y04692926D02*
X04215477D01*
X03667677Y04615086D02*
Y04605406D01*
X03726017Y04615086D02*
Y04605406D01*
X03723687Y04682016D02*
Y04672336D01*
X03665347Y04682016D02*
Y04672336D01*
X04200067Y04323746D02*
Y04314066D01*
X04141727Y04323746D02*
Y04314066D01*
X04200067Y04382806D02*
Y04373126D01*
X04141727Y04382806D02*
Y04373126D01*
X04351457Y04204736D02*
X04361137D01*
X04351457Y04146396D02*
X04361137D01*
X04296337Y04204736D02*
X04306017D01*
X04296337Y04146396D02*
X04306017D01*
X04208657Y04748946D02*
Y04739266D01*
X04266997Y04748946D02*
Y04739266D01*
X04262877Y04634586D02*
X04272557D01*
X04262877Y04692926D02*
X04272557D01*
X03967777Y05158396D02*
Y05148716D01*
X03909437Y05158396D02*
Y05148716D01*
G54D14*
X04236907Y04201396D02*
X04242907D01*
X04236907Y04123396D02*
X04242907D01*
X04154907Y04162396D02*
X04160907D01*
G54D15*
X03791337Y04531756D02*
Y04499756D01*
X03675337Y04531756D02*
Y04499756D01*
G54D12*
X04826777Y04807086D02*
Y04751986D01*
X04944877Y04807086D02*
Y04751986D01*
G54D14*
X04481907Y05190696D02*
Y05184696D01*
X04403907Y05190696D02*
Y05184696D01*
X04442907Y05272696D02*
Y05266696D01*
G54D12*
X03968507Y03940936D02*
Y03885836D01*
X03850407Y03940936D02*
Y03885836D01*
G54D13*
X04753777Y04655926D02*
X04773777D01*
X04753777Y04629926D02*
X04773777D01*
X04753777Y04604926D02*
X04773777D01*
X04683777D02*
X04703777D01*
X04683777Y04629926D02*
X04703777D01*
X04683777Y04655926D02*
X04703777D01*
G54D10*
X04951857Y04375626D02*
X04961537D01*
X04951857Y04317286D02*
X04961537D01*
X04951857Y04222086D02*
X04961537D01*
X04951857Y04163746D02*
X04961537D01*
G54D12*
X04826777Y04956686D02*
Y04901586D01*
X04944877Y04956686D02*
Y04901586D01*
X04826777Y05106296D02*
Y05051196D01*
X04944877Y05106296D02*
Y05051196D01*
X04826777Y05255896D02*
Y05200796D01*
X04944877Y05255896D02*
Y05200796D01*
X04826777Y05405506D02*
Y05350406D01*
X04944877Y05405506D02*
Y05350406D01*
X04826777Y05559046D02*
Y05503946D01*
X04944877Y05559046D02*
Y05503946D01*
X04826777Y05708656D02*
Y05653556D01*
X04944877Y05708656D02*
Y05653556D01*
G54D13*
X04753777Y04805536D02*
X04773777D01*
X04753777Y04779536D02*
X04773777D01*
X04753777Y04754536D02*
X04773777D01*
X04683777D02*
X04703777D01*
X04683777Y04779536D02*
X04703777D01*
X04683777Y04805536D02*
X04703777D01*
X04753777Y04955136D02*
X04773777D01*
X04753777Y04929136D02*
X04773777D01*
X04753777Y04904136D02*
X04773777D01*
X04683777D02*
X04703777D01*
X04683777Y04929136D02*
X04703777D01*
X04683777Y04955136D02*
X04703777D01*
X04753777Y05104746D02*
X04773777D01*
X04753777Y05078746D02*
X04773777D01*
X04753777Y05053746D02*
X04773777D01*
X04683777D02*
X04703777D01*
X04683777Y05078746D02*
X04703777D01*
X04683777Y05104746D02*
X04703777D01*
G54D14*
X03790597Y03144736D02*
Y03138736D01*
X03712597Y03144736D02*
Y03138736D01*
X03751597Y03226736D02*
Y03220736D01*
G54D13*
X04753777Y05557496D02*
X04773777D01*
X04753777Y05531496D02*
X04773777D01*
X04753777Y05506496D02*
X04773777D01*
X04683777D02*
X04703777D01*
X04683777Y05531496D02*
X04703777D01*
X04683777Y05557496D02*
X04703777D01*
X04753777Y05403956D02*
X04773777D01*
X04753777Y05377956D02*
X04773777D01*
X04753777Y05352956D02*
X04773777D01*
X04683777D02*
X04703777D01*
X04683777Y05377956D02*
X04703777D01*
X04683777Y05403956D02*
X04703777D01*
X04753777Y05254346D02*
X04773777D01*
X04753777Y05228346D02*
X04773777D01*
X04753777Y05203346D02*
X04773777D01*
X04683777D02*
X04703777D01*
X04683777Y05228346D02*
X04703777D01*
X04683777Y05254346D02*
X04703777D01*
G54D12*
X04826777Y04657476D02*
Y04602376D01*
X04944877Y04657476D02*
Y04602376D01*
G54D11*
X03658067Y05222476D02*
X03704127D01*
X03658067Y05248066D02*
X03704127D01*
X03658067Y05273656D02*
X03704127D01*
X03658067Y05299246D02*
X03704127D01*
X03658067Y05324826D02*
X03704127D01*
X03658067Y05350416D02*
X03704127D01*
X03658067Y05376006D02*
X03704127D01*
X03658067Y05401596D02*
X03704127D01*
X03890347D02*
X03936407D01*
X03890347Y05376006D02*
X03936407D01*
X03890347Y05350416D02*
X03936407D01*
X03890347Y05324826D02*
X03936407D01*
X03890347Y05299246D02*
X03936407D01*
X03890347Y05273656D02*
X03936407D01*
X03890347Y05248066D02*
X03936407D01*
X03890347Y05222476D02*
X03936407D01*
G54D12*
X03679137Y04931106D02*
X03686997D01*
X03679137Y05001966D02*
X03686997D01*
G54D16*
X03892287Y04866706D02*
X03958287D01*
X03892287Y04956706D02*
X03958287D01*
X03892287Y05047706D02*
X03958287D01*
G54D17*
X04169287Y05001706D02*
Y04911706D01*
G54D15*
X03909447Y04350656D02*
Y04318656D01*
X04025447Y04350656D02*
Y04318656D01*
G54D14*
X03886197Y03785776D02*
Y03779776D01*
X03964197Y03785776D02*
Y03779776D01*
X03925197Y03703776D02*
Y03697776D01*
G54D18*
X03978357Y03559046D02*
X04061037D01*
X03978357Y03334646D02*
X04061037D01*
G54D19*
X03720477Y03781506D02*
Y03746076D01*
Y03950796D02*
Y03915366D01*
G54D10*
X03668387Y03337876D02*
X03678067D01*
X03668387Y03279536D02*
X03678067D01*
G54D12*
X04326787Y03358276D02*
X04381887D01*
X04326787Y03476376D02*
X04381887D01*
G54D10*
X04951857Y04072486D02*
X04961537D01*
X04951857Y04014146D02*
X04961537D01*
X04951857Y03922876D02*
X04961537D01*
X04951857Y03864536D02*
X04961537D01*
X04951857Y03773266D02*
X04961537D01*
X04951857Y03714926D02*
X04961537D01*
X04951857Y03623666D02*
X04961537D01*
X04951857Y03565326D02*
X04961537D01*
X04951857Y03474056D02*
X04961537D01*
X04951857Y03415716D02*
X04961537D01*
G54D14*
X04804767Y03256276D02*
X04810767D01*
X04804767Y03334276D02*
X04810767D01*
X04886767Y03295276D02*
X04892767D01*
X04804767Y03405886D02*
X04810767D01*
X04804767Y03483886D02*
X04810767D01*
X04886767Y03444886D02*
X04892767D01*
G54D20*
X03901587Y04683996D02*
X03917587D01*
X03901587Y04644996D02*
X03917587D01*
X03901587Y04605996D02*
X03917587D01*
X03819587D02*
X03835587D01*
X03819587Y04644996D02*
X03835587D01*
X03819587Y04683996D02*
X03835587D01*
G54D14*
X04270487Y04486826D02*
Y04480826D01*
X04192487Y04486826D02*
Y04480826D01*
X04231487Y04568826D02*
Y04562826D01*
X04403907Y05441306D02*
Y05435306D01*
X04481907Y05441306D02*
Y05435306D01*
X04442907Y05359306D02*
Y05353306D01*
M02*
